<?xml version="1.0" encoding="UTF-8" standalone="no"?>
<svg width="22px" height="22px" viewBox="0 0 22 22" version="1.1" xmlns="http://www.w3.org/2000/svg" xmlns:xlink="http://www.w3.org/1999/xlink">
    <!-- Generator: Sketch 50.2 (55047) - http://www.bohemiancoding.com/sketch -->
    <title>Icon-pinterest</title>
    <desc>Created with Sketch.</desc>
    <defs></defs>
    <g id="Page-1" stroke="none" stroke-width="1" fill="none" fill-rule="evenodd">
        <g id="cryptotab_share-box-upd--b" transform="translate(-901.000000, -347.000000)">
            <g id="center" transform="translate(140.000000, -133.000000)">
                <g id="share" transform="translate(1.000000, 351.000000)">
                    <g id="more" transform="translate(726.000000, 0.000000)">
                        <g id="active">
                            <g id="dropdown">
                                <g id="pinterest" transform="translate(20.000000, 120.000000)">
                                    <g id="up">
                                        <g id="Icon-pinterest" transform="translate(14.000000, 9.000000)">
                                            <circle id="Oval" fill="#BD081C" cx="11" cy="11" r="11"></circle>
                                            <path d="M7.1665696,17.3889262 L8.25336906,12.8354983 C8.25336906,12.8354983 8.36336906,12.2854983 8.0824296,11.7945462 C8.0824296,11.7945462 7.4567496,10.2305662 8.6931496,8.90462619 C8.6931496,8.90462619 9.7060296,7.75754619 11.0020496,8.62170619 C11.0020496,8.62170619 11.7412491,9.20329826 11.4433691,10.3054983 L10.5633691,13.0554983 C10.5633691,13.0554983 10.0259097,15.1454983 12.0149296,15.3251062 C12.0149296,15.3251062 14.1154896,15.6080262 15.1283696,12.7627662 C16.1412496,9.91772619 14.9633691,8.10549826 14.9633691,8.10549826 C14.9633691,8.10549826 13.4484501,5.44587412 10.0259096,6.00568619 C6.60336906,6.56549826 6.1706296,9.83060619 6.1706296,9.83060619 C6.1706296,9.83060619 5.9136696,11.8414062 6.9870496,13.3077062 L6.4731296,15.0615462 C6.4731296,15.0615462 3.85336914,13.3854983 3.9633696,10.3748862 C3.9633696,10.3748862 4.07336913,5.35549816 9.20728958,4.14549819 C9.20728958,4.14549819 13.85749,2.97444844 16.61,6.70999993 C18.1499992,8.80000001 18.0399996,11.0754978 17.71,12.7627661 C17.3800004,14.4500344 16.1335496,15.5301462 16.1335496,15.5301462 C16.1335496,15.5301462 12.7633691,19.1054974 9.8316496,15.9501262 L9.2072896,18.3553862 C9.2072896,18.3553862 8.47468906,20.9614174 7.48336906,21.6354974 L7.0275296,21.5187662 C7.0275296,21.5187662 6.8007096,18.6158662 7.1665696,17.3889262 Z" id="Icon" fill="#FFFFFF"></path>
                                        </g>
                                    </g>
                                </g>
                            </g>
                        </g>
                    </g>
                </g>
            </g>
        </g>
    </g>
</svg>