<?xml version="1.0" encoding="UTF-8" standalone="no"?>
<svg width="26px" height="26px" viewBox="0 0 26 26" version="1.1" xmlns="http://www.w3.org/2000/svg" xmlns:xlink="http://www.w3.org/1999/xlink">
    <!-- Generator: Sketch 50.2 (55047) - http://www.bohemiancoding.com/sketch -->
    <title>icon-whatsapp</title>
    <desc>Created with Sketch.</desc>
    <defs></defs>
    <g id="Page-1" stroke="none" stroke-width="1" fill="none" fill-rule="evenodd">
        <g id="cryptotab_share-box-upd--b" transform="translate(-653.000000, -511.000000)" fill="#FFFFFF">
            <g id="center" transform="translate(140.000000, -133.000000)">
                <g id="share" transform="translate(1.000000, 351.000000)">
                    <g id="share-icons" transform="translate(200.000000, 276.000000)">
                        <g id="whatsapp" transform="translate(285.000000, 0.000000)">
                            <g id="up">
                                <g id="icon-whatsapp" transform="translate(27.000000, 17.000000)">
                                    <path d="M0.648865228,23.4583646 L6.28554778,21.9123623 L7.09460614,21.6904576 L7.83434728,22.0831076 C9.3827419,22.9049859 11.114604,23.3409091 12.9147908,23.3409091 C18.8566129,23.3409091 23.6734115,18.5788469 23.6734115,12.7045455 C23.6734115,6.83024402 18.8566129,2.06818182 12.9147908,2.06818182 C6.97296864,2.06818182 2.15617009,6.83024402 2.15617009,12.7045455 C2.15617009,14.6363762 2.6759398,16.488043 3.64780929,18.111809 L4.10049001,18.8681323 L3.86399361,19.7152729 L2.35011601,25.1380503 L1.14200711,25.4694046 L0.315307287,24.653184 L0.648865228,23.4583646 L0.648865228,23.4583646 L0.648865228,23.4583646 Z M0.0642160635,12.7045455 C0.0642160635,5.68801875 5.81761434,0 12.9147908,0 C20.0119672,0 25.7653655,5.68801875 25.7653655,12.7045455 C25.7653655,19.7210722 20.0119672,25.4090909 12.9147908,25.4090909 C10.7193621,25.4090909 8.65251975,24.8648032 6.84479146,23.9052722 L0,25.7826289 L1.84743554,19.165032 C0.714472134,17.2721159 0.0642160635,15.0634055 0.0642160635,12.7045455 L0.0642160635,12.7045455 Z" id="Shape" fill-rule="nonzero"></path>
                                    <path d="M9.70448211,7.63172752 L10.5594936,9.64761388 C10.5594936,9.64761388 10.9103442,10.449773 10.1428959,11.0782048 C9.37574648,11.7069321 9.90162696,12.3371365 9.90162696,12.3371365 C9.90162696,12.3371365 10.8541391,14.046712 13.5919093,15.6785075 C13.5919093,15.6785075 14.3223212,16.1792275 14.9630568,15.5082502 C14.9630568,15.5082502 15.4011718,15.0721593 15.7711488,14.6121366 C15.7711488,14.6121366 16.2312435,13.9803438 16.9238154,14.4135912 C16.9238154,14.4135912 17.9454356,14.9792059 18.9434476,15.490523 C18.9434476,15.490523 19.8571294,15.8577337 19.4551754,16.8176655 C19.4551754,16.8176655 18.3016775,19.3542823 15.4270175,18.754599 C15.4270175,18.754599 13.3566188,18.5442449 11.5302206,17.2319786 C11.249764,17.0304706 11.1653449,16.9800165 10.5213377,16.4636158 C10.4722367,16.4242438 10.1669758,16.1451388 10.1174718,16.1011242 C9.7781926,15.7994678 9.41029503,15.4287827 9.2215123,15.2278087 C7.75307628,13.6645434 7.11494188,12.3371366 7.11494188,12.3371366 C7.11494188,12.3371366 6.40924404,10.9300304 6.30812157,10.0882522 C6.30812157,10.0882522 5.96248514,8.25262373 7.53393039,7.1982957 C7.53393039,7.1982957 9.046712,6.04956843 9.70448211,7.63172752 Z" id="Phone"></path>
                                </g>
                            </g>
                        </g>
                    </g>
                </g>
            </g>
        </g>
    </g>
</svg>