<?xml version="1.0" encoding="UTF-8"?>
<svg width="693px" height="292px" viewBox="0 0 693 292" version="1.1" xmlns="http://www.w3.org/2000/svg" xmlns:xlink="http://www.w3.org/1999/xlink">
    <!-- Generator: Sketch 51 (57462) - http://www.bohemiancoding.com/sketch -->
    <title>amp-jet</title>
    <desc>Created with Sketch.</desc>
    <defs>
        <linearGradient x1="0%" y1="50%" x2="100%" y2="50%" id="linearGradient-1">
            <stop stop-color="#FFFFFF" stop-opacity="0" offset="0%"></stop>
            <stop stop-color="#FFFFFF" stop-opacity="0.417742301" offset="47.9791366%"></stop>
            <stop stop-color="#FFFFFF" stop-opacity="0" offset="100%"></stop>
        </linearGradient>
        <linearGradient x1="77.8179253%" y1="44.3259549%" x2="0%" y2="0%" id="linearGradient-2">
            <stop stop-color="#0F529B" offset="0%"></stop>
            <stop stop-color="#1E1F44" offset="100%"></stop>
        </linearGradient>
        <path d="M46.8701439,0.542832913 C57.9670841,3.37413563 64.635751,9.07184074 65.8631636,17.7054271 C67.0905763,26.3390134 65.2506251,38.5534398 50.7631613,43.026757 C36.2756975,47.5000742 25.1703106,46.362433 18.8208584,45.8444699 C12.4714062,45.3265069 2.17393217,38.6397058 0.50204676,29.5099531 C-0.194505687,25.7062524 -2.22875575,12.3738785 12.5210065,7.01398926 C33.1740518,-0.491083258 43.1787409,-0.39900144 46.8701439,0.542832913 Z" id="path-3"></path>
        <linearGradient x1="18.7216074%" y1="-16.5029103%" x2="100%" y2="133.572601%" id="linearGradient-5">
            <stop stop-color="#1E1F44" offset="0%"></stop>
            <stop stop-color="#0088F7" offset="100%"></stop>
        </linearGradient>
        <linearGradient x1="91.3025265%" y1="-64.3864398%" x2="37.5231324%" y2="106.891891%" id="linearGradient-6">
            <stop stop-color="#FFFFFF" offset="0%"></stop>
            <stop stop-color="#FFFFFF" stop-opacity="0.324305417" offset="67.5694583%"></stop>
            <stop stop-color="#FFFFFF" stop-opacity="0" offset="100%"></stop>
        </linearGradient>
        <linearGradient x1="7.88164506%" y1="-7.71051692%" x2="154.340508%" y2="253.79009%" id="linearGradient-7">
            <stop stop-color="#FFFFFF" offset="0%"></stop>
            <stop stop-color="#BBE7F6" offset="28.7077205%"></stop>
            <stop stop-color="#12ACDF" offset="100%"></stop>
        </linearGradient>
        <path d="M23.2395856,0.118569441 C12.9402243,5.53789754 6.46490233,8.89900101 3.81361983,10.2018798 C-0.163303925,12.1561981 -0.215936118,15.8976491 0.425297331,19.6119932 C1.06653078,23.3263373 2.67631538,25.3291317 7.65145444,26.6640598 C10.9682138,27.5540118 17.3798293,28.9613025 26.8863008,30.8859318 C29.5999988,27.3900727 30.7058381,22.3939784 30.2038189,15.8976491 C29.7017997,9.40131967 27.3803886,4.14162647 23.2395856,0.118569441 Z" id="path-8"></path>
        <linearGradient x1="50%" y1="3.5933514%" x2="100%" y2="158.488822%" id="linearGradient-10">
            <stop stop-color="#1E1F44" offset="0%"></stop>
            <stop stop-color="#1A2E5E" offset="11.6822354%"></stop>
            <stop stop-color="#0088F7" offset="100%"></stop>
        </linearGradient>
        <path d="M27.6061892,5.45019166 C29.302532,11.2305271 22.153846,26.8022122 18.2949417,29.6364412 C15.7223388,31.5259272 20.3650995,33.1600632 32.2232238,34.5388493 L35.8432437,15.3710291 C29.2209787,4.90358049 26.4752939,1.59663469 27.6061892,5.45019166 Z" id="path-11"></path>
        <linearGradient x1="7.88164506%" y1="-7.71051692%" x2="154.340508%" y2="253.79009%" id="linearGradient-12">
            <stop stop-color="#FFFFFF" offset="0%"></stop>
            <stop stop-color="#12ACDF" offset="100%"></stop>
        </linearGradient>
        <path d="M5.60192971,0.182201589 L1.75585731,3.41606889 C0.0649946228,4.83778564 -0.153191268,7.36102981 1.26852548,9.0518925 C1.69468332,9.55872651 2.24000296,9.95183316 2.85555404,10.1959399 L7.35905411,11.9818754 C7.95094414,10.7151636 8.13433272,8.80786126 7.90921985,6.25996836 C7.64950009,3.32038461 6.88040338,1.29446235 5.60192971,0.182201589 Z" id="path-13"></path>
        <path d="M46.8701439,0.444258193 C57.9670841,3.27556091 64.635751,8.97326602 65.8631636,17.6068523 C67.0905763,26.2404387 65.2506251,38.454865 50.7631613,42.9281823 C36.2756975,47.4014995 25.1703106,46.2638583 18.8208584,45.7458952 C12.4714062,45.2279322 2.17393217,38.5411311 0.50204676,29.4113783 C-0.194505687,25.6076777 -2.22875575,12.2753038 12.5210065,6.91541454 C33.1740518,-0.589657977 43.1787409,-0.497576159 46.8701439,0.444258193 Z" id="path-15"></path>
        <path d="M23.2395856,0.118569441 C12.9402243,5.53789754 6.46490233,8.89900101 3.81361983,10.2018798 C-0.163303925,12.1561981 -0.215936118,15.8976491 0.425297331,19.6119932 C1.06653078,23.3263373 2.67631538,25.3291317 7.65145444,26.6640598 C10.9682138,27.5540118 17.3798293,28.9613025 26.8863008,30.8859318 C29.5999988,27.3900727 30.7058381,22.3939784 30.2038189,15.8976491 C29.7017997,9.40131967 27.3803886,4.14162647 23.2395856,0.118569441 Z" id="path-17"></path>
        <path d="M27.6061892,5.45019166 C29.302532,11.2305271 22.153846,26.8022122 18.2949417,29.6364412 C15.7223388,31.5259272 20.3650995,33.1600632 32.2232238,34.5388493 L35.8432437,15.3710291 C29.2209787,4.90358049 26.4752939,1.59663469 27.6061892,5.45019166 Z" id="path-19"></path>
        <path d="M5.60192971,0.182201589 L1.75585731,3.41606889 C0.0649946228,4.83778564 -0.153191268,7.36102981 1.26852548,9.0518925 C1.69468332,9.55872651 2.24000296,9.95183316 2.85555404,10.1959399 L7.35905411,11.9818754 C7.95094414,10.7151636 8.13433272,8.80786126 7.90921985,6.25996836 C7.64950009,3.32038461 6.88040338,1.29446235 5.60192971,0.182201589 Z" id="path-20"></path>
    </defs>
    <g id="amp-jet" stroke="none" stroke-width="1" fill="none" fill-rule="evenodd">
        <g id="Group-23">
            <g id="Group-21" transform="translate(0.000000, 38.000000)" fill="url(#linearGradient-1)">
                <path d="M443.97193,84.5033941 C364.210865,154.536101 236.060354,196.147588 59.5203986,209.337857 L60.97193,203.770331 C215.213341,196.297406 340.285602,153.427173 436.188712,75.159631" id="Path-9" transform="translate(251.746164, 142.248744) rotate(14.000000) translate(-251.746164, -142.248744) "></path>
                <path d="M394.97193,54.5033941 C315.210865,124.536101 187.060354,166.147588 10.5203986,179.337857 L11.97193,173.770331 C166.213341,166.297406 291.285602,123.427173 387.188712,45.159631" id="Path-9-Copy-2" transform="translate(202.746164, 112.248744) rotate(14.000000) translate(-202.746164, -112.248744) "></path>
            </g>
            <g id="Group" transform="translate(384.000000, 0.000000)">
                <g id="Group-6-Copy" transform="translate(42.469846, 122.328990) rotate(-20.000000) translate(-42.469846, -122.328990) translate(5.969846, 98.828990)">
                    <g id="Group-2" transform="translate(5.286186, 0.000000)">
                        <mask id="mask-4" fill="white">
                            <use xlink:href="#path-3"></use>
                        </mask>
                        <use id="Path-4" fill="url(#linearGradient-2)" xlink:href="#path-3"></use>
                        <path d="M7.13007782,10.1610801 C16.4608084,3.30718645 25.0407469,17.5796708 25.0407469,26.5686969 C25.0407469,35.5577231 22.1112547,45.4944235 15.3368054,44.0833795 C8.56235612,42.6723355 0.560944765,39.4777454 -0.391604205,30.1866682 C-1.34415318,20.8955911 -2.20065278,17.0149738 7.13007782,10.1610801 Z" id="Path-6" fill="url(#linearGradient-5)" mask="url(#mask-4)"></path>
                        <path d="" id="Path-5" stroke="url(#linearGradient-6)" stroke-linecap="square" mask="url(#mask-4)"></path>
                    </g>
                    <path d="M54.8533621,18.362115 C55.7132073,18.362115 56.416717,19.0561514 56.416717,19.9044182 L56.416717,29.1582371 C56.416717,30.0065038 55.7132073,30.7005403 54.8533621,30.7005403 L45.4732327,30.7005403 C44.6133876,30.7005403 43.9098779,30.0065038 43.9098779,29.1582371 L43.9098779,19.9044182 C43.9098779,19.0561514 44.6133876,18.362115 45.4732327,18.362115 L54.8533621,18.362115 Z M53.2900072,25.3024792 L53.2900072,23.7601761 L50.9449749,23.7601761 L50.9449749,21.4467213 L49.38162,21.4467213 L49.38162,23.7601761 L47.0365876,23.7601761 L47.0365876,25.3024792 L49.38162,25.3024792 L49.38162,27.6159339 L50.9449749,27.6159339 L50.9449749,25.3024792 L53.2900072,25.3024792 Z" id="Fill-1" fill="#FFFFFF" transform="translate(50.163297, 24.531328) rotate(-4.000000) translate(-50.163297, -24.531328) "></path>
                    <g id="Group-4" transform="translate(0.056053, 10.543745)">
                        <mask id="mask-9" fill="white">
                            <use xlink:href="#path-8"></use>
                        </mask>
                        <use id="Path-7" fill="url(#linearGradient-7)" xlink:href="#path-8"></use>
                        <path d="M2.41282847,11.1563116 C5.77013084,8.63151057 8.99243515,12.2989751 9.65501268,17.6780302 C10.3175902,23.0570854 8.22135551,27.2101927 5.36779441,26.1146942 C2.5142333,25.0191957 -0.239302767,21.722439 -0.239302767,18.4903811 C-0.239302767,15.2583232 -0.9444739,13.6811126 2.41282847,11.1563116 Z" id="Path-8" fill="url(#linearGradient-10)" mask="url(#mask-9)"></path>
                        <g id="Path-11" stroke-linecap="square" mask="url(#mask-9)">
                            <use fill="#B0DBFF" fill-rule="evenodd" style="mix-blend-mode: multiply;" xlink:href="#path-11"></use>
                            <use stroke="url(#linearGradient-6)" stroke-width="1" xlink:href="#path-11"></use>
                        </g>
                    </g>
                    <g id="Group-5" transform="translate(1.835152, 22.209165)">
                        <mask id="mask-14" fill="white">
                            <use xlink:href="#path-13"></use>
                        </mask>
                        <use id="Path-10" fill="url(#linearGradient-12)" xlink:href="#path-13"></use>
                        <path d="M3.12032867,11.1656014 C5.8889492,8.90406015 7.27325946,5.78502171 7.27325946,1.8084861 C7.27325946,-2.16804951 8.81528491,-2.16804951 11.8993358,1.8084861 L10.1142545,15.6972891 L3.12032867,11.1656014 Z" id="Path-12" fill="#B0DBFF" style="mix-blend-mode: multiply;" mask="url(#mask-14)"></path>
                    </g>
                </g>
                <polygon id="Path-3" fill="#D3EBF4" transform="translate(172.000000, 96.500000) rotate(-20.000000) translate(-172.000000, -96.500000) " points="37 68 307 84.6300197 42.2263377 125"></polygon>
                <polygon id="Path-2" fill="#FFFFFF" transform="translate(147.000000, 71.000000) rotate(-20.000000) translate(-147.000000, -71.000000) " points="26.5280674 75.8207014 294 92 0 50"></polygon>
                <polygon id="Path-3" fill="#9BCCDE" transform="translate(177.000000, 103.000000) rotate(-20.000000) translate(-177.000000, -103.000000) " points="61.5181594 81 309 84.08309 45 125"></polygon>
                <polygon id="Path-18" fill="#BEE3F1" transform="translate(78.500000, 113.500000) rotate(-20.000000) translate(-78.500000, -113.500000) " points="61 103 62.9621039 124 96 124 93.0826528 105.339011"></polygon>
                <g id="Group-6" transform="translate(103.469846, 143.328990) rotate(-20.000000) translate(-103.469846, -143.328990) translate(66.969846, 119.828990)">
                    <g id="Group-2" transform="translate(5.286186, 0.000000)">
                        <mask id="mask-16" fill="white">
                            <use xlink:href="#path-15"></use>
                        </mask>
                        <use id="Path-4" fill="url(#linearGradient-2)" xlink:href="#path-15"></use>
                        <path d="M42.4335361,21.5737705 L43.669234,21.5737705 L42.4335361,28.6603991 L45.4412754,28.6603991 C45.9683765,28.6603991 46.3956763,29.0810832 46.3956763,29.6000233 C46.3956763,29.7706907 46.3484623,29.9381354 46.2591031,30.0843807 L39.9621402,40.3899914 L38.7264423,40.3899914 L39.9621402,33.3033627 L36.9544008,33.3033627 C36.4272998,33.3033627 36,32.8826787 36,32.3637386 C36,32.1930711 36.047214,32.0256264 36.1365732,31.8793812 L42.4335361,21.5737705 Z" id="Rectangle-14" fill="#FFFFFF" mask="url(#mask-16)"></path>
                        <path d="M7.13007782,10.1610801 C16.4608084,3.30718645 25.0407469,17.5796708 25.0407469,26.5686969 C25.0407469,35.5577231 22.1112547,45.4944235 15.3368054,44.0833795 C8.56235612,42.6723355 0.560944765,39.4777454 -0.391604205,30.1866682 C-1.34415318,20.8955911 -2.20065278,17.0149738 7.13007782,10.1610801 Z" id="Path-6" fill="url(#linearGradient-5)" mask="url(#mask-16)"></path>
                        <path d="" id="Path-5" stroke="url(#linearGradient-6)" stroke-linecap="square" mask="url(#mask-16)"></path>
                    </g>
                    <g id="Group-4" transform="translate(0.056053, 10.543745)">
                        <mask id="mask-18" fill="white">
                            <use xlink:href="#path-17"></use>
                        </mask>
                        <use id="Path-7" fill="url(#linearGradient-7)" xlink:href="#path-17"></use>
                        <path d="M2.41282847,11.1563116 C5.77013084,8.63151057 8.99243515,12.2989751 9.65501268,17.6780302 C10.3175902,23.0570854 8.22135551,27.2101927 5.36779441,26.1146942 C2.5142333,25.0191957 -0.239302767,21.722439 -0.239302767,18.4903811 C-0.239302767,15.2583232 -0.9444739,13.6811126 2.41282847,11.1563116 Z" id="Path-8" fill="url(#linearGradient-10)" mask="url(#mask-18)"></path>
                        <g id="Path-11" stroke-linecap="square" mask="url(#mask-18)">
                            <use fill="#B0DBFF" fill-rule="evenodd" style="mix-blend-mode: multiply;" xlink:href="#path-19"></use>
                            <use stroke="url(#linearGradient-6)" stroke-width="1" xlink:href="#path-19"></use>
                        </g>
                    </g>
                    <g id="Group-5" transform="translate(1.835152, 22.209165)">
                        <mask id="mask-21" fill="white">
                            <use xlink:href="#path-20"></use>
                        </mask>
                        <use id="Path-10" fill="url(#linearGradient-12)" xlink:href="#path-20"></use>
                        <path d="M3.12032867,11.1656014 C5.8889492,8.90406015 7.27325946,5.78502171 7.27325946,1.8084861 C7.27325946,-2.16804951 8.81528491,-2.16804951 11.8993358,1.8084861 L10.1142545,15.6972891 L3.12032867,11.1656014 Z" id="Path-12" fill="#B0DBFF" style="mix-blend-mode: multiply;" mask="url(#mask-21)"></path>
                    </g>
                </g>
                <polygon id="Path-2" fill="#FFFFFF" transform="translate(181.500000, 94.000000) rotate(-20.000000) translate(-181.500000, -94.000000) " points="59 79 304 81.7807057 94.4280387 109"></polygon>
                <polygon id="Path-17" stroke="url(#linearGradient-6)" fill="#E5F5FB" stroke-linecap="square" transform="translate(62.500000, 101.000000) rotate(-20.000000) translate(-62.500000, -101.000000) " points="37 92 55.3460969 107.740802 88 110 69.2777429 96.9943792"></polygon>
                <polygon id="Path-19" fill="#E5F5FB" transform="translate(100.500000, 117.000000) rotate(-20.000000) translate(-100.500000, -117.000000) " points="84 108 107.324212 126 117 125.30779 94.3687021 108"></polygon>
                <polygon id="Path-19-Copy" fill="#E5F5FB" transform="translate(111.000000, 110.500000) rotate(-20.000000) translate(-111.000000, -110.500000) " points="100 104 117.443881 117 122 116.769314 105.482235 104"></polygon>
                <polygon id="Path-19-Copy-2" fill="#E5F5FB" transform="translate(120.500000, 107.000000) rotate(-20.000000) translate(-120.500000, -107.000000) " points="110 101 125.743225 113 131 113 115.42527 101"></polygon>
                <polygon id="Path-19-Copy-3" fill="#E5F5FB" transform="translate(130.500000, 103.000000) rotate(-20.000000) translate(-130.500000, -103.000000) " points="120 97 135.956373 109 141 108.766326 125.518154 97"></polygon>
            </g>
        </g>
    </g>
</svg>