<svg width="200" height="120" viewBox="0 0 200 120" fill="none" xmlns="http://www.w3.org/2000/svg"><path d="M25 76.39c6.28-8.33 20.79-31.64 22.5-20.93.84 5.2-3.5 19.41-4.47 23.09-.98 3.7-2.17 7.33-3.03 11.06-.4 1.76-1.25 3.66-.74 5.38.23.79 1.54-.34 2.06-.92 2.19-2.42 3.93-5.29 5.9-7.92 8.72-11.56 11.12-14.94 20.95-26.23.81-.93 19.83-24.64 23.96-26.48 3.3-1.47-6.7 16.98-7.97 20.67-1.55 4.5-3.34 8.9-4.86 13.41-1.34 4-5.9 16.84-5.33 22.47.6 5.9 6.26 2.78 8.31 1.28 5.55-4.05 20.8-20.7 24-24.08 5.4-5.7 24.5-26.14 30.98-32.28 7.6-7.2 7.01-5.47 2.69 2.56-13.18 24.5-7.26 10.4-20.76 37.45-2.48 4.98-5.02 9.97-6.86 15.29-.44 1.27-.9 4.79.17 4.1 3.5-2.28 5.75-6.36 8.44-9.72 19.8-24.71 6.58-10.2 27.77-35.65 7.38-8.86 14.49-16.77 22.73-24.48 1.87-1.74 7.03-6.3 6.53-3.65-.45 2.37-6.12 12.39-6.25 12.63-5.13 9.38-7.98 14.6-14.32 23.66-7.86 11.24-14.12 18.96-23.59 28.6-6.5 6.61-10.74 9.08-18.67 13.3" stroke="#143661" stroke-width="40" stroke-linecap="round" stroke-linejoin="round"/><ellipse cx="147" cy="63.5" rx="10" ry="10.5" fill="#1976D2"/><path d="M91.62 36.9V22.88c6.14-3.53 12.79-3.34 15.35-2.8.75 7.36 4.05 9.87 5.61 10.2 1.8-.15 2.37 1.14 2.44 1.8.6 2.73-1.38 4.62-2.44 5.22v19.23l1.69 2.4c12.73 8.65 31.5 24.3 39.3 31.05l23.78 7.8c2.12-.32 6.4-1 6.55-1 .15 0 5.3-2.13 7.86-3.2-.3 3.2-2.25 4.68-3.18 5.01 6.58.16 9.48.87 10.1 1.2.3 1.77-.5 2.34-.93 2.4l-5.62.4 5.62 1.2c1.35.33 1.3 1.61 1.12 2.21l-.75.2c-1.12 3-3.18 4.8-3.37 4.8-.15 0-3.43.28-5.05.41l-10.1-1.4-5.06-1.8-.56 1.2h-.38c-8.68-1.93-23.7-6.41-30.13-8.42-4.8-1.76-12.86-6.47-16.29-8.6L128 119H78.5l.95-28.02c-3.74 1.28-13.04 4.4-17.22 5.8-12.43.8-28.51-.06-35-.6l-.75-1.6h-2.43A60.39 60.39 0 0110 96.78c-4.34-.15-6.05-4.2-6.37-6.2-1.94-.32-1.8-1.6-1.5-2.2l8.43-.6-.56-1-6.55-1C1.2 85.28.9 83.96 1.02 83.36c3.15-1.6 9.18-1.07 11.8-.6l-.94-1.2c-1.35-2.25-.56-3.74 0-4.21l4.5 4.2 8.79 3 6.36-.2 26.02-4.4 10.67-6 26.77-16.03 1.5-1.4v-3.8c-3.3-5.3-4.62-12.76-4.87-15.83z" fill="#B2B5BE"/><ellipse cx="50.63" cy="40.7" rx="14.41" ry="15.42" fill="#1976D2"/><path d="M105.28 68.95h-1.87c-2.7 13.46-4.47 32.1-4.41 41.05l6.28 7.5 5.22-7.5c-.15-16.83-3.9-33.51-5.22-41.05z" fill="#1976D2"/><path d="M102.97 70.21l-1.48-2.64 2.67-2.83 2.43 2.6-1.15 3.4-2.47-.53z" fill="#1976D2"/><path d="M88.44 24.88c7.48-5.13 15.47-5.34 18.53-4.8.75 6.88 3.93 9.54 5.42 10 1.97-5.95 1.97-9.66-.74-11.41-1.05-7.53-6.7-8.76-9.36-9.02-9.3-.88-15.15 3.46-16.15 6.53l4.92.49c-1.5 2.08-2.37 6.34-2.62 8.2z" fill="#131722"/><path d="M112.58 30.18c-4.2-1.12-5.36-7.27-5.43-10.21-5.8-.96-11.67.99-15.53 2.93m20.96 7.28c.81 0 2.44.53 2.44 2.6 0 2.1-1.63 3.95-2.44 4.62v19.02m0-26.24c2.4-7.37 1.28-9.76-.93-11.41-.75-5.61-4.56-8.08-6.37-8.62-10.78-2.4-18.02 2.82-19.14 6.56 1.98-1.06 4.54-.08 5.1-.35-2.54 3.53-2.93 7.08-2.8 8.42a24.7 24.7 0 013.18-1.88m20.96 33.52l-8.42 8.42m8.42-8.42l1.69 2.4m-10.11 6.02l-7.68-8.42m7.68 8.42l-3.17 3.26-2.82 2.75-3-13.02m8.99 7l3 3.27 2.24 2.75 4.87-12.02m-17.79-2.4v-3.81a36.9 36.9 0 01-4.86-17.63v-1.2m4.86 22.63l-1.3 1.4M91.61 22.9v6.05m10.85-2.17c1.98 0 4.46 0 6.93 1.02m-5.99 3.7c1.87 0 3 0 4.51 1.63m-16.3-4.18c1-.53 4.75-1.57 6.55-1.57a50.1 50.1 0 01-2.13 9.46l2.57 1.45-.38 3.98c1.75-.06 4.66-.05 7.05 2.52M91.62 28.95v4.84m3.55 24.04c-9.8 5.87-31.03 18.54-37.62 22.23-5.84 1.28-17.26 3.5-25.64 4.31m-6.55.3c-2.81-.94-7.91-3.51-8.36-3.67-.45-.16-4-3-5.5-4a5.4 5.4 0 001.13 5.63m12.73 2.04l1.14 10.21m-1.14-10.21c1.74.07 4-.05 6.55-.3m-13.1 5.7a6.86 6.86 0 01-4.12-6 6.95 6.95 0 01-2.06-1.44m0 0c-2.75-.26-8.91-.49-11.6.64 0 .6.22 1.91.97 2.23.75.32 5.57.73 8 1l.57 1.37m0 0c-2.3.07-7.26.24-8.61.4a2.6 2.6 0 00.37 1.8c.16.22.6.67 1.17.8m7.07-3c.56 1.8 2.53 5.71 3.43 7.01m-2.87-4c-3.26.14-6.09.35-7.63 0m0 0c.3.8 1.2 2.5 2 3.62m21 .38H25c-2.06.8-11.94 3.22-15.5 2.62-1.58-.27-3-1.6-4-3m21 .38l.5 1.62c2 0 4 0 6.78.03m45.67-5.65c-3 1.44-12.35 4.47-16.66 5.8-6.02.9-19.36.42-29.01-.15m45.67-5.65v-5.01m0 5c-1.06-1.46-3.14-5.36-3-9.2m3 9.2L78.5 118m-73-23.5l7.13-.5m19.28-9.63l1.87 12.16m80.49-37.7l13.85 10.61c7.55 5.68 23.2 17.71 25.45 20.44 6.06 1.86 19.28 6.08 23.78 8m0 0l6.73-1.2 7.68-3.2a5.62 5.62 0 01-3.34 5.2m-11.07-.8L174 109.12m-46.82-16.83a112.17 112.17 0 0014.6 8.01c5.84 2.89 23.42 7.84 31.72 9.71l.5-.9m-46.82-16.82v-6.41m0 6.4c.75-1.53 2.25-4.96 2.25-6.4m-2.25 6.4l.94 25.73m53.53-13.5c2.25-.32 4.68-3.74 5.62-5.41.41-.1.8-.24 1.15-.4m0 0c2.48 0 8.02.2 10.26 1 0 .6.2 2.4-1.12 2.6-1.05.16-6 .14-8.06.21m0 0c2.37.33 7.75.84 8.5 1 .94.2 1.25 2 .68 2.6l-.56.07m-8.62-3.67V101m0 1.5l-.5 3.6m0 0c3.45.43 7.46.26 9.12.07m-9.12-.07l-1.5 3.4m10.62-3.33c-.23.68-1 2.38-1.62 3.33m-22.5-.4c.78.17 2.95 1.02 4.5 1.4 4.5 1.1 13.07 2.1 15.5 1.5 1.03-.25 1.8-1.44 2.5-2.5m0 0c-1.84.02-4.31-.07-6-.4M94.56 32.08c-.75.4-2.04.6-2.94 1.72" stroke="#131722" stroke-width="2" stroke-linecap="round" stroke-linejoin="round"/><path d="M55.5 65c1.38-2.02 4.58-4.6 5.5-6 0 1.82.5 5.98.5 8 0 2.53-1.78 7.12-4.97 6.5-3.27-.63-2.75-5.97-1.03-8.5zM130.04 33.64c1.83-2.3 4.74-6.05 5.96-7.64v9.07c0 2.86-.79 8.57-5.05 7.87-4.35-.71-3.2-6.44-.91-9.3zM74.04 12.08C75.87 9.66 78.78 5.68 80 4v9.6c0 3.03-.79 9.08-5.05 8.34-4.35-.76-3.2-6.82-.91-9.86zM26.78 23.74c1.6-2.02 4.15-5.34 5.22-6.74v8c0 2.53-.7 7.56-4.42 6.95-3.8-.63-2.8-5.69-.8-8.21zM78.78 46.74c1.6-2.02 4.15-5.34 5.22-6.74v8c0 2.53-.7 7.56-4.42 6.95-3.8-.63-2.8-5.69-.8-8.21z" stroke="#B2B5BE" stroke-width="2" stroke-linecap="round" stroke-linejoin="round"/><path d="M51.3 33.08c2.06-2.42 5.32-6.4 6.7-8.08v9.6c0 3.03-.89 9.08-5.68 8.34-4.9-.76-3.6-6.82-1.03-9.86z" fill="#B2B5BE" stroke="#B2B5BE" stroke-width="2" stroke-linecap="round" stroke-linejoin="round"/><path d="M16.48 60.4a425.4 425.4 0 003.9-5.37v6.38c0 2.01-.52 6.03-3.3 5.54-2.84-.5-2.1-4.53-.6-6.55zM146.04 59.64c1.83-2.3 4.74-6.05 5.96-7.64v9.07c0 2.86-.79 8.57-5.05 7.87-4.35-.71-3.2-6.44-.91-9.3z" stroke="#B2B5BE" stroke-width="2" stroke-linecap="round" stroke-linejoin="round"/><path d="M145.33 12.01A406 406 0 00149.22 7v5.95c0 1.88-.52 5.63-3.3 5.17-2.83-.47-2.09-4.23-.6-6.1z" fill="#B2B5BE" stroke="#B2B5BE" stroke-width="2" stroke-linecap="round" stroke-linejoin="round"/><path d="M164.5 27.76c1.63-2.1 4.21-5.55 5.3-7.02v8.34c0 2.63-.7 7.88-4.49 7.23-3.87-.65-2.85-5.92-.81-8.55z" stroke="#B2B5BE" stroke-width="2" stroke-linecap="round" stroke-linejoin="round"/><path d="M183.52 57.52c2.27-2.86 5.87-7.54 7.38-9.52v11.3c0 3.57-.98 10.69-6.25 9.82-5.39-.9-3.97-8.03-1.13-11.6z" fill="#B2B5BE" stroke="#B2B5BE" stroke-width="2" stroke-linecap="round" stroke-linejoin="round"/></svg>