<svg width="76" height="24" xmlns="http://www.w3.org/2000/svg"><path d="M11.3 13.32V17H9.54V7a56.7 56.7 0 012.08-.08c1.58 0 2.73.24 3.46.73.74.48 1.1 1.24 1.1 2.27 0 2.3-1.35 3.44-4.06 3.44-.2 0-.47-.01-.8-.04zm0-4.79v3.2c.3.04.54.05.72.05.8 0 1.4-.13 1.77-.4.38-.27.56-.71.56-1.33 0-1.03-.83-1.55-2.5-1.55-.2 0-.37 0-.54.03zM23.4 17l-2.68-4.14-1.13-.04V17h-1.84V6.99l1.15-.05a31.2 31.2 0 011.62-.06c2.54 0 3.82.99 3.82 2.96a2.9 2.9 0 01-1.86 2.65L25.44 17H23.4zm-3.8-8.47v2.78c.32.03.57.04.74.04.75 0 1.29-.1 1.63-.31.35-.21.52-.62.52-1.22 0-.5-.19-.84-.55-1.04a3.9 3.9 0 00-1.75-.3c-.19 0-.39.02-.6.05zm8.48.03v2.35h3.31v1.51h-3.3v3h4.53V17H26.3V6.99h6.4v1.57h-4.62zm15.53 8.45H41.9l-1.04-5.4-2.02 5.53h-.63l-2.02-5.53L35.1 17h-1.7l2-10.01h.95l2.16 6.74L40.63 7h.94l2.03 10zm1.13-.01V6.99h1.78V17h-1.78zM48.6 6.99h1.78v6.78c0 .54.16.98.5 1.32.32.33.77.5 1.35.5.64 0 1.14-.16 1.5-.49.35-.33.53-.79.53-1.36V6.99h1.78v6.89A3 3 0 0155 16.3c-.69.58-1.6.87-2.76.87a3.9 3.9 0 01-2.7-.85 3.17 3.17 0 01-.94-2.45V6.99zM67.43 17H65.7l-1.04-5.4-2.02 5.53H62l-2-5.53-1.08 5.4H57.2l2.02-10.02h.94l2.17 6.74L64.45 7h.93l2.05 10z" fill="#fff"/></svg>