<svg width="28" height="14" xmlns="http://www.w3.org/2000/svg"><path d="M9.3 5.18V10h-1V5.18H6.47v-.9h4.74v.9H9.3zm2.3 1.91c0-.82.22-1.5.67-2.07a2.17 2.17 0 011.8-.84c.82 0 1.44.25 1.88.76.43.51.65 1.23.65 2.15a3.3 3.3 0 01-.68 2.2c-.46.54-1.1.8-1.94.8a2.1 2.1 0 01-1.77-.8 3.55 3.55 0 01-.6-2.2zm1.06 0c0 .67.11 1.19.34 1.55.22.37.55.56.98.56.51 0 .9-.18 1.16-.54.27-.36.4-.89.4-1.57 0-1.34-.49-2.01-1.48-2.01-.45 0-.8.18-1.04.54a2.6 2.6 0 00-.36 1.47zm5.86.8V10H17.5V4.28a49.6 49.6 0 011.19-.04c.9 0 1.56.14 1.98.42.42.27.63.7.63 1.3 0 1.3-.78 1.96-2.32 1.96-.12 0-.27 0-.46-.03zm0-2.73v1.83l.4.03c.47 0 .8-.08 1.02-.23.21-.16.32-.41.32-.76 0-.6-.48-.89-1.44-.89-.1 0-.2 0-.3.02z" fill="#fff"/></svg>