<svg width="60" height="60" viewBox="13 13 60 60" xmlns="http://www.w3.org/2000/svg" xmlns:xlink="http://www.w3.org/1999/xlink"><style>/*<![CDATA[*/.svg-radar-point{opacity:0}@media all and (-ms-high-contrast:none),(-ms-high-contrast:active){.svg-radar-point{opacity: 1}}@supports(-ms-ime-align:auto){.svg-radar-point{opacity:1}}/*]]>*/</style><defs><linearGradient id="andgf1xll" gradientTransform="rotate(90)"><stop offset="0%" stop-color="#1976D2"/><stop offset="100%" stop-color="#1976D2" stop-opacity=".8"/></linearGradient><circle id="bndgf1xll" r="2.5" stroke-width="1" stroke="#1976D2" fill="none"/></defs><path d="M43 72c16 0 29-13 29-29S59 14 43 14 14 27 14 43s13 29 29 29zm0 1c-16.6 0-30-13.4-30-30s13.4-30 30-30 30 13.4 30 30-13.4 30-30 30z" fill="#1976D2"/><path d="M43 62a19 19 0 1 0 0-38 19 19 0 1 0 0 38zm0 1c-11 0-20-9-20-20s9-20 20-20 20 9 20 20-9 20-20 20z" fill="#1976D2"/><path d="M43 52c5 0 9-4 9-9s-4-9-9-9-9 4-9 9 4 9 9 9zm0 1c-5.5 0-10-4.5-10-10s4.5-10 10-10 10 4.5 10 10-4.5 10-10 10z" fill="#1976D2"/><g><g shape-rendering="crispEdges" fill="url(#andgf1xll)" transform="translate(43 43)" stroke-width="0" opacity=".55"><path d="M0 0l21.21-21.21a30 30 0 0 0-1.02-.98z" opacity=".98"/><path d="M0 0l20.19-22.19a30 30 0 0 0-1.07-.93z" opacity=".96"/><path d="M0 0l19.12-23.12a30 30 0 0 0-1.11-.87z" opacity=".94"/><path d="M0 0l18.01-23.99a30 30 0 0 0-1.15-.82z" opacity=".92"/><path d="M0 0l16.86-24.81a30 30 0 0 0-1.19-.77z" opacity=".9"/><path d="M0 0l15.67-25.58a30 30 0 0 0-1.22-.71z" opacity=".88"/><path d="M0 0l14.45-26.29a30 30 0 0 0-1.25-.65z" opacity=".86"/><path d="M0 0l13.2-26.94a30 30 0 0 0-1.29-.59z" opacity=".84"/><path d="M0 0l11.91-27.53a30 30 0 0 0-1.31-.53z" opacity=".82"/><path d="M0 0l10.6-28.06a30 30 0 0 0-1.33-.47z" opacity=".8"/><path d="M0 0l9.27-28.53a30 30 0 0 0-1.35-.41z" opacity=".78"/><path d="M0 0l7.92-28.94a30 30 0 0 0-1.38-.34z" opacity=".76"/><path d="M0 0l6.54-29.28a30 30 0 0 0-1.38-.27z" opacity=".74"/><path d="M0 0l5.16-29.55a30 30 0 0 0-1.4-.21z" opacity=".72"/><path d="M0 0l3.76-29.76a30 30 0 0 0-1.41-.15z" opacity=".7"/><path d="M0 0l2.35-29.91a30 30 0 0 0-1.41-.08z" opacity=".68"/><path d="M0 0l.94-29.99A30 30 0 0 0-.47-30z" opacity=".66"/><path d="M0 0l-.47-30a30 30 0 0 0-1.41.06z" opacity=".64"/><path d="M0 0l-1.88-29.94a30 30 0 0 0-1.41.12z" opacity=".62"/><path d="M0 0l-3.29-29.82a30 30 0 0 0-1.4.19z" opacity=".6"/><path d="M0 0l-4.69-29.63a30 30 0 0 0-1.39.25z" opacity=".58"/><path d="M0 0l-6.08-29.38a30 30 0 0 0-1.38.32z" opacity=".56"/><path d="M0 0l-7.46-29.06a30 30 0 0 0-1.36.39z" opacity=".54"/><path d="M0 0l-8.82-28.67a30 30 0 0 0-1.34.44z" opacity=".52"/><path d="M0 0l-10.16-28.23a30 30 0 0 0-1.32.51z" opacity=".5"/><path d="M0 0l-11.48-27.72a30 30 0 0 0-1.29.58z" opacity=".48"/><path d="M0 0l-12.77-27.14a30 30 0 0 0-1.27.63z" opacity=".46"/><path d="M0 0l-14.04-26.51a30 30 0 0 0-1.23.69z" opacity=".44"/><path d="M0 0l-15.27-25.82a30 30 0 0 0-1.2.75z" opacity=".42"/><path d="M0 0l-16.47-25.07a30 30 0 0 0-1.16.8z" opacity=".4"/><path d="M0 0l-17.63-24.27a30 30 0 0 0-1.13.86z" opacity=".38"/><path d="M0 0l-18.76-23.41a30 30 0 0 0-1.08.91z" opacity=".36"/><path d="M0 0l-19.84-22.5a30 30 0 0 0-1.04.96z" opacity=".34"/><path d="M0 0l-20.88-21.54a30 30 0 0 0-.99 1z" opacity=".32"/><path d="M0 0l-21.87-20.54a30 30 0 0 0-.94 1.06z" opacity=".3"/><path d="M0 0l-22.81-19.48a30 30 0 0 0-.89 1.09z" opacity=".28"/><path d="M0 0l-23.7-18.39a30 30 0 0 0-.84 1.14z" opacity=".26"/><path d="M0 0l-24.54-17.25a30 30 0 0 0-.79 1.18z" opacity=".24"/><path d="M0 0l-25.33-16.07a30 30 0 0 0-.73 1.21z" opacity=".22"/><path d="M0 0l-26.06-14.86a30 30 0 0 0-.67 1.24z" opacity=".2"/><path d="M0 0l-26.73-13.62a30 30 0 0 0-.61 1.27z" opacity=".18"/><path d="M0 0l-27.34-12.35a30 30 0 0 0-.55 1.31z" opacity=".16"/><path d="M0 0l-27.89-11.04a30 30 0 0 0-.49 1.32z" opacity=".14"/><path d="M0 0l-28.38-9.72a30 30 0 0 0-.43 1.35z" opacity=".12"/><path d="M0 0l-28.81-8.37A30 30 0 0 0-29.17-7z" opacity=".1"/><path d="M0 0l-29.17-7a30 30 0 0 0-.3 1.38z" opacity=".08"/><path d="M0 0l-29.47-5.62a30 30 0 0 0-.23 1.39z" opacity=".06"/><path d="M0 0l-29.7-4.23a30 30 0 0 0-.17 1.41z" opacity=".04"/><path d="M0 0l-29.87-2.82a30 30 0 0 0-.1 1.41z" opacity=".02"/></g><path fill="#1976D2" d="M43 43.7l21.56-21.55-.7-.71L42.28 43z"/><animateTransform attributeType="xml" attributeName="transform" type="rotate" from="0 43 43" to="360 43 43" dur="8s" repeatCount="indefinite"/></g><use class="svg-radar-point" transform="translate(38 19)" xlink:href="#bndgf1xll"><animate attributeName="opacity" dur="8s" begin="6.85s" values="0.8;1;1;0.85;0.7;0.55;0.4;0.25;0.1;0;0;0;0;0;0;0;0;0" repeatCount="indefinite"/></use><use class="svg-radar-point" transform="translate(37 30)" xlink:href="#bndgf1xll"><animate attributeName="opacity" dur="8s" begin="6.67s" values="0.8;1;1;0.85;0.7;0.55;0.4;0.25;0.1;0;0;0;0;0;0;0;0;0" repeatCount="indefinite"/></use><use class="svg-radar-point" transform="translate(23 57)" xlink:href="#bndgf1xll"><animate attributeName="opacity" dur="8s" begin="4.35s" values="0.8;1;1;0.85;0.7;0.55;0.4;0.25;0.1;0;0;0;0;0;0;0;0;0" repeatCount="indefinite"/></use><use class="svg-radar-point" transform="translate(52 54)" xlink:href="#bndgf1xll"><animate attributeName="opacity" dur="8s" begin="2.3s" values="0.8;1;1;0.85;0.7;0.55;0.4;0.25;0.1;0;0;0;0;0;0;0;0;0" repeatCount="indefinite"/></use><use class="svg-radar-point" transform="translate(67 41)" xlink:href="#bndgf1xll"><animate attributeName="opacity" dur="8s" begin="1.05s" values="0.8;1;1;0.85;0.7;0.55;0.4;0.25;0.1;0;0;0;0;0;0;0;0;0" repeatCount="indefinite"/></use><circle fill="#1976D2" cx="43" cy="43" r="2"/></svg>