<svg width="49" height="24" xmlns="http://www.w3.org/2000/svg"><path d="M10.9 13.31V17H9.1V7a86.87 86.87 0 012.08-.08c1.58 0 2.74.24 3.47.73.73.48 1.1 1.24 1.1 2.27 0 2.3-1.35 3.44-4.06 3.44-.2 0-.47-.01-.8-.04zm0-4.78v3.2c.3.04.53.05.7.05.81 0 1.4-.13 1.78-.4.37-.27.56-.72.56-1.33 0-1.04-.84-1.55-2.5-1.55a4.14 4.14 0 00-.55.03zM22.97 17l-2.68-4.14a30.39 30.39 0 01-1.12-.04V17h-1.85V6.98l1.16-.04a31.6 31.6 0 011.62-.06c2.54 0 3.81.99 3.81 2.96a2.71 2.71 0 01-.53 1.62c-.35.48-.79.83-1.32 1.03L25.03 17h-2.05zm-3.8-8.47v2.78c.32.03.58.04.75.04.74 0 1.28-.1 1.63-.31.34-.21.52-.62.52-1.23 0-.49-.19-.83-.56-1.03a3.9 3.9 0 00-1.74-.3c-.2 0-.4.02-.6.05zm6.23 3.38c0-1.43.4-2.64 1.17-3.62a3.8 3.8 0 013.14-1.48c1.44 0 2.54.44 3.3 1.34.76.9 1.14 2.14 1.14 3.76 0 1.61-.4 2.9-1.2 3.84a4.17 4.17 0 01-3.38 1.42 3.67 3.67 0 01-3.1-1.4 6.23 6.23 0 01-1.07-3.86zm1.85 0c0 1.17.2 2.07.6 2.72.39.64.97.96 1.72.96.89 0 1.57-.31 2.03-.94.47-.63.7-1.54.7-2.74 0-2.35-.86-3.52-2.6-3.52-.78 0-1.4.32-1.82.95a4.55 4.55 0 00-.63 2.57zm12.32 1.43v2.43H38.2v-2.43h-2.38v-1.37h2.38V9.62h1.37v2.35h2.39v1.37h-2.39z" fill="#fff"/></svg>