<svg width="268" height="155" viewBox="0 0 268 155" fill="none" xmlns="http://www.w3.org/2000/svg"><path d="M34 95.5c8.19-9.77 27.1-37.08 29.33-24.53 1.09 6.1-4.56 22.75-5.83 27.06-1.28 4.33-2.83 8.6-3.94 12.97-.53 2.06-1.64 4.29-.98 6.3.3.92 2.01-.4 2.7-1.08 2.84-2.83 5.11-6.2 7.7-9.28 11.35-13.55 14.47-17.5 27.3-30.75 1.05-1.08 25.84-28.87 31.22-31.02 4.3-1.72-8.74 19.9-10.39 24.22-2.02 5.28-4.36 10.43-6.33 15.72-1.75 4.68-7.7 19.74-6.95 26.33.8 6.92 8.16 3.26 10.84 1.5 7.23-4.74 27.1-24.25 31.27-28.22 7.05-6.68 31.95-30.64 40.4-37.83 9.9-8.45 9.13-6.42 3.5 3-17.19 28.71-9.47 12.2-27.06 43.89-3.24 5.83-6.56 11.68-8.95 17.91-.57 1.5-1.16 5.62.23 4.81 4.55-2.67 7.48-7.45 11-11.39 25.8-28.96 8.58-11.96 36.19-41.78 9.62-10.39 18.89-19.65 29.64-28.7 2.43-2.03 9.15-7.37 8.5-4.27-.58 2.78-7.97 14.52-8.14 14.8-6.7 11-10.4 17.11-18.67 27.73-10.25 13.17-18.4 22.23-30.75 33.53-8.46 7.74-14 10.63-24.33 15.58" stroke="#143661" stroke-width="57" stroke-linecap="round" stroke-linejoin="round"/><circle cx="197" cy="79" r="12" fill="#1976D2"/><path d="M122.62 45.26V27.67c8.24-4.42 17.17-4.18 20.6-3.51 1 9.24 5.44 12.39 7.54 12.8 2.4-.2 3.18 1.43 3.26 2.27.8 3.41-1.84 5.78-3.26 6.53v24.12l2.26 3.01c17.08 10.85 42.28 30.48 52.75 38.94l31.9 9.8c2.85-.42 8.6-1.26 8.8-1.26.2 0 7.12-2.68 10.55-4.02-.4 4.02-3.01 5.86-4.27 6.28 8.84.2 12.73 1.1 13.56 1.5.4 2.22-.66 2.94-1.25 3.02l-7.54.5 7.54 1.51c1.8.4 1.76 2.01 1.5 2.77l-1 .25c-1.5 3.77-4.27 6.03-4.52 6.03-.2 0-4.6.33-6.78.5l-13.57-1.76-6.78-2.26-.75 1.5h-.5c-11.66-2.4-31.83-8.03-40.45-10.54-6.43-2.21-17.25-8.13-21.86-10.8l1.26 39.65h-66.83l1.51-41.41c-5.02 1.6-17.5 5.52-23.11 7.28-16.68 1-38.27-.08-46.98-.75l-1-2.01h-3.27c-7.03 2-15.5 2.68-18.84 2.76-5.83-.2-8.12-5.27-8.54-7.79-2.61-.4-2.43-2-2.01-2.76l11.3-.75-.75-1.26-8.8-1.26c-3-.6-3.43-2.26-3.26-3.01 4.22-2.01 12.31-1.34 15.83-.75l-1.26-1.51c-1.8-2.81-.75-4.7 0-5.28l6.03 5.28 11.8 3.77 8.55-.25 34.92-5.53 14.32-7.54 35.92-20.1 2.01-1.75V65.1c-4.42-6.63-6.2-15.99-6.53-19.84z" fill="#B2B5BE"/><circle cx="67.6" cy="50.03" r="19.34" fill="#1976D2"/><path d="M140.96 85.45h-2.51c-3.62 16.88-4.36 46.28-4.27 57.5l6.78 9.55 5.53-9.55c-.2-21.1-3.77-48.04-5.53-57.5z" fill="#1976D2"/><path d="M138.45 85.7l-2.01-2.76 3.01-2.76 3.27 3.26-1.76 2.26h-2.51z" fill="#1976D2"/><path d="M118.35 30.18c10.05-6.43 20.77-6.7 24.87-6.02 1 8.64 5.28 11.97 7.28 12.56 3.62-8.44.84-13.07-1-14.32-1.4-9.45-8.96-11.48-12.56-11.3-11.25-1.01-16.75 6.44-18.09 10.3l3.02-1.52c-2.01 2.62-3.19 7.96-3.52 10.3z" fill="#131722"/><path d="M150.76 36.84c-5.63-1.4-7.2-9.13-7.29-12.81-7.78-1.2-15.67 1.24-20.85 3.67m28.14 9.14c1.09 0 3.26.65 3.26 3.27 0 2.6-2.18 4.94-3.26 5.77v23.87m0-32.91c3.21-9.25.5-13.4-1.26-14.32-1-7.03-6.11-10.13-8.54-10.8-14.47-3.02-21.1 5.6-22.61 10.3 1.2-1.2 3.01-2.18 3.77-2.51-3.42 4.42-3.94 8.87-3.77 10.55a33.66 33.66 0 014.27-2.36m28.14 42.05l-11.3 10.55m11.3-10.55l2.26 3.01m-13.57 7.54l-10.3-10.55m10.3 10.55l-2.95 2.76-5.09 4.78-4.02-16.33m12.06 8.79l3.02 3.23 4.02 4.3 6.53-15.07m-23.87-3.01v-4.77c-2.18-3.27-6.53-12.26-6.53-22.11v-1.5m6.53 28.38l-1.76 1.76m-4.77-43.8v7.58m16.33-1.97c2 .33 4.14 1.3 6.55 3.52m-6.55 1a11.7 11.7 0 015.55 3.52m-21.88-6.07c1.34-.66 4.62-1.97 7.03-1.97-.16 2.01-.24 7.56-1.65 11.18l4 2.5-.5 5c2.34-.08 6.24.28 9.46 3.5m-18.34-20.21v6.07m4.77 30.15c-13.14 7.37-41.65 23.26-50.5 27.88-7.83 1.6-23.16 4.39-34.4 5.41m-8.8.37a2956.9 2956.9 0 01-12.06-3.77c-.6-.2-4.44-3.77-6.28-5.52a5.79 5.79 0 001.26 6.74m17.08 2.55l1.5 12.31m-1.5-12.31c2.34.1 5.38-.06 8.8-.37m-17.6 7.15a8.58 8.58 0 01-5.52-7.53 9.37 9.37 0 01-2.76-1.8m0 0c-3.69-.33-11.96-.62-15.58.8 0 .75.25 2.35 1.26 2.75 1 .4 7.79 1.18 11.05 1.51l.5 1.51m0 0c-3.1.08-9.74.3-11.55.5-.09.42-.1 1.46.5 2.26.2.28.73.5 1.5.66m9.55-3.42c.76 2.25 2.57 7.16 3.77 8.8m-3.01-5.03c-4.38.18-8.24.1-10.3-.35m0 0c.4 1.02 1.19 2.52 2.26 3.92m28.64.95h-3.27c-2.76 1-15.32 3.52-20.1 2.76-2.12-.33-3.93-1.94-5.27-3.7m28.64.94l.75 2c2.47.19 5.58.38 9.04.57m61.3-7.1c-4.02 1.82-16.58 5.62-22.36 7.3-8.08 1.1-25.98.51-38.94-.2m61.3-7.1v-6.27m0 6.28c-1.42-1.84-4.22-6.73-4.02-11.56m4.02 11.56L104.5 154M6.56 116.53h9.8m26.12-11.73L45 120.05m108.03-47.29l18.59 13.32c10.13 7.12 31.15 22.2 34.16 25.62 8.13 2.35 25.88 7.64 31.9 10.05m0 0l9.05-1.5 10.3-4.03a7 7 0 01-4.49 6.53m-14.85-1l-3.98 12.81m-63.35-19.84c7.03 4.42 16 8.54 19.6 10.05 7.83 3.61 32.07 9.2 43.2 11.55l.55-1.76m-63.35-19.84v-8.04m0 8.04c1-1.93 3.02-6.23 3.02-8.04m-3.02 8.04l1.26 39.28m71.84-23.96c3.02-.4 6.29-4.69 7.54-6.78.56-.14 1.08-.3 1.54-.5m0 0c3.34 0 10.77.25 13.79 1.25 0 .75.25 3.02-1.51 3.27-1.4.2-7.29.42-10.05.5m0 0c3.18.42 9.8 1.3 10.8 1.5 1.26.26 1.5 2.02.76 2.77l-.76.09m-10.8-4.36v-2.01m0 2.01l-.5 4.27m0 0c4.62.53 9.07.32 11.3.09m-11.3-.09l-1.73 3.77m13.03-3.68a15.7 15.7 0 01-1.76 3.34m-30.1-.92c1.04.2 3.92 1.26 5.23 1.76 5.78 1.76 18.1 2.76 21.36 2.01 1.38-.32 2.58-1.52 3.51-2.85m0 0c-2.46.03-7.72-.01-9.04-.41M126.5 38.5c-1 .5-2.67 1.45-3.88 2.86" stroke="#131722" stroke-width="2" stroke-linecap="round" stroke-linejoin="round"/><path d="M79.27 76.94c1.15-1.48 2.97-3.91 3.73-4.94v5.87c0 1.85-.5 5.54-3.15 5.1-2.73-.47-2.01-4.18-.58-6.03zM167.99 54.07c1.03-1.29 2.67-3.4 3.37-4.29v5.1c0 1.6-.45 4.8-2.86 4.41-2.46-.4-1.81-3.61-.51-5.22z" fill="#B2B5BE" stroke="#B2B5BE" stroke-width="2" stroke-linecap="round" stroke-linejoin="round"/><path d="M103.78 10.29C105.38 8.4 107.93 5.3 109 4v7.47c0 2.36-.7 7.06-4.42 6.48-3.8-.59-2.8-5.3-.8-7.66zM40.4 25.96c1.27-1.48 3.28-3.93 4.13-4.96v5.9c0 1.86-.55 5.57-3.49 5.12-3.01-.47-2.22-4.2-.63-6.06zM104.78 45.29c1.6-1.89 4.15-4.98 5.22-6.29v7.47c0 2.36-.7 7.06-4.42 6.48-3.8-.59-2.8-5.3-.8-7.66z" stroke="#B2B5BE" stroke-width="2" stroke-linecap="round" stroke-linejoin="round"/><path d="M68.3 37.53c2.06-2.56 5.32-6.75 6.7-8.53v10.13c0 3.2-.89 9.59-5.68 8.8-4.9-.8-3.6-7.2-1.03-10.4z" fill="#B2B5BE" stroke="#B2B5BE" stroke-width="2" stroke-linecap="round" stroke-linejoin="round"/><path d="M21.78 74.74c1.6-2.02 4.15-5.34 5.22-6.74v8c0 2.53-.7 7.56-4.42 6.95-3.8-.63-2.8-5.69-.8-8.21zM195.3 75.08c2.05-2.42 5.32-6.4 6.7-8.08v9.6c0 3.03-.89 9.08-5.68 8.34-4.9-.76-3.6-6.82-1.03-9.86zM197.78 14.29A507.5 507.5 0 00203 8v7.47c0 2.36-.7 7.06-4.41 6.48-3.82-.59-2.81-5.3-.8-7.66zM165.04 8.64A604.9 604.9 0 00171 1v9.07c0 2.86-.79 8.57-5.05 7.87-4.35-.71-3.2-6.44-.91-9.3z" stroke="#B2B5BE" stroke-width="2" stroke-linecap="round" stroke-linejoin="round"/><path d="M220.43 33.8a703.4 703.4 0 007.12-8.8v10.45c0 3.3-.95 9.88-6.03 9.08-5.2-.83-3.83-7.43-1.09-10.73z" fill="#B2B5BE" stroke="#B2B5BE" stroke-width="2" stroke-linecap="round" stroke-linejoin="round"/><path d="M236.95 84.94c1.15-1.35 2.97-3.57 3.74-4.51v5.36c0 1.69-.5 5.07-3.17 4.65-2.74-.42-2.01-3.8-.57-5.5zM256.78 58.29c1.6-1.89 4.15-4.98 5.22-6.29v7.47c0 2.36-.7 7.06-4.42 6.48-3.8-.59-2.8-5.3-.8-7.66z" stroke="#B2B5BE" stroke-width="2" stroke-linecap="round" stroke-linejoin="round"/></svg>