<svg width="230" height="150" viewBox="0 0 230 150" fill="none" xmlns="http://www.w3.org/2000/svg"><g clip-path="url(#abzburaxq)"><path fill="#1E222D" d="M0 0h230v150H0z"/><path fill-rule="evenodd" clip-rule="evenodd" d="M36.28 30.62c0 1.88.7 3.67 1.93 5.28-8.68.42-15.45 3.75-15.45 7.79 0 2.99 3.7 5.58 9.12 6.9 7.86 2.16 21.57 3.6 37.15 3.6 24.41 0 44.2-3.51 44.2-7.84 0-2.55-6.9-4.82-17.58-6.25 4.8-1.4 7.96-3.83 7.96-6.6 0-4.32-7.74-7.83-17.29-7.83-2.12 0-4.15.17-6.03.5-3.16-5.03-11.52-8.62-21.33-8.62-12.52 0-22.68 5.85-22.68 13.07zm166.18 48.81c8.5 0 15.4-2.25 15.4-5.04 0-2.72-6.57-4.93-14.79-5.04-1.12-2.03-4.41-3.5-8.3-3.5-3.7 0-6.86 1.33-8.12 3.22h-.27c-4.81 0-8.7 2.25-8.7 5.04 0 2.78 3.89 5.04 8.7 5.04 2.06 0 3.96-.42 5.45-1.11 2.77.86 6.51 1.4 10.63 1.4z" fill="#2A2E39"/><path d="M120.83 131.69a8.34 8.34 0 0 1-1.67-1.58c3.92-13.34 6.33-22.2 13.1-33.39-10.66-7.79-25.63-23.6-22.44-29.72 2.56 0 20.32 19.66 28.69 29.72-2.82 4-11.1 19.52-17.67 34.97z" fill="#1E222D" stroke="#B2B5BE" stroke-width="1.5" stroke-linecap="round" stroke-linejoin="round"/><path d="M155.3 69.35c-5.32 10.31-22.65 11.95-38.7 3.66-16.05-8.28-24.76-23.35-19.44-33.66 5.32-10.3 25.23-9.86 41.29-1.58 16.05 8.29 22.17 21.28 16.85 31.58z" fill="#1976D2"/><path d="M72.66 131.45c4.97-45.94 17.63-84.82 26.42-94.89l1.65 23.1c-8.74.51-18.89 45.65-22.29 71.8h-5.78z" fill="#1976D2"/><path d="M102.16 135.25h21.82l-4.57-4.96-17.25 4.96z" fill="#1E222D" stroke="#B2B5BE" stroke-width="1.5" stroke-linecap="round" stroke-linejoin="round"/><path d="M117.99 135.25h23.96l-4.66-5.6-19.3 5.6z" fill="#1E222D" stroke="#B2B5BE" stroke-width="1.5" stroke-linecap="round" stroke-linejoin="round"/><path d="M176.82 66.54c2.36 3.21 7.46 6.56 5.87 1.92-6.44-19.18-34.5-26.42-40.31-28.27l10.3 17.89c10.34 23.93 16 15.86 10.9 7.64 10.77 11.76 13.18 9.78 9.78 3.4 6.8 7.82 5.53 1.53 3.46-2.58z" fill="#1976D2"/><path d="M183.34 68.43c1.58 4.64-4.16 1.32-6.52-1.89 2.07 4.1 3.34 10.4-3.46 2.58 3.4 6.38 1 8.36-9.77-3.4 5.1 8.22-.57 16.29-10.9-7.64" stroke="#1E222D" stroke-width="1.5" stroke-linecap="round" stroke-linejoin="round"/><path d="M136.67 129.31c1.77-12.93 7.35-27.81 7.72-28.46-4.82-2.82-38.18-29.51-27.2-36.29 7.44-5.2 21.37 19.73 25.1 24.57 1.92 2.5 4.19 4.62 5.94 6.08 1.63 1.37 2.44 3.54 1.71 5.54-3.05 8.34-10.04 23.14-11.6 30.15a8.34 8.34 0 0 1-1.67-1.59z" fill="#1E222D" stroke="#B2B5BE" stroke-width="1.5" stroke-linecap="round" stroke-linejoin="round"/><path d="M116.74 73.05l-1.84-1.1c-1.14-1.43-1.14-4.67-.6-5.83.34.5 1.03 1.54 1.05 1.6-.32 1.4.77 4.13 1.39 5.33z" fill="#1976D2"/><path d="M130.93 74.93l-15.37-7.1c0 12.92 21.58 21.59 25.42 20.4-5.25-7.86-1.14-4.8-10.05-13.3z" fill="#B2B5BE"/><path d="M134.9 83.5c-19.27-9.5-24.8-26.24-25.53-33.15l36.57 8.87c1.94 2.35 4.66 6.61 0 4.9 9.06 7.96 3.78 8.31 0 7.5 4.5 2.04 10.14 7.56 5.52 10.03-4.08 2.18-9.34-1.61-11.53-3.25 1.43 2.5 2.95 9.02-5.03 5.1z" fill="#1976D2"/><path d="M109.38 50.35c.62 6.94 5.95 23.38 25.33 32.84" stroke="#1E222D" stroke-width="1.5" stroke-linecap="round" stroke-linejoin="round"/><path d="M128.43 135.22l4.22-1.42M111.36 135.25l4.33-1.47" stroke="#B2B5BE" stroke-width="1.5" stroke-linecap="round" stroke-linejoin="round"/><path d="M115.53 72.35l-6.8-4.37c-.14 3.64 1.23 4.84 4.46 9.14 2.3 4.85 12.06 8.2 12.06 8.2l-9.72-12.97zM124.3 81.6c-.73-.3-.8.2-.7.38 0 0-3.32-3.58-3.15-3.7.17-.13 3.17 2.42 3.85 3.32z" fill="#B2B5BE"/><path d="M118.16 81.9c-.73-.3-.8.18-.71.35l-2.4-2.33c.7.27 2.43 1.08 3.1 1.99z" fill="#B2B5BE"/><path d="M125.99 72.84c1.3 1.3 3.58 3.18 5.97 2.71 1.85-.36 1.52-1.75 1.27-2.03" stroke="#1E222D" stroke-width="1.5" stroke-linecap="round" stroke-linejoin="round"/><path d="M128.79 70.48c-6.5 2.8-13.66-5.64-15.74-9.44 8.9 21.48 34 29.88 26.54 17.4 2.83 1.6 9.26 4.46 12.35 3.22 3.85-1.54-1.03-9-6.18-10.54 9.78 1.92 3.48-5.53 0-7.2 6.47.41.38-4.76-3.51-7.55-.8-.57-1.23-.04-.8.84 1.7 3.53-1.23 5.47-3.71 4.91-.36-.08-.74.26-.63.6.85 2.65 1.72 6.01-.8 6.47-1.36.24-3.22-.87-4.58-2.03-.2-.16-.98.3-.98.55.01 1.05-.46 2.13-1.96 2.77z" fill="#1E222D"/><path d="M129.28 81.91c2.56 1.62 8.63 3.85 11.12 2.06 1.82-1.18.26-4.12-.74-5.44 5.9 3.71 10.94 4.75 13.17 2.82 2.23-1.93-.35-6.18-1.46-7.32" stroke="#B2B5BE" stroke-width="1.5" stroke-linecap="round" stroke-linejoin="round"/><path d="M160.51 60.2c0 3.32-3.47 3.25-7.16-2 5.18 12.67 8.94 16.79 11.43 16 2.49-.78.29-6.25-.92-8.45 6.96 9.38 9.3 8.67 10.3 8.45 1-.21 1.14-2.06-.56-5.04 1.14 1.32 3.68 3.9 4.69 3.62 1.26-.35.96-2.22-1.27-6.03 1.59 1.6 5.14 4.57 6.67 3.81 5.59-2.88-7.06-13.44-14.1-18.34 5.9 4.98.6 7.98-3.54 5.95 1.97 3.86-1.41 6.07-5.54 2.03zM164.68 66.95z" fill="#1E222D"/><path d="M169.3 52.96c14.1 9.95 17.17 15.5 15.13 17.09-2.04 1.59-4.23-.15-7.31-3.23 1.84 2.43 2.68 5.17 1.49 5.86-1.2.7-2.88-1.04-4.98-3.3.78 1.28 2.02 4.08.67 4.95-1.68 1.1-5.88-1.6-10.25-8.32 2.44 3.36 3.2 7.4.76 8.32-2.95 1.11-6.46-1.81-9.02-6.8" stroke="#B2B5BE" stroke-width="1.5" stroke-linecap="round" stroke-linejoin="round"/><path d="M172.17 56.11c.05-.84-.6-2.9-3.54-4.46-2.2-.32 1.06 4.14 3.54 4.46z" fill="#1976D2"/><path d="M60.28 132.68c-5.33-7.4-11.37-1.15-12.97 2.45h44.73c-1.69-3.01-4.29-3.5-5.9-1.89a6.13 6.13 0 0 0-9.51-2.25c-2.07-5.64-8.65-3.57-9.96 0-1.32-2.82-6.07-2.32-6.4 1.7z" fill="#1E222D"/><path d="M92.04 135.13c-1.69-3.01-4.29-3.5-5.9-1.89a6.13 6.13 0 0 0-9.51-2.25c-2.07-5.64-8.65-3.57-9.96 0-1.32-2.82-6.07-2.32-6.4 1.7-5.32-7.4-11.36-1.16-12.96 2.44-.94-1-3.53-2.9-6.44-2.45M48.48 86.6l11.01 35.52M66.17 108.02l.21 1.22m1.4 9.6l-1-6.77M99.6 130.8l-3.8 4M50.9 116.64l4.96 6.98M91.02 112.8l-5.2 8.87M34.76 134.52c0-1.25-8.77-2.7-10.9 0M179.45 135.46c-2.45-1.52-4.71-3.22-8.75 0M167.78 135.46c0-1.25-4.65-2.7-5.78 0M179.56 135.43c1.34-1.65 6.6-5.2 9-5.33 7.74-.4 13.52 2.34 20.71 5.1" stroke="#B2B5BE" stroke-width="1.5" stroke-linecap="round" stroke-linejoin="round"/><path d="M77.33 118.24l1.7-11.63" stroke="#D1D4DC" stroke-width="1.5" stroke-linecap="round" stroke-linejoin="round"/><path d="M187.08 20.68l2.44 1.7c1.02-.5 1.16-.37 3.97-1.7M60.17 77.45l2.45 1.7c1.01-.5 1.15-.38 3.96-1.7M192.09 12.42l3.51 2.44c1.47-.72 1.67-.54 5.7-2.44" stroke="#B2B5BE" stroke-width="1.5" stroke-linecap="round" stroke-linejoin="round"/><path d="M77.13 133.97L76 131.29c1.98 0 6.11-4.02 9.38 1.95-3.06-2.8-6.39-.82-7.57.77-.16.22-.56.2-.67-.04z" fill="#B2B5BE"/><path d="M85.81 134.27l-.6-1.35c1.24 0 3.75-2.43 5.77 1.15-1.76-1.56-3.62-.64-4.46.27-.18.2-.6.18-.7-.07zM184.75 136.16h-5.3c5.55-7.55 17.12-6.28 19.83-4.19-3.16-.5-7.51 1.32-10.55 3.06a8.06 8.06 0 0 1-3.98 1.13zM171.42 136.16h-.72c2.26-2.9 5.78-2.38 6.58-1.2-1.26-.43-2.6.04-3.69.61-.67.36-1.4.6-2.17.6zM162.76 136.16h-.74c1.94-2.9 4.33-1.47 4.72-.98-.9-.3-1.89.06-2.77.6a2.3 2.3 0 0 1-1.2.38z" fill="#B2B5BE"/></g><defs><clipPath id="abzburaxq"><path fill="#fff" d="M0 0h230v150H0z"/></clipPath></defs></svg>