<svg width="42" height="12" xmlns="http://www.w3.org/2000/svg"><path d="M5.75 6.9V9H4.73V3.28a49.6 49.6 0 011.19-.04c.9 0 1.56.14 1.98.42.42.27.63.7.63 1.3 0 1.3-.78 1.96-2.32 1.96a5.6 5.6 0 01-.46-.02zm0-2.74v1.83l.4.03c.47 0 .8-.08 1.02-.23.21-.16.32-.41.32-.76 0-.6-.48-.89-1.43-.89-.11 0-.21 0-.31.02zM12.65 9l-1.53-2.36a17.4 17.4 0 01-.64-.03V9H9.43V3.28l.66-.03.92-.03c1.46 0 2.18.56 2.18 1.69a1.63 1.63 0 01-1.06 1.52L13.83 9h-1.18zm-2.17-4.84v1.59c.19.02.33.02.43.02.42 0 .73-.06.93-.18.2-.12.3-.35.3-.7 0-.28-.1-.47-.32-.59a2.22 2.22 0 00-1-.16c-.1 0-.22 0-.34.02zm4.85.02v1.34h1.9v.86h-1.9V8.1h2.6V9h-3.61V3.28h3.65v.9h-2.64zM24.21 9h-.99l-.6-3.08-1.14 3.16h-.37l-1.15-3.16L19.34 9h-.98l1.16-5.72h.53l1.24 3.85 1.21-3.85h.54L24.2 9zm.64 0V3.28h1.02V9h-1.02zm2.2-5.72h1.02v3.88c0 .3.1.55.29.75.18.19.44.28.77.28.37 0 .65-.09.85-.27a1 1 0 00.31-.78V3.28h1.02v3.94c0 .58-.2 1.05-.6 1.38-.39.33-.91.5-1.57.5-.67 0-1.18-.16-1.54-.5-.36-.32-.54-.78-.54-1.39V3.28zM37.83 9h-.99l-.6-3.08-1.14 3.16h-.37l-1.15-3.16L32.95 9h-.98l1.16-5.72h.53l1.24 3.85 1.21-3.85h.54L37.82 9z" fill="#fff"/></svg>