<svg width="48" height="12" fill="none" xmlns="http://www.w3.org/2000/svg"><path d="M6 4.18v1.34h2.01v.86H6V9H4.98V3.28h3.77v.9H6zm4.67 0v1.34h1.9v.86h-1.9V8.1h2.6V9H9.66V3.28h3.65v.9h-2.64zM17.55 9l-.42-1.16h-1.96L14.77 9h-1.12l2.27-5.8h.45l2.3 5.8h-1.12zm-1.4-4.05l-.69 2.11h1.38l-.7-2.11zm5.46-.77V9h-1.02V4.18h-1.82v-.9h4.74v.9h-1.9zm2.57-.9h1.01v3.88c0 .3.1.55.29.75.18.19.44.28.77.28.37 0 .65-.09.85-.27a1 1 0 00.31-.78V3.28h1.02v3.94c0 .58-.2 1.05-.6 1.38-.39.33-.91.5-1.57.5-.67 0-1.18-.16-1.54-.5-.36-.32-.54-.78-.54-1.39V3.28zM32.83 9L31.3 6.64a17.4 17.4 0 01-.65-.03V9H29.6V3.28l.66-.03.93-.03c1.45 0 2.18.56 2.18 1.69a1.63 1.63 0 01-1.06 1.52L34 9h-1.17zm-2.17-4.84v1.59c.18.02.33.02.43.02.42 0 .73-.06.93-.18.2-.12.3-.35.3-.7 0-.28-.11-.47-.32-.59a2.22 2.22 0 00-1-.16c-.1 0-.22 0-.34.02zm4.85.02v1.34h1.89v.86h-1.9V8.1h2.6V9h-3.6V3.28h3.65v.9H35.5zM40.3 9h-1.26V3.28a60.6 60.6 0 011.52-.04c.84 0 1.5.24 1.98.73.5.49.74 1.14.74 1.94 0 2.06-.99 3.09-2.97 3.09zm-.25-4.83v3.9c.17.02.34.03.53.03.52 0 .92-.19 1.2-.56.3-.37.44-.9.44-1.56 0-1.23-.56-1.84-1.7-1.84l-.47.03z" fill="#fff"/></svg>