<svg width="46" height="24" xmlns="http://www.w3.org/2000/svg"><path d="M18.73 17H17l-1.04-5.4-2.01 5.54h-.64L11.3 11.6 10.22 17H8.5l2.02-10.03h.94l2.17 6.75 2.12-6.75h.93L18.73 17zm.61-5.1c0-1.42.4-2.62 1.17-3.6a3.8 3.8 0 013.14-1.5c1.44 0 2.54.45 3.3 1.35.76.9 1.14 2.14 1.14 3.76 0 1.61-.4 2.9-1.2 3.84a4.16 4.16 0 01-3.38 1.42 3.67 3.67 0 01-3.1-1.4 6.23 6.23 0 01-1.07-3.86zm1.85 0c0 1.18.2 2.09.6 2.73.39.64.97.96 1.72.96.9 0 1.57-.31 2.03-.94.47-.63.7-1.54.7-2.74 0-2.35-.86-3.52-2.6-3.52-.78 0-1.4.32-1.82.95a4.55 4.55 0 00-.63 2.57zm10.7 5.1h-2.23V7c1.42-.06 2.31-.08 2.68-.08 1.46 0 2.61.43 3.46 1.28a4.58 4.58 0 011.29 3.4c0 3.6-1.74 5.4-5.2 5.4zm-.45-8.46v6.84c.29.03.6.04.93.04.9 0 1.6-.33 2.1-.98.52-.65.77-1.56.77-2.73 0-2.14-1-3.21-2.98-3.21-.2 0-.47.01-.82.04z" fill="#fff"/></svg>