<svg width="85" height="24" fill="none" xmlns="http://www.w3.org/2000/svg"><path d="M11 8.56v2.35h3.52v1.5H11V17H9.22V6.98h6.6v1.58H11zm8.18 0v2.35h3.3v1.5h-3.3v3.01h4.54V17H17.4V6.98h6.39v1.58h-4.61zM31.2 17l-.73-2.03h-3.43l-.7 2.03h-1.97l3.99-10.15h.78L33.17 17h-1.96zm-2.45-7.09l-1.2 3.7h2.4l-1.2-3.7zm9.56-1.35V17h-1.78V8.56h-3.19V6.98h8.3v1.58h-3.33zm4.5-1.58h1.77v6.8c0 .53.17.97.5 1.3.32.34.77.51 1.35.51.64 0 1.14-.16 1.5-.49.35-.33.53-.79.53-1.36V6.98h1.78v6.9c0 1.02-.34 1.83-1.04 2.41-.69.59-1.6.88-2.76.88a3.9 3.9 0 01-2.7-.85 3.17 3.17 0 01-.94-2.45V6.99zM57.94 17l-2.67-4.14-1.13-.04V17H52.3V6.98l1.16-.04a31.6 31.6 0 011.62-.06c2.54 0 3.81.99 3.81 2.96a2.71 2.71 0 01-.52 1.62c-.35.48-.8.83-1.33 1.03L60 17h-2.05zm-3.8-8.47v2.78c.33.03.58.04.75.04.74 0 1.29-.1 1.63-.31.35-.21.52-.62.52-1.23 0-.49-.19-.83-.56-1.03a3.9 3.9 0 00-1.74-.3c-.19 0-.4.02-.6.05zm8.49.03v2.35h3.3v1.5h-3.3v3.01h4.54V17h-6.32V6.98h6.4v1.58h-4.62zM71.05 17h-2.22V7c1.42-.06 2.31-.08 2.68-.08 1.45 0 2.6.43 3.46 1.28a4.58 4.58 0 011.29 3.4c0 3.6-1.74 5.4-5.2 5.4zm-.44-8.46v6.84c.29.03.6.04.93.04.9 0 1.6-.33 2.1-.98.51-.65.77-1.56.77-2.73 0-2.14-1-3.21-2.99-3.21a9.63 9.63 0 00-.81.04z" fill="#fff"/></svg>