<svg width="48" height="51" viewBox="0 0 48 51" fill="none" xmlns="http://www.w3.org/2000/svg"><mask id="ajv0efpuh" fill="#fff"><path d="M41 3h3a4 4 0 0 1 4 4v40a4 4 0 0 1-4 4H4a4 4 0 0 1-4-4V7a4 4 0 0 1 4-4h3"/></mask><path d="M41 4h3V2h-3v2zm6 3v40h2V7h-2zm-3 43H4v2h40v-2zM1 47V7h-2v40h2zM4 4h3V2H4v2zM1 7a3 3 0 0 1 3-3V2a5 5 0 0 0-5 5h2zm3 43a3 3 0 0 1-3-3h-2a5 5 0 0 0 5 5v-2zm43-3a3 3 0 0 1-3 3v2a5 5 0 0 0 5-5h-2zM44 4a3 3 0 0 1 3 3h2a5 5 0 0 0-5-5v2z" fill="#2196F3" mask="url(#ajv0efpuh)"/><path fill="#2196F3" d="M15 3h18v1H15zM1 14h46v1H1z"/><rect x="9.5" y=".5" width="3" height="9" rx="1" stroke="#2196F3"/><rect x="35.5" y=".5" width="3" height="9" rx="1" stroke="#2196F3"/><path opacity=".55" fill="url(#bjv0efpuh)" d="M0 15h48v35H0z"/><path d="M15.5 20.5a2 2 0 1 1-4 0 2 2 0 0 1 4 0zm7 0a2 2 0 1 1-4 0 2 2 0 0 1 4 0zm7 0a2 2 0 1 1-4 0 2 2 0 0 1 4 0zm7 0a2 2 0 1 1-4 0 2 2 0 0 1 4 0zm7 0a2 2 0 1 1-4 0 2 2 0 0 1 4 0zm-28 8a2 2 0 1 1-4 0 2 2 0 0 1 4 0zm-7 0a2 2 0 1 1-4 0 2 2 0 0 1 4 0zm14 0a2 2 0 1 1-4 0 2 2 0 0 1 4 0zm7 0a2 2 0 1 1-4 0 2 2 0 0 1 4 0zm7 0a2 2 0 1 1-4 0 2 2 0 0 1 4 0zm7 0a2 2 0 1 1-4 0 2 2 0 0 1 4 0zm-28 8a2 2 0 1 1-4 0 2 2 0 0 1 4 0zm-7 0a2 2 0 1 1-4 0 2 2 0 0 1 4 0zm14 0a2 2 0 1 1-4 0 2 2 0 0 1 4 0zm7 0a2 2 0 1 1-4 0 2 2 0 0 1 4 0zm7 0a2 2 0 1 1-4 0 2 2 0 0 1 4 0zm7 0a2 2 0 1 1-4 0 2 2 0 0 1 4 0zm-28 8a2 2 0 1 1-4 0 2 2 0 0 1 4 0zm-7 0a2 2 0 1 1-4 0 2 2 0 0 1 4 0zm14 0a2 2 0 1 1-4 0 2 2 0 0 1 4 0zm7 0a2 2 0 1 1-4 0 2 2 0 0 1 4 0zm7 0a2 2 0 1 1-4 0 2 2 0 0 1 4 0z" stroke="#2196F3"/><defs><linearGradient id="bjv0efpuh" x1="0" y1="15" x2="0" y2="46.32" gradientUnits="userSpaceOnUse"><stop stop-color="#2196F3"/><stop offset="1" stop-color="#fff" stop-opacity="0"/></linearGradient></defs></svg>