<svg width="30" height="14" xmlns="http://www.w3.org/2000/svg"><path d="M7.65 7.9V10H6.64V4.28a49.6 49.6 0 011.18-.04c.9 0 1.57.14 1.98.42.42.27.63.7.63 1.3 0 1.3-.77 1.96-2.32 1.96-.11 0-.26 0-.46-.03zm0-2.74v1.83l.4.03c.47 0 .81-.08 1.02-.23.22-.16.32-.41.32-.76 0-.6-.47-.89-1.43-.89-.1 0-.2 0-.3.02zM14.56 10l-1.53-2.36a17.4 17.4 0 01-.64-.03V10h-1.06V4.28l.66-.03.93-.03c1.45 0 2.18.56 2.18 1.69 0 .34-.1.64-.3.92-.2.28-.46.48-.76.6L15.73 10h-1.17zm-2.17-4.84v1.59c.18.02.33.02.43.02.42 0 .73-.06.93-.18.2-.12.3-.35.3-.7 0-.28-.11-.47-.32-.59a2.23 2.23 0 00-1-.16c-.1 0-.22 0-.34.02zm3.56 1.93c0-.81.22-1.5.67-2.07a2.17 2.17 0 011.8-.84c.81 0 1.44.25 1.88.76.43.51.65 1.23.65 2.15a3.3 3.3 0 01-.68 2.2c-.46.54-1.1.8-1.94.8a2.1 2.1 0 01-1.77-.8 3.56 3.56 0 01-.61-2.2zm1.05 0a3 3 0 00.34 1.55c.23.37.56.55 1 .55.5 0 .89-.17 1.15-.53.27-.36.4-.88.4-1.57 0-1.34-.49-2.01-1.48-2.01-.45 0-.8.18-1.04.55A2.6 2.6 0 0017 7.09zm7.05.82V9.3h-.79V7.9H21.9v-.79h1.36V5.79h.79v1.34h1.36v.79h-1.36z" fill="#fff"/></svg>