<svg width="44" height="24" xmlns="http://www.w3.org/2000/svg"><path d="M11.5 13.31V17H9.71V7a86.86 86.86 0 012.07-.08c1.58 0 2.74.24 3.47.73.73.48 1.1 1.24 1.1 2.27 0 2.3-1.35 3.44-4.06 3.44a9 9 0 01-.8-.04zm0-4.78v3.2c.3.04.53.05.7.05.82 0 1.4-.13 1.78-.4.37-.27.56-.72.56-1.33 0-1.04-.83-1.55-2.5-1.55-.2 0-.37 0-.55.03zM23.57 17l-2.67-4.14-1.13-.04V17h-1.85V6.98l1.16-.04a31.6 31.6 0 011.62-.06c2.54 0 3.81.99 3.81 2.96a2.71 2.71 0 01-.52 1.62c-.35.48-.8.83-1.33 1.03L25.63 17h-2.05zm-3.8-8.47v2.78c.33.03.58.04.75.04.74 0 1.29-.1 1.63-.31.34-.21.52-.62.52-1.23 0-.49-.19-.83-.56-1.03a3.9 3.9 0 00-1.74-.3c-.19 0-.4.02-.6.05zM26 11.91c0-1.43.4-2.64 1.17-3.62a3.8 3.8 0 013.14-1.48c1.44 0 2.54.44 3.3 1.34.76.9 1.14 2.14 1.14 3.76 0 1.61-.4 2.9-1.2 3.84a4.16 4.16 0 01-3.38 1.42 3.67 3.67 0 01-3.1-1.4A6.22 6.22 0 0126 11.91zm1.85 0c0 1.17.2 2.07.6 2.72.4.64.97.96 1.72.96.9 0 1.57-.31 2.03-.94.47-.63.7-1.54.7-2.74 0-2.35-.86-3.52-2.59-3.52-.8 0-1.4.32-1.83.95a4.55 4.55 0 00-.63 2.57z" fill="#fff"/></svg>