<svg width="25" height="12" xmlns="http://www.w3.org/2000/svg"><path d="M10.06 9h-.99l-.59-3.08-1.15 3.16h-.36L5.8 5.92 5.2 9h-1l1.16-5.72h.54l1.23 3.85 1.21-3.85h.54L10.06 9zm.35-2.91c0-.81.22-1.5.67-2.07a2.17 2.17 0 011.8-.84c.81 0 1.44.25 1.88.76.43.51.65 1.23.65 2.15a3.3 3.3 0 01-.68 2.2c-.46.54-1.1.8-1.94.8a2.1 2.1 0 01-1.77-.8 3.56 3.56 0 01-.61-2.2zm1.05 0a3 3 0 00.34 1.55c.23.37.56.55 1 .55.5 0 .89-.17 1.15-.53.27-.36.4-.88.4-1.57 0-1.34-.49-2.01-1.48-2.01-.45 0-.8.18-1.04.55a2.6 2.6 0 00-.37 1.46zM17.59 9H16.3V3.28a60.6 60.6 0 011.53-.04c.83 0 1.49.24 1.98.73s.73 1.14.73 1.94c0 2.06-.99 3.09-2.97 3.09zm-.26-4.83v3.9c.17.02.34.03.53.03.52 0 .92-.19 1.2-.56.3-.37.45-.9.45-1.56 0-1.23-.57-1.84-1.71-1.84l-.47.03z" fill="#fff"/></svg>