<svg width="38" height="12" xmlns="http://www.w3.org/2000/svg"><path d="M6.5 9H4.75V3.28a40.5 40.5 0 011.62-.05c.6 0 1.06.12 1.4.38.33.25.5.61.5 1.09 0 .45-.24.8-.72 1.07.71.25 1.07.76 1.07 1.53 0 .52-.2.94-.6 1.24-.39.3-.9.46-1.52.46zm-.73-4.9v1.36c.16.02.32.02.5.02.65 0 .98-.25.98-.75 0-.44-.3-.66-.9-.66l-.58.02zm0 2.16v1.89l.5.03c.45 0 .78-.08.98-.23.21-.16.31-.41.31-.77 0-.33-.1-.56-.28-.71-.2-.15-.53-.22-1-.22h-.51zM12.75 9l-1.53-2.36a17.4 17.4 0 01-.65-.03V9H9.53V3.28l.66-.03.93-.03c1.45 0 2.18.56 2.18 1.69a1.63 1.63 0 01-1.06 1.52L13.92 9h-1.17zm-2.18-4.84v1.59c.2.02.33.02.43.02.43 0 .74-.06.93-.18.2-.12.3-.35.3-.7 0-.28-.1-.47-.32-.59a2.22 2.22 0 00-1-.16c-.1 0-.22 0-.34.02zm3.57 1.93c0-.81.22-1.5.66-2.07a2.17 2.17 0 011.8-.84c.82 0 1.45.25 1.88.76.44.51.66 1.23.66 2.15a3.3 3.3 0 01-.69 2.2c-.45.54-1.1.8-1.93.8a2.1 2.1 0 01-1.77-.8 3.55 3.55 0 01-.61-2.2zm1.05 0a3 3 0 00.34 1.55c.23.37.56.55.99.55.5 0 .9-.17 1.16-.53.27-.36.4-.88.4-1.57 0-1.34-.5-2.01-1.48-2.01-.46 0-.8.18-1.05.55a2.6 2.6 0 00-.36 1.46zM23.3 9l-1.6-2.44-.64.87V9h-1.02V3.28h1.02v2.74L23 3.28h1.15l-1.8 2.5L24.5 9h-1.22zM26 4.18v1.34h1.89v.86h-1.9V8.1h2.6V9h-3.6V3.28h3.65v.9H26zM32.75 9l-1.52-2.36a17.4 17.4 0 01-.65-.03V9h-1.05V3.28l.66-.03.92-.03c1.46 0 2.18.56 2.18 1.69a1.63 1.63 0 01-1.06 1.52L33.93 9h-1.18zm-2.17-4.84v1.59c.19.02.33.02.43.02.43 0 .74-.06.93-.18.2-.12.3-.35.3-.7 0-.28-.1-.47-.32-.59a2.23 2.23 0 00-1-.16c-.1 0-.22 0-.34.02z" fill="#fff"/></svg>