<svg width="24" height="12" xmlns="http://www.w3.org/2000/svg"><path d="M6 6.9V9H4.98V3.28a49.6 49.6 0 011.19-.04c.9 0 1.56.14 1.98.42.42.27.63.7.63 1.3 0 1.3-.78 1.96-2.32 1.96A5.6 5.6 0 016 6.9zm0-2.74v1.83l.4.03c.47 0 .8-.08 1.02-.23.21-.16.32-.41.32-.76 0-.6-.48-.89-1.43-.89-.11 0-.21 0-.31.02zM12.9 9l-1.53-2.36a17.4 17.4 0 01-.64-.03V9H9.68V3.28l.66-.03.92-.03c1.46 0 2.18.56 2.18 1.69a1.63 1.63 0 01-1.06 1.52L14.08 9H12.9zm-2.17-4.84v1.59c.19.02.33.02.43.02.42 0 .73-.06.93-.18.2-.12.3-.35.3-.7 0-.28-.1-.47-.32-.59a2.22 2.22 0 00-1-.16c-.1 0-.22 0-.34.02zm3.56 1.93c0-.81.23-1.5.67-2.07a2.17 2.17 0 011.8-.84c.82 0 1.45.25 1.88.76.44.51.65 1.23.65 2.15a3.3 3.3 0 01-.68 2.2c-.45.54-1.1.8-1.93.8a2.1 2.1 0 01-1.77-.8 3.55 3.55 0 01-.62-2.2zm1.06 0c0 .67.11 1.19.34 1.55.22.37.55.55.99.55.5 0 .89-.17 1.16-.53.26-.36.4-.88.4-1.57 0-1.34-.5-2.01-1.49-2.01-.45 0-.8.18-1.04.55a2.6 2.6 0 00-.36 1.46z" fill="#fff"/></svg>