<svg width="68" height="24" xmlns="http://www.w3.org/2000/svg"><path d="M12.13 17H9.07V7a70.1 70.1 0 012.84-.1c1.04 0 1.85.22 2.43.67.59.44.88 1.07.88 1.9 0 .79-.42 1.42-1.26 1.88 1.25.43 1.87 1.32 1.87 2.68 0 .9-.34 1.63-1.03 2.17-.69.53-1.58.8-2.67.8zm-1.28-8.59v2.4c.27.02.56.03.86.03 1.16 0 1.73-.43 1.73-1.3 0-.77-.52-1.16-1.57-1.16l-1.02.03zm0 3.8v3.3c.36.03.65.05.87.05.8 0 1.37-.14 1.72-.4.36-.27.54-.72.54-1.35 0-.57-.16-.98-.5-1.24-.33-.26-.9-.39-1.74-.39-.17 0-.47 0-.9.02zM23.05 17l-2.67-4.14-1.12-.04V17H17.4V6.98l1.15-.04a31.6 31.6 0 011.62-.06c2.55 0 3.82.99 3.82 2.96a2.71 2.71 0 01-.53 1.62 2.84 2.84 0 01-1.32 1.03L25.1 17h-2.05zm-3.8-8.47v2.78c.33.03.58.04.76.04.74 0 1.28-.1 1.62-.31.35-.21.52-.62.52-1.23 0-.49-.18-.83-.55-1.03a3.9 3.9 0 00-1.74-.3c-.2 0-.4.02-.6.05zm6.24 3.38c0-1.43.39-2.64 1.17-3.62a3.8 3.8 0 013.14-1.48c1.44 0 2.54.44 3.3 1.34.76.9 1.14 2.14 1.14 3.76 0 1.61-.4 2.9-1.2 3.84a4.16 4.16 0 01-3.38 1.42 3.67 3.67 0 01-3.1-1.4 6.22 6.22 0 01-1.07-3.86zm1.85 0c0 1.17.2 2.07.59 2.72.4.64.97.96 1.73.96.89 0 1.57-.31 2.03-.94.47-.63.7-1.54.7-2.74 0-2.35-.86-3.52-2.6-3.52-.79 0-1.4.32-1.82.95a4.55 4.55 0 00-.63 2.57zM41.49 17l-2.79-4.27-1.11 1.53V17H35.8V6.98h1.78v4.8l3.4-4.8h2.03l-3.14 4.38L43.62 17h-2.13zm4.74-8.44v2.35h3.3v1.5h-3.3v3.01h4.54V17h-6.32V6.98h6.4v1.58h-4.62zM58.07 17l-2.67-4.14a30.39 30.39 0 01-1.13-.04V17h-1.85V6.98l1.16-.04a31.6 31.6 0 011.62-.06c2.54 0 3.81.99 3.81 2.96a2.71 2.71 0 01-.52 1.62c-.35.48-.8.83-1.33 1.03L60.12 17h-2.05zm-3.8-8.47v2.78c.33.03.58.04.75.04.74 0 1.29-.1 1.63-.31.34-.21.52-.62.52-1.23 0-.49-.19-.83-.56-1.03a3.9 3.9 0 00-1.74-.3c-.2 0-.4.02-.6.05z" fill="#fff"/></svg>