<svg width="282" height="168" viewBox="0 0 282 168" fill="none" xmlns="http://www.w3.org/2000/svg"><g clip-path="url(#anlyanuel)"><path d="M188.14 90.49c-3.59 5.35-4.97 17.55-1.53 23.2 12.1 19.92 13.27 33.71 4.84 44.68-12.65 16.43-47.16 7.49-77.08-19.97-10.75-9.87-19.45-20.79-25.6-31.48-.3-.55-.66-1.08-1.03-1.59-.24-.34-.49-.68-.72-1.03A47.85 47.85 0 0 1 79 81.19c-.9-5.66-.75-10.85.59-15.32.19-.64.36-1.28.5-1.94 3.31-16.17 12.93-32.3 27.79-44.14 28.13-22.4 64.4-20.9 81 3.37 12.68 18.52 13.63 45.9-.74 67.33z" fill="#2A2E39"/><path d="M128.63 15.37a1 1 0 0 1 1.8-.17l2.2 3.76c.18.3.5.49.85.5l4.4.03a1 1 0 0 1 .73 1.69l-2.94 3.13a1 1 0 0 0-.23.99l1.3 4.06a1 1 0 0 1-1.36 1.22l-4.06-1.78a1 1 0 0 0-.97.1l-3.65 2.52a1 1 0 0 1-1.56-.94l.5-4.24a1 1 0 0 0-.41-.93l-3.48-2.52a1 1 0 0 1 .38-1.79l4.32-.87a1 1 0 0 0 .74-.65l1.44-4.11zM72.66 87.94a1 1 0 0 1-.6-1.72l5.55-5.28a1 1 0 0 0 .29-.96l-1.75-7.46a1 1 0 0 1 1.45-1.1l6.74 3.65a1 1 0 0 0 1-.02l6.55-3.97a1 1 0 0 1 1.5 1.04L92 79.65a1 1 0 0 0 .34.94l5.8 5.01a1 1 0 0 1-.53 1.75l-7.6 1a1 1 0 0 0-.79.6l-2.97 7.07a1 1 0 0 1-1.82.05l-3.3-6.92a1 1 0 0 0-.82-.57l-7.64-.64z" fill="#1976D2"/><rect width="194.43" height="69.76" rx="8" transform="matrix(1 0 0 -1 40.45 124.06)" stroke="#B2B5BE" stroke-width="1.5" stroke-linecap="round" stroke-dasharray="20 14"/><path d="M137.7 118.16a1 1 0 0 1 .9-1.58l11.56 1.1a1 1 0 0 0 .9-.4l6.8-9.42a1 1 0 0 1 1.8.37l2.51 11.34a1 1 0 0 0 .67.74l11.06 3.55a1 1 0 0 1 .2 1.82l-10 5.9a1 1 0 0 0-.5.86l.03 11.61a1 1 0 0 1-1.66.75l-8.7-7.7a1 1 0 0 0-.97-.2l-11.04 3.63a1 1 0 0 1-1.23-1.35l4.63-10.65a1 1 0 0 0-.1-1l-6.86-9.37z" fill="#1976D2"/><path d="M154.27 73.41c1.6-1.34 3.69-2 6.29-1.94 2.7.07 4.72.84 6.12 2.27 1.41 1.42 2.12 3.35 2.06 5.86-.06 2.42-1.24 4.83-3.64 7.23l-2.5 2.35a6.91 6.91 0 0 0-1.7 3.53c-.16.8-.83 1.43-1.64 1.41-.86-.02-1.55-.76-1.41-1.6.11-.75.27-1.38.47-1.9.36-.91 1.09-1.97 2.24-3.16l3-2.94a7.3 7.3 0 0 0 2.13-4.86 5.68 5.68 0 0 0-1.27-4.05c-.92-1.06-2.26-1.57-3.92-1.6a5.9 5.9 0 0 0-4.04 1.23 4.4 4.4 0 0 0-1.28 1.7c-.3.74-.95 1.34-1.75 1.32-.88-.02-1.59-.8-1.32-1.65a6.68 6.68 0 0 1 2.16-3.2zM157.8 100.38c.29-.31.74-.5 1.43-.48.7.02 1.14.22 1.42.55.31.35.47.77.45 1.32-.01.55-.19.96-.5 1.29-.3.28-.75.46-1.45.44-.7-.02-1.15-.21-1.43-.5a1.87 1.87 0 0 1-.42-1.32c.01-.55.19-.97.5-1.3z" fill="#B2B5BE"/><path d="M154.27 73.41c1.6-1.34 3.69-2 6.29-1.94 2.7.07 4.72.84 6.12 2.27h0c1.41 1.42 2.12 3.35 2.06 5.86-.06 2.42-1.24 4.83-3.64 7.23l-2.5 2.35h0a6.91 6.91 0 0 0-1.7 3.53c-.16.8-.83 1.43-1.64 1.41-.86-.02-1.55-.76-1.41-1.6.11-.75.27-1.38.47-1.9.36-.91 1.09-1.97 2.24-3.16l3-2.94h0a7.3 7.3 0 0 0 2.13-4.86 5.68 5.68 0 0 0-1.27-4.05c-.92-1.06-2.26-1.57-3.92-1.6a5.9 5.9 0 0 0-4.04 1.23 4.4 4.4 0 0 0-1.28 1.7c-.3.74-.95 1.34-1.75 1.32-.88-.02-1.59-.8-1.32-1.65a6.68 6.68 0 0 1 2.16-3.2zM157.8 100.38c.29-.31.74-.5 1.43-.48.7.02 1.14.22 1.42.55h0c.31.35.47.77.45 1.32-.01.55-.19.96-.5 1.29-.3.28-.75.46-1.45.44-.7-.02-1.15-.21-1.43-.5a1.87 1.87 0 0 1-.42-1.32c.01-.55.19-.97.5-1.3z" stroke="#2A2E39"/><path d="M173.83 99.48a5.03 5.03 0 0 1 3.63-.1c1.44.44 2.4 1.15 2.92 2.12.55.97.63 2.1.23 3.43-.4 1.27-1.38 2.38-3.01 3.3l-1.68.88c-.6.36-1.07.91-1.43 1.63-.2.4-.65.64-1.08.5-.46-.13-.71-.63-.52-1.06.18-.38.35-.69.53-.93.33-.44.88-.9 1.67-1.36l2.03-1.11a4.02 4.02 0 0 0 1.86-2.28c.26-.87.26-1.66-.08-2.34-.33-.7-.97-1.17-1.85-1.44a3.26 3.26 0 0 0-2.33.06c-.38.17-.69.4-.93.72-.28.34-.7.57-1.13.44-.47-.14-.73-.66-.46-1.08a3.7 3.7 0 0 1 1.63-1.38zM171.7 114.36c.2-.12.47-.15.83-.04.37.11.57.29.68.5a1 1 0 0 1 .04.77 1 1 0 0 1-.46.61c-.2.11-.47.14-.84.02-.37-.1-.58-.28-.68-.48-.1-.22-.12-.47-.03-.76.09-.3.24-.49.46-.62zM135.43 88.66a5.87 5.87 0 0 1 3.92-1.65c1.74-.13 3.09.24 4.08 1.06 1 .82 1.57 2.02 1.7 3.64.11 1.55-.49 3.17-1.87 4.87l-1.45 1.67c-.5.65-.78 1.44-.87 2.38-.05.52-.44.97-.96 1.01-.56.04-1.04-.39-1.01-.94.02-.49.08-.9.18-1.24.17-.61.57-1.34 1.23-2.18l1.73-2.08a4.7 4.7 0 0 0 1.06-3.26 3.67 3.67 0 0 0-1.08-2.52c-.66-.62-1.55-.86-2.62-.78a3.8 3.8 0 0 0-2.51 1.06c-.34.34-.58.73-.71 1.17-.15.5-.53.93-1.04.96-.57.05-1.07-.4-.96-.97a4.3 4.3 0 0 1 1.18-2.2zM139.44 105.75c.17-.21.45-.36.9-.4.44-.03.74.08.94.27.22.2.35.46.38.81.02.35-.06.63-.25.86-.17.2-.44.35-.9.38-.45.04-.75-.06-.94-.23a1.2 1.2 0 0 1-.36-.82 1.2 1.2 0 0 1 .23-.87z" fill="#B2B5BE"/></g><defs><clipPath id="anlyanuel"><path d="M0 0h282v168H0V0z" fill="#fff"/></clipPath></defs></svg>