<svg width="44" height="24" xmlns="http://www.w3.org/2000/svg"><path d="M13.78 8.56V17h-1.77V8.56H8.82V7h8.3v1.57h-3.34zm4.02 3.35c0-1.43.4-2.63 1.17-3.62a3.8 3.8 0 013.14-1.48c1.44 0 2.54.44 3.3 1.34.76.9 1.14 2.14 1.14 3.76 0 1.61-.4 2.9-1.2 3.84a4.17 4.17 0 01-3.38 1.42 3.67 3.67 0 01-3.1-1.4 6.22 6.22 0 01-1.07-3.86zm1.85 0c0 1.17.2 2.08.6 2.72.39.64.97.96 1.72.96.9 0 1.57-.31 2.03-.94.47-.63.7-1.54.7-2.74 0-2.35-.86-3.52-2.6-3.52-.78 0-1.4.32-1.82.95a4.55 4.55 0 00-.63 2.57zm10.25 1.4V17h-1.77V7c1.18-.06 1.87-.08 2.07-.08 1.58 0 2.74.24 3.47.73.73.48 1.1 1.24 1.1 2.27 0 2.3-1.35 3.44-4.06 3.44-.2 0-.47-.01-.8-.04zm0-4.78v3.2c.3.04.54.05.71.05.81 0 1.4-.13 1.78-.4.37-.27.56-.71.56-1.33 0-1.03-.84-1.55-2.5-1.55-.2 0-.37 0-.55.03z" fill="#fff"/></svg>