<?xml version="1.0" encoding="UTF-8"?>
<svg width="10px" height="13px" viewBox="0 0 10 13" version="1.1" xmlns="http://www.w3.org/2000/svg" xmlns:xlink="http://www.w3.org/1999/xlink">
    <!-- Generator: Sketch 51.3 (57544) - http://www.bohemiancoding.com/sketch -->
    <title>Shape</title>
    <desc>Created with Sketch.</desc>
    <defs></defs>
    <g id="Page-3" stroke="none" stroke-width="1" fill="none" fill-rule="evenodd">
        <g id="Artboard-Copy-14" transform="translate(-1257.000000, -559.000000)" fill="#fff" fill-rule="nonzero">
            <g id="Group-3" transform="translate(1255.000000, 521.000000)">
                <path d="M12.9766004,47.522969 C12.9454865,47.4292225 12.7475285,47.2911201 12.3828632,47.1089903 C12.2840757,47.0515822 12.1433104,46.9735696 11.9611693,46.8745967 C11.7788641,46.7756238 11.6133882,46.6844221 11.4650428,46.6010736 C11.3163964,46.5177525 11.1771362,46.4370309 11.0470159,46.3590183 C11.0262185,46.3433939 10.9611173,46.2978888 10.8517396,46.222202 C10.7422525,46.1467342 10.6499231,46.0907216 10.5742591,46.0541917 C10.4987592,46.0178806 10.4244907,45.999602 10.3515631,45.999602 C10.2474121,45.999602 10.1173192,46.0738659 9.96112004,46.222202 C9.80492092,46.3707298 9.66163805,46.5320635 9.53149036,46.7066958 C9.4013153,46.881246 9.26325914,47.0425797 9.11756816,47.1910254 C8.97165826,47.3395257 8.85177242,47.4137075 8.75812957,47.4137075 C8.71111659,47.4137075 8.65250088,47.4006005 8.58225505,47.3747422 C8.5120366,47.3487198 8.45862022,47.3264187 8.42195119,47.3084411 C8.38561054,47.2900803 8.32324583,47.2537419 8.23463812,47.1988786 C8.14586623,47.1441795 8.09649987,47.1142167 8.08610119,47.1089903 C7.37256018,46.7130714 6.76059785,46.259936 6.25010475,45.7496934 C5.73977584,45.2391498 5.28655758,44.6272802 4.89072361,43.9137013 C4.88552427,43.9032759 4.85550493,43.8537758 4.80085712,43.765283 C4.74612723,43.6767082 4.70964975,43.6142926 4.6914247,43.5777353 C4.67319964,43.5413148 4.6510614,43.4879017 4.6250647,43.4176055 C4.599068,43.3473093 4.58601492,43.288752 4.58601492,43.241824 C4.58601492,43.1481322 4.66025602,43.0282812 4.80871086,42.882435 C4.95713834,42.736671 5.11864626,42.598596 5.29307044,42.4684838 C5.46763144,42.3383715 5.62897517,42.1950975 5.77745738,42.0389081 C5.92588485,41.8826365 6.00009859,41.7524969 6.00009859,41.6483524 C6.00009859,41.575484 5.98187354,41.5011928 5.94545079,41.4256976 C5.90900068,41.3500382 5.853012,41.2577146 5.77745738,41.1482889 C5.70187539,41.038918 5.65631275,40.9738756 5.64066,40.9529427 C5.56261517,40.8228304 5.48197067,40.6835241 5.39853495,40.5350784 C5.31509922,40.3866602 5.22402868,40.2212219 5.12502229,40.0389553 C5.02609801,39.8567708 4.94802581,39.7160963 4.89066888,39.6171508 C4.70847306,39.2526449 4.57047163,39.0546444 4.47669195,39.023505 C4.44021448,39.0078806 4.38548458,39 4.31263909,39 C4.17192853,39 3.98836446,39.0259951 3.76181006,39.0781494 C3.53517356,39.1302217 3.3568362,39.1848388 3.22660641,39.2422195 C2.96617421,39.3515357 2.69014398,39.6692231 2.39843364,40.1951721 C2.13280209,40.684646 2,41.1691124 2,41.6482155 C2,41.7887258 2.00911253,41.9254327 2.02733758,42.0583633 C2.04556264,42.1911572 2.07812693,42.3409163 2.12505781,42.5076132 C2.1719066,42.6742554 2.20969759,42.7980468 2.2382666,42.8786589 C2.26686297,42.9593258 2.32025198,43.1038311 2.39840627,43.3122296 C2.4764511,43.5205734 2.52338199,43.6481136 2.53900737,43.6949868 C2.72128529,44.2054209 2.93744101,44.6611011 3.18741981,45.0621643 C3.59871497,45.7287879 4.15999742,46.4177125 4.87093876,47.1286645 C5.58190746,47.8395618 6.27073792,48.4007821 6.93745751,48.812216 C7.33849082,49.0621519 7.79436348,49.2782669 8.30474712,49.4606703 C8.35165064,49.4762126 8.47919866,49.5230312 8.68747328,49.6013448 C8.89582999,49.6794395 9.04039901,49.7328252 9.12107087,49.7614745 C9.20177011,49.7901512 9.32559649,49.8279672 9.4921122,49.8748952 C9.65898365,49.9218232 9.80861519,49.9543855 9.94141728,49.9727462 C10.0743015,49.9907239 10.2110441,50 10.3515905,50 C10.830696,50 11.3152197,49.867124 11.804806,49.6015363 C12.330733,49.3099535 12.6483579,49.0338857 12.7577356,48.773278 C12.8152567,48.6431931 12.8697403,48.4648121 12.9218158,48.2381896 C12.9740555,48.0116766 12.9999975,47.8281513 12.9999975,47.6874768 C13.0001617,47.6143349 12.9923079,47.5597452 12.9766004,47.522969 Z" id="Shape" transform="translate(7.500000, 44.500000) rotate(17.000000) translate(-7.500000, -44.500000) "></path>
            </g>
        </g>
    </g>
</svg>