<?xml version="1.0" encoding="UTF-8" standalone="no"?>
<!-- Created with Inkscape (http://www.inkscape.org/) -->

<svg
   xmlns:dc="http://purl.org/dc/elements/1.1/"
   xmlns:cc="http://creativecommons.org/ns#"
   xmlns:rdf="http://www.w3.org/1999/02/22-rdf-syntax-ns#"
   xmlns:svg="http://www.w3.org/2000/svg"
   xmlns="http://www.w3.org/2000/svg"
   xmlns:sodipodi="http://sodipodi.sourceforge.net/DTD/sodipodi-0.dtd"
   xmlns:inkscape="http://www.inkscape.org/namespaces/inkscape"
   width="350"
   height="300"
   viewBox="0 0 350.00001 299.99999"
   id="svg5970"
   version="1.1"
   inkscape:version="0.91 r13725"
   sodipodi:docname="bgdivcounters.svg">
  <defs
     id="defs5972" />
  <sodipodi:namedview
     id="base"
     pagecolor="#ffffff"
     bordercolor="#666666"
     borderopacity="1.0"
     inkscape:pageopacity="0.0"
     inkscape:pageshadow="2"
     inkscape:zoom="0.35"
     inkscape:cx="-103.57143"
     inkscape:cy="495.71429"
     inkscape:document-units="px"
     inkscape:current-layer="layer1"
     showgrid="false"
     units="px"
     inkscape:window-width="1920"
     inkscape:window-height="1017"
     inkscape:window-x="-8"
     inkscape:window-y="-8"
     inkscape:window-maximized="1" />
  <metadata
     id="metadata5975">
    <rdf:RDF>
      <cc:Work
         rdf:about="">
        <dc:format>image/svg+xml</dc:format>
        <dc:type
           rdf:resource="http://purl.org/dc/dcmitype/StillImage" />
        <dc:title></dc:title>
      </cc:Work>
    </rdf:RDF>
  </metadata>
  <g
     inkscape:label="Calque 1"
     inkscape:groupmode="layer"
     id="layer1"
     transform="translate(0,-752.36221)">
    <g
       id="g6529"
       transform="matrix(0.8889344,0,0,0.90968251,16.256449,76.328554)"
       style="opacity:0.8">
      <path
         style="fill:#f0f0f0"
         d="m -18.285753,908.07646 0,-164.85716 196.857163,0 196.85716,0 0,164.85716 0,164.85714 -196.85716,0 -196.857163,0 0,-164.85714 z"
         id="path6545"
         inkscape:connector-curvature="0" />
      <path
         style="fill:#ececec"
         d="m -18.285753,1029.8197 c 0,-32.23346 0.337067,-43.76172 1.337345,-45.73937 1.069876,-2.11525 1.069876,-2.75713 0,-3.20943 -1.057081,-0.44688 -1.337345,-25.40812 -1.337345,-119.10848 l 0,-118.54312 124.105603,0 c 108.29292,0 124.1056,0.23316 124.1056,1.82992 0,1.00645 1.44433,3.75021 3.20963,6.09724 1.76529,2.34702 3.20962,4.64546 3.20962,5.10764 0,3.59389 14.54955,34.42408 16.2456,34.42408 2.31445,0 -1.2344,-16.57799 -4.38762,-20.49612 -1.226,-1.52342 -2.22909,-4.15111 -2.22909,-5.83932 0,-1.68821 -1.49211,-5.18258 -3.31578,-7.76527 l -3.31578,-4.69579 6.5254,-3.28675 c 3.58898,-1.80771 6.52541,-3.75675 6.52541,-4.33119 0,-0.57444 27.68304,-1.04444 61.51786,-1.04444 l 61.51787,0 0,30.58421 c 0,33.31581 0.38875,30.97372 -6.50472,39.18834 -8.63905,10.29475 -17.88768,26.13415 -24.16243,41.38114 -2.12017,5.15179 -4.98226,10.69422 -6.36022,12.31651 -1.87341,2.2056 -2.25397,3.49795 -1.50876,5.12342 1.04078,2.27014 17.18513,8.82114 27.83737,11.29576 3.23637,0.75184 6.96756,1.888 8.29154,2.5248 l 2.40722,1.15782 0,93.07376 0,93.07374 -196.85716,-0.012 -196.857163,-0.013 0,-43.0953 z"
         id="path6543"
         inkscape:connector-curvature="0" />
      <path
         style="fill:#eaeaea"
         d="m 56.926215,1063.879 c -11.447669,-16.7433 -18.748983,-26.4838 -27.138378,-36.2046 -7.810866,-9.0504 -8.567053,-9.6149 -11.891827,-8.8763 -1.952802,0.4338 -4.754159,1.4812 -6.225239,2.3275 -1.471079,0.8462 -5.5633542,2.4773 -9.0939445,3.6247 -3.53059041,1.1473 -8.6750051,3.1847 -11.4320319,4.5275 -9.8000276,4.7732 -9.4305476,5.5374 -9.4305476,-19.5037 0,-16.93271 0.335311,-22.33674 1.467998,-23.65898 1.603962,-1.87238 1.101272,-8.09926 -0.653846,-8.09926 -0.591884,0 -0.415398,-0.93441 0.392192,-2.07647 1.144733,-1.61884 1.173605,-2.19228 0.131001,-2.60191 -1.056912,-0.41527 -1.337345,-24.59757 -1.337345,-115.32181 l 0,-114.79637 43.240817,0 c 33.591599,0 43.361234,0.34837 43.780446,1.56115 0.431704,1.24892 0.556524,1.24892 0.624095,0 0.06674,-1.23356 16.258005,-1.56115 77.160685,-1.56115 80.61363,0 80.55563,-0.004 79.37396,5.27102 -0.37773,1.68621 0.13763,2.22249 2.13579,2.22249 3.52984,0 5.10594,2.37013 10.36264,15.58338 5.56583,13.99026 9.8266,21.97061 16.07645,30.11092 2.68284,3.49437 7.28513,9.88192 10.22728,14.19456 9.18935,13.46984 28.29805,33.00614 43.31012,44.27929 2.65887,1.99664 9.88717,6.66477 16.0629,10.37361 6.17573,3.70883 12.19378,7.72913 13.37345,8.93399 1.98849,2.03095 17.76785,7.92375 31.56643,11.78846 l 5.88432,1.64809 0.27433,92.65425 0.27431,92.65424 -156.16261,0 -156.162619,0 -6.190826,-9.0546 z m -50.337354,-9.2574 c -0.7355397,-0.3464 -1.3373449,-1.9881 -1.3373449,-3.6481 0,-2.8563 0.3443278,-3.0182 6.4192549,-3.0182 3.530591,0 6.419256,0.464 6.419256,1.0312 0,0.5671 -1.114279,2.2532 -2.476176,3.7467 -2.327786,2.5528 -5.9883795,3.3188 -9.02499,1.8884 z M 330.17414,861.07706 c -1.68107,-1.9624 -0.61262,-4.20623 2.0029,-4.20623 2.03922,0 2.66025,0.56303 2.39494,2.17126 -0.37507,2.2735 -3.10959,3.53882 -4.39784,2.03497 z m -25.35738,-17.41145 c 0,-1.16304 0.72791,-1.80015 1.78362,-1.56114 2.68407,0.60766 3.05263,3.5261 0.44528,3.5261 -1.31416,0 -2.2289,-0.80642 -2.2289,-1.96496 z m 17.11801,-10.52422 0,-4.99567 6.41926,0 6.41925,0 0,4.99567 0,4.99567 -6.41925,0 -6.41926,0 0,-4.99567 z m -35.22361,-6.34066 c -3.99131,-4.65926 -4.14081,-6.14852 -0.61723,-6.14852 1.66426,0 2.67469,0.70772 2.67469,1.87338 0,1.03035 0.72217,1.87337 1.60482,1.87337 0.99854,0 1.60481,1.17954 1.60481,3.1223 0,4.11325 -1.27576,3.93872 -5.26709,-0.72053 z m 69.96137,-6.21124 c -1.01661,-1.92019 0.3759,-3.1591 1.74908,-1.55613 0.76836,0.89695 0.78682,1.59552 0.0561,2.12272 -0.59905,0.43218 -1.41137,0.17722 -1.80517,-0.56659 z m -34.73776,-6.18187 0,-3.74675 10.69876,0 10.69876,0 0,3.74675 0,3.74675 -10.69876,0 -10.69876,0 0,-3.74675 z m -45.2914,1.66522 c -0.3923,-0.45793 -0.71326,-1.86297 -0.71326,-3.12229 0,-1.60972 0.7943,-2.28968 2.67469,-2.28968 2.13975,0 2.67469,0.62445 2.67469,3.12229 0,2.19507 -0.58248,3.12229 -1.96144,3.12229 -1.07879,0 -2.2824,-0.37467 -2.67468,-0.83261 z m -6.41926,-6.24459 c -0.39229,-0.45793 -0.71325,-2.14397 -0.71325,-3.74675 0,-2.27581 0.58588,-2.91414 2.67469,-2.91414 2.25862,0 2.67469,0.58283 2.67469,3.74675 0,2.80061 -0.49531,3.74676 -1.96144,3.74676 -1.0788,0 -2.28241,-0.37468 -2.67469,-0.83262 z m 68.82868,-5.41197 c 0,-3.74676 0,-3.74676 6.41925,-3.74676 6.41926,0 6.41926,0 6.41926,3.74676 0,3.74675 0,3.74675 -6.41926,3.74675 -6.41925,0 -6.41925,0 -6.41925,-3.74675 z m -77.28223,-8.5765 c -3.29639,-4.57314 -5.51985,-10.81995 -4.7187,-13.25714 0.36759,-1.11821 1.95346,-1.8958 3.86642,-1.8958 2.87584,0 3.2432,0.41604 3.2432,3.67304 0,2.02018 0.48144,4.02039 1.06987,4.44492 1.3376,0.96503 1.42407,10.6158 0.0951,10.6158 -0.53611,0 -2.13627,-1.61137 -3.55589,-3.58082 z m -6.78337,-44.43153 c -0.69255,-3.22111 0.0662,-5.69111 1.7483,-5.69111 0.5537,0 1.00673,1.96704 1.00673,4.37121 0,5.00873 -1.7787,5.86088 -2.75503,1.3199 z m 92.6246,-3.90695 c 0,-3.8741 8.51938,-5.7556 11.31012,-2.49783 2.44423,2.85326 1.89866,3.2115 -4.89086,3.2115 -3.53059,0 -6.41926,-0.32115 -6.41926,-0.71367 z"
         id="path6541"
         inkscape:connector-curvature="0" />
      <path
         style="fill:#e8e8e8"
         d="m 54.764832,1059.4433 c -12.376537,-18.8027 -27.475658,-37.8356 -32.653329,-41.1605 -2.415901,-1.5514 -7.558805,-6.0772 -11.428674,-10.0575 -3.8698697,-3.9802 -8.9619032,-8.55727 -11.31563015,-10.17134 -6.49586365,-4.45451 -14.44332385,-13.88168 -14.44332385,-17.13248 0,-1.54464 2.166498,-5.91343 4.814441,-9.70842 2.6479428,-3.795 4.8144414,-7.27754 4.8144414,-7.73897 0,-0.46144 1.8734094,-3.70095 4.1631331,-7.19893 12.6281065,-19.29176 32.5924935,-62.74718 43.9472205,-95.65758 6.572543,-19.04978 14.492511,-48.0749 17.675916,-64.77875 1.522754,-7.99014 3.440805,-17.61861 4.262335,-21.39658 0.821531,-3.77798 2.035155,-11.08415 2.696943,-16.23594 0.661789,-5.15178 1.737393,-10.63141 2.390233,-12.17694 l 1.18698,-2.81007 76.315342,0 c 41.97343,0 76.37678,0.42151 76.45187,0.93669 0.0751,0.51518 0.25082,2.219 0.3905,3.78628 0.3336,3.74356 1.10907,4.51762 4.59488,4.58654 2.62786,0.052 3.50887,1.48103 9.32141,15.12014 7.45993,17.50472 10.70383,23.51989 16.2818,30.19143 2.22521,2.66148 7.15446,9.2433 10.95389,14.62629 14.1643,20.06783 36.04796,40.13833 58.02682,53.21905 6.9236,4.12057 13.09637,8.60002 13.71726,9.95433 0.6209,1.3543 2.14542,2.46238 3.38783,2.46238 1.24241,0 6.64172,1.63688 11.99846,3.63751 5.35675,2.00063 12.74856,4.36112 16.42626,5.24554 l 6.68673,1.60805 0,31.76326 c 0,30.46481 -0.0897,31.85403 -2.19283,33.98337 -1.35623,1.3731 -1.76441,2.52919 -1.06988,3.03026 0.61763,0.44559 1.12296,2.18204 1.12296,3.85876 0,1.67672 0.50682,3.04858 1.12626,3.04858 1.39066,0 0.92197,33.1893 -0.51876,36.73574 -0.77104,1.8979 -0.65811,2.1702 0.54803,1.3214 1.25545,-0.8835 1.28515,-0.7316 0.17106,0.8749 -1.40432,2.0251 -1.39464,11.2145 0.0107,10.2048 0.44132,-0.317 0.8024,12.945 0.8024,29.4713 l 6e-5,30.0477 -155.93441,-0.064 -155.934409,-0.064 -8.794919,-13.3615 z m 301.405968,-9.7015 c 0,-5.1969 -0.21421,-5.6713 -2.39629,-5.3079 -3.0546,0.5087 -3.5866,3.7295 -1.29145,7.8185 2.61837,4.6649 3.68774,3.9369 3.68774,-2.5106 z m 8.55901,-20.5203 c 0,-0.6869 -0.21231,-1.2489 -0.4718,-1.2489 -0.25948,0 -0.76934,0.562 -1.13302,1.2489 -0.36367,0.6869 -0.15136,1.2489 0.4718,1.2489 0.62316,0 1.13302,-0.562 1.13302,-1.2489 z m 0,-74.93508 c 0,-0.6869 -0.50986,-1.24892 -1.13302,-1.24892 -0.62316,0 -0.83547,0.56202 -0.4718,1.24892 0.36368,0.68691 0.87354,1.24892 1.13302,1.24892 0.25949,0 0.4718,-0.56201 0.4718,-1.24892 z m -17.11802,-17.48485 c 0,-0.6869 -0.50986,-1.24892 -1.13302,-1.24892 -0.62316,0 -0.83546,0.56202 -0.47179,1.24892 0.36367,0.68691 0.87353,1.24892 1.13302,1.24892 0.25949,0 0.47179,-0.56201 0.47179,-1.24892 z m -8.23317,-8.67174 c -0.32531,-1.45214 -1.6457,-2.58097 -3.28692,-2.81006 -2.17347,-0.3034 -2.98619,-1.39964 -3.9133,-5.27849 -1.38571,-5.79756 -3.47964,-7.13399 -4.40852,-2.81369 -1.21982,5.67349 -0.1387,8.8486 3.79378,11.14185 5.17686,3.01891 8.52194,2.91635 7.81496,-0.23961 z m -356.694189,99.72527 c -1.281991,-0.9637 -1.267212,-1.3307 0.09969,-2.4754 1.20838,-1.012 1.274452,-1.5005 0.267469,-1.9775 -0.937608,-0.4441 -1.337345,-4.1708 -1.337345,-12.4678 0,-7.5715 0.385377,-11.55631 1.069876,-11.06248 0.588432,0.42458 1.069876,-0.19142 1.069876,-1.36877 0,-1.99472 0.133379,-1.99974 1.956525,-0.0737 1.076089,1.13683 2.809288,2.06695 3.851553,2.06695 1.0422656,0 3.5800825,1.9671 5.6395935,4.3712 2.0595111,2.4042 4.36321703,4.3712 5.11934538,4.3712 1.97800362,0 5.02149342,5.9297 4.62915072,9.0191 -0.2378559,1.8729 -1.7152261,3.1521 -5.14802982,4.4576 -2.64794278,1.007 -7.26652308,2.83 -10.26351278,4.051 -3.501591,1.4266 -5.986997,1.8157 -6.954193,1.0886 z m 0.367161,-70.72943 c -0.73554,-0.30226 -1.337345,-1.29892 -1.337345,-2.21479 0,-0.91587 0.601805,-1.91964 1.337345,-2.23058 1.069876,-0.45229 1.069876,-1.09418 0,-3.20943 -1.040414,-2.05701 -1.337345,-25.24759 -1.337345,-104.44782 l 0,-101.80375 38.515531,0 38.515532,0 0,3.79069 c 0,2.08489 -0.66684,5.03546 -1.481865,6.55682 -0.815026,1.52137 -1.808995,5.84429 -2.208822,9.60649 -0.875746,8.24039 -2.634769,17.3414 -3.924828,20.30666 -0.518921,1.19276 -0.943492,3.28889 -0.943492,4.65808 0,5.20904 -3.555918,23.23386 -4.95545,25.119 -0.805093,1.08445 -1.463806,3.40419 -1.463806,5.15498 0,1.75079 -0.722166,3.8829 -1.604813,4.73802 -0.882648,0.85512 -1.604814,3.04694 -1.604814,4.87071 0,1.82376 -0.634423,4.42451 -1.409827,5.77943 -1.964007,3.43186 -5.008092,13.28951 -5.01602,16.24335 -0.0036,1.35085 -0.669054,3.9382 -1.478731,5.74967 -0.809677,1.81148 -2.291258,6.17243 -3.292402,9.69101 -1.001144,3.51857 -2.656135,6.91962 -3.677757,7.55787 -1.021623,0.63826 -2.481577,3.58348 -3.244343,6.54493 -2.52432,9.80074 -3.552389,12.33678 -5.492467,13.54885 -1.056308,0.65991 -2.257405,2.43877 -2.669105,3.953 -0.411701,1.51422 -1.407194,3.52201 -2.21221,4.46174 -0.805014,0.93974 -1.463663,2.73606 -1.463663,3.99183 0,1.25578 -1.9195751,5.85224 -4.265723,10.21436 -2.3461479,4.36214 -5.0504068,9.61718 -6.00946387,11.6779 -0.95905706,2.06071 -2.59497853,4.87078 -3.63537933,6.24459 -1.0404019,1.37381 -2.2417837,3.90286 -2.6697373,5.62013 -0.4279546,1.71726 -1.8734365,4.52732 -3.2121823,6.24459 -1.3387462,1.71726 -3.3307962,5.14931 -4.4267782,7.62678 -1.095982,2.47746 -2.5945,4.25717 -3.330039,3.95489 z"
         id="path6539"
         inkscape:connector-curvature="0" />
      <path
         style="fill:#e5e5e5"
         d="m 64.094689,1071.6579 c 0,-2.2903 -16.982063,-26.8127 -29.868265,-43.1304 -3.284917,-4.1596 -7.898353,-8.9165 -10.25208,-10.5708 -2.353727,-1.6543 -7.168168,-5.8483 -10.698759,-9.3201 C 9.7449948,1005.1649 2.1622496,998.14523 -3.5749598,993.03733 -9.6398073,987.63774 -14.00625,982.8515 -14.00625,981.60318 c 0,-1.18089 1.58361,-4.57868 3.519134,-7.55063 39.927427,-61.30783 68.595739,-139.90301 79.541124,-218.06478 l 1.797258,-12.83436 34.334844,0.45069 c 34.26011,0.4497 36.92051,0.7452 51.14267,5.68057 13.6752,4.74557 46.29098,6.31282 64.20961,3.0854 3.52682,-0.63524 4.42102,-0.21064 7.7566,3.68314 2.54877,2.97531 3.77054,5.5543 3.77125,7.96057 5.7e-4,1.95768 1.67752,7.49351 3.72657,12.30184 2.04904,4.80834 3.73363,9.6009 3.74353,10.65014 0.01,1.04925 0.66833,3.01629 1.46318,4.37122 0.79486,1.35492 1.79448,4.13719 2.22137,6.18281 0.42689,2.04562 2.30414,6.47301 4.17165,9.83864 l 3.39549,6.11932 0.8221,-6.63526 c 0.45216,-3.64939 1.10756,-6.95275 1.45646,-7.3408 0.34888,-0.38805 3.10833,2.66491 6.13209,6.78436 21.45719,29.23244 40.24193,46.88776 65.67827,61.72941 6.03142,3.51922 10.9761,6.80696 10.98817,7.30609 0.0272,1.12168 -5.98008,26.93575 -8.63968,37.12612 -2.8651,10.97773 -2.11081,13.18194 7.40692,21.64505 8.20837,7.29881 30.83934,25.26763 37.31911,29.63106 l 3.4771,2.34146 0,14.72715 0,14.72717 -7.90782,14.75134 c -4.3493,8.1132 -9.2255,17.8037 -10.83597,21.5344 -1.61048,3.7307 -3.82929,8.2749 -4.93069,10.0982 -1.1014,1.8233 -2.00254,4.5207 -2.00254,5.9943 0,3.3174 2.89168,10.0488 4.31671,10.0488 2.48167,0 9.59167,10.1227 9.59167,13.656 0,0.9319 -27.92843,1.331 -93.13596,1.331 l -93.13596,0 -3.93616,-3.1223 c -4.30702,-3.4165 -5.5792,-3.8233 -5.5792,-1.7841 0,0.7359 -0.68778,2.141 -1.52839,3.1223 -1.28132,1.4957 -9.66965,1.7841 -51.88898,1.7841 -33.566055,0 -50.360591,-0.4254 -50.360591,-1.2757 z m 307.054371,0.1184 c 0,-0.6366 -0.67409,-1.3391 -1.49799,-1.5612 -2.51059,-0.6767 -10.27064,-12.6441 -10.27064,-15.8391 0,-3.7982 12.92074,-31.363 14.71079,-31.3837 1.02575,-0.011 1.33735,5.8047 1.33735,24.963 0,24.1457 -0.0714,24.9783 -2.13975,24.9783 -1.17687,0 -2.13976,-0.5208 -2.13976,-1.1573 z M 193.94712,748.87153 c -0.90085,-2.74041 2.20137,-5.65223 6.0218,-5.65223 3.63711,0 6.41926,2.39714 6.41926,5.53092 0,2.74188 -11.54262,2.85443 -12.44106,0.12131 z m -24.72757,-1.47998 c -2.3418,-1.10444 1.38785,-4.17225 5.07235,-4.17225 2.97754,0 6.41926,2.29582 6.41926,4.282 0,0.86382 -9.62219,0.77192 -11.49161,-0.10975 z m -10.97578,-2.92333 c -1.17719,-0.88807 -0.46447,-1.19238 2.67469,-1.14202 3.36226,0.0539 3.82087,0.29872 2.13975,1.14202 -2.8151,1.41213 -2.94258,1.41213 -4.81444,0 z m 56.43595,-0.8814 c 1.32397,-0.29769 3.49047,-0.29769 4.81444,0 1.32397,0.29768 0.24072,0.54124 -2.40722,0.54124 -2.64794,0 -3.73119,-0.24356 -2.40722,-0.54124 z"
         id="path6537"
         inkscape:connector-curvature="0" />
      <path
         style="fill:#e0e0e0"
         d="m 176.02642,1069.4991 c -0.51884,-2.6489 -3.28771,-5.4342 -12.10529,-12.177 -32.22178,-24.6397 -50.95974,-33.5962 -83.51131,-39.917 -10.242817,-1.9889 -29.543792,-2.3602 -44.949763,-0.8648 -4.86306,0.472 -9.771865,0.4567 -10.908456,-0.034 -1.13659,-0.4908 -5.582996,-4.3468 -9.8809,-8.5688 -4.297904,-4.222 -12.2677294,-11.57374 -17.7107229,-16.3372 -5.4429934,-4.76347 -9.8963521,-9.20347 -9.8963521,-9.86667 0,-0.66322 2.862338,-5.7123 6.3607494,-11.22022 25.6094356,-40.31955 46.7957156,-88.3207 60.6318996,-137.37192 7.38733,-26.18914 15.09597,-63.61307 17.043076,-82.74081 l 0.731019,-7.18128 30.74053,0 30.74054,0 12.81443,4.91207 c 7.04795,2.70163 17.89503,5.79271 24.10463,6.86904 13.04704,2.26151 33.4499,2.5452 45.25064,0.62919 9.63409,-1.56422 10.5409,-1.03597 12.71977,7.40981 0.8205,3.18049 3.65413,11.68384 6.29695,18.89634 2.64282,7.2125 6.12494,16.98489 7.73805,21.71641 3.37326,9.89433 6.55129,15.72953 11.96203,21.96353 2.10202,2.42187 8.22442,12.27159 13.60532,21.88825 12.57062,22.46609 20.93516,34.24092 40.95731,57.65602 8.93605,10.45037 16.92955,20.52053 17.76333,22.37815 0.83377,1.85762 4.11422,5.50135 7.28989,8.09716 15.40443,12.59174 36.04111,28.59226 38.67262,29.98458 2.93127,1.55092 2.94216,1.60405 2.94216,14.34563 l 0,12.78895 -7.47845,13.87927 c -4.11313,7.6336 -9.24235,17.6653 -11.39825,22.2925 -2.1559,4.6273 -4.80865,9.9051 -5.89501,11.7284 -1.08635,1.8232 -1.97519,5.1011 -1.97519,7.2841 0,4.158 -5.6662,20.5475 -8.07637,23.361 -1.1284,1.3173 -17.14721,1.6339 -82.65292,1.6339 l -81.25326,0 -0.6727,-3.4345 z m 174.28571,0.7812 c 0.70444,-4.2699 3.58109,-8.5703 5.23683,-7.8286 0.83251,0.3729 2.76416,2.8839 4.29255,5.58 l 2.77891,4.9019 -6.373,0 c -5.9216,0 -6.342,-0.1879 -5.93529,-2.6533 z m -29.89715,-164.807 c -2.30696,-2.02456 -5.03462,-5.21764 -6.06145,-7.09575 -1.02684,-1.8781 -5.27773,-7.28948 -9.44644,-12.02528 -4.16871,-4.73581 -7.57946,-9.19201 -7.57946,-9.90267 0,-0.71066 -1.56469,-3.10892 -3.4771,-5.32947 -4.10582,-4.76739 -6.7514,-8.50302 -13.18705,-18.62052 -2.62161,-4.12142 -5.72198,-8.80578 -6.88971,-10.40966 -1.16774,-1.60389 -2.12316,-3.35257 -2.12316,-3.88594 0,-0.53338 -2.29564,-5.12224 -5.10141,-10.19748 -2.80577,-5.07523 -6.19828,-12.03776 -7.53891,-15.47229 -2.38675,-6.11455 -2.17469,-5.92906 10.18332,8.90722 6.94145,8.33349 15.50948,17.95984 19.04007,21.39189 8.85548,8.60832 24.40242,20.15982 35.9129,26.68358 8.00183,4.53517 9.56392,5.88751 9.19583,7.96104 -0.24388,1.37381 -1.67061,7.55596 -3.1705,13.7381 -1.4999,6.18214 -3.01314,12.7858 -3.36274,14.67478 -0.77953,4.21189 -1.14629,4.18794 -6.39419,-0.41755 z"
         id="path6535"
         inkscape:connector-curvature="0" />
      <path
         style="fill:#dedede"
         d="m 177.50153,1070.6097 c 0,-1.2781 3.2778,-8.1627 7.28399,-15.2992 11.43386,-20.3678 17.66939,-33.0157 24.25288,-49.194 3.35432,-8.24284 6.4875,-15.86954 6.96265,-16.94819 1.53693,-3.48906 7.24994,-20.21013 11.0645,-32.38405 11.06028,-35.29807 19.58028,-76.76196 22.17108,-107.899 1.74106,-20.92445 1.93675,-21.98846 4.0439,-21.98846 1.02332,0 2.7635,1.82654 3.86705,4.05898 5.29456,10.71067 16.97586,30.32657 25.10098,42.15098 12.33883,17.95658 15.81056,22.35975 29.45786,37.36123 6.50825,7.15402 12.52278,14.13952 13.36563,15.52331 1.11557,1.83154 1.59762,7.12669 1.77201,19.46454 0.2387,16.88852 2.46405,38.216 4.80491,46.04965 0.67758,2.26749 1.3821,3.94746 1.56559,3.73326 0.18351,-0.2142 -0.39488,-5.72252 -1.28528,-12.24071 -0.89041,-6.51817 -1.86351,-19.85991 -2.16246,-29.64831 -0.44688,-14.63183 -0.28014,-17.79708 0.93754,-17.79708 0.81461,0 5.3131,3.27182 9.99667,7.2707 10.78046,9.20448 32.10638,25.20117 33.59684,25.20117 0.71587,0 1.1307,4.40145 1.1307,11.99723 0,11.32888 -0.17146,12.25073 -3.07786,16.54816 -3.16423,4.67859 -10.78949,19.26089 -16.42091,31.40269 -1.75224,3.778 -3.9212,7.8363 -4.8199,9.0185 -1.536,2.0206 -1.74236,1.9831 -3.44062,-0.6244 -0.99365,-1.5257 -2.43864,-4.6126 -3.21112,-6.8598 -0.77246,-2.2472 -1.863,-4.4166 -2.42341,-4.8209 -0.98864,-0.7132 0.75837,4.0257 4.10569,11.1372 2.91364,6.19 2.30985,13.0264 -2.25728,25.5579 l -4.21034,11.5525 -81.08564,0 c -78.34908,0 -81.08565,-0.078 -81.08565,-2.3239 z m 162.54064,-56.0355 c -1.95483,-6.9144 -6.31716,-17.48966 -6.32234,-15.32673 -0.0127,5.29493 6.28782,24.28103 7.1529,21.55473 0.27055,-0.8527 -0.10324,-3.6553 -0.83056,-6.228 z m 13.56693,54.3576 1.77275,-4.0018 2.48689,3.6408 c 2.73497,4.004 2.59649,5.7143 -0.24126,2.9796 -1.40151,-1.3506 -1.9052,-1.3903 -2.25475,-0.1779 -0.24757,0.8586 -1.14452,1.5611 -1.99325,1.5611 -1.29648,0 -1.25979,-0.6396 0.22962,-4.0018 z m -188.67861,-14.3253 c -2.8015,-2.2813 -3.12875,-4.1534 -0.72599,-4.1534 1.92149,0 4.73802,2.9167 4.73802,4.9065 0,1.8039 -1.13308,1.5912 -4.01203,-0.7531 z m -15.58007,-11.2046 c -1.39522,-1.6287 -0.72911,-2.9401 1.49337,-2.9401 1.24507,0 2.04197,0.6546 1.80541,1.483 -0.52114,1.8251 -2.30757,2.6142 -3.29878,1.4571 z m -8.22467,-11.0581 c 0,-1.1657 1.01044,-1.8734 2.67469,-1.8734 1.66426,0 2.67469,0.7077 2.67469,1.8734 0,1.1656 -1.01043,1.8734 -2.67469,1.8734 -1.66425,0 -2.67469,-0.7078 -2.67469,-1.8734 z m -8.02407,-0.6245 c -0.36367,-0.6869 0.0893,-1.2489 1.00673,-1.2489 0.91738,0 1.66796,0.562 1.66796,1.2489 0,0.6869 -0.45303,1.2489 -1.00673,1.2489 -0.5537,0 -1.30429,-0.562 -1.66796,-1.2489 z m -13.37345,-6.2446 c -2.05951,-1.3162 -4.79939,-2.4167 -6.08864,-2.4454 -1.28924,-0.029 -2.64163,-0.6144 -3.0053,-1.3013 -0.40753,-0.7698 1.41539,-1.2489 4.7513,-1.2489 3.96333,0 5.41252,0.475 5.41252,1.7741 0,0.9758 1.44854,2.1455 3.21897,2.5995 1.77043,0.4539 2.94562,1.3416 2.61154,1.9726 -0.89305,1.6868 -2.7017,1.3328 -6.90039,-1.3506 z m -21.510824,-6.7931 c -0.672288,-0.7848 -16.043694,-4.4449 -18.672501,-4.4461 -1.211504,-6e-4 -3.104273,-0.7706 -4.206153,-1.7111 -1.735243,-1.4812 -0.258887,-1.7044 11.029212,-1.6674 10.137438,0.033 13.032629,0.4131 13.032629,1.7101 0,0.9171 0.962887,1.6674 2.139747,1.6674 1.4265,0 2.13976,0.8326 2.13976,2.4978 0,1.7842 -0.71326,2.4979 -2.49638,2.4979 -1.373012,0 -2.707842,-0.2469 -2.966314,-0.5486 z m -78.0214,-8.1366 c -2.668795,-2.6629 -3.19998,-3.7168 -1.891673,-3.7533 1.000516,-0.028 2.294504,-1.0343 2.875528,-2.2363 0.871866,-1.8038 1.301667,-1.8993 2.460383,-0.5467 1.158717,1.3526 1.084671,1.8493 -0.423872,2.8431 -1.005315,0.6623 -1.595448,1.9111 -1.311406,2.7752 0.380776,1.1583 3.390388,1.4642 11.456731,1.1644 12.866054,-0.4783 12.242497,1.4456 -0.862119,2.6598 -8.413031,0.7796 -8.670405,0.7188 -12.303572,-2.9062 z m -6.385483,-6.9263 c -1.084243,-1.5251 -1.030422,-1.8734 0.289472,-1.8734 0.891743,0 1.898471,0.843 2.237175,1.8734 0.338704,1.0303 0.208442,1.8734 -0.289472,1.8734 -0.497914,0 -1.504643,-0.8431 -2.237175,-1.8734 z m -8.351192,-7.05685 c -2.0907953,-1.56275 -3.3073876,-3.34126 -2.9757367,-4.35016 0.3728549,-1.13426 -0.2541041,-1.70665 -1.86932888,-1.70665 -2.89894212,0 -11.41088742,-7.0002 -11.41088742,-9.38428 0,-0.92108 1.0832494,-2.72445 2.4072208,-4.0075 1.3239714,-1.28306 3.5516733,-4.83643 4.9504494,-7.89639 1.3987749,-3.05996 4.37135979,-8.37363 6.6057442,-11.80815 11.7889616,-18.12109 31.6357226,-61.53955 42.5309786,-93.04439 9.19896,-26.5998 12.095429,-37.12117 18.394357,-66.8171 6.117879,-28.8424 6.113643,-28.819 7.633254,-42.15098 l 1.387958,-12.17695 30.9461,0 c 24.11125,0 31.20845,0.35951 32.13393,1.62774 3.13325,4.29367 22.80679,10.79831 40.27751,13.31691 4.43481,0.63932 13.34153,1.11704 19.7927,1.06158 6.45118,-0.0555 14.58938,-0.0465 18.0849,0.02 3.49552,0.0665 6.98029,-0.48448 7.74394,-1.22431 1.93753,-1.87711 3.00843,1.70247 1.49615,5.00106 -0.63374,1.38233 -1.15225,3.67429 -1.15225,5.09326 0,1.46067 -0.69622,2.57994 -1.60482,2.57994 -0.97355,0 -1.60481,-1.16039 -1.60481,-2.95001 0,-2.63888 -0.67705,-3.0773 -6.41926,-4.15681 -5.14288,-0.96685 -6.41925,-0.87694 -6.41925,0.45218 0,1.31023 -3.5985,1.65897 -17.11801,1.65897 -16.40476,0 -17.11802,0.10407 -17.11802,2.49784 0,2.08153 -0.71325,2.49783 -4.2795,2.49783 -3.56625,0 -4.27951,0.41631 -4.27951,2.49784 0,2.08153 0.71326,2.49783 4.27951,2.49783 l 4.2795,0 0,14.98702 0,14.98701 -4.2795,0 -4.27951,0 0,7.49351 0,7.49351 -4.2795,0 -4.2795,0 0,7.49351 0,7.4935 -4.27951,0 c -3.56624,0 -4.2795,0.41631 -4.2795,2.49784 0,2.08153 -0.71325,2.49783 -4.2795,2.49783 -3.56625,0 -4.27951,0.41631 -4.27951,2.49784 0,2.28968 0.71326,2.49784 8.55901,2.49784 l 8.55901,0 0,7.4935 0,7.49351 -4.27951,0 -4.2795,0 0,9.99134 0,9.99135 -8.55901,0 -8.559,0 0,7.4935 0,7.49351 -4.27951,0 c -3.56625,0 -4.2795,0.4163 -4.2795,2.49784 0,2.08153 -0.71325,2.49783 -4.2795,2.49783 -4.27951,0 -4.27951,0 -4.27951,4.99567 0,4.99568 0,4.99568 -4.2795,4.99568 -4.2795,0 -4.2795,0 -4.2795,4.99567 l 0,4.99567 -6.419259,0 c -5.706001,0 -6.419255,0.27753 -6.419255,2.49783 0,2.22031 0.713254,2.49784 6.419255,2.49784 l 6.419259,0 0,7.49351 0,7.4935 -4.279507,0 c -4.279504,0 -4.279504,0 -4.279504,4.99568 l 0,4.99567 -10.698759,0 c -9.985507,0 -10.698758,-0.16652 -10.698758,-2.49784 0,-1.66522 -0.713251,-2.49783 -2.139752,-2.49783 -1.783127,0 -2.139752,0.83261 -2.139752,4.99567 l 0,4.99567 -6.419255,0 c -5.706004,0 -6.419255,-0.27754 -6.419255,-2.49784 0,-2.2203 -0.713251,-2.49783 -6.419255,-2.49783 -5.706005,0 -6.419256,0.27753 -6.419256,2.49783 0,2.08154 -0.713251,2.49784 -4.279503,2.49784 -3.566253,0 -4.279504,0.4163 -4.279504,2.49784 0,2.08153 -0.71325,2.49783 -4.279503,2.49783 l -4.279503,0 0,7.49351 0,7.49351 -4.279504,0 c -3.566252,0 -4.279503,0.4163 -4.279503,2.49783 0,2.08154 -0.713251,2.49784 -4.279504,2.49784 l -4.2795034,0 -0.1083966,5.3079 c -0.059613,2.91934 -0.022735,7.13444 0.081974,9.36688 0.104698,2.23244 0.033123,4.04952 -0.1590724,4.03794 -0.1921925,-0.0112 -1.9409784,-1.21063 -3.8861914,-2.66457 z M 116.51861,873.10676 c 0,-1.66522 -0.71326,-2.49784 -2.13976,-2.49784 -1.42649,0 -2.13975,0.83262 -2.13975,2.49784 0,1.66522 0.71326,2.49784 2.13975,2.49784 1.4265,0 2.13976,-0.83262 2.13976,-2.49784 z m 0,-67.44157 0,-4.99567 6.41925,0 c 5.706,0 6.41926,0.27754 6.41926,2.49784 0,1.66522 0.71325,2.49783 2.13975,2.49783 2.02088,0 2.13975,-0.83261 2.13975,-14.98701 l 0,-14.98702 -4.2795,0 c -3.56625,0 -4.27951,-0.4163 -4.27951,-2.49783 0,-1.66522 -0.71325,-2.49784 -2.13975,-2.49784 -1.78313,0 -2.13975,0.83262 -2.13975,4.99567 0,4.99568 0,4.99568 -4.2795,4.99568 l -4.27951,0 0,14.98701 c 0,14.1544 0.11888,14.98702 2.13975,14.98702 1.78313,0 2.13976,-0.83262 2.13976,-4.99568 z m 25.67702,-39.87379 c 0,-10.62486 -0.5128,-11.48326 -6.15179,-10.29779 -3.10557,0.65287 -3.33953,5.21054 -0.26747,5.21054 1.90201,0 2.13975,0.83261 2.13975,7.49351 0,6.66089 0.23775,7.4935 2.13976,7.4935 1.95978,0 2.13975,-0.83261 2.13975,-9.89976 z m 51.35404,228.55196 c 0,-3.04683 0.45588,-3.83832 2.21081,-3.83832 1.77921,0 2.14473,0.66843 1.87228,3.42385 -0.20417,2.06502 -1.08158,3.58834 -2.21081,3.83832 -1.45401,0.3219 -1.87228,-0.443 -1.87228,-3.42385 z m -17.11801,-201.16734 0,-7.49351 6.41925,0 6.41926,0 0,7.49351 0,7.4935 -6.41926,0 -6.41925,0 0,-7.4935 z m 51.56559,-4.04729 c 0.24719,-5.003 0.75552,-6.641 2.15744,-6.95203 1.21949,-0.27056 2.0613,0.64998 2.51219,2.74714 0.37298,1.73472 1.35307,3.80793 2.17798,4.60712 0.82491,0.79918 1.49984,2.50828 1.49984,3.79798 0,1.90816 -0.8075,2.34491 -4.33541,2.34491 l -4.33542,0 0.32338,-6.54512 z"
         id="path6533"
         inkscape:connector-curvature="0" />
      <path
         style="fill:#d4d4d4"
         d="m 178.57141,1071.596 c 0,-0.7357 3.06955,-6.7774 6.82123,-13.4259 15.94346,-28.2542 23.76302,-44.9536 34.47498,-73.62446 6.43098,-17.21272 16.91603,-52.67918 21.12992,-71.47351 5.50751,-24.564 11.3953,-64.24483 11.3953,-76.79871 0,-4.96822 2.0346,-7.07624 3.67839,-3.81113 0.62482,1.24113 4.69518,8.50532 9.04521,16.14263 13.96964,24.52639 29.8336,46.13311 50.39829,68.64248 l 8.94912,9.79539 0.24752,18.92972 c 0.43853,33.53858 5.90525,60.86299 17.71182,88.52919 2.2653,5.3082 4.11873,11.0377 4.11873,12.7322 0,1.6944 -1.68506,7.3972 -3.74457,12.6728 -2.05951,5.2756 -3.74456,10.3649 -3.74456,11.3095 0,1.442 -12.86651,1.7174 -80.24069,1.7174 -56.32873,0 -80.24069,-0.3986 -80.24069,-1.3376 z"
         id="path6531"
         inkscape:connector-curvature="0" />
    </g>
  </g>
</svg>
