<?xml version="1.0" encoding="UTF-8" standalone="no"?>
<!-- Created with Inkscape (http://www.inkscape.org/) -->

<svg
   xmlns:dc="http://purl.org/dc/elements/1.1/"
   xmlns:cc="http://creativecommons.org/ns#"
   xmlns:rdf="http://www.w3.org/1999/02/22-rdf-syntax-ns#"
   xmlns:svg="http://www.w3.org/2000/svg"
   xmlns="http://www.w3.org/2000/svg"
   xmlns:sodipodi="http://sodipodi.sourceforge.net/DTD/sodipodi-0.dtd"
   xmlns:inkscape="http://www.inkscape.org/namespaces/inkscape"
   id="svg2"
   version="1.1"
   inkscape:version="0.91 r13725"
   width="1679.3003"
   height="1049.5627"
   viewBox="0 0 1679.3003 1049.5627"
   sodipodi:docname="bgMap.svg">
  <metadata
     id="metadata8">
    <rdf:RDF>
      <cc:Work
         rdf:about="">
        <dc:format>image/svg+xml</dc:format>
        <dc:type
           rdf:resource="http://purl.org/dc/dcmitype/StillImage" />
        <dc:title></dc:title>
      </cc:Work>
    </rdf:RDF>
  </metadata>
  <defs
     id="defs6" />
  <sodipodi:namedview
     pagecolor="#ffffff"
     bordercolor="#666666"
     borderopacity="1"
     objecttolerance="10"
     gridtolerance="10"
     guidetolerance="10"
     inkscape:pageopacity="0"
     inkscape:pageshadow="2"
     inkscape:window-width="1920"
     inkscape:window-height="1017"
     id="namedview4"
     showgrid="false"
     inkscape:zoom="0.22485554"
     inkscape:cx="219.25183"
     inkscape:cy="486.97932"
     inkscape:window-x="-8"
     inkscape:window-y="-8"
     inkscape:window-maximized="1"
     inkscape:current-layer="svg2" />
  <path
     style="fill:#000000"
     d=""
     id="path4142"
     inkscape:connector-curvature="0" />
  <path
     style="fill:#000000"
     d=""
     id="path4138"
     inkscape:connector-curvature="0" />
  <path
     style="fill:#000000;fill-opacity:0.09944751"
     d="m 588.86156,905.65771 c -8.44062,-4.1653 -15.02018,-13.404 -17.40687,-24.4419 -2.08168,-9.6273 -2.29579,-28.676 -0.61258,-54.5 3.48709,-53.4995 3.09972,-83.39977 -1.50743,-116.35466 -4.25574,-30.44134 -7.78178,-44.53296 -25.55719,-102.13779 -16.33681,-52.94278 -16.26911,-52.78607 -28.25652,-65.4123 -11.52298,-12.13705 -20.34052,-23.72566 -34.31207,-45.09524 -14.9581,-22.87852 -26.57512,-42.2457 -34.88861,-58.16417 -8.16227,-15.62891 -7.70178,-14.86115 -8.45924,-14.10369 -0.31101,0.31101 0.76755,3.20618 2.3968,6.43371 3.24676,6.43179 8.16868,21.61516 8.16868,25.19911 0,1.94934 -0.44893,2.21847 -3.25,1.9484 -2.74162,-0.26434 -3.91362,-1.30343 -7.49243,-6.64271 -2.64095,-3.94006 -5.21575,-9.60245 -6.82081,-15 -9.00276,-30.27474 -8.26668,-28.75716 -23.69941,-48.86108 -10.48357,-13.65675 -11.07927,-15.77952 -11.45215,-40.80957 -0.26941,-18.0848 -0.61778,-22.04114 -2.50955,-28.5 -2.03315,-6.94158 -2.66547,-7.90951 -8.49251,-13 -5.7813,-5.05053 -6.26668,-5.78603 -5.93936,-9 0.27048,-2.65589 -0.37182,-4.52499 -2.66319,-7.75 -1.6608,-2.3375 -3.07799,-4.25 -3.14931,-4.25 -0.0713,0 0.0542,1.575 0.27893,3.5 0.37133,3.18074 0.17914,3.5 -2.107,3.5 -3.15945,0 -9.14741,-7.91874 -10.07291,-13.32093 -0.3467,-2.02349 -0.9045,-5.25407 -1.2397,-7.17907 -0.4216,-2.42153 -1.1442,-3.5 -2.345,-3.5 -3.2302,0 -8.0456,-7.66919 -8.0456,-12.81378 0,-2.58615 -0.6453,-3.19726 -5.75,-5.44505 -9.8264,-4.32694 -26.8135,-5.87456 -28.8213,-2.62578 -0.3007,0.48653 -1.8993,0.88461 -3.5523,0.88461 -1.6531,0 -5.2266,0.95541 -7.941,2.12314 -4.7905,2.0608 -4.9354,2.24616 -4.9354,6.31195 0,3.48192 -0.4994,4.55803 -2.9595,6.37685 -3.6249,2.67998 -6.7502,2.78605 -9.476,0.32162 -2.0296,-1.8349 -2.1903,-1.79794 -9.506,2.18616 -4.0928,2.22894 -6.9053,4.23134 -6.25,4.44978 0.6553,0.21844 1.1915,1.48467 1.1915,2.81383 0,1.92763 -0.5192,2.41667 -2.5657,2.41667 -1.4112,0 -3.4845,-0.49169 -4.6074,-1.09264 -1.4765,-0.79019 -2.3441,-0.79019 -3.1343,0 -0.6009,0.60095 -2.5776,1.09264 -4.3926,1.09264 -2.7576,0 -3.2989,-0.36983 -3.2932,-2.25 0,-1.44009 1.2489,-3.09578 3.4574,-4.59966 4.1881,-2.85194 8.4065,-8.21286 9.5213,-12.09989 1.4245,-4.96678 -2.7516,-11.92395 -14.4293,-24.03846 -10.6997,-11.09999 -11.948,-13.19495 -11.3799,-19.0989 0.4103,-4.26333 4.4705,-6.69145 17.2246,-10.30062 24.8347,-7.02779 56.8957,-9.37553 105.2052,-7.70386 16.99164,0.58796 40.5689,1.31799 52.3939,1.62228 l 21.5,0.55325 -7,-2.36357 c -9.71407,-3.27997 -11.5,-4.38867 -11.5,-7.13912 0,-1.50718 -0.7163,-2.5355 -2,-2.8712 -1.15334,-0.3016 -2,-1.36401 -2,-2.50964 0,-2.91423 -2.51006,-3.40149 -8.10138,-1.57266 -6.02655,1.97118 -14.07198,1.43013 -16.90875,-1.13712 -2.62789,-2.3782 -2.51323,-5.44053 0.36238,-9.67796 1.6489,-2.4298 2.21499,-4.40137 1.89323,-6.5937 -0.40065,-2.7298 -0.11588,-3.21359 2.23958,-3.80477 9.81752,-2.46405 38.6288,3.72282 39.33449,8.44658 0.26418,1.76835 1.00066,2.13902 4.25,2.13902 2.25519,0 3.93045,-0.48166 3.93045,-1.13005 0,-0.7478 1.52218,-0.95848 4.5,-0.62284 2.475,0.27897 4.5,0.16128 4.5,-0.26154 0,-0.42281 1.125,-1.05111 2.5,-1.39621 1.375,-0.34511 2.5,-1.06889 2.5,-1.60841 0,-0.53952 2.7,-0.98095 6,-0.98095 6.64928,0 7.02752,0.51646 4.82965,6.59455 -0.98446,2.72247 -0.89266,3.66034 0.57796,5.90479 1.87378,2.85975 9.87214,7.04662 10.42572,5.45751 0.18334,-0.52627 1.42084,-0.95685 2.75,-0.95685 1.91111,0 2.41667,0.52299 2.41667,2.5 0,1.375 -0.525,2.5 -1.16667,2.5 -0.64166,0 -0.89622,0.27044 -0.56568,0.60099 0.67724,0.67723 7.73235,-4.42394 7.73235,-5.59085 0,-0.41386 -2.16256,-1.03935 -4.8057,-1.38998 -2.64313,-0.35062 -6.80563,-1.64609 -9.25,-2.87883 -3.68786,-1.85984 -4.49687,-2.78422 -4.75316,-5.43096 -0.30022,-3.10047 -0.18841,-3.1983 4,-3.5 3.48322,-0.2509 4.36596,-0.70996 4.60684,-2.39572 0.20634,-1.44409 1.43639,-2.40464 4,-3.12364 l 3.70202,-1.03827 -3.75,-0.12637 c -3.04121,-0.10248 -3.75,-0.50439 -3.75,-2.12637 0,-1.66667 -0.66667,-2 -4,-2 -2.72187,0 -4,0.43814 -4,1.37118 0,1.02404 -2.56381,1.55294 -10.12693,2.08914 -5.56981,0.39488 -11.92639,1.35285 -14.12573,2.12882 -2.19934,0.77597 -6.86722,1.41086 -10.37307,1.41086 -5.7076,0 -6.37427,-0.20917 -6.37427,-2 0,-1.77143 -0.66667,-2 -5.83333,-2 -3.20834,0 -6.13195,-0.29861 -6.49692,-0.66358 -1.46279,-1.4628 -11.32425,-4.33642 -14.88136,-4.33642 -3.50683,0 -3.78839,-0.21386 -3.78839,-2.87755 0,-1.58266 0.5625,-3.3387 1.25,-3.90232 2.3691,-1.94219 14.26451,-5.38963 20.5,-5.94115 4.33952,-0.38382 6.25,-0.96947 6.25,-1.91589 0,-0.84788 1.13392,-1.36309 3,-1.36309 1.88759,0 3,-0.51296 3,-1.38337 0,-0.76085 1.0125,-1.65471 2.25,-1.98634 2.93273,-0.78595 12.14133,-0.80109 14.16821,-0.0233 2.0345,0.78071 2.02005,3.79451 -0.0332,6.92819 -1.4624,2.23188 -1.46569,2.46482 -0.0348,2.46482 0.86912,0 3.05838,1.28109 4.86501,2.84686 4.1202,3.57089 9.7848,4.94019 9.7848,2.36527 0,-0.95583 -1.0125,-2.18208 -2.25,-2.725 -3.10964,-1.36427 -3.75437,-6.48713 -0.81642,-6.48713 2.12236,0 2.85245,-2.39617 1.06642,-3.5 -0.55,-0.33992 -1,-1.78309 -1,-3.20704 l 0,-2.589 8.75,0.57195 c 8.96141,0.58577 14.12753,1.93428 15.46434,4.03665 0.57089,0.89784 0.75877,0.88258 0.77035,-0.0626 0.01,-0.80274 1.54543,-1.25 4.29174,-1.25 l 4.27642,0 -0.36948,-3.87435 c -0.288,-3.02 0.12185,-4.3321 1.85862,-5.95014 4.03856,-3.7625 8.8923,-5.46187 13.9046,-4.86824 l 4.63502,0.54895 -0.40021,-3.42811 c -0.36683,-3.14219 -0.17926,-3.42811 2.24903,-3.42811 1.45709,0 4.3829,0.88445 6.50182,1.96543 3.69003,1.88252 3.87264,1.88869 4.3283,0.14623 0.39793,-1.5217 1.92825,-1.92374 9.35759,-2.4584 4.88502,-0.35156 12.70686,-1.06404 17.38186,-1.5833 11.6932,-1.29879 48,-1.35171 48,-0.07 0,0.55 2.1375,1.00391 4.75,1.00869 2.6125,0.005 7.1125,0.29246 10,0.63929 4.46891,0.53678 5.25228,0.94463 5.26531,2.74131 0.0113,1.55453 0.24037,1.75558 0.86942,0.76298 0.65492,-1.03343 5.72349,-1.46017 21.73468,-1.82989 16.03236,-0.37022 21.80936,-0.85727 24.88056,-2.09764 5.4371,-2.19587 16.4153,-3.10329 46.3566,-3.83171 16.2752,-0.39595 26.1243,-0.25574 27.5,0.39146 1.1789,0.55459 6.4184,1.5279 11.6434,2.16291 5.225,0.63501 9.9275,1.58162 10.45,2.10358 0.5225,0.52196 1.9529,0.94902 3.1786,0.94902 1.2257,0 3.0154,0.78681 3.9771,1.74848 1.4093,1.40934 3.9556,1.81855 13.1272,2.1097 l 11.3788,0.36121 -0.3058,2.6403 c -0.2809,2.42434 -0.8989,2.75873 -7.5559,4.08815 -4.4808,0.89483 -7.25,1.93793 -7.25,2.73095 0,0.70571 -1.0924,1.55729 -2.4276,1.8924 -1.3352,0.33512 -2.6783,1.26251 -2.9847,2.06088 -0.3063,0.79837 -2.0264,2.09014 -3.8223,2.87061 -1.796,0.78047 -2.7029,1.43665 -2.0154,1.45817 0.6875,0.0215 1.25,0.71415 1.25,1.53915 0,0.93333 0.9445,1.5 2.5,1.5 2.0083,0 2.5,0.4979 2.5,2.53138 0,1.39226 -0.6344,2.77482 -1.4097,3.07236 -0.7754,0.29753 -1.684,1.63341 -2.0191,2.96861 -0.3885,1.54814 -1.327,2.42765 -2.5902,2.42765 -1.0942,0 -1.981,0.67147 -1.981,1.5 0,1 1,1.5 3,1.5 2.6555,0 3,0.33885 3,2.95031 0,1.62267 -0.6248,3.31017 -1.3885,3.75 -0.7637,0.43982 -1.555,1.69969 -1.7586,2.79969 -0.2438,1.3179 -1.3049,2.10791 -3.1114,2.31642 -1.9343,0.22326 -2.7415,0.88572 -2.7415,2.25 0,1.54313 -0.7067,1.93358 -3.5,1.93358 -3.1592,0 -3.4969,0.26775 -3.4682,2.75 0.017,1.5125 0.6925,3.6235 1.5,4.69113 1.5102,1.99658 2.0682,9.55887 0.7054,9.55887 -0.4196,0 -1.2071,1.00144 -1.75,2.22543 -2.3403,5.27595 -10.3605,8.44942 -24.77,9.8011 -9.4594,0.88733 -8.5403,0.40987 -20.6039,10.70331 -1.4373,1.22641 -4.198,2.67858 -6.1349,3.22704 -5.6107,1.58879 -18.439,17.37656 -21.9738,27.04312 -2.6682,7.2969 -2.8401,7.50836 -6.3465,7.80875 -10.9818,0.94081 -23.0694,-11.02735 -32.1825,-31.86462 -4.90748,-11.22098 -5.1938,-12.98091 -2.97557,-18.28989 1.91659,-4.58704 2.00144,-4.30396 -1.5,-5.00424 -2.65849,-0.5317 -3,-1.00485 -3,-4.15639 0,-2.23874 0.55575,-3.76965 1.5,-4.13199 0.825,-0.31658 1.5,-1.39895 1.5,-2.40525 0,-1.33328 -0.88171,-1.91467 -3.25,-2.14302 -2.99815,-0.28907 -3.63746,-1.04973 -8.25,-9.81586 -9.30756,-17.68903 -11.63869,-19.48326 -21.4527,-16.51182 -4.13815,1.25294 -7.26806,1.57248 -10.69838,1.09223 -10.55967,-1.47836 -11.34892,-1.73493 -11.34892,-3.6892 0,-1.25019 -0.70779,-1.8887 -2.09362,-1.8887 -1.20732,0 -2.30153,-0.79507 -2.58475,-1.87811 -0.27013,-1.03295 -1.578,-2.3733 -2.90638,-2.97856 -1.74549,-0.79529 -2.41525,-1.90467 -2.41525,-4.00058 0,-3.25479 1.87401,-4.34832 10.5,-6.127 9.68874,-1.99781 9.982,-2.09983 8.56093,-2.97809 -0.80344,-0.49656 -1.1364,-1.86255 -0.83645,-3.43161 0.49617,-2.59556 0.45727,-2.58562 -9.11309,2.32883 -5.28626,2.71453 -10.39889,5.17555 -11.36139,5.46893 -0.9625,0.29338 -1.75,1.44754 -1.75,2.5648 0,1.36472 -0.65637,2.03139 -2,2.03139 -1.1,0 -2,0.66138 -2,1.46974 0,0.88171 -1.90043,2.05411 -4.75,2.93034 -2.6125,0.80334 -4.1875,1.49196 -3.5,1.53026 0.6875,0.0383 1.25,1.19466 1.25,2.56966 0,2 -0.5,2.5 -2.5,2.5 -1.58102,0 -2.5,0.56432 -2.5,1.53518 0,0.84435 -0.68494,2.58053 -1.52209,3.85819 -1.34781,2.05701 -2.57872,2.39813 -10.75,2.97916 -5.07535,0.36089 -13.39041,1.19638 -18.47791,1.85663 -8.9757,1.16486 -9.25,1.27723 -9.25,3.78948 0,3.06046 -5.61808,8.97369 -8.54761,8.99667 -4.67028,0.0366 -4.67668,1.61729 -0.0231,5.7135 3.55832,3.13215 4.57075,4.70221 4.57075,7.08824 0,3.53062 1.46542,4.8715 3.48876,3.19227 2.52272,-2.09367 5.89259,-0.73164 8.01124,3.23797 1.1,2.06102 2.225,3.73438 2.5,3.71858 0.275,-0.0158 1.28522,-1.10871 2.24494,-2.4287 2.71599,-3.73555 1.36649,-5.26984 -5.31748,-6.04559 l -5.9275,-0.68796 0,-3.66126 c 0,-2.57826 -0.5916,-4.03073 -2,-4.91029 -2.60697,-1.62808 -2.60522,-6.19294 0.004,-9.50959 4.17449,-5.307 18.47898,-9.98666 20.50518,-6.70819 0.70359,1.13842 7.90682,4.98571 9.3347,4.98571 0.50776,0 1.15856,-0.9 1.44622,-2 0.44864,-1.71561 1.35396,-1.99688 6.36663,-1.97804 7.91169,0.0297 14.34362,2.91267 14.34362,6.42914 0,2.40433 -0.29777,2.55062 -5.25,2.5793 -6.29696,0.0365 -5.38228,0.7528 5.80967,4.54979 5.73258,1.94483 10.23614,2.74444 16.19738,2.87582 7.06099,0.15563 8.55137,0.49791 10.28895,2.36299 1.1172,1.19955 2.46403,2.181 2.99261,2.181 0.52857,0 0.96104,0.9 0.96104,2 0,1.1 0.45,2 1,2 0.55,0 1,1.09861 1,2.44135 0,1.96347 1.18138,3.07103 6.03522,5.6581 9.52212,5.07524 13.88576,11.31804 11.04616,15.80311 -0.67655,1.0686 -2.29984,1.255 -6.81737,0.78282 -3.26116,-0.34086 -6.79217,-0.9379 -7.84669,-1.32676 -1.07292,-0.39565 -0.0456,1.13084 2.33268,3.46606 4.69559,4.61062 4.92756,5.76749 3.1217,15.56826 l -1.12831,6.12353 6.73405,13.49176 c 7.31571,14.65715 10.8102,19.99177 13.09579,19.99177 2.15071,0 10.00364,7.56425 11.4314,11.01118 0.67455,1.62852 1.0274,4.31721 0.78411,5.97488 -0.2433,1.65767 -0.0703,3.01394 0.38445,3.01394 1.08375,0 1.0374,4.11928 -0.0659,5.8607 -1.54433,2.43743 -0.18877,4.87753 2.43138,4.37665 4.33186,-0.82808 6.5134,3.22041 8.1604,15.14421 l 0.5361,3.88158 -8.36756,-0.60853 c -4.60217,-0.33469 -10.95508,-0.89963 -14.11758,-1.25541 -5.63691,-0.63415 -5.74993,-0.70835 -5.74626,-3.77304 0.002,-1.71939 0.82491,-4.47617 1.82857,-6.12617 1.00365,-1.65 2.11645,-4.46614 2.47287,-6.25808 l 0.64805,-3.25807 -4.22661,0.57106 c -2.32464,0.31407 -5.30382,0.79251 -6.6204,1.0632 l -2.39379,0.49217 2.14379,1.50156 c 1.19702,0.83846 2.14375,2.58056 2.14375,3.94486 0,2.17775 -0.42832,2.4433 -3.94098,2.4433 -2.16754,0 -4.2191,-0.45 -4.55902,-1 -1.0434,-1.68825 -2.5,-1.11055 -2.5,0.99153 0,1.09534 -0.85703,2.52675 -1.90451,3.18091 -1.70999,1.06791 -1.75749,1.41377 -0.46508,3.38625 0.89765,1.36999 2.90514,2.43124 5.33356,2.81956 2.14176,0.34248 4.51533,1.24391 5.2746,2.00318 0.76477,0.76477 3.13797,1.32207 5.32096,1.24952 3.51352,-0.11676 3.96623,0.13992 4.17823,2.36905 0.20138,2.11749 -1.29545,3.60927 -9.78306,9.75 -13.33805,9.65 -18.43333,9.89948 -14.94782,0.7319 0.89857,-2.36341 0.42151,-2.14821 -4.43449,2.0004 -15.02546,12.83666 -26.3766,31.51844 -30.66333,50.46595 -0.80247,3.54691 -2.18343,5.51342 -6.81518,9.70492 -3.72675,3.37251 -6.56685,7.01878 -7.92371,10.17289 -2.05622,4.77982 -2.07142,5.16261 -0.54793,13.79509 0.86184,4.88337 1.6369,12.70385 1.72237,17.37885 0.1484,8.11752 0.0538,8.51443 -2.10342,8.82071 -1.70307,0.2418 -4.97045,-2.20549 -13.28045,-9.94713 -16.14585,-15.04156 -24.80422,-20.80179 -31.34266,-20.85162 -3.82926,-0.0292 -8.9493,5.42041 -10.99851,11.70641 -3.50981,10.76643 -3.76099,16.90786 -1.30714,31.96034 3.71846,22.80994 5.11365,23.4758 23.39241,11.16412 5.25028,-3.53633 8.16659,-4.85283 10.75,-4.85283 3.46548,0 3.54516,0.0893 3.54516,3.97397 0,2.18568 -1.29482,7.24818 -2.87738,11.25 -1.58256,4.00182 -3.19331,8.73853 -3.57945,10.52603 l -0.70208,3.25 6.62491,0 c 5.70052,0 6.9674,0.34249 9.07945,2.45455 2.21122,2.21121 2.4547,3.2769 2.4561,10.75 0.002,10.17901 1.78311,14.2711 7.49845,17.22682 3.63101,1.87781 5.24532,2.02343 17.5,1.57862 19.42697,-0.70514 40.97712,-0.59442 44.75,0.22992 2.83596,0.61963 3.25,0.45041 3.25,-1.32827 0,-1.6973 0.54379,-1.98593 3.25,-1.725 2.62366,0.25297 3.30655,0.79738 3.54341,2.8249 0.2307,1.9747 1.72695,3.25419 7,5.98592 13.09375,6.78329 23.53986,20.52915 29.25986,38.50254 6.2201,19.54472 13.389,26.3193 36.4467,34.44191 16.9905,5.98528 20.5,9.54238 20.5,20.77772 0,7.65325 -1.954,14.23429 -8.2484,27.78037 -12.9502,27.86997 -28.091,54.06014 -56.9918,98.5831 -10.14527,15.6293 -21.29722,33.1419 -24.78205,38.9169 -6.07204,10.0625 -18.97772,34.0539 -18.97772,35.2793 0,0.3233 1.2375,0.7303 2.75,0.9043 2.3875,0.2747 2.79091,0.8107 3.06037,4.0664 0.29726,3.5917 0.17981,3.75 -2.78139,3.75 -1.95115,0 -3.32543,-0.609 -3.72517,-1.6507 -0.39651,-1.0332 -1.72249,2.005 -3.54526,8.1234 l -2.91185,9.7739 3.07665,3.1743 c 1.69216,1.7459 3.07665,3.9783 3.07665,4.9609 0,0.9825 -2.7,7.5608 -6,14.6182 -3.3,7.0574 -6,13.1469 -6,13.5322 0,0.3853 2.475,3.3738 5.5,6.6411 4.07506,4.4016 5.5,6.7032 5.5,8.8837 l 0,2.943 -6.25,-0.023 c -3.51534,-0.013 -7.59106,-0.6846 -9.31497,-1.5353 z M 435.42279,418.46582 c -0.005,-0.96425 -3.82594,-7.25 -4.4073,-7.25 -0.24224,0 0.31365,1.79542 1.2353,3.98983 1.49362,3.55622 3.18213,5.29166 3.172,3.26017 z M 605.3432,304.57514 c 0.22916,-0.19762 0.15645,-0.61954 -0.1616,-0.93758 -0.31804,-0.31804 -1.85554,0.13339 -3.41666,1.00319 l -2.83841,1.58144 3,-0.64386 c 1.65,-0.35412 3.1875,-0.80556 3.41667,-1.00319 z m -51.48024,-16.35932 c 1.89336,0 2.56554,-0.90892 3.88254,-5.25 0.87601,-2.8875 2.12234,-8.0685 2.76962,-11.51333 l 1.17687,-6.26333 -3.63273,-5.47129 c -3.46422,-5.21749 -3.63273,-5.86628 -3.63273,-13.98667 0,-8.41641 -0.0291,-8.51538 -2.5,-8.51538 -2.24329,0 -2.5,-0.40422 -2.5,-3.93664 0,-3.7104 0.18678,-3.95465 3.25,-4.25 2.81462,-0.27138 3.29023,-0.72525 3.55028,-3.388 0.22116,-2.26452 1.01161,-3.3563 3,-4.14362 l 2.69972,-1.06898 -2.75,-0.10638 c -2.21605,-0.0857 -2.75,-0.57801 -2.75,-2.53542 0,-2.07859 0.77966,-2.6557 5.40391,-4 2.97215,-0.86403 5.89715,-1.57096 6.5,-1.57096 0.60285,0 1.09609,-1.085 1.09609,-2.41111 0,-1.48802 1.24425,-3.4666 3.25,-5.16807 3.38766,-2.87375 2.58968,-2.93433 -3.96407,-0.30093 -4.22987,1.69963 -8.65493,0.25678 -9.11629,-2.97248 -0.35262,-2.46821 2.29652,-6.14741 4.42633,-6.14741 0.7073,0 1.50599,-0.35595 1.77487,-0.79101 0.26888,-0.43506 -1.05874,-0.61034 -2.95025,-0.38951 -1.89152,0.22082 -3.68651,0.80178 -3.98888,1.29101 -0.30236,0.48923 -1.87319,0.88951 -3.49073,0.88951 -2.27431,0 -2.94098,-0.45336 -2.94098,-2 0,-1.11111 -0.66667,-2 -1.5,-2 -0.93333,0 -1.5,0.94444 -1.5,2.5 0,1.375 -0.46583,2.5 -1.03518,2.5 -0.71358,0 -0.71358,0.60093 0,1.93426 2.51392,4.69731 -0.25267,10.06574 -5.18733,10.06574 -4.95902,0 0.52226,7.26247 7.47694,9.90664 2.16573,0.82341 2.74557,1.68794 2.74557,4.09361 0,2.58861 -0.45362,3.14047 -3,3.64975 -1.83515,0.36703 -3.0122,1.23096 -3.03142,2.225 -0.0463,2.3938 -4.60287,5.30085 -7.74178,4.93918 -2.25711,-0.26006 -2.78023,-0.86661 -3.03696,-3.52133 -0.30203,-3.12306 -0.46447,-3.22461 -6.19545,-3.87299 -5.35055,-0.60535 -5.91295,-0.89706 -6.18984,-3.21061 -0.28619,-2.39138 -0.80432,-2.07397 -8.59629,5.26614 -9.85333,9.28195 -13.67495,15.12328 -12.72472,19.44967 1.45103,6.6065 11.64963,12.81038 31.31655,19.05008 5.66505,1.79734 10.95255,3.92036 11.75,4.71781 0.79745,0.79745 1.44991,3.16528 1.44991,5.26185 0,2.97093 0.44125,3.92733 2,4.33495 1.44125,0.37689 2,1.36401 2,3.5333 0,1.65565 -0.52967,3.18684 -1.17705,3.40263 -0.76321,0.25441 -0.85936,0.89899 -0.27346,1.83334 0.75338,1.20144 0.96124,1.15007 1.25037,-0.30902 0.2093,-1.05619 1.2546,-1.75 2.63657,-1.75 z m -3.43643,-21.48095 c 0,-2.84869 0.43972,-3.59131 2.42091,-4.08855 4.24926,-1.0665 6.05489,-0.16208 6.3827,3.19704 0.31932,3.27207 -1.26638,4.32672 -6.55361,4.35881 -1.90503,0.0116 -2.25,-0.52005 -2.25,-3.4673 z m -255,-17.14149 c 0,-1.3288 -0.2715,-1.39713 -1.5,-0.37756 -0.825,0.68469 -1.5,1.41479 -1.5,1.62244 0,0.20766 0.675,0.37756 1.5,0.37756 0.825,0 1.5,-0.7301 1.5,-1.62244 z m 298.5,-3.37756 c 0.33992,-0.55 0.14148,-1 -0.44098,-1 -0.58246,0 -1.05902,0.45 -1.05902,1 0,0.55 0.19844,1 0.44098,1 0.24254,0 0.7191,-0.45 1.05902,-1 z m 8.5,-9.18034 c 0,-0.45081 -0.90562,-0.81966 -2.0125,-0.81966 -1.10687,0 -8.75125,-3.375 -16.9875,-7.5 -8.23625,-4.125 -15.59323,-7.5 -16.34883,-7.5 -0.90595,0 -1.21959,0.80684 -0.92094,2.36915 0.32869,1.71941 1.50458,2.68423 4.28772,3.51808 2.10915,0.63192 6.13864,2.69929 8.95441,4.59417 2.81577,1.89487 6.70982,3.74355 8.65345,4.10818 1.94363,0.36463 3.77108,1.28114 4.06102,2.03669 0.28993,0.75555 1.604,1.37373 2.92016,1.37373 1.45574,0 2.39301,0.58491 2.39301,1.49339 0,1.14309 0.58641,0.98351 2.5,-0.68034 1.375,-1.19555 2.5,-2.54257 2.5,-2.99339 z m 145.72919,-53.42383 c -0.3323,-0.33229 -1.1948,-0.36781 -1.9167,-0.079 -0.7977,0.31923 -0.5608,0.55619 0.6042,0.60417 1.0541,0.0434 1.6448,-0.19293 1.3125,-0.52522 z M 496.42653,163.1568 c 0,-0.51754 -0.64286,-0.94098 -1.42857,-0.94098 -0.78572,0 -2.10702,-0.67845 -2.93624,-1.50767 -0.93697,-0.93696 -1.74386,-1.12552 -2.13161,-0.49813 -0.34316,0.55525 0.52815,1.44757 1.93625,1.98292 1.40809,0.53536 2.56017,1.46107 2.56017,2.05715 0,0.59607 0.45,0.80565 1,0.46573 0.55,-0.33992 1,-1.04148 1,-1.55902 z m -1,-10.33399 c 0,-0.21616 -0.675,-0.65203 -1.5,-0.96862 -0.825,-0.31658 -1.5,-0.13972 -1.5,0.39302 0,0.53273 0.675,0.96861 1.5,0.96861 0.825,0 1.5,-0.17685 1.5,-0.39301 z m -54,-4.34554 c 0.87171,-0.35312 -0.38486,-0.92369 -3,-1.36219 -2.475,-0.415 -5.7375,-1.06457 -7.25,-1.44348 -2.15003,-0.53863 -2.75,-0.33624 -2.75,0.92764 0,0.88912 -0.45,1.61658 -1,1.61658 -0.55,0 -1,0.35883 -1,0.79739 0,0.88083 12.61529,0.43009 15,-0.53594 z m 43.26105,-1.6108 c 4.34477,-0.11361 5.63542,-0.47806 5.25,-1.48244 -0.28108,-0.73248 -0.51105,-1.6925 -0.51105,-2.13337 0,-0.44087 -0.9,-1.03693 -2,-1.32459 -1.29986,-0.33992 -2,-0.0307 -2,0.88337 0,0.77351 -0.7875,1.41029 -1.75,1.41507 -0.9625,0.005 -4.1125,0.29246 -7,0.63929 -4.45472,0.53508 -5.25,0.38228 -5.25,-1.00869 0,-1.05624 -0.83986,-1.63929 -2.36133,-1.63929 -1.96518,0 -2.28294,0.41007 -1.89406,2.44433 0.52934,2.7691 2.97742,3.61703 8.25539,2.85939 1.925,-0.27633 6.09247,-0.57021 9.26105,-0.65307 z m 25.73895,-2.65065 c 0,-1.11111 -0.66667,-2 -1.5,-2 -0.83333,0 -1.5,0.88889 -1.5,2 0,1.11111 0.66667,2 1.5,2 0.83333,0 1.5,-0.88889 1.5,-2 z m 11,0 c 0,-0.55 -0.45,-1 -1,-1 -0.55,0 -1,0.45 -1,1 0,0.55 0.45,1 1,1 0.55,0 1,-0.45 1,-1 z m -21.75,-8.66228 c -0.6875,-0.27741 -1.8125,-0.27741 -2.5,0 -0.6875,0.27741 -0.125,0.50439 1.25,0.50439 1.375,0 1.9375,-0.22698 1.25,-0.50439 z m 121,754.93887 c -2.8373,-0.3521 -3.25,-0.7762 -3.25,-3.34 0,-1.6151 0.45,-2.9366 1,-2.9366 0.55,0 1,-0.675 1,-1.5 0,-1.6361 2.91007,-1.9061 9.25,-0.8581 3.2975,0.545 3.75,0.9592 3.75,3.4322 0,1.7727 -0.82166,3.388 -2.22251,4.3692 -2.19606,1.5382 -3.16479,1.6229 -9.52749,0.8333 z m 807.39177,-33.0266 c -1.5132,-9.155 -0.2509,-12.1176 12.5692,-29.5 4.1285,-5.5978 5.4662,-6.75 7.8365,-6.75 2.8331,0 2.8532,-0.043 2.2799,-4.8833 -0.4404,-3.7187 -0.1387,-5.6275 1.265,-8.0037 1.6319,-2.7628 1.6882,-3.4926 0.4905,-6.3667 -0.744,-1.7855 -1.5643,-4.9338 -1.8228,-6.9963 -0.4408,-3.5159 -0.3032,-3.75 2.2049,-3.75 1.6674,0 5.6623,2.1605 10.6051,5.7353 7.7312,5.5916 7.9299,5.8402 7.9299,9.9233 0,3.0082 -0.7043,5.0249 -2.5,7.159 -1.375,1.6341 -2.5042,3.5812 -2.5094,4.3268 -0.01,0.7456 -1.3642,3.7181 -3.0202,6.6056 -2.5722,4.4851 -3.445,5.25 -5.9906,5.25 -2.6907,0 -2.9819,0.3154 -3.0018,3.25 -0.048,7.06 -6.645,16.7124 -14.6152,21.3832 -2.7288,1.5993 -4.3628,3.2703 -4.3628,4.4618 0,1.4964 -0.7227,1.905 -3.3692,1.905 -3.1163,0 -3.4156,-0.2813 -3.989,-3.75 z m -74.8823,-18.5 c -3.6377,-5.5662 -5.7595,-10.9853 -5.7595,-14.7102 0,-2.9243 -0.4142,-4.0398 -1.5,-4.0398 -1.0072,0 -1.5,-1.0074 -1.5,-3.0664 0,-2.7552 0.2791,-3.0343 2.75,-2.75 2.1199,0.2439 2.8195,0.9153 3.0533,2.9302 0.3345,2.8829 4.2731,5.3141 7.1367,4.4053 1.2564,-0.3988 1.5938,-1.3356 1.2716,-3.531 -0.3464,-2.3602 -0.9401,-2.9881 -2.8251,-2.9881 -1.7198,0 -2.3865,-0.5587 -2.3865,-2 0,-1.8152 -0.6699,-2.0009 -7.25,-2.0098 -9.8852,-0.013 -16.6879,-3.1271 -20.5138,-9.3899 -1.5051,-2.4637 -3.6361,-4.6187 -4.7362,-4.7896 -1.3394,-0.2081 -2.1045,-1.219 -2.3164,-3.0607 -0.2549,-2.2149 0.086,-2.75 1.75,-2.75 1.8708,0 2.0664,-0.5989 2.0664,-6.3257 0,-7.9616 -1.993,-10.1835 -10.564,-11.7772 -10.9792,-2.0416 -17.1869,-0.193 -32.399,9.6476 -11.2444,7.2739 -16.6685,9.4344 -23.7144,9.4455 -5.49,0.01 -6.4083,-0.2837 -8.2521,-2.6277 -3.8647,-4.9132 -7.553,-21.6191 -8.7265,-39.52623 -0.3546,-5.40994 -1.027,-9.83626 -1.4943,-9.83626 -0.4673,0 -0.8497,-1.35 -0.8497,-3 0,-1.65 0.4078,-3 0.9063,-3 0.4985,0 1.061,-4.55214 1.25,-10.11587 l 0.3437,-10.11587 4.4846,-3.97817 c 4.1461,-3.67793 8.921,-6.67292 30.5154,-19.14025 4.4,-2.5403 10.1418,-6.32783 12.7596,-8.41674 5.5425,-4.42281 12.9222,-13.92241 15.0771,-19.40825 l 1.5024,-3.82485 -3.4509,0 c -3.8396,0 -4.9666,-1.55922 -3.977,-5.50224 0.5519,-2.1988 1.1632,-2.49776 5.1079,-2.49776 3.1353,0 4.4809,0.4129 4.4809,1.375 0,1.39428 4.1354,2.625 8.8203,2.625 4.6481,0 7.9844,4.5503 11.3476,15.47667 3.3536,10.89547 5.5837,15.52333 7.4803,15.52333 1.8211,0 2.1546,-2.11845 2.9122,-18.5 0.8204,-17.73968 1.2981,-19.5 5.2914,-19.5 2.8552,0 2.9441,0.17096 5.5887,10.75 1.7752,7.10135 3.4703,11.59852 4.9941,13.25 1.4101,1.52827 2.5413,4.32752 2.9103,7.20173 1.0251,7.98512 4.1912,15.28245 11.5017,26.50926 7.3992,11.36319 10.5084,19.13827 13.7327,34.34159 2.2509,10.61308 2.542,32.98501 0.5329,40.94741 -3.0613,12.1321 -10.278,22.4002 -18.6554,26.5432 -3.3611,1.6622 -3.9092,2.3708 -3.6404,4.7068 0.2613,2.2711 0.8049,2.75 3.121,2.75 l 2.8046,0 0.6861,8.7696 c 0.774,9.8944 0.3481,11.8039 -3.333,14.9444 -3.3469,2.8555 -6.484,2.869 -8.3356,0.036 z m 94.2405,-51.25 c 0,-2 0.5,-2.5 2.5,-2.5 2,0 2.5,0.5 2.5,2.5 0,2 -0.5,2.5 -2.5,2.5 -2,0 -2.5,-0.5 -2.5,-2.5 z m -542.10208,-0.7766 c -13.2592,-8.8838 -19.1434,-34.9622 -25.8857,-114.72339 -3.4756,-41.11651 -5.3169,-57.98482 -8.0778,-74 -2.2276,-12.92136 -5.789,-26 -7.0801,-26 -0.4698,0 -0.8543,-0.92235 -0.8543,-2.04966 0,-4.64458 -5.924,-12.78395 -11.3762,-15.63054 -2.7703,-1.4464 -3.2494,-1.3129 -13.0211,3.62827 -8.3802,4.23756 -11.368,5.23246 -17.1761,5.71938 -10.8678,0.91112 -17.2083,-1.33133 -25.0469,-8.85834 -11.1144,-10.67264 -20.4508,-26.05128 -24.5935,-40.50993 -3.2261,-11.25978 -3.2057,-32.21225 0.043,-44.23235 5.633,-20.84084 17.5975,-39.54379 37.7977,-59.08532 25.7721,-24.93179 59.3947,-43.68496 65.384,-36.46828 0.8686,1.04657 1.097,3.73338 0.7407,8.7126 -0.6158,8.60757 0.4032,11.30348 5.1954,13.74407 7.3873,3.7623 14.0879,5.0301 26.585,5.0301 10.7719,0 13.3406,0.35773 22.3715,3.11561 10.08,3.07823 10.2554,3.09537 14.621,1.42816 4.6999,-1.79492 8.392,-5.49986 11.4456,-11.48528 l 1.8745,-3.67444 -4.6723,0.058 c -4.4257,0.0549 -4.6898,-0.0947 -5.0025,-2.83351 -0.1815,-1.59032 0.2154,-3.22862 0.8821,-3.64065 0.7279,-0.44986 -1.1048,-1.4227 -4.5873,-2.4351 -5.2628,-1.52993 -5.8811,-1.54005 -6.6818,-0.10935 -0.4852,0.86709 -1.9849,1.57656 -3.3326,1.57656 -1.8246,0 -2.4503,-0.53768 -2.4503,-2.10564 0,-1.15811 -1.1071,-3.42135 -2.4602,-5.02944 -1.3531,-1.60809 -2.7608,-4.59805 -3.1282,-6.64436 -0.9951,-5.54191 -1.742,-6.52244 -3.1955,-4.19497 -1.0231,1.63823 -0.9762,1.97441 0.2754,1.97441 0.9424,0 1.5085,0.9382 1.5085,2.5 0,2 -0.5,2.5 -2.5,2.5 -1.375,0 -2.5,-0.49 -2.5,-1.08889 0,-0.5989 -1.3845,0.0761 -3.0767,1.5 -2.2415,1.88605 -4.2172,2.58889 -7.2775,2.58889 -4.7911,0 -7.9993,-1.88866 -10.671,-6.28181 l -1.8538,-3.04839 -0.6689,2.6651 c -0.3679,1.46581 -1.3064,2.6651 -2.0855,2.6651 -0.7791,0 -1.6866,1.35 -2.0166,3 -0.523,2.615 -1.0288,3 -3.9411,3 -1.8376,0 -4.9313,-0.75835 -6.875,-1.68521 -2.9697,-1.41617 -3.5339,-2.20171 -3.5339,-4.92041 l 0,-3.23519 6.6165,-0.70857 6.6165,-0.70857 -0.6847,-7.12102 c -0.3766,-3.91657 -1.2165,-7.84986 -1.8665,-8.74066 -0.65,-0.8908 -3.0952,-3.9698 -5.4337,-6.84224 -2.3386,-2.87243 -4.6405,-5.91684 -5.1153,-6.76535 -0.754,-1.34731 -1.5772,-1.21596 -6.4981,1.03692 -3.0991,1.41881 -5.6347,2.75161 -5.6347,2.96178 0,0.21018 1.2803,0.19423 2.8451,-0.0354 l 2.845,-0.41757 0.5903,8.3637 c 0.836,11.84703 0.047,16.69762 -2.8349,17.42086 -5.109,1.28227 -5.9238,0.37481 -6.2432,-6.95339 -0.1638,-3.75632 0.079,-7.35167 0.5396,-7.98966 0.4605,-0.638 0.5945,-2.88102 0.2977,-4.98451 l -0.5396,-3.82454 -7.5,7.02714 c -6.1882,5.79807 -7.1065,7.03544 -5.25,7.07452 1.7207,0.0362 2.25,0.63548 2.25,2.54737 0,1.47022 -0.5738,2.5 -1.393,2.5 -0.7662,0 -1.6707,0.7237 -2.0101,1.60822 -0.4454,1.16053 -1.5579,1.4984 -3.9966,1.2137 -3.0271,-0.3534 -3.677,0.042 -6.2346,3.79282 -3.2921,4.82817 -19.818,15.38526 -24.0838,15.38526 -3.6496,0 -9.5781,-6.56409 -12.3689,-13.69491 -1.8246,-4.66212 -2.2859,-7.87245 -2.3425,-16.30509 -0.086,-12.8329 1.0748,-15.76039 7.1258,-17.96862 2.308,-0.84226 5.1425,-2.75526 6.2988,-4.25112 2.1067,-2.72521 18.9221,-31.12076 18.6309,-31.46131 -0.085,-0.0996 -3.2886,0.68792 -7.1187,1.75 -9.8544,2.73252 -11.5073,2.60123 -11.5073,-0.91396 0,-1.56476 0.8634,-3.62637 1.9186,-4.58136 1.7943,-1.62381 1.8105,-1.85012 0.25,-3.49174 -1.5907,-1.67345 -1.8921,-1.66965 -6.4556,0.0814 -5.6515,2.16844 -11.5578,2.40478 -12.2919,0.49185 -0.2838,-0.73969 -0.1572,-5.33874 0.2814,-10.22011 l 0.7975,-8.87522 3.5111,-1.02988 c 1.9311,-0.56644 4.6188,-1.81739 5.9725,-2.77989 1.3538,-0.9625 3.5205,-1.75 4.815,-1.75 l 2.3535,0 -2.326,-2.94467 c -1.2794,-1.61957 -3.1721,-2.96957 -4.2061,-3 -1.643,-0.0483 -1.8134,-0.64677 -1.3516,-4.74452 0.6258,-5.55188 2.1376,-6.9039 8.734,-7.81114 2.8734,-0.3952 5.0796,-1.27088 5.417,-2.15017 0.3597,-0.93728 1.5838,-1.36674 3.3249,-1.16647 2.6925,0.30969 2.7557,0.46616 2.7557,6.81697 0,6.21929 0.3252,7.0878 7.529,20.11055 l 7.529,13.61056 3.789,-3.2753 c 2.7798,-2.40294 5.7378,-3.70888 11.1061,-4.9032 l 7.317,-1.62789 -0.8612,-3.70736 c -0.4736,-2.03905 -0.8719,-6.30898 -0.885,-9.48874 -0.019,-4.62039 -0.3753,-5.88998 -1.7739,-6.32216 -3.6506,-1.12806 -4.7209,-2.20378 -7.9274,-7.96717 -2.7815,-4.99956 -3.3006,-6.95156 -3.3107,-12.44875 l -0.012,-6.51949 12.7463,-10.91526 c 14.2089,-12.16774 27.8255,-22.46437 36.5213,-27.61676 3.1722,-1.87954 5.3097,-3.56999 4.75,-3.75655 -0.5597,-0.18655 -1.0176,-1.65169 -1.0176,-3.25585 0,-2.47252 0.395,-2.91667 2.5936,-2.91667 1.7527,0 2.7633,0.64852 3.1167,2 0.832,3.18168 3.2897,2.43459 3.2897,-1 0,-2.83333 0.2222,-3 4,-3 2.8021,0 4,0.4283 4,1.43019 0,1.13749 0.6638,1.23982 3.2434,0.5 6.9087,-1.98139 23.5795,-1.05699 38.7566,2.14908 17.0316,3.59781 36.3546,6.92016 40.24998,6.92049 1.684,1.5e-4 2.75,-0.53973 2.75,-1.39277 0,-1.5996 2.1253,-2.60699 5.5,-2.60699 3.6486,0 5.5,1.04589 5.5,3.10699 0,1.72851 0.8473,1.89226 9.75,1.88432 5.3625,-0.005 12.0955,-0.29045 14.9623,-0.63482 5.0458,-0.60613 5.1656,-0.69282 3.75,-2.71382 -0.8043,-1.14822 -1.4623,-3.11255 -1.4623,-4.36518 0,-3.18854 3.9958,-3.00968 16.4158,0.7348 5.4537,1.64422 9.9958,2.87659 10.0936,2.7386 0.098,-0.13799 0.9475,-2.65978 1.8882,-5.60398 2.0688,-6.47437 6.1389,-12.86502 8.7142,-13.68238 1.0385,-0.32962 1.8882,-1.46898 1.8882,-2.53192 0,-1.62064 0.7184,-1.93261 4.4503,-1.93261 2.6562,0 4.7727,0.54043 5.25,1.34053 0.9475,1.58817 5.2997,2.8741 5.2997,1.56585 0,-0.49851 1.35,-0.90638 3,-0.90638 1.8788,0 3,0.51389 3,1.375 0,1.29156 4.0681,2.625 8.0084,2.625 0.9671,0 1.9937,-0.9 2.2814,-2 0.3198,-1.22311 1.364,-2 2.688,-2 1.1908,0 2.8401,-0.675 3.6651,-1.5 0.825,-0.825 2.3446,-1.5 3.3769,-1.5 4.0558,0 17.9802,-5.09177 17.9802,-6.57483 0,-1.0587 0.9433,-1.4243 3.2705,-1.26757 1.9358,0.13037 8.9753,-1.88513 17.25,-4.93887 7.6887,-2.83751 16.567,-5.87946 19.7295,-6.75988 4.1526,-1.15604 5.75,-2.0789 5.75,-3.32178 0,-1.35423 -1.7582,-2.07627 -8.25,-3.388 -9.3262,-1.88446 -16.1897,-3.59173 -19.5,-4.85056 -2.7724,-1.05432 -3.1322,-5.52132 -0.5,-6.20918 0.9625,-0.25153 0.2875,-0.50953 -1.5,-0.57333 -2.769,-0.0988 -3.25,-0.48595 -3.25,-2.616 0,-2.25 0.4,-2.5 4,-2.5 2.9158,0 4,0.41283 4,1.52305 0,1.34639 0.281,1.33894 2.4226,-0.0643 6.0563,-3.96828 20.5774,-2.27304 20.5774,2.40229 0,1.51101 0.9212,2.11876 4,2.63892 2.8206,0.47653 4,1.17367 4,2.36432 0,1.36274 0.7607,1.61599 3.9423,1.31257 4.3323,-0.41314 13.9951,2.36075 14.5511,4.17716 0.1929,0.63027 0.6342,2.84938 0.9806,4.93134 0.5303,3.18682 1.0961,3.87862 3.578,4.375 1.6214,0.32429 2.948,1.16589 2.948,1.87023 0,0.99039 2.2197,1.1583 9.7945,0.74091 8.3669,-0.46105 10.043,-0.29113 11.5,1.16581 2.4501,2.45012 2.1823,7.11529 -0.517,9.00596 -1.2224,0.85618 -1.6724,1.5567 -1,1.5567 0.6775,0 1.2225,1.27121 1.2225,2.8517 l 0,2.8517 15.25,0.66745 c 8.3875,0.3671 20.9875,0.95113 28,1.29785 l 12.75,0.6304 0,3.27902 c 0,5.65067 2.1682,6.7891 11.4533,6.01373 11.4177,-0.95344 30.7147,-5.20057 27.7967,-6.11783 -1.2375,-0.38901 -2.25,-1.3298 -2.25,-2.09065 0,-0.76085 -0.45,-1.38337 -1,-1.38337 -0.55,0 -1,-1.35 -1,-3 0,-2.80824 -0.2435,-3 -3.8089,-3 -2.0948,0 -4.6823,-0.66069 -5.75,-1.4682 -1.0676,-0.8075 -2.9536,-1.4825 -4.1911,-1.5 -1.8263,-0.0258 -2.25,-0.59678 -2.25,-3.0318 0,-2.65329 0.3399,-3 2.941,-3 1.6175,0 3.1766,-0.38131 3.4647,-0.84737 0.288,-0.46605 5.0004,-1.14074 10.4721,-1.49932 8.349,-0.54714 10.9671,-0.33484 16.2853,1.32055 3.4853,1.08488 10.4994,2.53124 15.5869,3.21414 9.0551,1.21546 9.25,1.29807 9.25,3.91982 0,1.51968 -0.6842,2.94077 -1.5818,3.28519 -2.6231,1.00659 -12.6921,0.53666 -16.2732,-0.75949 -2.4331,-0.88064 -5.1124,-0.95171 -9.75,-0.25862 -6.0154,0.89899 -8.8621,2.6251 -4.3293,2.6251 3.4445,0 5.9343,1.90279 5.9343,4.53518 0,2.11411 0.4624,2.46482 3.2497,2.46482 1.7873,0 15.5545,4.1015 30.5937,9.11445 l 27.3439,9.11445 18.6564,-2.24734 c 21.0038,-2.53011 36.6987,-2.34882 43.8344,0.50633 3.7158,1.48676 4.1841,2.06526 4.7204,5.8313 1.447,10.16089 1.7868,20.97316 0.784,24.94452 -0.5883,2.32996 -1.3162,5.42443 -1.6176,6.8766 -0.6619,3.18964 -7.6914,7.97877 -15.8119,10.77264 -3.0721,1.05695 -10.3514,2.40136 -16.1762,2.9876 -15.2003,1.52982 -20.862,4.74168 -21.0039,11.91534 -0.064,3.21353 -0.4094,3.7231 -2.7071,3.98936 -2.3912,0.27709 -3.0231,1.38451 -6.847,12 -6.0963,16.92357 -14.8873,32.19475 -18.5333,32.19475 -0.7405,0 -1.4902,1.0125 -1.6659,2.25 -0.245,1.7245 -1.0787,2.32319 -3.5696,2.56336 -2.9029,0.27989 -3.25,0.0396 -3.25,-2.25 0,-1.40985 0.9146,-3.47793 2.0324,-4.59575 1.9738,-1.97381 1.9882,-2.26519 0.5,-10.11046 -1.7848,-9.40887 -1.963,-18.76637 -0.4603,-24.17793 1.3916,-5.01144 6.7582,-10.83475 14.241,-15.45307 4.5062,-2.78113 5.5491,-3.81562 4.1121,-4.07892 -1.0588,-0.19402 -3.2079,-1.64815 -4.7757,-3.23141 -3.4208,-3.45459 -4.6853,-3.01881 -9.9761,3.43788 -2.0092,2.45191 -5.7338,5.46529 -8.2769,6.69639 -4.1925,2.02955 -5.5988,2.18316 -15.0745,1.64656 -8.6733,-0.49116 -11.5151,-0.26308 -16.7085,1.34101 -6.8002,2.10036 -15.5215,7.43105 -22.6135,13.82193 -4.0457,3.64573 -4.2651,4.05944 -2.1734,4.09777 2.0485,0.0375 2.2902,0.46593 2.0216,3.58289 -0.2803,3.25356 0.049,3.7414 4.068,6.02414 4.115,2.33739 4.4824,2.38486 6.2284,0.80477 1.0205,-0.92353 1.8554,-2.28439 1.8554,-3.02415 0,-0.75046 1.0535,-1.34501 2.3834,-1.34501 2.6848,0 3.5707,2.08003 3.6201,8.5 0.017,2.2 0.9154,7.375 1.9965,11.5 2.6021,9.92808 2.6021,13 0,13 -1.8042,0 -2,0.66667 -2,6.80887 0,4.3457 -0.519,7.51109 -1.4346,8.75 -1.2995,1.75829 -1.1397,2.24726 1.6962,5.19113 3.0689,3.18579 5.7384,4.23249 5.7384,2.25 0,-0.55 0.6545,-1 1.4545,-1 0.8,0 2.5796,-1.125 3.9546,-2.5 1.375,-1.375 3.3122,-2.5 4.3049,-2.5 0.9927,0 2.367,-0.9 3.0539,-2 1.6976,-2.71832 6.2321,-2.71832 6.2321,0 0,1.1 0.3496,2 0.7768,2 1.0697,0 13.2395,-12.65329 16.5909,-17.25 1.5424,-2.11553 3.5836,-3.75 4.6832,-3.75 1.2659,0 1.9491,-0.68364 1.9491,-1.95031 0,-1.07267 0.6186,-2.31017 1.3747,-2.75 2.2515,-1.30967 11.0365,-13.46743 13.0784,-18.0993 1.6078,-3.64722 2.2862,-4.25415 4.4711,-4 4.4565,0.51837 3.957,5.09639 -1.4513,13.29961 -2.5382,3.85 -5.708,7.99092 -7.0439,9.20203 -1.336,1.21112 -2.4413,2.78612 -2.4564,3.5 -0.04,1.90728 -25.3244,27.76458 -33.4726,34.23133 -7.9352,6.29772 -11.5003,7.17093 -11.4995,2.81664 4e-4,-2.06319 1.264,-3.83813 5.0597,-7.10693 2.7826,-2.39632 4.8344,-4.58184 4.5595,-4.85672 -0.2749,-0.27488 -1.9893,0.89616 -3.8097,2.60231 -1.8205,1.70615 -4.0975,3.10417 -5.06,3.10671 -0.9625,0.003 -1.75,0.45463 -1.75,1.00463 0,0.55 -0.675,1 -1.5,1 -0.9727,0 -1.5,0.97473 -1.5,2.7726 0,2.1398 -0.794,3.2002 -3.479,4.64616 -1.9135,1.03046 -3.7438,2.70779 -4.0674,3.7274 -0.6509,2.05078 -4.3953,2.51215 -6.1497,0.75775 -0.7239,-0.72395 -0.634,1.05852 0.2649,5.25 0.7485,3.49035 1.4123,9.04609 1.475,12.34609 0.063,3.3 0.3411,5.4375 0.6185,4.75 0.2774,-0.6875 1.8169,-1.25 3.421,-1.25 2.5353,0 2.9167,0.37014 2.9167,2.83052 0,1.55679 -1.1231,5.04429 -2.4958,7.75 -2.2365,4.40831 -2.4936,6.11442 -2.4743,16.41948 0.014,7.75522 0.656,14.26788 1.9701,20 2.0244,8.83026 2.4084,13.87337 1.3556,17.80381 -0.4724,1.76385 -1.2158,2.2326 -3.1719,2 -2.4698,-0.29369 -2.6293,-0.75336 -4.7909,-13.80381 -1.2298,-7.425 -2.556,-18.08668 -2.9471,-23.69263 -0.651,-9.33292 -0.5311,-10.4975 1.4217,-13.80716 2.9597,-5.01637 2.6868,-5.11945 -1.4451,-0.54586 -3.668,4.06005 -12.0952,8.04565 -17.0118,8.04565 -1.8949,0 -2.7723,0.73932 -3.5603,3 -0.5752,1.65 -1.6071,3 -2.293,3 -0.686,0 -2.0617,0.9 -3.0572,2 -0.9955,1.1 -2.4152,2 -3.155,2 -0.7397,0 -1.345,0.83931 -1.345,1.86514 0,1.02583 -0.9,3.00931 -2,4.40773 -1.1,1.39842 -2,3.70911 -2,5.13486 0,2.18558 -0.4488,2.59227 -2.8607,2.59227 -2.7043,0 -2.8952,-0.2871 -3.4913,-5.25 -1.0999,-9.15659 -0.7184,-13.97321 1.4637,-18.48079 2.52,-5.20561 5.9477,-8.07695 17.6188,-14.75917 7.2262,-4.13733 8.8241,-5.49307 9.08,-7.70385 0.2169,-1.87412 0.9692,-2.77688 2.4956,-2.99456 1.8258,-0.2604 2.3629,-1.309 3.2671,-6.37817 0.5951,-3.33659 1.4111,-6.59909 1.8134,-7.25 0.4023,-0.6509 0.2549,-1.18346 -0.3276,-1.18346 -0.6281,0 -1.059,-2.4501 -1.059,-6.02144 0,-5.4677 0.2321,-6.12719 2.524,-7.17144 1.3882,-0.6325 2.7126,-2.08535 2.9431,-3.22856 1.0209,-5.06262 2.4324,-26.29668 1.8855,-28.36442 -0.55,-2.07925 -0.9187,-1.80808 -4.0789,3 -4.9644,7.55272 -10.963,14.479 -25.3636,29.28586 -6.9539,7.15 -14.507,15.7599 -16.7848,19.13311 -8.2721,12.25031 -14.703,28.13101 -27.078,66.86689 -6.4255,20.11332 -11.1833,30.23094 -15.1396,32.19563 -1.3242,0.6576 -5.4739,2.55987 -9.2214,4.22728 -3.7476,1.66741 -8.228,4.0387 -9.9566,5.26954 l -3.1428,2.23789 2.4565,0.59513 c 2.1619,0.52373 2.4501,1.12777 2.4028,5.03483 -0.072,5.99233 -2.7337,9.9397 -6.701,9.9397 -3.5874,0 -5.6523,-2.33158 -5.7567,-6.5 l -0.075,-3 -4.9997,5.5 c -15.5597,17.11655 -24.4945,37.68662 -21.9619,50.56161 0.5342,2.71612 4.3583,13.71339 8.4978,24.43839 4.1395,10.725 7.5318,20.26094 7.5384,21.19098 0.01,0.93004 0.462,1.9691 1.012,2.30902 0.55,0.33992 1,1.68659 1,2.99259 0,1.82278 -0.639,2.47137 -2.75,2.79116 l -2.75,0.41659 2.8635,0.14983 c 2.5467,0.13325 2.8113,0.45408 2.3914,2.89983 -0.2596,1.5125 -0.8088,3.5375 -1.2205,4.5 -0.6187,1.44684 -0.2222,1.75 2.2891,1.75 2.3885,0 3.1057,0.48064 3.3569,2.25 0.2447,1.72274 1.1398,2.36717 3.8196,2.75 3.2446,0.46351 3.5233,0.78444 3.8192,4.39748 l 0.3191,3.89748 -5.0691,-0.60036 -5.0692,-0.60037 0,5.95288 c 0,3.27409 0.3375,5.9607 0.75,5.97025 0.4125,0.01 3.9,0.73418 7.75,1.61029 3.85,0.8761 10.375,1.88079 14.5,2.23263 l 7.5,0.63972 0.3075,4.25 c 0.2585,3.57303 0.6567,4.26758 2.5,4.36037 5.5419,0.27899 13.5903,0.83054 17.6925,1.21245 5.6067,0.52198 16.0573,-1.23833 17.8214,-3.00186 0.7268,-0.72653 2.6117,-1.32096 4.1888,-1.32096 2.6399,0 2.9218,0.36392 3.5556,4.58993 0.6796,4.5324 0.6213,4.65772 -4.6546,10 -2.9386,2.97554 -5.8726,5.41007 -6.5201,5.41007 -0.6474,0 -1.4361,0.675 -1.7527,1.5 -0.3166,0.825 -1.7148,1.5 -3.107,1.5 -2.0172,0 -2.5314,-0.49586 -2.5314,-2.44098 0,-1.34254 0.3981,-2.68704 0.8847,-2.98776 0.4866,-0.30073 1.0865,-1.92161 1.3331,-3.60197 0.343,-2.33666 0.1157,-2.92749 -0.9665,-2.51224 -0.7782,0.29862 -2.2169,0.54295 -3.1972,0.54295 -1.4131,0 -1.7586,0.7767 -1.6682,3.75 0.1021,3.3557 -0.1671,3.7825 -2.5603,4.05913 -3.0017,0.34696 -7.8256,-3.19095 -7.8256,-5.73947 0,-1.20416 -1.106,-1.57256 -4.75,-1.58212 -2.6125,-0.007 -6.2816,-0.79436 -8.1536,-1.75 -1.872,-0.95565 -4.935,-1.73754 -6.8066,-1.73754 -3.6152,0 -17.9533,-5.50784 -25.0398,-9.61883 -2.7133,-1.57403 -4.25,-3.17338 -4.25,-4.42332 0,-1.07682 -0.6449,-1.95785 -1.4331,-1.95785 -1.4038,0 -6.5054,-5.7968 -9.9007,-11.25 -1.0864,-1.74477 -2.5786,-2.75 -4.0822,-2.75 -1.3035,0 -2.6431,-0.7118 -2.977,-1.58179 -1.0079,-2.62651 -0.6845,-5.41087 0.643,-5.53652 0.6875,-0.0651 -0.1,-0.4056 -1.75,-0.75672 -2.8566,-0.60789 -3.0414,-0.96064 -3.8669,-7.38168 -0.4769,-3.70881 -1.3273,-6.74329 -1.8899,-6.74329 -3.3254,0 -5.1425,-8.48768 -1.9933,-9.31067 0.9655,-0.25232 0.3828,-0.50933 -1.3,-0.57333 -3.6676,-0.13949 -5.45,-1.71452 -5.45,-4.816 0,-1.77782 0.5595,-2.3 2.4645,-2.3 l 2.4645,0 -1.9645,-4.58291 c -1.0805,-2.52059 -1.9645,-5.67059 -1.9645,-7 0,-2.0751 0.474,-2.41709 3.35,-2.41709 5.6378,0 15.2703,8.37687 21.1298,18.37539 5.4924,9.37198 3.1996,4.14569 -6.0165,-13.71461 l -9.4633,-18.33922 0,-14.0954 c 0,-13.35387 -1.8573,-27.48344 -3.8782,-29.5044 -0.4436,-0.44359 -1.3826,-0.11245 -2.0866,0.73586 -0.704,0.84831 -2.5861,1.54238 -4.1824,1.54238 -3.6137,0 -4.3562,-1.75919 -5.2754,-12.5 -0.7767,-9.07549 -4.8719,-19.01333 -9.2562,-22.46199 -4.5639,-3.58998 -7.1332,-2.72777 -14.3992,4.83209 -11.2041,11.65728 -21.922,36.0086 -21.922,49.80751 0,2.99963 -0.4658,6.32429 -1.0352,7.38813 -0.7947,1.48496 -0.7094,1.93426 0.3673,1.93426 1.3346,0 7.6679,14.86431 7.6679,17.99659 0,2.81121 -5.2054,9.00341 -7.5686,9.00341 -2.8501,0 -3.5348,-1.96461 -4.3564,-12.5 l -0.6239,-8 -1.4264,3.75 c -1.2367,3.25119 -1.8506,3.75 -4.6154,3.75 -2.7726,0 -3.4492,-0.555 -5.1814,-4.25 -2.4935,-5.31871 -5.0382,-14.45598 -10.235,-36.75 -5.8319,-25.01897 -9.5366,-37.33855 -14.0341,-46.6691 -4.4554,-9.2434 -7.6339,-12.3309 -12.6941,-12.3309 -1.9061,0 -9.073,-0.94738 -15.9265,-2.10528 -6.8535,-1.1579 -12.6879,-1.87832 -12.9653,-1.60094 -1.5391,1.53907 2.0429,8.69094 6.6017,13.18122 4.72,4.64896 5.0247,5.256 5.0135,9.98741 -0.01,3.81173 -0.7999,6.44001 -3.25,10.80075 -5.4653,9.72715 -15.7241,23.51437 -22.8571,30.71846 -6.5607,6.62606 -6.7561,6.96701 -5.8345,10.18042 0.5244,1.82862 0.9419,7.82773 0.9277,13.33136 -0.042,16.40864 -3.9971,25.32562 -22.40028,50.5066 -13.8262,18.91838 -18.0817,27.27679 -17.9005,35.159 0.074,3.213 -0.2724,6.0932 -0.7695,6.40043 -0.4971,0.30723 -0.9039,1.88205 -0.9039,3.49959 0,1.61754 -0.388,2.94098 -0.8623,2.94098 -1.2075,0 -1.9612,7.47187 -3.669,36.37414 -2.3936,40.50642 -4.1527,53.34774 -9.6748,70.62586 -5.6871,17.79409 -13.8726,31.27089 -26.4426,43.53539 -8.5497,8.3418 -14.7872,11.4646 -22.8997,11.4646 -4.7434,0 -6.9354,-0.5223 -9.5537,-2.2766 z M 1008.8245,509.61659 c 2.9895,-1.14716 -6.2689,-11.9996 -18.64798,-21.85865 -2.6125,-2.08068 -4.75,-3.49398 -4.75,-3.14069 0,0.3533 1.8993,4.4917 4.2206,9.19646 6.2218,12.60985 12.98178,18.18037 19.17738,15.80288 z m -43.56468,-62.7341 c -2.2749,-5.88338 -4.2996,-10.53371 -4.4992,-10.33406 -0.5838,0.5838 3.7112,13.81357 5.8483,18.0143 3.5182,6.91534 2.8718,3.23559 -1.3491,-7.68024 z m 64.69548,-6.71323 c 0.3241,-0.52439 -0.2372,-0.95344 -1.2473,-0.95344 -3.1513,0 -5.8887,-2.68265 -11.625,-11.39261 -4.916,-7.46441 -7.6565,-10.76387 -7.6565,-9.21803 0,0.27907 1.1609,4.18213 2.5797,8.67347 1.8653,5.90494 3.1114,8.30512 4.5,8.66825 1.3336,0.34877 1.9203,1.38306 1.9203,3.38555 0,1.78242 0.526,2.88337 1.3776,2.88337 0.7576,0 1.9332,0.6696 2.6124,1.488 1.082,1.3037 1.5889,1.236 4.0922,-0.54656 1.5715,-1.11901 3.1225,-2.46361 3.4466,-2.988 z m -69.23868,-55.95482 c 0.2879,-1.10076 0.1154,-1.7492 -0.3834,-1.44098 -0.4987,0.30822 -0.9067,1.20884 -0.9067,2.00138 0,2.06975 0.6795,1.77459 1.2901,-0.5604 z m 63.84708,-10.06167 c 0.9674,-1.34032 2.0609,-4.1433 2.43,-6.22884 0.6354,-3.59002 0.4997,-3.85621 -2.5479,-5 -3.1949,-1.19911 -3.2158,-1.25139 -2.8009,-7.01944 0.3846,-5.34511 0.2098,-5.95961 -2.1778,-7.6598 -3.2704,-2.32868 -7.0406,-9.76591 -7.0406,-13.8884 0,-3.12656 0.024,-3.14047 5.3129,-3.14047 4.5709,0 5.7054,-0.40963 8.123,-2.93304 l 2.81,-2.93304 -2.1939,-3.54974 c -1.2066,-1.95235 -4.0744,-5.16423 -6.3729,-7.1375 -3.4357,-2.94953 -4.7128,-3.48144 -7.1791,-2.99007 -1.65,0.32873 -5.3884,0.86835 -8.3076,1.19915 -4.2184,0.47802 -5.18698,0.9158 -4.71988,2.13313 0.32328,0.84242 2.58238,9.44705 5.02038,19.12139 5.3567,21.25688 9.6569,34.20663 13.073,39.36872 2.7901,4.21605 3.9215,4.32932 6.5713,0.65795 z M 979.56372,348.4786 c 2.4833,-2.48326 -11.3871,-16.26278 -16.37,-16.26278 -2.2923,0 -2.7672,-0.43332 -2.7672,-2.525 0,-2.00133 0.6175,-2.64851 2.9776,-3.12051 4.4832,-0.89664 5.5885,-2.78843 3.0893,-5.28758 -2.6158,-2.6158 -5.3132,-2.6102 -10.7512,0.0223 -6.1725,2.98807 -13.0465,10.08119 -15.9806,16.48996 -3.012,6.57916 -2.5603,10.00052 1.5491,11.73375 3.5955,1.51644 36.5923,0.61059 38.253,-1.05015 z m -157.1078,-67.33043 c 0.6951,-1.28842 0.34,-1.49341 -1.994,-1.15086 -2.3762,0.34877 -2.9042,0.96923 -3.2349,3.80156 l -0.3951,3.38476 2.3891,-2.2339 c 1.314,-1.22865 2.7697,-2.93935 3.2349,-3.80156 z m -2.0294,-6.80991 c 0,-0.48265 -0.675,-1.43775 -1.5,-2.12244 -1.2165,-1.00961 -1.5,-0.96975 -1.5,0.21089 0,0.80068 0.3,1.75578 0.6667,2.12244 0.9497,0.94969 2.3333,0.82463 2.3333,-0.21089 z m 66,-2.12244 c 0,-1.44828 0.6667,-2 2.4167,-2 1.3291,0 2.5705,0.46171 2.7586,1.02603 0.1882,0.56432 5.4932,-1.91325 11.7891,-5.50571 12.9552,-7.39232 14.4427,-8.52032 11.2356,-8.52032 -1.6189,0 -2.1964,-0.59435 -2.1863,-2.25 0.03,-4.98541 1.1094,-6.75 4.1279,-6.75 2.4316,0 3.0068,0.49187 3.5084,3 0.33,1.65 0.9081,3 1.2846,3 0.3765,0 3.1327,-2.27152 6.125,-5.04783 l 5.4404,-5.04782 -6,0.58774 c -3.3,0.32326 -7.878,0.84071 -10.1734,1.14989 l -4.1734,0.56214 -0.589,-4.35206 c -0.3239,-2.39363 -0.9209,-7.13797 -1.3266,-10.54298 l -0.7376,-6.19092 -5.251,4.53186 -5.2511,4.53185 2.0011,2.54393 c 3.9678,5.04435 2.0547,13.24501 -4.788,20.5242 -2.5448,2.70708 -2.551,2.75 -0.3981,2.75 1.4394,0 2.1871,-0.61534 2.1871,-1.8 0,-2.46449 1.9421,-4.2 4.7,-4.2 1.8746,0 2.3,0.53979 2.3,2.91821 0,4.63092 -0.9637,6.08179 -4.0396,6.08179 -1.9474,0 -3.0229,0.62164 -3.4604,2 -0.4056,1.27793 -1.513,2 -3.0674,2 -1.9539,0 -2.4326,-0.51233 -2.4326,-2.60359 l 0,-2.60359 -3.5348,3.10359 c -1.9441,1.70697 -3.9181,3.10359 -4.3865,3.10359 -0.4684,0 -1.0498,1.35 -1.292,3 -0.3521,2.39921 -0.074,3 1.3865,3 1.1601,0 1.8268,-0.72987 1.8268,-2 z m 18,-29.06642 c 0,-2.75523 0.2791,-3.03431 2.75,-2.75 2.16,0.24853 2.8179,0.90645 3.0664,3.06642 0.2843,2.47092 0,2.75 -2.75,2.75 -2.7552,0 -3.0664,-0.31119 -3.0664,-3.06642 z m -27.5,22.06642 c -0.3399,-0.55 -1.0415,-1 -1.559,-1 -0.5176,0 -0.941,0.45 -0.941,1 0,0.55 0.7016,1 1.559,1 0.8575,0 1.2809,-0.45 0.941,-1 z m 45.8231,-52.9529 c -0.2176,-0.24909 -2.9668,2.19374 -6.1093,5.42851 l -5.7138,5.8814 6.1093,-5.4285 c 3.3601,-2.98568 5.9313,-5.63231 5.7138,-5.88141 z m 68.9033,524.7029 c -3.1147,-3.82273 -4.1799,-17.85465 -2.1153,-27.86351 0.6112,-2.96257 1.0342,-10.37149 0.9401,-16.46427 -0.1824,-11.80714 0.1268,-12.67406 4.9544,-13.8894 3.072,-0.77339 6.64808,-5.96952 10.00178,-14.53282 2.3363,-5.96552 2.7893,-6.5 5.5097,-6.5 2.8189,0 3.0074,0.26938 3.849,5.5 1.0405,6.46747 -0.6385,34.41983 -2.8042,46.68405 -2.5966,14.704 -6.643,25.21863 -10.4994,27.28251 -2.66758,1.42763 -8.60288,1.29695 -9.83608,-0.21656 z m 430.61408,-20.5 c -4.2987,-4.66561 -5.8405,-7.56213 -5.8405,-10.97251 0,-2.78431 0.3578,-3.27749 2.3776,-3.27749 1.3076,0 2.8741,0.59832 3.481,1.32959 0.653,0.78679 2.3359,1.14871 4.1224,0.8865 1.8164,-0.26659 3.019,4.5e-4 3.019,0.67041 0,0.61243 0.675,1.1135 1.5,1.1135 0.825,0 1.5,0.675 1.5,1.5 0,0.825 0.45,1.5 1,1.5 0.55,0 1,1.35 1,3 0,2 -0.5,3 -1.5,3 -0.8333,0 -1.5,0.88889 -1.5,2 0,3.21312 -5.9576,2.72531 -9.1595,-0.75 z m -391.8405,-6.81642 c 0,-3.30069 0.2049,-3.54285 2.75,-3.25 2.2915,0.26366 2.8023,0.85834 3.0634,3.56642 0.2919,3.02758 0.1037,3.25 -2.75,3.25 -2.8452,0 -3.0634,-0.25401 -3.0634,-3.56642 z m 7,-4.43358 c 0,-2.66667 0.3333,-3 3,-3 2.6667,0 3,0.33333 3,3 0,2.66667 -0.3333,3 -3,3 -2.6667,0 -3,-0.33333 -3,-3 z m 426.6667,-9.66667 c -0.3667,-0.36666 -0.6667,-2.36134 -0.6667,-4.43261 0,-2.88769 0.4664,-3.91398 2,-4.40072 1.1,-0.34913 2,-1.34234 2,-2.20715 0,-2.05929 2.9171,-4.221 5.75,-4.26105 1.8975,-0.0268 2.25,0.49978 2.25,3.36121 0,2.09352 -0.5745,3.61346 -1.5,3.96862 -0.825,0.31658 -1.5,1.51931 -1.5,2.67273 0,3.65996 -1.8816,5.96564 -4.8685,5.96564 -1.539,0 -3.0982,-0.3 -3.4648,-0.66667 z m -32.6667,-5.83333 c 0,-2 0.5,-2.5 2.5,-2.5 2,0 2.5,0.5 2.5,2.5 0,2 -0.5,2.5 -2.5,2.5 -2,0 -2.5,-0.5 -2.5,-2.5 z m -3.3333,-4.16667 c -0.3667,-0.36666 -0.6667,-1.67916 -0.6667,-2.91666 0,-1.2375 -0.4606,-2.40354 -1.0236,-2.5912 -0.5629,-0.18765 -1.3022,-2.05846 -1.6428,-4.15734 l -0.6193,-3.81616 3.3928,0.32402 c 2.7541,0.26301 3.4559,0.79467 3.7276,2.82401 0.184,1.375 0.7465,2.9275 1.25,3.45 0.5034,0.5225 0.9153,2.435 0.9153,4.25 0,2.79048 -0.3603,3.3 -2.3333,3.3 -1.2834,0 -2.6334,-0.3 -3,-0.66667 z m -6.0597,-22.91512 c -0.3339,-0.86998 -0.607,-2.89498 -0.607,-4.5 0,-2.57579 0.352,-2.91821 3,-2.91821 2.8889,0 3,0.16667 3,4.5 0,4.07968 -0.2235,4.5 -2.393,4.5 -1.3162,0 -2.6662,-0.7118 -3,-1.58179 z m -434.60698,-6.91821 c 0,-2 0.5,-2.5 2.5,-2.5 2,0 2.5,0.5 2.5,2.5 0,2 -0.5,2.5 -2.5,2.5 -2,0 -2.5,-0.5 -2.5,-2.5 z m 420.99998,-0.80064 c 0,-3.04222 -2.6035,-6.57005 -5.2373,-7.09682 -2.3899,-0.47799 -2.7627,-1.02816 -2.7627,-4.07754 0,-2.95383 0.3646,-3.54417 2.25,-3.64331 1.7568,-0.0924 1.5924,-0.26385 -0.75,-0.78225 -1.65,-0.36517 -3.15,-0.31193 -3.3333,0.11831 -0.1834,0.43024 -1.405,0.78225 -2.7148,0.78225 -2.5123,0 -4.4519,-2.53214 -4.4519,-5.81181 0,-2.72517 -2.7188,-4.86939 -4.2424,-3.34581 -1.9773,1.97736 -5.609,1.31405 -7.3496,-1.34238 -1.4085,-2.14977 -2.3857,-2.5 -6.9751,-2.5 l -5.3371,0 2.6034,5.01807 c 1.8868,3.63658 2.7357,7.07785 3.0837,12.5 0.4798,7.47771 0.4787,7.48193 -2.0685,7.48193 -5.4017,0 -11.4888,-3.70685 -16.3351,-9.9474 -2.5851,-3.32893 -5.2583,-6.0526 -5.9404,-6.0526 -0.6821,0 -1.6367,1.6875 -2.1213,3.75 -0.7696,3.27529 -1.2909,3.78984 -4.1181,4.06475 -1.9125,0.18598 -5.4381,-0.69298 -8.6169,-2.14829 -2.959,-1.35467 -6.8167,-2.77861 -8.5728,-3.1643 l -3.1928,-0.70126 0.6948,-6.91834 c 0.5557,-5.53334 0.3719,-7.41107 -0.9179,-9.37964 -1.9994,-3.05147 -6.4503,-5.41603 -11.9203,-6.33276 -3.4541,-0.57889 -4.475,-1.30028 -5.922,-4.18481 -1.7295,-3.44744 -1.7485,-3.45544 -1.75,-0.73535 0,2.22846 -0.4525,2.75 -2.3792,2.75 -1.3076,0 -2.9377,-0.675 -3.6224,-1.5 -0.6847,-0.825 -2.4916,-1.5 -4.0155,-1.5 -1.5402,0 -3.0261,0.66611 -3.3461,1.5 -0.7329,1.90991 -5.0207,1.94926 -6.5882,0.0605 -0.6571,-0.79174 -1.0497,-2.70424 -0.8725,-4.25 0.2959,-2.58003 0.7323,-2.85293 5.3223,-3.32828 6.1997,-0.64206 7.5,-1.43485 7.5,-4.57259 0,-1.3598 0.6606,-2.72585 1.4679,-3.03565 1.1186,-0.42926 1.3242,-1.61148 0.8641,-4.96862 l -0.6038,-4.40536 3.7295,0 c 2.9651,0 3.8438,0.43685 4.2869,2.13119 0.5288,2.02221 0.9625,2.09739 8.482,1.47029 l 7.9247,-0.6609 1.1436,3.02971 c 0.8193,2.17062 1.7997,3.02971 3.4576,3.02971 3.9895,0 12.3754,4.96681 22.7475,13.47298 7.3779,6.05058 11.0077,8.36233 13.8432,8.81626 3.9654,0.63483 4.325,0.40888 9.7932,-6.15288 1.918,-2.30162 0.1223,-6.13636 -2.8735,-6.13636 -1.8477,0 -2.2629,-0.5505 -2.2629,-3 0,-2.56221 0.3785,-3 2.5936,-3 1.7276,0 2.7634,0.64903 3.102,1.94381 0.2795,1.06909 1.4749,2.08159 2.6563,2.25 1.1815,0.1684 2.5923,1.31869 3.1352,2.55619 0.5429,1.2375 1.5554,2.25 2.25,2.25 2.0259,0 1.6199,8.00854 -0.4871,9.60795 -1.6249,1.23347 -1.5934,1.33072 0.441,1.36025 1.205,0.0175 2.4691,-0.4182 2.809,-0.9682 0.3399,-0.55 1.7238,-1 3.0752,-1 1.8129,0 2.885,0.89719 4.089,3.42209 0.8976,1.88214 2.4987,3.64875 3.5581,3.92578 1.0594,0.27704 2.1702,1.4371 2.4685,2.57792 0.3657,1.39822 1.3538,2.07421 3.0319,2.07421 1.4644,0 3.2992,1.02945 4.456,2.5 1.0815,1.375 2.7857,2.5 3.7869,2.5 1.0012,0 2.0936,0.7118 2.4274,1.58179 1.0628,2.76959 0.6621,7.41648 -0.643,7.45735 -0.6875,0.0215 0.2125,0.67481 2,1.45173 2.1491,0.93409 3.25,2.10641 3.25,3.46086 0,1.15402 0.6549,2.04827 1.5,2.04827 0.9333,0 1.5,0.94444 1.5,2.5 0,2.2963 -0.3667,2.5 -4.5,2.5 -3.0268,0 -4.5,-0.42581 -4.5,-1.30064 z m -105.7998,-54.69936 c -0.2607,-0.275 -0.6749,0.0625 -0.9204,0.75 -0.2456,0.6875 -1.17,1.25 -2.0543,1.25 -1.3216,0 -1.2623,0.25448 0.3334,1.42985 1.7515,1.29022 1.9984,1.21698 2.5282,-0.75 0.3229,-1.19892 0.3738,-2.40485 0.1131,-2.67985 z m 13.7758,-3.15923 c -1.8071,-1.86259 -2.1387,-1.96656 -1.6235,-0.50898 0.3561,1.00748 0.6475,2.79141 0.6475,3.96428 0,1.96766 0.1255,2.00701 1.6235,0.50898 1.498,-1.49802 1.448,-1.80445 -0.6475,-3.96428 z m -16.787,35.98154 c 0.281,-3.9058 0.5819,-4.35337 3.122,-4.64462 2.7372,-0.31384 2.8029,-0.20871 2.5,4 -0.281,3.9058 -0.5819,4.35337 -3.122,4.64462 -2.7372,0.31384 -2.8029,0.20871 -2.5,-4 z m 9.811,-6.88805 c 0,-5.34895 1.4777,-7.93426 4.5352,-7.93426 2.2478,0 2.4648,0.38894 2.4648,4.41821 0,6.21061 -0.7428,7.58179 -4.107,7.58179 -2.7163,0 -2.893,-0.24833 -2.893,-4.06574 z m -11.3643,-2.00593 c -0.3497,-1.74808 -0.6357,-4.47208 -0.6357,-6.05333 0,-2.51798 0.3669,-2.875 2.9547,-2.875 2.5632,0 3.0384,0.44642 3.5867,3.36901 1.0582,5.64069 0.286,8.093 -2.6557,8.43432 -2.2302,0.25876 -2.7078,-0.1637 -3.25,-2.875 z m -41.1927,-6.53816 c -1.3375,-10.70519 1.5118,-33.22094 4.6884,-37.04853 0.7187,-0.86597 3.5042,-1.204 8.7125,-1.05729 l 7.6561,0.21565 0.3186,3.88793 0.3186,3.88793 -5.0382,-0.66834 c -4.2736,-0.56692 -5.3463,-0.36022 -7.0686,1.36207 -2.3788,2.37884 -2.6204,4.03041 -0.5894,4.03041 0.7925,0 1.7191,-0.45 2.059,-1 0.3399,-0.55 2.3915,-1 4.559,-1 3.7122,0 3.941,0.17415 3.941,3 0,2.66667 0.3333,3 3,3 2.6667,0 3,0.33333 3,3 0,2.7619 -0.2778,3 -3.5,3 -1.925,0 -3.5,-0.45 -3.5,-1 0,-0.55 -0.9525,-1 -2.1166,-1 -1.7182,0 -1.9961,0.42354 -1.476,2.25 0.3524,1.2375 0.9112,3.4875 1.2417,5 0.3305,1.5125 1.0161,2.75 1.5236,2.75 0.5075,0 0.7888,2.80798 0.625,6.23996 -0.244,5.11422 -0.6277,6.30284 -2.1268,6.58855 -3.3501,0.63849 -6.5189,-0.7628 -6.9654,-3.08016 -0.371,-1.92571 -0.4527,-1.85372 -0.5693,0.50165 -0.1243,2.51016 -0.4788,2.75 -4.0642,2.75 l -3.9281,0 -0.7009,-5.60983 z m -25.5615,-2.83582 c -5.1343,-2.9028 -6.3815,-7.50628 -6.3815,-23.55435 0,-16.20948 1.7047,-23.43698 7.6422,-32.40094 4.4602,-6.73371 8.1089,-8.95659 15.4709,-9.42537 8.8283,-0.56214 8.8939,-0.3855 8.8578,23.82631 -0.038,25.20715 -2.353,34.84892 -9.6794,40.30976 -3.5018,2.61008 -12.2802,3.2968 -15.91,1.24459 z m 123.1185,-14.05435 c 0,-2.11111 0.4667,-2.5 3,-2.5 2.5333,0 3,0.38889 3,2.5 0,2.11111 -0.4667,2.5 -3,2.5 -2.5333,0 -3,-0.38889 -3,-2.5 z m -68.2508,-4.25 c -0.7571,-6.79211 0.5777,-20.52562 2.0422,-21.01381 0.6647,-0.22157 1.2086,-1.04036 1.2086,-1.81952 0,-0.90129 1.0706,-1.41667 2.9427,-1.41667 2.8817,0 2.943,0.10889 2.9554,5.25 0.01,2.8875 -0.3864,6.375 -0.8741,7.75 -0.4877,1.375 -1.1784,5.5375 -1.5349,9.25 -0.63,6.55988 -0.7266,6.75 -3.4294,6.75 -2.5769,0 -2.82,-0.34887 -3.3105,-4.75 z m -776.74917,-4.75 c 0,-5.15937 0.15066,-5.5 2.43261,-5.5 1.55436,0 2.66179,0.72207 3.06739,2 0.34913,1.1 1.27945,2 2.06739,2 2.01724,0 1.79041,4.0079 -0.31739,5.60795 -0.9625,0.73065 -2.9875,1.34275 -4.5,1.36025 -2.67052,0.0309 -2.75,-0.12716 -2.75,-5.4682 z m 347.99999,-4 c 0,-2 0.5,-2.5 2.5,-2.5 2,0 2.5,0.5 2.5,2.5 0,2 -0.5,2.5 -2.5,2.5 -2,0 -2.5,-0.5 -2.5,-2.5 z m 359.99998,-21 c 0,-3.37315 0.1966,-3.61022 2.75,-3.31642 2.3186,0.26678 2.75,0.78707 2.75,3.31642 0,2.52935 -0.4314,3.04964 -2.75,3.31642 -2.5534,0.2938 -2.75,0.0567 -2.75,-3.31642 z m 70.2421,-3.75 c -0.6027,-1.2375 -1.5432,-3.6 -2.09,-5.25 -0.5468,-1.65 -1.0297,-2.2125 -1.0732,-1.25 -0.061,1.35875 -0.9642,1.75 -4.0388,1.75 -3.8023,0 -4.0079,-0.16901 -5.1685,-4.25 -1.6003,-5.62665 -2.8716,-6.93269 -2.8716,-2.95 0,2.91628 -0.2766,3.2 -3.1202,3.2 l -3.1202,0 0.4313,-5.96253 c 0.2851,-3.94107 1.0637,-6.66129 2.2966,-8.02363 1.4299,-1.58007 1.5907,-2.33564 0.6889,-3.23747 -0.647,-0.647 -1.1764,-2.43637 -1.1764,-3.97637 0,-1.54 -0.45,-2.8 -1,-2.8 -0.55,0 -1,-2.02881 -1,-4.50847 0,-4.25251 -0.1131,-4.43783 -1.9925,-3.26413 -1.304,0.81435 -1.7895,1.88402 -1.405,3.09542 1.7133,5.39828 -5.1718,16.67718 -10.1804,16.67718 -3.5803,0 -3.1745,-4.24365 1.0805,-11.30008 1.9236,-3.19004 3.4974,-6.45254 3.4974,-7.25 0,-0.79746 0.45,-1.44992 1,-1.44992 0.55,0 1,-1.35 1,-3 0,-1.65 0.5147,-3 1.1438,-3 0.8369,0 0.908,-2.21316 0.2651,-8.25 -1.1761,-11.04302 -0.9832,-20.80842 0.4646,-23.51359 1.3769,-2.57288 5.0111,-3.73316 8.7521,-2.79425 l 2.6255,0.65897 -0.6881,8.19944 c -1.3815,16.46326 -1.65,15.15696 3.187,15.50693 3.7561,0.27176 4.25,0.59137 4.25,2.75 0,1.93867 0.5157,2.4425 2.5,2.4425 2,0 2.5,0.5 2.5,2.5 0,1.375 0.4296,2.5 0.9547,2.5 0.5251,0 1.2593,1.6875 1.6316,3.75 0.3723,2.0625 1.0247,4.42749 1.4497,5.25553 0.6584,1.28294 5.964,35.93234 5.964,38.94976 0,0.57459 -1.274,1.04471 -2.831,1.04471 -1.9445,0 -3.1742,-0.70457 -3.9269,-2.25 z m -5.2421,-27.75 c 0,-0.55 -0.4234,-1 -0.941,-1 -0.5175,0 -1.2191,0.45 -1.559,1 -0.3399,0.55 0.083,1 0.941,1 0.8574,0 1.559,-0.45 1.559,-1 z m -11,-18.5 c 0,-0.825 -0.45,-1.5 -1,-1.5 -0.55,0 -1,0.675 -1,1.5 0,0.825 0.45,1.5 1,1.5 0.55,0 1,-0.675 1,-1.5 z m -105,31.5 c 0,-2.53333 0.3889,-3 2.5,-3 2.1111,0 2.5,0.46667 2.5,3 0,2.53333 -0.3889,3 -2.5,3 -2.1111,0 -2.5,-0.46667 -2.5,-3 z m 157,-8 c 0,-2.53333 0.3889,-3 2.5,-3 2.1111,0 2.5,0.46667 2.5,3 0,2.53333 -0.3889,3 -2.5,3 -2.1111,0 -2.5,-0.46667 -2.5,-3 z m -162,-12.5 c 0,-2.11111 0.4667,-2.5 3,-2.5 2.5333,0 3,0.38889 3,2.5 0,2.11111 -0.4667,2.5 -3,2.5 -2.5333,0 -3,-0.38889 -3,-2.5 z m 173.0037,-2.62219 c 0.01,-6.52116 2.6744,-10.00269 11.1493,-14.54451 4.9675,-2.66214 8.13,-5.13506 9.7645,-7.63533 1.6449,-2.51601 3.1631,-3.69797 4.75,-3.69797 2.1499,0 2.3308,0.41095 2.3105,5.25 -0.04,9.56665 -4.5686,15.97516 -15.0379,21.28036 -2.6262,1.33077 -6.612,2.71335 -8.8575,3.07242 l -4.0826,0.65284 0,-4.37781 z m -171.9927,-5.12781 c 0.01,-1.7875 0.2899,-4.9375 0.6309,-7 0.513,-3.10369 1.0281,-3.75 2.9889,-3.75 2.0085,0 2.3675,0.49477 2.3582,3.25 -0.01,1.7875 -0.2899,4.9375 -0.6308,7 -0.5131,3.10369 -1.0282,3.75 -2.989,3.75 -2.0085,0 -2.3675,-0.49477 -2.3582,-3.25 z m -138.3443,-0.41667 c -0.3667,-0.36666 -0.6667,-1.71666 -0.6667,-3 0,-2.05555 0.4762,-2.33333 4,-2.33333 3.7778,0 4,0.16667 4,3 0,2.73333 -0.2963,3 -3.3333,3 -1.8334,0 -3.6334,-0.3 -4,-0.66667 z M 616.81057,506.77423 c -1.09051,-2.84182 0.0924,-5.05372 2.87451,-5.37483 2.53529,-0.29263 2.74145,-0.0482 2.74145,3.25 0,3.14931 -0.29606,3.56642 -2.53138,3.56642 -1.39227,0 -2.78032,-0.64871 -3.08458,-1.44159 z m 132.61595,-4.62483 c 0,-2.75523 0.2791,-3.03431 2.75,-2.75 2.16,0.24853 2.8179,0.90645 3.0664,3.06642 0.2843,2.47092 0,2.75 -2.75,2.75 -2.7552,0 -3.0664,-0.31119 -3.0664,-3.06642 z m -134.99999,-5.93358 c 0,-2.53333 0.38889,-3 2.5,-3 2.11111,0 2.5,0.46667 2.5,3 0,2.53333 -0.38889,3 -2.5,3 -2.11111,0 -2.5,-0.46667 -2.5,-3 z m 743.62577,-0.53288 c -0.3236,-0.84308 -0.3076,-4.21808 0.035,-7.5 0.6012,-5.75185 0.7268,-5.96712 3.4813,-5.96712 l 2.8575,0 0,7.5 0,7.5 -2.893,0 c -1.6767,0 -3.1403,-0.64449 -3.4812,-1.53288 z m -613.62578,-4.96712 c 0,-2 0.5,-2.5 2.5,-2.5 2,0 2.5,0.5 2.5,2.5 0,2 -0.5,2.5 -2.5,2.5 -2,0 -2.5,-0.5 -2.5,-2.5 z m -186.32463,-2.94663 c -2.5967,-1.9682 -1.91577,-6.94796 1.00696,-7.36405 3.53667,-0.50349 8.31768,2.50235 8.31768,5.22937 0,3.62231 -5.65424,4.91673 -9.32464,2.13468 z m 37.32593,-0.74858 c 9.9e-4,-0.9991 -2.75179,-1.30479 -11.75,-1.30479 l -11.75129,0 -0.31938,-2.78062 c -0.23974,-2.08731 0.54567,-3.64567 3.15,-6.25 2.93387,-2.93387 4.14082,-3.45853 7.81938,-3.39909 2.3925,0.0387 5.22238,0.41182 6.28863,0.82925 1.1701,0.45809 3.13596,0.16166 4.95893,-0.74775 4.66007,-2.32475 17.96148,-2.80179 21.08354,-0.75613 3.3034,2.16447 3.62758,7.60434 0.45316,7.60434 -1.13616,0 -2.94247,-0.46921 -4.01402,-1.04268 -1.07155,-0.57348 -3.5309,-0.74578 -5.46524,-0.3829 -3.00987,0.56466 -3.28385,0.83024 -1.90019,1.842 1.02646,0.75057 1.49417,2.25954 1.28098,4.13289 -0.31351,2.75494 -0.65091,2.97091 -5.08579,3.25548 -3.39592,0.21791 -4.74963,-0.0672 -4.74871,-1 z m -37.00129,-12.10793 c 0,-1.67604 -1.62039,-3.44587 -5.95114,-6.5 -3.27313,-2.30827 -6.14564,-4.19686 -6.38337,-4.19686 -0.23772,0 -0.66758,0.9 -0.95524,2 -0.63647,2.43388 -5.71025,2.87815 -5.71025,0.5 0,-0.93333 -0.94444,-1.5 -2.5,-1.5 -2.16841,0 -2.5,-0.44367 -2.5,-3.34501 0,-5.46587 2.80629,-7.15682 11.85782,-7.14506 6.5889,0.009 8.39591,0.42204 13.11097,3 3.00783,1.64454 7.39533,4.82543 9.75,7.06865 3.32712,3.16966 4.28121,3.67108 4.28121,2.25 0,-1.28382 0.74479,-1.82858 2.5,-1.82858 2,0 2.5,0.5 2.5,2.5 0,2 -0.5,2.5 -2.5,2.5 -1.80247,0 -2.5,0.5381 -2.5,1.92857 0,3.54504 -2.7303,5.07143 -9.07143,5.07143 -5.52201,0 -5.92857,-0.15794 -5.92857,-2.30314 z M 1261.5243,462.0666 c -1.6411,-4.70781 -1.3388,-9.00406 1.0355,-14.71743 1.8482,-4.4472 2.5075,-5.13335 4.9326,-5.13335 4.0871,0 4.4442,2.6588 1.8194,13.54659 -2.0229,8.39123 -2.5267,9.45341 -4.4843,9.45341 -1.5745,0 -2.5194,-0.90079 -3.3032,-3.14922 z m 88.1427,0.16279 c -0.6823,-1.09254 -1.2405,-3.01083 -1.2405,-4.26287 0,-1.40161 -0.8647,-2.6558 -2.25,-3.26357 -1.6538,-0.72556 -2.3322,-1.98082 -2.5604,-4.73713 -0.2835,-3.42524 -0.092,-3.75 2.2149,-3.75 2.6948,0 4.5955,2.45437 4.5955,5.93426 0,1.3748 0.6462,2.06574 1.9319,2.06574 2.2878,0 6.0681,4.92431 6.0681,7.90437 0,1.75589 -0.6095,2.09563 -3.7595,2.09563 -2.6678,0 -4.1196,-0.57677 -5,-1.98643 z m -793.06917,-10.9887 c -1.87999,-4.24719 -1.18932,-7.45158 1.69404,-7.85953 3.19298,-0.45177 4.00223,0.58934 4.76099,6.12506 0.6409,4.67588 0.62482,4.7096 -2.24629,4.7096 -2.246,0 -3.18592,-0.66443 -4.20874,-2.97513 z m 727.82867,-1.05625 c 0,-1.77208 0.6231,-3.27051 1.5,-3.60699 0.825,-0.31659 1.5,-1.20246 1.5,-1.96862 0,-0.88112 1.1024,-1.39301 3,-1.39301 2.4448,0 2.9998,0.4164 2.9988,2.25 0,3.00676 -4.2033,7.75 -6.8651,7.75 -1.709,0 -2.1337,-0.60337 -2.1337,-3.03138 z M 776.17652,430.52649 c -0.9625,-0.25152 -1.75,-1.09932 -1.75,-1.88399 0,-0.78468 -0.9,-1.42668 -2,-1.42668 -1.5556,0 -2,-0.66667 -2,-3 0,-2.53333 0.3889,-3 2.5,-3 1.375,0 2.5,0.45 2.5,1 0,0.55 1.125,1 2.5,1 1.375,0 2.5,0.45 2.5,1 0,1.96301 2.6857,0.95589 4,-1.5 1.662,-3.10553 6,-3.51409 6,-0.5651 0,4.1084 -1.8729,7.0651 -4.4752,7.0651 -1.3887,0 -2.5248,0.45 -2.5248,1 0,1.00099 -3.9592,1.17065 -7.25,0.31067 z m -2.75,-29.81067 c 0,-2 0.5,-2.5 2.5,-2.5 2,0 2.5,0.5 2.5,2.5 0,2 -0.5,2.5 -2.5,2.5 -2,0 -2.5,-0.5 -2.5,-2.5 z m 508.99998,-3.5 c 0,-2.66667 0.3333,-3 3,-3 2.6667,0 3,0.33333 3,3 0,2.66667 -0.3333,3 -3,3 -2.6667,0 -3,-0.33333 -3,-3 z m 3,-6.5 c 0,-2 0.5,-2.5 2.5,-2.5 2,0 2.5,0.5 2.5,2.5 0,2 -0.5,2.5 -2.5,2.5 -2,0 -2.5,-0.5 -2.5,-2.5 z m -365.24998,-0.66228 c -2.1418,-0.78227 -2.75,-1.64939 -2.75,-3.92105 0,-2.62508 0.3249,-2.91611 3.25,-2.91109 1.7875,0.003 4.9375,0.47422 7,1.047 2.9661,0.82374 3.75,1.5298 3.75,3.37779 0,3.4191 -5.347,4.5633 -11.25,2.40735 z m -176.75,-17.83772 c 0,-2.53333 0.3889,-3 2.5,-3 2.1111,0 2.5,0.46667 2.5,3 0,2.53333 -0.3889,3 -2.5,3 -2.1111,0 -2.5,-0.46667 -2.5,-3 z m -7,-5.5 c 0,-2.11111 0.4667,-2.5 3,-2.5 2.5333,0 3,0.38889 3,2.5 0,2.11111 -0.4667,2.5 -3,2.5 -2.5333,0 -3,-0.38889 -3,-2.5 z m 608.99998,0 c 0,-2 0.5,-2.5 2.5,-2.5 2,0 2.5,0.5 2.5,2.5 0,2 -0.5,2.5 -2.5,2.5 -2,0 -2.5,-0.5 -2.5,-2.5 z m 1,-9.5 c 0,-3.6 0.25,-4 2.5,-4 2.25,0 2.5,0.4 2.5,4 0,3.6 -0.25,4 -2.5,4 -2.25,0 -2.5,-0.4 -2.5,-4 z m 118.5,-55.57237 c -2.2,-0.7873 -4.9,-1.82009 -6,-2.29508 -1.1,-0.475 -4.7,-1.75776 -8,-2.85059 -5.4926,-1.81892 -6.0265,-2.25313 -6.3134,-5.13446 -0.1745,-1.75315 0.1578,-3.1475 0.75,-3.1475 0.5849,0 1.0634,-1.125 1.0634,-2.5 0,-2.11111 0.4667,-2.5 3,-2.5 2.5333,0 3,0.38889 3,2.5 0,1.7108 -0.5524,2.50289 -1.75,2.50914 -2.5101,0.0131 7.812,4.92203 10.4286,4.95959 1.1982,0.0172 2.8154,0.66816 3.5939,1.44659 0.7784,0.77842 3.5105,1.72952 6.0714,2.11354 3.9755,0.59617 4.6561,1.03142 4.6561,2.97769 0,3.70668 -3.6462,4.37379 -10.5,1.92108 z M 207.42653,299.82281 c 0,-2.99906 1.5915,-3.62609 11,-4.33372 4.7373,-0.3563 7.7946,-1.06306 8.2997,-1.91868 0.458,-0.77589 2.4873,-1.35459 4.75,-1.35459 2.1727,0 3.9503,-0.45 3.9503,-1 0,-0.55 1.35,-1 3,-1 2.5333,0 3,0.38889 3,2.5 0,2.11111 -0.4667,2.5 -3,2.5 -2,0 -3,0.5 -3,1.5 0,1.11111 -1.1667,1.5 -4.5,1.5 -2.475,0 -4.5,0.45 -4.5,1 0,0.55445 -2.647,1 -5.941,1 -3.2675,0 -6.2191,0.45 -6.559,1 -0.3399,0.55 -1.9415,1 -3.559,1 -2.4353,0 -2.941,-0.41145 -2.941,-2.39301 z m -1,-8.10699 c 0,-2.11111 0.4667,-2.5 3,-2.5 2.5333,0 3,0.38889 3,2.5 0,2.11111 -0.4667,2.5 -3,2.5 -2.5333,0 -3,-0.38889 -3,-2.5 z m 7,-1.89301 c 0,-2.43859 1.6461,-3.60699 5.0818,-3.60699 1.4647,0 1.9182,0.7093 1.9182,3 0,2.7619 -0.2778,3 -3.5,3 -3.0249,0 -3.5,-0.32481 -3.5,-2.39301 z m 21,-4.952 c 0,-2.41905 2.7631,-5.65499 4.8287,-5.65499 0.6442,0 1.1713,-0.45 1.1713,-1 0,-0.55 1.8285,-1 4.0634,-1 3.9819,0 4.057,0.0651 3.75,3.25 -0.2588,2.68378 -0.7798,3.3039 -2.9902,3.55936 -1.4723,0.17015 -3.2149,0.95765 -3.8725,1.75 -0.6576,0.79235 -2.4905,1.44064 -4.0731,1.44064 -2.3521,0 -2.8776,-0.42828 -2.8776,-2.34501 z M 1423.0335,274.63403 c -0.3339,-0.86998 -0.607,-2.47349 -0.607,-3.56336 0,-1.63323 0.5713,-1.92648 3.25,-1.66821 2.8577,0.27554 3.2878,0.70564 3.5634,3.56336 0.2896,3.00445 0.09,3.25 -2.6431,3.25 -1.7733,0 -3.1992,-0.63298 -3.5633,-1.58179 z M 242.08153,246.95385 c -1.151,-0.8423 -1.7152,-2.26931 -1.5,-3.79406 0.304,-2.15318 0.9178,-2.48054 5.1588,-2.75137 l 4.8138,-0.30739 -0.3138,3.80739 c -0.2815,3.41528 -0.6228,3.83768 -3.3138,4.10145 -1.65,0.16173 -3.8302,-0.31348 -4.845,-1.05602 z m 586.34499,-4.23803 c 0,-3.22222 0.2381,-3.5 3,-3.5 2.7619,0 3,0.27778 3,3.5 0,3.22222 -0.2381,3.5 -3,3.5 -2.7619,0 -3,-0.27778 -3,-3.5 z m -20,-10.5 c 0,-2.66667 0.3333,-3 3,-3 2.6667,0 3,0.33333 3,3 0,2.66667 -0.3333,3 -3,3 -2.6667,0 -3,-0.33333 -3,-3 z m -580.99999,-3.86619 c -1.8946,-0.53988 -2.5759,-1.48996 -2.8134,-3.92311 -0.2918,-2.99014 -0.5719,-3.2107 -4.0776,-3.2107 -2.0703,0 -6.5547,-1.1339 -9.9654,-2.51977 -4.8436,-1.96812 -6.6379,-2.28605 -8.196,-1.45218 -3.8412,2.05576 -4.9476,-0.7457 -4.9476,-12.52805 0,-13.58031 0.3606,-14.03575 9.1058,-11.50172 3.5168,1.01903 9.5824,2.77668 13.4792,3.9059 8.3273,2.41314 16.415,8.65163 16.415,12.66175 0,2.36003 -0.7672,2.79255 -6.4848,3.6559 -1.4343,0.21658 -2.1533,1.33678 -2.5926,4.03894 -0.565,3.47602 -0.4334,3.73923 1.8688,3.73923 1.3621,0 4.2386,0.52793 6.3923,1.17318 3.3794,1.0125 3.8747,1.5261 3.616,3.75 -0.2689,2.31227 -0.7617,2.59459 -4.7997,2.74993 -2.475,0.0952 -5.625,-0.14747 -7,-0.5393 z m 532.24999,-3.40583 c -4.5647,-0.87752 -5.25,-1.31724 -5.25,-3.36862 0,-1.7819 -0.5521,-2.35936 -2.2559,-2.35936 -1.542,0 -2.6738,-0.94413 -3.5765,-2.98348 -1.6493,-3.72606 -1.2434,-5.98341 1.3324,-7.40934 1.1,-0.60895 2.2409,-1.42742 2.5353,-1.81882 0.2944,-0.3914 6.5944,-0.56552 14,-0.38692 10.25,0.24719 14.6584,0.78126 18.4647,2.23697 4.6212,1.76737 5.0232,2.18992 5.3068,5.57667 0.3652,4.36317 -1.3409,5.7751 -11.3834,9.42034 -6.9049,2.50634 -10.6956,2.72235 -19.1734,1.09256 z m 264.23508,-41.09729 c -4.1014,-1.53821 -7.4851,-5.13953 -7.4851,-7.96663 0,-3.78296 17.0036,-19.09839 26.6618,-24.01475 1.7829,-0.90755 10.3638,-2.49041 19.6754,-3.6294 21.0454,-2.57424 20.6628,-2.58087 20.6628,0.35765 0,1.30765 -0.5981,2.8739 -1.329,3.48055 -0.731,0.60665 -7.3561,2.52655 -14.7226,4.26645 -16.1065,3.80424 -18.8467,4.88535 -23.8578,9.41256 -4.8494,4.38115 -5.3259,6.22133 -2.9724,11.47813 3.3673,7.52106 3.0084,8.00209 -5.8682,7.86544 -4.2625,-0.0656 -9.1067,-0.62812 -10.7649,-1.25 z m -825.23507,-1.12652 c -2.6318,-2.98919 -0.2115,-6.50417 4.4786,-6.50417 3.4311,0 5.2714,1.60343 5.2714,4.59301 0,3.45771 -7.1538,4.85996 -9.75,1.91116 z M 1468.4265,181.251 c 0,-2.99712 2.1996,-5.03518 5.4343,-5.03518 1.16,0 1.5657,1.03647 1.5657,4 0,3.90476 -0.083,4 -3.5,4 -3.213,0 -3.5,-0.24312 -3.5,-2.96482 z m -663.99998,-0.53518 c 0,-2 0.5,-2.5 2.5,-2.5 2,0 2.5,0.5 2.5,2.5 0,2 -0.5,2.5 -2.5,2.5 -2,0 -2.5,-0.5 -2.5,-2.5 z M 1124.4265,156.1494 c 0,-2.75523 0.2791,-3.03431 2.75,-2.75 2.16,0.24853 2.8179,0.90645 3.0664,3.06642 0.2843,2.47092 0,2.75 -2.75,2.75 -2.7552,0 -3.0664,-0.31119 -3.0664,-3.06642 z m -235.99998,-5.64301 c -2.6143,-0.96127 -5,-3.53717 -5,-5.39864 0,-1.90687 -4.6825,-4.55194 -9,-5.0839 -1.8887,-0.23272 -2.5774,-0.98041 -2.8164,-3.05803 -0.174,-1.5125 0.1635,-2.75 0.75,-2.75 0.5865,0 1.0664,-1.11643 1.0664,-2.48095 0,-3.08059 1.0053,-3.3334 16,-4.02397 42.536,-1.95894 45,-1.80001 45,2.90262 0,2.77381 -2.6884,3.98577 -12,5.40972 l -5.5,0.84107 3.75,1.86097 c 2.6924,1.33613 3.75,2.50387 3.75,4.14057 0,3.12993 -2.7863,4.34997 -9.9343,4.34997 l -6.0657,0 0,-3.20295 0,-3.20295 -3.75,3.55365 c -6.8896,6.52882 -10.9873,8.07786 -16.25,6.14282 z M 479.42653,130.15832 c 0,-2.97862 0.10964,-3.04956 4.25,-2.75 3.80293,0.27515 4.28329,0.59678 4.56642,3.0575 0.30431,2.64471 0.1416,2.75 -4.25,2.75 -4.42622,0 -4.56642,-0.0939 -4.56642,-3.0575 z m 466.99999,-0.9425 c 0,-2.93333 0.1111,-3 5,-3 4.593,0 5,0.19284 5,2.36916 0,1.96083 -0.6463,2.47598 -3.75,2.98899 -5.9178,0.97816 -6.25,0.85284 -6.25,-2.35815 z m 60.74998,2.25845 c -3.7125,-0.19241 -6.75,-0.77927 -6.75,-1.30414 0,-0.52487 -0.67498,-0.95431 -1.49998,-0.95431 -2.162,0 -1.9429,-4.73075 0.25,-5.39659 3.58708,-1.08918 21.24998,-0.48699 21.24928,0.72447 -3e-4,0.68794 1.5487,1.17212 3.75,1.17212 3.3483,0 3.7847,0.29505 4.0671,2.75 0.2985,2.5937 0.09,2.75 -3.6766,2.75 -2.9621,0 -4.1112,-0.45186 -4.4505,-1.75 -0.3441,-1.31691 -0.486,-1.19317 -0.5733,0.5 -0.093,1.8116 -0.6518,2.21184 -2.866,2.05414 -1.5125,-0.10772 -5.7875,-0.35328 -9.5,-0.54569 z m 31.5,0.001 c -5.2679,-0.29929 -6.25,-0.64354 -6.25,-2.19074 0,-1.0096 -0.9,-2.071 -2,-2.35866 -2.9018,-0.75883 -2.7156,-5.2852 0.25,-6.07996 4.6643,-1.24999 14.4606,-0.68395 15.7852,0.91209 0.8881,1.07006 1.5992,1.22318 2.3224,0.5 1.3314,-1.33141 6.6424,-1.3653 6.6424,-0.0424 0,0.55 0.3721,1 0.8268,1 0.4548,0 0.6287,-1.35 0.3865,-3 -0.4111,-2.80125 -0.2278,-3 2.7668,-3 2.3355,0 3.3453,0.52843 3.7156,1.94426 0.3423,1.30889 1.5371,2.04416 3.6564,2.25 2.4476,0.23773 3.223,0.83671 3.4854,2.69265 0.4455,3.1508 -1.2603,4.07929 -7.5285,4.09778 -2.855,0.008 -5.4691,0.46531 -5.809,1.01531 -0.3399,0.55 -2.1665,1 -4.059,1 -1.8926,0 -3.441,0.45 -3.441,1 0,0.55 -1.0125,0.9133 -2.25,0.80732 -1.2375,-0.10597 -5.0625,-0.35244 -8.5,-0.54771 z"
     id="path4157"
     inkscape:connector-curvature="0"
     inkscape:export-xdpi="83"
     inkscape:export-ydpi="83" />
  <path
     style="fill:#000000"
     d=""
     id="path4155"
     inkscape:connector-curvature="0" />
</svg>
