<svg id="SvgjsSvg1174" style="position:relative;left:5px" xmlns="http://www.w3.org/2000/svg" version="1.1" width="1444" height="668"
     viewBox="0 0 1444 668">
    <title>Rounded Rectangle 4</title>
    <desc>Created with Avocode.</desc>
    <defs id="SvgjsDefs1175">
        <clipPath id="SvgjsClipPath1178">
            <path id="SvgjsPath1177"
                  d="M412 504L868 504L868 518C868 520.761 865.761 523 863 523L417 523C414.239 523 412 520.761 412 518Z "
                  fill="#ffffff"></path>
        </clipPath>
        <clipPath id="SvgjsClipPath1181">
            <path id="SvgjsPath1180"
                  d="M601 504L680 504L680 509C680 511.761 677.761 514 675 514L606 514C603.239 514 601 511.761 601 509Z "
                  fill="#ffffff"></path>
        </clipPath>
        <clipPath id="SvgjsClipPath1184">
            <path id="SvgjsPath1183"
                  d="M461 293L819 293C821.761 293 824 295.239 824 298L824 506L456 506L456 298C456 295.239 458.239 293 461 293Z "
                  fill="#ffffff"></path>
        </clipPath>
        <clipPath id="SvgjsClipPath1187">
            <path id="SvgjsPath1186"
                  d="M639 300L641 300C642.105 300 643 300.895 643 302L643 304C643 305.105 642.105 306 641 306L639 306C637.895 306 637 305.105 637 304L637 302C637 300.895 637.895 300 639 300Z "
                  fill="#ffffff"></path>
        </clipPath>
        <clipPath id="SvgjsClipPath1190">
            <path id="SvgjsPath1189" d="M465 495L465 310L814 310L814 495Z " fill="#ffffff"></path>
        </clipPath>
        <clipPath id="SvgjsClipPath1193">
            <path id="SvgjsPath1192" d="M601 461L601 463L478 463L478 467L610 467L610 469L476 469L476 461Z "
                  fill="#ffffff"></path>
        </clipPath>
        <clipPath id="SvgjsClipPath1196">
            <path id="SvgjsPath1195" d="M680 461L680 463L803 463L803 467L671 467L671 469L805 469L805 461Z "
                  fill="#ffffff"></path>
        </clipPath>
        <clipPath id="SvgjsClipPath1201">
            <path id="SvgjsPath1200"
                  d="M532 484L532 478C532 478 534.011 479.025 534 481C533.989 482.975 532 484 532 484ZM527 484L531 488L531 474L527 478L524 478L524 484Z "
                  fill="#ffffff"></path>
        </clipPath>
        <clipPath id="SvgjsClipPath1204">
            <path id="SvgjsPath1203"
                  d="M759 481.375L756.027 481.375L758.129 483.477L755.477 486.12899999999996L753.375 484.027L753.375 487L749.625 487L749.625 484.027L747.523 486.12899999999996L744.871 483.477L746.973 481.375L744 481.375L744 477.625L746.973 477.625L744.871 475.522L747.523 472.871L749.625 474.97299999999996L749.625 471.99999999999994L753.375 471.99999999999994L753.375 474.97299999999996L755.477 472.871L758.129 475.522L756.027 477.625L759 477.625ZM751.5 476.688C749.947 476.688 748.688 477.947 748.688 479.5C748.688 481.053 749.947 482.312 751.5 482.312C753.053 482.312 754.313 481.053 754.313 479.5C754.313 477.947 753.053 476.688 751.5 476.688Z "
                  fill="#ffffff"></path>
        </clipPath>
        <clipPath id="SvgjsClipPath1207">
            <path id="SvgjsPath1206" d="M766 485L766 474L784 474L784 485Z " fill="#ffffff"></path>
        </clipPath>
        <clipPath id="SvgjsClipPath1210">
            <path id="SvgjsPath1209"
                  d="M799 485L799 483L803 483L803 481L805 481L805 485ZM803 476L799 476L799 474L805 474L805 478L803 478ZM790 485L790 481L792 481L792 483L796 483L796 485ZM792 476L796 476L796 474L790 474L790 478L792 478Z "
                  fill="#ffffff"></path>
        </clipPath>
        <clipPath id="SvgjsClipPath1213">
            <path id="SvgjsPath1212"
                  d="M693.171 421.741C675.311 470.527 639.743 481 639.743 481C639.743 481 604.4480000000001 470.527 586.724 421.741C569 372.955 574.942 343.222 574.942 343.222C574.942 343.222 592.071 342.705 610.288 337.296C628.505 331.888 639.743 321 639.743 321C639.743 321 651.0680000000001 331.888 669.4250000000001 337.296C687.783 342.705 705.0440000000001 343.222 705.0440000000001 343.222C705.0440000000001 343.222 711.0310000000001 372.955 693.171 421.741Z "
                  fill="#ffffff"></path>
        </clipPath>
        <clipPath id="SvgjsClipPath1216">
            <path id="SvgjsPath1215" d="M639 323L641 323L641 480L639 480Z " fill="#ffffff"></path>
        </clipPath>
    </defs>
    <path id="SvgjsPath1176"
          d="M412 504L868 504L868 518C868 520.761 865.761 523 863 523L417 523C414.239 523 412 520.761 412 518Z "
          fill-opacity="0" fill="#ffffff" stroke-dasharray="0" stroke-linejoin="miter" stroke-linecap="butt"
          stroke-opacity="1" stroke="black" stroke-miterlimit="50" stroke-width="4"
          clip-path="url(&quot;#SvgjsClipPath1178&quot;)" transform="matrix(1,0,0,1,77,-63)"></path>
    <path id="SvgjsPath1179"
          d="M601 504L680 504L680 509C680 511.761 677.761 514 675 514L606 514C603.239 514 601 511.761 601 509Z "
          fill-opacity="0" fill="#ffffff" stroke-dasharray="0" stroke-linejoin="miter" stroke-linecap="butt"
          stroke-opacity="1" stroke="black" stroke-miterlimit="50" stroke-width="4"
          clip-path="url(&quot;#SvgjsClipPath1181&quot;)" transform="matrix(1,0,0,1,77,-63)"></path>
    <path id="SvgjsPath1182"
          d="M461 293L819 293C821.761 293 824 295.239 824 298L824 506L456 506L456 298C456 295.239 458.239 293 461 293Z "
          fill-opacity="0" fill="#ffffff" stroke-dasharray="0" stroke-linejoin="miter" stroke-linecap="butt"
          stroke-opacity="1" stroke="black" stroke-miterlimit="50" stroke-width="4"
          clip-path="url(&quot;#SvgjsClipPath1184&quot;)" transform="matrix(1,0,0,1,77,-63)"></path>
    <path id="SvgjsPath1185"
          d="M639 300L641 300C642.105 300 643 300.895 643 302L643 304C643 305.105 642.105 306 641 306L639 306C637.895 306 637 305.105 637 304L637 302C637 300.895 637.895 300 639 300Z "
          fill-opacity="0" fill="#ffffff" stroke-dasharray="0" stroke-linejoin="miter" stroke-linecap="butt"
          stroke-opacity="1" stroke="black" stroke-miterlimit="50" stroke-width="4"
          clip-path="url(&quot;#SvgjsClipPath1187&quot;)" transform="matrix(1,0,0,1,77,-63)"></path>
    <path id="SvgjsPath1188" d="M465 495L465 310L814 310L814 495Z " fill-opacity="0" fill="#ffffff" stroke-dasharray="0"
          stroke-linejoin="miter" stroke-linecap="butt" stroke-opacity="1" stroke="black" stroke-miterlimit="50"
          stroke-width="4" clip-path="url(&quot;#SvgjsClipPath1190&quot;)" transform="matrix(1,0,0,1,77,-63)"></path>
    <path id="SvgjsPath1191" d="M601 461L601 463L478 463L478 467L610 467L610 469L476 469L476 461Z " fill-opacity="0"
          fill="#ffffff" stroke-dasharray="0" stroke-linejoin="miter" stroke-linecap="butt" stroke-opacity="1"
          stroke="black" stroke-miterlimit="50" stroke-width="4" clip-path="url(&quot;#SvgjsClipPath1193&quot;)"
          transform="matrix(1,0,0,1,77,-63)"></path>
    <path id="SvgjsPath1194" d="M680 461L680 463L803 463L803 467L671 467L671 469L805 469L805 461Z " fill-opacity="0"
          fill="#ffffff" stroke-dasharray="0" stroke-linejoin="miter" stroke-linecap="butt" stroke-opacity="1"
          stroke="black" stroke-miterlimit="50" stroke-width="4" clip-path="url(&quot;#SvgjsClipPath1196&quot;)"
          transform="matrix(1,0,0,1,77,-63)"></path>
    <path id="SvgjsPath1197" d="M488.999 481L476.00100000000003 473.002L476.00100000000003 488.998L488.999 481 "
          fill-opacity="0" fill="#ffffff" stroke-dasharray="0" stroke-linejoin="miter" stroke-linecap="butt"
          stroke-opacity="1" stroke="black" stroke-miterlimit="50" stroke-width="2"
          transform="matrix(1,0,0,1,77,-63)"></path>
    <path id="SvgjsPath1198"
          d="M498.001 476.001L498.001 485.99899999999997L504.001 482.99899999999997L504.001 485.99899999999997L513.999 480.99999999999994L504.00100000000003 476.0009999999999L504.00100000000003 479.0009999999999Z "
          fill-opacity="0" fill="#ffffff" stroke-dasharray="0" stroke-linejoin="miter" stroke-linecap="butt"
          stroke-opacity="1" stroke="black" stroke-miterlimit="50" stroke-width="2"
          transform="matrix(1,0,0,1,77,-63)"></path>
    <path id="SvgjsPath1199"
          d="M532 484L532 478C532 478 534.011 479.025 534 481C533.989 482.975 532 484 532 484ZM527 484L531 488L531 474L527 478L524 478L524 484Z "
          fill-opacity="0" fill="#ffffff" stroke-dasharray="0" stroke-linejoin="miter" stroke-linecap="butt"
          stroke-opacity="1" stroke="black" stroke-miterlimit="50" stroke-width="4"
          clip-path="url(&quot;#SvgjsClipPath1201&quot;)" transform="matrix(1,0,0,1,77,-63)"></path>
    <path id="SvgjsPath1202"
          d="M759 481.375L756.027 481.375L758.129 483.477L755.477 486.12899999999996L753.375 484.027L753.375 487L749.625 487L749.625 484.027L747.523 486.12899999999996L744.871 483.477L746.973 481.375L744 481.375L744 477.625L746.973 477.625L744.871 475.522L747.523 472.871L749.625 474.97299999999996L749.625 471.99999999999994L753.375 471.99999999999994L753.375 474.97299999999996L755.477 472.871L758.129 475.522L756.027 477.625L759 477.625ZM751.5 476.688C749.947 476.688 748.688 477.947 748.688 479.5C748.688 481.053 749.947 482.312 751.5 482.312C753.053 482.312 754.313 481.053 754.313 479.5C754.313 477.947 753.053 476.688 751.5 476.688Z "
          fill-opacity="0" fill="#ffffff" stroke-dasharray="0" stroke-linejoin="miter" stroke-linecap="butt"
          stroke-opacity="1" stroke="black" stroke-miterlimit="50" stroke-width="4"
          clip-path="url(&quot;#SvgjsClipPath1204&quot;)" transform="matrix(1,0,0,1,77,-63)"></path>
    <path id="SvgjsPath1205" d="M766 485L766 474L784 474L784 485Z " fill-opacity="0" fill="#ffffff" stroke-dasharray="0"
          stroke-linejoin="miter" stroke-linecap="butt" stroke-opacity="1" stroke="black" stroke-miterlimit="50"
          stroke-width="4" clip-path="url(&quot;#SvgjsClipPath1207&quot;)" transform="matrix(1,0,0,1,77,-63)"></path>
    <path id="SvgjsPath1208"
          d="M799 485L799 483L803 483L803 481L805 481L805 485ZM803 476L799 476L799 474L805 474L805 478L803 478ZM790 485L790 481L792 481L792 483L796 483L796 485ZM792 476L796 476L796 474L790 474L790 478L792 478Z "
          fill-opacity="0" fill="#ffffff" stroke-dasharray="0" stroke-linejoin="miter" stroke-linecap="butt"
          stroke-opacity="1" stroke="black" stroke-miterlimit="50" stroke-width="4"
          clip-path="url(&quot;#SvgjsClipPath1210&quot;)" transform="matrix(1,0,0,1,77,-63)"></path>
    <path id="SvgjsPath1211"
          d="M693.171 421.741C675.311 470.527 639.743 481 639.743 481C639.743 481 604.4480000000001 470.527 586.724 421.741C569 372.955 574.942 343.222 574.942 343.222C574.942 343.222 592.071 342.705 610.288 337.296C628.505 331.888 639.743 321 639.743 321C639.743 321 651.0680000000001 331.888 669.4250000000001 337.296C687.783 342.705 705.0440000000001 343.222 705.0440000000001 343.222C705.0440000000001 343.222 711.0310000000001 372.955 693.171 421.741Z "
          fill-opacity="0" fill="#ffffff" stroke-dasharray="0" stroke-linejoin="miter" stroke-linecap="butt"
          stroke-opacity="1" stroke="#e32524" stroke-miterlimit="50" stroke-width="4"
          clip-path="url(&quot;#SvgjsClipPath1213&quot;)" transform="matrix(1,0,0,1,77,-63)"></path>
    <path id="SvgjsPath1214" d="M639 323L641 323L641 480L639 480Z " fill-opacity="0" fill="#ffffff" stroke-dasharray="0"
          stroke-linejoin="miter" stroke-linecap="butt" stroke-opacity="1" stroke="#e32524" stroke-miterlimit="50"
          stroke-width="4" clip-path="url(&quot;#SvgjsClipPath1216&quot;)" transform="matrix(1,0,0,1,77,-63)"></path>
    <path id="SvgjsPath1217" d="M567 380C567 380 570.228 407.147 579 425 " fill="#ffffff" fill-opacity="0"
          transform="matrix(1,0,0,1,77,-63)"></path>
    <path id="SvgjsPath1218" d="M567 380C567 380 570.228 407.147 579 425 " fill-opacity="0" fill="#ffffff"
          stroke-dasharray="0" stroke-linejoin="miter" stroke-linecap="butt" stroke-opacity="1" stroke="#e32524"
          stroke-miterlimit="50" stroke-width="1" transform="matrix(1,0,0,1,77,-63)"></path>
    <path id="SvgjsPath1219" d="M721 384C721 384 716.857 412.342 708 429 " fill="#ffffff" fill-opacity="0"
          transform="matrix(1,0,0,1,77,-63)"></path>
    <path id="SvgjsPath1220" d="M721 384C721 384 716.857 412.342 708 429 " fill-opacity="0" fill="#ffffff"
          stroke-dasharray="0" stroke-linejoin="miter" stroke-linecap="butt" stroke-opacity="1" stroke="#e32524"
          stroke-miterlimit="50" stroke-width="1" transform="matrix(1,0,0,1,77,-63)"></path>
    <path id="SvgjsPath1221" d="M586 356C586 356 587.742 406.314 608 439 " fill="#ffffff" fill-opacity="0"
          transform="matrix(1,0,0,1,77,-63)"></path>
    <path id="SvgjsPath1222" d="M586 356C586 356 587.742 406.314 608 439 " fill-opacity="0" fill="#ffffff"
          stroke-dasharray="0" stroke-linejoin="miter" stroke-linecap="butt" stroke-opacity="1" stroke="#e32524"
          stroke-miterlimit="50" stroke-width="1" transform="matrix(1,0,0,1,77,-63)"></path>
    <path id="SvgjsPath1223" d="M590 334C590 334 607.68 331.57 620 324 " fill="#ffffff" fill-opacity="0"
          transform="matrix(1,0,0,1,77,-63)"></path>
    <path id="SvgjsPath1224" d="M590 334C590 334 607.68 331.57 620 324 " fill-opacity="0" fill="#ffffff"
          stroke-dasharray="0" stroke-linejoin="miter" stroke-linecap="butt" stroke-opacity="1" stroke="#e32524"
          stroke-miterlimit="50" stroke-width="1" transform="matrix(1,0,0,1,77,-63)"></path>
    <path id="SvgjsPath1225" d="M714 365C714 365 711.691 413.342 693 441 " fill="#ffffff" fill-opacity="0"
          transform="matrix(1,0,0,1,77,-63)"></path>
    <path id="SvgjsPath1226" d="M714 365C714 365 711.691 413.342 693 441 " fill-opacity="0" fill="#ffffff"
          stroke-dasharray="0" stroke-linejoin="miter" stroke-linecap="butt" stroke-opacity="1" stroke="#e32524"
          stroke-miterlimit="50" stroke-width="1" transform="matrix(1,0,0,1,77,-63)"></path>
    <path id="SvgjsPath1227"
          d="M882.977 290.958L844.927 364.872L844.835 361.849L844.159 361.993L859.581 332.037L859.657 331.888L871.6169500000001 308.65596999999997L871.6170000000001 308.65599999999995L872.2800000000001 307.36799999999994L872.5020000000001 306.9359999999999L846.7180000000001 293.6629999999999L845.8330000000001 295.3829999999999L846.1560000000001 295.5499999999999L845.754 310.0369999999999L834.197 318.7819999999999L833.873 318.61499999999995L832.9870000000001 320.33599999999996L858.7710000000001 333.609L859.581 332.037L859.657 331.888L836.154 319.789L847.582 311.142L847.708 311.142L847.711 311.044L847.789 310.986L847.716 310.882L848.113 296.557L871.6169500000001 308.65597L872.2800000000001 307.36800000000005L872.5020000000001 306.93600000000004L881.1990000000001 290.043L875.82 287.274L876.269 286.402L875.592 285.654L889.982 273.209L890.624 273.918L891.575 274.029L889.807 292.972L888.804 292.85499999999996L888.355 293.727ZM847.606 316.604L848.523 314.824L848.981 313.933L849.439 313.043L862.261 319.64300000000003L861.803 320.53400000000005L861.344 321.42400000000004L860.427 323.20500000000004C858.909 326.15500000000003 855.217 327.28000000000003 852.182 325.718L850.351 324.77500000000003C847.316 323.213 846.087 319.555 847.606 316.60400000000004ZM851.004 309.386L854.808 310.175L854.479 310.005L856.312 306.444L856.642 306.61400000000003L853.7890000000001 303.975L855.1740000000001 302.52200000000005L866.162 312.684L865.469 313.411L865.2800000000001 314.396L850.6250000000001 311.357ZM889.322 276.449L878.0360000000001 286.209L882.942 288.734L883.029 288.779L887.935 291.305ZM852.183 323.466C854.712 324.76800000000003 857.788 323.83 859.054 321.371L859.512 320.481L850.3539999999999 315.766L849.896 316.65700000000004C848.63 319.11600000000004 849.654 322.16400000000004 852.183 323.46600000000007ZM857.929 307.804L856.525 310.53099999999995L862.136 311.69499999999994ZM753.854 438.027L752.988 437.509L761.821 422.60400000000004L744.825 425.96900000000005L744.625 424.9800000000001L744.042 424.15600000000006L766.994 407.9200000000001L767.198 408.2080000000001L785.585 404.5680000000001L841.649 364.90800000000013L842.124 365.22700000000015L841.255 367.63700000000017L786.74 406.20000000000016L777.1850000000001 422.32600000000014L777.389 422.6150000000001L754.437 438.8510000000001ZM775.23 421.669L782.7040000000001 409.056L764.6080000000001 421.85699999999997L757.134 434.46999999999997ZM767.166 410.271L749.071 423.072L763.453 420.224L781.549 407.423Z "
          fill="#ffffff" fill-opacity="1" transform="matrix(1,0,0,1,77,-63)"></path>
    <path id="SvgjsPath1228"
          d="M524.89 363.649L442.604 374.286L445.409 375.394L445.045 375.979L476.64404 371.89434L476.644 371.894L478.395 371.668L478.56 371.646L481.935 397.75600000000003L493.93 389.97700000000003L493.973 389.858L494.06600000000003 389.889L494.14700000000005 389.836L494.21900000000005 389.939L507.79800000000006 394.413L504.42304000000007 368.30333L505.8570000000001 368.118L506.3390000000001 368.055L525.1460000000001 365.624L525.9180000000001 371.6L526.8890000000001 371.47400000000005L527.3610000000001 372.362L543.9270000000001 363.09200000000004L543.4790000000002 362.25000000000006L543.6980000000002 361.32200000000006L525.3200000000002 356.5690000000001L525.0890000000002 357.54800000000006L524.1180000000002 357.67400000000004ZM476.64404 371.89434L478.39500000000004 371.668L478.56000000000006 371.646L504.42304000000007 368.30333L504.42300000000006 368.303L505.8570000000001 368.118L506.3390000000001 368.055L510.0410000000001 396.699L508.1260000000001 396.947L508.07900000000006 396.588L494.3470000000001 392.06300000000005L482.2160000000001 399.93100000000004L482.2620000000001 400.29L480.3470000000001 400.538ZM503.358 379.547L503.089 377.514C502.643 374.144 499.62 371.764 496.336 372.19800000000004L494.355 372.46000000000004L493.36400000000003 372.59200000000004L492.37300000000005 372.723L494.25700000000006 386.961L495.24800000000005 386.829L496.23900000000003 386.69800000000004L498.22 386.43600000000004C501.504 386.002 503.80400000000003 382.91700000000003 503.358 379.547ZM540.661 362.615L527.67 369.884L526.966 364.434L526.953 364.33700000000005L526.249 358.88700000000006ZM492.2 386.948L486.353 373.23499999999996L485.437 373.63999999999993L484.447 373.4869999999999L482.368 388.2499999999999L484.347 388.55599999999987L484.887 384.7239999999999L484.936 385.08999999999986L488.899 384.5649999999999L488.851 384.1989999999999L490.36899999999997 387.7589999999999ZM496.96 384.533L495.96999999999997 384.664L494.62399999999997 374.49399999999997L495.61499999999995 374.363C498.35099999999994 374.001 500.86999999999995 375.984 501.24199999999996 378.793C501.61299999999994 381.601 499.69699999999995 384.171 496.96 384.533ZM485.927 377.342L488.166 382.59299999999996L485.131 382.99399999999997ZM343.026 434.848L343.217 435.834L360.205 432.604L351.276 447.38599999999997L352.136 447.90799999999996L352.71200000000005 448.73299999999995L375.74300000000005 432.72499999999997L375.54100000000005 432.436L385.2010000000001 416.44399999999996L441.4570000000001 377.34399999999994L441.31900000000013 376.79099999999994L438.7620000000001 376.78999999999996L384.0610000000001 414.80999999999995L365.6830000000001 418.30499999999995L365.4810000000001 418.01599999999996L342.4500000000001 434.02299999999997ZM373.595 431.768L355.437 444.38899999999995L362.992 431.87999999999994L381.15000000000003 419.25899999999996ZM365.635 420.359L380.01 417.625L361.852 430.245L347.477 432.979Z "
          fill="#ffffff" fill-opacity="1" transform="matrix(1,0,0,1,77,-63)"></path>
    <path id="SvgjsPath1229"
          d="M1049.55 188.72L1049.68 189.721L1030.77 191.754L1030.6399999999999 190.80499999999998L1029.9199999999998 190.17199999999997L1042.1699999999998 175.60899999999998L1042.9199999999998 176.27599999999998L1043.7899999999997 175.81499999999997L1046.6299999999997 181.15399999999997L1178.4599999999996 110.93799999999997L1189.9699999999996 96.14419999999997L1189.8099999999995 95.83219999999997L1214.6199999999994 82.61559999999997L1215.0999999999995 83.50649999999997L1215.8899999999994 84.12889999999997L1205.2499999999993 97.80369999999998L1222.5399999999993 96.60579999999997L1222.6099999999992 97.61159999999997L1223.0799999999992 98.50259999999997L1198.2699999999993 111.71899999999997L1198.0999999999992 111.40699999999997L1179.3999999999992 112.70299999999997L1047.5699999999993 182.91899999999998L1050.4199999999992 188.259ZM1102.57 186.069L1088.09 186.67399999999998L1079.51 198.35199999999998L1079.68 198.67399999999998L1077.98 199.58299999999997L1064.34 173.98799999999997L1066.05 173.07799999999997L1078.48 196.40899999999996L1086.96 184.86199999999997L1086.96 184.73499999999996L1087.06 184.73099999999997L1087.12 184.65299999999996L1087.2199999999998 184.72399999999996L1101.5399999999997 184.12599999999995L1089.1099999999997 160.79399999999995L1090.8199999999997 159.88499999999996L1104.4499999999998 185.47999999999996L1102.7499999999998 186.38999999999996ZM1182.83 108.614L1202.3899999999999 98.1935L1211.3899999999999 86.6219L1191.83 97.042ZM1183.77 110.379L1198.3899999999999 109.36500000000001L1217.9599999999998 98.9449L1203.3299999999997 99.95870000000001ZM1080.88 168.905L1081.7700000000002 168.435L1083.5300000000002 167.493C1086.4600000000003 165.933 1090.14 167.111 1091.7400000000002 170.123L1092.7100000000003 171.94199999999998C1094.3200000000002 174.95399999999998 1093.2400000000002 178.66099999999997 1090.3100000000002 180.22099999999998L1088.5500000000002 181.16199999999998L1087.66 181.63299999999998L1086.78 182.10399999999998L1080 169.37599999999998ZM1084.84 182.814L1083.4099999999999 184.219L1080.7299999999998 181.403L1080.9099999999999 181.73L1077.37 183.613L1077.1999999999998 183.286L1078.0399999999997 187.08L1076.0699999999997 187.485L1072.8299999999997 172.87400000000002L1073.8099999999997 172.67200000000003L1074.5299999999997 171.96900000000002ZM1082.73 170.253L1087.58 179.344L1088.46 178.873C1090.9 177.57299999999998 1091.8 174.48399999999998 1090.46 171.974C1089.1200000000001 169.463 1086.06 168.482 1083.6200000000001 169.78199999999998ZM1076.82 181.575L1079.52 180.13299999999998L1075.57 175.981ZM1047.99 187.872L1045.4 183.002L1045.3500000000001 182.91500000000002L1042.7500000000002 178.04600000000002L1033.1500000000003 189.466Z "
          fill="#ffffff" fill-opacity="1" transform="matrix(1,0,0,1,77,-63)"></path>
    <path id="SvgjsPath1230"
          d="M821.05201 183.32601L821.052 183.326L819.845 184.84L819.84518 184.84015L803.55922 205.27318L803.559 205.273L802.353 206.786L802.35327 206.78621L790.511 221.644L795.241 225.415L794.63 226.18099999999998L795.147 227.04899999999998L778.594 236.42699999999996L778.104 235.60599999999997L777.1930000000001 235.31099999999998L782.6440000000001 217.08299999999997L783.6050000000001 217.39399999999998L784.2160000000001 216.62699999999998L788.9470000000001 220.39799999999997L882.0430000000001 103.59499999999997L886.7300000000001 85.44699999999997L886.4540000000002 85.22679999999997L903.9770000000002 63.24129999999997L904.7660000000002 63.870299999999965L905.7420000000002 64.12649999999996L901.4100000000002 80.90199999999996L916.7960000000002 72.93719999999996L917.2630000000001 73.83109999999996L918.0530000000001 74.46039999999996L900.5290000000001 96.44589999999997L900.2530000000002 96.22539999999996L883.6070000000002 104.84199999999997ZM842.239 202.688L829.19 208.99499999999998L825.9530000000001 223.12099999999998L826.2370000000001 223.34799999999998L825.0310000000001 224.862L802.3532700000001 206.78620999999998L803.5592200000001 205.27317L824.2310000000001 221.74899L827.4320000000001 207.78099L827.3810000000001 207.66499L827.469 207.62299L827.49 207.52799L827.615 207.55199L840.517 201.31599L819.84518 184.84014L821.05201 183.326L843.729 201.40198999999998L842.523 202.91499ZM886.689 100.975L899.709 94.2355L913.525 76.902L900.505 83.6416ZM885.125 99.7289L898.941 82.39519999999999L902.6070000000001 68.19959999999999L888.791 85.5333ZM815.513 195.553L816.138 194.77L817.3860000000001 193.203C819.4540000000001 190.608 823.2950000000001 190.229 825.964 192.357L827.575 193.641C830.244 195.768 830.731 199.59699999999998 828.663 202.19199999999998L827.414 203.75799999999998L826.1659999999999 205.32399999999998L814.8889999999999 196.33599999999998ZM824.672 206.744L823.9150000000001 208.603L820.339 207.08200000000002L820.629 207.31400000000002L818.1320000000001 210.44600000000003L817.8420000000001 210.21500000000003L820.1220000000001 213.36100000000002L818.479 214.51500000000001L809.6990000000001 202.394L810.5200000000001 201.818L810.8990000000001 200.888ZM817.749 196.054L825.803 202.474L826.428 201.691C828.151 199.528 827.745 196.338 825.521 194.565C823.2969999999999 192.792 820.096 193.108 818.3729999999999 195.27ZM816.814 208.795L818.7249999999999 206.396L813.4519999999999 204.154ZM792.859 226.024L788.5450000000001 222.585L788.4680000000001 222.524L784.153 219.085L779.878 233.37900000000002Z "
          fill="#ffffff" fill-opacity="1" transform="matrix(1,0,0,1,77,-63)"></path>
    <path id="SvgjsPath1231"
          d="M1010.37681 301.14982L1009.76 301.322L1009.76021 301.32276L964.447 314.03200000000004L966.081 319.857L965.1370000000001 320.12100000000004L965.0500000000001 321.127L946.1370000000001 319.059L946.22 318.10600000000005L945.653 317.33400000000006L960.732 305.73300000000006L961.3299999999999 306.5470000000001L962.2739999999999 306.2820000000001L963.9069999999999 312.1060000000001L1107.7199999999998 271.77100000000013L1122.1299999999999 259.78700000000015L1122.04 259.44600000000014L1149.11 251.85400000000013L1149.3799999999999 252.82600000000014L1150.02 253.60400000000013L1136.7 264.68100000000015L1153.8400000000001 267.21500000000015L1153.7 268.21300000000014L1153.97 269.1850000000001L1126.9 276.77800000000013L1126.8000000000002 276.4370000000001L1108.2600000000002 273.69600000000014ZM1017.5 328.894L1003.22 326.383L992.3380000000001 335.95099999999996L992.436 336.301L990.573 336.824L982.742 308.901L984.605 308.379L991.744 333.831L1002.51 324.37L1002.53 324.246L1002.63 324.263L1002.7 324.19899999999996L1002.7900000000001 324.29099999999994L1016.9000000000001 326.7749999999999L1009.7602100000001 301.3227599999999L1010.3768000000001 301.1498199999999L1011.6299900000001 300.7999999999999L1019.4599900000002 328.7219999999999L1017.5999900000002 329.24499999999995ZM1112.48 270.435L1133.83 264.449L1145.1 255.07600000000002L1123.76 261.062ZM1113.02 272.361L1127.53 274.505L1148.87 268.519L1134.37 266.375ZM999.986 307.481L1000.95 307.211L1002.88 306.67C1006.07 305.774 1009.41 307.712 1010.33 310.998L1010.89 312.98199999999997C1011.81 316.268 1009.97 319.659 1006.77 320.55499999999995L1004.84 321.09599999999995L1002.9200000000001 321.63599999999997L999.022 307.75199999999995ZM1000.87 321.915L999.173 322.98L997.16 319.656L997.261 320.01300000000003L993.404 321.095L993.304 320.738L993.313 324.624L991.306 324.59900000000005L991.269 309.63200000000006L992.272 309.64500000000004L993.123 309.112ZM1001.51 309.194L1004.29 319.112L1005.25 318.84200000000004C1007.91 318.095 1009.45 315.26900000000006 1008.68 312.53100000000006C1007.91 309.7920000000001 1005.13 308.1770000000001 1002.4699999999999 308.92400000000004ZM993.299 318.985L996.252 318.15700000000004L993.285 313.25500000000005ZM963.792 318.959L962.302 313.646L962.2760000000001 313.551L960.7860000000001 308.239L948.961 317.337Z "
          fill="#ffffff" fill-opacity="1" transform="matrix(1,0,0,1,77,-63)"></path>
    <path id="SvgjsPath1232"
          d="M896.294 427.56L895.862 428.473L878.851 419.95300000000003L879.26 419.088L878.998 418.16700000000003L897.171 412.538L897.4480000000001 413.509L898.4250000000001 413.589L897.9300000000001 419.618L1046.79 431.847L1064.47 425.62699999999995L1064.5 425.275L1092.52 427.577L1092.44 428.58299999999997L1092.77 429.53599999999994L1076.43 435.28499999999997L1091.6100000000001 443.62399999999997L1091.13 444.51L1091.0500000000002 445.51599999999996L1063.0300000000002 443.215L1063.0600000000002 442.86199999999997L1046.63 433.84L897.7660000000001 421.611L897.2710000000001 427.64099999999996ZM942.329 454.005L929.8209999999999 446.683L916.2869999999999 451.866L916.257 452.228L914.328 452.07L916.703 423.167L918.631 423.32599999999996L916.467 449.67099999999994L929.85 444.5469999999999L929.918 444.4399999999999L930.002 444.48899999999986L930.092 444.45399999999984L930.1419999999999 444.57099999999986L942.5089999999999 451.81099999999986L944.6729999999999 425.46499999999986L946.6019999999999 425.6229999999999L944.2279999999998 454.5259999999999L942.2989999999999 454.3669999999999ZM1051.56 434.245L1064.4099999999999 441.302L1086.4999999999998 443.117L1073.6499999999999 436.06ZM1051.72 432.252L1073.81 434.067L1087.6399999999999 429.202L1065.55 427.387ZM934.361 427.919L936.358 428.08299999999997C939.665 428.354 942.1189999999999 431.332 941.8399999999999 434.734L941.6709999999999 436.787C941.3919999999999 440.18899999999996 938.4839999999999 442.726 935.1769999999999 442.455L931.185 442.127L932.3649999999999 427.755ZM929.173 441.678L927.208 442.084L926.478 438.26800000000003L926.447 438.63700000000006L922.455 438.3090000000001L922.486 437.94000000000005L921.143 441.58600000000007L919.27 440.8640000000001L924.442 426.8200000000001L925.379 427.1810000000001L926.362 426.9770000000001ZM934.193 429.972L933.3489999999999 440.238L934.348 440.319C937.1039999999999 440.546 939.5269999999999 438.43100000000004 939.76 435.59700000000004C939.992 432.76200000000006 937.947 430.28000000000003 935.191 430.05400000000003ZM923.092 436.294L926.148 436.54499999999996L925.072 430.917ZM895.438 426.002L895.89 420.503L895.898 420.405L896.349 414.90599999999995L882.0970000000001 419.32099999999997Z "
          fill="#ffffff" fill-opacity="1" transform="matrix(1,0,0,1,77,-63)"></path>
    <path id="SvgjsPath1233"
          d="M1172.05 359.595L1172.57 365.62100000000004L1171.6 365.706L1171.33 366.67900000000003L1153.12 361.14000000000004L1153.3799999999999 360.218L1152.9699999999998 359.355L1169.9399999999998 350.75L1170.37 351.661L1171.35 351.576L1171.8799999999999 357.60200000000003L1320.6799999999998 344.63000000000005L1337.06 335.52600000000007L1337.03 335.1740000000001L1365.04 332.7320000000001L1365.1299999999999 333.7370000000001L1365.61 334.6210000000001L1350.4699999999998 343.0360000000001L1366.8399999999997 348.7040000000001L1366.5099999999998 349.65800000000013L1366.5999999999997 350.6640000000001L1338.5899999999997 353.1060000000001L1338.5599999999997 352.7530000000001L1320.8499999999997 346.62200000000007L1220.8600499999998 355.33954000000006L1220.8599999999997 355.33900000000006L1219.1436199999996 355.48918000000003L1192.9100299999996 357.77633000000003L1192.9099999999996 357.77599000000004L1190.9799999999996 357.94399000000004L1190.9800499999997 357.94459000000006L1192.9100299999996 357.7763300000001L1195.1999999999996 384.1109900000001L1207.5299999999995 376.8099900000001L1207.5799999999995 376.69299000000007L1207.6699999999994 376.72699000000006L1207.7599999999993 376.6779900000001L1207.8199999999993 376.7849900000001L1221.2299999999993 381.8419900000001L1218.9399999999994 355.50699000000014L1219.1436199999994 355.4891700000002L1220.8600499999993 355.33952000000016L1223.3799999999994 384.22898000000015L1221.4499999999994 384.39698000000016L1221.4199999999994 384.03498000000013L1207.8599999999994 378.9199800000001L1195.3899999999994 386.30398000000014L1195.4199999999994 386.66698000000014L1193.4999999999993 386.83498000000014L1190.9800499999992 357.94458000000014ZM1325.6 344.2L1347.6799999999998 342.275L1360.4999999999998 335.154L1338.4199999999998 337.079ZM1325.77 346.193L1339.6299999999999 350.989L1361.7099999999998 349.063L1347.86 344.267ZM1208.19 359.746L1209.18 359.659L1211.18 359.486C1214.48 359.197 1217.41 361.71999999999997 1217.7 365.12L1217.88 367.173C1218.18 370.573 1215.74 373.563 1212.43 373.852L1210.44 374.02599999999995L1208.44 374.19999999999993L1207.19 359.8329999999999ZM1206.38 374.095L1204.5100000000002 374.826L1203.1500000000003 371.187L1203.1800000000003 371.55600000000004L1199.1900000000003 371.90400000000005L1199.1600000000003 371.535L1198.4500000000003 375.35400000000004L1196.4800000000002 374.958L1199.2200000000003 360.244L1200.2000000000003 360.442L1201.1400000000003 360.077ZM1209.36 361.712L1210.26 371.973L1211.25 371.886C1214.01 371.646 1216.04 369.154 1215.8 366.321C1215.55 363.487 1213.12 361.38500000000005 1210.36 361.625ZM1199.48 369.811L1202.54 369.544L1200.53 364.178ZM1170.49 364.315L1170.01 358.818L1170 358.71999999999997L1169.52 353.22299999999996L1156.22 359.97099999999995Z "
          fill="#ffffff" fill-opacity="1" transform="matrix(1,0,0,1,77,-63)"></path>
    <path id="SvgjsPath1234"
          d="M1169.49453 567.1196L1170.23 567.347L1161.68 595.055L1159.8300000000002 594.4839999999999L1159.93 594.137L1149.3 584.2879999999999L1134.97 586.4269999999999L1134.8600000000001 586.7749999999999L1133.0100000000002 586.2039999999998L1141.5695200000002 558.4965399999999L1143.4194400000003 559.0677799999999L1135.6199900000004 584.3239899999999L1149.7899900000004 582.2089899999999L1149.8799900000004 582.1189899999998L1149.9499900000003 582.1849899999999L1150.0499900000002 582.1699899999999L1150.0699900000002 582.2949899999999L1160.5799900000002 592.0329899999999L1168.3798700000002 566.7753899999999L1169.4945300000002 567.1195899999999L1168.38 566.7749899999999L1168.3798800000002 566.7753899999999L1143.41945 559.0677699999999L1143.42 559.0659799999999L1141.5700000000002 558.4949799999998L1141.5695200000002 558.4965199999998L1123.4100000000003 552.8889799999998L1121.6300000000003 558.6689799999998L1120.6900000000003 558.3789799999998L1120.0700000000004 559.1769799999998L1105.3000000000004 547.1869799999998L1105.8900000000003 546.4299799999999L1105.8300000000004 545.4749799999998L1124.7900000000004 543.8999799999998L1124.8500000000004 544.9079799999998L1125.7900000000004 545.1979799999998L1124.0000000000005 550.9779799999998L1266.7200000000005 595.0489799999998L1285.3300000000004 592.7919799999999L1285.4300000000003 592.4539799999999L1312.2900000000002 600.7499799999999L1312.0000000000002 601.71398L1312.1100000000001 602.71598L1294.91 604.80198L1307.94 616.22298L1307.28 616.98398L1306.98 617.94798L1280.1200000000001 609.6529800000001L1280.22 609.3149800000001L1266.13 596.9599800000001ZM1270.85 598.419L1281.8799999999999 608.083L1303.06 614.6229999999999L1292.03 604.959ZM1271.44 596.508L1292.6200000000001 603.048L1307.18 601.283L1286 594.742ZM1156.83 566.65L1157.79 566.946L1159.7 567.537C1162.8700000000001 568.5160000000001 1164.6200000000001 571.9530000000001 1163.6200000000001 575.215L1163.0100000000002 577.183C1162.0000000000002 580.444 1158.6200000000001 582.294 1155.4400000000003 581.3149999999999L1153.5300000000002 580.7239999999999L1152.5700000000002 580.429L1151.6200000000001 580.1329999999999L1155.8700000000001 566.3549999999999ZM1149.75 579.261L1147.74 579.233L1147.85 575.3489999999999L1147.74 575.703L1143.92 574.521L1144.03 574.1669999999999L1141.93 577.4379999999999L1140.26 576.3289999999998L1148.34 563.7319999999999L1149.1699999999998 564.2859999999998L1150.1799999999998 564.2999999999998ZM1157.18 568.914L1154.14 578.756L1155.1000000000001 579.0509999999999C1157.7400000000002 579.867 1160.5600000000002 578.3259999999999 1161.4 575.608C1162.24 572.89 1160.7800000000002 570.025 1158.13 569.209ZM1144.97 572.692L1147.9 573.597L1148.0700000000002 567.869ZM1120.19 556.674L1121.8200000000002 551.4019999999999L1121.8500000000001 551.3069999999999L1123.4800000000002 546.0349999999999L1108.6100000000004 547.2699999999999Z "
          fill="#ffffff" fill-opacity="1" transform="matrix(1,0,0,1,77,-63)"></path>
    <path id="SvgjsPath1235"
          d="M866.09282 583.88622L866.093 583.886L864.591 582.6659999999999L864.5909800000001 582.6660199999999L844.31096 566.1890399999999L844.3109900000001 566.1889999999999L843.9940300000001 565.9315499999999L828.06299 552.9879999999999L824.24799 557.683L823.48699 557.0649999999999L822.61499 557.574L813.39099 540.934L814.21799 540.451L814.52099 539.544L832.69699 545.165L832.37699 546.1229999999999L833.13799 546.741L829.32399 551.436L945.2489899999999 645.6220000000001L963.35299 650.4780000000001L963.5759899999999 650.2040000000001L985.39699 667.932L984.75999 668.716L984.49499 669.689L967.76099 665.1999999999999L975.58099 680.66L974.68299 681.1189999999999L974.0459900000001 681.9019999999999L952.22599 664.174L952.44899 663.9L943.98799 647.174ZM846.534 604.891L840.349 591.784L826.254 588.415L826.024 588.697L824.522 587.477L842.8090000000001 564.9689999999999L843.99404 565.9315499999999L844.31097 566.1890399999999L827.642 586.7059999999999L841.58 590.0379999999999L841.696 589.9879999999999L841.738 590.0759999999999L841.8320000000001 590.098L841.8070000000001 590.223L847.9220000000001 603.183L864.5909800000002 582.66602L866.0928200000002 583.88622L847.8060000000002 606.394L846.3040000000002 605.174ZM947.826 650.292L954.443 663.375L971.6469999999999 677.352L965.0289999999999 664.269ZM949.087 648.74L966.2909999999999 662.717L980.4509999999999 666.516L963.2479999999999 652.538ZM853.919 578.234L854.696 578.866L856.251 580.129C858.826 582.221 859.169 586.065 857.0169999999999 588.714L855.718 590.3130000000001C853.5649999999999 592.9620000000001 849.733 593.4130000000001 847.1569999999999 591.3210000000001L845.603 590.0580000000001L844.8259999999999 589.4260000000002L844.0479999999999 588.7950000000002L853.1419999999999 577.6030000000002ZM842.642 587.288L840.791 586.513L842.345 582.951L842.111 583.239L839.002 580.7130000000001L839.236 580.426L836.068 582.676L834.93 581.022L847.132 572.356L847.7009999999999 573.182L848.627 573.57ZM853.397 580.464L846.902 588.4590000000001L847.6790000000001 589.091C849.825 590.8340000000001 853.0190000000001 590.458 854.8130000000001 588.251C856.6060000000001 586.043 856.3210000000001 582.84 854.1740000000001 581.096ZM840.665 579.41L843.0459999999999 581.3439999999999L845.337 576.092ZM823.661 555.296L827.14 551.014L827.202 550.937L830.681 546.655L816.427 542.246Z "
          fill="#ffffff" fill-opacity="1" transform="matrix(1,0,0,1,77,-63)"></path>
    <path id="SvgjsPath1236"
          d="M137.70551 175.48379L137.124 175.223L137.12393 175.22315L112.52533 164.19882L111.51398999999999 163.74501L111.51378 163.74548000000001L19.926789999999997 122.69901000000002L1.1829299999999954 122.67701000000001L1.0383499999999954 123.00001L-24.617410000000007 111.50201L-24.204610000000006 110.58001L-24.199410000000007 109.57201L-6.873640000000009 109.59101000000001L-18.41801000000001 96.67201000000001L-17.668610000000008 95.99691000000001L-17.255810000000007 95.07581000000002L8.400029999999994 106.57401000000002L8.255449999999994 106.89701000000001L20.744689999999995 120.87301000000001L157.04599 181.96001L159.51998999999998 176.44001L160.41499 176.84101L161.12599 176.12401L174.33099 189.82101L173.65699 190.50101L173.59799 191.45601000000002L154.58699000000001 190.71501L154.64899000000003 189.70701L153.75399000000002 189.30601L156.22799 183.78501ZM101.419 191.001L99.6531 190.209L111.51379 163.74547L112.52534 164.19881L113.279 164.537L102.46799999999999 188.66L116.79399999999998 188.283L116.89299999999999 188.20399999999998L116.95599999999999 188.27899999999997L117.05299999999998 188.27599999999998L117.06099999999998 188.402L126.31299999999997 199.34599999999998L137.12392999999997 175.22314999999998L137.70550999999998 175.48379999999997L138.89 176.01500999999996L127.02899999999998 202.47900999999996L125.26299999999998 201.68700999999996L125.41199999999998 201.35500999999996L116.05599999999998 190.28800999999996L101.56799999999998 190.66900999999996ZM6.46362 107.919L-13.7637 98.85329999999999L-3.99475 109.78599999999999L16.2326 118.85099999999998ZM-4.8127 111.611L-19.474 111.59400000000001L0.7533299999999983 120.66000000000001L15.414699999999998 120.67600000000002ZM125.391 174.348L126.30300000000001 174.757L128.12800000000001 175.57500000000002C131.15200000000002 176.931 132.50500000000002 180.48100000000002 131.15 183.50400000000002L130.332 185.329C128.977 188.353 125.42699999999999 189.70600000000002 122.40299999999999 188.351L120.57799999999999 187.533L119.66499999999999 187.124L118.75299999999999 186.715L124.47799999999998 173.939ZM117.005 185.631L115.02499999999999 185.345L115.564 181.60399999999998L115.41699999999999 181.932L111.76699999999998 180.296L111.91399999999999 179.968L109.47999999999999 182.85999999999999L107.94999999999999 181.57199999999997L117.32499999999999 170.43199999999996L118.091 171.07699999999997L119.08 171.21899999999997ZM125.485 176.582L121.396 185.708L122.308 186.117C124.828 187.24599999999998 127.786 186.119 128.916 183.599C130.045 181.07899999999998 128.918 178.12099999999998 126.398 176.99099999999999ZM113.012 178.663L115.807 179.916L116.602 174.398ZM171.059 189.336L160.704 178.59500000000003L158.447 183.63000000000002L158.407 183.72000000000003L156.15 188.75500000000002Z "
          fill="#ffffff" fill-opacity="1" transform="matrix(1,0,0,1,77,-63)"></path>
    <path id="SvgjsPath1237"
          d="M283.85398 352.17517L283.854 352.17499999999995L281.936 351.91099999999994L281.93595999999997 351.91126999999994L154.70599999999996 334.405L136.70999999999995 339.647L136.66199999999995 339.998L108.80999999999995 336.16499999999996L108.94799999999995 335.16499999999996L108.66899999999995 334.19599999999997L125.30399999999996 329.34999999999997L110.59599999999996 320.19199999999995L111.12599999999996 319.33299999999997L111.26399999999997 318.33299999999997L139.11599999999996 322.166L139.06799999999996 322.516L154.97899999999996 332.42400000000004L302.94899999999996 352.78400000000005L303.77299999999997 346.79100000000005L304.74499999999995 346.92500000000007L305.22599999999994 346.0370000000001L321.74499999999995 355.4750000000001L321.28899999999993 356.31700000000006L321.5009999999999 357.25000000000006L303.04599999999994 361.87600000000003L302.8229999999999 360.89200000000005L301.8519999999999 360.75800000000004L302.67599999999993 354.76500000000004ZM252.098 377.079L250.181 376.815L254.13400000000001 348.086L256.051 348.35L252.44699999999997 374.538L266.09099999999995 370.154L266.16399999999993 370.05L266.24499999999995 370.104L266.33799999999997 370.074L266.381 370.19300000000004L278.33299999999997 378.09900000000005L281.93595999999997 351.91127000000006L283.85396999999995 352.17518000000007L279.9009899999999 380.9040100000001L277.9829899999999 380.6410100000001L278.0329899999999 380.2800100000001L265.9449899999999 372.2850100000001L252.1469899999999 376.7180100000001ZM137.635 324L115.67599999999999 320.978L128.12099999999998 328.728L150.07999999999998 331.75ZM127.849 330.71L113.773 334.81L135.732 337.832L149.808 333.731ZM270.43 354.366L271.42 354.502L273.40200000000004 354.77500000000003C276.684 355.22600000000006 278.97900000000004 358.254 278.528 361.53700000000003L278.255 363.51800000000003C277.803 366.80100000000004 274.776 369.096 271.493 368.644L269.512 368.371L268.521 368.23499999999996L267.531 368.09899999999993L269.439 354.2299999999999ZM265.549 367.549L263.56899999999996 367.83099999999996L263.03499999999997 364.08899999999994L262.986 364.44499999999994L259.024 363.8999999999999L259.073 363.5429999999999L257.548 367.0019999999999L255.718 366.1959999999999L261.589 352.8719999999999L262.504 353.2749999999999L263.494 353.1339999999999ZM271.148 356.483L269.785 366.39L270.77500000000003 366.526C273.511 366.903 276.03400000000005 364.99 276.41 362.255C276.78700000000003 359.519 274.874 356.996 272.13800000000003 356.62ZM259.76 361.983L262.795 362.4L262.00800000000004 356.881ZM318.469 355.929L305.514 348.527L304.762 353.993L304.749 354.091L303.997 359.557Z "
          fill="#ffffff" fill-opacity="1" transform="matrix(1,0,0,1,77,-63)"></path>
    <path id="SvgjsPath1238"
          d="M99.87156 448.73606L99.9036 448.733L102.666 477.601L100.74 477.785L100.705 477.423L87.1021 472.423L74.69439999999999 479.912L74.72899999999998 480.274L72.80269999999999 480.459L70.03999999999999 451.591L70.30458999999999 451.56559L71.96645 451.40655L74.4846 477.721L86.7536 470.315L86.8011 470.198L86.8925 470.23199999999997L86.9757 470.181L87.0447 470.288L100.495 475.232L97.97713 448.91735000000006L99.87156 448.73605000000003L97.97710000000001 448.91699000000006L97.97713 448.9173400000001L71.96645000000001 451.40654000000006L71.96640000000001 451.4059900000001L70.30459 451.56558000000007L-29.86789999999999 461.15199000000007L-46.17479999999999 470.3939900000001L-46.14109999999999 470.74599000000006L-74.12789999999998 473.42399000000006L-74.22399999999999 472.41899000000006L-74.71789999999999 471.53999000000005L-59.64449999999999 462.99699000000004L-76.06449999999998 457.46799000000004L-75.74649999999998 456.51099000000005L-75.84259999999999 455.50599000000005L-47.85579999999999 452.8269900000001L-47.82219999999999 453.17899000000006L-30.05839999999999 459.1609900000001L118.627 444.9319900000001L118.05 438.9099900000001L119.027 438.8169900000001L119.29 437.84199000000007L137.538 443.22699000000006L137.288 444.14999000000006L137.709 445.0099900000001L120.813 453.75799000000006L120.37 452.8509900000001L119.393 452.9449900000001L118.81700000000001 446.9229900000001ZM-56.855 463.734L-69.61019999999999 470.96299999999997L-47.54509999999999 468.852L-34.78999999999999 461.623ZM-48.8752 454.953L-70.9402 457.065L-57.04560000000001 461.743L-34.980500000000006 459.632ZM87.3438 453.953L88.3392 453.85799999999995L90.3301 453.667C93.6287 453.352 96.5587 455.77 96.87440000000001 459.068L97.06490000000001 461.05899999999997C97.38060000000002 464.35799999999995 94.9624 467.28799999999995 91.6637 467.604L89.67290000000001 467.794L88.6774 467.889L87.682 467.98400000000004L86.34830000000001 454.04800000000006ZM85.6266 467.905L83.7646 468.635L82.3846 465.116L82.41890000000001 465.47499999999997L78.43710000000002 465.85599999999994L78.40280000000001 465.49699999999996L77.71530000000001 469.21399999999994L75.74870000000001 468.85099999999994L78.39680000000001 454.53299999999996L79.38010000000001 454.715L80.31110000000001 454.34999999999997ZM88.5297 455.849L89.48230000000001 465.803L90.47780000000002 465.70799999999997C93.22670000000002 465.445 95.24180000000001 463.003 94.97870000000002 460.25399999999996C94.71570000000001 457.506 92.27400000000002 455.48999999999995 89.52510000000002 455.753ZM78.7131 463.82L81.7619 463.528L79.7269 458.339ZM134.454 444.422L120.144 440.199L120.67 445.69100000000003L120.679 445.78900000000004L121.205 451.28200000000004Z "
          fill="#ffffff" fill-opacity="1" transform="matrix(1,0,0,1,77,-63)"></path>
    <path id="SvgjsPath1239"
          d="M357.44679 191.36381L335.95979 175.14628L335.96 175.146L334.41499999999996 173.98L334.41483999999997 173.98021L254.30699999999996 113.518L236.04099999999997 109.312L235.82799999999997 109.594L213.38799999999998 92.65719999999999L213.99599999999998 91.85139999999998L214.22599999999997 90.86939999999998L231.10999999999996 94.75749999999998L222.74199999999996 79.58629999999998L223.62299999999996 79.09569999999998L224.23099999999997 78.29009999999998L246.67199999999997 95.22699999999998L246.45899999999997 95.50899999999997L255.51099999999997 111.92199999999997L374.72999999999996 201.90299999999996L378.37499999999994 197.07399999999996L379.1569999999999 197.66499999999996L380.00999999999993 197.12499999999997L389.8229999999999 213.42499999999998L389.0139999999999 213.93699999999998L388.7439999999999 214.855L370.37799999999993 209.887L370.66399999999993 208.918L369.8809999999999 208.328L373.5249999999999 203.499L358.3599699999999 192.05304L358.3599999999999 192.053ZM318.489 198.293L316.945 197.127L334.41483999999997 173.98021L335.95979 175.14628L320.035 196.24599999999998L334.083 199.07699999999997L334.197 199.02299999999997L334.242 199.10899999999998L334.33700000000005 199.128L334.31600000000003 199.253L340.891 211.987L356.815 190.887L357.44679 191.36381L358.35997000000003 192.05304L340.89000000000004 215.20000000000002L339.345 214.03400000000002L339.564 213.74400000000003L332.915 200.86600000000004L318.708 198.00300000000004ZM244.484 96.1051L226.792 82.75179999999999L233.873 95.5897L251.565 108.943ZM232.668 97.1862L218.38 93.8961L236.073 107.24900000000001L250.36 110.54ZM345.574 187.414L346.372 188.017L347.969 189.222C350.614 191.21800000000002 351.139 194.98000000000002 349.143 197.625L347.938 199.221C345.942 201.866 342.18 202.392 339.53499999999997 200.39600000000002L337.938 199.191L337.14 198.589L336.342 197.986L344.776 186.81199999999998ZM334.88 196.539L333.015 195.819L334.375 192.292L334.158 192.58L330.966 190.17000000000002L331.183 189.883L328.164 192.15800000000002L326.96 190.561L338.587 181.796L339.18899999999996 182.595L340.12199999999996 182.955ZM345.167 189.613L339.143 197.595L339.941 198.197C342.145 199.861 345.28099999999995 199.423 346.94399999999996 197.218C348.60799999999995 195.01399999999998 348.16999999999996 191.879 345.96599999999995 190.21499999999997ZM332.545 188.856L334.98900000000003 190.701L336.99600000000004 185.5ZM386.742 212.222L379.047 199.43900000000002L375.723 203.84300000000002L375.664 203.92200000000003L372.34 208.32600000000002Z "
          fill="#ffffff" fill-opacity="1" transform="matrix(1,0,0,1,77,-63)"></path>
    <path id="SvgjsPath1240"
          d="M586.07638 243.73164L585.572 242.254L585.57166 242.25411L577.12496 217.52701L577.12499 217.527L577.08019 217.39596999999998L544.0559900000001 120.71999999999997L531.28799 106.99699999999997L530.95299 107.11099999999998L521.86499 80.50629999999998L522.8199900000001 80.17999999999998L523.5609900000001 79.49579999999997L535.3629900000001 92.18029999999997L536.9389900000001 74.92619999999997L537.9429900000001 75.01389999999996L538.8989900000001 74.68759999999996L547.9869900000001 101.29299999999996L547.6519900000001 101.40699999999997L545.9479900000001 120.07299999999996L594.2319900000001 261.41799999999995L599.9559900000002 259.46299999999997L600.2729900000002 260.39099999999996L601.2819900000002 260.42199999999997L600.2709900000002 279.41999999999996L599.3139900000002 279.39099999999996L598.5759900000002 279.99899999999997L586.1519900000002 265.59L586.9309900000002 264.948L586.6139900000002 264.02L592.3389900000002 262.065ZM549.682 226.901L549.056 225.07000000000002L576.499 215.69600000000003L577.0802 217.39597000000003L577.12496 217.52701000000005L552.10999 226.07200000000006L562.15499 236.29200000000006L562.28099 236.31100000000006L562.26899 236.40800000000007L562.33699 236.47700000000006L562.24999 236.56900000000007L560.5559900000001 250.79900000000006L585.5716500000001 242.25411000000005L586.0763700000001 243.73163000000005L586.1969900000001 244.08499000000006L558.7539900000002 253.45899000000006L558.1289900000002 251.62799000000007L558.4729900000002 251.50999000000007L560.1859900000002 237.11899000000008L550.0259900000002 226.78399000000007ZM535.292 95.0649L525.3050000000001 84.3312L532.47 105.30699999999999L542.457 116.04099999999998ZM545.683 100.794L538.518 79.8178L537.1850000000001 94.4184L544.35 115.394ZM578.209 233.076L578.5329999999999 234.022L579.1789999999999 235.915C580.2499999999999 239.051 578.5769999999999 242.46099999999998 575.4409999999998 243.53199999999998L573.5479999999998 244.17899999999997C570.4129999999998 245.24999999999997 567.0019999999997 243.57599999999996 565.9309999999998 240.44099999999997L565.2839999999998 238.54799999999997L564.9609999999998 237.60199999999998L564.6379999999998 236.65499999999997L577.8859999999999 232.12999999999997ZM564.239 234.637L563.097 232.995L566.201 230.838L565.861 230.954L564.567 227.169L564.908 227.05200000000002L561.133 227.24500000000003L561.0310000000001 225.24700000000004L575.5730000000001 224.50700000000003L575.623 225.50500000000002L576.1940000000001 226.32700000000003ZM576.64 234.669L567.177 237.901L567.5 238.848C568.393 241.461 571.235 242.85600000000002 573.848 241.96300000000002C576.461 241.07000000000002 577.856 238.228 576.963 235.615ZM566.612 226.966L567.602 229.864L572.179 226.68200000000002ZM598.394 276.697L599.187 261.798L593.966 263.582L593.873 263.613L588.6510000000001 265.397Z "
          fill="#ffffff" fill-opacity="1" transform="matrix(1,0,0,1,77,-63)"></path>
    <path id="SvgjsPath1241"
          d="M290.18024 506.23481L290.18 506.234L288.324 506.781L288.32422 506.78174L263.26020000000005 514.1676600000001L263.26000000000005 514.167L261.40400000000005 514.714L261.40418000000005 514.7146L165.13300000000004 543.0840000000001L150.87900000000005 555.2560000000001L150.97900000000004 555.5950000000001L124.01000000000005 563.5420000000001L123.72500000000005 562.5740000000002L123.07300000000005 561.8040000000002L136.24900000000005 550.5530000000002L119.07700000000006 548.2440000000003L119.20800000000006 547.2440000000003L118.92300000000006 546.2760000000003L145.89100000000005 538.3290000000003L145.99100000000004 538.6680000000003L164.56700000000004 541.1650000000003L307.84000000000003 498.9450000000003L306.13000000000005 493.14300000000026L307.071 492.86600000000027L307.14500000000004 491.8580000000003L326.083 493.6780000000003L326.01300000000003 494.63300000000027L326.59000000000003 495.3970000000003L311.66400000000004 507.1950000000003L311.05600000000004 506.3890000000003L310.11600000000004 506.6660000000003L308.40600000000006 500.86400000000026ZM271.457 541.985L269.601 542.532L261.40418 514.7146L263.2602 514.1676600000001L270.73199999999997 539.5240000000001L281.371 529.9220000000001L281.395 529.7980000000001L281.491 529.8140000000001L281.563 529.749L281.651 529.84L295.796 532.138L288.32421999999997 506.78174L290.18023999999997 506.2348L298.378 534.05199L296.52099999999996 534.5989900000001L296.419 534.24999L282.113 531.9259900000001L271.355 541.6359900000001ZM139.128 550.747L127.97799999999998 560.2679999999999L149.23999999999998 554.002L160.39 544.481ZM145.294 540.609L124.03200000000001 546.875L138.562 548.828L159.824 542.563ZM279.8 513.463L281.719 512.8979999999999C284.897 511.9609999999999 288.234 513.7789999999999 289.17 516.9569999999999L289.736 518.8759999999999C290.67199999999997 522.0539999999999 288.855 525.3899999999999 285.676 526.3269999999999L283.758 526.8919999999999L282.799 527.175L281.839 527.458L277.882 514.029ZM279.806 527.77L278.11699999999996 528.841L276.09399999999994 525.648L276.19499999999994 525.993L272.35799999999995 527.124L272.25699999999995 526.779L272.28799999999995 530.559L270.28799999999995 530.5749999999999L270.16799999999995 516.015L271.16799999999995 516.007L272.01199999999994 515.472ZM280.366 515.382L283.192 524.9739999999999L284.152 524.6909999999999C286.8 523.911 288.315 521.131 287.534 518.482C286.754 515.833 283.974 514.318 281.325 515.0989999999999ZM272.243 525.073L275.18 524.207L272.196 519.499ZM323.282 495.437L308.431 494.01L309.99 499.303L310.01800000000003 499.397L311.57800000000003 504.69Z "
          fill="#ffffff" fill-opacity="1" transform="matrix(1,0,0,1,77,-63)"></path>
    <path id="SvgjsPath1242"
          d="M359.18008 607.03564L359.241 606.9930099999999L375.86699999999996 630.7539999999999L374.282 631.8639999999999L374.073 631.5649999999999L359.772 633.9159999999999L352.664 646.5459999999999L352.873 646.8439999999999L351.287 647.954L334.661 624.193L336.246 623.084L351.402 644.742L358.43 632.2539999999999L358.414 632.1279999999999L358.51 632.112L358.558 632.028L358.67 632.086L372.81100000000004 629.7620000000001L357.65500000000003 608.1030000000001L359.18008000000003 607.0356400000001L252.43000000000004 681.734L242.79200000000003 697.811L242.99500000000003 698.1L219.96000000000004 714.219L219.38100000000003 713.392L218.51800000000003 712.87L227.42600000000002 698.01L210.413 701.288L210.21900000000002 700.298L209.64000000000001 699.471L232.675 683.353L232.87800000000001 683.6419999999999L251.28300000000002 680.0959999999999L373.661 594.4619999999999L370.193 589.5049999999999L370.99699999999996 588.9429999999999L370.746 587.9649999999999L389.27799999999996 583.661L389.51599999999996 584.588L390.30499999999995 585.129L379.91299999999995 601.065L379.0799999999999 600.494L378.27599999999995 601.057L374.80799999999994 596.1L359.24099999999993 606.99301L359.24099999999993 606.993ZM230.217 697.277L222.679 709.8520000000001L240.84 697.1440000000001L248.37800000000001 684.5690000000001ZM232.835 685.704L214.674 698.4129999999999L229.071 695.6389999999999L247.232 682.9309999999999ZM350.883 617.724L351.702 617.1510000000001L353.341 616.004C356.056 614.104 359.797 614.765 361.697 617.48L362.843 619.119C364.743 621.8340000000001 364.082 625.575 361.367 627.475L359.72900000000004 628.621L358.90900000000005 629.1949999999999L358.09000000000003 629.7679999999999L350.06300000000005 618.2969999999999ZM356.262 630.711L355.002 632.264L352.067 629.8820000000001L352.273 630.177L348.99600000000004 632.47L348.79 632.1750000000001L350.023 635.748L348.132 636.4010000000001L343.383 622.6370000000001L344.328 622.311L344.95799999999997 621.534ZM352.849 618.789L358.582 626.983L359.401 626.409C361.664 624.826 362.21500000000003 621.709 360.63100000000003 619.446C359.048 617.1840000000001 355.93100000000004 616.633 353.668 618.216ZM348.233 630.562L350.743 628.807L346.415 625.293ZM387.183 586.22L372.65 589.595L375.813 594.116L375.87 594.197L379.033 598.718Z "
          fill="#ffffff" fill-opacity="1" transform="matrix(1,0,0,1,77,-63)"></path>
    <path id="SvgjsPath1243"
          d="M535.73508 597.31171L536.1491100000001 596.54305L559.4230100000001 609.07899L560.08801 594.7639899999999L560.01701 594.6589899999999L560.09501 594.6009899999999L560.10001 594.5039899999999L560.22701 594.5059899999999L571.8140099999999 586.0739899999999L548.5410099999999 573.5379899999999L549.1746199999999 572.3605899999999L549.4582099999999 571.8340899999998L574.9900099999999 585.5869799999998L574.0720099999999 587.2909799999998L573.7520099999998 587.1179799999998L562.0340099999999 595.6449799999998L561.3610099999999 610.1229799999998L561.6810099999999 610.2949799999998L560.7630099999999 611.9989799999997L535.23201 598.2459799999997L535.7350899999999 597.3116899999997L487.6370099999999 686.6079799999997L486.25400999999994 705.2999799999997L486.5650099999999 705.4679799999997L473.2320099999999 730.2199799999996L472.3430099999999 729.7419799999997L471.3380099999999 729.6629799999997L472.6170099999999 712.3849799999997L458.89200999999986 722.9599799999997L458.27400999999986 722.1629799999997L457.38500999999985 721.6839799999997L470.71700999999985 696.9319799999997L471.02900999999986 697.0999799999997L485.87600999999984 685.6589799999997L556.7080099999998 554.1579799999997L551.3820099999998 551.2889799999997L551.8470099999998 550.4259799999996L551.1830099999999 549.6649799999997L565.8040099999998 537.4909799999997L566.4330099999999 538.2119799999997L567.3810099999998 538.3399799999997L565.2600099999999 557.2469799999998L564.2590099999999 557.1119799999998L563.7940099999998 557.9749799999998L558.4680099999998 555.1069799999998L549.4582099999998 571.8340899999998L549.4580099999998 571.8339799999999L549.1746199999998 572.3605799999999L536.1491099999997 596.5430299999999L536.1490099999997 596.54297ZM471.918 698.961L461.406 718.476L473.02 709.528L483.531 690.013ZM474.781 710.476L473.699 725.097L484.21000000000004 705.582L485.29200000000003 690.961ZM546.815 585.176L547.2890000000001 584.296L548.238 582.5350000000001C549.8090000000001 579.618 553.4480000000001 578.527 556.3660000000001 580.0980000000001L558.1260000000001 581.047C561.0440000000001 582.618 562.1350000000001 586.2570000000001 560.5630000000001 589.174L559.6150000000001 590.935L559.1410000000001 591.8159999999999L558.667 592.6959999999999L546.341 586.0569999999999ZM557.458 594.36L557.03 596.314L553.337 595.505L553.654 595.675L551.757 599.197L551.4399999999999 599.026L554.1479999999999 601.664L552.752 603.097L542.323 592.936L543.021 592.22L543.235 591.243ZM549.05 585.245L557.8539999999999 589.987L558.328 589.106C559.6379999999999 586.675 558.7289999999999 583.643 556.297 582.333C553.866 581.024 550.8340000000001 581.933 549.524 584.3639999999999ZM550.219 597.836L551.671 595.139L546.226 593.946ZM565.083 540.718L553.617 550.266L558.4749999999999 552.882L558.5619999999999 552.929L563.4189999999999 555.5459999999999Z "
          fill="#ffffff" fill-opacity="1" transform="matrix(1,0,0,1,77,-63)"></path>
    <path id="SvgjsPath1244"
          d="M97.0589 333.503L96.94109999999999 334.497L37.94109999999999 327.497L38.058899999999994 326.503ZM273.069 335.505L272.93100000000004 336.495L229.93100000000004 330.495L230.06900000000005 329.505ZM103.071 317.505L102.929 318.495L74.9293 314.495L75.0707 313.505ZM246.067 374.505L245.93300000000002 375.495L208.93300000000002 370.496L209.067 369.50399999999996Z "
          fill="#ffffff" fill-opacity="1" transform="matrix(1,0,0,1,77,-63)"></path>
    <path id="SvgjsPath1245"
          d="M106.879 548.515L107.12100000000001 549.485L71.12130000000002 558.485L70.87880000000001 557.515Z "
          fill="#ffffff" fill-opacity="1" transform="matrix(1,0,0,1,77,-63)"></path>
    <path id="SvgjsPath1246"
          d="M113.858 564.521L114.14200000000001 565.4789999999999L60.14210000000001 581.4789999999999L59.857900000000015 580.521Z "
          fill="#ffffff" fill-opacity="1" transform="matrix(1,0,0,1,77,-63)"></path>
    <path id="SvgjsPath1247"
          d="M232.865 532.519L233.13500000000002 533.481L176.13500000000002 549.481L175.865 548.519Z " fill="#ffffff"
          fill-opacity="1" transform="matrix(1,0,0,1,77,-63)"></path>
    <path id="SvgjsPath1248"
          d="M296.873 492.516L297.127 493.48400000000004L259.127 503.48400000000004L258.873 502.516Z " fill="#ffffff"
          fill-opacity="1" transform="matrix(1,0,0,1,77,-63)"></path>
    <path id="SvgjsPath1249" d="M343.719 651.586L344.281 652.414L316.281 671.414L315.719 670.586Z " fill="#ffffff"
          fill-opacity="1" transform="matrix(1,0,0,1,77,-63)"></path>
    <path id="SvgjsPath1250" d="M554.559 615.764L555.4409999999999 616.236L532.4409999999999 659.236L531.559 658.764Z "
          fill="#ffffff" fill-opacity="1" transform="matrix(1,0,0,1,77,-63)"></path>
    <path id="SvgjsPath1251" d="M545.577 556.733L546.423 557.2669999999999L522.423 595.2669999999999L521.577 594.733Z "
          fill="#ffffff" fill-opacity="1" transform="matrix(1,0,0,1,77,-63)"></path>
    <path id="SvgjsPath1252"
          d="M500.568 633.748L501.43199999999996 634.2520000000001L487.43199999999996 658.2520000000001L486.568 657.748Z "
          fill="#ffffff" fill-opacity="1" transform="matrix(1,0,0,1,77,-63)"></path>
    <path id="SvgjsPath1253" d="M854.673 611.378L855.327 610.6220000000001L885.327 636.6220000000001L884.673 637.378Z "
          fill="#ffffff" fill-opacity="1" transform="matrix(1,0,0,1,77,-63)"></path>
    <path id="SvgjsPath1254" d="M865.675 602.38L866.3249999999999 601.62L915.3249999999999 643.62L914.675 644.38Z "
          fill="#ffffff" fill-opacity="1" transform="matrix(1,0,0,1,77,-63)"></path>
    <path id="SvgjsPath1255"
          d="M843.695 550.396L844.3050000000001 549.6039999999999L883.3050000000001 579.6039999999999L882.695 580.396Z "
          fill="#ffffff" fill-opacity="1" transform="matrix(1,0,0,1,77,-63)"></path>
    <path id="SvgjsPath1256" d="M956.953 453.498L957.047 452.502L1020.0500000000001 458.502L1019.95 459.498Z "
          fill="#ffffff" fill-opacity="1" transform="matrix(1,0,0,1,77,-63)"></path>
    <path id="SvgjsPath1257" d="M1107.94 446.497L1108.06 445.503L1162.06 451.503L1161.94 452.497Z " fill="#ffffff"
          fill-opacity="1" transform="matrix(1,0,0,1,77,-63)"></path>
    <path id="SvgjsPath1258" d="M1097.95 436.497L1098.05 435.503L1145.05 440.503L1144.95 441.497Z " fill="#ffffff"
          fill-opacity="1" transform="matrix(1,0,0,1,77,-63)"></path>
    <path id="SvgjsPath1259"
          d="M1171.12 266.486L1170.8799999999999 265.514L1233.8799999999999 250.514L1234.12 251.48600000000002Z "
          fill="#ffffff" fill-opacity="1" transform="matrix(1,0,0,1,77,-63)"></path>
    <path id="SvgjsPath1260"
          d="M1162.12 248.484L1161.8799999999999 247.51600000000002L1192.8799999999999 239.51600000000002L1193.12 240.484Z "
          fill="#ffffff" fill-opacity="1" transform="matrix(1,0,0,1,77,-63)"></path>
    <path id="SvgjsPath1261"
          d="M1030.1 325.489L1029.8999999999999 324.51099999999997L1072.8999999999999 315.51099999999997L1073.1 316.489Z "
          fill="#ffffff" fill-opacity="1" transform="matrix(1,0,0,1,77,-63)"></path>
    <path id="SvgjsPath1262"
          d="M1081.11 294.487L1080.8899999999999 293.51300000000003L1119.8899999999999 284.51300000000003L1120.11 285.487Z "
          fill="#ffffff" fill-opacity="1" transform="matrix(1,0,0,1,77,-63)"></path>
    <path id="SvgjsPath1263" d="M1181.05 348.497L1180.95 347.503L1230.95 342.502L1231.05 343.498Z " fill="#ffffff"
          fill-opacity="1" transform="matrix(1,0,0,1,77,-63)"></path>
    <path id="SvgjsPath1264"
          d="M1231.03 383.499L1230.97 382.50100000000003L1286.97 379.50100000000003L1287.03 380.499Z " fill="#ffffff"
          fill-opacity="1" transform="matrix(1,0,0,1,77,-63)"></path>
    <path id="SvgjsPath1265" d="M1231.05 370.498L1230.95 369.502L1260.95 366.502L1261.05 367.498Z " fill="#ffffff"
          fill-opacity="1" transform="matrix(1,0,0,1,77,-63)"></path>
    <path id="SvgjsPath1266" d="M65.9593 481.502L66.0406 482.498L17.0407 486.498L16.959300000000002 485.502Z "
          fill="#ffffff" fill-opacity="1" transform="matrix(1,0,0,1,77,-63)"></path>
    <path id="SvgjsPath1267"
          d="M107.964 437.501L108.036 438.49899999999997L52.0356 442.49899999999997L51.9643 441.501Z " fill="#ffffff"
          fill-opacity="1" transform="matrix(1,0,0,1,77,-63)"></path>
    <path id="SvgjsPath1268" d="M1112.21 179.453L1111.79 178.547L1154.79 158.547L1155.21 159.453Z " fill="#ffffff"
          fill-opacity="1" transform="matrix(1,0,0,1,77,-63)"></path>
    <path id="SvgjsPath1269" d="M1105.22 168.45L1104.78 167.54999999999998L1172.78 134.54999999999998L1173.22 135.45Z "
          fill="#ffffff" fill-opacity="1" transform="matrix(1,0,0,1,77,-63)"></path>
    <path id="SvgjsPath1270"
          d="M1049.24 170.437L1048.76 169.56300000000002L1091.76 145.56300000000002L1092.24 146.437Z " fill="#ffffff"
          fill-opacity="1" transform="matrix(1,0,0,1,77,-63)"></path>
    <path id="SvgjsPath1271" d="M838.379 182.326L837.621 181.674L874.621 138.674L875.379 139.326Z " fill="#ffffff"
          fill-opacity="1" transform="matrix(1,0,0,1,77,-63)"></path>
    <path id="SvgjsPath1272" d="M785.401 210.299L784.5989999999999 209.701L819.5989999999999 162.701L820.401 163.299Z "
          fill="#ffffff" fill-opacity="1" transform="matrix(1,0,0,1,77,-63)"></path>
    <path id="SvgjsPath1273"
          d="M844.397 129.304L843.6030000000001 128.696L866.6030000000001 98.69579999999999L867.397 99.30409999999999Z "
          fill="#ffffff" fill-opacity="1" transform="matrix(1,0,0,1,77,-63)"></path>
    <path id="SvgjsPath1274" d="M598.479 250.856L597.5210000000001 251.144L579.5210000000001 191.144L580.479 190.856Z "
          fill="#ffffff" fill-opacity="1" transform="matrix(1,0,0,1,77,-63)"></path>
    <path id="SvgjsPath1275"
          d="M544.455 214.794L543.5450000000001 215.20600000000002L519.5450000000001 162.20600000000002L520.455 161.794Z "
          fill="#ffffff" fill-opacity="1" transform="matrix(1,0,0,1,77,-63)"></path>
    <path id="SvgjsPath1276"
          d="M548.458 178.799L547.5419999999999 179.201L522.5419999999999 122.201L523.458 121.79899999999999Z "
          fill="#ffffff" fill-opacity="1" transform="matrix(1,0,0,1,77,-63)"></path>
    <path id="SvgjsPath1277"
          d="M373.316 193.613L372.68399999999997 194.387L334.68399999999997 163.387L335.316 162.613Z " fill="#ffffff"
          fill-opacity="1" transform="matrix(1,0,0,1,77,-63)"></path>
    <path id="SvgjsPath1278"
          d="M319.275 176.583L318.72499999999997 177.417L268.72499999999997 144.417L269.275 143.583Z " fill="#ffffff"
          fill-opacity="1" transform="matrix(1,0,0,1,77,-63)"></path>
    <path id="SvgjsPath1279" d="M271.25 165.567L270.75 166.43300000000002L211.75 132.43300000000002L212.25 131.567Z "
          fill="#ffffff" fill-opacity="1" transform="matrix(1,0,0,1,77,-63)"></path>
    <path id="SvgjsPath1280"
          d="M91.2048 186.544L90.79520000000001 187.45600000000002L41.79520000000001 165.45600000000002L42.204800000000006 164.544Z "
          fill="#ffffff" fill-opacity="1" transform="matrix(1,0,0,1,77,-63)"></path>
    <path id="SvgjsPath1281" d="M152.22 172.551L151.78 173.44899999999998L94.7795 145.44899999999998L95.2205 144.551Z "
          fill="#ffffff" fill-opacity="1" transform="matrix(1,0,0,1,77,-63)"></path>
    <path id="SvgjsPath1282"
          d="M62.2076 157.545L61.7924 158.45499999999998L15.7924 137.45499999999998L16.2077 136.545Z " fill="#ffffff"
          fill-opacity="1" transform="matrix(1,0,0,1,77,-63)"></path>
    <path id="SvgjsPath1283"
          d="M444.926 388.867L438.3 387.646L437.07800000000003 394.272L436.75100000000003 394.211L436.69000000000005 394.539L430.0640000000001 393.318L428.8430000000001 399.94399999999996L428.5150000000001 399.88399999999996L428.4540000000001 400.21099999999996L421.82800000000015 398.98999999999995L420.60700000000014 405.61599999999993L420.27900000000017 405.55499999999995L420.21900000000016 405.8829999999999L412.88300000000015 404.53099999999995L413.0740000000001 403.49299999999994L419.7000000000001 404.7149999999999L420.9220000000001 398.08899999999994L421.2490000000001 398.14899999999994L421.31000000000006 397.82099999999997L427.93600000000004 399.04299999999995L429.15700000000004 392.417L429.485 392.477L429.546 392.149L436.17199999999997 393.371L437.393 386.745L437.72099999999995 386.805L437.78099999999995 386.47700000000003L445.11699999999996 387.83000000000004Z "
          fill="#ffffff" fill-opacity="1" transform="matrix(1,0,0,1,77,-63)"></path>
    <path id="SvgjsPath1284"
          d="M509.191 358.953L503.67499999999995 355.08399999999995L499.80499999999995 360.59999999999997L499.53299999999996 360.409L499.34099999999995 360.682L493.82499999999993 356.813L489.9559999999999 362.329L489.6829999999999 362.13800000000003L489.4919999999999 362.41L483.9759999999999 358.541L480.10699999999986 364.058L479.83399999999983 363.866L479.6419999999998 364.139L473.5349999999998 359.856L474.1409999999998 358.992L479.6569999999998 362.86100000000005L483.52599999999984 357.345L483.79899999999986 357.536L483.98999999999984 357.263L489.50699999999983 361.132L493.37599999999986 355.616L493.6489999999999 355.80699999999996L493.83999999999986 355.53499999999997L499.3559999999999 359.404L503.2249999999999 353.888L503.49799999999993 354.07899999999995L503.6889999999999 353.8059999999999L509.7969999999999 358.0899999999999Z "
          fill="#ffffff" fill-opacity="1" transform="matrix(1,0,0,1,77,-63)"></path>
    <path id="SvgjsPath1285"
          d="M851.828 335.764L845.371 337.69L847.298 344.147L846.978 344.242L847.074 344.56100000000004L840.617 346.48800000000006L842.543 352.9440000000001L842.224 353.0400000000001L842.3190000000001 353.3590000000001L835.863 355.2850000000001L837.7890000000001 361.7420000000001L837.4700000000001 361.8370000000001L837.5650000000002 362.1570000000001L830.4170000000001 364.2890000000001L830.1150000000001 363.2780000000001L836.5720000000001 361.3520000000001L834.6450000000001 354.8950000000001L834.9650000000001 354.80000000000007L834.8690000000001 354.48100000000005L841.3260000000001 352.55400000000003L839.4000000000001 346.098L839.719 346.003L839.624 345.683L846.08 343.757L844.154 337.3L844.473 337.205L844.3779999999999 336.88599999999997L851.526 334.753Z "
          fill="#ffffff" fill-opacity="1" transform="matrix(1,0,0,1,77,-63)"></path>
    <path id="SvgjsPath1286"
          d="M843.186 379.946L836.513 379.01300000000003L835.58 385.68600000000004L835.25 385.64000000000004L835.204 385.97L828.531 385.03700000000003L827.5989999999999 391.711L827.2689999999999 391.664L827.2229999999998 391.99399999999997L820.5499999999998 391.06199999999995L819.6169999999998 397.73499999999996L819.2869999999998 397.68899999999996L819.2409999999998 398.01899999999995L811.8529999999997 396.98599999999993L811.9989999999997 395.9409999999999L818.6719999999997 396.8739999999999L819.6049999999997 390.2009999999999L819.9349999999997 390.2469999999999L819.9809999999998 389.9169999999999L826.6539999999998 390.8499999999999L827.5869999999998 384.1769999999999L827.9159999999997 384.2229999999999L827.9629999999997 383.8929999999999L834.6359999999997 384.8259999999999L835.5679999999998 378.1529999999999L835.8979999999998 378.1989999999999L835.9439999999998 377.8689999999999L843.3319999999999 378.9009999999999Z "
          fill="#ffffff" fill-opacity="1" transform="matrix(1,0,0,1,77,-63)"></path>
</svg>
