<svg id="SvgjsSvg1298" xmlns="http://www.w3.org/2000/svg" version="1.1" xmlns:xlink="http://www.w3.org/1999/xlink" xmlns:svgjs="http://svgjs.com/svgjs" width="48" height="45" viewBox="0 0 48 45"><title>Фигура 1</title><desc>Created with Avocode.</desc><defs id="SvgjsDefs1299"></defs><path id="SvgjsPath1300" d="M362.77 1078L361.16999999999996 1081.53L378.88899999999995 1081.53L377.16999999999996 1078Z " fill="#a9a9ab" fill-opacity="1" transform="matrix(1,0,0,1,-346,-1078)"></path><path id="SvgjsPath1301" d="M359.333 1081.47L362.77000000000004 1078L362.77000000000004 1086.78L359.333 1086.78Z " fill="#e4e4e6" fill-opacity="1" transform="matrix(1,0,0,1,-346,-1078)"></path><path id="SvgjsPath1302" d="M380.607 1081.47L377.17 1078L377.17 1086.78L380.607 1086.78Z " fill="#e4e4e6" fill-opacity="1" transform="matrix(1,0,0,1,-346,-1078)"></path><path id="SvgjsPath1303" d="M390.444 1123L349.55600000000004 1123C347.59200000000004 1123 346.00000000000006 1121.39 346.00000000000006 1119.41L346.00000000000006 1085.17L394.00000000000006 1085.17L394.00000000000006 1119.41C394.00000000000006 1121.39 392.4080000000001 1123 390.4440000000001 1123Z " fill="#edefee" fill-opacity="1" transform="matrix(1,0,0,1,-346,-1078)"></path><path id="SvgjsPath1304" d="M346 1104L346 1085L394 1085L394 1104Z " fill="#e3e4e6" fill-opacity="1" transform="matrix(1,0,0,1,-346,-1078)"></path><path id="SvgjsPath1305" d="M363.317 1123L350.141 1123C349.797 1121.5 349.615 1119.94 349.615 1118.34C349.615 1114.06 350.911 1110.09 353.128 1106.8Z " fill="#4cae4c" fill-opacity="1" transform="matrix(1,0,0,1,-346,-1078)"></path><path id="SvgjsPath1306" d="M369.526 1109.97C369.526 1109.97 362.964 1113.33 362.533 1116.19C362.103 1119.05 362.77000000000004 1123 362.77000000000004 1123L362.29600000000005 1123L353.06800000000004 1106.89C356.72700000000003 1101.4 362.94500000000005 1097.7800000000002 370.00000000000006 1097.7800000000002C378.39400000000006 1097.7800000000002 385.60100000000006 1102.9 388.72700000000003 1110.2100000000003Z " fill="#e84e49" fill-opacity="1" transform="matrix(1,0,0,1,-346,-1078)"></path><path id="SvgjsPath1307" d="M363.778 1113.5C365.159 1109.64 371.007 1109.2 371.007 1109.2L388.261 1109.2C389.62 1111.95 390.38500000000005 1115.05 390.38500000000005 1118.3400000000001C390.38500000000005 1119.94 390.20300000000003 1121.5000000000002 389.85900000000004 1123.0000000000002L363.482 1123.0000000000002C363.482 1123.0000000000002 362.396 1117.3500000000001 363.778 1113.5000000000002Z " fill="#fbd132" fill-opacity="1" transform="matrix(1,0,0,1,-346,-1078)"></path><path id="SvgjsPath1308" d="M362.36 1123C361.53000000000003 1121.63 361.052 1120.03 361.052 1118.31C361.052 1113.34 365.045 1109.31 369.97 1109.31C374.896 1109.31 378.889 1113.34 378.889 1118.31C378.889 1120.03 378.41 1121.6299999999999 377.581 1123Z " fill="#fbf6f3" fill-opacity="1" transform="matrix(1,0,0,1,-346,-1078)"></path><path id="SvgjsPath1309" d="M364.244 1123C363.21200000000005 1121.72 362.593 1120.09 362.593 1118.31C362.593 1114.2 365.896 1110.87 369.97 1110.87C374.045 1110.87 377.348 1114.1999999999998 377.348 1118.31C377.348 1120.09 376.729 1121.72 375.697 1123Z " fill="#4b88b8" fill-opacity="1" transform="matrix(1,0,0,1,-346,-1078)"></path></svg>