<svg id="SvgjsSvg1394" xmlns="http://www.w3.org/2000/svg" version="1.1" xmlns:xlink="http://www.w3.org/1999/xlink" xmlns:svgjs="http://svgjs.com/svgjs" width="86" height="95" viewBox="0 0 86 95"><title>Rounded Rectangle 8 copy</title><desc>Created with Avocode.</desc><defs id="SvgjsDefs1395"><clipPath id="SvgjsClipPath1401"><path id="SvgjsPath1400" d="M917 1485L991 1485L991 1554C991 1558.42 987.418 1562 983 1562L925 1562C920.582 1562 917 1558.42 917 1554Z " fill="#ffffff"></path></clipPath><clipPath id="SvgjsClipPath1405"><path id="SvgjsPath1404" d="M931 1493L935 1493C936.105 1493 937 1493.9 937 1495L937 1552C937 1553.1 936.105 1554 935 1554L931 1554C929.895 1554 929 1553.1 929 1552L929 1495C929 1493.9 929.895 1493 931 1493Z " fill="#ffffff"></path></clipPath><clipPath id="SvgjsClipPath1409"><path id="SvgjsPath1408" d="M945 1493L949 1493C950.105 1493 951 1493.9 951 1495L951 1552C951 1553.1 950.105 1554 949 1554L945 1554C943.895 1554 943 1553.1 943 1552L943 1495C943 1493.9 943.895 1493 945 1493Z " fill="#ffffff"></path></clipPath><clipPath id="SvgjsClipPath1413"><path id="SvgjsPath1412" d="M959 1493L963 1493C964.105 1493 965 1493.9 965 1495L965 1552C965 1553.1 964.105 1554 963 1554L959 1554C957.895 1554 957 1553.1 957 1552L957 1495C957 1493.9 957.895 1493 959 1493Z " fill="#ffffff"></path></clipPath><clipPath id="SvgjsClipPath1417"><path id="SvgjsPath1416" d="M973 1493L977 1493C978.105 1493 979 1493.9 979 1495L979 1552C979 1553.1 978.105 1554 977 1554L973 1554C971.895 1554 971 1553.1 971 1552L971 1495C971 1493.9 971.895 1493 973 1493Z " fill="#ffffff"></path></clipPath><clipPath id="SvgjsClipPath1421"><path id="SvgjsPath1420" d="M915 1475L993 1475C995.209 1475 997 1476.79 997 1479L997 1487L911 1487L911 1479C911 1476.79 912.791 1475 915 1475Z " fill="#ffffff"></path></clipPath></defs><path id="SvgjsPath1396" d="M964 1480L962 1480L962 1472L946 1472L946 1480L944 1480C942.895 1480 942 1479.1 942 1478L942 1470C942 1468.9 942.895 1468 944 1468L964 1468C965.105 1468 966 1468.9 966 1470L966 1478C966 1479.1 965.105 1480 964 1480Z " fill="#9fd9db" fill-opacity="1" transform="matrix(1,0,0,1,-911,-1467)"></path><path id="SvgjsPath1397" d="M964 1480L962 1480L962 1472L946 1472L946 1480L944 1480C942.895 1480 942 1479.1 942 1478L942 1470C942 1468.9 942.895 1468 944 1468L964 1468C965.105 1468 966 1468.9 966 1470L966 1478C966 1479.1 965.105 1480 964 1480Z " fill-opacity="0" fill="#ffffff" stroke-dasharray="0" stroke-linejoin="round" stroke-linecap="round" stroke-opacity="1" stroke="#262626" stroke-miterlimit="50" stroke-width="2" transform="matrix(1,0,0,1,-911,-1467)"></path><path id="SvgjsPath1398" d="M917 1485L991 1485L991 1554C991 1558.42 987.418 1562 983 1562L925 1562C920.582 1562 917 1558.42 917 1554Z " fill="#c6eae9" fill-opacity="1" transform="matrix(1,0,0,1,-911,-1467)"></path><path id="SvgjsPath1399" d="M917 1485L991 1485L991 1554C991 1558.42 987.418 1562 983 1562L925 1562C920.582 1562 917 1558.42 917 1554Z " fill-opacity="0" fill="#ffffff" stroke-dasharray="0" stroke-linejoin="round" stroke-linecap="round" stroke-opacity="1" stroke="#262626" stroke-miterlimit="50" stroke-width="4" clip-path="url(&quot;#SvgjsClipPath1401&quot;)" transform="matrix(1,0,0,1,-911,-1467)"></path><path id="SvgjsPath1402" d="M931 1493L935 1493C936.105 1493 937 1493.9 937 1495L937 1552C937 1553.1 936.105 1554 935 1554L931 1554C929.895 1554 929 1553.1 929 1552L929 1495C929 1493.9 929.895 1493 931 1493Z " fill="#9fd9db" fill-opacity="1" transform="matrix(1,0,0,1,-911,-1467)"></path><path id="SvgjsPath1403" d="M931 1493L935 1493C936.105 1493 937 1493.9 937 1495L937 1552C937 1553.1 936.105 1554 935 1554L931 1554C929.895 1554 929 1553.1 929 1552L929 1495C929 1493.9 929.895 1493 931 1493Z " fill-opacity="0" fill="#ffffff" stroke-dasharray="0" stroke-linejoin="round" stroke-linecap="round" stroke-opacity="1" stroke="#262626" stroke-miterlimit="50" stroke-width="4" clip-path="url(&quot;#SvgjsClipPath1405&quot;)" transform="matrix(1,0,0,1,-911,-1467)"></path><path id="SvgjsPath1406" d="M945 1493L949 1493C950.105 1493 951 1493.9 951 1495L951 1552C951 1553.1 950.105 1554 949 1554L945 1554C943.895 1554 943 1553.1 943 1552L943 1495C943 1493.9 943.895 1493 945 1493Z " fill="#9fd9db" fill-opacity="1" transform="matrix(1,0,0,1,-911,-1467)"></path><path id="SvgjsPath1407" d="M945 1493L949 1493C950.105 1493 951 1493.9 951 1495L951 1552C951 1553.1 950.105 1554 949 1554L945 1554C943.895 1554 943 1553.1 943 1552L943 1495C943 1493.9 943.895 1493 945 1493Z " fill-opacity="0" fill="#ffffff" stroke-dasharray="0" stroke-linejoin="round" stroke-linecap="round" stroke-opacity="1" stroke="#262626" stroke-miterlimit="50" stroke-width="4" clip-path="url(&quot;#SvgjsClipPath1409&quot;)" transform="matrix(1,0,0,1,-911,-1467)"></path><path id="SvgjsPath1410" d="M959 1493L963 1493C964.105 1493 965 1493.9 965 1495L965 1552C965 1553.1 964.105 1554 963 1554L959 1554C957.895 1554 957 1553.1 957 1552L957 1495C957 1493.9 957.895 1493 959 1493Z " fill="#9fd9db" fill-opacity="1" transform="matrix(1,0,0,1,-911,-1467)"></path><path id="SvgjsPath1411" d="M959 1493L963 1493C964.105 1493 965 1493.9 965 1495L965 1552C965 1553.1 964.105 1554 963 1554L959 1554C957.895 1554 957 1553.1 957 1552L957 1495C957 1493.9 957.895 1493 959 1493Z " fill-opacity="0" fill="#ffffff" stroke-dasharray="0" stroke-linejoin="round" stroke-linecap="round" stroke-opacity="1" stroke="#262626" stroke-miterlimit="50" stroke-width="4" clip-path="url(&quot;#SvgjsClipPath1413&quot;)" transform="matrix(1,0,0,1,-911,-1467)"></path><path id="SvgjsPath1414" d="M973 1493L977 1493C978.105 1493 979 1493.9 979 1495L979 1552C979 1553.1 978.105 1554 977 1554L973 1554C971.895 1554 971 1553.1 971 1552L971 1495C971 1493.9 971.895 1493 973 1493Z " fill="#9fd9db" fill-opacity="1" transform="matrix(1,0,0,1,-911,-1467)"></path><path id="SvgjsPath1415" d="M973 1493L977 1493C978.105 1493 979 1493.9 979 1495L979 1552C979 1553.1 978.105 1554 977 1554L973 1554C971.895 1554 971 1553.1 971 1552L971 1495C971 1493.9 971.895 1493 973 1493Z " fill-opacity="0" fill="#ffffff" stroke-dasharray="0" stroke-linejoin="round" stroke-linecap="round" stroke-opacity="1" stroke="#262626" stroke-miterlimit="50" stroke-width="4" clip-path="url(&quot;#SvgjsClipPath1417&quot;)" transform="matrix(1,0,0,1,-911,-1467)"></path><path id="SvgjsPath1418" d="M915 1475L993 1475C995.209 1475 997 1476.79 997 1479L997 1487L911 1487L911 1479C911 1476.79 912.791 1475 915 1475Z " fill="#c6eae9" fill-opacity="1" transform="matrix(1,0,0,1,-911,-1467)"></path><path id="SvgjsPath1419" d="M915 1475L993 1475C995.209 1475 997 1476.79 997 1479L997 1487L911 1487L911 1479C911 1476.79 912.791 1475 915 1475Z " fill-opacity="0" fill="#ffffff" stroke-dasharray="0" stroke-linejoin="round" stroke-linecap="round" stroke-opacity="1" stroke="#262626" stroke-miterlimit="50" stroke-width="4" clip-path="url(&quot;#SvgjsClipPath1421&quot;)" transform="matrix(1,0,0,1,-911,-1467)"></path></svg>