<svg id="SvgjsSvg1000" xmlns="http://www.w3.org/2000/svg" version="1.1" xmlns:xlink="http://www.w3.org/1999/xlink" xmlns:svgjs="http://svgjs.com/svgjs" width="26" height="34" viewBox="0 0 26 34"><title>Shape 2</title><desc>Created with Avocode.</desc><defs id="SvgjsDefs1001"></defs><path id="SvgjsPath1007" d="M284.86798 345.44061C284.95365 345.70087 285 345.97901 285 346.268L285 352C285 358.075 280.075 363 274 363C267.925 363 263 358.075 263 352L263 346.268C263 346.05174 263.02596 345.84155 263.07492 345.64038999999997C263.03348 345.45730999999995 263.01239000000004 345.25951999999995 263.01300000000003 345.046C263.01300000000003 345.046 262.80300000000005 340.945 264.84400000000005 338.878C266.77200000000005 336.926 268.00000000000006 336 268.00000000000006 336C268.00000000000006 336 268.00000000000006 337.142 269.00000000000006 338C269.46900000000005 338.402 270.00000000000006 339 270.00000000000006 339C270.00000000000006 339 269.19100000000003 337.369 270.00000000000006 336C270.8090000000001 334.631 272.00000000000006 334 272.00000000000006 334C272.00000000000006 334 272.34100000000007 335.974 273.00000000000006 337C273.65900000000005 338.026 275.00000000000006 339 275.00000000000006 339C275.00000000000006 339 274.25500000000005 337.919 274.00000000000006 337C273.75900000000007 336.13 275.00000000000006 335 275.00000000000006 335C275.00000000000006 335 274.77000000000004 336.071 278.00000000000006 337C281.2300000000001 337.929 282.00000000000006 341 282.00000000000006 341C282.00000000000006 341 282.42400000000004 340.059 282.13200000000006 339.367C281.94700000000006 338.932 282.00000000000006 338 282.00000000000006 338C282.00000000000006 338 285.0040000000001 339.805 284.9870000000001 344.903C284.9862600000001 345.09996 284.9456400000001 345.27848 284.8679800000001 345.44061Z " fill="#212121" fill-opacity="1" transform="matrix(1,0,0,1,-261,-334)"></path><path id="SvgjsPath1008" d="M262.857 356.027C261.77900000000005 355.651 261 354.585 261 353.328C261 352.07 261.779 351.00399999999996 262.857 350.628ZM285.143 350.628C286.22099999999995 351.00399999999996 287 352.07 287 353.328C287 354.585 286.221 355.65099999999995 285.143 356.027ZM274 341C280.075 341 285 345.925 285 352L285 357C285 363.075 280.075 368 274 368C267.925 368 263 363.075 263 357L263 352C263 345.925 267.925 341 274 341Z " fill="#f0ccad" fill-opacity="1" transform="matrix(1,0,0,1,-261,-334)"></path><path id="SvgjsPath1009" d="M265 344.509C265 344.509 265.817 346.992 269.692 346.999C273.567 347.007 282.009 343.483 282.009 343.483C282.009 343.483 279.627 338.82 274 339C268.373 339.18 265 344.509 265 344.509Z " fill="#212121" fill-opacity="1" transform="matrix(1,0,0,1,-261,-334)"></path><path id="SvgjsPath1010" d="M269 351C270.105 351 271 351.895 271 353C271 354.105 270.105 355 269 355C267.895 355 267 354.105 267 353C267 351.895 267.895 351 269 351Z " fill="#f3f4f5" fill-opacity="1" transform="matrix(1,0,0,1,-261,-334)"></path><path id="SvgjsPath1011" d="M269 352C269.552 352 270 352.448 270 353C270 353.552 269.552 354 269 354C268.448 354 268 353.552 268 353C268 352.448 268.448 352 269 352Z " fill="#616465" fill-opacity="1" transform="matrix(1,0,0,1,-261,-334)"></path><path id="SvgjsPath1012" d="M267.5 348L271.5 348C271.776 348 272 348.224 272 348.5C272 348.776 271.776 349 271.5 349L267.5 349C267.224 349 267 348.776 267 348.5C267 348.224 267.224 348 267.5 348Z " fill="#a68f7b" fill-opacity="1" transform="matrix(1,0,0,1,-261,-334)"></path><path id="SvgjsPath1013" d="M279 351C280.105 351 281 351.895 281 353C281 354.105 280.105 355 279 355C277.895 355 277 354.105 277 353C277 351.895 277.895 351 279 351Z " fill="#f3f4f5" fill-opacity="1" transform="matrix(1,0,0,1,-261,-334)"></path><path id="SvgjsPath1014" d="M279 352C279.552 352 280 352.448 280 353C280 353.552 279.552 354 279 354C278.448 354 278 353.552 278 353C278 352.448 278.448 352 279 352Z " fill="#616465" fill-opacity="1" transform="matrix(1,0,0,1,-261,-334)"></path><path id="SvgjsPath1015" d="M276.5 348L280.5 348C280.776 348 281 348.224 281 348.5C281 348.776 280.776 349 280.5 349L276.5 349C276.224 349 276 348.776 276 348.5C276 348.224 276.224 348 276.5 348Z " fill="#a68f7b" fill-opacity="1" transform="matrix(1,0,0,1,-261,-334)"></path><path id="SvgjsPath1016" d="M271 357C271 357 270.381 358.993 274 359C277.619 359.007 277 357 277 357C277 357 276.789 358.024 274 358C271.211 357.976 271 357 271 357Z " fill="#d5b194" fill-opacity="1" transform="matrix(1,0,0,1,-261,-334)"></path><path id="SvgjsPath1017" d="M268.01 359.992C268.01 359.992 268.394 364.969 274.008 365.009C279.621 365.04900000000004 280.005 359.992 280.005 359.992Z " fill="#ffffff" fill-opacity="1" transform="matrix(1,0,0,1,-261,-334)"></path></svg>