<svg id="SvgjsSvg1292" xmlns="http://www.w3.org/2000/svg" version="1.1" xmlns:xlink="http://www.w3.org/1999/xlink" xmlns:svgjs="http://svgjs.com/svgjs" width="22" height="22" viewBox="0 0 22 22"><title>Shape 1</title><desc>Created with Avocode.</desc><defs id="SvgjsDefs1293"></defs><path id="SvgjsPath1294" d="M701 586C694.925 586 690 581.075 690 575C690 568.925 694.925 564 701 564C707.075 564 712 568.925 712 575C712 581.075 707.075 586 701 586ZM701 565.467C695.735 565.467 691.467 569.735 691.467 575C691.467 580.265 695.735 584.533 701 584.533C706.265 584.533 710.533 580.265 710.533 575C710.533 569.735 706.265 565.467 701 565.467ZM698.066 579.566C698.066 579.092 698.066 570.772 698.066 570.445C698.066 570.0210000000001 698.4920000000001 569.706 698.913 569.9540000000001C699.25 570.153 705.986 574.162 706.561 574.5050000000001C706.938 574.7300000000001 706.932 575.2680000000001 706.561 575.4930000000002C706.147 575.7450000000001 699.385 579.7750000000002 698.895 580.0550000000002C698.537 580.2600000000002 698.066 580.0330000000001 698.066 579.5660000000001Z " fill="#e32524" fill-opacity="1" transform="matrix(1,0,0,1,-690,-564)"></path></svg>