<?xml version="1.0" encoding="utf-8"?>
<!-- Generator: Adobe Illustrator 18.1.1, SVG Export Plug-In . SVG Version: 6.00 Build 0)  -->
<svg version="1.1" id="Layer_1" xmlns="http://www.w3.org/2000/svg" xmlns:xlink="http://www.w3.org/1999/xlink" x="0px" y="0px"
	 viewBox="0 0 26 32" enable-background="new 0 0 26 32" xml:space="preserve">
<path fill="#818181" d="M25.7,21.9l-8.9-8.9l8.9-8.8c0.3-0.3,0.3-1,0-1.3l-2.5-2.5C23,0.1,22.8,0,22.5,0S22,0.1,21.9,0.2L13,9
	L4.1,0.2C4,0.1,3.7,0,3.5,0S3,0.1,2.8,0.2L0.2,2.8c-0.3,0.3-0.3,1,0,1.3l8.9,8.8l-8.9,8.9C0.2,22,0,22.3,0,22.5
	c0,0.2,0.1,0.5,0.2,0.6l2.5,2.5C3,25.9,3.2,26,3.5,26s0.5-0.1,0.7-0.2l8.9-8.9l8.9,8.9c0.2,0.2,0.4,0.2,0.6,0.2s0.5-0.1,0.6-0.2
	l2.5-2.5c0.2-0.2,0.2-0.4,0.2-0.6C26,22.3,25.8,22,25.7,21.9z"/>
</svg>
