<?xml version="1.0" encoding="utf-8"?>
<!-- Generator: Adobe Illustrator 18.1.1, SVG Export Plug-In . SVG Version: 6.00 Build 0)  -->
<svg version="1.1" id="Layer_1" xmlns="http://www.w3.org/2000/svg" xmlns:xlink="http://www.w3.org/1999/xlink" x="0px" y="0px"
	 viewBox="0 0 26 32" enable-background="new 0 0 26 32" xml:space="preserve">
<g id="Layer_3">
	<circle fill="#B0B0B0" cx="13" cy="13" r="13"/>
</g>
<g id="Layer_4">
	<path fill="#FFFFFF" d="M18.9,17.1L14.8,13l4.1-4.1c0.2-0.1,0.2-0.4,0-0.6l-1.2-1.2C17.6,7,17.5,7,17.4,7s-0.2,0-0.3,0.1L13,11.2
		L8.9,7.1C8.8,7,8.7,7,8.6,7C8.5,7,8.4,7,8.3,7.1L7.1,8.3C7,8.5,7,8.8,7.1,8.9l4.1,4L7.1,17c0,0.2-0.1,0.3-0.1,0.4s0,0.2,0.1,0.3
		l1.2,1.2C8.4,19,8.5,19,8.6,19s0.2,0,0.3-0.1l4.1-4.1l4.1,4.1c0.1,0.1,0.2,0.1,0.3,0.1s0.2,0,0.3-0.1l1.2-1.2
		c0.1-0.1,0.1-0.2,0.1-0.3C19,17.3,18.9,17.2,18.9,17.1z"/>
</g>
</svg>
