<?xml version="1.0" encoding="utf-8"?>
<!-- Generator: Adobe Illustrator 18.1.1, SVG Export Plug-In . SVG Version: 6.00 Build 0)  -->
<svg version="1.1" id="Layer_1" xmlns="http://www.w3.org/2000/svg" xmlns:xlink="http://www.w3.org/1999/xlink" x="0px" y="0px"
	 viewBox="0 0 26 32" enable-background="new 0 0 26 32" xml:space="preserve">
<g>
	<path fill="#888888" d="M0.9,12.1C0.8,12.5,0,13.2,0,13.7c-0.1,0.9,1.1,2.5,1.8,2.8C3,17,9.2,16.7,9.2,16.7c0.6,1.1-1.1,3.7-1.5,4.9
		c-0.7,1.6-0.6,3.9,0.3,5c1,1.4,2.9,1.5,3,0.9c0.3-4.5,1.1-5.8,2.3-6.7c0.7-0.5,1.3-1,1.6-1.8c1.9-5,3.4-6.2,4.2-6.2h0.6V1.4
		l-5.7-1.1c0,0-7.1-0.7-9.3,0c-0.7,0.2-1.9,1.3-2.2,2C2,2.7,2.3,3.6,2.1,4C1.8,4.6,0.6,5.3,0.6,6c0,0.6,0.6,1.5,0.6,2
		C1.1,8.7,0,9.4,0,10S1,11.5,0.9,12.1z"/>
	<path fill="#888888" d="M20.5,1.6c0-0.6,0.5-1.1,1.1-1.1h3.3C25.5,0.5,26,1,26,1.6v10.6c0,0.6-0.5,1.1-1.1,1.1h-3.3c-0.6,0-1.1-0.5-1.1-1.1V1.6z"
		/>
</g>
</svg>
