<?xml version="1.0" encoding="utf-8"?>
<!-- Generator: Adobe Illustrator 18.1.1, SVG Export Plug-In . SVG Version: 6.00 Build 0)  -->
<svg version="1.1" id="Layer_1" xmlns="http://www.w3.org/2000/svg" xmlns:xlink="http://www.w3.org/1999/xlink" x="0px" y="0px"
	 viewBox="0 0 26 32" enable-background="new 0 0 26 32" xml:space="preserve">
<g id="Layer_1_copy">
	<path id="Shape_1_" fill="#666666" d="M13,0C5.8,0,0,5.8,0,13s5.8,13,13,13s13-5.9,13-13S20.1,0,13,0L13,0z M13,23.9
		C7,23.9,2.1,19,2.1,13S7,2.1,13,2.1S23.9,7,23.9,13S19,23.9,13,23.9z"/>
</g>
<g id="Layer_5">
	<polygon fill="#666666" points="20.5,9.8 19.4,8.1 12.6,12.2 7.8,17.8 9.4,19.1 13.8,13.6 	"/>
</g>
<g id="Layer_3">
	<circle fill="#666666" cx="13" cy="3.9" r="1.3"/>
	<circle fill="#666666" cx="13" cy="22.1" r="1.3"/>
	<circle fill="#666666" cx="22.1" cy="13" r="1.3"/>
	<circle fill="#666666" cx="3.9" cy="13" r="1.3"/>
</g>
</svg>
