<?xml version="1.0" encoding="utf-8"?>
<!-- Generator: Adobe Illustrator 18.1.1, SVG Export Plug-In . SVG Version: 6.00 Build 0)  -->
<svg version="1.1" id="Layer_2" xmlns="http://www.w3.org/2000/svg" xmlns:xlink="http://www.w3.org/1999/xlink" x="0px" y="0px"
	 viewBox="0 0 26 32" enable-background="new 0 0 26 32" xml:space="preserve">
<g id="Livello_82">
	<path  fill="#666666" d="M26,7c0-3.9-3.1-7-7-7c-2.5,0-4.8,1.4-6,3.4C11.8,1.4,9.6,0,7,0C3.1,0,0,3.1,0,7c0,2,0.8,3.8,2.2,5.1l0,0l10,9.5
		c0.2,0.2,0.5,0.3,0.8,0.3c0.3,0,0.5-0.1,0.8-0.3L23.7,12l0,0C25.2,10.7,26,9,26,7"/>
</g>
</svg>
