<?xml version="1.0" encoding="utf-8"?>
<!-- Generator: Adobe Illustrator 18.1.1, SVG Export Plug-In . SVG Version: 6.00 Build 0)  -->
<svg version="1.1" id="Layer_1" xmlns="http://www.w3.org/2000/svg" xmlns:xlink="http://www.w3.org/1999/xlink" x="0px" y="0px"
	 viewBox="0 0 26 32" enable-background="new 0 0 26 32" xml:space="preserve">
<g id="Layer_2">
	
		<linearGradient id="SVGID_1_" gradientUnits="userSpaceOnUse" x1="22" y1="46.0769" x2="22" y2="20.0769" gradientTransform="matrix(0.5909 0 0 -0.5909 0 27.2273)">
		<stop  offset="0" style="stop-color:#F3F3F3"/>
		<stop  offset="1" style="stop-color:#DFDFDF"/>
	</linearGradient>
	<path fill="url(#SVGID_1_)" d="M24.2,15.4H1.8c-0.9,0-1.8-0.8-1.8-1.8V1.8C0,0.8,0.8,0,1.8,0h22.5c1,0,1.8,0.8,1.8,1.8v11.8
		C26,14.5,25.2,15.4,24.2,15.4z"/>
</g>
<g id="Layer_3">
	<g>
		<path fill="#5C5C5C" d="M10.2,7.9H6.8l-0.8,4H4.1L6,3h1.8L7.1,6.4h3.4L11.2,3h1.8l-1.8,8.9H9.4L10.2,7.9z"/>
		<path fill="#5C5C5C" d="M12.8,11.8L14.7,3H17c0.7,0,1.1,0,1.3,0.1c0.4,0.1,0.7,0.1,1,0.2c0.3,0.1,0.5,0.3,0.8,0.5
			c0.2,0.2,0.4,0.5,0.6,0.7c0.2,0.2,0.3,0.6,0.4,1c0.1,0.4,0.1,0.8,0.1,1.2c0,0.9-0.2,1.8-0.5,2.5c-0.4,0.8-0.8,1.3-1.4,1.8
			c-0.4,0.4-0.9,0.6-1.7,0.8c-0.4,0.1-0.9,0.1-1.8,0.1L12.8,11.8L12.8,11.8z M14.9,10.4h0.9c0.7,0,1.2-0.1,1.5-0.1
			c0.3-0.1,0.6-0.2,0.8-0.5c0.4-0.4,0.6-0.8,0.9-1.3c0.2-0.5,0.4-1.2,0.4-1.9c0-0.7-0.1-1.1-0.3-1.4s-0.5-0.5-0.8-0.6
			c-0.2-0.1-0.6-0.1-1.1-0.1h-1.1L14.9,10.4z"/>
	</g>
</g>
</svg>
