<?xml version="1.0" encoding="utf-8"?>
<!-- Generator: Adobe Illustrator 18.1.1, SVG Export Plug-In . SVG Version: 6.00 Build 0)  -->
<svg version="1.1" id="Layer_1" xmlns="http://www.w3.org/2000/svg" xmlns:xlink="http://www.w3.org/1999/xlink" x="0px" y="0px"
	 viewBox="0 0 26 32" enable-background="new 0 0 26 32" xml:space="preserve">
<g>
	<path fill="#2f2f2f" d="M25.1,15.7c0.1-0.4,0.9-1.1,0.9-1.6c0.1-0.8-1.1-2.5-1.8-2.8c-1.2-0.5-7.4-0.3-7.4-0.3
		c-0.6-1.1,1.1-3.7,1.5-4.9c0.7-1.6,0.6-3.9-0.3-5c-1-1.4-2.9-1.5-3-0.9c-0.3,4.5-1.1,5.8-2.3,6.7c-0.7,0.5-1.3,1-1.6,1.8
		C9.3,13.8,7.8,15,7,15H6.4v11.4l5.7,1.1c0,0,7.1,0.7,9.3,0c0.7-0.2,1.9-1.3,2.2-2c0.2-0.4-0.1-1.3,0.1-1.7c0.3-0.6,1.5-1.3,1.5-2
		c0-0.6-0.6-1.5-0.6-2c0.1-0.6,1.1-1.3,1.1-1.8C26,17.3,25,16.3,25.1,15.7z"/>
	<path fill="#2f2f2f" d="M5.5,26.2c0,0.6-0.5,1.1-1.1,1.1H1.1c-0.6,0-1.1-0.5-1.1-1.1V15.6c0-0.6,0.5-1.1,1.1-1.1h3.3
		c0.6,0,1.1,0.5,1.1,1.1C5.5,15.6,5.5,26.2,5.5,26.2z"/>
</g>
</svg>
