<?xml version="1.0" encoding="utf-8"?>
<!-- Generator: Adobe Illustrator 18.1.1, SVG Export Plug-In . SVG Version: 6.00 Build 0)  -->
<svg version="1.0" id="Layer_1" xmlns="http://www.w3.org/2000/svg" xmlns:xlink="http://www.w3.org/1999/xlink" x="0px" y="0px"
	 viewBox="0 0 24 24" enable-background="new 0 0 24 24" xml:space="preserve">
<title></title>
<g id="Icons_with_numbers">
	<g id="Group" transform="translate(-768.000000, -48.000000)">
		<path fill="#989898" id="Shape_copy" d="M781.5,57v4.5c0,3-3,6-6,6v3h4.5V72h-10.5v-1.5h4.5v-3c-3,0-6-3-6-6V57h1.5v4.5c0,2.2,2.2,4.5,4.5,4.5
			h1.5c2.2,0,4.5-2.2,4.5-4.5V57H781.5z M774,48h1.5c1.7,0,3,1.3,3,3v10.5c0,1.6-1.3,3-3,3H774c-1.7,0-3-1.3-3-3V51
			C771,49.4,772.3,48,774,48z M772.5,49.5V51h1.5v-1.5H772.5z M775.5,49.5V51h1.5v-1.5H775.5z M771,51v1.5h1.5V51H771z M774,51v1.5
			h1.5V51H774z M777,51v1.5h1.5V51H777z M772.5,52.5V54h1.5v-1.5H772.5z M775.5,52.5V54h1.5v-1.5H775.5z M771,54v1.5h1.5V54H771z
			 M774,54v1.5h1.5V54H774z M777,54v1.5h1.5V54H777z M772.5,55.5V57h1.5v-1.5H772.5z M775.5,55.5V57h1.5v-1.5H775.5z"/>
	</g>
</g>
</svg>
