<?xml version="1.0" encoding="utf-8"?>
<!-- Generator: Adobe Illustrator 18.1.1, SVG Export Plug-In . SVG Version: 6.00 Build 0)  -->
<svg version="1.1" xmlns="http://www.w3.org/2000/svg" xmlns:xlink="http://www.w3.org/1999/xlink" x="0px" y="0px"
	 viewBox="0 0 24 24" enable-background="new 0 0 24 24" xml:space="preserve">
<g id="storiesTEST" display="none">
	<path display="inline" fill="#ffffff" d="M20.8,0H3.2C1.5,0,0,1.5,0,3.2v8C0,12.9,1.5,14,3.2,14h3.2c-0.2,3-4.1,4.7-4.1,4.7
		s6.3,1.3,8-4.7h10.5c1.7,0,3.2-1.1,3.2-2.8v-8C24,1.5,22.5,0,20.8,0z M16,10.5c0,0.3-0.2,0.5-0.5,0.5H4.5C4.2,11,4,10.8,4,10.5v-1
		C4,9.2,4.2,9,4.5,9h10.9C15.8,9,16,9.2,16,9.5V10.5z M18,7.5C18,7.8,17.8,8,17.5,8H4.5C4.2,8,4,7.8,4,7.5v-1C4,6.2,4.2,6,4.5,6
		h12.9C17.8,6,18,6.2,18,6.5V7.5z M20,4.5C20,4.8,19.8,5,19.5,5H4.5C4.2,5,4,4.8,4,4.5v-1C4,3.2,4.2,3,4.5,3h14.9
		C19.8,3,20,3.2,20,3.5V4.5z"/>
</g>
<g id="stories" display="none">
	<path display="inline" fill="#ffffff" d="M20.8,0H3.2C1.5,0,0,1.5,0,3.2v8C0,12.9,1.5,14,3.2,14h3.2c-0.2,3-4.1,4.7-4.1,4.7
		s6.3,1.3,8-4.7h10.5c1.7,0,3.2-1.1,3.2-2.8v-8C24,1.5,22.5,0,20.8,0z M12,12H4c-0.5,0-1-0.5-1-1s0.5-1,1-1h8c0.5,0,1,0.5,1,1
		S12.5,12,12,12z M16,8H4C3.5,8,3,7.5,3,7s0.5-1,1-1h12c0.5,0,1,0.5,1,1S16.5,8,16,8z M20,4H4C3.5,4,3,3.5,3,3s0.5-1,1-1h16
		c0.5,0,1,0.5,1,1S20.5,4,20,4z"/>
</g>
<g id="photos">
	<path fill="#ffffff" d="M21,2h-5c0-1.1-0.9-2-2-2h-4C8.9,0,8,0.9,8,2H3C1.3,2,0,3.3,0,5v9c0,1.7,1.3,3,3,3h18c1.7,0,3-1.4,3-3V5
		C24,3.3,22.7,2,21,2z M12,14c-2.8,0-5-2.2-5-5s2.2-5,5-5s5,2.2,5,5S14.8,14,12,14z"/>
</g>
<g id="videos" display="none">
	<path display="inline" fill="#ffffff" d="M24,3c0-1.7-1.3-3-3-3H3C1.3,0,0,1.3,0,3v11c0,1.7,1.3,3,3,3h18c1.7,0,3-1.3,3-3V3z
		 M11,2.5C11,2.8,10.8,3,10.5,3h-2C8.2,3,8,2.8,8,2.5v-1C8,1.2,8.2,1,8.5,1h2C10.8,1,11,1.2,11,1.5V2.5z M15.5,8.5l-5.5,4v-8
		L15.5,8.5z M6,15.5C6,15.8,5.8,16,5.5,16h-2C3.2,16,3,15.8,3,15.5v-1C3,14.2,3.2,14,3.5,14h2C5.8,14,6,14.2,6,14.5V15.5z M6,2.5
		C6,2.8,5.8,3,5.5,3h-2C3.2,3,3,2.8,3,2.5v-1C3,1.2,3.2,1,3.5,1h2C5.8,1,6,1.2,6,1.5V2.5z M11,15.5c0,0.3-0.2,0.5-0.5,0.5h-2
		C8.2,16,8,15.8,8,15.5v-1C8,14.2,8.2,14,8.5,14h2c0.3,0,0.5,0.2,0.5,0.5V15.5z M16,15.5c0,0.3-0.2,0.5-0.5,0.5h-2
		c-0.3,0-0.5-0.2-0.5-0.5v-1c0-0.3,0.2-0.5,0.5-0.5h2c0.3,0,0.5,0.2,0.5,0.5V15.5z M16,2.5C16,2.8,15.8,3,15.5,3h-2
		C13.2,3,13,2.8,13,2.5v-1C13,1.2,13.2,1,13.5,1h2C15.8,1,16,1.2,16,1.5V2.5z M21,15.5c0,0.3-0.2,0.5-0.5,0.5h-2
		c-0.3,0-0.5-0.2-0.5-0.5v-1c0-0.3,0.2-0.5,0.5-0.5h2c0.3,0,0.5,0.2,0.5,0.5V15.5z M21,2.5C21,2.8,20.8,3,20.5,3h-2
		C18.2,3,18,2.8,18,2.5v-1C18,1.2,18.2,1,18.5,1h2C20.8,1,21,1.2,21,1.5V2.5z"/>
</g>
<g id="UPOLOAD_VIDEO" display="none">
	<path display="inline" fill="#ffffff" d="M21,0H3C1.3,0,0,1.3,0,3v11c0,1.7,1.3,3,3,3h18c1.7,0,3-1.3,3-3V3C24,1.3,22.7,0,21,0z
		 M13,1.5C13,1.2,13.2,1,13.5,1h2C15.8,1,16,1.2,16,1.5v1C16,2.8,15.8,3,15.5,3h-2C13.2,3,13,2.8,13,2.5V1.5z M20.5,8.5l-5.5,4v-8
		L20.5,8.5z M8,1.5C8,1.2,8.2,1,8.5,1h2C10.8,1,11,1.2,11,1.5v1C11,2.8,10.8,3,10.5,3h-2C8.2,3,8,2.8,8,2.5V1.5z M3,1.5
		C3,1.2,3.2,1,3.5,1h2C5.8,1,6,1.2,6,1.5v1C6,2.8,5.8,3,5.5,3h-2C3.2,3,3,2.8,3,2.5V1.5z M10,14h0.5c0.3,0,0.5,0.2,0.5,0.5v1
		c0,0.3-0.2,0.5-0.5,0.5h-2C8.2,16,8,15.8,8,15.5V15H6v0.5C6,15.8,5.8,16,5.5,16h-2C3.2,16,3,15.8,3,15.5v-1C3,14.2,3.2,14,3.5,14H4
		 M6,15v-0.5C6,14.2,5.8,14,5.5,14h3C8.2,14,8,14.2,8,14.5V15 M4,13v-2h6v2H4z M10,8v2H4V8H1.5L7,2.5L12.5,8H10z M16,15.5
		c0,0.3-0.2,0.5-0.5,0.5h-2c-0.3,0-0.5-0.2-0.5-0.5v-1c0-0.3,0.2-0.5,0.5-0.5h2c0.3,0,0.5,0.2,0.5,0.5V15.5z M21,15.5
		c0,0.3-0.2,0.5-0.5,0.5h-2c-0.3,0-0.5-0.2-0.5-0.5v-1c0-0.3,0.2-0.5,0.5-0.5h2c0.3,0,0.5,0.2,0.5,0.5V15.5z M21,2.5
		C21,2.8,20.8,3,20.5,3h-2C18.2,3,18,2.8,18,2.5v-1C18,1.2,18.2,1,18.5,1h2C20.8,1,21,1.2,21,1.5V2.5z"/>
</g>
<g id="premiumVideos" display="none">
	<path display="inline" fill="#ffffff" d="M21,0H3C1.3,0,0,1.3,0,3v11c0,1.7,1.3,3,3,3h18c1.7,0,3-1.3,3-3V3C24,1.3,22.7,0,21,0z
		 M13,1.5C13,1.2,13.2,1,13.5,1h2C15.8,1,16,1.2,16,1.5v1C16,2.8,15.8,3,15.5,3h-2C13.2,3,13,2.8,13,2.5V1.5z M20.5,8.5l-5.5,4v-8
		L20.5,8.5z M8,1.5C8,1.2,8.2,1,8.5,1h2C10.8,1,11,1.2,11,1.5v1C11,2.8,10.8,3,10.5,3h-2C8.2,3,8,2.8,8,2.5V1.5z M3,1.5
		C3,1.2,3.2,1,3.5,1h2C5.8,1,6,1.2,6,1.5v1C6,2.8,5.8,3,5.5,3h-2C3.2,3,3,2.8,3,2.5V1.5z M6,15.5C6,15.8,5.8,16,5.5,16h-2
		C3.2,16,3,15.8,3,15.5v-1C3,14.2,3.2,14,3.5,14h2C5.8,14,6,14.2,6,14.5V15.5z M11,15.5c0,0.3-0.2,0.5-0.5,0.5h-2
		C8.2,16,8,15.8,8,15.5v-1C8,14.2,8.2,14,8.5,14h2c0.3,0,0.5,0.2,0.5,0.5V15.5z M10.4,9.6l0.5,3.2l-2.8-1.5l-2.8,1.5l0.5-3.2
		L3.5,7.3l3.2-0.5L8.1,4l1.4,2.9l3.2,0.5L10.4,9.6z M16,15.5c0,0.3-0.2,0.5-0.5,0.5h-2c-0.3,0-0.5-0.2-0.5-0.5v-1
		c0-0.3,0.2-0.5,0.5-0.5h2c0.3,0,0.5,0.2,0.5,0.5V15.5z M21,15.5c0,0.3-0.2,0.5-0.5,0.5h-2c-0.3,0-0.5-0.2-0.5-0.5v-1
		c0-0.3,0.2-0.5,0.5-0.5h2c0.3,0,0.5,0.2,0.5,0.5V15.5z M21,2.5C21,2.8,20.8,3,20.5,3h-2C18.2,3,18,2.8,18,2.5v-1
		C18,1.2,18.2,1,18.5,1h2C20.8,1,21,1.2,21,1.5V2.5z"/>
</g>
<g id="categories" display="none">
	<g display="inline">
		<path fill="#278AFF" d="M3,0H1C0.5,0,0,0.5,0,1v2c0,0.5,0.5,1,1,1h2c0.5,0,1-0.5,1-1V1C4,0.5,3.5,0,3,0z"/>
		<path fill="#278AFF" d="M23,0H7C6.5,0,6,0.5,6,1v2c0,0.5,0.5,1,1,1h16c0.5,0,1-0.5,1-1V1C24,0.5,23.5,0,23,0z"/>
		<path fill="#278AFF" d="M3,7H1C0.5,7,0,7.5,0,8v2c0,0.5,0.5,1,1,1h2c0.5,0,1-0.5,1-1V8C4,7.5,3.5,7,3,7z"/>
		<path fill="#278AFF" d="M23,7H7C6.5,7,6,7.5,6,8v2c0,0.5,0.5,1,1,1h16c0.5,0,1-0.5,1-1V8C24,7.5,23.5,7,23,7z"/>
		<path fill="#278AFF" d="M3,14H1c-0.5,0-1,0.5-1,1v2c0,0.5,0.5,1,1,1h2c0.5,0,1-0.5,1-1v-2C4,14.5,3.5,14,3,14z"/>
		<path fill="#278AFF" d="M23,14H7c-0.5,0-1,0.5-1,1v2c0,0.5,0.5,1,1,1h16c0.5,0,1-0.5,1-1v-2C24,14.5,23.5,14,23,14z"/>
	</g>
</g>
<g id="cam" display="none">
	<rect x="24" y="21.2" display="inline" fill="#ffffff" width="0" height="0"/>
	<g display="inline">
		<path fill="#ffffff" d="M12,20c5.5,0,10-4.5,10-10c0-5.5-4.5-10-10-10S2,4.5,2,10C2,15.5,6.5,20,12,20z M12,4c3.3,0,6,2.7,6,6
			s-2.7,6-6,6s-6-2.7-6-6S8.7,4,12,4z"/>
		<circle fill="#ffffff" cx="12" cy="10" r="3.5"/>
		<path fill="#ffffff" d="M19,19.6c-0.2-0.2-0.5-0.4-0.7-0.5c-1.8,1.2-4,2-6.3,2c-2.3,0-4.5-0.7-6.2-1.9c-0.2,0.1-0.5,0.3-0.7,0.5
			C3,21.3,0.2,24,1.9,24h1.6c0.3,0,0.5-0.1,0.7-0.3c1.5-1.1,4.4-1.8,7.8-1.8s6.2,0.7,7.8,1.8c0.2,0.2,0.5,0.3,0.7,0.3h1.6
			C23.8,24,21,21.3,19,19.6z"/>
	</g>
</g>
</svg>
