<?xml version="1.0" encoding="utf-8"?>
<!-- Generator: Adobe Illustrator 18.1.1, SVG Export Plug-In . SVG Version: 6.00 Build 0)  -->
<svg version="1.1" id="Layer_1" xmlns="http://www.w3.org/2000/svg" xmlns:xlink="http://www.w3.org/1999/xlink" x="0px" y="0px"
	 viewBox="0 0 26 32" enable-background="new 0 0 26 32" xml:space="preserve">
<polygon fill="#F1F1F1" points="0,0 15.1,10.9 0,21.9 "/>
<g>
	<path fill="#F1F1F1" d="M13.8,6.8V0h1.4v2.7h2.7V0h1.4v6.8h-1.4v-3h-2.7v3H13.8z"/>
	<path fill="#F1F1F1" d="M20.3,0h2.5c0.5,0,1,0.1,1.3,0.1c0.4,0.1,0.8,0.3,1,0.6s0.5,0.7,0.7,1.1C26,2.3,26,2.9,26,3.5
		c0,0.5-0.1,1-0.2,1.4c-0.2,0.5-0.4,1-0.8,1.2c-0.3,0.2-0.5,0.4-1,0.5c-0.3,0.1-0.7,0.1-1.2,0.1h-2.6C20.3,6.8,20.3,0,20.3,0z
		 M21.6,1.2v4.5h1c0.4,0,0.7,0,0.8-0.1c0.3,0,0.5-0.1,0.6-0.3c0.1-0.1,0.3-0.3,0.3-0.7s0.1-0.8,0.1-1.2s-0.1-1-0.1-1.2
		S24.2,1.7,24,1.5c-0.2-0.2-0.4-0.3-0.6-0.3c-0.2-0.1-0.5-0.1-1.2-0.1L21.6,1.2L21.6,1.2z"/>
</g>
</svg>
