<svg enable-background="new 0 0 512 512" viewBox="0 0 512 512" xmlns="http://www.w3.org/2000/svg"><path fill="#818181" d="m497.91 497.91c-18.782 18.782-49.23 18.782-68.01 0l-84.86-84.86c-34.889 22.382-76.13 35.717-120.66 35.717-123.92 0-224.38-100.45-224.38-224.38s100.47-224.38 224.38-224.38c123.93 0 224.38 100.45 224.38 224.38 0 44.514-13.352 85.77-35.718 120.68l84.86 84.86c18.782 18.782 18.782 49.21 0 67.991m-273.53-433.8c-88.51 0-160.27 71.75-160.27 160.27 0 88.53 71.76 160.27 160.27 160.27 88.53 0 160.27-71.75 160.27-160.27 0-88.53-71.75-160.27-160.27-160.27"/></svg>