<?xml version="1.0" encoding="utf-8"?>
<!-- Generator: Adobe Illustrator 18.1.1, SVG Export Plug-In . SVG Version: 6.00 Build 0)  -->
<svg version="1.1" id="Layer_1" xmlns="http://www.w3.org/2000/svg" xmlns:xlink="http://www.w3.org/1999/xlink" x="0px" y="0px"
	 viewBox="0 0 26 32" enable-background="new 0 0 26 32" xml:space="preserve">
<g id="Icons_with_numbers">
	<g id="Group" transform="translate(-480.000000, -288.000000)">
		<path id="Rectangle_304" fill="#666666" d="M493,301c2.7,0,4.9-2.2,4.9-4.9s-2.2-4.9-4.9-4.9s-4.9,2.2-4.9,4.9S490.3,301,493,301z M480,296.1
			c0,0,4.9-8.1,13-8.1s13,8.1,13,8.1s-4.9,8.1-13,8.1S480,296.1,480,296.1z M491.4,296.1c0-0.9,0.7-1.6,1.6-1.6s1.6,0.7,1.6,1.6
			s-0.7,1.6-1.6,1.6S491.4,297,491.4,296.1z"/>
	</g>
</g>
</svg>
