<svg viewBox="0 0 64 64" xmlns="http://www.w3.org/2000/svg" fill-rule="evenodd" clip-rule="evenodd" stroke-linejoin="round" stroke-miterlimit="1.414"><path d="M32.745 54.117c-.498.273-.983.283-1.491 0-11.402-6.709-18.361-21.626-15.362-37.646.087-.372.048-.522.25-.627 5.21-1.28 14.169-5.502 15.647-6.181a.726.726 0 01.192-.061h.039a.695.695 0 01.191.061c1.477.678 10.438 4.901 15.646 6.181.201.104.162.255.25.627 2.998 16.02-3.959 30.937-15.362 37.646z" fill="url(#_Linear1)" fill-rule="nonzero" transform="translate(-3.608 -3.556) scale(1.11111)"/><path d="M48.347 16.634c-.086-.372-.049-.524-.252-.628-5.232-1.284-14.437-5.453-15.92-6.133a1.039 1.039 0 00-.199-.073.204.204 0 00-.062.002 1.17 1.17 0 00-.196.071c-1.484.68-10.687 4.85-15.92 6.133-.204.104-.164.255-.252.628-1.495 16.078 4.002 30.642 15.43 37.877.743.409 1.197.409 1.94 0 11.428-7.235 16.926-21.799 15.431-37.877z" fill="#fdfdfd" fill-rule="nonzero"/><path d="M44.06 18.64c-.065-.306-.037-.43-.187-.516-3.864-1.052-19.989-1.052-23.854 0-.15.085-.12.21-.185.515-1.105 13.183 2.956 25.124 11.396 31.056.549.336.884.336 1.433 0 8.44-5.932 12.5-17.873 11.396-31.056z" fill="#2c3e50" fill-rule="nonzero"/><path d="M32.02 9.5H32l.003 45c.249-.001.496-.072.747-.211 11.467-6.75 18.465-21.76 15.449-37.878-.088-.374-.049-.525-.252-.631-5.239-1.288-14.25-5.536-15.735-6.218a.754.754 0 00-.192-.062" fill="url(#_Linear2)" fill-rule="nonzero" transform="translate(-3.608 -3.556) scale(1.11111)"/><g fill-rule="nonzero"><path d="M25.945 21.657c.002.163.052.3.15.41.098.108.238.163.418.163a.58.58 0 00.323-.099v.225a.676.676 0 01-.354.087c-.24 0-.43-.076-.571-.23a.797.797 0 01-.212-.56.8.8 0 01.212-.557c.14-.156.333-.234.578-.234.13 0 .246.028.347.083v.225a.569.569 0 00-.323-.093.54.54 0 00-.413.167.588.588 0 00-.155.413zm1.875.78a.648.648 0 01-.517-.221.818.818 0 01-.19-.557c0-.225.065-.413.196-.565a.645.645 0 01.511-.226c.23 0 .408.073.533.221a.846.846 0 01.188.565.824.824 0 01-.192.56.662.662 0 01-.529.223zm0-1.36a.396.396 0 00-.338.169.675.675 0 00-.124.411c0 .158.043.292.127.403a.399.399 0 00.335.166.415.415 0 00.352-.163.657.657 0 00.122-.406.693.693 0 00-.117-.415c-.077-.11-.197-.165-.357-.165zm1.302-.189v.247a.439.439 0 01.43-.267c.234 0 .381.099.444.297a.478.478 0 01.45-.297c.158 0 .277.044.357.135.08.09.12.21.12.363v1.044h-.237v-.984c0-.23-.098-.345-.291-.345a.336.336 0 00-.258.13c-.076.087-.114.21-.114.368v.83h-.237v-.983c0-.23-.098-.345-.291-.345a.336.336 0 00-.258.13.542.542 0 00-.115.368v.83h-.233v-1.52h.233zm2.89 1.33c.128 0 .233-.05.315-.152.082-.1.123-.244.123-.43 0-.166-.04-.3-.12-.403a.37.37 0 00-.303-.152.433.433 0 00-.317.133c-.089.09-.133.235-.133.437 0 .193.045.337.135.429.09.092.19.138.3.138zm-.435-1.33v.232a.52.52 0 01.471-.256.57.57 0 01.476.221.87.87 0 01.172.55c0 .235-.06.426-.182.575a.58.58 0 01-.472.224.523.523 0 01-.465-.256v.823h-.234v-2.113h.234zm1.479-.599h.237v2.12h-.237zm.699 2.121v-1.522h.237v1.522h-.237zm.006-1.888a.156.156 0 01-.042-.11c0-.044.015-.082.044-.111a.144.144 0 01.11-.045.15.15 0 01.11.045.15.15 0 01.045.11.15.15 0 01-.044.11.156.156 0 01-.112.044.158.158 0 01-.111-.043zm1.501 1.186h-.265c-.128 0-.224.024-.288.075a.23.23 0 00-.096.189c0 .076.026.137.075.184.05.047.124.07.22.07a.36.36 0 00.257-.09.307.307 0 00.097-.233v-.195zm-.787-.502v-.237a.855.855 0 01.45-.105c.382 0 .574.195.574.582v.964h-.234v-.18c-.079.13-.22.195-.427.195a.475.475 0 01-.344-.127.425.425 0 01-.13-.317c0-.146.056-.26.166-.34.112-.082.263-.122.455-.122h.277v-.078c0-.12-.028-.21-.081-.272-.055-.061-.145-.092-.273-.092a.75.75 0 00-.433.13zm1.678-.318v.265c.09-.19.25-.285.48-.285a.47.47 0 01.353.135c.088.09.132.21.132.36v1.047h-.237v-.984c0-.112-.028-.198-.085-.257a.296.296 0 00-.224-.088.393.393 0 00-.295.132.514.514 0 00-.124.366v.83h-.235v-1.52h.235zm1.713.192v.892c0 .162.076.242.228.242a.33.33 0 00.207-.068v.225a.458.458 0 01-.222.054c-.3 0-.45-.153-.45-.46v-.884h-.243v-.193h.242v-.378h.238v.378h.42v.193h-.42z" fill="#fff"/><path d="M31.38 28.386v3.094h-.01l.01.03c-.519.39-1.188.585-2.008.585-1 0-1.803-.296-2.412-.888-.608-.593-.913-1.405-.913-2.436 0-.98.303-1.783.908-2.407.606-.625 1.37-.937 2.292-.937.762 0 1.393.147 1.893.442v.836c-.525-.346-1.134-.519-1.826-.519-.723 0-1.313.235-1.768.706-.454.471-.682 1.097-.682 1.879 0 .8.224 1.43.673 1.888.448.458 1.066.687 1.854.687.436 0 .84-.087 1.211-.26V29.07H29.18v-.683h2.2zm2.172 2.95h1.163c.8 0 1.406-.248 1.816-.744.41-.497.615-1.117.615-1.86 0-.704-.23-1.297-.687-1.777-.458-.48-1.053-.72-1.783-.72h-1.124v5.101zm-.788-5.794h1.922c.954 0 1.737.297 2.35.89.61.592.917 1.359.917 2.3 0 .936-.284 1.717-.85 2.345-.568.628-1.36.942-2.379.942h-1.96v-6.477z" fill="#7ee1ad"/><path d="M28.248 38.581h1c.486 0 .867-.126 1.143-.38.275-.252.413-.574.413-.965 0-.435-.141-.781-.423-1.038-.282-.256-.682-.384-1.201-.384h-.932v2.767zm-.778-3.43h1.7c.75 0 1.34.194 1.773.581.433.388.649.89.649 1.504a1.84 1.84 0 01-.644 1.437c-.43.38-.996.571-1.7.571h-1v2.383h-.778v-6.476zm6.015.673v2.584h.98c.442 0 .78-.12 1.013-.36.234-.24.351-.55.351-.927 0-.865-.483-1.297-1.45-1.297h-.894zm3.526 5.803h-.932l-1.585-2.556h-1.009v2.556h-.779v-6.476h1.624c.75 0 1.318.176 1.706.529.387.352.581.839.581 1.46-.013.448-.131.83-.355 1.143-.225.314-.542.535-.952.663l1.701 2.681z" fill="#ffcc01"/></g><circle cx="46.145" cy="14.431" r="6.544" fill="url(#_Linear3)" transform="translate(.584 -.067)"/><path d="M49.867 12.26a.68.68 0 00-.963 0l-2.89 2.89-1.446-1.444a.681.681 0 00-.963.963l1.926 1.926a.681.681 0 00.964 0l3.372-3.371a.68.68 0 000-.964z" fill="#fff" fill-rule="nonzero"/><defs><linearGradient id="_Linear1" x1="0" y1="0" x2="1" y2="0" gradientUnits="userSpaceOnUse" gradientTransform="rotate(-90 34.76 19.566) scale(45.9799)"><stop offset="0" stop-color="#ffcc01"/><stop offset="1" stop-color="#69d3fb"/></linearGradient><linearGradient id="_Linear2" x1="0" y1="0" x2="1" y2="0" gradientUnits="userSpaceOnUse" gradientTransform="translate(32 32) scale(16.9004)"><stop offset="0" stop-color="#414042" stop-opacity=".043"/><stop offset="1" stop-color="#414042" stop-opacity="0"/></linearGradient><linearGradient id="_Linear3" x1="0" y1="0" x2="1" y2="0" gradientUnits="userSpaceOnUse" gradientTransform="rotate(-70.191 34.725 -17.69) scale(14.13529)"><stop offset="0" stop-color="#ffcc01"/><stop offset="1" stop-color="#69d3fb"/></linearGradient></defs></svg>