<svg preserveAspectRatio="xMinYMid" viewBox="0 0 150 150" xmlns="http://www.w3.org/2000/svg" fill-rule="evenodd" clip-rule="evenodd" stroke-linejoin="round" stroke-miterlimit="1.414"><g fill-rule="nonzero"><path d="M139.926 68.177v37.75a3.296 3.296 0 01-3.285 3.291h-18.626c-1.801 0-3.275-1.48-3.275-3.291v-37.75c0-1.812 1.475-3.291 3.275-3.291h3.51v-8.199c-.041-20.686-16.774-37.425-37.466-37.45H65.576c-20.691.025-37.415 16.765-37.455 37.45v8.199h3.855a3.295 3.295 0 013.286 3.291v37.75a3.296 3.296 0 01-3.286 3.291h-4.059c3.306 10.289 12.939 17.74 24.332 17.761h5.92v-1.403c0-1.45 1.18-2.747 2.624-2.879l12.512-1.155c1.455-.132 3.998 1.328 3.998 7.243s-2.544 7.029-3.998 6.897l-12.512-1.165c-1.444-.122-2.624-1.424-2.624-2.874v-1.389h-5.92c-13.224 0-24.373-8.905-27.781-21.036H13.36c-1.8 0-3.286-1.48-3.286-3.291v-37.75a3.301 3.301 0 013.286-3.291h9.827v-8.199c0-23.402 18.981-42.379 42.389-42.379h18.483c23.417 0 42.389 18.977 42.389 42.379v8.199h10.193c1.81 0 3.285 1.48 3.285 3.291z" fill="#6da"/><path d="M100.508 72.205h-4.15a2.343 2.343 0 00-2.35 2.34v9.638a2.343 2.343 0 002.35 2.345h4.15a2.343 2.343 0 002.35-2.345v-9.638a2.344 2.344 0 00-2.35-2.34zm-52.389 0a2.34 2.34 0 00-2.34 2.34v9.638a2.34 2.34 0 002.34 2.345h4.171a2.34 2.34 0 002.339-2.345v-9.638a2.34 2.34 0 00-2.339-2.34h-4.171z" fill="#484b4d"/></g></svg>