<svg viewBox="0 0 512 512" xmlns="http://www.w3.org/2000/svg" fill-rule="evenodd" clip-rule="evenodd" stroke-linejoin="round" stroke-miterlimit="1.414"><path d="M459.664 322.819l-31.193 23.205.179 38.859-36.841 12.437-11.847 37.012-38.884.453-22.712 31.542-37.121-11.578-31.355 22.986-31.724-22.474-36.928 12.178-23.221-31.17-38.887.179-12.446-36.816-37.038-11.838-.453-38.856-31.564-22.697 11.585-37.094-23.001-31.333 22.489-31.701-12.186-36.902 31.192-23.205-.179-38.859 36.841-12.437 11.847-37.012 38.884-.452 22.713-31.543 37.121 11.578 31.354-22.985 31.724 22.473 36.928-12.177 23.222 31.169 38.886-.178 12.446 36.815 37.039 11.838.452 38.857 31.565 22.696-11.586 37.095 23.001 31.332-22.489 31.701 12.187 36.902z" fill="#6da"/><path d="M0 357.75l512-106.277s-47.6 54.921-47.6 55.154c0 .115 47.6 35.047 47.6 35.047L0 447.95s53.594-55.566 53.594-55.449C53.594 392.619 0 357.75 0 357.75z" fill="#fe9901"/><path d="M15.026 367.659l483.793-100.748s-33.764 39.592-33.764 39.885c0 .059 34.634 25.545 34.634 25.545L16.47 430.903l36.197-38.682-37.641-24.562z" fill="#ebedee"/><path d="M392.261 396.57l-34.774 6.07-15.747 31.57-34.949-4.965-24.739 25.163-31.703-15.514-31.31 16.291-25.353-24.544-34.816 5.825-16.522-31.172-34.913-5.21-6.074-34.749-31.593-15.736 4.968-34.924-25.18-24.722 15.525-31.68-16.303-31.288L73.34 201.65l-5.83-34.791 31.194-16.511 5.215-34.888 34.773-6.07 15.748-31.57 34.948 4.965 24.74-25.163 31.702 15.514 31.31-16.291 25.354 24.544 34.815-5.825 16.523 31.172 34.912 5.21 6.075 34.749 31.592 15.736-4.968 34.924 25.18 24.722-15.525 31.68 16.303 31.288-24.562 25.335 5.83 34.791-31.194 16.511-5.214 34.888z" fill="#fff"/><path d="M140.675 169.969l13.817 8.686c.26 3.793-.852 7.667-3.339 11.623-2.759 4.388-6.258 7.159-10.498 8.31-4.24 1.153-8.527.367-12.861-2.358-4.28-2.692-6.809-6.275-7.586-10.751-.776-4.476.215-8.909 2.974-13.297 1.942-3.089 4.188-5.4 6.74-6.933l6.258 3.935c-3.126 1.664-5.548 3.864-7.268 6.6-1.618 2.573-2.139 5.1-1.562 7.58.577 2.479 2.138 4.519 4.685 6.12 2.573 1.618 5.087 2.159 7.541 1.623 2.454-.537 4.49-2.091 6.108-4.665a13.726 13.726 0 001.643-3.786l-5.16-3.245-2.785 4.43-5.324-3.347 6.617-10.525zm26.123-16.076l-13.246-14.814 5.51-4.928 13.214 14.779c2.815 3.149 4.082 6.341 3.799 9.577-.283 3.237-1.927 6.199-4.933 8.886-2.958 2.645-6.068 3.944-9.328 3.898-3.261-.046-6.235-1.572-8.923-4.578l-13.437-15.029 5.51-4.927 13.406 14.993c2.666 2.982 5.43 3.193 8.293.634 2.862-2.56 2.907-5.39.135-8.491zm21.784-14.521l6.979-3.43-.81-.886a331.472 331.472 0 01-5.583-6.188c-1.505-1.72-2.456-2.84-2.853-3.357l-.596-.777c.546 1.692 1.432 6.178 2.656 13.456l.207 1.182zm15.886 6.204l-4.688-5.076-10.166 4.997 1.156 6.813-6.935 3.41-4.58-33.799 8.357-4.108 23.964 24.27-7.108 3.493zm13.882-31.78l1.656 8.969 3.446-.636c3.146-.58 4.435-2.413 3.866-5.497-.25-1.353-.854-2.34-1.815-2.96-.96-.62-2.149-.799-3.565-.538l-3.587.662zm13.893 24.234l-8.93-9.774-2.219.41 2.038 11.045-7.269 1.341-5.87-31.815 10.998-2.03c3.556-.655 6.586-.238 9.09 1.252 2.504 1.49 4.035 3.746 4.592 6.767.836 4.532-.521 8.02-4.073 10.465l10.328 10.736-8.685 1.603zm23.143-13.797l7.757.542-.255-1.173a331.472 331.472 0 01-1.716-8.155c-.436-2.244-.696-3.69-.78-4.337l-.124-.971c-.378 1.738-1.867 6.06-4.466 12.968l-.416 1.126zm10.616 13.348l-1.502-6.745-11.3-.79-2.425 6.472-7.709-.539 13.027-31.52 9.29.648 8.52 33.025-7.9-.551zm12.12 1.704L289.23 108.9l7.619 2.785 2.48 15.166c.343 2.136.6 4.112.77 5.929.171 1.817.246 3.08.226 3.788l-.002 1.123c.513-2.334 1.489-5.47 2.928-9.406l4.598-12.578 6.943 2.538-11.108 30.385-7.62-2.785-2.66-15.232a58.912 58.912 0 01-.791-5.732c-.16-1.847-.237-3.196-.233-4.046l.051-1.259c-.538 2.87-1.46 6.093-2.768 9.67l-4.598 12.577-6.943-2.538zm67.114-1.774l-3.37 4.906-6.489-4.456-14.946 21.761-6.133-4.212 14.946-21.761-6.528-4.484 3.37-4.907 19.15 13.153zm-5.569 31.202l8.642 9.268-4.318 4.026-13.716-14.71 23.663-22.062 13.584 14.57-4.318 4.026-8.51-9.128-5.372 5.008 7.594 8.145-4.283 3.994-7.594-8.145-5.372 5.008zm16.823 21.58l6.426 10.922-5.088 2.994-10.2-17.334 27.883-16.407 10.102 17.168-5.088 2.994-6.33-10.756-6.329 3.725 5.648 9.598-5.047 2.97-5.648-9.598-6.33 3.724z" fill="#fe9901" fill-rule="nonzero"/><path d="M222.071 434.398l-20.213-19.568c14.249 4.329 29.253 6.726 44.626 6.865l-24.413 12.703zm56.436-.696l-24.657-12.067a166.687 166.687 0 0043.134-6.727l-18.477 18.794zm-110.325-16.069l-13.58-25.621c12.69 8.899 26.704 16.051 41.581 20.935l-28.001 4.686zm163.784-2.021l-26.136-3.713c13.336-4.741 25.884-11.145 37.427-18.924l-11.291 22.637zm-180.903-26.244l-28.948-4.321-5.116-29.267c9.647 12.828 21.124 24.201 34.064 33.588zm201.182-3.109c10.757-8.399 20.444-18.097 28.615-28.757l-3.646 24.398-24.969 4.359zm-237.266-33.178l-26.6-13.25 4.199-29.517a162.164 162.164 0 0022.401 42.767zm273.392-5.861c7.235-10.863 13.215-22.635 17.492-34.979l3.959 23.625-21.451 11.354zM91.43 307.179l-21.153-20.768 13.083-26.698a166.583 166.583 0 008.07 47.466zm318.603-8.076a147.997 147.997 0 005.683-37.975l10.883 20.887-16.566 17.088zM83.178 256.112L69.58 230.015l20.278-20.917c-4.403 14.669-6.708 30.289-6.708 46.447l.028.567zm332.375-9.374a167.241 167.241 0 00-6.191-37.358l16.54 16.239-10.349 21.119zM91.139 204.704l-4.782-28.54 24.985-13.224a162.818 162.818 0 00-20.203 41.764zm313.389-9.502a166.837 166.837 0 00-17.474-33.337l20.746 10.334-3.272 23.003zM114.754 158.31l4.212-28.18 27.2-4.748c-11.94 9.445-22.541 20.49-31.412 32.928zm263.307-8.462c-8.133-9.851-17.369-18.748-27.664-26.397l23.667 3.532 3.997 22.865zm-226.155-28.755l12.308-24.675 26.422 3.753c-13.903 5.226-26.914 12.264-38.73 20.922zm187.318-5.516c-10.996-7.118-22.891-12.95-35.428-17.13l24.201-4.05 11.227 21.18zM199.318 96.996l18.354-18.668 23.194 11.35a167.167 167.167 0 00-41.548 7.318zm92.609-2.114c-12.842-3.578-26.41-5.471-40.323-5.541l22.504-11.709 17.819 17.25z" fill="#0dacff" fill-opacity=".494"/><path d="M107.48 247.767v-16.358l20.2-11.747h13.833v71.798h-15.918v-54.562l-18.114 10.869zm59.613 14.82h15.809v-32.495l-15.81 32.495zm40.51 0v13.614h-8.783v15.26h-15.918V276.2h-31.508v-13.614l21.956-43.144h25.47v43.144h8.783zm41.068 16.139c3.66 0 6.624-1.428 8.893-4.282 2.269-2.854 3.403-6.66 3.403-11.417 0-4.611-1.226-8.198-3.678-10.76-2.452-2.56-5.36-3.842-8.727-3.842s-6.203 1.354-8.509 4.062c-2.305 2.708-3.458 6.478-3.458 11.308 0 4.465 1.171 8.07 3.513 10.814 2.342 2.744 5.197 4.117 8.563 4.117zm12.296-64.882h16.028v77.616h-16.028v-8.673c-3.733 6.222-9.295 9.332-16.687 9.332-7.246 0-13.046-2.818-17.4-8.453-4.355-5.636-6.533-12.37-6.533-20.2 0-8.783 2.27-15.7 6.807-20.75 4.538-5.05 10.283-7.574 17.236-7.574 7.245 0 12.771 3.074 16.577 9.222v-30.52zm56.758 54.782h-5.16c-2.708 0-4.794.585-6.258 1.756-1.463 1.171-2.195 2.671-2.195 4.501 0 3.733 2.159 5.599 6.477 5.599 2.269 0 4.025-.695 5.27-2.086 1.244-1.39 1.866-3.293 1.866-5.709v-4.061zm-26.019-15.7v-14.381c4.391-2.488 10.722-3.733 18.993-3.733 7.904 0 13.796 1.702 17.675 5.105 3.879 3.404 5.818 8.691 5.818 15.864v35.68h-15.699v-6.807c-2.342 4.757-6.953 7.136-13.832 7.136-5.416 0-9.643-1.537-12.68-4.611-3.038-3.074-4.556-6.917-4.556-11.527 0-5.343 1.957-9.497 5.873-12.46 3.916-2.965 9.716-4.447 17.4-4.447h7.027v-3.842c0-4.684-3.11-7.026-9.332-7.026-6.001 0-11.564 1.683-16.687 5.05zm70.59 37.656L340.78 235.8h17.456l6.038 17.346c1.537 4.465 2.799 8.307 3.787 11.527.988 3.22 1.592 5.343 1.811 6.368l.33 1.537c.805-2.928 2.781-9.405 5.928-19.432l5.49-17.346h16.467l-20.09 54.014c-5.782 15.589-14.602 23.383-26.458 23.383-2.27 0-4.318-.183-6.148-.549v-12.734c1.17.292 2.415.439 3.733.439 6.074 0 10.465-3.257 13.173-9.77z" fill="#5ac8fa" fill-rule="nonzero"/><path d="M268.718 208.54s-.687 9.686-1.34 10.425c-.653.74-6.673 1.374-6.673 1.374s5.603.648 6.501 1.26c.898.61 1.512 8.842 1.512 8.842s.353-8.12 1.275-8.857c.92-.738 9.345-1.245 9.345-1.245s-8.622-.288-9.288-1.315c-.665-1.026-1.332-10.483-1.332-10.483zm-108.515 39.388s-.876 12.666-1.706 13.632c-.831.967-8.492 1.796-8.492 1.796s7.13.848 8.273 1.648c1.143.799 1.925 11.563 1.925 11.563s.448-10.618 1.622-11.582c1.173-.966 11.894-1.63 11.894-1.63s-10.973-.376-11.821-1.717c-.847-1.342-1.695-13.71-1.695-13.71zm214.835 10.758s-1.063 14.9-2.072 16.037c-1.01 1.139-10.312 2.114-10.312 2.114s8.659.997 10.046 1.938c1.389.94 2.338 13.605 2.338 13.605s.544-12.493 1.97-13.626c1.423-1.136 14.443-1.917 14.443-1.917s-13.326-.444-14.355-2.022c-1.029-1.578-2.058-16.129-2.058-16.129zm-243.214-50.515s-.938 13.411-1.828 14.434c-.891 1.024-9.1 1.902-9.1 1.902s7.641.898 8.865 1.744c1.225.846 2.063 12.245 2.063 12.245s.48-11.244 1.738-12.264c1.255-1.023 12.743-1.725 12.743-1.725s-11.757-.4-12.666-1.82c-.907-1.42-1.815-14.516-1.815-14.516z" fill="#fff" fill-opacity=".765"/><path d="M92.552 363.119l338.49-66.477v90.2l-338.49 66.477v-90.2z" fill="#fe9901"/><path d="M91.577 377.47l340.927-66.873v62.382L91.577 439.852V377.47z" fill="#fff"/><path d="M129.15 416.193l-8.051-24.26-.2.039c.331 5.195.504 8.669.521 10.424l.144 15.299-6.144 1.216-.31-32.893 9.36-1.853 7.912 23.635.133-.027 7.902-26.764 9.36-1.853.311 32.893-6.41 1.269-.147-15.569c-.007-.735-.004-1.585.009-2.549.013-.965.089-3.534.227-7.709l-.199.039-8.119 27.417-6.299 1.246zm58.377-28.078c.052 5.445-1.24 9.893-3.874 13.345-2.634 3.452-6.435 5.669-11.403 6.653-4.968.983-8.797.276-11.486-2.122-2.69-2.398-4.06-6.334-4.112-11.809-.051-5.475 1.244-9.92 3.885-13.335 2.642-3.416 6.455-5.617 11.438-6.604 4.983-.986 8.808-.285 11.475 2.102s4.026 6.311 4.077 11.77zm-23.666 4.685c.035 3.675.749 6.306 2.141 7.894 1.393 1.588 3.457 2.111 6.193 1.569 5.486-1.086 8.194-5.326 8.124-12.721-.07-7.409-2.833-10.574-8.29-9.494-2.735.542-4.789 1.884-6.161 4.026-1.373 2.143-2.042 5.051-2.007 8.726zm59.31 4.782l-8.739 1.73-14.341-22.091-.2.039c.322 4.34.493 7.447.51 9.321l.146 15.48-6.144 1.216-.31-32.893 8.672-1.717 14.317 21.848.156-.031c-.263-4.23-.402-7.231-.419-9.001l-.147-15.569 6.189-1.225.31 32.893zm26.838-5.312l-18.676 3.697-.31-32.894 18.675-3.696.054 5.714-11.799 2.336.068 7.222L249 372.476l.054 5.715-10.979 2.173.08 8.482 11.799-2.336.055 5.76zm16.674-22.686l6.637-14.883 7.408-1.467-10.567 22.221.12 12.802-6.831 1.352-.119-12.577-10.949-18.187 7.453-1.475 6.848 12.214zm29.926-19.493l10.092-1.998c4.599-.91 7.943-.907 10.033.009s3.149 2.822 3.176 5.717c.019 1.964-.421 3.667-1.318 5.107-.898 1.44-2.099 2.436-3.605 2.99l.002.225c2.06.058 3.55.635 4.472 1.73.921 1.094 1.392 2.699 1.412 4.814.028 3-1.018 5.551-3.139 7.654-2.121 2.103-5.015 3.518-8.682 4.243l-12.132 2.402-.311-32.893zm6.999 11.666l3.992-.791c1.863-.369 3.21-.928 4.04-1.678.83-.751 1.238-1.801 1.226-3.151-.012-1.26-.475-2.073-1.39-2.441-.915-.367-2.355-.356-4.322.033l-3.615.715.069 7.313zm.052 5.534l.081 8.572 4.48-.887c1.893-.374 3.287-1.018 4.182-1.932.895-.913 1.335-2.128 1.321-3.642-.026-2.73-1.961-3.715-5.805-2.954l-4.259.843zm42.721 5.902l-2.425-7.364-11.822 2.34-2.277 8.295-7.408 1.467 11.133-35.294 8.406-1.664 11.801 30.754-7.408 1.466zm-4.121-12.889c-2.241-6.664-3.503-10.434-3.785-11.31a29.771 29.771 0 01-.608-2.088c-.47 2.016-1.823 7.04-4.058 15.071l8.451-1.673zm28.215-19.492c-2.588.512-4.582 1.895-5.983 4.148-1.401 2.253-2.085 5.142-2.052 8.667.07 7.335 2.818 10.465 8.244 9.391 2.277-.451 5.03-1.574 8.257-3.37l.055 5.849c-2.651 1.652-5.618 2.803-8.9 3.453-4.717.934-8.339.197-10.865-2.211-2.527-2.408-3.815-6.326-3.867-11.756-.032-3.42.554-6.538 1.757-9.353 1.203-2.815 2.947-5.137 5.234-6.964 2.286-1.828 4.974-3.047 8.065-3.659 3.149-.624 6.321-.477 9.515.438l-2.165 6.109a30.963 30.963 0 00-3.674-.806 10.3 10.3 0 00-3.621.064zm41.515 19.394l-7.808 1.546-8.626-12.178-2.885 2.69.111 11.744-6.876 1.361-.311-32.893 6.876-1.361.142 15.052 2.67-4.406 8.678-12.92 7.629-1.51-11.174 16.795 11.574 16.08z" fill="#656d78" fill-rule="nonzero"/><path d="M458.216 303.689a141.03 141.03 0 00-5.609-.039c-1.502.061-2.236-.301-3.195-1.393l-3.761-4.059c-.677-.699-.802-.672-1.135.241l-1.786 5.238c-.429 1.387-.954 2.017-2.352 2.573-1.749.76-3.436 1.509-5.108 2.317-.906.386-.943.524-.091 1.12l4.437 3.205c1.232.838 1.656 1.592 1.769 3.056.193 1.837.374 3.614.629 5.437.072.956.225 1.056 1.027.494l4.519-3.227c1.191-.902 2.075-1.09 3.531-.75l5.441 1.11c.961.184 1.061.033.737-.869-.507-1.77-1.065-3.467-1.637-5.223-.494-1.384-.414-2.244.372-3.513l2.751-4.731c.535-.891.447-1.002-.54-.986l.001-.001zM82.189 380.374a137.35 137.35 0 00-5.609-.039c-1.502.061-2.237-.302-3.195-1.393l-3.762-4.06c-.676-.698-.802-.672-1.134.242l-1.786 5.238c-.43 1.387-.954 2.016-2.352 2.573-1.749.76-3.436 1.508-5.108 2.317-.906.386-.943.524-.091 1.12l4.436 3.204c1.233.839 1.656 1.592 1.77 3.056.192 1.838.373 3.615.629 5.438.072.956.224 1.055 1.027.494l4.519-3.227c1.191-.903 2.075-1.091 3.53-.751l5.442 1.11c.961.184 1.06.034.737-.869-.507-1.769-1.066-3.467-1.638-5.223-.493-1.383-.413-2.243.373-3.512l2.751-4.732c.535-.89.447-1.002-.54-.986h.001z" fill="#fe6d6b"/></svg>