<svg preserveAspectRatio="xMinYMid" xmlns="http://www.w3.org/2000/svg" viewBox="0 0 64 64"><circle fill="#E9FAFF" stroke="#6DA" stroke-width="2" stroke-linecap="round" stroke-miterlimit="10" cx="32" cy="32" r="21.6"/><path fill="#94DDFF" d="M30.901 24.029c-.194 0-.321-.13-.321-.324v-2.356c0-.193.128-.323.321-.323h2.195c.194 0 .324.13.324.323v2.356a.308.308 0 01-.324.324h-2.195zm.066 18.946c-.193 0-.322-.127-.322-.32V27.837c0-.194.13-.323.322-.323h2.065c.194 0 .323.129.323.323v14.817c0 .193-.131.32-.323.32h-2.065v.001z"/></svg>