<svg viewBox="0 0 64 64" xmlns="http://www.w3.org/2000/svg" fill-rule="evenodd" clip-rule="evenodd" stroke-linejoin="round" stroke-miterlimit="1.414"><path d="M32.745 54.117c-.498.273-.983.283-1.491 0-11.402-6.709-18.361-21.626-15.362-37.646.087-.372.048-.522.25-.627 5.21-1.28 14.169-5.502 15.647-6.181a.726.726 0 01.192-.061h.039a.695.695 0 01.191.061c1.477.678 10.438 4.901 15.646 6.181.201.104.162.255.25.627 2.998 16.02-3.959 30.937-15.362 37.646z" fill="url(#_Linear1)" fill-rule="nonzero" transform="translate(-3.608 -3.556) scale(1.11111)"/><path d="M48.347 16.634c-.086-.372-.049-.524-.252-.628-5.232-1.284-14.437-5.453-15.92-6.133a1.039 1.039 0 00-.199-.073.204.204 0 00-.062.002 1.17 1.17 0 00-.196.071c-1.484.68-10.687 4.85-15.92 6.133-.204.104-.164.255-.252.628-1.495 16.078 4.002 30.642 15.43 37.877.743.409 1.197.409 1.94 0 11.428-7.235 16.926-21.799 15.431-37.877z" fill="#fdfdfd" fill-rule="nonzero"/><path d="M44.06 18.64c-.065-.306-.037-.43-.187-.516-3.864-1.052-19.989-1.052-23.854 0-.15.085-.12.21-.185.515-1.105 13.183 2.956 25.124 11.396 31.056.549.336.884.336 1.433 0 8.44-5.932 12.5-17.873 11.396-31.056z" fill="#2c3e50" fill-rule="nonzero"/><path d="M32.02 9.5H32l.003 45c.249-.001.496-.072.747-.211 11.467-6.75 18.465-21.76 15.449-37.878-.088-.374-.049-.525-.252-.631-5.239-1.288-14.25-5.536-15.735-6.218a.754.754 0 00-.192-.062" fill="url(#_Linear2)" fill-rule="nonzero" transform="translate(-3.608 -3.556) scale(1.11111)"/><path d="M31.979 34.381l3.712 2.144v4.286l-3.712 2.143-3.713-2.143v-4.286l3.713-2.144z" fill="url(#_Linear3)" transform="translate(-7.831 -51.554) scale(1.70637)"/><path d="M49.867 12.26a.68.68 0 00-.963 0l-2.89 2.89-1.446-1.444a.681.681 0 00-.963.963l1.926 1.926a.681.681 0 00.964 0l3.372-3.371a.68.68 0 000-.964z" fill="#fff" fill-rule="nonzero"/><g fill-rule="nonzero"><path d="M29.67 25.475v.826h-1.7v5.65h-.99v-5.65h-1.691v-.826h4.381zm1.903 5.602h2.652v.874h-3.642v-6.476h.99v5.602zm7.12-5.343v.98a2.692 2.692 0 00-1.46-.403c-.353 0-.63.078-.832.235a.747.747 0 00-.303.62c0 .256.1.461.298.615.199.154.503.32.913.5.27.115.479.214.63.298.15.083.323.2.518.35.196.15.34.33.433.538.093.209.14.447.14.716 0 .57-.203 1.019-.606 1.346-.404.326-.926.49-1.566.49-.711 0-1.3-.138-1.768-.414v-1.028a2.859 2.859 0 001.758.567c.352 0 .63-.081.836-.245.205-.163.307-.389.307-.677a.72.72 0 00-.182-.476 1.323 1.323 0 00-.394-.327 13.87 13.87 0 00-.634-.302 8.232 8.232 0 01-.682-.336 2.574 2.574 0 01-.342-.212 4.168 4.168 0 01-.274-.24 1.038 1.038 0 01-.235-.308 2.685 2.685 0 01-.134-.36 1.537 1.537 0 01-.063-.447c0-.55.2-.986.6-1.307.401-.32.918-.48 1.552-.48.583 0 1.08.102 1.49.307z" fill="#7ee1ad"/><path d="M27.57 36.996v-.817l1.49-.903h.71v6.284h-.75v-5.457l-1.45.893zm3.325 4.478a.548.548 0 01-.164-.404c0-.16.055-.294.164-.403a.548.548 0 01.403-.164.55.55 0 01.404.164.548.548 0 01.163.403c0 .16-.054.295-.163.404a.548.548 0 01-.404.163.548.548 0 01-.403-.163zm2.613-.577h2.921v.663h-3.968v-.643c1.986-1.5 2.979-2.748 2.979-3.748 0-.397-.116-.703-.346-.917-.23-.215-.542-.322-.932-.322-.506 0-1.006.189-1.5.567v-.76a2.487 2.487 0 011.567-.528c.564 0 1.038.163 1.422.49.384.327.576.791.576 1.393 0 1.134-.906 2.403-2.719 3.805z" fill="#59c4f5"/></g><path d="M26.52 21.548v-.054a.426.426 0 00-.093-.272c-.058-.067-.141-.1-.249-.1a.35.35 0 00-.258.11.537.537 0 00-.135.316h.735zm.189.525v.264a.891.891 0 01-.444.096c-.236 0-.424-.07-.564-.213a.76.76 0 01-.21-.558c0-.244.064-.436.192-.575a.635.635 0 01.489-.208c.194 0 .348.06.462.181.114.121.171.296.171.524 0 .062-.006.127-.018.195h-.999c.02.132.076.233.168.303.092.07.208.105.348.105a.687.687 0 00.405-.114zm.735-1.176v.261c.09-.188.248-.282.474-.282a.47.47 0 01.357.138.52.52 0 01.132.375v1.03h-.294v-.96c0-.107-.026-.188-.079-.244a.279.279 0 00-.212-.084.349.349 0 00-.267.121.488.488 0 00-.111.341v.825h-.294v-1.52h.294zm1.578.768c.004.154.051.28.141.38.09.1.216.148.378.148.12 0 .232-.033.336-.099v.264a.708.708 0 01-.375.09c-.238 0-.428-.075-.57-.225a.784.784 0 01-.213-.56.8.8 0 01.215-.56c.143-.156.336-.233.58-.233.132 0 .253.028.363.084v.27a.61.61 0 00-.333-.093.498.498 0 00-.379.15.535.535 0 00-.143.384zm1.488-.768v.267c.074-.188.207-.282.399-.282.028 0 .059.003.093.01v.287a.355.355 0 00-.141-.027.3.3 0 00-.252.135.528.528 0 00-.099.321v.81h-.294v-1.52h.294zm1.143 1.488l-.606-1.488h.327l.189.495.237.642c.018-.06.09-.274.216-.642l.171-.495h.312l-.549 1.48c-.146.39-.369.584-.669.584a.55.55 0 01-.138-.015v-.252a.42.42 0 00.102.012c.194 0 .33-.107.408-.32zm1.794-.204a.357.357 0 00.291-.14c.076-.093.114-.223.114-.39a.59.59 0 00-.111-.378.345.345 0 00-.282-.139.406.406 0 00-.296.124c-.082.083-.124.215-.124.395 0 .176.042.308.124.396a.383.383 0 00.284.132zm-.408-1.284v.234a.513.513 0 01.468-.255c.2 0 .358.072.474.217a.86.86 0 01.174.554c0 .23-.06.42-.178.568a.58.58 0 01-.476.224.513.513 0 01-.462-.252V23h-.294v-2.103h.294zm1.827.228v.837c0 .146.07.22.21.22a.325.325 0 00.207-.067v.264a.502.502 0 01-.243.054c-.314 0-.471-.159-.471-.477v-.83h-.237v-.229h.237v-.372h.297v.372h.399v.228h-.399zm1.686.423v-.054a.426.426 0 00-.093-.272c-.058-.067-.141-.1-.249-.1a.35.35 0 00-.258.11.537.537 0 00-.135.316h.735zm.189.525v.264a.891.891 0 01-.444.096c-.236 0-.424-.07-.564-.213a.76.76 0 01-.21-.558c0-.244.064-.436.192-.575a.635.635 0 01.489-.208c.194 0 .348.06.462.181.114.121.171.296.171.524 0 .062-.006.127-.018.195h-.999c.02.132.076.233.168.303.092.07.208.105.348.105a.687.687 0 00.405-.114zm1.056.108a.382.382 0 00.294-.132c.08-.088.12-.222.12-.402 0-.174-.042-.303-.125-.387a.384.384 0 00-.28-.126.359.359 0 00-.291.14c-.076.092-.114.225-.114.397 0 .152.037.275.112.37a.35.35 0 00.284.14zm.414-1.884h.297v2.121h-.297v-.23a.516.516 0 01-.465.251.566.566 0 01-.474-.227.87.87 0 01-.174-.547c0-.238.061-.429.183-.573a.59.59 0 01.471-.216c.198 0 .351.084.459.252v-.83z" fill="#fff" fill-rule="nonzero"/><defs><linearGradient id="_Linear1" x1="0" y1="0" x2="1" y2="0" gradientUnits="userSpaceOnUse" gradientTransform="rotate(-90 34.76 19.566) scale(45.9799)"><stop offset="0" stop-color="#28b873"/><stop offset="1" stop-color="#69d3fb"/></linearGradient><linearGradient id="_Linear2" x1="0" y1="0" x2="1" y2="0" gradientUnits="userSpaceOnUse" gradientTransform="translate(32 32) scale(16.9004)"><stop offset="0" stop-color="#414042" stop-opacity=".043"/><stop offset="1" stop-color="#414042" stop-opacity="0"/></linearGradient><linearGradient id="_Linear3" x1="0" y1="0" x2="1" y2="0" gradientUnits="userSpaceOnUse" gradientTransform="rotate(103.222 3.347 30.68) scale(8.74723)"><stop offset="0" stop-color="#65d1f3"/><stop offset="1" stop-color="#2ecc71"/></linearGradient></defs></svg>