<?xml version="1.0" encoding="UTF-8"?>
<svg width="12px" height="11px" viewBox="0 0 12 11" version="1.1" xmlns="http://www.w3.org/2000/svg" xmlns:xlink="http://www.w3.org/1999/xlink">
    <!-- Generator: Sketch 51.3 (57544) - http://www.bohemiancoding.com/sketch -->
    <title>star (1)</title>
    <desc>Created with Sketch.</desc>
    <defs></defs>
    <g id="Final_Design" stroke="none" stroke-width="1" fill="none" fill-rule="evenodd">
        <g id="01Artboard_Final_Updated" transform="translate(-658.000000, -2287.000000)" fill="#F5A623" fill-rule="nonzero">
            <g id="Group-27" transform="translate(658.000000, 2287.000000)">
                <g id="star-(1)">
                    <path d="M11.1366151,4.97979167 C11.3561934,4.76025 11.4337047,4.43804167 11.3389935,4.13852083 C11.2440588,3.839 10.996782,3.6251875 10.6929912,3.5798125 L7.9919331,3.17716667 C7.87689466,3.15997917 7.7774925,3.08595833 7.72611611,2.9789375 L6.51854748,0.4681875 C6.38295848,0.186083333 6.10775971,0.0107708333 5.80106498,0.0107708333 C5.49459362,0.0107708333 5.21939485,0.186083333 5.08380584,0.4681875 L3.87601384,2.97916667 C3.82463745,3.0861875 3.72501192,3.16020833 3.60997347,3.17739583 L0.908915417,3.58004167 C0.605347943,3.6251875 0.357847751,3.83922917 0.26291311,4.13875 C0.168201845,4.43827083 0.245713187,4.76047917 0.465291426,4.98002083 L2.41960477,6.93435417 C2.50292388,7.01777083 2.54112111,7.13785417 2.52146405,7.2551875 L2.06041676,10.0148125 C2.01953902,10.2577292 2.08163745,10.494 2.23487313,10.6803125 C2.47299154,10.9706667 2.88869358,11.059125 3.22107651,10.8799167 L5.63666052,9.576875 C5.7376263,9.5225625 5.86472703,9.52302083 5.96546943,9.576875 L8.38127682,10.8799167 C8.4987724,10.9433958 8.62408612,10.9754792 8.75342061,10.9754792 C8.98952864,10.9754792 9.21335102,10.8677708 9.36725682,10.6803125 C9.52071588,10.494 9.58259093,10.2572708 9.54171319,10.0148125 L9.08044252,7.2551875 C9.06078547,7.137625 9.0989827,7.01777083 9.18230181,6.93435417 L11.1366151,4.97979167 Z" id="Shape"></path>
                </g>
            </g>
        </g>
    </g>
</svg>