<svg viewBox="0 0 64 64" xmlns="http://www.w3.org/2000/svg" fill-rule="evenodd" clip-rule="evenodd" stroke-miterlimit="10"><path d="M13.25 16.844a3.75 3.75 0 00-3.75 3.75v22.812a3.75 3.75 0 003.75 3.75h37.5a3.75 3.75 0 003.75-3.75V20.594a3.749 3.749 0 00-3.75-3.75h-37.5z" fill="#fbf9f5" fill-rule="nonzero" stroke="#94ddff" stroke-width="1.5"/><path d="M19.375 29.045v.854c-.409-.268-.898-.402-1.467-.402-.409 0-.733.095-.975.286a.91.91 0 00-.361.749c0 .16.032.305.095.432a.985.985 0 00.337.357c.16.11.298.194.412.25.114.058.291.14.532.247.228.1.402.18.523.236.12.057.276.147.467.271.19.124.335.245.432.362.097.117.184.271.261.462.077.191.116.397.116.618 0 .596-.205 1.057-.613 1.382-.409.325-.935.487-1.578.487-.71 0-1.312-.144-1.808-.432v-.874c.489.368 1.085.552 1.788.552.422 0 .754-.093.995-.281.241-.188.362-.459.362-.814a.897.897 0 00-.086-.397.896.896 0 00-.281-.321 3.142 3.142 0 00-.372-.241 9.204 9.204 0 00-.658-.317 10.566 10.566 0 01-.658-.311c-.15-.08-.328-.2-.533-.357a1.44 1.44 0 01-.447-.548 1.743 1.743 0 01-.14-.723c0-.576.206-1.027.618-1.351.412-.325.929-.488 1.552-.488.583 0 1.078.104 1.487.312zm5.848 3.969v-4.22h.813v4.2c0 .87-.219 1.53-.658 1.979-.438.449-1.05.673-1.833.673-.77 0-1.373-.22-1.809-.658-.435-.439-.653-1.077-.653-1.914v-4.28h.814v4.27c0 .623.149 1.082.447 1.376.298.295.698.442 1.2.442 1.12 0 1.679-.623 1.679-1.868zm3.165 1.858h1.537c.429 0 .758-.098.99-.296.23-.198.346-.487.346-.87 0-.381-.129-.68-.387-.893-.258-.215-.624-.322-1.1-.322h-1.386v2.381zm0-5.385v2.31h1.085c.542 0 .944-.113 1.205-.34a1.12 1.12 0 00.392-.885.97.97 0 00-.366-.779c-.245-.204-.608-.306-1.09-.306h-1.226zm-.814-.693h2.04c.696 0 1.254.16 1.672.482.419.321.628.753.628 1.296 0 .388-.109.725-.326 1.01a1.4 1.4 0 01-.84.537c.376.06.696.23.96.508.265.278.397.654.397 1.13 0 .543-.179.98-.537 1.311-.359.332-.866.498-1.523.498h-2.471v-6.772zm5.666 6.772l.493-6.772h1.035l.894 2.471 1.085 3.155c.389-1.098.77-2.15 1.146-3.155l.934-2.471h1.035l.593 6.772h-.814l-.231-2.673-.241-3.004c-.355.991-.72 1.993-1.096 3.004l-.944 2.522h-.774l-.894-2.522-1.025-2.944c0 .261-.063 1.243-.19 2.944l-.192 2.673h-.813zm8.742-6.772h.814v6.772h-.814zm6.3 0v.713h-1.829v6.059h-.814v-6.059h-1.828v-.713h4.47z" fill="#6093ff" fill-rule="nonzero"/></svg>