<svg viewBox="0 0 64 64" xmlns="http://www.w3.org/2000/svg" fill-rule="evenodd" clip-rule="evenodd" stroke-linejoin="round" stroke-miterlimit="1.414"><path d="M42.783 46.393H21.211V17.706h21.572v28.687zm-11.64 1.635a.853.853 0 111.706.002.853.853 0 01-1.706-.002m13.067-32.18v-.034c0-.726-.586-1.313-1.312-1.313l-.033.002v-.002H21.132v.002l-.033-.002c-.727 0-1.313.588-1.313 1.313 0 .012.002.022.003.034h-.003v32.308h.035c0 .012-.003.023-.003.035 0 .724.586 1.31 1.311 1.31l.034-.002v.002h21.672v-.002l.035.002c.725 0 1.31-.586 1.31-1.31l-.002-.035h.034l-.002-32.308z" fill="#444" fill-rule="nonzero"/></svg>