<svg viewBox="0 0 68 33" fill="none" xmlns="http://www.w3.org/2000/svg"><path d="M15.38 0c17.05 0 23.839 27.5 37.238 27.5 5.99 0 9.86-4.34 9.86-11s-3.87-11-9.86-11c-4.718 0-8.106 2.94-11.382 6.586l-3.524-4.295C41.959 3.578 46.35 0 52.615 0 61.676 0 68 6.75 68 16.5 68 26.248 61.676 33 52.615 33 35.606 33 28.798 5.5 15.379 5.5c-5.986 0-9.857 4.339-9.857 11 0 6.66 3.868 11 9.857 11 4.715 0 8.104-2.938 11.376-6.579l3.525 4.293C26.033 29.425 21.638 33 15.38 33 6.32 33 0 26.25 0 16.5 0 6.751 6.321 0 15.38 0z" fill="#F80"/></svg>