<svg width="144" height="205" viewBox="0 0 144 205" fill="none" xmlns="http://www.w3.org/2000/svg">
<path fill-rule="evenodd" clip-rule="evenodd" d="M29.6742 176.573L79.9232 205L80.37 204.998L129.794 176.664L130.02 176.278L130.051 154.26L144 146.23V145.199L130.053 153.227L130.103 120.083L144 128.051V127.001L129.879 118.888L81.0453 90.9252L144 54.8045V53.7731L80.5954 90.1515L80.5953 45.4257L120.206 22.7165L120.43 22.3303V0L119.532 7.82454e-08V22.0721L80.5953 44.3939V2.23417C80.8207 2.20053 81.0396 2.13934 81.2495 2.05302C81.4242 1.98088 81.5917 1.89092 81.7485 1.78434C81.8685 1.70288 81.982 1.6121 82.0882 1.51363C82.1707 1.43703 82.2474 1.35558 82.3193 1.26966C82.4206 1.1489 82.512 1.01922 82.5921 0.882241C82.6901 0.71406 82.7701 0.536964 82.8305 0.353384C82.8485 0.299891 82.864 0.245992 82.8787 0.191688C82.8951 0.128469 82.9089 0.0644386 82.9212 3.26709e-06L77.372 3.75043e-06C77.4079 0.191283 77.4635 0.378105 77.5378 0.558038C77.5843 0.669078 77.6382 0.77728 77.6995 0.881836C77.9102 1.2413 78.1976 1.54969 78.5431 1.78353L78.6427 1.84756C78.6991 1.88241 78.7562 1.91523 78.815 1.94603L78.9236 1.99953C78.9873 2.02992 79.0527 2.05748 79.1188 2.0826C79.305 2.15312 79.4994 2.20418 79.697 2.23376V44.3939L40.7603 22.0721L40.7603 6.93935e-06L39.8612 7.01767e-06L39.8612 22.0713L0.899146 44.3988L0.899143 1.04113e-05L0 1.04896e-05L3.95355e-06 45.9712L40.3103 22.8454L79.6962 45.4253V90.667L29.6742 119.314V176.573ZM129.12 175.51L82.7807 149.232C83.0339 148.59 83.0298 147.875 82.7685 147.236L129.205 120.057L129.12 175.51ZM128.733 119.297L82.3063 146.469C82.1936 146.333 82.0678 146.209 81.9322 146.098C81.7566 145.954 81.5647 145.832 81.3606 145.734C81.1197 145.62 80.8624 145.539 80.5954 145.495V91.698L128.733 119.297ZM80.5954 151.01C81.2789 150.899 81.8971 150.542 82.3316 150.005L128.666 176.279L80.5954 203.839L80.5954 151.01ZM30.5725 119.831L79.697 91.698V145.495C79.0355 145.599 78.4337 145.933 77.9984 146.439C77.5647 146.945 77.3246 147.588 77.3246 148.252C77.3246 148.917 77.5647 149.56 77.9984 150.066C78.4337 150.572 79.0355 150.906 79.697 151.01V203.843L30.5725 176.018L30.5725 119.831Z" fill="white" fill-opacity="0.15"/>
</svg>
