<svg width="384" height="207" viewBox="0 0 384 207" fill="none" xmlns="http://www.w3.org/2000/svg">
<g opacity="0.15">
<mask id="path-1-outside-1" maskUnits="userSpaceOnUse" x="-8.74228e-08" y="-3.34829e-05" width="384" height="207" fill="black">
<rect fill="white" x="-8.74228e-08" y="-3.34829e-05" width="384" height="207"/>
<path fill-rule="evenodd" clip-rule="evenodd" d="M226.504 116.124L383 206L381.206 206L303.889 161.611L303.889 206L302.992 206L302.992 161.611L226.501 205.535C226.534 205.615 226.561 205.696 226.586 205.778L226.611 205.873C226.622 205.915 226.632 205.957 226.64 206L221.107 206C221.121 205.923 221.139 205.846 221.16 205.77L221.192 205.667C221.252 205.477 221.334 205.294 221.434 205.121C221.644 204.761 221.931 204.454 222.276 204.22C222.495 204.072 222.732 203.956 222.981 203.875C223.126 203.828 223.275 203.793 223.427 203.77L223.427 117.898C223.094 117.844 222.777 117.732 222.489 117.568C222.187 117.397 221.918 117.169 221.697 116.895L144.761 161.087L144.761 206L143.863 206L143.863 161.601L104.966 183.929L104.966 206L104.068 206L104.068 183.928L65.196 161.606L65.196 203.766C65.3933 203.796 65.5874 203.847 65.7733 203.917C65.8393 203.942 65.9045 203.97 65.9681 204L66.0766 204.054C66.1353 204.085 66.1923 204.118 66.2486 204.152L66.3481 204.216C66.6929 204.45 66.9799 204.759 67.1903 205.118C67.2514 205.223 67.3052 205.331 67.3517 205.442C67.4259 205.622 67.4813 205.809 67.5172 206L61.9772 206C61.9895 205.936 62.0033 205.872 62.0196 205.808C62.0343 205.754 62.0498 205.7 62.0677 205.647C62.1281 205.463 62.208 205.286 62.3058 205.118C62.3857 204.981 62.477 204.851 62.5781 204.73C62.6499 204.644 62.7265 204.563 62.8088 204.486C62.9148 204.388 63.0282 204.297 63.148 204.216C63.3045 204.109 63.4717 204.019 63.6462 203.947C63.8557 203.861 64.0742 203.799 64.2992 203.766L64.2992 161.606L25.4272 183.928L25.4272 206L24.5304 206L24.5304 183.67L24.7546 183.283L64.2992 160.574L64.2992 115.848L0.999974 152.227L0.999974 151.195L63.85 115.075L15.0974 87.1115L0.99998 78.9992L0.99998 77.9491L14.874 85.9172L14.9237 52.7732L0.999982 60.8008L0.999982 59.7699L14.9253 51.7402L14.9571 29.7215L15.1822 29.3357L64.5243 1.00162L64.9702 1L114.909 29.3349L115.136 29.7224L115.136 85.6546L144.312 68.9037L221.71 113.37C222.142 112.843 222.752 112.493 223.427 112.384L224.324 112.384C225.001 112.493 225.613 112.845 226.046 113.374L226.5 114.145C226.755 114.781 226.756 115.488 226.504 116.124ZM62.1175 56.7682L15.8548 30.4903L15.7708 85.9428L62.1297 58.764C61.8688 58.125 61.8647 57.4105 62.1175 56.7682ZM221.251 114.146L144.312 69.9495L65.1969 115.333L65.1969 160.575L104.517 183.155L221.247 116.123C220.995 115.487 220.996 114.78 221.251 114.146ZM62.5912 59.5312L16.2421 86.7034L64.2992 114.302L64.2992 60.5046C64.0326 60.4612 63.7758 60.3802 63.5353 60.2655C63.3315 60.1678 63.1399 60.0459 62.9646 59.902C62.8292 59.791 62.7037 59.6669 62.5912 59.5312ZM62.5659 55.9945C62.9996 55.458 63.6168 55.1005 64.2992 54.9903L64.2992 2.16105L16.3081 29.7207L62.5659 55.9945ZM226.048 204.764L302.543 160.837L226.055 116.896C225.622 117.431 225.006 117.788 224.324 117.898L224.324 203.77C224.477 203.794 224.625 203.831 224.769 203.88C224.853 203.908 224.934 203.939 225.014 203.975C225.413 204.152 225.768 204.421 226.048 204.764ZM65.1961 114.302L114.239 86.1693L114.239 29.9817L65.1961 2.1566L65.1961 54.9903C65.8565 55.0941 66.4573 55.4284 66.8919 55.9342C67.3248 56.4395 67.5645 57.0826 67.5645 57.7477C67.5645 58.4123 67.3248 59.0554 66.8919 59.5608C66.4573 60.0665 65.8565 60.4009 65.1961 60.5046L65.1961 114.302Z"/>
</mask>
<path fill-rule="evenodd" clip-rule="evenodd" d="M226.504 116.124L383 206L381.206 206L303.889 161.611L303.889 206L302.992 206L302.992 161.611L226.501 205.535C226.534 205.615 226.561 205.696 226.586 205.778L226.611 205.873C226.622 205.915 226.632 205.957 226.64 206L221.107 206C221.121 205.923 221.139 205.846 221.16 205.77L221.192 205.667C221.252 205.477 221.334 205.294 221.434 205.121C221.644 204.761 221.931 204.454 222.276 204.22C222.495 204.072 222.732 203.956 222.981 203.875C223.126 203.828 223.275 203.793 223.427 203.77L223.427 117.898C223.094 117.844 222.777 117.732 222.489 117.568C222.187 117.397 221.918 117.169 221.697 116.895L144.761 161.087L144.761 206L143.863 206L143.863 161.601L104.966 183.929L104.966 206L104.068 206L104.068 183.928L65.196 161.606L65.196 203.766C65.3933 203.796 65.5874 203.847 65.7733 203.917C65.8393 203.942 65.9045 203.97 65.9681 204L66.0766 204.054C66.1353 204.085 66.1923 204.118 66.2486 204.152L66.3481 204.216C66.6929 204.45 66.9799 204.759 67.1903 205.118C67.2514 205.223 67.3052 205.331 67.3517 205.442C67.4259 205.622 67.4813 205.809 67.5172 206L61.9772 206C61.9895 205.936 62.0033 205.872 62.0196 205.808C62.0343 205.754 62.0498 205.7 62.0677 205.647C62.1281 205.463 62.208 205.286 62.3058 205.118C62.3857 204.981 62.477 204.851 62.5781 204.73C62.6499 204.644 62.7265 204.563 62.8088 204.486C62.9148 204.388 63.0282 204.297 63.148 204.216C63.3045 204.109 63.4717 204.019 63.6462 203.947C63.8557 203.861 64.0742 203.799 64.2992 203.766L64.2992 161.606L25.4272 183.928L25.4272 206L24.5304 206L24.5304 183.67L24.7546 183.283L64.2992 160.574L64.2992 115.848L0.999974 152.227L0.999974 151.195L63.85 115.075L15.0974 87.1115L0.99998 78.9992L0.99998 77.9491L14.874 85.9172L14.9237 52.7732L0.999982 60.8008L0.999982 59.7699L14.9253 51.7402L14.9571 29.7215L15.1822 29.3357L64.5243 1.00162L64.9702 1L114.909 29.3349L115.136 29.7224L115.136 85.6546L144.312 68.9037L221.71 113.37C222.142 112.843 222.752 112.493 223.427 112.384L224.324 112.384C225.001 112.493 225.613 112.845 226.046 113.374L226.5 114.145C226.755 114.781 226.756 115.488 226.504 116.124ZM62.1175 56.7682L15.8548 30.4903L15.7708 85.9428L62.1297 58.764C61.8688 58.125 61.8647 57.4105 62.1175 56.7682ZM221.251 114.146L144.312 69.9495L65.1969 115.333L65.1969 160.575L104.517 183.155L221.247 116.123C220.995 115.487 220.996 114.78 221.251 114.146ZM62.5912 59.5312L16.2421 86.7034L64.2992 114.302L64.2992 60.5046C64.0326 60.4612 63.7758 60.3802 63.5353 60.2655C63.3315 60.1678 63.1399 60.0459 62.9646 59.902C62.8292 59.791 62.7037 59.6669 62.5912 59.5312ZM62.5659 55.9945C62.9996 55.458 63.6168 55.1005 64.2992 54.9903L64.2992 2.16105L16.3081 29.7207L62.5659 55.9945ZM226.048 204.764L302.543 160.837L226.055 116.896C225.622 117.431 225.006 117.788 224.324 117.898L224.324 203.77C224.477 203.794 224.625 203.831 224.769 203.88C224.853 203.908 224.934 203.939 225.014 203.975C225.413 204.152 225.768 204.421 226.048 204.764ZM65.1961 114.302L114.239 86.1693L114.239 29.9817L65.1961 2.1566L65.1961 54.9903C65.8565 55.0941 66.4573 55.4284 66.8919 55.9342C67.3248 56.4395 67.5645 57.0826 67.5645 57.7477C67.5645 58.4123 67.3248 59.0554 66.8919 59.5608C66.4573 60.0665 65.8565 60.4009 65.1961 60.5046L65.1961 114.302Z" fill="white"/>
<path fill-rule="evenodd" clip-rule="evenodd" d="M226.504 116.124L383 206L381.206 206L303.889 161.611L303.889 206L302.992 206L302.992 161.611L226.501 205.535C226.534 205.615 226.561 205.696 226.586 205.778L226.611 205.873C226.622 205.915 226.632 205.957 226.64 206L221.107 206C221.121 205.923 221.139 205.846 221.16 205.77L221.192 205.667C221.252 205.477 221.334 205.294 221.434 205.121C221.644 204.761 221.931 204.454 222.276 204.22C222.495 204.072 222.732 203.956 222.981 203.875C223.126 203.828 223.275 203.793 223.427 203.77L223.427 117.898C223.094 117.844 222.777 117.732 222.489 117.568C222.187 117.397 221.918 117.169 221.697 116.895L144.761 161.087L144.761 206L143.863 206L143.863 161.601L104.966 183.929L104.966 206L104.068 206L104.068 183.928L65.196 161.606L65.196 203.766C65.3933 203.796 65.5874 203.847 65.7733 203.917C65.8393 203.942 65.9045 203.97 65.9681 204L66.0766 204.054C66.1353 204.085 66.1923 204.118 66.2486 204.152L66.3481 204.216C66.6929 204.45 66.9799 204.759 67.1903 205.118C67.2514 205.223 67.3052 205.331 67.3517 205.442C67.4259 205.622 67.4813 205.809 67.5172 206L61.9772 206C61.9895 205.936 62.0033 205.872 62.0196 205.808C62.0343 205.754 62.0498 205.7 62.0677 205.647C62.1281 205.463 62.208 205.286 62.3058 205.118C62.3857 204.981 62.477 204.851 62.5781 204.73C62.6499 204.644 62.7265 204.563 62.8088 204.486C62.9148 204.388 63.0282 204.297 63.148 204.216C63.3045 204.109 63.4717 204.019 63.6462 203.947C63.8557 203.861 64.0742 203.799 64.2992 203.766L64.2992 161.606L25.4272 183.928L25.4272 206L24.5304 206L24.5304 183.67L24.7546 183.283L64.2992 160.574L64.2992 115.848L0.999974 152.227L0.999974 151.195L63.85 115.075L15.0974 87.1115L0.99998 78.9992L0.99998 77.9491L14.874 85.9172L14.9237 52.7732L0.999982 60.8008L0.999982 59.7699L14.9253 51.7402L14.9571 29.7215L15.1822 29.3357L64.5243 1.00162L64.9702 1L114.909 29.3349L115.136 29.7224L115.136 85.6546L144.312 68.9037L221.71 113.37C222.142 112.843 222.752 112.493 223.427 112.384L224.324 112.384C225.001 112.493 225.613 112.845 226.046 113.374L226.5 114.145C226.755 114.781 226.756 115.488 226.504 116.124ZM62.1175 56.7682L15.8548 30.4903L15.7708 85.9428L62.1297 58.764C61.8688 58.125 61.8647 57.4105 62.1175 56.7682ZM221.251 114.146L144.312 69.9495L65.1969 115.333L65.1969 160.575L104.517 183.155L221.247 116.123C220.995 115.487 220.996 114.78 221.251 114.146ZM62.5912 59.5312L16.2421 86.7034L64.2992 114.302L64.2992 60.5046C64.0326 60.4612 63.7758 60.3802 63.5353 60.2655C63.3315 60.1678 63.1399 60.0459 62.9646 59.902C62.8292 59.791 62.7037 59.6669 62.5912 59.5312ZM62.5659 55.9945C62.9996 55.458 63.6168 55.1005 64.2992 54.9903L64.2992 2.16105L16.3081 29.7207L62.5659 55.9945ZM226.048 204.764L302.543 160.837L226.055 116.896C225.622 117.431 225.006 117.788 224.324 117.898L224.324 203.77C224.477 203.794 224.625 203.831 224.769 203.88C224.853 203.908 224.934 203.939 225.014 203.975C225.413 204.152 225.768 204.421 226.048 204.764ZM65.1961 114.302L114.239 86.1693L114.239 29.9817L65.1961 2.1566L65.1961 54.9903C65.8565 55.0941 66.4573 55.4284 66.8919 55.9342C67.3248 56.4395 67.5645 57.0826 67.5645 57.7477C67.5645 58.4123 67.3248 59.0554 66.8919 59.5608C66.4573 60.0665 65.8565 60.4009 65.1961 60.5046L65.1961 114.302Z" stroke="white" stroke-width="0.5" mask="url(#path-1-outside-1)"/>
</g>
</svg>
