<svg xmlns="http://www.w3.org/2000/svg" viewBox="0 0 912 136"><path fill="none" stroke="#3e4246" stroke-dasharray="3 3" d="M601.5 65.5h79v124h-79z"/><path d="M629.98 145.27a6.154 6.154 0 11.012 0zM652.55 122.7a6.152 6.152 0 116.15-6.155v.003a6.154 6.154 0 01-6.15 6.152z" fill="#3e4246"/><path d="M652.55 99.638a5.654 5.654 0 115.65-5.658v.004a5.655 5.655 0 01-5.65 5.654zm-22.57 0a5.656 5.656 0 11.009 0zm0 22.562a5.655 5.655 0 11.01 0zm22.57 22.57a5.655 5.655 0 115.65-5.66 5.655 5.655 0 01-5.65 5.66zM80.5 39.5h139v106h-139z" fill="none" stroke="#3e4246"/><path fill="none" stroke="#3e4246" d="M80.5 6.5h37v139h-37zM219.5 39.5h105v106h-105zM324.5 39.5h60v106h-60zM384.5 114.5h137v31h-137zM1.5 91.5h79v54h-79z"/><circle cx="272.765" cy="92.189" r="30.57" transform="rotate(-80.781 272.767 92.185)" fill="none" stroke="#3e4246"/><circle cx="356" cy="82.002" r="10.023" fill="#3e4246"/><path d="M345.977 81.979h20a10 10 0 00-20 0z" fill="#363a3e"/><circle cx="356" cy="113.002" r="9.523" fill="none" stroke="#3e4246"/><circle cx="356" cy="143.999" r="10.023" fill="#3e4246"/><path d="M251.149 69.865l43.231 43.232" fill="none" stroke="#3e4246"/><path d="M418.5 106.497v8.003h30.447a17.41 17.41 0 1134.82 0H514.5l-.01-8-12.912-.003a35.807 35.807 0 00-4.627-11.135l9.144-9.142-11.316-11.316-9.14 9.142a35.807 35.807 0 00-11.139-4.627l-.003-12.919-15.997-.003.002 12.925a35.75 35.75 0 00-11.137 4.622l-9.147-9.148L426.9 86.211l9.147 9.147a35.806 35.806 0 00-4.623 11.142z" fill="none" stroke="#3e4246" stroke-miterlimit="10"/><path d="M439.903 114.158a26.508 26.508 0 0152.983.009" fill="none" stroke="#3e4246" stroke-linejoin="bevel" stroke-width="3"/></svg>