<svg xmlns="http://www.w3.org/2000/svg" viewBox="0 0 354 433" width="354" height="433"><circle cx="-35.671" cy="219.329" r="214" fill="none" stroke="#3e4246" stroke-width="1.5" stroke-dasharray="3 3"/><circle cx="177.329" cy="199.329" r="7" fill="#3e4246"/><circle cx="39.329" cy="201.329" r="9" fill="#3e4246"/><circle cx="93.329" cy="286.329" r="5" fill="#3e4246"/><circle cx="-35.671" cy="219.329" r="145.708" fill="none" stroke="#3e4246"/><circle cx="-35.671" cy="219.329" r="77.916" fill="none" stroke="#3e4246" stroke-dasharray="3 3"/><path d="M324.673 129.539a7.385 7.385 0 11-7.384-7.385 7.384 7.384 0 017.384 7.385zM351.75 129.539a7.385 7.385 0 11-7.384-7.385 7.384 7.384 0 017.384 7.385zM297.596 102.462a7.385 7.385 0 11-7.384-7.385 7.384 7.384 0 017.384 7.385z" fill="#3e4246"/><path d="M270.019 102.462a6.885 6.885 0 11-6.884-6.885 6.884 6.884 0 016.884 6.885zm0 27.077a6.885 6.885 0 11-6.884-6.885 6.884 6.884 0 016.884 6.885zm27.077 0a6.885 6.885 0 11-6.884-6.885 6.884 6.884 0 016.884 6.885zm27.077-27.077a6.885 6.885 0 11-6.884-6.885 6.884 6.884 0 016.884 6.885zm27.077 0a6.885 6.885 0 11-6.884-6.885 6.884 6.884 0 016.884 6.885z" fill="none" stroke="#3e4246"/></svg>