<svg data-name="Layer 1" xmlns="http://www.w3.org/2000/svg" viewBox="0 0 475 306"><path d="M204.33 72.5h130a9.5 9.5 0 019.5 9.5h0a9.5 9.5 0 01-9.5 9.5h-130a9.5 9.5 0 01-9.5-9.5h0a9.5 9.5 0 019.5-9.5z" fill="none" stroke="#3e4246" style="isolation:isolate"/><path d="M204.33 72.5h60a9.5 9.5 0 019.5 9.5h0a9.5 9.5 0 01-9.5 9.5h-60a9.5 9.5 0 01-9.5-9.5h0a9.5 9.5 0 019.5-9.5zM274 82.5h69" fill="none" stroke="#3e4246" style="isolation:isolate"/><path fill="none" stroke="#3e4246" stroke-width=".992" d="M283.5 145.5h195v160h-195z"/><path fill="none" stroke="#3e4246" d="M283.5 190.5h23v23h-23zM306.5 190.5h23v23h-23zM329.5 190.5h23v23h-23zM352.5 190.5h23v23h-23zM375.5 190.5h23v23h-23zM398.5 190.5h23v23h-23zM421.5 190.5h23v23h-23zM444.5 190.5h23v23h-23zM467.5 190.5h11v23h-11zM283.5 213.5h23v23h-23zM306.5 213.5h23v23h-23zM329.5 213.5h23v23h-23zM352.5 213.5h23v23h-23zM375.5 213.5h23v23h-23zM398.5 213.5h23v23h-23zM421.5 213.5h23v23h-23zM444.5 213.5h23v23h-23zM467.5 213.5h11v23h-11zM283.5 236.5h23v23h-23zM306.5 236.5h23v23h-23zM329.5 236.5h23v23h-23zM352.5 236.5h23v23h-23zM375.5 236.5h23v23h-23zM398.5 236.5h23v23h-23zM421.5 236.5h23v23h-23z"/><path d="M292.33 305.564c5.83-16.333 25.8-46.334 59-38.734 35 11 53 0 60-16s15-36.5 39-31.5c29.5 5.5 32-15.667 36-26" fill="none" stroke="#3e4246" stroke-width="3"/><path fill="none" stroke="#3e4246" d="M444.5 236.5h23v23h-23zM467.5 236.5h11v23h-11zM283.5 259.5h23v23h-23zM306.5 259.5h23v23h-23zM329.5 259.5h23v23h-23zM352.5 259.5h23v23h-23zM375.5 259.5h23v23h-23zM398.5 259.5h23v23h-23zM421.5 259.5h23v23h-23zM444.5 259.5h23v23h-23zM467.5 259.5h11v23h-11zM283.5 282.5h23v23h-23zM306.5 282.5h23v23h-23zM329.5 282.5h23v23h-23zM352.5 282.5h23v23h-23zM375.5 282.5h23v23h-23zM398.5 282.5h23v23h-23zM421.5 282.5h23v23h-23zM444.5 282.5h23v23h-23zM467.5 282.5h11v23h-11z"/><circle cx="302.87" cy="166.873" r="6.894" fill="#3e4246"/><path d="M303 166.5h37" fill="none" stroke="#3e4246"/><path d="M369.691 160h51.625a7 7 0 017 7 7 7 0 01-7 7h-51.625a7 7 0 01-7-7 7 7 0 017-7z" fill="#363a3e" style="isolation:isolate"/><path d="M369.924 160h21a7 7 0 017 7 7 7 0 01-7 7h-21a7 7 0 01-7-7 7 7 0 017-7z" fill="#3e4246" style="isolation:isolate"/><path d="M448.215 167a7.002 7.002 0 016.996-7h23.628a6.995 6.995 0 016.996 7 6.995 6.995 0 01-6.996 7H455.21a7.002 7.002 0 01-6.996-7z" fill="#3e4246"/><circle cx="16" cy="184.33" r="15" fill="#3e4246"/><path d="M1 184.296h29.93a14.965 14.965 0 10-29.93 0z" fill="#363a3e"/><circle cx="69" cy="185" r="15" fill="#3e4246"/><path d="M68.97 200v-29.932a14.966 14.966 0 100 29.932z" fill="#363a3e"/><circle cx="123" cy="185" r="15" fill="#363a3e"/><path d="M122.97 200v-29.932a14.966 14.966 0 100 29.932z" fill="#363a3e"/></svg>