<svg data-name="Layer 1" xmlns="http://www.w3.org/2000/svg" viewBox="0 0 514 458"><path d="M427.64 47.454a15.318 15.318 0 11-1.12-5.87 15.15 15.15 0 011.12 5.87zm-7.28-46l-15.31-.124-.11 12.367a34.232 34.232 0 00-10.69 4.339l-8.68-8.822-10.92 10.742 8.68 8.823a34.286 34.286 0 00-4.51 10.623l-12.37-.1-.12 15.312 12.37.101a34.024 34.024 0 004.34 10.697l-8.83 8.681 10.74 10.918 8.83-8.685a34.213 34.213 0 0010.62 4.513l-.1 12.367 15.31.124.1-12.367a34.262 34.262 0 0010.7-4.339l8.68 8.826 10.92-10.742-8.68-8.823a34.3 34.3 0 004.51-10.626l12.37.101.12-15.313-12.37-.1a33.998 33.998 0 00-4.34-10.694l8.83-8.681-10.74-10.914-8.83 8.677a34.213 34.213 0 00-10.62-4.513z" fill="none" stroke="#3e4246" stroke-linecap="round" stroke-miterlimit="10" stroke-width="1.3"/><circle cx="412.33" cy="47.33" r="16.9" fill="none" stroke="#3e4246" stroke-width="3"/><g opacity=".9" fill="none" stroke="#3e4246"><path d="M23.5 415.5h134v44h-134zM157.5 415.5h212v44h-212zM178 437.5h175M398.5 415.5h224v44h-224z"/><path d="M722.33 436.481c-9.9 11.419-23.09 11.409-32.09-.015-9.48-12.043-22.01-12.034-32.69.018-9.69 10.946-23.51 10.936-32.13-.018-9.61-12.201-22.15-12.195-32.74.015-9.91 11.429-23.13 11.429-32.14-.015-9.59-12.181-22.13-12.175-32.74.016-8.4 9.668-22.52 12.938-32.14-.025-9.16-12.351-22.01-12.342-32.73.024-9.91 11.429-23.13 11.429-32.14-.015-9.19-11.675-21.21-12.025-31.65-1.121" stroke-dasharray="4 4"/><path d="M369.5 415.5h29v44h-29z"/><circle cx="384.1" cy="424.261" r="4.198"/><circle cx="384.1" cy="436.596" r="4.198"/><circle cx="384.1" cy="448.93" r="4.198"/><path d="M101.5 353.5h124v62h-124zM225.5 322.5h234v93h-234zM459.5 322.5h92v93h-92zM.5 368.5h22v22H.5z"/><path d="M147.78 373.648a5.135 5.135 0 11-5.13-5.137 5.136 5.136 0 015.13 5.137zm22.55 0a5.135 5.135 0 11-5.13-5.137 5.136 5.136 0 015.13 5.137zm22.55 0a5.135 5.135 0 11-5.14-5.137 5.138 5.138 0 015.14 5.137zm22.55 0a5.135 5.135 0 11-5.14-5.137 5.138 5.138 0 015.14 5.137zm-67.65 22.548a5.135 5.135 0 11-5.13-5.137 5.136 5.136 0 015.13 5.137zm22.55 0a5.135 5.135 0 11-5.13-5.137 5.136 5.136 0 015.13 5.137zm22.55 0a5.135 5.135 0 11-5.14-5.137 5.138 5.138 0 015.14 5.137zm22.55 0a5.135 5.135 0 11-5.14-5.137 5.138 5.138 0 015.14 5.137zM124.75 373.967a5.14 5.14 0 11-5.14-5.137 5.138 5.138 0 015.14 5.137zm0 22.549a5.14 5.14 0 11-5.14-5.138 5.138 5.138 0 015.14 5.138z"/><circle cx="506.24" cy="368.95" r="30.504"/><path d="M527.85 347.342l-43.22 43.218M244.83 322.329c24.74 22.392 90.5 73.458 149.5 93M332.33 322.329c24.27 19.573 77.97 66.694 91.5 93M324.91 414.986c.94-4.697-16.91-70.933 134.36-29.125"/><path d="M459.73 354.388c-10.02 2.035-38.34-2.37-65.4-32.059M236.83 322.329c1.88 1.879 37.13 32.871 62.5 93" stroke-dasharray="4 4"/><path d="M225.83 391.329c2.5 7 13.5 20 26.5 24"/></g><path d="M380.35 312.352v10.004l38.26.007a21.755 21.755 0 1143.51.008l38.26.006-.01-10.004-16.15-.002a44.662 44.662 0 00-5.79-13.928l11.44-11.436-14.15-14.153-11.43 11.434a44.907 44.907 0 00-13.93-5.786v-16.16l-20.01-.003v16.16a44.711 44.711 0 00-13.92 5.779L405 272.84l-14.15 14.148 11.44 11.437a44.664 44.664 0 00-5.78 13.931z" fill="none" stroke="#3e4246" stroke-miterlimit="10"/><path d="M407.3 322.103a33.131 33.131 0 0166.22.012" fill="none" stroke="#3e4246" stroke-linejoin="bevel" stroke-width="3"/></svg>