<svg xmlns="http://www.w3.org/2000/svg" viewBox="0 0 192 258"><path d="M88.769 186.026l13.914-14.449M102.683 186.026l-13.914-14.449M-1.5.5h129v667h-129z" fill="none" stroke="#3e4246"/><path fill="none" stroke="#3e4246" d="M63.5.5h64v317h-64z"/><path fill="none" stroke="#3e4246" d="M-1.5.5h129v317h-129z"/><path fill="none" stroke="#3e4246" d="M-1.5.5h129v317h-129z"/><path fill="none" stroke="#3e4246" d="M-1.5.5h65v64h-65zM127.5 73.5h64v594h-64z"/><path fill="none" stroke="#3e4246" d="M127.5 73.5h64v63h-64z"/><path fill="none" stroke="#3e4246" d="M127.5 73.5h64v209h-64z"/><circle cx="30.437" cy="32.439" r="14.484" fill="none" stroke="#3e4246"/><path d="M29.5 91v142" fill="none" stroke="#3e4246" stroke-dasharray="4 4"/><path d="M127 155.5H63M127 199.5H63M149.775 95.587l19.266 19.265" fill="none" stroke="#3e4246"/><circle cx="94.896" cy="30.195" r="6.492" fill="none" stroke="#3e4246" stroke-width="2"/><circle cx="94.896" cy="62.304" r="6.492" fill="none" stroke="#3e4246" stroke-width="2"/><circle cx="95" cy="94.797" r="6.5" fill="none" stroke="#3e4246" stroke-width="2"/><circle cx="95" cy="126.797" r="7.5" fill="#3e4246"/><path d="M102.5 126.297h-15a7.516 7.516 0 1015 0z" fill="#363a3e"/><circle cx="158.956" cy="173.83" r="10.5" fill="#3e4246"/><path d="M148.456 173.83h21a10.5 10.5 0 00-21 0z" fill="#363a3e"/><circle cx="159" cy="210.108" r="9.703" fill="none" stroke="#3e4246" stroke-width="2"/><circle cx="159" cy="246.5" r="10.703" fill="#3e4246"/></svg>