<svg data-name="Layer 1" xmlns="http://www.w3.org/2000/svg" viewBox="0 0 335 587"><g opacity=".9" fill="none" stroke="#e8e9eb"><path d="M294.5 452.5h42v134h-42zM294.5 240.5h42v212h-42zM316.5 432V258M294.5-11.5h42v223h-42z"/><path d="M315.506-112c11.415 9.897 11.408 23.092-.014 32.087-12.043 9.483-12.035 22.01.018 32.688 10.944 9.696 10.935 23.511-.018 32.137-12.202 9.606-12.196 22.15.014 32.736 11.433 9.912 11.426 23.128-.014 32.14-12.182 9.59-12.175 22.135.016 32.737 9.664 8.405 12.939 22.527-.026 32.146-12.35 9.162-12.341 22.008.024 32.729 11.433 9.912 11.426 23.127-.014 32.139-11.675 9.193-12.025 21.214-1.122 31.655" stroke-dasharray="2 3"/><path d="M294.5 211.5h42v29h-42z"/><circle cx="305.286" cy="226.226" r="4.198"/><circle cx="315.621" cy="226.226" r="4.198"/><circle cx="325.956" cy="226.226" r="4.198"/><path d="M232.5 384.5h62v101h-62zM201.5 150.5h93v234h-93zM201.5 58.5h93v92h-93zM201.5-11.5h93v70h-93zM216.5 384.5h16v27h-16z"/><path d="M252.673 462.544a5.137 5.137 0 11-5.137 5.137 5.137 5.137 0 015.137-5.137zm0-22.548a5.137 5.137 0 11-5.137 5.137 5.137 5.137 0 015.137-5.137zm0-22.549a5.138 5.138 0 11-5.137 5.137 5.137 5.137 0 015.137-5.137zm0-22.548a5.137 5.137 0 11-5.137 5.137 5.137 5.137 0 015.137-5.137zm22.549 67.645a5.137 5.137 0 11-5.137 5.137 5.137 5.137 0 015.137-5.137zm0-22.548a5.137 5.137 0 11-5.137 5.137 5.137 5.137 0 015.137-5.137zm0-22.549a5.138 5.138 0 11-5.137 5.137 5.137 5.137 0 015.137-5.137zm0-22.548a5.137 5.137 0 11-5.137 5.137 5.137 5.137 0 015.137-5.137z"/><circle cx="247.976" cy="104.089" r="30.504"/><path d="M226.367 82.48l43.218 43.218M231 21.5h32M201.355 365.5c22.392-24.741 73.458-90.498 93-149.5M201.355 278c19.573-24.271 66.693-77.971 93-91.5M294.012 285.415c-4.698-.94-70.934 16.911-29.125-134.351M233.413 150.595c2.036 10.021-2.37 38.347-32.058 65.405M201.355 373.5c1.879-1.879 32.871-37.133 93-62.5M270.355 384.5c7-2.5 20-13.5 24-26.5"/></g><path fill="none" stroke="#e8e9eb" stroke-dasharray="3 3" d="M.5 116.5h79v124H.5z"/><path d="M28.653 195.936a6.154 6.154 0 116.154-6.154 6.154 6.154 0 01-6.154 6.154zM28.653 218.5a6.154 6.154 0 116.154-6.154 6.154 6.154 0 01-6.154 6.154zM51.218 173.372a6.154 6.154 0 116.153-6.154 6.154 6.154 0 01-6.154 6.154z" fill="#e8e9eb"/><path d="M51.218 150.308a5.654 5.654 0 115.654-5.654 5.654 5.654 0 01-5.654 5.654zm-22.564 0a5.654 5.654 0 115.654-5.654 5.654 5.654 0 01-5.654 5.654zm0 22.564a5.654 5.654 0 115.654-5.654 5.654 5.654 0 01-5.654 5.654zm22.564 22.564a5.654 5.654 0 115.654-5.654 5.654 5.654 0 01-5.654 5.654zm0 22.564a5.654 5.654 0 115.654-5.654A5.654 5.654 0 0151.218 218z" fill="none" stroke="#e8e9eb"/></svg>