<svg data-name="Layer 1" xmlns="http://www.w3.org/2000/svg" viewBox="0 0 359 193"><path d="M173.168 103.56l14.449-13.914M173.168 89.647l14.449 13.914M-1.5 64.5h360v130h-360z" fill="none" stroke="#e8e9eb"/><path fill="none" stroke="#e8e9eb" d="M41.5 64.5h317v65h-317z"/><path fill="none" stroke="#e8e9eb" d="M41.5 64.5h317v130h-317z"/><path fill="none" stroke="#e8e9eb" d="M294.5 129.5h64v65h-64zM-1.5.5h287v64h-287z"/><path fill="none" stroke="#e8e9eb" d="M222.5.5h63v64h-63z"/><path fill="none" stroke="#e8e9eb" d="M76.5.5h209v64h-209z"/><circle cx="326.756" cy="161.892" r="14.484" fill="none" stroke="#e8e9eb"/><path d="M265 162.5H68" fill="none" stroke="#e8e9eb" stroke-dasharray="3 3"/><path d="M203.5 65v64M159.5 65v64M263.609 42.553l-19.266-19.265" fill="none" stroke="#e8e9eb"/><circle cx="329.967" cy="96.603" r="6.492" fill="none" stroke="#e8e9eb" stroke-width="2"/><circle cx="297.858" cy="96.603" r="6.492" fill="none" stroke="#e8e9eb" stroke-width="2"/><circle cx="265.365" cy="96.5" r="6.5" fill="none" stroke="#e8e9eb" stroke-width="2"/><circle cx="233.365" cy="96.5" r="7.5" fill="#dddee1"/><path d="M233.865 89v15a7.516 7.516 0 110-15z" fill="#e8e9eb"/><circle cx="185.365" cy="33.5" r="10.5" fill="#e8e9eb"/><path d="M185.365 44V23a10.5 10.5 0 010 21z" fill="#dddee1"/><circle cx="149.087" cy="33.456" r="9.703" fill="none" stroke="#e8e9eb" stroke-width="2"/><circle cx="112.697" cy="33.456" r="10.703" fill="#e8e9eb"/></svg>