<?xml version="1.0" encoding="UTF-8"?>
<svg width="33px" height="32px" viewBox="0 0 33 32" version="1.1" xmlns="http://www.w3.org/2000/svg" xmlns:xlink="http://www.w3.org/1999/xlink">
    <!-- Generator: Sketch 51.3 (57544) - http://www.bohemiancoding.com/sketch -->
    <title>facebook-logo (1)</title>
    <desc>Created with Sketch.</desc>
    <defs></defs>
    <g id="Page-3" stroke="none" stroke-width="1" fill="none" fill-rule="evenodd">
        <g id="Artboard-Copy-14" transform="translate(-1281.000000, -915.000000)" fill="#8F9397" fill-rule="nonzero">
            <g id="facebook-logo-(1)" transform="translate(1281.384615, 915.000000)">
                <path d="M15.9208203,0 C7.12796703,0 0,7.14514286 0,15.9591837 C0,24.7732245 7.12796703,31.9183673 15.9208203,31.9183673 C24.7136735,31.9183673 31.8416405,24.7732245 31.8416405,15.9591837 C31.8416405,7.14514286 24.7136735,0 15.9208203,0 Z M21.9946743,8.12734694 L19.7926334,8.12832653 C18.0658556,8.12832653 17.7319662,8.95085714 17.7319662,10.1577143 L17.7319662,12.8189388 L21.8497174,12.8189388 L21.847763,16.987102 L17.732292,16.987102 L17.732292,27.6835918 L13.4373352,27.6835918 L13.4373352,16.987102 L9.84696625,16.987102 L9.84696625,12.8189388 L13.4373352,12.8189388 L13.4373352,9.74497959 C13.4373352,6.17763265 15.6116876,4.23477551 18.7860793,4.23477551 L21.995,4.23967347 L21.995,8.12734694 L21.9946743,8.12734694 Z" id="Shape"></path>
            </g>
        </g>
    </g>
</svg>