<?xml version="1.0" encoding="UTF-8"?>
<svg width="32px" height="32px" viewBox="0 0 32 32" version="1.1" xmlns="http://www.w3.org/2000/svg" xmlns:xlink="http://www.w3.org/1999/xlink">
    <!-- Generator: Sketch 51.3 (57544) - http://www.bohemiancoding.com/sketch -->
    <title>linkedin</title>
    <desc>Created with Sketch.</desc>
    <defs></defs>
    <g id="Page-3" stroke="none" stroke-width="1" fill="none" fill-rule="evenodd">
        <g id="Artboard-Copy-14" transform="translate(-1192.000000, -915.000000)" fill="#8F9397" fill-rule="nonzero">
            <g id="linkedin" transform="translate(1192.000000, 915.000000)">
                <path d="M15.9615385,0 C7.14757187,0 0,7.16479494 0,16 C0,24.8352051 7.14757187,32 15.9615385,32 C24.7755051,32 31.9230769,24.8352051 31.9230769,16 C31.9230769,7.16479494 24.7755051,0 15.9615385,0 Z M11.3233009,24.1875 L7.43593951,24.1875 L7.43593951,12.4641113 L11.3233009,12.4641113 L11.3233009,24.1875 Z M9.37974196,10.8632812 L9.35441237,10.8632812 C8.0499385,10.8632812 7.20626831,9.96313475 7.20626831,8.83813475 C7.20626831,7.68774413 8.07575522,6.8125 9.40555863,6.8125 C10.7353622,6.8125 11.5537028,7.68774413 11.5790323,8.83813475 C11.5790323,9.96313475 10.7353622,10.8632812 9.37974196,10.8632812 Z M25.3403062,24.1875 L21.4534319,24.1875 L21.4534319,17.9157715 C21.4534319,16.3395996 20.8905793,15.2646484 19.4840563,15.2646484 C18.4102279,15.2646484 17.7706557,15.9897461 17.4895946,16.6896973 C17.386815,16.9401856 17.3617289,17.2902832 17.3617289,17.640625 L17.3617289,24.1875 L13.4746111,24.1875 C13.4746111,24.1875 13.5255139,13.5639649 13.4746111,12.4641113 L17.3617289,12.4641113 L17.3617289,14.1240234 C17.8783065,13.3251953 18.8025929,12.1889649 20.8650061,12.1889649 C23.422564,12.1889649 25.3403062,13.8645019 25.3403062,17.465332 L25.3403062,24.1875 Z" id="Shape"></path>
            </g>
        </g>
    </g>
</svg>