<?xml version="1.0" encoding="UTF-8"?>
<svg width="32px" height="32px" viewBox="0 0 32 32" version="1.1" xmlns="http://www.w3.org/2000/svg" xmlns:xlink="http://www.w3.org/1999/xlink">
    <!-- Generator: Sketch 51.3 (57544) - http://www.bohemiancoding.com/sketch -->
    <title>youtube</title>
    <desc>Created with Sketch.</desc>
    <defs></defs>
    <g id="Page-3" stroke="none" stroke-width="1" fill="none" fill-rule="evenodd">
        <g id="Artboard-Copy-14" transform="translate(-1326.000000, -915.000000)" fill="#8F9397" fill-rule="nonzero">
            <g id="youtube" transform="translate(1326.076923, 915.000000)">
                <polygon id="Shape" points="13.9734092 18.9975586 19.165488 16 13.9734092 13.0024414"></polygon>
                <path d="M15.9615385,0 C7.14757187,0 0,7.16479494 0,16 C0,24.8352051 7.14757187,32 15.9615385,32 C24.7755051,32 31.9230769,24.8352051 31.9230769,16 C31.9230769,7.16479494 24.7755051,0 15.9615385,0 Z M25.9350645,16.0163574 C25.9350645,16.0163574 25.9350645,19.2612305 25.5244328,20.8259278 C25.2942746,21.6823731 24.6206049,22.357666 23.7662183,22.5881348 C22.2052824,23 15.9615385,23 15.9615385,23 C15.9615385,23 9.73411268,23 8.15685861,22.5717774 C7.30247206,22.3413086 6.62880236,21.6657715 6.39864408,20.8093262 C5.98776889,19.2612305 5.98776889,16 5.98776889,16 C5.98776889,16 5.98776889,12.7553711 6.39864408,11.1906738 C6.62855882,10.3342285 7.31879011,9.642334 8.15685861,9.41186525 C9.71779457,9 15.9615385,9 15.9615385,9 C15.9615385,9 22.2052824,9 23.7662183,9.42822263 C24.6206049,9.65869138 25.2942746,10.3342285 25.5244328,11.1906738 C25.9516261,12.7553711 25.9350645,16.0163574 25.9350645,16.0163574 Z" id="Shape"></path>
            </g>
        </g>
    </g>
</svg>