<svg width="100" height="32" viewBox="0 0 100 32" fill="none" xmlns="http://www.w3.org/2000/svg">
<path d="M14.0776 5.31207H19.3134V19.7365H25V23.9667H14.0776V5.31207Z" fill="#404242"/>
<path d="M37.1705 21.8516C37.1705 22.5798 37.3439 23.2733 37.656 23.9321H32.9056C32.7322 23.4466 32.6629 22.9265 32.6629 22.4411L32.6282 22.4064C32.0388 23.7934 30.7558 24.2788 29.2995 24.2788C26.5949 24.2788 25.4507 22.8572 25.4507 20.1179C25.4507 16.9972 26.907 16.1304 28.8141 15.6796L31.1719 15.1248C32.2121 14.8821 32.5935 14.5701 32.5935 13.6685C32.5935 12.9751 32.1775 12.559 31.6227 12.559C30.5478 12.559 30.4091 13.3565 30.4091 14.1886H25.9708C25.9708 11.0333 27.6352 9.43829 31.6573 9.43829C36.269 9.43829 37.2052 11.3107 37.2052 13.4952V21.8516H37.1705ZM32.5935 17.1013C32.2815 17.3093 31.9001 17.448 31.3453 17.6561C30.5131 17.9681 30.3744 18.6269 30.3744 19.4591C30.3744 20.2913 30.6865 20.8807 31.38 20.8807C32.3855 20.8807 32.5935 19.9792 32.5935 19.147V17.1013V17.1013Z" fill="#404242"/>
<path d="M38.1067 5.31207H43.1691V11.4841H43.2385C43.7239 10.2011 45.0068 9.47296 46.3591 9.47296C49.8959 9.47296 50.4507 12.6977 50.4507 16.6852C50.4507 20.0139 50.4507 24.3481 46.0471 24.3481C43.8626 24.3481 43.3425 23.0305 43.1344 22.3717H43.0998V24.0014H38.1067V5.31207ZM44.244 13.2178C43.2385 13.2178 43.0998 14.2233 43.0998 16.8585C43.0998 19.5285 43.2731 20.534 44.244 20.534C45.2496 20.534 45.3882 19.5285 45.3882 16.8585C45.3882 14.2233 45.2149 13.2178 44.244 13.2178Z" fill="#404242"/>
<path d="M58.8766 10.6866C58.8766 9.88905 58.8766 8.39806 57.8017 8.39806C56.4494 8.39806 56.3801 9.33426 56.3801 14.6394C56.3801 20.0832 56.5188 20.8807 57.8017 20.8807C58.6339 20.8807 58.9806 20.0486 58.9806 17.7254V16.3038H64.0431V17.4827C64.0431 21.8516 62.3094 24.3481 57.7324 24.3481C51.0403 24.3481 51.0403 20.6033 51.0403 14.6741C51.0403 8.91817 51.0403 5 57.7324 5C63.2802 5 63.939 8.01665 63.939 10.8946V12.2122H58.8766V10.6866V10.6866Z" fill="#404242"/>
<path d="M77.1843 16.8585C77.1843 20.8461 76.5948 24.3135 71.0123 24.3135C65.4298 24.3135 64.8403 20.8807 64.8403 16.8585C64.8403 12.9057 65.4298 9.43829 71.0123 9.43829C76.5948 9.43829 77.1843 12.9057 77.1843 16.8585ZM71.0123 21.0194C71.9138 21.0194 72.1219 20.1526 72.1219 16.8585C72.1219 13.5645 71.9138 12.6977 71.0123 12.6977C70.1108 12.6977 69.9027 13.5645 69.9027 16.8585C69.9027 20.1526 70.1108 21.0194 71.0123 21.0194Z" fill="#404242"/>
<path d="M77.9819 9.81971H82.9057V11.9002H82.9403C83.4258 10.5479 84.57 9.43829 85.957 9.43829C86.5118 9.43829 86.6505 9.47297 86.8238 9.50764V14.1193C86.6505 14.0846 86.4424 14.0499 86.1997 14.0499C85.957 14.0153 85.7489 14.0153 85.2288 14.0153C83.4951 14.0153 83.079 14.9168 83.079 16.6158V23.9321H77.9819V9.81971Z" fill="#404242"/>
<path d="M87.6212 9.8197H92.6143V11.4494H92.6836C92.857 10.7559 93.3771 9.47296 95.5963 9.47296C99.9999 9.47296 99.9999 13.7725 99.9999 17.1359C99.9999 21.0888 99.4104 24.3481 95.9083 24.3481C94.556 24.3481 93.2384 23.62 92.7877 22.337H92.753V27.6422H87.6906V9.8197H87.6212ZM93.7585 13.2178C92.753 13.2178 92.6143 14.2233 92.6143 16.8932C92.6143 19.5284 92.7877 20.534 93.7585 20.534C94.7641 20.534 94.9028 19.5284 94.9028 16.8932C94.9374 14.2233 94.7641 13.2178 93.7585 13.2178Z" fill="#404242"/>
<path d="M0 14.1887L2.63523 12.4203L0 10.4092V14.1887Z" fill="#404242"/>
<path d="M5.37451 27.6075H10.957V23.8627L5.37451 27.6075Z" fill="#404242"/>
<path d="M3.50208 16.8585L4.5423 17.6213H9.63939L8.59917 16.8585H3.50208Z" fill="#404242"/>
<path d="M1.49097 9.43832H7.07349L8.35644 8.60614H2.73923L1.49097 9.43832Z" fill="#404242"/>
<path d="M7.28152 21.1235L5.06238 22.6145H9.25794L7.28152 21.1235Z" fill="#404242"/>
<path d="M5.61719 18.4536L7.31622 19.7018L9.15394 18.4536H5.61719Z" fill="#404242"/>
<path d="M0 15.7143V24.6255L6.27601 20.3953L0 15.7143Z" fill="#404242"/>
<path d="M10.9571 5.2774H7.66306L6.41479 6.10958H10.9571V5.2774Z" fill="#404242"/>
<path d="M1.76843 10.2704L3.71018 11.7268L5.89465 10.2704H1.76843Z" fill="#404242"/>
<path d="M10.9571 18.6616L8.28723 20.43L10.9571 22.4411V18.6616Z" fill="#404242"/>
<path d="M4.71558 12.455L10.9569 17.136V8.2594L4.71558 12.455Z" fill="#404242"/>
<path d="M5.54785 5.27832H0V9.02312L5.54785 5.27832Z" fill="#404242"/>
<path d="M3.84873 23.4467L2.60046 24.2788H8.21767L9.46593 23.4467H3.84873Z" fill="#404242"/>
<path d="M1.38694 25.111L0.138672 25.9431H5.75587L7.00414 25.111H1.38694Z" fill="#404242"/>
<path d="M1.76843 14.4314H5.37454L3.67551 13.1484L1.76843 14.4314Z" fill="#404242"/>
<path d="M9.53529 7.77395L10.8182 6.94177H5.20103L3.95276 7.77395H9.53529Z" fill="#404242"/>
<path d="M0 26.7753V27.6075H3.32871L4.54231 26.7753H0Z" fill="#404242"/>
<path d="M1.38696 15.2635L2.42719 16.0264H7.4896L6.44938 15.2635H1.38696Z" fill="#404242"/>
</svg>
