<?xml version="1.0" encoding="UTF-8" standalone="no"?>
<svg
   xmlns:dc="http://purl.org/dc/elements/1.1/"
   xmlns:cc="http://creativecommons.org/ns#"
   xmlns:rdf="http://www.w3.org/1999/02/22-rdf-syntax-ns#"
   xmlns:svg="http://www.w3.org/2000/svg"
   xmlns="http://www.w3.org/2000/svg"
   xmlns:sodipodi="http://sodipodi.sourceforge.net/DTD/sodipodi-0.dtd"
   xmlns:inkscape="http://www.inkscape.org/namespaces/inkscape"
   height="251.64999"
   width="942.10602"
   inkscape:version="1.0 (4035a4fb49, 2020-05-01)"
   sodipodi:docname="logo.svg"
   xml:space="preserve"
   viewBox="0 0 942.10602 251.64999"
   y="0px"
   x="0px"
   id="Layer_1"
   version="1.1"><metadata
   id="metadata106"><rdf:RDF><cc:Work
       rdf:about=""><dc:format>image/svg+xml</dc:format><dc:type
         rdf:resource="http://purl.org/dc/dcmitype/StillImage" /><dc:title></dc:title></cc:Work></rdf:RDF></metadata><defs
   id="defs104" /><sodipodi:namedview
   fit-margin-bottom="0"
   fit-margin-right="0"
   fit-margin-left="0"
   fit-margin-top="0"
   inkscape:current-layer="g99"
   inkscape:window-maximized="1"
   inkscape:window-y="-8"
   inkscape:window-x="-8"
   inkscape:cy="348.16734"
   inkscape:cx="498.22339"
   inkscape:zoom="1.057"
   showgrid="false"
   id="namedview102"
   inkscape:window-height="1017"
   inkscape:window-width="1920"
   inkscape:pageshadow="2"
   inkscape:pageopacity="0"
   guidetolerance="10"
   gridtolerance="10"
   objecttolerance="10"
   borderopacity="1"
   bordercolor="#666666"
   pagecolor="#ffffff" />
<style
   id="style59"
   type="text/css">
	.st0{fill:#161615;}
	.st1{fill:#FFFFFF;}
	.st2{fill:#FFD800;}
</style>
<g
   transform="translate(-32.997041,-224.16)"
   id="g99">
	<g
   id="g65">
		<path
   id="path61"
   d="m 346.2,426.42 c -8.49,0 -16.39,-3.82 -21.66,-10.48 -5.27,-6.66 -7.19,-15.22 -5.24,-23.49 l 24.72,-105.21 c 3.67,-15.61 17.43,-26.52 33.47,-26.52 H 943.4 c 8.49,0 16.39,3.82 21.67,10.48 5.27,6.66 7.19,15.22 5.24,23.49 L 945.59,399.9 c -3.67,15.61 -17.43,26.52 -33.47,26.52 z"
   class="st0" />
		<path
   id="path63"
   d="m 943.39,264.78 c 15.21,0 26.45,14.18 22.97,28.99 l -24.72,105.21 c -3.22,13.71 -15.45,23.4 -29.53,23.4 H 346.2 c -15.21,0 -26.45,-14.18 -22.97,-28.99 l 24.72,-105.21 c 3.22,-13.71 15.45,-23.4 29.53,-23.4 h 565.91 m 0,-8.09 h -565.9 c -17.92,0 -33.31,12.19 -37.41,29.64 l -24.72,105.21 c -2.23,9.48 -0.04,19.29 6.01,26.92 6.05,7.63 15.1,12.01 24.84,12.01 h 565.91 c 17.92,0 33.31,-12.19 37.41,-29.64 l 24.72,-105.21 c 2.23,-9.48 0.04,-19.29 -6.01,-26.92 -6.05,-7.63 -15.11,-12.01 -24.85,-12.01 z"
   class="st1" />
	</g>
	<g
   id="g81">
		<g
   id="g73">
			<path
   id="path67"
   d="m 639.66,399.78 h -26.55 l 17.65,-77.1 -34.97,77.1 H 575.6 v -75.51 l -17.49,75.51 h -26.23 l 25.91,-112.23 h 39.27 c -0.32,11.92 -2.38,74.08 -2.38,74.08 l 30.68,-74.08 h 39.58 z"
   class="st1" />
			<path
   id="path69"
   d="m 742.21,364.8 c -3.97,17.49 -9.22,36.56 -43.4,36.56 -17.65,0 -37.84,-5.4 -37.84,-25.28 0,-4.77 0.64,-9.22 2.38,-16.69 l 9.38,-40.54 c 5.56,-24 17.33,-33.07 42.6,-33.07 24.96,0 37.84,8.74 37.84,25.75 0,4.61 -0.64,8.43 -2.38,16.22 z m -20.98,-47.37 c 0.48,-1.91 0.64,-3.18 0.64,-4.13 0,-3.97 -2.7,-6.2 -7.31,-6.2 -6.2,0 -8.11,3.02 -10.33,12.72 l -11.45,49.76 c -0.48,1.91 -0.64,3.34 -0.64,4.29 0,3.82 2.86,6.2 7.47,6.2 4.45,0 7.47,-0.79 9.54,-10.02 z"
   class="st1" />
			<path
   id="path71"
   d="m 916.13,364.8 c -3.97,17.49 -9.22,36.56 -43.4,36.56 -17.65,0 -37.84,-5.4 -37.84,-25.28 0,-4.77 0.64,-9.22 2.38,-16.69 l 9.38,-40.54 c 5.56,-24 17.33,-33.07 42.6,-33.07 24.96,0 37.84,8.74 37.84,25.75 0,4.61 -0.64,8.43 -2.38,16.22 z m -20.99,-47.37 c 0.48,-1.91 0.64,-3.18 0.64,-4.13 0,-3.97 -2.7,-6.2 -7.31,-6.2 -6.2,0 -8.11,3.02 -10.33,12.72 l -11.45,49.76 c -0.48,1.91 -0.64,3.34 -0.64,4.29 0,3.82 2.86,6.2 7.47,6.2 4.45,0 7.47,-0.79 9.54,-10.02 z"
   class="st1" />
		</g>
		<path
   id="path75"
   d="m 513.54,358.28 -1.27,6.04 c -3.02,14.15 -6.04,21.46 -11.6,27.03 -6.99,7.15 -17.96,10.49 -33.38,10.49 -24.32,0 -35.77,-7.95 -35.77,-24.8 0,-4.29 0.64,-8.74 3.02,-18.92 l 8.74,-37.52 c 6.2,-26.87 17.33,-35.29 43.56,-35.29 24.16,0 36.72,8.11 36.72,23.53 0,3.02 -0.32,6.2 -1.11,9.38 l -2.38,10.65 h -31 l 2.38,-10.33 c 0.48,-2.23 0.64,-3.97 0.64,-5.25 0,-3.5 -2.7,-5.56 -7.15,-5.56 -6.68,0 -7.79,2.86 -10.02,12.4 l -11.29,48.33 c -0.64,2.7 -0.79,4.29 -0.79,5.56 0,3.66 2.54,5.72 7.47,5.72 5.4,0 7.63,-2.38 9.38,-10.33 l 2.54,-11.13 z"
   class="st2" />
		<polygon
   id="polygon77"
   points="764.15,399.78 795.78,399.78 816.77,309 840.61,309 845.54,287.54 766.22,287.54 761.29,309 785.13,309 "
   class="st1" />
		<path
   id="path79"
   d="m 442.08,287.54 h -60.41 l -25.91,112.23 h 31.48 l 10.65,-46.42 h 26.71 l 4.93,-21.46 h -26.71 l 5.25,-22.73 c 0,0 27.84,0.01 28.93,0 z"
   class="st2" />
	</g>
	<g
   id="g97">
		<path
   id="path83"
   d="m 227.92,239.72 c -13.17,-5.76 -25.61,-11.19 -47.97,-14.35 l -1.22,-0.17 -0.44,0.02 c -0.2,-0.02 -0.43,-0.05 -0.69,-0.09 -2.7,-0.34 -7.73,-0.97 -14.28,-0.97 -22.52,0 -44.01,7.44 -62.14,21.51 C 84.13,258.9 69.17,285.7 59.45,304.6 l -1.1,2.15 -5.33,10.48 c -2.29,2.07 -4.15,4.63 -5.4,7.57 -5.69,13.41 -15.15,40.35 -14.6,70.11 0.09,5.15 2.84,9.68 6.92,12.33 l 0.02,0.94 c 0.06,3.61 1.04,7.71 2.93,14.5 l 0.08,0.29 c 0,0 0.46,1.61 0.58,2.02 3.96,13.75 8.56,25.78 14.06,36.78 3.14,6.29 8.8,11.03 15.53,13 1.19,0.35 2.42,0.62 3.65,0.79 1.17,0.16 2.35,0.25 3.53,0.25 4.53,0 9,-1.24 12.92,-3.57 13.48,-8.03 34.61,-18.51 48.88,-23.02 l 21.05,-6.62 c 0.08,0 0.15,0.01 0.23,0.01 2.55,0 5.13,-0.2 7.66,-0.6 8.41,-1.32 15.62,-3.78 24.8,-6.92 l 5,-1.7 c 40.64,-13.13 44.21,-11.55 74,-11.38 0,0 -3.2,-15.18 -3.2,-15.18 -2.58,-11.61 3.61,-22.55 7.41,-33.14 4.07,-11.33 7.19,-23.2 7.55,-35.29 0.05,-1.67 0.05,-3.34 -0.02,-5.01 -0.16,-4.17 -0.77,-8.32 -1.86,-12.34 -0.74,-2.73 -1.96,-5.32 -2.15,-8.16 -0.22,-3.23 0.41,-6.6 1.88,-9.52 4.26,-8.46 12.44,-15.16 19.91,-20.72 0,0 25.38,-18.78 25.38,-18.78 -23.42,-0.03 -86.85,-17.6 -101.84,-24.15 z"
   class="st0" />
		<g
   id="g95">
			<g
   id="g93">
				<path
   id="path85"
   d="m 55.42,419.18 c 0.07,0.23 0.13,0.46 0.2,0.7 0.14,0.5 0.29,1.02 0.44,1.53 2.83,9.83 6.88,21.95 13.19,34.57 1.53,3.06 4.29,5.36 7.57,6.33 0.59,0.17 1.19,0.3 1.78,0.39 2.76,0.39 5.53,-0.17 7.98,-1.62 13.7,-8.16 35.7,-19.22 51.63,-24.25 l 1,-0.31 -0.91,-0.51 c -8.86,-4.93 -17.47,-18.92 -22.71,-28.76 -0.75,-1.4 -1.42,-2.72 -2.02,-3.91 -1.32,-2.63 -2.26,-4.67 -2.74,-5.71 -0.21,-0.47 -0.33,-0.74 -0.35,-0.77 l -1.53,-3.89 -55.99,15 c 0.05,2.32 1.15,6.52 2.46,11.21 z"
   class="st2" />
				<path
   id="path87"
   d="m 157.39,308.91 c 10.17,1.96 18.8,8.75 22.52,17.72 3.42,8.25 2.25,17.06 -3.2,24.19 -0.52,0.69 -1.12,1.45 -1.85,2.35 -13.07,16.03 -31.67,28.57 -53.19,36.03 1.22,3.41 4.09,11.2 6.07,14.95 2.53,5.11 6.33,11.14 11.79,16.19 5.29,4.88 11.84,7.93 18.83,8.92 3.48,0.49 7.07,0.48 10.67,-0.09 7.31,-1.15 13.73,-3.34 22.62,-6.38 1.6,-0.54 3.27,-1.11 5.04,-1.71 36.44,-12.29 48.22,-10.06 62.26,-11.4 -0.75,-3.39 -2.17,-12.2 0.88,-20.67 0,-0.01 0,-0.02 0.01,-0.02 2.07,-5.75 2.49,-6.91 7.02,-19.53 l -0.15,-0.01 -12.18,-0.55 c -8.04,-0.36 -15.52,3.76 -19.8,10.57 -4.54,7.21 -11.31,8.16 -25.98,8.82 -6.25,0.29 -19.98,0.76 -27.49,1.52 22.38,-18.31 33.63,-52.48 32.76,-60.96 14.1,5.96 23.16,8.07 29.27,9.5 2.2,0.51 3.57,2.74 2.94,4.98 0,0 -0.02,0.07 -0.06,0.21 -0.23,0.82 -1.13,4.07 -2.53,9.06 l 1.07,0.05 26.51,1.21 0.43,-1.9 c 0.48,-1.98 0.88,-3.82 1.19,-5.54 0.38,-2.06 0.65,-3.95 0.82,-5.69 l 0.02,-0.23 c 1.43,-14.69 -3.75,-18.63 -4.08,-26.35 -25.98,0.14 -42.46,-7.78 -61.74,-15.71 -16.17,-6.65 -26.43,-10.84 -35.22,-12.09 -15.16,-2.14 -26.54,9.9 -35.5,21.61 v 0 c -0.23,0.3 -0.46,0.61 -0.69,0.91 l -1.49,1.95 c 3.33,-0.56 6.46,-1.15 9.31,-1.78 4.37,-0.91 8.78,-0.97 13.12,-0.13 z"
   class="st2" />
				<path
   id="path89"
   d="m 139.64,284.25 c 10.73,-9.05 21.98,-12.81 33.45,-11.19 30.85,4.36 57.22,29.05 97.88,29.34 3.45,-13.75 25.65,-30.18 25.65,-30.18 -72.75,-10.62 -72.26,-27.42 -118.49,-33.95 -2.87,0.14 -36.05,-7.84 -68.96,17.7 -14.88,11.56 -29.04,36.92 -38.19,54.7 l -0.01,0.02 c -0.35,0.67 -0.68,1.33 -1.01,1.98 0.25,0.02 0.49,0.05 0.74,0.08 1.55,0.19 3.12,0.37 4.69,0.52 l 0.99,0.09 c 13.99,1.28 28.36,0.93 41.26,-0.27 l 1.2,-2.42 c 0.99,-1.86 8.99,-16.45 20.8,-26.42 z"
   class="st2" />
				<path
   id="path91"
   d="m 69.19,324.63 c -4.11,-0.51 -8.04,1.62 -9.58,5.27 -4.83,11.4 -14.08,36.97 -13.57,64.79 0.02,1.33 1.37,2.28 2.7,1.93 l 58.45,-15.66 c 23.38,-5.94 43.79,-18.11 57.7,-35.17 0.56,-0.69 1.11,-1.38 1.64,-2.09 8.5,-11.12 -4.24,-26.21 -19.35,-22.92 -19.73,4.29 -50.07,7.35 -77.99,3.85 z"
   class="st1" />
			</g>
		</g>
	</g>
</g>
</svg>
