<svg width="33" height="32" viewBox="0 0 33 32" xmlns="http://www.w3.org/2000/svg"><title>cryptotab-logo</title><desc>Created with Sketch.</desc><g transform="translate(0 0)" fill="none"><ellipse fill="#F7931A" cx="16.262" cy="16" rx="16.262" ry="16"/><g fill="#fff"><path d="M22.37 22.419c.156-.077.376-.115.659-.115.283 0 .527.11.732.331.205.221.307.475.307.763 0 .518-.215.883-.644 1.094-.917.499-1.898.922-2.942 1.267-1.044.346-2.293.518-3.747.518-1.454 0-2.805-.235-4.054-.706-1.249-.47-2.332-1.157-3.249-2.059-1.951-1.882-2.927-4.406-2.927-7.574s.976-5.693 2.927-7.574c1.893-1.843 4.332-2.765 7.318-2.765 1.444 0 2.688.173 3.732.518 1.044.346 1.844.667 2.4.965.556.298.893.538 1.01.72.117.182.176.413.176.691 0 .278-.102.528-.307.749-.205.221-.449.331-.732.331s-.502-.038-.659-.115c-.781-.403-1.581-.73-2.4-.979-.82-.25-1.839-.374-3.059-.374-1.22 0-2.322.202-3.308.605-.985.403-1.81.96-2.473 1.67-1.307 1.402-1.961 3.254-1.961 5.558s.654 4.157 1.961 5.558c1.425 1.517 3.386 2.275 5.884 2.275 1.151 0 2.137-.125 2.956-.374.82-.25 1.62-.576 2.4-.979z" id="C"/><path d="M19.966 19.21c.078-.038.188-.058.329-.058.141 0 .263.055.366.166.102.11.154.238.154.382 0 .259-.107.442-.322.547-.459.25-.949.461-1.471.634-.522.173-1.146.259-1.873.259-.727 0-1.403-.118-2.027-.353-.624-.235-1.166-.578-1.625-1.03-.976-.941-1.464-2.203-1.464-3.787s.488-2.846 1.464-3.787c.946-.922 2.166-1.382 3.659-1.382.722 0 1.344.086 1.866.259.522.173.922.334 1.2.482.278.149.446.269.505.36.059.091.088.206.088.346 0 .139-.051.264-.154.374-.102.11-.224.166-.366.166-.141 0-.251-.019-.329-.058-.39-.202-.79-.365-1.2-.49-.41-.125-.92-.187-1.529-.187-.61 0-1.161.101-1.654.302-.493.202-.905.48-1.237.835-.654.701-.981 1.627-.981 2.779s.327 2.078.981 2.779c.712.758 1.693 1.138 2.942 1.138.576 0 1.068-.062 1.478-.187.41-.125.81-.288 1.2-.49z" stroke="#fff" stroke-width=".8"/></g></g></svg>