<?xml version="1.0" encoding="UTF-8"?>
<svg width="21px" height="24px" viewBox="0 0 21 24" version="1.1" xmlns="http://www.w3.org/2000/svg" xmlns:xlink="http://www.w3.org/1999/xlink">
    <!-- Generator: Sketch 53 (72520) - https://sketchapp.com -->
    <title>icon-mac</title>
    <desc>Created with Sketch.</desc>
    <g id="Page-1" stroke="none" stroke-width="1" fill="none" fill-rule="evenodd">
        <g id="ctb_update-to-browser_landing--01" transform="translate(-242.000000, -908.000000)" fill="#FFFFFF" fill-rule="nonzero">
            <g id="first" transform="translate(120.000000, 155.000000)">
                <g id="card" transform="translate(0.000000, 226.000000)">
                    <g id="btn" transform="translate(70.000000, 510.000000)">
                        <g id="up">
                            <path d="M69.5361701,29.752548 C69.5714188,33.3831693 72.9552989,34.5891266 72.9942975,34.607126 C72.9635486,34.6888731 72.4520667,36.328315 71.2086108,38.021005 C70.1331489,39.4827032 69.0201884,40.9384016 67.2637506,40.9676505 C65.5365618,40.9983994 64.9815815,40.0144343 63.0069015,40.0144343 C61.0329715,40.0144343 60.4164933,40.9384016 58.7830512,40.9983994 C57.0888613,41.0583973 55.797407,39.4204554 54.7129455,37.962507 C52.497524,34.9821127 50.8055839,29.5410555 53.0795034,25.8691857 C54.2067134,24.0452503 56.2233919,22.8902912 58.4133143,22.8595423 C60.0782553,22.8317933 61.6509496,23.9050053 62.6671635,23.9050053 C63.6863774,23.9050053 65.5965597,22.615801 67.6034886,22.8047943 C68.4442088,22.8370431 70.8043751,23.1197831 72.3185715,25.18146 C72.1993257,25.2542075 69.5024213,26.7121558 69.5361701,29.752548 Z M62.4646707,22.531054 C62.2689277,21.1518528 62.9986518,19.7179037 63.8326222,18.8171856 C64.7633393,17.8024716 66.3337836,17.0479983 67.6304876,17 C67.7962318,18.4054502 67.1880033,19.8161502 66.2887852,20.8316142 C65.3880671,21.8455783 63.9113694,22.6353003 62.4646707,22.531054 Z" id="icon-mac"></path>
                        </g>
                    </g>
                </g>
            </g>
        </g>
    </g>
</svg>