<svg width="535" height="186" viewBox="0 0 535 186" fill="none" xmlns="http://www.w3.org/2000/svg">
<path fill-rule="evenodd" clip-rule="evenodd" d="M457.004 183.447C460.78 181.988 464.437 180.269 468.065 178.482C478.173 173.509 487.998 168.024 497.682 162.276C505.217 157.804 512.649 153.173 519.821 148.132C522.345 146.356 524.858 144.553 527.153 142.485C528.11 141.622 528.989 140.664 529.848 139.7C530.637 138.814 531.144 137.752 531.392 136.591C532.167 132.947 532.658 129.267 532.614 125.533C532.566 121.214 531.991 116.961 530.841 112.795C528.533 104.417 524.485 96.947 519.057 90.2021C518.959 90.0761 518.828 89.975 518.5 89.6558C518.637 90.3421 518.75 90.7418 518.792 91.1513C518.848 91.7334 518.92 92.3234 518.857 92.8971C518.607 95.1353 517.636 97.0663 516.065 98.6419C514.89 99.8206 513.623 100.922 512.3 101.934C510.016 103.683 507.691 105.384 505.321 107.017C496.421 113.147 487.214 118.797 477.923 124.306C467.266 130.621 438.97 145.774 438.97 145.774C441.691 147.281 449.498 152.065 454.154 162.033C458.631 171.623 457.543 180.338 457.004 183.447Z" fill="#E77D44"/>
<path fill-rule="evenodd" clip-rule="evenodd" d="M422.764 162.725L407.425 181.336C406.205 182.814 407.255 185.046 409.169 185.046H433.036C433.307 183.037 435.331 170.646 422.764 162.725Z" fill="#E77D44"/>
<path fill-rule="evenodd" clip-rule="evenodd" d="M519.057 90.2013C518.955 90.0759 518.827 89.9747 518.499 89.6555C518.637 90.3412 518.75 90.744 518.792 91.1505C518.848 91.732 518.923 92.3232 518.857 92.8962C518.607 95.135 517.635 97.0661 516.067 98.6416C514.89 99.8204 513.623 100.925 512.299 101.936C510.017 103.683 507.691 105.383 505.325 107.017C498.791 111.517 492.093 115.755 485.317 119.868C518.386 113.898 528.336 127.905 531.329 136.847C531.349 136.763 531.373 136.677 531.391 136.59C532.166 132.946 532.658 129.266 532.614 125.532C532.563 121.214 531.991 116.961 530.843 112.795C528.533 104.417 524.485 96.9468 519.057 90.2013Z" fill="#E46E38"/>
<path fill-rule="evenodd" clip-rule="evenodd" d="M533.879 123.523C533.463 123.251 533.507 122.896 533.495 122.574C533.414 120.439 533.102 118.336 532.681 116.247C530.786 106.896 527.143 98.3392 521.128 90.8632C518.469 87.5565 515.404 84.6671 511.929 82.2496C507.616 79.25 503.288 76.2625 498.889 73.3944C488.161 66.3987 477.152 59.8689 466.01 53.5565C456.978 48.438 447.864 43.477 438.543 38.8995C434.954 37.1326 431.347 35.3989 427.606 33.9658C426.247 33.4436 424.867 32.9572 423.463 32.575C421.662 32.0825 419.835 32.1274 418.032 32.6707C417.018 32.9778 416.118 33.4854 415.322 34.1808C415.114 34.3631 414.896 34.5297 414.559 34.8017C414.607 34.4885 414.604 34.3207 414.66 34.1748C418.708 23.8245 424.715 14.8917 433.586 8.04814C438.09 4.57424 443.103 2.07316 448.513 0.344991C450.087 -0.159587 451.631 -0.0517663 453.199 0.291686C455.285 0.750834 457.268 1.50922 459.235 2.3209C464.168 4.35678 468.959 6.70825 473.695 9.16451C488.327 16.7507 502.563 25.0215 516.299 34.1451C519.599 36.3384 522.839 38.616 525.948 41.0808C527.357 42.1971 528.678 43.4056 529.927 44.6982C530.877 45.6771 531.518 46.8322 531.901 48.1364C532.717 50.9094 533.14 53.7564 533.447 56.6215C534.598 67.3479 534.917 78.11 534.985 88.8873C535.033 96.5304 534.976 104.171 534.642 111.808C534.475 115.56 534.192 119.309 533.96 123.057C533.954 123.18 533.918 123.302 533.879 123.523Z" fill="#ED9847"/>
<path fill-rule="evenodd" clip-rule="evenodd" d="M406.913 130.495C408.174 132.022 410.651 131.079 410.553 129.1C410.174 121.463 409.571 109.128 409.503 106.269C409.205 94.1904 409.334 82.118 409.695 70.0427C409.924 62.4353 410.448 54.8399 411.003 47.2464C411.146 45.2802 411.322 43.3013 411.632 41.3465C412.469 36.1087 414.174 31.1514 416.69 26.4866C421.224 18.076 427.382 11.1015 435.248 5.66021C435.546 5.45426 435.936 5.3325 436.092 4.8037C435.919 4.83398 435.839 4.82792 435.773 4.85761C434.569 5.43366 433.361 6.00124 432.169 6.59486C417.725 13.8171 403.748 21.8606 390.143 30.5578C385.538 33.4998 381.004 36.5473 376.667 39.8813C374.927 41.2181 373.258 42.6416 371.74 44.2389C370.899 45.1191 369.996 46.8466 369.686 48.026C369.332 49.375 369.013 50.7385 368.768 52.1117C368.13 55.6904 367.838 59.3133 367.567 62.9338C367.165 68.2643 366.914 73.6032 366.801 78.9452C366.604 88.3917 366.959 117.202 367.126 129.56C367.152 131.489 369.582 132.318 370.789 130.808L387.123 110.379C387.937 109.357 389.482 109.349 390.313 110.355L406.913 130.495Z" fill="#F5BD44"/>
<path fill-rule="evenodd" clip-rule="evenodd" d="M438.774 145.765L422.764 162.725C430.127 167.238 434.181 175.643 433.135 184.223L433.036 185.044L457.004 183.447C458.42 175.738 457.172 168.474 453.753 161.274C450.337 154.08 445.344 148.907 438.774 145.765Z" fill="#FFFFFE"/>
<path fill-rule="evenodd" clip-rule="evenodd" d="M235.576 154.209C235.576 154.86 235.551 155.509 235.502 156.154C235.795 157.301 236.223 158.412 236.779 159.461C239.307 163.912 244.244 166.296 249.188 165.452C254.133 164.61 258.057 160.715 259.052 155.663C259.171 155.032 259.23 154.392 259.23 153.749V143.875C259.23 142.812 259.732 142.325 260.678 142.447C263.077 142.673 265.428 143.277 267.649 144.24C268.581 144.729 269.488 145.266 270.366 145.85C271.252 146.361 271.762 147.362 271.667 148.402V153.385C271.584 156.509 272.773 159.526 274.945 161.71C277.979 165.157 282.685 166.474 286.998 165.082C291.428 164.026 294.82 160.358 295.624 155.755C296.368 152.307 295.639 148.697 293.622 145.839C291.606 142.981 288.496 141.149 285.078 140.806H283.306H260.943C259.407 140.806 259.112 140.502 259.29 138.953C259.515 136.519 260.124 134.138 261.091 131.904C261.566 130.949 262.098 130.025 262.686 129.139C263.169 128.391 264.001 127.963 264.872 128.016H283.808C287.365 127.989 290.882 128.799 294.088 130.385C301.58 133.905 306.813 141.108 307.972 149.496C308.164 150.792 308.254 152.103 308.238 153.415C308.445 159.582 306.206 165.57 302.034 170.004C297.364 175.305 290.734 178.328 283.778 178.328C276.824 178.328 270.192 175.305 265.522 170.004C260.853 175.284 254.235 178.295 247.296 178.295C240.634 178.295 234.27 175.521 229.641 170.628C228.939 171.467 228.18 172.263 227.368 173.01C223.054 177.405 217.103 179.716 211.012 179.363H210.922H188.776C187.851 179.363 187.403 178.906 187.493 178.025C187.696 174.402 188.84 170.899 190.806 167.872C191.381 167.028 192.335 166.537 193.343 166.565H210.773C217.177 166.652 222.558 161.685 223.1 155.185C223.642 148.686 219.159 142.865 212.832 141.852C212.409 141.69 202.64 141.815 200.27 141.846H200.269C199.968 141.849 199.787 141.852 199.76 141.852C198.715 141.852 198.298 141.396 198.387 140.332C198.613 137.453 199.383 134.645 200.655 132.064C201.051 131.357 201.49 130.677 201.969 130.027C202.372 129.442 203.028 129.091 203.729 129.085H210.893C216.974 128.978 222.867 131.239 227.368 135.407C232.593 140.209 235.576 147.041 235.576 154.209ZM8.61985 172.022C3.41817 167.224 0.449677 160.402 0.449677 153.246C0.449677 146.089 3.41817 139.267 8.61985 134.469C12.7361 130.091 18.5183 127.761 24.4553 128.088H37.6802C37.9535 127.99 38.3429 127.993 38.892 128.058C41.277 128.294 43.6081 128.92 45.7977 129.911C46.7338 130.399 47.6385 130.948 48.5074 131.552C49.2397 132.048 49.6594 132.904 49.6086 133.801V137.477V153.185C49.6177 154.272 49.556 155.356 49.4223 156.428C49.8051 161.95 55.597 166.129 61.3882 166.998L62.2572 167.191L133 166.969C134.318 166.764 135.596 166.324 136.774 165.662C140.379 163.998 142.938 160.661 143.616 156.738C143.646 156.366 143.646 155.991 143.616 155.619V146.544C143.616 145.485 144.068 145.061 145.124 145.152C148.046 145.381 150.899 146.161 153.533 147.451C154.234 147.849 154.91 148.294 155.552 148.782C156.135 149.188 156.484 149.855 156.486 150.567V151.596V154.832C156.556 161.031 154.272 167.023 150.097 171.591C150.037 171.657 149.976 171.722 149.916 171.788C149.75 172.366 149.449 172.874 148.982 173.283C146.723 175.276 144.113 176.818 141.3 177.856C139.772 178.503 138.176 179.001 136.533 179.335C135.899 179.447 135.416 179.4 135.05 179.282C134.135 179.37 133.213 179.409 132.286 179.396H62.2149L61.6622 178.883L61.6283 179.398C52.2929 179.398 46.4085 175.35 42.7264 170.656C39.0093 174.6 34.0562 177.235 28.5933 178.008C27.3228 178.215 26.039 178.316 24.7528 178.312C18.7081 178.547 12.8328 176.24 8.50012 171.931L8.61985 172.022ZM37.0531 154.745C36.9037 155.189 36.813 155.686 36.7919 156.238C36.1188 159.065 34.4825 161.579 32.1459 163.309C29.3455 165.383 25.8086 166.133 22.4307 165.369C17.9698 164.551 14.3924 161.137 13.293 156.649C11.8986 152.219 13.1805 147.366 16.5669 144.252C18.7178 142.015 21.6839 140.794 24.7528 140.88H36.66C36.7997 140.893 36.9394 140.895 37.0767 140.886V152.668V154.522C37.0688 154.596 37.0616 154.671 37.0531 154.745ZM156.421 173.423C158.868 173.731 161.35 173.246 163.5 172.039C167.103 170.384 169.659 167.065 170.337 163.162C170.368 162.782 170.368 162.4 170.337 162.02V137.949C170.337 136.896 170.759 136.475 171.844 136.595C174.767 136.808 177.621 137.585 180.248 138.882C180.952 139.274 181.627 139.716 182.266 140.206C182.845 140.6 183.194 141.251 183.201 141.951V161.267C183.345 167.465 181.09 173.478 176.905 178.056C173.319 181.994 168.571 184.692 163.349 185.759C161.301 186.12 160.819 184.826 160.819 184.826L155.638 174.927C155.638 174.927 154.794 173.573 156.421 173.573V173.423Z" fill="#E77D44"/>
<path fill-rule="evenodd" clip-rule="evenodd" d="M282.157 21.5114C287.023 21.5114 290.982 17.5232 290.959 12.6392C290.934 7.78418 286.996 3.8469 282.16 3.84387C277.296 3.84387 273.337 7.83507 273.36 12.7191C273.385 17.5711 277.323 21.5114 282.157 21.5114ZM223.295 109.469C227.65 108.739 230.744 105.044 230.705 100.683C230.667 96.3598 227.511 92.692 223.22 92.0403C219.303 91.4485 214.451 93.4904 213.071 99.2267C211.558 93.1494 206.441 91.4485 202.843 92.0554C198.487 92.7877 195.391 96.4797 195.429 100.844C195.465 105.167 198.624 108.835 202.914 109.483C206.867 110.082 211.696 108.004 213.062 102.297C214.577 108.372 219.685 110.075 223.295 109.469ZM136.007 95.0599C134.976 93.8666 133.725 92.9943 132.235 92.4619C130.718 91.9203 129.166 91.798 127.593 92.1124C123.264 92.9816 120.305 96.6614 120.418 101C120.529 105.283 123.75 108.919 127.972 109.496C132.039 110.054 136.714 107.869 138.072 102.174C138.449 103.833 139.057 105.259 140.102 106.467C141.133 107.66 142.383 108.533 143.873 109.065C145.39 109.607 146.942 109.729 148.516 109.412C152.845 108.545 155.807 104.862 155.69 100.524C155.577 96.2404 152.356 92.6084 148.137 92.0282C144.085 91.4721 139.398 93.6455 138.037 99.3497C137.657 97.6936 137.051 96.2671 136.007 95.0599ZM227.842 75.1142C217.818 86.0974 200.672 85.9211 190.915 75.0185C185.923 80.3574 179.811 83.2516 172.464 83.2631C165.14 83.2753 159.037 80.4113 153.974 75.0633C148.979 80.3665 142.888 83.2516 135.571 83.2631C128.246 83.2783 122.144 80.4204 117.068 75.0633C112.082 80.3635 105.991 83.2456 98.68 83.2631C91.3564 83.2813 85.2501 80.4295 80.1657 75.0663C75.183 80.355 69.0978 83.2426 61.7893 83.2631C54.4688 83.2837 48.3594 80.4386 43.3168 75.1263C42.983 75.4607 42.6631 75.7781 42.3438 76.0949C35.0021 83.4485 27.6543 90.7967 20.3217 98.1594C19.596 98.8918 18.7984 99.197 17.7777 99.0505C16.3476 98.8469 14.9864 98.4405 13.6844 97.8305C11.8129 96.9486 10.0774 95.8461 8.46523 94.551C7.50435 93.7775 7.48077 93.2275 8.34913 92.3571C16.4195 84.2735 24.4712 76.1754 32.5803 68.1313C33.835 66.8877 34.9991 65.6259 35.7568 64.0268C39.3016 56.5587 34.5177 47.6865 26.3373 46.6585C18.8553 45.7166 13.3144 51.2294 12.6159 57.1844C12.1769 60.9357 13.1952 64.2152 15.6939 67.0131C16.5894 68.0143 17.6253 68.8812 18.5807 69.8261C20.1868 71.4198 21.7845 73.0183 23.3761 74.6272C24.1253 75.3837 24.1162 76.0052 23.3071 76.6509C21.1483 78.3724 18.8408 79.8583 16.1897 80.7045C15.3232 80.9826 14.4155 81.1406 13.5139 81.2903C12.8336 81.4041 12.189 81.1891 11.7052 80.6924C9.56761 78.4984 7.28303 76.4268 5.36068 74.056C1.29403 69.0399 -0.399142 63.2042 0.0785755 56.7567C0.861064 46.2127 8.44165 37.2684 18.7694 34.6825C32.5718 31.2268 46.6457 40.3534 49.0434 54.3677C49.2611 55.6355 49.3306 56.927 49.4255 58.2093C49.6021 60.5111 50.0163 62.7354 51.2143 64.7646C53.7788 69.1023 58.7646 71.4676 63.7057 70.6511C68.7072 69.8261 72.7224 65.9845 73.7202 61.0338C73.8453 60.4245 73.8871 59.7872 73.8931 59.1597C73.9288 55.9226 73.9348 52.688 73.9584 49.4504C73.9675 48.4036 74.4543 47.9166 75.4309 48.0329C77.8521 48.3201 80.2377 48.7956 82.4703 49.8029C83.4257 50.2366 84.3098 50.8314 85.2174 51.3724C86.1638 51.9399 86.5581 52.7807 86.5278 53.8959C86.4831 55.5247 86.5369 57.1602 86.5133 58.792C86.4686 62.003 87.6356 64.747 89.8392 67.0016C93.228 70.4627 97.3781 71.6288 102.02 70.2986C106.633 68.9769 109.592 65.8198 110.584 61.118C112.231 53.3156 106.493 47.002 99.919 46.4186C99.3246 46.3653 98.7247 46.3296 98.1243 46.3296C90.6277 46.3235 83.1336 46.3235 75.6395 46.3235C74.0776 46.3235 73.7825 46.0364 73.9524 44.5088C74.2184 42.1082 74.747 39.7586 75.7768 37.5676C76.2249 36.6166 76.8278 35.7347 77.3986 34.8473C77.9029 34.061 78.6697 33.7382 79.5955 33.7466C80.7989 33.7588 81.9992 33.7497 83.202 33.7497C88.3492 33.7497 93.5001 33.7321 98.6497 33.7557C102.271 33.7709 105.765 34.4729 109.025 36.0727C116.895 39.9379 121.616 46.2012 123.052 54.879C123.264 56.1437 123.335 57.4436 123.35 58.7266C123.415 64.8997 128.145 70.1041 134.29 70.7165C140.87 71.3744 146.692 66.8519 147.642 60.3409C147.695 59.9756 147.704 59.5995 147.704 59.2288C147.707 51.4378 147.707 43.648 147.707 35.8546C147.707 34.1894 147.988 33.9053 149.612 34.0931C151.923 34.3627 154.183 34.8763 156.306 35.8425C157.234 36.2695 158.094 36.8498 158.972 37.3847C159.912 37.9589 160.303 38.8136 160.276 39.9173C160.241 41.3189 160.268 42.7243 160.268 44.1259C160.268 48.9391 160.262 53.7523 160.268 58.5649C160.276 64.5944 164.585 69.7122 170.52 70.6451C178.265 71.862 184.684 65.8052 184.678 58.6218C184.666 41.1221 184.675 23.6218 184.675 6.11902C184.675 5.8319 184.669 5.54478 184.678 5.25766C184.708 4.33997 185.117 3.88567 186.001 3.97532C189.566 4.33694 192.981 5.15044 195.967 7.29354C196.868 7.93925 197.251 8.73458 197.248 9.83763C197.224 16.9974 197.235 24.1566 197.235 31.3195C197.235 40.3716 197.227 49.4201 197.238 58.4722C197.248 63.9432 200.687 68.6364 205.84 70.2538C212.907 72.4653 220.392 67.8229 221.53 60.5111C221.587 60.1464 221.577 59.7666 221.577 59.3959C221.581 51.6352 221.581 43.8721 221.581 36.1084C221.581 35.8813 221.578 35.6511 221.581 35.4209C221.604 34.3687 222.02 33.9502 223.08 34.058C225.916 34.3421 228.663 34.9872 231.204 36.3271C231.908 36.6972 232.556 37.1787 233.207 37.6421C233.801 38.0668 234.106 38.667 234.132 39.4C234.142 39.744 234.142 40.0875 234.142 40.4309C234.142 46.4756 234.126 52.5233 234.147 58.5679C234.165 63.9729 237.632 68.654 242.752 70.2568C243.907 70.6148 245.093 70.8038 246.299 70.8038C258.43 70.8068 270.557 70.7892 282.688 70.8068C284.718 70.8098 286.698 70.6148 288.534 69.7183C293.14 67.4674 295.592 63.773 295.721 58.6218C295.762 57.0257 295.762 55.4023 295.538 53.8268C294.828 48.8192 290.618 44.6523 285.617 43.8576C279.064 42.8139 273.083 46.8106 271.62 53.2495C271.432 54.0782 271.355 54.9474 271.342 55.7997C271.307 58.4062 271.307 61.0133 271.336 63.6203C271.352 64.7204 270.945 65.5181 270.062 66.1729C268.133 67.5988 265.947 68.4063 263.648 68.932C262.508 69.1955 261.344 69.3688 260.182 69.4972C259.197 69.6074 258.776 69.2101 258.776 68.2415C258.773 63.716 258.684 59.1864 258.826 54.6633C259.012 48.8404 261.164 43.7346 265.037 39.3963C269.357 34.5511 274.8 31.7683 281.255 31.2062C294.822 30.0311 305.609 39.5223 307.743 51.1634C308.036 52.7595 308.155 54.401 308.215 56.0244C308.29 58.0809 308.269 60.1398 307.949 62.1908C307.089 67.6975 304.689 72.409 300.704 76.2893C296.532 80.349 291.511 82.6174 285.73 83.1856C284.482 83.3086 283.217 83.2722 281.959 83.2722C270.202 83.2783 258.444 83.2692 246.687 83.2783C239.438 83.2874 233.312 80.6809 228.286 75.4552C228.209 75.3746 228.131 75.2874 228.045 75.2129C228.003 75.1802 227.947 75.162 227.842 75.1142Z" fill="#343534"/>
</svg>
