<svg width="546" height="348" viewBox="0 0 546 348" fill="none" xmlns="http://www.w3.org/2000/svg">
<path d="M511.2 193.8C508.891 193.799 506.588 194.034 504.327 194.5C503.928 180.575 498.598 167.245 489.285 156.884C479.973 146.524 467.284 139.807 453.481 137.932C439.677 136.056 425.656 139.143 413.917 146.642C402.178 154.142 393.483 165.567 389.383 178.88C383.719 177.927 377.918 178.159 372.348 179.561C366.778 180.962 361.559 183.504 357.02 187.024C352.482 190.545 348.723 194.968 345.98 200.015C343.237 205.061 341.57 210.622 341.085 216.345C340.599 222.069 341.306 227.83 343.159 233.267C345.013 238.704 347.974 243.697 351.854 247.931C355.735 252.166 360.452 255.55 365.706 257.87C370.961 260.19 376.639 261.395 382.383 261.41H511.2C520.134 261.361 528.685 257.778 534.985 251.444C541.286 245.109 544.822 236.539 544.822 227.604C544.822 218.67 541.286 210.1 534.985 203.765C528.685 197.431 520.134 193.848 511.2 193.799V193.8Z" fill="#003682"/>
<path d="M329.681 262.461C328.418 262.461 327.158 262.336 325.92 262.087C311.339 259.163 302.635 240.104 302.635 211.106C302.635 159.44 289.466 119.646 263.495 92.829C241.017 69.619 209.671 57.351 172.846 57.351C146.896 57.4124 121.901 67.1536 102.753 84.6689C84.4002 101.33 73.8682 122.526 73.8682 142.821H72.8682C72.8682 122.245 83.5162 100.779 102.081 83.928C121.413 66.2458 146.647 56.4122 172.846 56.351C209.946 56.351 241.546 68.725 264.213 92.133C290.371 119.143 303.635 159.172 303.635 211.106C303.635 239.591 312.035 258.283 326.116 261.106C337.224 263.336 349.374 254.383 355.662 239.337C365.381 216.089 392.622 176.744 433.08 176.744C482.306 176.744 511.695 208.396 511.695 261.413H510.695C510.695 233.713 503.061 212.266 488.004 197.661C474.572 184.631 455.579 177.744 433.08 177.744C393.148 177.744 366.208 216.703 356.585 239.723C350.707 253.787 340.238 262.46 329.681 262.461Z" fill="#FF6633"/>
<path d="M328.541 263.857C327.175 263.858 325.813 263.713 324.478 263.423C310.441 260.377 301.813 242.155 301.398 214.678C300.525 167.088 288.329 129.23 265.147 102.157C244.172 77.6571 213.572 64.0961 176.656 62.9291C163.491 62.5708 150.385 64.8198 138.092 69.5468C125.8 74.2738 114.563 81.3853 105.03 90.4721C89.2102 105.579 79.9842 124.662 79.7202 142.829L78.7202 142.814C78.9882 124.381 88.3262 105.04 104.34 89.7491C113.968 80.5689 125.317 73.3846 137.734 68.61C150.151 63.8353 163.389 61.5647 176.687 61.9291C213.887 63.1061 244.744 76.7921 265.907 101.507C289.243 128.761 301.521 166.831 302.398 214.661C302.805 241.643 311.138 259.506 324.69 262.446C335.648 264.822 347.59 256.746 354.408 242.353C360.821 229.125 369.288 216.995 379.494 206.415C395.045 190.653 412.129 182.415 430.272 181.921C432.762 181.854 435.038 181.858 437.23 181.934C457.348 182.634 474.413 189.534 486.581 201.879C500.281 215.779 507.381 235.779 507.681 261.335L506.681 261.346C506.381 236.062 499.381 216.29 485.869 202.581C473.884 190.419 457.053 183.626 437.196 182.934C435.024 182.858 432.769 182.854 430.296 182.921C412.42 183.405 395.566 191.546 380.203 207.121C370.074 217.62 361.672 229.658 355.309 242.786C349.116 255.86 338.741 263.857 328.541 263.857Z" fill="#FF6A34"/>
<path d="M327.485 265.24C326.022 265.24 324.565 265.072 323.141 264.74C316.67 263.24 301.475 255.69 300.161 218.247C298.582 173.23 286.524 136.419 264.323 108.838C244.969 84.8 215.971 70.85 180.465 68.505C167.833 67.7063 155.17 69.4475 143.223 73.6256C131.276 77.8038 120.287 84.3342 110.907 92.831C95.3338 106.978 86.0998 125.205 85.5708 142.836L84.5708 142.806C85.1068 124.906 94.4598 106.419 110.234 92.09C119.715 83.5035 130.821 76.9042 142.895 72.682C154.97 68.4597 167.768 66.7 180.534 67.507C216.326 69.871 245.57 83.948 265.105 108.216C287.444 135.969 299.577 172.979 301.164 218.216C302.454 254.968 317.123 262.316 323.371 263.77C333.961 266.235 345.932 258.839 353.158 245.37C360.173 232.292 386.258 189.44 427.466 187.101C430.024 186.956 432.133 186.886 434.105 186.881C453.454 186.8 470.019 192.897 482.105 204.406C495.81 217.458 503.066 236.586 503.671 261.258L502.671 261.282C502.071 236.882 494.921 217.993 481.415 205.13C469.564 193.844 453.28 187.881 434.315 187.881H434.105C432.152 187.886 430.06 187.956 427.521 188.1C386.836 190.409 360.99 232.881 354.037 245.843C347.558 257.918 337.31 265.239 327.485 265.24Z" fill="#FF6E35"/>
<path d="M326.619 266.641C324.977 266.642 323.342 266.44 321.75 266.041C308.619 262.755 300.3 246.641 298.925 221.822C296.573 179.347 284.654 143.583 263.498 115.522C245.461 91.5999 218.805 77.6589 184.272 74.0809C172.179 72.8405 159.96 74.0713 148.357 77.6985C136.754 81.3257 126.01 87.2736 116.777 95.1809C101.455 108.368 92.2139 125.742 91.4219 142.847L90.4219 142.801C91.2219 125.422 100.594 107.789 116.122 94.4229C125.458 86.427 136.323 80.4127 148.056 76.7455C159.789 73.0782 172.145 71.8345 184.373 73.0899C219.194 76.6969 246.083 90.7739 264.294 114.929C285.572 143.149 297.558 179.097 299.922 221.774C301.27 246.122 309.314 261.906 321.991 265.074C332.419 267.682 344.159 261.13 351.902 248.379C379.612 202.747 409.375 193.642 424.65 192.279C426.662 192.099 428.82 191.92 430.97 191.827C449.891 191.005 466.279 196.463 478.37 207.606C491.608 219.806 498.77 237.833 499.656 261.178L498.656 261.216C497.779 238.147 490.726 220.357 477.692 208.341C465.805 197.383 449.66 192.019 431.016 192.826C428.887 192.918 426.743 193.097 424.743 193.275C409.655 194.625 380.243 203.646 352.76 248.902C345.959 260.1 336.107 266.64 326.619 266.641Z" fill="#FE7335"/>
<path d="M325.649 268.017C323.864 268.02 322.087 267.788 320.363 267.327C312.963 265.339 300.17 257.247 297.689 225.402C294.589 185.554 282.804 150.836 262.674 122.212C246.174 98.7511 221.074 84.4341 188.074 79.6571C176.524 77.9684 164.751 78.6828 153.49 81.7553C142.229 84.8279 131.724 90.1924 122.633 97.5131C107.569 109.74 98.324 126.265 97.27 142.853L96.27 142.79C97.342 125.924 106.72 109.138 122.001 96.7371C131.2 89.3295 141.828 83.901 153.222 80.7917C164.616 77.6823 176.529 76.959 188.215 78.6671C221.497 83.4851 246.822 97.9421 263.486 121.636C283.721 150.409 295.562 185.295 298.68 225.324C300.457 248.136 308.453 263.094 320.617 266.362C330.735 269.08 342.523 263.204 350.65 251.393C373.135 218.711 397.085 200.564 421.835 197.455L422.135 197.417C424.105 197.17 425.965 196.936 427.835 196.77C445.81 195.17 462.258 199.984 474.154 210.312C487.054 221.512 494.483 239.072 495.637 261.094L494.637 261.146C493.498 239.402 486.187 222.084 473.497 211.067C461.808 200.918 445.622 196.195 427.923 197.767C426.068 197.932 424.216 198.167 422.255 198.411L421.955 198.448C397.501 201.52 373.786 219.524 351.469 251.961C344.481 262.132 334.793 268.016 325.649 268.017Z" fill="#FE7736"/>
<path d="M324.933 269.426C322.921 269.43 320.918 269.15 318.983 268.596C306.724 265.07 298.723 250.996 296.454 228.979C292.631 191.879 280.988 158.209 261.849 128.895C246.618 105.566 223.731 91.284 191.882 85.23C180.882 83.09 169.555 83.2838 158.635 85.7988C147.714 88.3138 137.444 93.0941 128.488 99.83C113.688 111.095 104.443 126.778 103.125 142.857L102.125 142.776C103.466 126.414 112.853 110.471 127.88 99.034C136.947 92.2123 147.346 87.3707 158.402 84.8228C169.459 82.2749 180.928 82.0773 192.066 84.243C224.196 90.35 247.295 104.775 262.683 128.343C281.91 157.791 293.606 191.614 297.446 228.871C299.67 250.459 307.416 264.224 319.257 267.63C329.24 270.502 340.792 265.43 349.406 254.4L349.646 254.093C360.368 240.358 385.478 208.193 419.024 202.629L420.459 202.388C421.895 202.145 423.307 201.907 424.701 201.712C441.966 199.305 458.029 203.303 469.931 212.973C476.202 218.134 481.223 224.647 484.618 232.025C488.523 240.3 490.881 250.052 491.624 261.008L490.624 261.076C489.215 240.303 481.841 223.938 469.299 213.749C457.615 204.256 441.825 200.333 424.838 202.702C423.453 202.896 422.05 203.133 420.624 203.374L419.186 203.615C386.025 209.115 361.086 241.066 350.432 254.709L350.192 255.015C342.983 264.26 333.724 269.426 324.933 269.426Z" fill="#FE7B37"/>
<path d="M324.139 270.819C321.928 270.826 319.729 270.502 317.614 269.857C305.856 266.246 297.903 252.999 295.219 232.557C290.671 197.923 279.486 166.201 261.025 135.577C247.23 112.7 225.857 98.049 195.685 90.8C174.145 85.627 151.785 89.759 134.329 102.138C119.799 112.444 110.558 127.29 108.975 142.869L107.98 142.769C109.592 126.903 118.98 111.796 133.751 101.324C151.439 88.78 174.1 84.59 195.918 89.831C226.365 97.143 247.941 111.938 261.881 135.061C280.415 165.805 291.644 197.653 296.21 232.427C298.84 252.458 306.546 265.412 317.91 268.901C327.63 271.886 339.222 267.485 348.169 257.417C348.805 256.7 349.488 255.926 350.219 255.095C361.933 241.795 386.307 214.124 416.219 207.815C416.934 207.664 417.641 207.508 418.341 207.354C419.434 207.113 420.51 206.876 421.575 206.666C437.858 203.466 453.942 206.725 465.703 215.598C478.343 225.136 485.922 240.811 487.621 260.931L486.621 261.015C484.947 241.187 477.505 225.758 465.097 216.397C453.563 207.697 437.768 204.505 421.765 207.647C420.707 207.855 419.638 208.091 418.553 208.33C417.853 208.485 417.141 208.642 416.423 208.793C386.84 215.033 362.614 242.538 350.971 255.756C350.24 256.586 349.555 257.364 348.918 258.081C341.626 266.282 332.593 270.819 324.139 270.819Z" fill="#FE7F38"/>
<path d="M323.638 272.272C321.131 272.279 318.639 271.889 316.255 271.115C308.275 268.509 297.934 260.325 293.984 236.137C288.8 204.389 278.065 174.558 260.201 142.259C247.776 119.796 227.916 104.786 199.486 96.374C178.88 90.274 157.258 93.213 140.16 104.429C125.909 113.779 116.674 127.794 114.826 142.882L113.833 142.761C115.718 127.38 125.114 113.104 139.611 103.593C156.955 92.215 178.882 89.234 199.769 95.415C228.469 103.906 248.518 119.07 261.076 141.775C278.998 174.175 289.768 204.111 294.971 235.975C298.84 259.666 308.85 267.643 316.566 270.163C326.19 273.307 337.54 269.663 346.924 260.428C348.211 259.161 349.655 257.698 351.244 256.089C364.603 242.559 386.961 219.914 413.394 212.996C414.257 212.77 415.105 212.532 415.942 212.296C416.779 212.06 417.607 211.83 418.428 211.615C433.938 207.574 449.615 209.964 461.436 218.173C473.971 226.873 481.636 241.634 483.599 260.847L482.599 260.947C480.665 242.033 473.148 227.525 460.861 218.993C449.279 210.95 433.903 208.612 418.675 212.581C417.861 212.794 417.039 213.024 416.207 213.257C415.375 213.49 414.507 213.733 413.642 213.957C387.475 220.806 365.242 243.328 351.951 256.785C350.358 258.399 348.911 259.864 347.621 261.134C340.271 268.383 331.712 272.272 323.638 272.272Z" fill="#FD8338"/>
<path d="M323.105 273.723C320.316 273.735 317.544 273.28 314.905 272.377C307.244 269.729 297.181 261.914 292.747 239.719C285.594 203.919 271.862 173.739 259.373 148.939C248.096 126.548 230.273 111.614 203.281 101.939C183.61 94.89 162.724 96.623 145.981 106.693C132.016 115.093 122.792 128.283 120.675 142.893L119.685 142.75C121.846 127.85 131.242 114.392 145.466 105.84C162.466 95.615 183.666 93.851 203.621 101.001C230.87 110.765 248.87 125.855 260.269 148.489C272.789 173.349 286.554 203.605 293.731 239.523C298.072 261.253 307.821 268.869 315.231 271.432C324.65 274.688 336.031 271.7 345.681 263.442C347.789 261.637 350.19 259.459 352.97 256.936C366.754 244.426 387.584 225.522 410.57 218.181C411.526 217.876 412.459 217.549 413.378 217.228C414.019 217.003 414.652 216.782 415.278 216.572C429.757 211.739 445.411 213.285 457.15 220.709C469.594 228.577 477.35 242.429 479.577 260.766L478.585 260.887C476.394 242.858 468.797 229.257 456.616 221.554C445.127 214.289 429.792 212.781 415.595 217.52C414.971 217.729 414.341 217.949 413.705 218.172C412.778 218.496 411.836 218.825 410.871 219.133C388.093 226.409 367.36 245.225 353.64 257.676C350.854 260.204 348.448 262.388 346.329 264.201C339.073 270.419 330.829 273.723 323.105 273.723Z" fill="#FD8739"/>
<path d="M322.751 275.22C319.624 275.238 316.519 274.707 313.575 273.652C306.214 270.974 296.411 263.534 291.518 243.302C283.693 210.943 270.357 181.595 258.591 155.702C248.528 133.556 232.172 118.269 207.083 107.51C188.349 99.4759 168.2 99.9999 151.8 108.939C138.128 116.393 128.917 128.773 126.529 142.905L125.543 142.738C127.982 128.302 137.378 115.663 151.322 108.061C167.994 98.9709 188.463 98.4349 207.48 106.59C232.812 117.453 249.332 132.901 259.467 155.205C271.289 181.221 284.645 210.616 292.494 243.067C296.284 258.74 303.694 268.991 313.92 272.712C323.167 276.077 334.581 273.738 344.453 266.455C347.675 264.078 351.453 260.992 355.824 257.419C369.54 246.209 388.324 230.857 407.755 223.367C408.767 222.977 409.746 222.555 410.708 222.142C411.19 221.934 411.669 221.728 412.144 221.529C425.773 215.829 440.993 216.459 452.859 223.202C461.484 228.102 472.426 238.584 475.573 260.683L474.583 260.824C471.494 239.124 460.796 228.862 452.365 224.071C440.765 217.48 425.875 216.871 412.53 222.452C412.058 222.652 411.583 222.852 411.103 223.06C410.13 223.479 409.139 223.905 408.115 224.3C388.834 231.733 370.121 247.026 356.457 258.193C352.074 261.775 348.289 264.868 345.047 267.26C337.97 272.479 330.106 275.22 322.751 275.22Z" fill="#FD8C3A"/>
<path d="M322.741 276.825C319.16 276.843 315.606 276.207 312.253 274.948C302.098 271.083 294.502 261.381 290.288 246.889C283.688 224.189 274.707 202.862 266.022 182.234C263.13 175.365 260.398 168.876 257.73 162.297C248.888 140.489 234.001 124.847 210.879 113.073C193.095 104.017 173.679 103.317 157.611 111.152C144.236 117.674 135.038 129.252 132.375 142.917L131.394 142.726C134.117 128.75 143.513 116.914 157.173 110.253C173.526 102.279 193.267 102.982 211.332 112.181C234.681 124.072 249.719 139.881 258.657 161.921C261.322 168.495 264.057 174.98 266.943 181.846C275.643 202.5 284.631 223.857 291.248 246.61C295.371 260.789 302.758 270.264 312.609 274.01C321.857 277.529 333.009 275.873 343.217 269.467C348.064 266.425 353.845 262.13 360.539 257.156C373.374 247.62 389.348 235.756 404.929 228.556C405.97 228.075 406.978 227.546 407.954 227.034L408.994 226.49C421.535 220.024 436.686 219.705 448.534 225.658C457.117 229.97 468.077 239.532 471.555 260.598L470.568 260.761C467.159 240.11 456.461 230.761 448.086 226.552C436.517 220.74 421.714 221.052 409.453 227.379L408.419 227.919C407.432 228.437 406.412 228.972 405.348 229.464C389.861 236.619 373.933 248.453 361.135 257.964C354.424 262.95 348.628 267.256 343.749 270.32C337.494 274.414 330.215 276.668 322.741 276.825Z" fill="#FD903B"/>
<path d="M322.853 278.462C318.782 278.488 314.742 277.746 310.946 276.273C301.164 272.41 293.595 263.49 289.059 250.473C284.021 236.022 278.059 221.685 272.296 207.82C267.005 195.097 261.535 181.941 256.908 168.969C249.186 147.324 235.765 131.327 214.674 118.628C197.865 108.507 179.188 106.575 163.432 113.328C150.353 118.933 141.165 129.721 138.224 142.928L137.248 142.711C140.26 129.187 149.66 118.143 163.038 112.411C179.092 105.531 198.101 107.487 215.19 117.775C236.49 130.6 250.046 146.762 257.85 168.637C262.469 181.584 267.934 194.729 273.219 207.437C278.989 221.316 284.956 235.666 290.003 250.145C294.503 263.056 301.674 271.532 311.313 275.339C320.462 278.952 331.642 277.911 341.987 272.484C349.439 268.574 358.801 262.109 368.712 255.265C379.69 247.685 391.041 239.847 402.103 233.745C403.16 233.162 404.171 232.518 405.15 231.895L405.85 231.453C417.459 224.132 432.15 222.84 444.2 228.08C459.684 234.816 465.44 249.433 467.542 260.509L466.56 260.695C462.833 241.058 452.126 232.619 443.801 228.995C432.054 223.885 417.717 225.15 406.384 232.295L405.69 232.736C404.698 233.367 403.673 234.019 402.59 234.618C391.572 240.695 380.242 248.518 369.285 256.085C359.348 262.947 349.961 269.428 342.455 273.366C336.428 276.621 329.702 278.369 322.853 278.462Z" fill="#FC943B"/>
<path d="M323.344 280.242C318.659 280.268 314.014 279.385 309.665 277.642C300.089 273.754 292.744 265.823 287.833 254.07C284.821 246.861 281.584 239.497 278.454 232.375C270.421 214.104 262.116 195.21 256.086 175.65C249.428 154.05 237.475 137.702 218.468 124.188C202.668 112.958 184.739 109.781 169.268 115.472C156.479 120.178 147.295 130.19 144.068 142.943L143.099 142.698C146.405 129.62 155.817 119.355 168.921 114.534C184.705 108.727 202.973 111.949 219.043 123.374C238.243 137.021 250.312 153.538 257.038 175.356C263.051 194.856 271.344 213.727 279.365 231.973C282.497 239.099 285.736 246.467 288.752 253.684C293.552 265.184 300.718 272.931 310.038 276.716C319.255 280.458 330.164 280.029 340.754 275.506C353.222 270.181 369.219 259.293 384.689 248.764C389.769 245.306 394.568 242.04 399.271 238.945C400.341 238.245 401.35 237.463 402.326 236.711L402.696 236.427C413.171 228.384 427.754 226.051 439.845 230.482C451.881 234.893 460.289 245.527 463.52 260.426L462.542 260.638C459.387 246.086 451.204 235.71 439.501 231.421C427.723 227.105 413.516 229.381 403.301 237.221L402.932 237.504C401.942 238.267 400.918 239.056 399.817 239.781C395.117 242.872 390.325 246.136 385.247 249.591C369.738 260.148 353.7 271.063 341.147 276.427C335.531 278.886 329.475 280.184 323.344 280.242Z" fill="#FC983C"/>
<path d="M324.17 282.085C310.199 282.085 295.651 275.667 286.611 257.667L285.743 255.938C274.191 232.946 262.243 209.17 255.265 182.327C249.704 160.94 238.908 143.74 222.265 129.742C207.537 117.358 190.365 112.924 175.141 117.578C169.148 119.358 163.699 122.615 159.292 127.05C154.886 131.484 151.664 136.955 149.923 142.959L148.961 142.684C150.748 136.519 154.055 130.902 158.578 126.348C163.102 121.795 168.696 118.45 174.849 116.622C190.399 111.867 207.916 116.37 222.908 128.977C239.719 143.112 250.621 160.477 256.236 182.077C263.19 208.817 275.111 232.544 286.636 255.49L287.505 257.219C299.774 281.647 322.426 284.245 339.532 278.53C359.515 271.854 383.768 254.123 396.447 244.148C397.533 243.293 398.539 242.348 399.512 241.442C404.3 237.093 410.111 234.026 416.403 232.526C422.696 231.025 429.265 231.141 435.501 232.862C447.491 236.426 456.016 246.184 459.507 260.341L458.536 260.58C455.136 246.78 446.852 237.28 435.216 233.821C429.157 232.147 422.774 232.032 416.658 233.485C410.543 234.939 404.894 237.914 400.236 242.135C399.206 243.097 398.184 244.053 397.065 244.935C384.336 254.95 359.976 272.756 339.849 279.479C334.796 281.182 329.502 282.062 324.17 282.085Z" fill="#FC9C3D"/>
<path d="M325.329 284.171C308.799 284.171 294.41 276.105 285.394 261.271C273.524 241.735 260.565 217.871 254.445 189.008C249.858 167.369 240.572 149.8 226.056 135.296C212.469 121.719 196.064 116.017 181.047 119.653C175.178 121.027 169.764 123.898 165.334 127.986C160.904 132.074 157.608 137.239 155.767 142.979L154.815 142.673C156.708 136.769 160.098 131.457 164.655 127.252C169.211 123.048 174.778 120.095 180.815 118.682C196.177 114.962 212.926 120.76 226.766 134.589C241.423 149.234 250.798 166.966 255.426 188.8C261.515 217.519 274.426 241.288 286.251 260.752C302.718 287.852 330.261 283.53 338.311 281.559C355.735 277.293 377.445 264.653 393.621 249.359C394.632 248.403 395.554 247.368 396.412 246.389C400.721 241.65 406.2 238.124 412.298 236.165C418.397 234.206 424.904 233.883 431.167 235.226C443.102 237.943 451.741 246.832 455.493 260.257L454.53 260.526C450.881 247.471 442.505 238.832 430.945 236.201C424.857 234.894 418.533 235.208 412.605 237.111C406.676 239.015 401.351 242.442 397.163 247.049C396.29 248.049 395.351 249.1 394.308 250.086C378.016 265.491 356.129 278.227 338.548 282.531C334.223 283.605 329.785 284.156 325.329 284.171Z" fill="#FCA03E"/>
<path d="M327.612 286.339C310.212 286.339 294.439 278.675 284.183 264.869C267.6 242.545 257.605 219.912 253.626 195.677C250.05 173.892 242.051 155.441 229.852 140.835C217.493 126.035 201.876 119.061 187.006 121.692C181.26 122.659 175.876 125.143 171.412 128.888C166.948 132.633 163.565 137.502 161.613 142.992L160.672 142.653C162.683 136.997 166.168 131.981 170.767 128.123C175.365 124.265 180.911 121.705 186.831 120.709C202.063 118.015 218.024 125.116 230.619 140.195C242.935 154.94 251.007 173.552 254.613 195.516C258.565 219.59 268.5 242.081 284.986 264.274C296.881 280.286 316.356 287.874 337.086 284.583C356.498 281.497 377.579 269.714 390.793 254.565C391.747 253.471 392.58 252.335 393.269 251.365C400.486 241.249 414.296 235.572 426.85 237.557C438.716 239.433 447.461 247.457 451.474 260.157L450.52 260.457C446.627 248.138 438.166 240.357 426.694 238.54C414.494 236.614 401.088 242.123 394.084 251.94C393.384 252.927 392.529 254.087 391.546 255.213C378.188 270.529 356.873 282.441 337.246 285.562C334.06 286.074 330.839 286.334 327.612 286.339Z" fill="#FBA53E"/>
<path d="M330.557 288.816C312.167 288.816 295.057 281.561 282.981 268.474C266.046 250.27 255.461 227.073 252.808 202.352C250.188 179.868 243.743 161.035 233.65 146.376C222.613 130.346 207.804 122.088 193.015 123.722C187.408 124.322 182.07 126.434 177.569 129.83C173.068 133.227 169.573 137.781 167.458 143.008L166.53 142.635C168.713 137.24 172.319 132.54 176.964 129.034C181.609 125.528 187.118 123.349 192.905 122.729C208.069 121.053 223.221 129.465 234.473 145.809C244.66 160.609 251.162 179.589 253.801 202.236C256.431 226.746 266.926 249.746 283.715 267.796C296.755 281.924 315.759 289.148 335.86 287.614C356.96 286.003 376.924 275.338 387.966 259.78C388.673 258.78 389.381 257.663 390.131 256.354C396.346 245.504 409.683 238.727 422.563 239.873C434.17 240.906 443.242 248.273 447.452 260.073L446.51 260.409C444.116 253.698 437.81 242.236 422.474 240.871C409.974 239.755 397.027 246.33 390.999 256.853C390.232 258.19 389.507 259.338 388.781 260.361C377.572 276.155 357.323 286.98 335.936 288.613C334.134 288.749 332.341 288.817 330.557 288.816Z" fill="#FBA93F"/>
<path d="M335.182 291.688C323.974 291.661 312.888 289.361 302.594 284.927C292.3 280.494 283.012 274.019 275.291 265.894C261.611 251.321 253.554 231.657 251.991 209.026C247.152 138.955 215.597 127.936 206.041 126.226C199.492 124.971 192.711 125.944 186.778 128.988C180.846 132.032 176.102 136.974 173.302 143.026L172.389 142.616C175.281 136.361 180.182 131.253 186.312 128.105C192.442 124.957 199.449 123.95 206.217 125.244C215.953 126.984 248.1 138.164 252.989 208.957C254.535 231.357 262.5 250.807 276.02 265.209C288.001 277.85 303.713 286.324 320.857 289.39C350.457 294.696 377.04 283.424 386.999 261.341C392.216 249.774 405.099 241.901 418.308 242.156C429.808 242.391 438.967 248.887 443.432 259.979L442.504 260.352C438.196 249.652 429.369 243.382 418.288 243.152C405.452 242.888 392.967 250.537 387.911 261.752C379.427 280.563 359.159 291.687 335.182 291.688Z" fill="#FBAD40"/>
<path d="M492.584 211.765H391.49V240.54H492.584V211.765Z" fill="#C5EBF5"/>
<path d="M493.084 215.527V211.265H390.99V215.527H387.461V236.761H390.99V241.04H493.084V236.761H496.614V215.527H493.084ZM492.084 240.04H391.99V212.265H492.084V240.04Z" fill="#0055DC"/>
<path d="M488.217 236.483V215.822H395.857V236.483H488.217Z" fill="white"/>
<path d="M397.011 240.544L397.011 244.573L487.065 244.568L487.065 240.539L397.011 240.544Z" fill="white"/>
<path d="M487.564 245.07H396.51V240.041H487.564V245.07ZM397.51 244.07H486.564V241.041H397.51V244.07Z" fill="#0055DC"/>
<path d="M403.353 221.655H401.115V223.893H403.353V221.655Z" fill="#0055DC"/>
<path d="M403.353 228.391H401.115V230.629H403.353V228.391Z" fill="#0055DC"/>
<path d="M406.418 224.842H404.18V227.08H406.418V224.842Z" fill="#0055DC"/>
<path d="M409.142 221.655H406.904V223.893H409.142V221.655Z" fill="#0055DC"/>
<path d="M409.142 228.391H406.904V230.629H409.142V228.391Z" fill="#0055DC"/>
<path d="M412.037 224.842H409.799V227.08H412.037V224.842Z" fill="#0055DC"/>
<path d="M415.46 221.655H413.222V223.893H415.46V221.655Z" fill="#0055DC"/>
<path d="M415.46 228.391H413.222V230.629H415.46V228.391Z" fill="#0055DC"/>
<path d="M418.355 224.842H416.117V227.08H418.355V224.842Z" fill="#0055DC"/>
<path d="M421.876 221.655H419.638V223.893H421.876V221.655Z" fill="#0055DC"/>
<path d="M421.876 228.391H419.638V230.629H421.876V228.391Z" fill="#0055DC"/>
<path d="M424.6 224.842H422.362V227.08H424.6V224.842Z" fill="#0055DC"/>
<path d="M427.665 221.655H425.427V223.893H427.665V221.655Z" fill="#0055DC"/>
<path d="M427.665 228.391H425.427V230.629H427.665V228.391Z" fill="#0055DC"/>
<path d="M430.219 224.842H427.981V227.08H430.219V224.842Z" fill="#0055DC"/>
<path d="M433.454 221.655H431.216V223.893H433.454V221.655Z" fill="#0055DC"/>
<path d="M433.454 228.391H431.216V230.629H433.454V228.391Z" fill="#0055DC"/>
<path d="M435.837 224.842H433.599V227.08H435.837V224.842Z" fill="#0055DC"/>
<path d="M480.881 228.93C482.415 228.93 483.659 227.686 483.659 226.152C483.659 224.618 482.415 223.374 480.881 223.374C479.347 223.374 478.103 224.618 478.103 226.152C478.103 227.686 479.347 228.93 480.881 228.93Z" fill="#0055DC"/>
<path d="M472.892 225.734H443.471V226.569H472.892V225.734Z" fill="#0055DC"/>
<path d="M397.011 273.346L397.011 277.375L487.065 277.37L487.065 273.341L397.011 273.346Z" fill="white"/>
<path d="M487.564 277.873H396.51V272.843H487.564V277.873ZM397.51 276.873H486.564V273.843H397.51V276.873Z" fill="#0055DC"/>
<path d="M492.584 244.567H391.49V273.342H492.584V244.567Z" fill="#C5EBF5"/>
<path d="M496.614 248.33H493.084V244.067H390.99V248.33H387.461V269.563H390.99V273.843H493.084V269.563H496.614V248.33ZM492.084 272.843H391.99V245.067H492.084V272.843Z" fill="#0055DC"/>
<path d="M488.217 269.286V248.625H395.857V269.286H488.217Z" fill="white"/>
<path d="M403.353 254.458H401.115V256.696H403.353V254.458Z" fill="#0055DC"/>
<path d="M403.353 261.193H401.115V263.431H403.353V261.193Z" fill="#0055DC"/>
<path d="M406.418 257.644H404.18V259.882H406.418V257.644Z" fill="#0055DC"/>
<path d="M409.142 254.458H406.904V256.696H409.142V254.458Z" fill="#0055DC"/>
<path d="M409.142 261.193H406.904V263.431H409.142V261.193Z" fill="#0055DC"/>
<path d="M412.037 257.644H409.799V259.882H412.037V257.644Z" fill="#0055DC"/>
<path d="M415.46 254.458H413.222V256.696H415.46V254.458Z" fill="#0055DC"/>
<path d="M415.46 261.193H413.222V263.431H415.46V261.193Z" fill="#0055DC"/>
<path d="M418.355 257.644H416.117V259.882H418.355V257.644Z" fill="#0055DC"/>
<path d="M421.876 254.458H419.638V256.696H421.876V254.458Z" fill="#0055DC"/>
<path d="M421.876 261.193H419.638V263.431H421.876V261.193Z" fill="#0055DC"/>
<path d="M424.6 257.644H422.362V259.882H424.6V257.644Z" fill="#0055DC"/>
<path d="M427.665 254.458H425.427V256.696H427.665V254.458Z" fill="#0055DC"/>
<path d="M427.665 261.193H425.427V263.431H427.665V261.193Z" fill="#0055DC"/>
<path d="M430.219 257.644H427.981V259.882H430.219V257.644Z" fill="#0055DC"/>
<path d="M433.454 254.458H431.216V256.696H433.454V254.458Z" fill="#0055DC"/>
<path d="M433.454 261.193H431.216V263.431H433.454V261.193Z" fill="#0055DC"/>
<path d="M435.837 257.644H433.599V259.882H435.837V257.644Z" fill="#0055DC"/>
<path d="M480.881 261.733C482.415 261.733 483.659 260.489 483.659 258.955C483.659 257.421 482.415 256.177 480.881 256.177C479.347 256.177 478.103 257.421 478.103 258.955C478.103 260.489 479.347 261.733 480.881 261.733Z" fill="#0055DC"/>
<path d="M472.892 258.537H443.471V259.372H472.892V258.537Z" fill="#0055DC"/>
<path fill-rule="evenodd" clip-rule="evenodd" d="M213.439 142.821H36.0362C33.6799 142.829 31.4211 143.763 29.748 145.422C28.0748 147.081 27.1215 149.332 27.0942 151.688V268.372H222.381V151.688C222.357 149.331 221.404 147.079 219.73 145.419C218.057 143.759 215.796 142.826 213.439 142.821Z" fill="#C5EBF5"/>
<path d="M222.881 268.872H26.5942V151.688C26.6072 149.195 27.6085 146.808 29.3786 145.052C31.1487 143.296 33.5429 142.314 36.0362 142.321H213.436C215.93 142.314 218.324 143.296 220.094 145.052C221.864 146.808 222.865 149.195 222.878 151.688L222.881 268.872ZM27.5942 267.872H221.881V151.688C221.869 149.46 220.973 147.327 219.39 145.759C217.808 144.19 215.667 143.314 213.439 143.321H36.0362C33.8162 143.34 31.6915 144.226 30.1147 145.789C28.5379 147.352 27.6335 149.468 27.5942 151.688V267.872Z" fill="#0055DC"/>
<path d="M124.738 151.533C125.604 151.533 126.306 150.831 126.306 149.965C126.306 149.099 125.604 148.397 124.738 148.397C123.872 148.397 123.17 149.099 123.17 149.965C123.17 150.831 123.872 151.533 124.738 151.533Z" fill="#0055DC"/>
<path fill-rule="evenodd" clip-rule="evenodd" d="M230.182 277.373H19.3289C8.36686 277.373 0.984863 275.692 0.984863 274.093V269.231C1.01385 268.975 1.14233 268.74 1.34264 268.578C1.54295 268.415 1.79907 268.338 2.05586 268.362H247.456C247.713 268.338 247.969 268.415 248.169 268.577C248.37 268.74 248.499 268.975 248.528 269.231V274.284C248.525 275.549 242.808 277.373 230.182 277.373Z" fill="white"/>
<path d="M230.182 277.873H19.3289C9.96386 277.873 0.484863 276.573 0.484863 274.093V269.231C0.513838 268.842 0.69503 268.48 0.989134 268.224C1.28324 267.968 1.66653 267.838 2.05586 267.862H247.456C247.845 267.838 248.229 267.968 248.523 268.224C248.817 268.48 248.999 268.842 249.028 269.231V274.284C249.023 276.4 241.274 277.873 230.182 277.873ZM2.05586 268.862C1.71886 268.862 1.48486 269.057 1.48486 269.231V274.093C1.48486 274.859 6.97186 276.873 19.3289 276.873H230.182C243.256 276.873 247.838 274.965 248.028 274.273V269.233C248.028 269.059 247.793 268.864 247.456 268.864L2.05586 268.862Z" fill="#0055DC"/>
<path d="M230.182 277.873H19.3289C9.96386 277.873 0.484863 276.573 0.484863 274.093V269.231C0.513838 268.842 0.69503 268.48 0.989134 268.224C1.28324 267.968 1.66653 267.838 2.05586 267.862H247.456C247.845 267.838 248.229 267.968 248.523 268.224C248.817 268.48 248.999 268.842 249.028 269.231V274.284C249.023 276.4 241.274 277.873 230.182 277.873ZM2.05586 268.862C1.71886 268.862 1.48486 269.057 1.48486 269.231V274.093C1.48486 274.859 6.97186 276.873 19.3289 276.873H230.182C243.256 276.873 247.838 274.965 248.028 274.273V269.233C248.028 269.059 247.793 268.864 247.456 268.864L2.05586 268.862Z" fill="#0055DC"/>
<path d="M214.181 156.77H34.9629V261.212H214.181V156.77Z" fill="white"/>
<path d="M1.48486 274.183V269.2C1.48486 269.112 1.51984 269.028 1.5821 268.965C1.64437 268.903 1.72881 268.868 1.81686 268.868H247.7C247.788 268.868 247.872 268.903 247.935 268.965C247.997 269.028 248.032 269.112 248.032 269.2V274.179L1.48486 274.183Z" fill="#C5EBF5"/>
<path d="M214.181 156.77H34.9629V164.877H214.181V156.77Z" fill="#0055DC"/>
<path d="M41.2878 162.186C42.04 162.186 42.6498 161.576 42.6498 160.824C42.6498 160.072 42.04 159.462 41.2878 159.462C40.5356 159.462 39.9258 160.072 39.9258 160.824C39.9258 161.576 40.5356 162.186 41.2878 162.186Z" fill="white"/>
<path d="M45.694 162.186C46.4462 162.186 47.056 161.576 47.056 160.824C47.056 160.072 46.4462 159.462 45.694 159.462C44.9418 159.462 44.332 160.072 44.332 160.824C44.332 161.576 44.9418 162.186 45.694 162.186Z" fill="white"/>
<path d="M50.0998 162.186C50.852 162.186 51.4618 161.576 51.4618 160.824C51.4618 160.072 50.852 159.462 50.0998 159.462C49.3476 159.462 48.7378 160.072 48.7378 160.824C48.7378 161.576 49.3476 162.186 50.0998 162.186Z" fill="white"/>
<path d="M122.877 229.353C137.146 229.353 148.714 217.785 148.714 203.516C148.714 189.247 137.146 177.679 122.877 177.679C108.608 177.679 97.04 189.247 97.04 203.516C97.04 217.785 108.608 229.353 122.877 229.353Z" fill="white"/>
<path d="M122.877 229.728C117.693 229.728 112.625 228.191 108.314 225.31C104.004 222.43 100.644 218.336 98.6603 213.547C96.6764 208.757 96.1573 203.487 97.1687 198.402C98.1801 193.318 100.677 188.647 104.342 184.981C108.008 181.315 112.679 178.819 117.763 177.808C122.848 176.796 128.118 177.315 132.908 179.299C137.698 181.283 141.791 184.643 144.672 188.953C147.552 193.264 149.089 198.332 149.089 203.516C149.081 210.465 146.317 217.128 141.403 222.042C136.489 226.956 129.827 229.72 122.877 229.728ZM122.877 178.054C117.841 178.054 112.918 179.547 108.731 182.345C104.544 185.143 101.28 189.119 99.3532 193.772C97.4261 198.425 96.9218 203.544 97.9043 208.483C98.8868 213.422 101.312 217.959 104.873 221.52C108.434 225.081 112.971 227.506 117.91 228.489C122.849 229.471 127.968 228.967 132.621 227.04C137.274 225.113 141.25 221.849 144.048 217.662C146.846 213.475 148.339 208.552 148.339 203.516C148.331 196.765 145.646 190.293 140.873 185.52C136.1 180.747 129.628 178.062 122.877 178.054Z" fill="#0055DC"/>
<path d="M146.136 234.426H99.6172V250.595H146.136V234.426Z" fill="white"/>
<path d="M146.511 250.969H99.2422V234.051H146.511V250.969ZM99.9922 250.219H145.761V234.8H99.9922V250.219Z" fill="#0055DC"/>
<path d="M112.136 243.076L110.066 244.342L109.682 243.667L111.82 242.51L109.682 241.353L110.066 240.679L112.136 241.945L112.079 239.521H112.857L112.8 241.945L114.871 240.679L115.254 241.353L113.117 242.51L115.254 243.667L114.871 244.342L112.8 243.076L112.857 245.499H112.079L112.136 243.076Z" fill="#F6821F"/>
<path d="M119.075 243.076L117.005 244.342L116.621 243.667L118.759 242.51L116.621 241.353L117.005 240.679L119.075 241.945L119.018 239.521H119.796L119.739 241.945L121.809 240.679L122.193 241.353L120.056 242.51L122.193 243.667L121.809 244.342L119.739 243.076L119.796 245.499H119.018L119.075 243.076Z" fill="#F6821F"/>
<path d="M126.014 243.076L123.944 244.342L123.559 243.667L125.698 242.51L123.559 241.353L123.944 240.679L126.014 241.945L125.957 239.521H126.735L126.678 241.945L128.748 240.679L129.132 241.353L126.994 242.51L129.132 243.667L128.748 244.342L126.678 243.076L126.735 245.499H125.957L126.014 243.076Z" fill="#F6821F"/>
<path d="M132.952 243.076L130.882 244.342L130.498 243.667L132.636 242.51L130.498 241.353L130.882 240.679L132.952 241.945L132.895 239.521H133.674L133.617 241.945L135.687 240.679L136.071 241.353L133.933 242.51L136.071 243.667L135.687 244.342L133.617 243.076L133.674 245.499H132.9L132.952 243.076Z" fill="#F6821F"/>
<path d="M131.124 198.927C130.799 197.718 130.581 196.483 130.474 195.236C125.679 195.581 118.516 192.979 116.555 191.455L116.792 191.15C118.738 192.662 125.922 195.26 130.628 194.835L130.818 194.819L130.838 195.007C130.946 196.273 131.158 197.527 131.472 198.758L131.124 198.927Z" fill="#0055DC"/>
<path d="M113.217 219.163C114.66 218.368 115.997 217.393 117.196 216.263V208.947L126.832 209.061V215.942C127.272 216.797 128.932 217.847 131.15 219.092C128.291 220.642 125.101 221.479 121.85 221.533C118.808 221.559 115.819 220.738 113.217 219.163Z" fill="#C5EBF5"/>
<path d="M122.877 229.353C128.669 229.36 134.294 227.411 138.841 223.823C136.456 222.014 133.897 220.447 131.202 219.145C128.327 220.708 125.119 221.555 121.847 221.616C118.795 221.636 115.798 220.807 113.189 219.223C110.967 220.476 108.389 221.675 106.04 223.104C110.719 227.142 116.696 229.36 122.877 229.353Z" fill="#0055DC"/>
<path d="M138.537 209.4C135.117 207.493 134.659 206.386 134.928 204.625C135.12 203.806 135.486 203.037 136 202.371C136.802 201.363 137.272 200.13 137.343 198.843C137.343 196.987 135.943 196.143 134.914 195.519C134.568 195.347 134.255 195.114 133.991 194.832C133.811 194.504 133.657 194.162 133.528 193.811C132.481 191.23 130.301 185.86 122.016 185.86C120.184 185.855 116.756 186.187 114.434 188.501C113.665 189.314 113.069 190.275 112.683 191.325C112.296 192.376 112.126 193.493 112.184 194.611C112.184 197.497 110.711 199.423 109.411 201.122C108.468 202.355 107.654 203.422 107.654 204.589C107.654 206.124 108.786 207.912 109.784 209.489C110.44 210.331 110.916 211.299 111.184 212.332C111.184 212.876 109.798 213.707 108.457 214.51C106.376 215.757 104.016 217.171 103.957 218.904C103.918 219.82 104.066 220.734 104.392 221.59L105.792 222.961L105.615 223.068L105.876 223.293C110.605 227.362 116.637 229.6 122.876 229.602C128.728 229.622 134.413 227.654 139 224.019L139.252 223.819L138.998 223.619C137.951 222.81 136.883 222.084 135.887 221.456C139.143 220.716 141.335 218.591 141.751 215.756C141.929 214.495 141.717 213.21 141.142 212.073C140.567 210.937 139.658 210.004 138.537 209.4ZM115.7 217.863L115.714 217.853C116.308 217.44 116.861 216.971 117.367 216.453L117.381 216.44L117.45 216.368V209.205L126.585 209.313V216.021L126.625 216.083C126.63 216.089 126.637 216.096 126.641 216.102C126.997 216.639 127.46 217.096 128 217.447C128.834 218.06 129.712 218.612 130.627 219.097C127.905 220.482 124.904 221.231 121.851 221.288C118.997 221.289 116.19 220.559 113.7 219.165C114.414 218.732 115.1 218.3 115.7 217.863ZM122.881 229.103C116.881 229.101 111.072 226.99 106.471 223.139C106.939 222.86 107.421 222.598 107.901 222.333L108.412 222.066C109.418 221.541 110.547 220.952 111.669 220.333C112.186 220.061 112.692 219.79 113.183 219.515C115.805 221.072 118.802 221.884 121.851 221.866C125.121 221.798 128.329 220.962 131.216 219.426C133.753 220.667 136.169 222.14 138.435 223.826C133.98 227.265 128.505 229.121 122.877 229.1L122.881 229.103Z" fill="#003682"/>
<path d="M131.589 195.69C131.456 199.374 130.599 202.996 129.068 206.349C127.875 208.63 124.803 211.169 122.01 211.169C119.217 211.169 116.46 208.63 114.951 206.349C113.039 203.458 112.43 198.187 112.43 195.69C112.417 194.424 112.655 193.167 113.131 191.994C113.607 190.82 114.31 189.753 115.201 188.853C116.092 187.953 117.152 187.238 118.321 186.751C119.49 186.263 120.743 186.012 122.01 186.012C123.276 186.012 124.53 186.263 125.698 186.751C126.867 187.238 127.927 187.953 128.818 188.853C129.709 189.753 130.413 190.82 130.888 191.994C131.364 193.167 131.602 194.424 131.589 195.69Z" fill="#C5EBF5"/>
<path d="M122.01 211.419C119.054 211.419 116.248 208.762 114.743 206.487C112.862 203.645 112.18 198.472 112.18 195.687C112.167 194.388 112.412 193.099 112.9 191.895C113.388 190.691 114.11 189.595 115.024 188.672C115.938 187.749 117.026 187.016 118.225 186.516C119.424 186.015 120.71 185.758 122.01 185.758C123.309 185.758 124.595 186.015 125.794 186.516C126.993 187.016 128.081 187.749 128.996 188.672C129.91 189.595 130.632 190.691 131.12 191.895C131.608 193.099 131.852 194.388 131.839 195.687C131.71 199.412 130.843 203.074 129.289 206.462C128.044 208.847 124.906 211.419 122.01 211.419ZM122.01 186.36C119.537 186.363 117.165 187.346 115.416 189.096C113.667 190.845 112.683 193.216 112.68 195.69C112.68 198.412 113.34 203.461 115.16 206.211C116.71 208.554 119.429 210.919 122.01 210.919C124.634 210.919 127.663 208.496 128.846 206.234C130.353 202.914 131.2 199.333 131.339 195.69C131.337 193.216 130.353 190.845 128.604 189.096C126.855 187.347 124.484 186.363 122.01 186.36Z" fill="#003682"/>
<path d="M122.01 185.86C119.404 185.863 116.905 186.899 115.063 188.742C113.22 190.585 112.183 193.084 112.18 195.69C112.196 197.048 112.311 198.403 112.522 199.744L112.582 200.13L112.908 199.914C114.827 198.641 116.423 193.179 116.822 191.714C119.13 193.253 125.835 195.604 130.422 195.294C130.528 196.529 130.745 197.753 131.071 198.949L131.42 199.669L131.544 198.879C131.719 197.824 131.817 196.757 131.837 195.688C131.834 193.083 130.797 190.585 128.955 188.743C127.113 186.9 124.615 185.864 122.01 185.86Z" fill="#003682"/>
<path d="M131.152 199.706C131.204 199.5 131.299 199.307 131.43 199.14C131.561 198.973 131.726 198.834 131.913 198.734C132.1 198.634 132.306 198.573 132.518 198.557C132.73 198.541 132.943 198.569 133.144 198.639C134.344 199.003 133.671 203.377 130.302 203.222C130.651 202.067 130.935 200.893 131.152 199.706Z" fill="#C5EBF5"/>
<path d="M130.476 203.476C130.415 203.476 130.353 203.476 130.29 203.476L129.964 203.461L130.064 203.15C130.409 202.007 130.69 200.845 130.905 199.671C130.958 199.444 131.056 199.229 131.194 199.04C131.331 198.851 131.505 198.692 131.705 198.571C131.929 198.435 132.18 198.35 132.441 198.322C132.701 198.294 132.965 198.323 133.213 198.408C133.796 198.584 134.069 199.393 133.893 200.421C133.791 201.258 133.388 202.03 132.76 202.592C132.131 203.154 131.319 203.468 130.476 203.476ZM131.399 199.747C131.202 200.835 130.948 201.911 130.638 202.972C131.332 202.916 131.986 202.622 132.49 202.141C132.993 201.659 133.316 201.019 133.403 200.328C133.526 199.609 133.381 198.972 133.072 198.879C132.892 198.815 132.7 198.792 132.51 198.811C132.32 198.83 132.136 198.89 131.972 198.988C131.69 199.157 131.485 199.429 131.4 199.747H131.399Z" fill="#003682"/>
<path d="M112.769 199.706C112.712 199.496 112.611 199.3 112.474 199.131C112.338 198.961 112.167 198.822 111.974 198.722C111.78 198.622 111.568 198.562 111.351 198.548C111.134 198.534 110.916 198.565 110.711 198.639C109.661 199.067 110.184 203.377 113.554 203.222C113.217 202.068 112.954 200.894 112.769 199.706Z" fill="#C5EBF5"/>
<path d="M113.379 203.476C112.584 203.47 111.815 203.184 111.21 202.668C110.604 202.152 110.2 201.439 110.068 200.654C109.868 199.732 109.988 198.664 110.617 198.408C110.851 198.307 111.105 198.262 111.359 198.276C111.613 198.29 111.861 198.363 112.082 198.488C112.309 198.61 112.509 198.777 112.67 198.979C112.831 199.181 112.948 199.413 113.016 199.662V199.674C113.199 200.847 113.458 202.007 113.791 203.147L113.891 203.457L113.567 203.472C113.5 203.475 113.441 203.476 113.379 203.476ZM111.279 198.776C111.118 198.778 110.958 198.812 110.81 198.876C110.536 198.988 110.37 199.688 110.56 200.552C110.661 201.2 110.98 201.793 111.465 202.234C111.95 202.676 112.571 202.938 113.225 202.977C112.929 201.916 112.695 200.838 112.525 199.749C112.412 199.398 112.168 199.105 111.843 198.931C111.671 198.83 111.475 198.776 111.275 198.774L111.279 198.776Z" fill="#003682"/>
<path fill-rule="evenodd" clip-rule="evenodd" d="M151.563 268.72V269.82C151.563 270.607 150.013 270.845 148.84 270.845H100.708C99.4732 270.845 97.9082 270.608 97.9082 269.82V268.72" fill="#0055DC"/>
<path d="M122.877 229.728C117.693 229.728 112.625 228.191 108.314 225.31C104.004 222.43 100.644 218.336 98.6603 213.547C96.6764 208.757 96.1573 203.487 97.1687 198.402C98.1801 193.318 100.677 188.647 104.342 184.981C108.008 181.315 112.679 178.819 117.763 177.808C122.848 176.796 128.118 177.315 132.908 179.299C137.698 181.283 141.791 184.643 144.672 188.953C147.552 193.264 149.089 198.332 149.089 203.516C149.081 210.465 146.317 217.128 141.403 222.042C136.489 226.956 129.827 229.72 122.877 229.728ZM122.877 178.054C117.841 178.054 112.918 179.547 108.731 182.345C104.544 185.143 101.28 189.119 99.3532 193.772C97.4261 198.425 96.9218 203.544 97.9043 208.483C98.8868 213.422 101.312 217.959 104.873 221.52C108.434 225.081 112.971 227.506 117.91 228.489C122.849 229.471 127.968 228.967 132.621 227.04C137.274 225.113 141.25 221.849 144.048 217.662C146.846 213.475 148.339 208.552 148.339 203.516C148.331 196.765 145.646 190.293 140.873 185.52C136.1 180.747 129.628 178.062 122.877 178.054Z" fill="#0055DC"/>
</svg>
