<svg xmlns="http://www.w3.org/2000/svg" width="24" height="24" viewBox="0 0 24 24">
    <path fill="#FFF" fill-rule="nonzero" d="M21.475 12.545l-4 3.958a1.003 1.003 0 0 1-1.414 0 .942.942 0 0 1 0-1.369l2.293-2.238H9v-1.98h9.354l-2.293-2.3a.997.997 0 0 1 0-1.414 1.007 1.007 0 0 1 1.414-.008l4 3.954a.98.98 0 0 1 0 1.397zM11 18.833H5V4.98h6v3.958h2v-4.02C13 3.83 12.035 3 10.938 3h-6C3.836 3 3 3.83 3 4.918v13.854c0 1.088.836 2.04 1.938 2.04h6c1.097 0 2.062-.952 2.062-2.04v-3.897h-2v3.958z"/>
</svg>
