<?xml version="1.0" encoding="utf-8"?>
<!-- Generator: Adobe Illustrator 23.0.1, SVG Export Plug-In . SVG Version: 6.00 Build 0)  -->
<svg version="1.1" id="Layer_1" xmlns="http://www.w3.org/2000/svg" xmlns:xlink="http://www.w3.org/1999/xlink" x="0px" y="0px"
	 viewBox="0 0 2041.3 416.9" style="enable-background:new 0 0 2041.3 416.9;" xml:space="preserve">
<style type="text/css">
	.st0{fill:url(#SVGID_1_);}
	.st1{fill:url(#SVGID_2_);}
	.st2{fill:url(#SVGID_3_);}
	.st3{fill:url(#SVGID_4_);}
	.st4{fill:url(#SVGID_5_);}
	.st5{fill:url(#SVGID_6_);}
	.st6{fill:url(#SVGID_7_);}
	.st7{fill:url(#SVGID_8_);}
	.st8{fill:url(#SVGID_9_);}
	.st9{opacity:0.75;fill:url(#SVGID_10_);}
	.st10{opacity:0.32;fill:url(#SVGID_11_);}
	.st11{fill:url(#SVGID_12_);}
	.st12{fill:#FFFFFF;}
	.st13{fill:url(#SVGID_13_);}
	.st14{fill:#F79411;}
	.st15{fill:url(#SVGID_14_);}
	.st16{fill:url(#SVGID_15_);}
	.st17{fill:url(#SVGID_16_);}
	.st18{fill:url(#SVGID_17_);}
	.st19{fill:url(#SVGID_18_);}
	.st20{fill:url(#SVGID_19_);}
	.st21{opacity:0.54;fill:#FFFFFF;}
	.st22{opacity:0.19;fill:#FFFFFF;}
	.st23{fill:#F62BA2;}
</style>
<g>
	<linearGradient id="SVGID_1_" gradientUnits="userSpaceOnUse" x1="244.4285" y1="111.2605" x2="311.1257" y2="111.2605">
		<stop  offset="0" style="stop-color:#F995D3"/>
		<stop  offset="1" style="stop-color:#F62BA2"/>
	</linearGradient>
	<path class="st0" d="M311.1,98.3l-25.1,46.8c-2.6-1.7-5.2-6.1-7.9-7.7c-10.9-6.2-22.2-8.2-33.7-11.8l6.7-48.1
		C271.6,81,291.9,87.8,311.1,98.3z"/>
	<linearGradient id="SVGID_2_" gradientUnits="userSpaceOnUse" x1="81.6656" y1="178.7186" x2="81.6656" y2="115.9474">
		<stop  offset="0" style="stop-color:#F995D3"/>
		<stop  offset="1" style="stop-color:#F62BA2"/>
	</linearGradient>
	<path class="st1" d="M113.7,137.5c-18.7,10.2-35.6,24.1-49.7,41.2l-14.4-8.8c12.8-21.4,29.1-39.5,47.8-53.9L113.7,137.5z"/>
	<linearGradient id="SVGID_3_" gradientUnits="userSpaceOnUse" x1="137.7829" y1="133.307" x2="137.7829" y2="82.8861">
		<stop  offset="0" style="stop-color:#F995D3"/>
		<stop  offset="1" style="stop-color:#F62BA2"/>
	</linearGradient>
	<path class="st2" d="M171,118.1c-17.5,2.4-34.6,7.6-50.6,15.2l-15.8-22.7c17.5-12.3,36.8-21.7,57.1-27.7L171,118.1z"/>
	<linearGradient id="SVGID_4_" gradientUnits="userSpaceOnUse" x1="341.6165" y1="226.0892" x2="394.1078" y2="173.5979">
		<stop  offset="0" style="stop-color:#FCEE21"/>
		<stop  offset="1" style="stop-color:#FBB03B"/>
	</linearGradient>
	<path class="st3" d="M405.9,214.8l-61.5,14.1c-4.8-13.7-11.4-26.9-19.6-39l53.3-32.2C390.5,175.2,399.9,194.5,405.9,214.8z"/>
	<linearGradient id="SVGID_5_" gradientUnits="userSpaceOnUse" x1="356.0714" y1="290.2377" x2="415.5814" y2="230.7278">
		<stop  offset="0" style="stop-color:#FCEE21"/>
		<stop  offset="1" style="stop-color:#FBB03B"/>
	</linearGradient>
	<path class="st4" d="M412.7,295.3l-58.7-7.3c0.3-17.2-2-34.3-6.8-50.6l61.1-14C414.1,246.7,415.7,271.1,412.7,295.3z"/>
	<linearGradient id="SVGID_6_" gradientUnits="userSpaceOnUse" x1="170.3605" y1="98.165" x2="242.272" y2="98.165">
		<stop  offset="0" style="stop-color:#F995D3"/>
		<stop  offset="1" style="stop-color:#F62BA2"/>
	</linearGradient>
	<path class="st5" d="M235.7,121.7c-18.4-4.7-37.3-6.1-55.7-4.6l-9.6-36.6c23.3-5.8,47.7-7.4,71.9-4.4L235.7,121.7z"/>
	<linearGradient id="SVGID_7_" gradientUnits="userSpaceOnUse" x1="40.7446" y1="238.5795" x2="40.7446" y2="177.6793">
		<stop  offset="0" style="stop-color:#F995D3"/>
		<stop  offset="1" style="stop-color:#F62BA2"/>
	</linearGradient>
	<path class="st6" d="M30.6,238.6l-6.2-0.9c3.5-20.5,10.4-40.7,20.8-60l11.9,6.8c-3.8,5.2-7.4,10.6-10.6,16.4
		C39.6,213,34.3,225.7,30.6,238.6z"/>
	<linearGradient id="SVGID_8_" gradientUnits="userSpaceOnUse" x1="305.8007" y1="166.6729" x2="348.5061" y2="123.9675">
		<stop  offset="0" style="stop-color:#FCEE21"/>
		<stop  offset="1" style="stop-color:#FBB03B"/>
	</linearGradient>
	<path class="st7" d="M372.9,150.5L323.9,184c-10-13.2-22.1-25.2-36.1-35.3l31.1-46C340.3,115.5,358.4,131.8,372.9,150.5z"/>
</g>
<g>
	<g>
		
			<image style="overflow:visible;opacity:0.75;" width="173" height="173" xlink:href="52DED198.png"  transform="matrix(1 0 0 1 104.8382 172.1407)">
		</image>
		<g>
			
				<linearGradient id="SVGID_9_" gradientUnits="userSpaceOnUse" x1="-707.6982" y1="873.8645" x2="-715.6335" y2="614.9512" gradientTransform="matrix(0.4997 1.531598e-02 -1.531598e-02 0.4997 558.1498 -106.8971)">
				<stop  offset="0" style="stop-color:#FCEE21"/>
				<stop  offset="1" style="stop-color:#FBB03B"/>
			</linearGradient>
			<path class="st8" d="M255.8,256.2c-1.1,35.7-31,63.8-66.7,62.7c-35.7-1.1-63.8-31-62.7-66.7c1.1-35.7,31-63.8,66.7-62.7
				C228.8,190.6,256.9,220.4,255.8,256.2z"/>
		</g>
	</g>
	
		<linearGradient id="SVGID_10_" gradientUnits="userSpaceOnUse" x1="97.1697" y1="441.3412" x2="18.1093" y2="505.188" gradientTransform="matrix(0.9996 3.046128e-02 -3.046128e-02 0.9996 147.8488 -220.5788)">
		<stop  offset="0.4846" style="stop-color:#CC9434"/>
		<stop  offset="0.6795" style="stop-color:#FFEA72"/>
		<stop  offset="0.7638" style="stop-color:#FFE76C"/>
		<stop  offset="0.8718" style="stop-color:#FFDE5C"/>
		<stop  offset="0.9603" style="stop-color:#FFD44A"/>
	</linearGradient>
	<path class="st9" d="M242.2,255.8c-0.9,28.2-24.5,50.4-52.7,49.6c-28.2-0.9-50.4-24.5-49.6-52.7c0.9-28.2,24.5-50.4,52.7-49.6
		C220.9,203.9,243.1,227.5,242.2,255.8z"/>
	
		<linearGradient id="SVGID_11_" gradientUnits="userSpaceOnUse" x1="34.338" y1="426.2982" x2="80.9438" y2="519.8919" gradientTransform="matrix(0.9996 3.046128e-02 -3.046128e-02 0.9996 147.8488 -220.5788)">
		<stop  offset="0.4846" style="stop-color:#CC9434"/>
		<stop  offset="0.6795" style="stop-color:#FFEA72"/>
		<stop  offset="0.7638" style="stop-color:#FFE76C"/>
		<stop  offset="0.8718" style="stop-color:#FFDE5C"/>
		<stop  offset="0.9603" style="stop-color:#FFD44A"/>
	</linearGradient>
	<path class="st10" d="M242.2,255.8c-0.9,28.2-24.5,50.4-52.7,49.6c-28.2-0.9-50.4-24.5-49.6-52.7c0.9-28.2,24.5-50.4,52.7-49.6
		C220.9,203.9,243.1,227.5,242.2,255.8z"/>
	
		<linearGradient id="SVGID_12_" gradientUnits="userSpaceOnUse" x1="59.1188" y1="519.7418" x2="56.0923" y2="420.4265" gradientTransform="matrix(0.9996 3.046128e-02 -3.046128e-02 0.9996 147.8488 -220.5788)">
		<stop  offset="0" style="stop-color:#FCEE60"/>
		<stop  offset="1" style="stop-color:#FCEE90"/>
	</linearGradient>
	<path class="st11" d="M240.5,255.7c-0.8,27.3-23.6,48.7-50.9,47.9c-27.3-0.8-48.7-23.6-47.9-50.9c0.8-27.3,23.6-48.7,50.9-47.9
		C219.9,205.6,241.4,228.4,240.5,255.7z"/>
	<path class="st12" d="M192.6,204.8c-27.3-0.8-50.1,20.6-50.9,47.9c-0.8,27.3,20.6,50.1,47.9,50.9c27.3,0.8,50.1-20.6,50.9-47.9
		C241.4,228.4,219.9,205.6,192.6,204.8z M189.6,302.6c-26.8-0.8-47.8-23.2-47-49.9c0.8-26.8,23.2-47.8,49.9-47
		c26.8,0.8,47.8,23.2,47,49.9C238.7,282.4,216.4,303.5,189.6,302.6z"/>
	<g>
		
			<linearGradient id="SVGID_13_" gradientUnits="userSpaceOnUse" x1="208.4734" y1="201.1116" x2="149.1265" y2="261.5837" gradientTransform="matrix(0.9192 -0.3939 0.3939 0.9192 -63.5408 105.048)">
			<stop  offset="0" style="stop-color:#FFDB56"/>
			<stop  offset="9.118795e-03" style="stop-color:#FFDA55"/>
			<stop  offset="0.6822" style="stop-color:#F39A2F"/>
			<stop  offset="1" style="stop-color:#EE8120"/>
		</linearGradient>
		<path class="st13" d="M207,253.9l0-0.3c4.2-1.1,7.8-4,8-11c0.2-7-5.4-12.1-12.4-12.3l0.1,0l0.2-6.5l-11.1-0.3l-0.2,6.5l-4.6-0.1
			l0.2-6.5l-11.1-0.3l-0.2,6.5l-2.1-0.1l-1.7-0.1l-4.8-0.1l-0.3,11.1l4.8,0.1l-0.8,26.2l-4.8-0.1l-0.3,11.1l4.8,0.1l1.7,0.1l2.1,0.1
			l-0.2,6.5l11.1,0.3l0.2-6.5l4.6,0.1L190,285l11.1,0.3l0.2-6.5l0.3,0c7.4,0.2,13.6-4.7,13.8-12.5
			C215.7,258.5,211.7,255.2,207,253.9z M196.4,241.1c1.7,0.1,3,1.6,3,3.5l0,0.6c-0.1,1.9-1.4,3.4-3.2,3.3l-9.2-0.3l0.2-7.4
			L196.4,241.1z M186.4,266.6l0.2-7.5l10.2,0.3c1.8,0.1,3,1.6,3,3.5l0,0.6c-0.1,2-1.4,3.4-3.2,3.3L186.4,266.6z"/>
		<path class="st14" d="M206.5,253.9l0-0.3c4-1.1,7.6-3.9,7.8-10.7c0.2-6.7-5.2-11.7-11.9-11.9l0.1,0l0.2-6.3l-10.8-0.3l-0.2,6.3
			l-4.5-0.1l0.2-6.3l-10.8-0.3l-0.2,6.3l-2.1-0.1l-1.6,0l-4.7-0.1l-0.3,10.8l4.7,0.1l-0.8,25.3l-4.7-0.1l-0.3,10.8l4.7,0.1l1.6,0.1
			l2.1,0.1l-0.2,6.3l10.8,0.3l0.2-6.3l4.5,0.1l-0.2,6.3l10.8,0.3l0.2-6.3l0.3,0c7.2,0.2,13.1-4.6,13.3-12.1
			C214.8,258.4,211,255.2,206.5,253.9z M196.5,241.2c1.8,0.1,3.2,1.7,3.2,3.7l0,0.7c-0.1,2-1.5,3.6-3.4,3.6l-9.8-0.3l0.2-8
			L196.5,241.2z M185.9,266.6l0.2-8l10.9,0.3c1.9,0.1,3.2,1.7,3.2,3.8l0,0.7c-0.1,2.1-1.5,3.6-3.4,3.6L185.9,266.6z"/>
	</g>
</g>
<g>
	
		<linearGradient id="SVGID_14_" gradientUnits="userSpaceOnUse" x1="57.2206" y1="178.8482" x2="64.7988" y2="189.9659" gradientTransform="matrix(-0.9992 3.977349e-02 3.977349e-02 0.9992 388.8355 -12.5165)">
		<stop  offset="0" style="stop-color:#F2F2F2"/>
		<stop  offset="1" style="stop-color:#E6E6E6"/>
	</linearGradient>
	<path class="st15" d="M312.9,144.5c0,0,47.7,36.7,43.2,68.9c0,0-25.4-37.3-53.7-59.5L312.9,144.5z"/>
	
		<linearGradient id="SVGID_15_" gradientUnits="userSpaceOnUse" x1="57.2221" y1="178.8335" x2="64.8026" y2="189.9674" gradientTransform="matrix(-0.9992 3.977349e-02 3.977349e-02 0.9992 388.8355 -12.5165)">
		<stop  offset="0" style="stop-color:#A7ABC7"/>
		<stop  offset="1" style="stop-color:#8288AF"/>
	</linearGradient>
	<path class="st16" d="M312.9,144.5C312.9,144.5,313,144.6,312.9,144.5l-8.3,7.6c23.7,18.5,45.4,47.8,51.8,56.7
		c0,1.5-0.1,3.1-0.3,4.6c0,0-25.4-37.3-53.7-59.5L312.9,144.5z"/>
	
		<linearGradient id="SVGID_16_" gradientUnits="userSpaceOnUse" x1="117.7889" y1="123.9285" x2="121.1053" y2="137.1944" gradientTransform="matrix(-0.9992 3.977349e-02 3.977349e-02 0.9992 388.8355 -12.5165)">
		<stop  offset="0" style="stop-color:#F2F2F2"/>
		<stop  offset="1" style="stop-color:#E6E6E6"/>
	</linearGradient>
	<path class="st17" d="M302.8,135.5c0,0-32.2-26.9-43.8-27.8c-9.6-0.8-12.6,2.8-12.6,2.8s36.7,24.7,47.5,34.4L302.8,135.5z"/>
	
		<linearGradient id="SVGID_17_" gradientUnits="userSpaceOnUse" x1="118.4795" y1="126.6909" x2="121.4128" y2="138.4243" gradientTransform="matrix(-0.9992 3.977349e-02 3.977349e-02 0.9992 388.8355 -12.5165)">
		<stop  offset="0" style="stop-color:#A7ABC7"/>
		<stop  offset="1" style="stop-color:#8288AF"/>
	</linearGradient>
	<path class="st18" d="M248.8,109c6.4,4.3,36.6,25,46.3,33.6l7.1-7.6c0.4,0.3,0.6,0.5,0.6,0.5l-8.8,9.4
		c-10.8-9.7-47.5-34.4-47.5-34.4S247.1,109.7,248.8,109z"/>
	<linearGradient id="SVGID_18_" gradientUnits="userSpaceOnUse" x1="247.8" y1="149.192" x2="247.8" y2="261.9124">
		<stop  offset="0" style="stop-color:#F995D3"/>
		<stop  offset="1" style="stop-color:#F62BA2"/>
	</linearGradient>
	<path class="st19" d="M198.1,260.3L198.1,260.3c2.5,2.3,6.2,2.1,8.4-0.3l92.9-102.8l-8.8-7.9L197.7,252
		C195.5,254.4,195.7,258.1,198.1,260.3z"/>
	<linearGradient id="SVGID_19_" gradientUnits="userSpaceOnUse" x1="285.0015" y1="143.755" x2="321.4794" y2="143.755">
		<stop  offset="0" style="stop-color:#F995D3"/>
		<stop  offset="1" style="stop-color:#F62BA2"/>
	</linearGradient>
	<polygon class="st20" points="285,148.7 306.5,125 321.5,138.9 300.1,162.5 	"/>
	<polygon class="st21" points="312.4,134.5 317.7,139.4 300.3,158.7 294.9,153.9 	"/>
	<polygon class="st22" points="305.9,128.4 311.2,133.3 293.8,152.6 288.4,147.8 	"/>
</g>
<g>
	<path class="st12" d="M533.1,126.5c-7.9,0-14.4,1.6-19.5,4.8c-5.1,3.2-7.6,8.1-7.6,14.7c0,6.5,2.5,11.5,7.6,15
		c5.1,3.5,15.9,7.2,32.4,11.2c16.5,4,29,9.6,37.4,16.8c8.4,7.2,12.6,17.9,12.6,32c0,14.1-5.3,25.5-15.9,34.3
		c-10.6,8.8-24.5,13.2-41.8,13.2c-25.2,0-47.6-8.7-67.1-26.1l17.1-20.5c16.3,14.2,33.2,21.2,50.8,21.2c8.8,0,15.7-1.9,20.9-5.7
		c5.2-3.8,7.7-8.8,7.7-15c0-6.2-2.4-11.1-7.3-14.5c-4.8-3.5-13.2-6.6-25-9.5c-11.8-2.8-20.8-5.5-27-7.8c-6.2-2.4-11.6-5.5-16.4-9.3
		c-9.5-7.2-14.3-18.3-14.3-33.2c0-14.9,5.4-26.4,16.3-34.5c10.8-8.1,24.3-12.1,40.3-12.1c10.3,0,20.5,1.7,30.7,5.1
		c10.2,3.4,18.9,8.2,26.3,14.3l-14.5,20.5c-4.8-4.3-11.2-7.8-19.4-10.6C549,127.8,541,126.5,533.1,126.5z"/>
	<path class="st23" d="M691.7,141.9c16.5,0,30.5,5.7,42.2,17.1c11.7,11.4,17.5,26.5,17.5,45.5s-5.8,34.3-17.4,46.2
		c-11.6,11.8-25.2,17.8-40.6,17.8s-29.3-6.8-41.7-20.3v63.2H626V143.8h25.8v21.5C662,149.7,675.3,141.9,691.7,141.9z M651.3,205.4
		c0,11.7,3.5,21.3,10.6,28.7c7.1,7.5,15.7,11.2,25.8,11.2c10.2,0,19-3.7,26.5-11.1c7.5-7.4,11.3-17,11.3-28.7
		c0-11.8-3.7-21.5-11.1-29.3c-7.4-7.8-16.2-11.7-26.5-11.7c-10.3,0-19,3.9-26.1,11.7C654.9,184,651.3,193.7,651.3,205.4z"/>
	<path class="st12" d="M895.2,216.5H799c0.6,8.9,4.7,16.1,12.2,21.6c7.5,5.5,16.2,8.2,25.8,8.2c15.4,0,27.1-4.8,35.1-14.5l14.8,16.2
		c-13.2,13.7-30.5,20.5-51.7,20.5c-17.2,0-31.9-5.7-44-17.2c-12.1-11.5-18.1-26.8-18.1-46.2c0-19.3,6.2-34.6,18.5-46
		c12.3-11.4,26.8-17.1,43.5-17.1c16.7,0,30.9,5,42.6,15.1c11.7,10.1,17.5,24,17.5,41.7V216.5z M799,196.1h70.4
		c0-10.3-3.2-18.2-9.7-23.8c-6.5-5.5-14.4-8.3-23.9-8.3c-9.5,0-18,2.9-25.5,8.7C802.8,178.5,799,186.3,799,196.1z"/>
	<path class="st12" d="M1037.8,216.5h-96.2c0.6,8.9,4.7,16.1,12.2,21.6c7.5,5.5,16.2,8.2,25.8,8.2c15.4,0,27.1-4.8,35.1-14.5
		l14.8,16.2c-13.2,13.7-30.5,20.5-51.7,20.5c-17.2,0-31.9-5.7-44-17.2c-12.1-11.5-18.1-26.8-18.1-46.2c0-19.3,6.2-34.6,18.5-46
		c12.3-11.4,26.8-17.1,43.5-17.1c16.7,0,30.9,5,42.6,15.1c11.7,10.1,17.5,24,17.5,41.7V216.5z M941.6,196.1h70.4
		c0-10.3-3.2-18.2-9.7-23.8c-6.5-5.5-14.4-8.3-23.9-8.3s-18,2.9-25.5,8.7C945.4,178.5,941.6,186.3,941.6,196.1z"/>
	<path class="st12" d="M1075.7,250.8c-11.5-11.7-17.3-27.1-17.3-46.2c0-19.1,5.9-34.3,17.8-45.7c11.8-11.4,26-17.1,42.3-17.1
		c16.4,0,29.6,6.9,39.6,20.8V95.3h25.8v171.2h-25.8v-18.5c-9.5,13.5-23.5,20.3-41.8,20.3C1100.8,268.4,1087.2,262.5,1075.7,250.8z
		 M1084.2,205.7c0,11.8,3.8,21.3,11.3,28.7c7.5,7.4,16.4,11.1,26.5,11.1c10.2,0,18.8-3.7,25.8-11.2c7.1-7.5,10.6-17,10.6-28.7
		c0-11.7-3.5-21.5-10.6-29.3c-7.1-7.8-15.8-11.8-26.1-11.8c-10.3,0-19.2,3.9-26.5,11.8C1087.9,184.1,1084.2,194,1084.2,205.7z"/>
	<path class="st23" d="M1247.1,200.1v66.5h-25.8V143.8h25.8v22.4c3.7-7.5,9.3-13.5,16.7-17.8c7.5-4.3,15.5-6.5,24.1-6.5
		c19.4,0,32.5,8,39.5,24c12.2-16,27.3-24,45.5-24c13.8,0,25,4.2,33.6,12.7c8.5,8.5,12.8,20.7,12.8,36.7v75.2h-25.8v-67.4
		c0-22.6-9.4-33.9-28.2-33.9c-8.8,0-16.4,2.8-23,8.4c-6.5,5.6-10,13.8-10.3,24.6v68.3h-25.8v-67.4c0-11.7-2.1-20.3-6.2-25.7
		c-4.2-5.5-10.7-8.2-19.6-8.2c-8.9,0-16.7,3-23.3,8.9C1250.4,180,1247.1,188.7,1247.1,200.1z"/>
	<path class="st12" d="M1456.9,119.3c-3.2-3.2-4.8-7.1-4.8-11.5c0-4.5,1.6-8.3,4.8-11.5c3.2-3.2,7.1-4.8,11.5-4.8
		c4.5,0,8.3,1.6,11.5,4.8c3.2,3.2,4.8,7.1,4.8,11.5c0,4.5-1.6,8.3-4.8,11.5c-3.2,3.2-7.1,4.8-11.5,4.8
		C1464,124.2,1460.1,122.5,1456.9,119.3z M1481.1,266.5h-25.8V143.8h25.8V266.5z"/>
	<path class="st12" d="M1544.3,200.1v66.5h-25.8V143.8h25.8v22.4c4.2-7.5,9.9-13.5,17.2-17.8c7.3-4.3,15.2-6.5,23.7-6.5
		c13.8,0,25,4.2,33.6,12.7c8.5,8.5,12.8,20.7,12.8,36.7v75.2h-25.8v-67.4c0-22.6-9.4-33.9-28.2-33.9c-8.9,0-16.7,3-23.3,8.9
		C1547.7,180,1544.3,188.7,1544.3,200.1z"/>
	<path class="st12" d="M1669.2,119.3c-3.2-3.2-4.8-7.1-4.8-11.5c0-4.5,1.6-8.3,4.8-11.5c3.2-3.2,7.1-4.8,11.5-4.8
		c4.5,0,8.3,1.6,11.5,4.8c3.2,3.2,4.8,7.1,4.8,11.5c0,4.5-1.6,8.3-4.8,11.5c-3.2,3.2-7.1,4.8-11.5,4.8
		C1676.3,124.2,1672.4,122.5,1669.2,119.3z M1693.4,266.5h-25.8V143.8h25.8V266.5z"/>
	<path class="st12" d="M1756.6,200.1v66.5h-25.8V143.8h25.8v22.4c4.2-7.5,9.9-13.5,17.2-17.8c7.3-4.3,15.2-6.5,23.7-6.5
		c13.8,0,25,4.2,33.6,12.7c8.5,8.5,12.8,20.7,12.8,36.7v75.2H1818v-67.4c0-22.6-9.4-33.9-28.2-33.9c-8.9,0-16.7,3-23.3,8.9
		C1759.9,180,1756.6,188.7,1756.6,200.1z"/>
	<path class="st12" d="M1993.4,143.8v107.1c0,21.7-5.9,38-17.7,48.8c-11.8,10.8-26.9,16.3-45.3,16.3c-18.5,0-35.2-5.8-50.1-17.3
		l12.2-19.6c12,9.1,24.1,13.6,36.3,13.6c12.2,0,21.9-3.2,29.1-9.5c7.2-6.3,10.7-16.4,10.7-30.2v-15.7c-3.8,7.2-9.3,13-16.5,17.3
		c-7.2,4.3-15.2,6.5-24.1,6.5c-16.3,0-29.7-5.7-40.2-17.1c-10.5-11.4-15.7-25.5-15.7-42.5c0-16.9,5.2-31.1,15.7-42.5
		c10.5-11.4,23.8-17.1,40-17.1c16.2,0,29.4,6.7,39.6,20.1v-18.2H1993.4z M1897.6,200.4c0,10.1,3.1,18.8,9.3,26.1
		c6.2,7.3,14.6,11,25.2,11c10.5,0,19.1-3.5,25.6-10.6c6.5-7.1,9.8-15.9,9.8-26.4c0-10.5-3.3-19.5-9.9-26.8c-6.6-7.3-15.2-11-25.6-11
		c-10.5,0-18.8,3.8-25,11.3C1900.7,181.5,1897.6,190.3,1897.6,200.4z"/>
</g>
</svg>
