<svg xmlns="http://www.w3.org/2000/svg" width="2000" height="735" xmlns:xlink="http://www.w3.org/1999/xlink"><defs><radialGradient id="c" cx="121.502%" cy="-98.635%" r="314.17%" fx="121.502%" fy="-98.635%" gradientTransform="rotate(180 1.215 -.987)"><stop stop-color="#D6EEFF" offset="0%"/><stop stop-color="#E4F6FF" offset="47%"/><stop stop-color="#E8F8FF" offset="100%"/></radialGradient><radialGradient id="d" cx="121.502%" cy="-98.635%" r="314.17%" fx="121.502%" fy="-98.635%"><stop stop-color="#D6EEFF" offset="0%"/><stop stop-color="#E4F6FF" offset="47%"/><stop stop-color="#E8F8FF" offset="100%"/></radialGradient><radialGradient id="e" cx="235.855%" cy="-38.487%" r="302.803%" fx="235.855%" fy="-38.487%"><stop stop-color="#D6EEFF" offset="0%"/><stop stop-color="#E4F6FF" offset="47%"/><stop stop-color="#E8F8FF" offset="100%"/></radialGradient><radialGradient id="f" cx="301.888%" cy="1.365%" r="314.17%" fx="301.888%" fy="1.365%" gradientTransform="matrix(-1 0 0 -.99999 6.038 .027)"><stop stop-color="#D6EEFF" offset="0%"/><stop stop-color="#E4F6FF" offset="47%"/><stop stop-color="#E8F8FF" offset="100%"/></radialGradient><radialGradient id="g" cx="46.957%" cy="-116.667%" r="266.817%" fx="46.957%" fy="-116.667%" gradientTransform="matrix(-1 0 0 -.99999 .94 -2.333)"><stop stop-color="#D6EEFF" offset="0%"/><stop stop-color="#E4F6FF" offset="47%"/><stop stop-color="#E8F8FF" offset="100%"/></radialGradient><radialGradient id="h" cx="-84.076%" cy="-261.146%" r="586.316%" fx="-84.076%" fy="-261.146%" gradientTransform="rotate(180 -.841 -2.611)"><stop stop-color="#D6EEFF" stop-opacity=".498" offset="0%"/><stop stop-color="#E4F6FF" stop-opacity=".498" offset="47%"/><stop stop-color="#E8F8FF" stop-opacity=".498" offset="100%"/></radialGradient><radialGradient id="i" cx="-84.076%" cy="-261.146%" r="586.316%" fx="-84.076%" fy="-261.146%"><stop stop-color="#D6EEFF" offset="0%"/><stop stop-color="#E4F6FF" offset="47%"/><stop stop-color="#E8F8FF" offset="100%"/></radialGradient><radialGradient id="j" cx="-66.561%" cy="-332.803%" r="586.316%" fx="-66.561%" fy="-332.803%"><stop stop-color="#D6EEFF" offset="0%"/><stop stop-color="#E4F6FF" offset="47%"/><stop stop-color="#E8F8FF" offset="100%"/></radialGradient><radialGradient id="k" cx="-71.843%" cy="-155.119%" r="314.17%" fx="-71.843%" fy="-155.119%" gradientTransform="matrix(-1 0 0 -.99999 -1.437 -3.102)"><stop stop-color="#D6EEFF" offset="0%"/><stop stop-color="#E4F6FF" offset="47%"/><stop stop-color="#E8F8FF" offset="100%"/></radialGradient><radialGradient id="l" cx="-71.843%" cy="-155.119%" r="314.17%" fx="-71.843%" fy="-155.119%"><stop stop-color="#D6EEFF" offset="0%"/><stop stop-color="#E4F6FF" offset="47%"/><stop stop-color="#E8F8FF" offset="100%"/></radialGradient><radialGradient id="m" cx="-71.843%" cy="-155.119%" r="314.17%" fx="-71.843%" fy="-155.119%"><stop stop-color="#D6EEFF" offset="0%"/><stop stop-color="#E4F6FF" offset="47%"/><stop stop-color="#E8F8FF" offset="100%"/></radialGradient><radialGradient id="n" cx="-71.843%" cy="-155.119%" r="314.171%" fx="-71.843%" fy="-155.119%"><stop stop-color="#D6EEFF" offset="0%"/><stop stop-color="#E4F6FF" offset="47%"/><stop stop-color="#E8F8FF" offset="100%"/></radialGradient><radialGradient id="o" cx="-71.843%" cy="-155.119%" r="314.17%" fx="-71.843%" fy="-155.119%" gradientTransform="rotate(180 -.719 -1.551)"><stop stop-color="#D6EEFF" offset="0%"/><stop stop-color="#E4F6FF" offset="47%"/><stop stop-color="#E8F8FF" offset="100%"/></radialGradient><radialGradient id="p" cx="301.055%" cy="-152.244%" r="620.014%" fx="301.055%" fy="-152.244%"><stop stop-color="#D6EEFF" stop-opacity=".498" offset="0%"/><stop stop-color="#E4F6FF" stop-opacity=".498" offset="47%"/><stop stop-color="#E8F8FF" stop-opacity=".498" offset="100%"/></radialGradient><radialGradient id="q" cx="301.055%" cy="-152.244%" r="620.013%" fx="301.055%" fy="-152.244%" gradientTransform="matrix(-1 0 0 -.99996 6.021 -3.045)"><stop stop-color="#D6EEFF" stop-opacity=".098" offset="0%"/><stop stop-color="#E4F6FF" stop-opacity=".098" offset="47%"/><stop stop-color="#E8F8FF" stop-opacity=".098" offset="100%"/></radialGradient><radialGradient id="r" cx="83.678%" cy="278.671%" r="544.652%" fx="83.678%" fy="278.671%"><stop stop-color="#FFF" offset="0%"/><stop stop-color="#DCF3FE" offset="55%"/><stop stop-color="#5AC8FA" offset="100%"/></radialGradient><radialGradient id="s" cx="249.371%" cy="155.927%" r="544.652%" fx="249.371%" fy="155.927%"><stop stop-color="#FFF" offset="0%"/><stop stop-color="#DCF3FE" offset="55%"/><stop stop-color="#5AC8FA" offset="100%"/></radialGradient><radialGradient id="t" cx="357.161%" cy="164.751%" r="630.592%" fx="357.161%" fy="164.751%"><stop stop-color="#FFF" offset="0%"/><stop stop-color="#DCF3FE" offset="55%"/><stop stop-color="#5AC8FA" offset="100%"/></radialGradient><radialGradient id="u" cx="67.661%" cy="176.081%" r="440.401%" fx="67.661%" fy="176.081%"><stop stop-color="#FFF" offset="0%"/><stop stop-color="#DCF3FE" offset="55%"/><stop stop-color="#5AC8FA" offset="100%"/></radialGradient><radialGradient id="v" cx="100%" cy="132.376%" r="315.295%" fx="100%" fy="132.376%"><stop stop-color="#FFF" offset="0%"/><stop stop-color="#DCF3FE" offset="55%"/><stop stop-color="#5AC8FA" offset="100%"/></radialGradient><radialGradient id="w" cx="121.502%" cy="-98.635%" r="281.317%" fx="121.502%" fy="-98.635%" gradientTransform="scale(1 .99999)"><stop stop-color="#5AC8FA" offset="0%"/><stop stop-color="#D9F1FC" offset="47%"/><stop stop-color="#FDFDFD" offset="100%"/></radialGradient><radialGradient id="x" cx="-71.843%" cy="-155.119%" r="281.317%" fx="-71.843%" fy="-155.119%" gradientTransform="scale(1 .99999)"><stop stop-color="#5AC8FA" offset="0%"/><stop stop-color="#D9F1FC" offset="47%"/><stop stop-color="#FDFDFD" offset="100%"/></radialGradient><radialGradient id="y" cx="235.855%" cy="-38.487%" r="271.137%" fx="235.855%" fy="-38.487%" gradientTransform="scale(1 .99999)"><stop stop-color="#5AC8FA" offset="0%"/><stop stop-color="#D9F1FC" offset="47%"/><stop stop-color="#FDFDFD" offset="100%"/></radialGradient><radialGradient id="z" cx="301.055%" cy="-152.244%" r="555.178%" fx="301.055%" fy="-152.244%"><stop stop-color="#5AC8FA" offset="0%"/><stop stop-color="#D9F1FC" offset="47%"/><stop stop-color="#FDFDFD" offset="100%"/></radialGradient><radialGradient id="A" cx="571.464%" cy="-43.252%" r="656.953%" fx="571.464%" fy="-43.252%"><stop stop-color="#5AC8FA" offset="0%"/><stop stop-color="#D9F1FC" offset="47%"/><stop stop-color="#FDFDFD" offset="100%"/></radialGradient><radialGradient id="B" cx="46.957%" cy="-116.667%" r="238.915%" fx="46.957%" fy="-116.667%"><stop stop-color="#5AC8FA" offset="0%"/><stop stop-color="#D9F1FC" offset="47%"/><stop stop-color="#FDFDFD" offset="100%"/></radialGradient><radialGradient id="C" cx="63.807%" cy="-127.122%" r="218.274%" fx="63.807%" fy="-127.122%" gradientTransform="scale(.53953 1) rotate(-26.617 .91 -2.422)"><stop stop-color="#5AC8FA" offset="0%"/><stop stop-color="#D9F1FC" offset="47%"/><stop stop-color="#FDFDFD" offset="100%"/></radialGradient><radialGradient id="D" cx="-84.076%" cy="-261.146%" r="525.007%" fx="-84.076%" fy="-261.146%"><stop stop-color="#5AC8FA" offset="0%"/><stop stop-color="#D9F1FC" offset="47%"/><stop stop-color="#FDFDFD" offset="100%"/></radialGradient><radialGradient id="E" cx="-66.561%" cy="-332.803%" r="525.007%" fx="-66.561%" fy="-332.803%"><stop stop-color="#5AC8FA" offset="0%"/><stop stop-color="#D9F1FC" offset="47%"/><stop stop-color="#FDFDFD" offset="100%"/></radialGradient><radialGradient id="F" cx="220.478%" cy="95.222%" r="396.622%" fx="220.478%" fy="95.222%" gradientTransform="scale(1 .99999)"><stop stop-color="#FFF" offset="0%"/><stop stop-color="#DCF3FE" offset="55%"/><stop stop-color="#5AC8FA" offset="100%"/></radialGradient><radialGradient id="G" cx="163.987%" cy="311.832%" r="782.73%" fx="163.987%" fy="311.832%"><stop stop-color="#FFF" offset="0%"/><stop stop-color="#DCF3FE" offset="55%"/><stop stop-color="#5AC8FA" offset="100%"/></radialGradient><radialGradient id="H" cx="132.656%" cy="522.688%" r="1263.602%" fx="132.656%" fy="522.688%" gradientTransform="scale(1 .99999)"><stop stop-color="#FFF" offset="0%"/><stop stop-color="#DCF3FE" offset="55%"/><stop stop-color="#5AC8FA" offset="100%"/></radialGradient><radialGradient id="I" cx="-212.05%" cy="662.701%" r="1263.602%" fx="-212.05%" fy="662.701%" gradientTransform="scale(1 .99999)"><stop stop-color="#FFF" offset="0%"/><stop stop-color="#DCF3FE" offset="55%"/><stop stop-color="#5AC8FA" offset="100%"/></radialGradient><radialGradient id="J" cx="132.423%" cy="122.184%" r="396.622%" fx="132.423%" fy="122.184%" gradientTransform="scale(1 .99999)"><stop stop-color="#FFF" offset="0%"/><stop stop-color="#DCF3FE" offset="55%"/><stop stop-color="#5AC8FA" offset="100%"/></radialGradient><radialGradient id="K" cx="47.782%" cy="157.338%" r="396.622%" fx="47.782%" fy="157.338%" gradientTransform="scale(1 .99999)"><stop stop-color="#FFF" offset="0%"/><stop stop-color="#DCF3FE" offset="55%"/><stop stop-color="#5AC8FA" offset="100%"/></radialGradient><radialGradient id="L" cx="3.478%" cy="165.797%" r="336.839%" fx="3.478%" fy="165.797%"><stop stop-color="#FFF" offset="0%"/><stop stop-color="#DCF3FE" offset="55%"/><stop stop-color="#5AC8FA" offset="100%"/></radialGradient><radialGradient id="M" cx="52.301%" cy="96.574%" r="413.256%" fx="52.301%" fy="96.574%" gradientTransform="scale(.4004 1) rotate(17.826 .915 3.463)"><stop stop-color="#FFF" offset="0%"/><stop stop-color="#DCF3FE" offset="55%"/><stop stop-color="#5AC8FA" offset="100%"/></radialGradient><radialGradient id="N" cx="83.678%" cy="278.671%" r="544.651%" fx="83.678%" fy="278.671%" gradientTransform="rotate(180 .837 2.787)"><stop stop-color="#FFF" offset="0%"/><stop stop-color="#DCF3FE" offset="55%"/><stop stop-color="#5AC8FA" offset="100%"/></radialGradient><radialGradient id="O" cx="249.371%" cy="155.927%" r="544.653%" fx="249.371%" fy="155.927%"><stop stop-color="#FFF" offset="0%"/><stop stop-color="#DCF3FE" offset="55%"/><stop stop-color="#5AC8FA" offset="100%"/></radialGradient><radialGradient id="P" cx="357.161%" cy="164.751%" r="630.592%" fx="357.161%" fy="164.751%"><stop stop-color="#FFF" offset="0%"/><stop stop-color="#DCF3FE" offset="55%"/><stop stop-color="#5AC8FA" offset="100%"/></radialGradient><radialGradient id="Q" cx="67.661%" cy="176.081%" r="440.406%" fx="67.661%" fy="176.081%" gradientTransform="matrix(-.99999 0 0 -1 1.353 3.522)"><stop stop-color="#FFF" offset="0%"/><stop stop-color="#DCF3FE" offset="55%"/><stop stop-color="#5AC8FA" offset="100%"/></radialGradient><radialGradient id="R" cx="100%" cy="132.376%" r="315.295%" fx="100%" fy="132.376%"><stop stop-color="#FFF" offset="0%"/><stop stop-color="#DCF3FE" offset="55%"/><stop stop-color="#5AC8FA" offset="100%"/></radialGradient><path id="a" d="M152.965 0h2000v738.999h-2000z"/></defs><g fill="none" fill-rule="evenodd" transform="translate(-152.965 -4)"><mask id="b" fill="#fff"><use xlink:href="#a"/></mask><g transform="translate(0 4.364)" mask="url(#b)"><g opacity=".6" transform="translate(1091.82)"><ellipse cx="479.878" cy="542.154" fill="url(#c)" transform="matrix(-1 0 0 1 959.756 0)" rx="135.777" ry="135.778"/><ellipse cx="458.692" cy="726.575" fill="url(#c)" transform="matrix(-1 0 0 1 917.385 0)" rx="135.777" ry="135.778"/><ellipse cx="721.316" cy="444.513" fill="url(#c)" transform="matrix(-1 0 0 1 1442.631 0)" rx="135.777" ry="135.778"/><ellipse cx="991.547" cy="714.969" fill="url(#d)" transform="matrix(-1 0 0 1 1983.093 0)" rx="441.072" ry="441.073"/><circle cx="878.691" cy="285.69" fill="url(#e)" transform="matrix(-1 0 0 1 1757.381 0)" r="143.149"/><ellipse cx="1043.587" cy="151.879" fill="url(#f)" transform="matrix(-1 0 0 1 2087.173 0)" rx="151.416" ry="151.418"/><ellipse cx="259.164" cy="620.084" fill="url(#g)" transform="matrix(-1 0 0 1 518.329 0)" rx="151.416" ry="151.418"/><ellipse cx="72.518" cy="580.289" fill="url(#h)" transform="matrix(-1 0 0 1 145.036 0)" rx="71.832" ry="71.833"/><circle cx="721.319" cy="285.691" fill="url(#i)" transform="matrix(-1 0 0 1 1442.637 0)" r="54.262"/><circle cx="91.635" cy="652.124" fill="url(#j)" transform="matrix(-1 0 0 1 183.27 0)" r="81.135"/></g><g opacity=".6" transform="translate(27.822 47.494)"><ellipse cx="159.279" cy="152.169" fill="url(#k)" transform="matrix(-1 0 0 1 318.558 0)" rx="151.416" ry="151.418"/><circle cx="531.358" cy="398.95" fill="url(#l)" transform="matrix(-1 0 0 1 1062.716 0)" r="124.545"/><circle cx="732.834" cy="443.047" fill="url(#m)" transform="matrix(-1 0 0 1 1465.668 0)" r="103.805"/><circle cx="864.655" cy="564.272" fill="url(#m)" transform="matrix(-1 0 0 1 1729.31 0)" r="103.805"/><circle cx="685.45" cy="674.55" fill="url(#n)" transform="matrix(-1 0 0 1 1370.9 0)" r="231.502"/><circle cx="1007.059" cy="650.657" fill="url(#m)" transform="matrix(-1 0 0 1 2014.117 0)" r="103.805"/><ellipse cx="193.88" cy="367.591" fill="url(#o)" transform="matrix(-1 0 0 1 387.76 0)" rx="193.451" ry="193.452"/><circle cx="358.027" cy="287.901" fill="url(#p)" transform="matrix(-1 0 0 1 716.055 0)" r="82.47"/><ellipse cx="470.427" cy="235.361" fill="url(#q)" transform="matrix(-1 0 0 1 940.853 0)" rx="29.929" ry="29.93"/></g><g opacity=".6" transform="translate(1590.765 169.98)"><circle cx="576.399" cy="98.117" fill="url(#r)" r="97.339"/><circle cx="212.492" cy="368.079" fill="url(#s)" r="97.339"/><ellipse cx="84.141" cy="381.343" fill="url(#t)" rx="84.073" ry="84.074"/><circle cx="599.442" cy="239.732" fill="url(#u)" r="120.381"/><circle cx="462.451" cy="254.894" fill="url(#v)" r="179.515"/></g><ellipse cx="581.49" cy="564.789" fill="url(#w)" rx="151.416" ry="151.418"/><ellipse cx="1167.004" cy="735.844" fill="url(#x)" rx="151.416" ry="151.418"/><ellipse cx="219.742" cy="398.384" fill="url(#y)" rx="151.416" ry="151.418"/><circle cx="412.779" cy="425.014" fill="url(#z)" r="76.725"/><circle cx="121.797" cy="235.595" fill="url(#A)" r="64.839"/><ellipse cx="808.877" cy="708.97" fill="url(#B)" rx="178.29" ry="178.291"/><path fill="url(#C)" transform="rotate(26.912 409.045 680.337)" d="M49.574 486.392h718.941v387.889H49.574z"/><circle cx="1015.589" cy="619.567" fill="url(#D)" r="81.135"/><circle cx="987.167" cy="735.843" fill="url(#E)" r="81.135"/><ellipse cx="1556.142" cy="707.265" fill="url(#F)" rx="151.416" ry="151.418"/><circle cx="1897.494" cy="442.429" fill="url(#G)" r="76.725"/><circle cx="1993.844" cy="394.902" fill="url(#H)" r="47.527"/><circle cx="1383.021" cy="707.263" fill="url(#I)" r="47.527"/><ellipse cx="1822.802" cy="625.613" fill="url(#J)" rx="151.416" ry="151.418"/><ellipse cx="2079.121" cy="519.155" fill="url(#K)" rx="151.416" ry="151.418"/><ellipse cx="2238.295" cy="431.303" fill="url(#L)" rx="178.29" ry="178.291"/><path fill="url(#M)" transform="rotate(-18.437 2015.813 721.513)" d="M1654.331 576.773h722.965v289.481h-722.965z"/><g transform="translate(108.094 419.949)"><circle cx="113.511" cy="77.437" fill="url(#N)" transform="matrix(-1 0 0 1 227.022 0)" r="76.725"/><circle cx="354.16" cy="279.394" fill="url(#O)" transform="matrix(-1 0 0 1 708.32 0)" r="90.333"/><circle cx="468.936" cy="276.244" fill="url(#P)" transform="matrix(-1 0 0 1 937.873 0)" r="66.269"/><ellipse cx="541.524" cy="478.846" fill="#FFF" transform="matrix(-1 0 0 1 1083.048 0)" rx="204.773" ry="204.774"/><ellipse cx="95.348" cy="189.06" fill="url(#Q)" transform="matrix(-1 0 0 1 190.696 0)" rx="94.888" ry="94.887"/><circle cx="194.37" cy="209.975" fill="url(#R)" transform="matrix(-1 0 0 1 388.74 0)" r="132.538"/></g><ellipse cx="204.774" cy="204.775" fill="#FFF" rx="204.774" ry="204.775" transform="matrix(-1 0 0 1 1485.698 694.026)"/><ellipse cx="132.355" cy="132.354" fill="#FFF" rx="132.355" ry="132.354" transform="matrix(-1 0 0 1 1796.355 614.114)"/><ellipse cx="132.355" cy="132.354" fill="#FFF" rx="132.355" ry="132.354" transform="matrix(-1 0 0 1 563.711 675.046)"/><ellipse cx="158.326" cy="158.325" fill="#FFF" rx="158.326" ry="158.325" transform="matrix(-1 0 0 1 365.93 585.145)"/><circle cx="332.134" cy="332.134" fill="#FFF" transform="matrix(-1 0 0 1 2392.699 566.165)" r="332.134"/><ellipse cx="341.623" cy="341.624" fill="#FFF" rx="341.623" ry="341.624" transform="matrix(-1 0 0 1 1906.234 675.047)"/><ellipse cx="632.761" cy="632.762" fill="#FFF" rx="632.761" ry="632.762" transform="matrix(-1 0 0 1 1594.495 703.901)"/></g></g></svg>