<?xml version="1.0" standalone="no"?>
<!DOCTYPE svg PUBLIC "-//W3C//DTD SVG 20010904//EN"
 "http://www.w3.org/TR/2001/REC-SVG-20010904/DTD/svg10.dtd">
<svg version="1.0" xmlns="http://www.w3.org/2000/svg"
 width="512.000000pt" height="512.000000pt" viewBox="0 0 512.000000 512.000000"
 preserveAspectRatio="xMidYMid meet">
<metadata>
Created by potrace 1.15, written by Peter Selinger 2001-2017
</metadata>
<g transform="translate(0.000000,512.000000) scale(0.100000,-0.100000)"
fill="#000000" stroke="none">
<path d="M1714 4336 c-349 -116 -563 -320 -618 -589 -12 -59 -16 -141 -16
-357 l0 -280 -25 0 c-15 0 -31 -9 -41 -24 -14 -23 -14 -30 1 -88 15 -60 137
-302 178 -354 14 -18 28 -24 57 -24 21 0 41 -4 44 -9 3 -5 13 -57 22 -117 26
-175 49 -251 89 -295 l35 -39 0 -153 0 -154 -103 -100 c-63 -62 -116 -104
-137 -111 -19 -6 -237 -70 -483 -141 -249 -73 -460 -139 -476 -150 -74 -53
-134 -151 -157 -260 -8 -38 -14 -124 -14 -203 l0 -138 1811 0 1812 0 -6 163
c-5 167 -17 228 -56 305 -29 57 -86 119 -130 142 -20 10 -247 79 -505 154
l-469 137 -103 97 -102 97 -1 159 -1 159 35 38 c20 22 41 61 50 91 12 42 54
289 55 321 0 4 16 7 36 7 19 0 44 4 54 10 21 11 161 264 184 333 19 57 21 118
4 135 -7 7 -22 12 -34 12 l-22 0 -4 313 c-4 311 -4 312 -32 392 -51 147 -127
249 -261 348 -147 110 -390 208 -514 207 -36 -1 -92 -13 -157 -34z"/>
<path d="M2835 3986 c-22 -7 -39 -16 -38 -20 1 -3 11 -32 23 -64 39 -102 49
-193 50 -438 l0 -230 29 -22 c38 -28 55 -81 48 -150 -8 -76 -95 -249 -196
-391 l-81 -113 0 -394 c0 -217 1 -394 3 -394 21 0 873 -298 909 -317 27 -15
75 -54 106 -88 97 -104 145 -219 160 -384 l7 -76 314 -3 313 -2 -4 157 c-3
124 -8 168 -23 203 -28 67 -72 128 -113 155 -24 16 -187 68 -444 143 l-407
119 -85 79 -84 79 -1 144 -1 143 29 33 c30 35 50 106 72 263 10 73 14 82 33
82 53 0 65 12 129 129 97 175 121 267 77 291 -11 6 -25 8 -30 5 -6 -4 -10 83
-10 242 0 186 -4 264 -15 312 -53 224 -235 394 -524 491 -97 33 -175 37 -246
16z"/>
<path d="M3801 3439 c-25 -8 -32 -14 -28 -27 42 -128 47 -168 47 -353 l0 -187
30 -30 c68 -69 25 -207 -132 -423 l-48 -67 0 -300 0 -299 337 -114 c285 -96
346 -120 393 -155 93 -68 154 -186 167 -326 l6 -68 240 0 239 0 -4 118 c-3 93
-9 127 -27 167 -22 51 -61 99 -94 117 -10 5 -155 49 -323 98 l-304 88 -70 64
-69 63 -1 106 c0 93 2 108 20 124 10 9 24 31 29 49 9 28 41 196 41 217 0 4 15
9 33 11 30 3 36 11 90 110 46 84 59 118 60 155 2 42 -1 48 -20 51 -21 3 -22 6
-25 220 l-3 217 -32 67 c-67 142 -214 251 -408 304 -57 16 -96 16 -144 3z"/>
</g>
</svg>
