<?xml version="1.0" standalone="no"?>
<!DOCTYPE svg PUBLIC "-//W3C//DTD SVG 20010904//EN"
 "http://www.w3.org/TR/2001/REC-SVG-20010904/DTD/svg10.dtd">
<svg version="1.0" xmlns="http://www.w3.org/2000/svg"
 width="512.000000pt" height="512.000000pt" viewBox="0 0 512.000000 512.000000"
 preserveAspectRatio="xMidYMid meet">
<metadata>
Created by potrace 1.15, written by Peter Selinger 2001-2017
</metadata>
<g transform="translate(0.000000,512.000000) scale(0.100000,-0.100000)"
fill="#000000" stroke="none">
<path d="M2275 5109 c-497 -61 -976 -268 -1350 -583 -280 -236 -499 -513 -657
-832 -145 -292 -224 -559 -258 -872 -16 -145 -8 -512 14 -642 20 -116 73 -334
91 -375 7 -16 20 -52 28 -80 31 -102 177 -399 243 -492 16 -22 37 -54 46 -69
15 -26 35 -53 126 -173 l23 -31 -173 1 c-95 0 -179 0 -185 0 -10 -1 -13 -30
-13 -111 l0 -110 358 0 358 0 27 93 c14 50 36 128 48 172 12 44 28 100 36 124
8 24 17 56 19 70 3 14 21 81 41 149 20 67 33 125 31 128 -11 11 -203 62 -209
56 -3 -4 -15 -41 -27 -82 -38 -132 -94 -334 -99 -357 -5 -20 -6 -20 -23 -3
-27 27 -145 181 -159 208 -7 13 -20 32 -29 43 -50 59 -226 412 -239 482 -3 18
-10 37 -14 43 -8 10 -63 220 -74 284 -44 253 -46 560 -4 800 19 109 39 203 54
250 44 142 90 271 111 310 12 25 36 74 52 110 82 186 232 389 437 595 206 205
409 355 595 437 36 16 85 40 110 52 39 21 168 67 310 111 47 15 141 35 250 54
351 61 756 33 1105 -78 77 -24 233 -88 262 -106 12 -8 29 -15 37 -15 12 0 113
188 104 194 -15 13 -120 61 -193 89 -187 74 -432 133 -647 156 -112 13 -460
12 -563 0z"/>
<path d="M2295 4531 c-131 -20 -346 -73 -410 -101 -22 -10 -76 -34 -120 -53
-142 -63 -243 -120 -347 -198 -320 -238 -533 -500 -679 -834 -21 -49 -44 -98
-49 -108 -40 -70 -119 -475 -120 -613 0 -59 1 -62 26 -67 14 -2 64 -2 110 1
l83 5 5 41 c3 22 8 82 11 131 10 149 64 369 121 492 19 41 34 79 34 85 0 17
75 151 139 248 76 116 345 385 461 461 97 64 231 139 248 139 6 0 44 15 85 34
129 60 348 112 507 121 58 4 110 8 117 10 24 8 304 -15 375 -30 40 -9 84 -18
98 -21 42 -8 213 -66 250 -85 80 -40 83 -39 129 48 63 118 63 115 -11 148
-127 57 -280 102 -458 135 -157 29 -449 35 -605 11z"/>
<path d="M4190 4376 c0 -4 -101 -389 -166 -635 -14 -51 -23 -96 -20 -98 6 -6
178 -53 196 -53 11 0 30 57 74 225 32 124 62 225 66 225 4 0 36 -37 72 -82
193 -244 346 -552 422 -848 49 -194 61 -298 61 -550 0 -265 -13 -376 -69 -595
-81 -315 -196 -553 -400 -825 -128 -171 -275 -318 -446 -446 -272 -204 -510
-319 -825 -400 -185 -47 -313 -65 -525 -71 -370 -11 -671 45 -988 184 -57 25
-104 44 -106 42 -5 -6 -96 -188 -96 -193 0 -7 203 -93 295 -124 124 -43 256
-76 410 -103 115 -21 162 -24 405 -24 221 0 297 4 385 18 384 65 709 190 1015
392 168 111 272 196 416 339 397 398 637 867 731 1431 25 154 26 581 0 740
-65 410 -235 807 -489 1140 l-69 90 186 3 185 2 0 110 0 110 -360 0 c-198 0
-360 -2 -360 -4z"/>
<path d="M1683 3469 c-71 -27 -146 -97 -180 -167 -23 -47 -28 -72 -31 -154
l-4 -98 111 0 111 0 0 90 c0 133 -5 130 218 130 97 0 182 -4 188 -8 31 -20 34
-54 34 -385 0 -333 0 -334 -22 -354 -21 -20 -37 -22 -208 -25 -180 -3 -186 -4
-240 -32 -73 -38 -144 -113 -170 -182 -18 -49 -20 -77 -20 -274 l0 -220 465 0
465 0 0 110 0 110 -355 0 -355 0 0 113 c0 61 4 117 8 123 18 28 56 34 210 34
114 0 173 4 210 15 74 22 148 86 191 165 l36 65 0 360 c0 349 -1 361 -22 407
-28 61 -104 137 -168 168 -47 23 -61 25 -235 27 -166 3 -190 1 -237 -18z"/>
<path d="M2922 3459 c-69 -34 -124 -92 -147 -153 -8 -23 -51 -250 -95 -506
-45 -256 -84 -475 -87 -487 l-5 -23 261 0 261 0 0 -275 0 -275 110 0 110 0 0
275 0 275 105 0 105 0 0 110 0 110 -105 0 -105 0 0 490 0 490 -173 0 -174 0
-61 -31z m188 -569 l0 -380 -131 0 -131 0 6 28 c3 15 26 146 51 292 50 290 75
421 82 433 2 4 31 7 64 7 l59 0 0 -380z"/>
<path d="M4378 2563 c-55 -5 -53 -1 -62 -158 -8 -142 -52 -340 -102 -464 -14
-36 -35 -88 -46 -116 -129 -326 -547 -744 -873 -873 -27 -11 -80 -32 -116 -46
-281 -114 -715 -142 -1024 -66 -96 24 -220 63 -275 88 -107 47 -94 50 -138
-36 -62 -122 -62 -124 6 -154 31 -15 75 -32 97 -38 22 -7 54 -18 70 -25 125
-51 448 -105 634 -105 143 0 309 20 466 57 83 19 155 38 160 43 6 4 28 13 50
20 204 64 463 221 659 399 249 226 463 542 546 806 7 22 16 45 20 50 21 27 80
321 91 457 7 81 11 149 8 152 -7 6 -123 13 -171 9z"/>
</g>
</svg>
