<?xml version="1.0" standalone="no"?>
<!DOCTYPE svg PUBLIC "-//W3C//DTD SVG 20010904//EN"
 "http://www.w3.org/TR/2001/REC-SVG-20010904/DTD/svg10.dtd">
<svg version="1.0" xmlns="http://www.w3.org/2000/svg"
 width="486.000000pt" height="511.000000pt" viewBox="0 0 486.000000 511.000000"
 preserveAspectRatio="xMidYMid meet">
<metadata>
Created by potrace 1.15, written by Peter Selinger 2001-2017
</metadata>
<g transform="translate(0.000000,511.000000) scale(0.100000,-0.100000)"
fill="#000000" stroke="none">
<path d="M2196 5034 c-304 -303 -460 -709 -442 -1144 6 -161 21 -245 67 -399
25 -83 31 -115 26 -161 -13 -146 -116 -261 -260 -290 -97 -19 -195 10 -272 81
-54 50 -72 81 -95 163 l-17 60 -56 -115 c-195 -394 -153 -859 108 -1207 48
-63 58 -109 30 -132 -22 -18 -62 -15 -85 5 -20 18 -20 17 -20 -31 1 -27 7 -67
15 -89 8 -22 15 -41 15 -42 0 -2 -153 -3 -340 -3 l-340 0 0 -260 0 -260 -260
0 -260 0 0 -345 0 -345 260 0 260 0 0 -260 0 -260 2160 0 2160 0 0 345 0 345
-260 0 -260 0 0 175 0 175 260 0 260 0 0 345 0 345 -395 0 c-330 0 -395 2
-395 14 0 7 18 40 39 73 110 163 123 391 34 567 l-25 50 -13 -38 c-25 -71 -75
-106 -152 -106 -57 0 -104 26 -134 72 -24 39 -21 117 6 208 12 38 17 91 17
170 0 139 -22 234 -82 348 -39 75 -142 212 -160 212 -5 0 -3 -17 4 -38 46
-130 20 -285 -72 -432 -32 -50 -167 -200 -181 -200 -3 0 -4 32 -3 71 7 142
-31 331 -97 480 -87 197 -221 356 -436 514 -358 264 -567 593 -604 952 -14
138 9 301 59 418 11 25 18 45 15 45 -2 0 -37 -34 -79 -76z m-64 -782 c116
-267 301 -490 580 -700 153 -116 223 -185 297 -299 107 -162 152 -314 157
-523 3 -178 12 -205 84 -249 53 -32 125 -29 181 9 45 29 160 144 212 210 l27
35 -6 -55 c-4 -30 -15 -82 -25 -115 -73 -236 75 -445 315 -445 l73 0 -8 -54
c-11 -70 -32 -117 -81 -186 -28 -40 -42 -71 -45 -104 l-6 -46 -398 0 c-276 0
-399 3 -399 11 0 6 11 25 24 42 118 158 137 379 49 565 l-26 56 -14 -39 c-24
-70 -73 -105 -145 -105 -80 0 -148 66 -148 143 0 20 9 70 20 110 23 81 29 250
11 327 -18 81 -51 164 -90 230 -41 67 -147 189 -137 156 36 -113 33 -245 -7
-342 -48 -120 -142 -231 -285 -339 -74 -55 -130 -123 -166 -199 -29 -61 -56
-164 -56 -214 l0 -33 -47 33 c-54 38 -126 131 -144 186 -15 44 -17 115 -6 157
l9 30 -30 -28 c-44 -42 -81 -117 -98 -199 -14 -67 -14 -81 2 -165 16 -87 16
-94 0 -118 -36 -55 -104 -54 -142 3 l-21 31 -18 -37 c-24 -51 -30 -155 -12
-214 l15 -48 -84 0 c-56 0 -95 5 -114 15 l-29 15 31 45 c27 38 33 57 36 113 5
82 -7 113 -76 204 -70 93 -138 234 -168 353 -20 79 -26 126 -27 225 -1 125 17
260 35 260 5 0 26 -11 46 -25 97 -66 275 -87 399 -47 214 69 358 282 340 502
-3 36 -19 108 -35 160 -48 156 -57 221 -57 410 0 191 13 276 65 425 54 157 48
153 79 45 15 -52 43 -132 63 -178z m549 -1717 c-41 -149 -18 -259 73 -351 65
-64 139 -94 233 -94 l66 0 -7 -42 c-8 -51 -49 -145 -76 -173 -24 -26 -50 -87
-50 -120 l0 -25 -544 0 -544 0 -16 25 c-21 32 -21 33 18 49 50 21 110 79 131
128 11 24 20 45 21 46 1 2 20 -8 41 -22 44 -30 125 -36 173 -11 56 29 82 77
91 168 14 151 58 227 183 321 75 57 215 198 217 220 1 6 4 -1 6 -16 2 -15 -5
-62 -16 -103z m-1121 -1151 l0 -174 -430 0 -430 0 0 176 0 175 430 -2 430 -1
0 -174z m2080 0 l0 -174 -430 0 -430 0 0 170 0 169 128 3 c70 2 263 4 430 4
l302 1 0 -173z m1040 2 l0 -176 -435 0 -435 0 0 168 c0 93 2 171 5 174 3 3
199 6 435 7 l430 2 0 -175z m-2080 -6 l0 -170 -430 0 -430 0 0 170 0 170 430
0 430 0 0 -170z m-1552 -517 l2 -173 -435 0 -435 0 0 175 0 175 433 -2 432 -3
3 -172z m1032 2 l0 -175 -430 0 -430 0 0 175 0 174 430 0 430 1 0 -175z m1040
0 l0 -175 -430 0 -430 0 0 175 0 174 430 0 430 0 0 -174z m1040 -1 l0 -174
-433 0 -432 0 1 168 c0 92 2 170 2 174 1 4 196 7 432 7 l430 0 0 -175z m-2600
-519 l0 -175 -430 0 -430 0 0 175 0 175 430 0 430 0 0 -175z m1040 0 l0 -175
-430 0 -430 0 0 175 0 175 430 0 430 0 0 -175z m1040 0 l0 -175 -430 0 -430 0
0 175 0 175 430 0 430 0 0 -175z m1040 0 l0 -175 -435 0 -435 0 0 175 0 175
435 0 435 0 0 -175z"/>
</g>
</svg>
