<?xml version="1.0" standalone="no"?>
<!DOCTYPE svg PUBLIC "-//W3C//DTD SVG 20010904//EN"
 "http://www.w3.org/TR/2001/REC-SVG-20010904/DTD/svg10.dtd">
<svg version="1.0" xmlns="http://www.w3.org/2000/svg"
 width="544.000000pt" height="557.000000pt" viewBox="0 0 544.000000 557.000000"
 preserveAspectRatio="xMidYMid meet">
<metadata>
Created by potrace 1.15, written by Peter Selinger 2001-2017
</metadata>
<g transform="translate(0.000000,557.000000) scale(0.100000,-0.100000)"
fill="#000000" stroke="none">
<path d="M2730 5559 c-380 -21 -809 -146 -1155 -336 -253 -139 -454 -303 -631
-516 -287 -342 -469 -802 -491 -1239 -6 -127 3 -194 43 -312 13 -39 24 -82 24
-96 0 -30 -89 -209 -155 -312 -60 -93 -133 -193 -210 -288 -79 -98 -110 -147
-129 -203 -38 -113 -29 -225 27 -330 34 -65 123 -153 194 -191 l48 -26 0 -103
c0 -91 3 -109 29 -167 22 -49 28 -78 27 -118 -4 -113 34 -229 105 -313 28 -34
34 -49 34 -89 0 -27 -7 -75 -15 -107 -37 -142 2 -316 99 -436 67 -85 202 -161
343 -194 120 -28 452 -25 628 6 72 13 149 27 173 31 53 9 109 -1 153 -26 31
-18 54 -47 114 -146 31 -51 59 -56 171 -28 121 29 154 54 154 113 0 28 -11 63
-33 105 -79 150 -169 239 -300 296 -69 29 -77 31 -212 30 -110 0 -162 -5 -240
-23 -74 -16 -145 -24 -272 -28 -191 -6 -266 3 -344 43 -90 45 -112 101 -85
220 37 169 8 330 -78 430 -50 58 -52 77 -21 150 26 60 26 65 11 87 -9 12 -32
44 -51 71 -53 73 -54 91 -11 135 l36 37 0 127 0 126 -52 15 c-29 8 -66 18 -83
22 -81 19 -210 91 -220 124 -9 27 11 68 63 129 166 194 343 475 412 653 24 62
34 105 38 169 4 80 2 93 -32 191 -50 146 -49 247 5 478 108 462 377 852 769
1114 47 32 153 90 235 131 510 251 1079 317 1585 184 350 -92 693 -287 964
-549 490 -473 756 -1180 685 -1818 -53 -480 -251 -895 -678 -1422 -133 -164
-188 -426 -145 -681 31 -179 84 -329 187 -529 56 -107 84 -150 98 -150 23 0
100 63 129 105 40 59 64 152 55 218 -4 29 -22 88 -41 133 -69 167 -87 247 -88
389 -1 150 13 206 72 283 258 335 395 541 500 747 263 520 334 1095 206 1675
-27 122 -99 349 -141 440 -160 350 -321 586 -569 834 -154 154 -302 271 -482
381 -440 267 -921 385 -1452 354z"/>
<path d="M2380 4540 c-41 -11 -113 -39 -160 -62 -68 -33 -102 -59 -175 -132
-132 -131 -195 -257 -214 -423 -16 -148 6 -204 98 -245 102 -46 221 31 221
142 0 154 95 302 238 372 62 31 74 33 167 33 91 0 106 -3 167 -32 166 -78 264
-265 229 -435 -19 -92 -48 -147 -117 -214 -73 -72 -155 -109 -278 -123 -65 -8
-83 -14 -108 -38 -56 -52 -58 -67 -58 -368 0 -255 1 -279 20 -315 31 -60 73
-85 147 -85 66 0 98 16 137 69 19 25 21 45 26 229 l5 201 55 16 c310 93 529
414 506 740 -8 113 -28 187 -78 290 -74 153 -261 311 -432 366 -113 37 -288
43 -396 14z"/>
<path d="M3975 3714 c-168 -43 -319 -163 -396 -316 -58 -114 -77 -274 -40
-334 20 -32 74 -64 111 -64 63 0 130 64 130 125 0 47 26 131 54 179 71 121
225 181 361 141 152 -44 242 -170 233 -328 -9 -169 -128 -286 -309 -306 -66
-7 -75 -11 -105 -44 l-34 -37 0 -249 c0 -237 1 -250 21 -275 43 -55 103 -69
166 -39 64 30 73 58 73 229 0 166 -1 163 65 184 115 36 242 138 309 249 111
183 112 421 4 606 -60 102 -140 174 -256 232 l-97 48 -135 2 c-74 1 -144 -1
-155 -3z"/>
<path d="M1400 2853 c-60 -10 -157 -47 -208 -79 -114 -74 -195 -183 -232 -316
-46 -166 -10 -258 102 -258 38 0 54 6 79 28 25 23 33 40 43 102 18 103 37 143
94 198 142 138 377 97 469 -82 22 -41 27 -65 27 -126 1 -64 -3 -83 -28 -130
-15 -30 -39 -67 -53 -81 -38 -41 -126 -81 -196 -88 -73 -8 -111 -30 -126 -73
-7 -18 -11 -115 -11 -235 0 -225 5 -250 60 -278 57 -29 130 -12 164 39 13 20
16 52 16 164 0 138 6 162 37 162 7 0 43 14 80 32 92 43 208 158 250 248 99
211 59 455 -101 614 -34 34 -87 77 -118 94 -96 55 -243 83 -348 65z"/>
<path d="M2482 2349 c-82 -41 -113 -138 -72 -219 74 -145 292 -104 308 59 12
130 -120 220 -236 160z"/>
<path d="M4020 1922 c-37 -36 -40 -42 -40 -95 0 -51 3 -60 35 -92 33 -32 41
-35 93 -35 81 1 132 49 132 125 0 78 -59 135 -139 135 -33 0 -47 -7 -81 -38z"/>
<path d="M1418 1225 c-52 -29 -74 -110 -44 -163 20 -36 66 -62 113 -62 35 0
48 6 78 35 30 31 35 42 35 83 0 38 -6 55 -28 81 -23 28 -36 34 -77 37 -33 3
-59 -1 -77 -11z"/>
</g>
</svg>
