<?xml version="1.0" standalone="no"?>
<!DOCTYPE svg PUBLIC "-//W3C//DTD SVG 20010904//EN"
 "http://www.w3.org/TR/2001/REC-SVG-20010904/DTD/svg10.dtd">
<svg version="1.0" xmlns="http://www.w3.org/2000/svg"
 width="512.000000pt" height="512.000000pt" viewBox="0 0 512.000000 512.000000"
 preserveAspectRatio="xMidYMid meet">
<metadata>
Created by potrace 1.15, written by Peter Selinger 2001-2017
</metadata>
<g transform="translate(0.000000,512.000000) scale(0.100000,-0.100000)"
fill="#000000" stroke="none">
<path d="M2615 4478 c-120 -13 -255 -63 -352 -129 -23 -16 -45 -29 -50 -29
-11 0 -121 -111 -136 -138 -7 -11 -28 -47 -47 -81 -35 -61 -52 -73 -67 -47 -4
7 -33 26 -63 41 -30 15 -61 32 -68 38 -8 6 -53 24 -100 39 -77 26 -102 29
-217 30 -159 2 -248 -16 -360 -74 -175 -89 -300 -212 -382 -378 -44 -89 -46
-94 -64 -228 -13 -91 1 -256 27 -319 20 -47 19 -50 -33 -57 -86 -11 -107 -16
-178 -43 -234 -86 -400 -252 -479 -479 -40 -116 -49 -182 -44 -336 6 -154 29
-253 86 -363 14 -27 26 -53 27 -56 0 -3 19 -28 43 -56 23 -28 42 -55 42 -61 0
-5 10 -16 22 -24 13 -9 38 -29 56 -46 47 -44 154 -102 245 -133 116 -40 229
-49 586 -49 l320 0 3 308 3 307 27 47 c64 108 160 182 253 193 l54 7 4 277 c2
177 8 289 16 313 30 94 120 182 214 210 32 10 172 13 562 13 l520 0 45 -23
c66 -33 88 -47 113 -70 31 -29 86 -140 91 -182 2 -19 4 -149 5 -287 l1 -253
23 0 c28 0 107 -24 143 -44 52 -28 102 -80 136 -141 l33 -60 3 -308 3 -308
432 1 c238 1 457 6 487 11 68 12 178 47 208 67 12 8 22 11 22 7 0 -23 138 100
179 160 31 47 76 158 92 230 16 75 14 240 -6 320 -9 39 -18 77 -20 85 -8 38
-76 164 -115 212 -38 48 -159 158 -174 158 -3 0 -29 11 -57 24 -27 14 -75 28
-105 32 -62 7 -60 0 -25 95 30 83 37 223 17 331 -15 82 -73 226 -103 256 -7 8
-27 33 -44 58 -16 24 -33 44 -37 44 -4 0 -27 18 -51 40 -38 35 -163 110 -195
117 -6 1 -42 11 -81 21 -142 38 -311 19 -455 -51 -36 -18 -68 -33 -71 -35 -4
-2 -10 32 -13 75 -4 43 -9 90 -12 104 -9 60 -48 168 -80 222 -19 32 -34 61
-34 65 -1 4 -21 27 -45 52 -25 25 -45 48 -45 52 0 4 -19 20 -42 36 -24 17 -54
39 -67 51 -13 12 -28 21 -32 21 -5 0 -30 13 -56 28 -66 39 -200 78 -308 91
-101 12 -117 12 -230 -1z"/>
<path d="M2140 3011 c-83 -26 -150 -82 -191 -161 -24 -44 -24 -51 -27 -357
l-3 -313 -43 0 c-105 0 -196 -53 -236 -137 l-23 -48 0 -585 c1 -503 3 -590 16
-622 20 -47 88 -113 135 -130 29 -10 196 -13 792 -13 721 0 757 1 793 19 52
26 96 72 119 124 18 41 19 74 19 628 l-1 585 -27 51 c-15 28 -42 61 -60 75
-40 30 -112 53 -170 53 l-43 0 0 295 c0 273 -1 298 -21 350 -28 76 -98 146
-172 173 -56 21 -72 22 -445 21 -213 0 -398 -4 -412 -8z m811 -230 l29 -29 0
-286 0 -286 -425 0 -425 0 0 286 0 286 29 29 29 29 367 0 367 0 29 -29z m-298
-1068 c45 -27 77 -87 77 -146 0 -55 -10 -79 -51 -123 l-29 -30 34 -167 33
-167 -162 0 -162 0 23 123 c13 67 28 142 33 167 9 42 8 47 -18 75 -42 44 -51
67 -51 128 0 68 28 113 90 145 53 28 130 25 183 -5z"/>
</g>
</svg>
