<svg version="1.0" xmlns="http://www.w3.org/2000/svg" width="20" height="20"><linearGradient id="a" gradientUnits="userSpaceOnUse" x1="15.001" y1="18.662" x2="4.999" y2="1.338"><stop offset="0" stop-color="#30aaff"/><stop offset="1" stop-color="#7227ff"/></linearGradient><path fill="url(#a)" d="M9.692 12.715c-.375 0-.66.094-.857.281-.196.188-.294.465-.294.831 0 .354.1.627.301.821.201.194.484.291.85.291.358 0 .637-.099.837-.297.2-.199.301-.471.301-.815 0-.357-.099-.632-.298-.825-.197-.191-.477-.287-.84-.287zm.386-7.653c-1.09 0-2.122.272-3.094.818l.713 1.433c.837-.428 1.583-.642 2.237-.642.375 0 .668.074.877.222.21.148.314.364.314.648 0 .253-.073.482-.219.687-.146.204-.447.47-.906.797-.475.349-.803.678-.981.988-.179.309-.268.674-.268 1.092v.484h1.733v-.392c0-.262.056-.474.166-.635.112-.161.376-.397.795-.706.611-.436 1.025-.828 1.243-1.177.218-.349.327-.763.327-1.243.001-.72-.263-1.295-.794-1.727-.53-.431-1.244-.647-2.143-.647zM10-.001C4.477-.001-.001 4.477-.001 10c0 5.524 4.477 10.001 10.001 10.001 5.523 0 10.001-4.477 10.001-10.001C20.001 4.477 15.523-.001 10-.001zm0 18.335a8.334 8.334 0 110-16.667 8.334 8.334 0 010 16.667z"/></svg>