<svg xmlns="http://www.w3.org/2000/svg" width="72" height="60.731" overflow="scroll"><path fill="#D0E8F9" d="M40.537 53.139a4.558 4.558 0 01-4.555 4.555 4.559 4.559 0 01-4.555-4.555 4.569 4.569 0 014.555-4.555 4.569 4.569 0 014.555 4.555z"/><path fill="#4560FF" d="M35.981 45.547c-4.191 0-7.592 3.416-7.592 7.592 0 4.191 3.401 7.592 7.592 7.592s7.592-3.401 7.592-7.592c0-4.175-3.401-7.592-7.592-7.592zm0 12.147a4.559 4.559 0 01-4.555-4.555 4.569 4.569 0 014.555-4.555 4.569 4.569 0 014.555 4.555 4.557 4.557 0 01-4.555 4.555z"/><path fill="#4560FF" d="M46.962 46.144c-2.912-3.491-6.806-5.454-10.963-5.526-4.122-.104-8.042 1.73-11.033 5.074l-2.263-2.024c3.588-4.011 8.291-6.206 13.348-6.086 5.053.087 9.757 2.437 13.244 6.616l-2.333 1.946zm6.074-9.49c-4.511-5.409-10.555-8.45-17.014-8.562-6.369-.079-12.493 2.683-17.129 7.865l-2.263-2.024c5.233-5.85 12.134-8.962 19.445-8.877 7.356.127 14.208 3.555 19.294 9.652l-2.333 1.946z"/><path fill="#4560FF" d="M62.205 27.23c-6.895-7.347-16.154-11.489-26.072-11.661-9.928-.171-19.283 3.631-26.412 10.718L7.58 24.132c7.716-7.667 17.887-11.767 28.606-11.601 10.746.188 20.772 4.669 28.233 12.621l-2.214 2.078z"/><path fill="#4560FF" d="M69.808 17.753C60.924 8.49 48.989 3.266 36.202 3.043c-12.787-.188-24.888 4.578-34.085 13.52L0 14.386C9.782 4.876 22.69-.219 36.254.007 49.856.244 62.551 5.8 72 15.65l-2.192 2.103z"/></svg>