<svg xmlns="http://www.w3.org/2000/svg" width="64" height="63.79" overflow="scroll"><path fill="#D0E8F9" d="M29.704 47.758l6.401 14.82 4.731-.835 5.636-2.783 7.514-5.427 4.175-6.401 1.878-4.87-10.088-3.479-3.549 2.435-2.365 2.783-7.167 2.296z"/><path fill="#4560FF" d="M36.702 63.79a2.526 2.526 0 01-2.311-1.512l-5.838-13.263a2.546 2.546 0 01.247-2.474 2.5 2.5 0 012.247-1.067c.164.01.939.055 2.036.055 2.291 0 6.521-.195 9.12-1.499 3.489-1.747 4.959-5.896 4.973-5.938a2.51 2.51 0 012.055-1.694 2.518 2.518 0 012.388 1.025c.131.142 1.125 1.138 3.748 1.89 1 .285 2.435.421 4.264.407.802-.037 1.623.377 2.113 1.06l.009.013c.476.681.59 1.551.303 2.327C58.075 54.006 48.52 61.914 37.12 63.754a2.381 2.381 0 01-.418.036zm-5.435-15.519l5.593 12.705c10.205-1.715 18.766-8.763 22.455-18.473-1.937-.003-3.523-.176-4.713-.516-2.966-.851-4.405-2.041-4.946-2.593-.523 1.28-2.387 5.21-6.205 7.122-2.954 1.482-7.269 1.794-10.367 1.794-.789 0-1.42-.021-1.817-.039z"/><path fill="#FFF" d="M32 1.392c-16.877 0-30.609 13.769-30.609 30.692 0 13.416 8.934 25.497 21.728 29.379a1.123 1.123 0 001.163-.319c.295-.322.379-.782.218-1.189-12.063-30.5-14.247-37.597-14.592-39.231 1.627-.859 7.074-2.049 8.521-1.811.425.611 1.305 2.767 2.086 4.684 2.965 7.275 7.446 18.27 13.671 18.714 4.418.318 8.394-1.362 10.671-4.484 1.382-1.899 1.852-4.044 1.232-5.598-.945-2.363-5.295-12.318-6.841-15.852l6.818-1.711c1.489 3.549 6.887 16.213 9.436 19.282 1.113 1.335 3.026 2.156 5.685 2.432a1.134 1.134 0 001.243-1.009 29.49 29.49 0 00.18-3.287C62.608 15.161 48.877 1.392 32 1.392z"/><path fill="#4560FF" d="M23.449 62.904c-.254 0-.504-.038-.742-.113C9.337 58.73 0 46.104 0 32.083 0 14.393 14.355 0 32 0s32 14.393 32 32.083c0 1.178-.063 2.337-.189 3.444a2.523 2.523 0 01-2.523 2.249 2.721 2.721 0 01-.247-.012c-3.031-.315-5.255-1.3-6.61-2.925-2.402-2.892-6.924-13.195-9.185-18.533l-4.066 1.02c2.214 5.065 5.396 12.378 6.199 14.386.797 1.997.26 4.653-1.398 6.934-2.362 3.239-6.275 5.096-10.737 5.096-.383 0-.772-.014-1.158-.042-3.228-.231-6.219-2.67-9.144-7.457-2.327-3.809-4.205-8.416-5.714-12.117-.467-1.147-1.178-2.893-1.63-3.839-1.516.093-4.349.702-6.033 1.265.877 2.986 3.917 11.816 14.231 37.892a2.515 2.515 0 01-.487 2.641 2.527 2.527 0 01-1.86.819zM32 2.783c-16.11 0-29.217 13.144-29.217 29.3 0 12.629 8.29 24.018 20.228 27.886C11.364 30.508 8.947 22.912 8.547 21.011a1.39 1.39 0 01.712-1.517c1.666-.88 6.545-2.003 8.701-2.003.266 0 .494.016.695.049.371.061.702.27.916.578.482.693 1.197 2.412 2.232 4.954 2.664 6.535 7.12 17.468 12.481 17.851.321.023.643.035.959.035 3.563 0 6.657-1.44 8.488-3.951 1.084-1.49 1.502-3.164 1.064-4.263-.905-2.262-5.073-11.81-6.824-15.809a1.39 1.39 0 01.937-1.908l6.818-1.711a1.391 1.391 0 011.622.812c3.206 7.643 7.312 16.63 9.223 18.931.84 1.007 2.354 1.65 4.502 1.908.096-.935.144-1.901.144-2.884 0-16.156-13.107-29.3-29.217-29.3z"/></svg>