<svg xmlns="http://www.w3.org/2000/svg" width="150" height="148"><path opacity=".25" fill-rule="evenodd" clip-rule="evenodd" fill="#FFF" d="M141.176 148V88a4.41 4.41 0 00-4.412-4.4H13.235c-2.432 0-4.412 1.974-4.412 4.4v60H0V88c0-7.279 5.937-13.2 13.235-13.2H26.47V48.4C26.471 21.712 48.241 0 75 0s48.529 21.712 48.529 48.4v26.4h13.235C144.063 74.8 150 80.721 150 88v60h-8.824zm-26.47-99.6c0-21.834-17.811-39.6-39.706-39.6-21.895 0-39.706 17.765-39.706 39.6v26.4h79.412V48.4zM66.176 148v-10.623c-2.687-2.415-4.412-5.883-4.412-9.777 0-7.29 5.925-13.2 13.235-13.2s13.235 5.909 13.235 13.2c0 3.894-1.725 7.362-4.412 9.777V148H66.176z"/></svg>