<svg xmlns="http://www.w3.org/2000/svg" width="387" height="235"><path opacity=".5" fill="#173D7A" d="M.513 221.332c0 7.024 86.479 12.718 193.156 12.718s193.156 6.124 193.156-12.718c0-7.024-86.479-12.718-193.156-12.718S.513 214.307.513 221.332z"/><linearGradient id="a" gradientUnits="userSpaceOnUse" x1="-6909.765" y1="-760.902" x2="-6909.765" y2="-646.58" gradientTransform="scale(1 -1) rotate(-40.141 -2592.712 -10197.115)"><stop offset="0" stop-color="#071786"/><stop offset=".151" stop-color="#05136b"/><stop offset=".324" stop-color="#041055"/><stop offset=".511" stop-color="#030e45"/><stop offset=".72" stop-color="#020c3b"/><stop offset="1" stop-color="#020c38"/></linearGradient><path fill="url(#a)" d="M247.004 104.376c-13.841 9.77-25.516 22.557-36.596 35.274-5.504 6.317-22.035 32.471-27.075 39.178-9.541 12.698-5.076 12.498 11.985 21.605a18.796 18.796 0 006.954 2.115c28.645 2.913 41.873-34.626 50.48-54.813 3.738-8.766 7.778-19.598 10.958-28.583-2.479-16.013-16.706-14.776-16.706-14.776z"/><linearGradient id="b" gradientUnits="userSpaceOnUse" x1="-4835.888" y1="-1652.421" x2="-4835.888" y2="-1538.094" gradientTransform="scale(-1 1) rotate(74.841 -3693.892 2334.95)"><stop offset="0" stop-color="#071786"/><stop offset=".151" stop-color="#05136b"/><stop offset=".324" stop-color="#041055"/><stop offset=".511" stop-color="#030e45"/><stop offset=".72" stop-color="#020c3b"/><stop offset="1" stop-color="#020c38"/></linearGradient><path fill="url(#b)" d="M254.912 200.826c-14.701-8.42-31.222-13.603-47.43-18.276-8.05-2.321-38.739-6.261-46.947-7.997-15.54-3.286-13.473.677-14.523 19.988a18.79 18.79 0 001.02 7.197c9.457 27.196 49.07 23.333 71.003 22.61 9.524-.314 21.049-1.226 30.537-2.138 13.47-9.01 6.34-21.384 6.34-21.384z"/><linearGradient id="c" gradientUnits="userSpaceOnUse" x1="-3306.94" y1="75.119" x2="-3306.94" y2="28.536" gradientTransform="scale(-1 1) rotate(7.054 -2951.036 24601.708)"><stop offset="0" stop-color="#ffd1c1"/><stop offset=".386" stop-color="#ffcfbf"/><stop offset=".588" stop-color="#ffc9b7"/><stop offset=".747" stop-color="#ffbda9"/><stop offset=".882" stop-color="#ffae97"/><stop offset="1" stop-color="#ff9a7f"/></linearGradient><path fill="url(#c)" d="M260.614 206.952c-.023-1.415.384-2.888.684-4.305.085-.403.666-4.304.622-4.728-.647-6.173-4.176-22.962-4.176-22.962l16.919-2.665s-.306 15.026 3.322 23.311l-.021.004c8.095 3.081 22.272 6.715 22.272 6.715s15.48.283 16.323.512c.844.23 2.889.483 5.434 2.233 0 0 2.329 3.654-16.137 9.356 0 0-7.91 2.984-21.306 2.814l-8.618.485c-2.949.166-11.74 1.147-13.003.468-.488-.263-.835-.552-1.085-.871-1.919-2.447-1.183-7.424-1.23-10.367z"/><path fill="#FFD9B6" d="M267.194 187.7c-.206.966-.37 1.941-.499 2.924a95.755 95.755 0 01-1.345-2.633l1.844-.291z"/><linearGradient id="d" gradientUnits="userSpaceOnUse" x1="-3337.951" y1="64.677" x2="-3275.929" y2="64.677" gradientTransform="scale(-1 1) rotate(7.054 -2951.036 24601.708)"><stop offset="0" stop-color="#071786"/><stop offset=".151" stop-color="#05136b"/><stop offset=".324" stop-color="#041055"/><stop offset=".511" stop-color="#030e45"/><stop offset=".72" stop-color="#020c3b"/><stop offset="1" stop-color="#020c38"/></linearGradient><path fill="url(#d)" d="M261.297 202.646c.049-.233.265-1.637.429-2.861.698.258 1.387.498 2.056.721 7.749 2.584 15.511 1.086 22.994-1.667.141-.052.272-.111.401-.17 6.656 2.011 13.058 3.652 13.058 3.652s15.479.283 16.323.513c.844.23 2.889.484 5.434 2.233 0 0 2.329 3.654-16.137 9.356 0 0-7.91 2.984-21.306 2.814l-8.618.485c-2.949.166-11.74 1.147-13.003.468-.488-.263-.835-.552-1.085-.871-1.918-2.447-1.182-7.424-1.229-10.367-.023-1.415.384-2.888.683-4.306z"/><linearGradient id="e" gradientUnits="userSpaceOnUse" x1="-3285.21" y1="37.359" x2="-3285.21" y2="-58.055" gradientTransform="scale(-1 1) rotate(7.054 -2951.036 24601.708)"><stop offset="0" stop-color="#071786"/><stop offset=".151" stop-color="#05136b"/><stop offset=".324" stop-color="#041055"/><stop offset=".511" stop-color="#030e45"/><stop offset=".72" stop-color="#020c3b"/><stop offset="1" stop-color="#020c38"/></linearGradient><path fill="url(#e)" d="M255.775 104.254l.138-.004c7.688-.233 14.223 5.569 14.957 13.225 1.797 18.737 4.335 46.487 5.775 62.314l-17.431 3.305c-4.996-15.627-9.048-31.688-11.669-47.907-1.139-7.046-2.317-18.653-2.586-25.785-.05-1.316 2.114-3.582 2.046-5.025 3.551-.507 4.928-.006 8.77-.123z"/><linearGradient id="f" gradientUnits="userSpaceOnUse" x1="-3132.495" y1="272.707" x2="-3138.679" y2="269.137" gradientTransform="scale(-1 1) rotate(-4.324 -4354.821 -38531.255)"><stop offset="0" stop-color="#e2b691"/><stop offset="1" stop-color="#ef9367"/></linearGradient><path fill="url(#f)" d="M214.242 61.816l-3.228 9.767 5.63 1.86z"/><linearGradient id="g" gradientUnits="userSpaceOnUse" x1="-3099.001" y1="287.567" x2="-3119.912" y2="275.495" gradientTransform="scale(-1 1) rotate(-4.324 -4354.821 -38531.255)"><stop offset="0" stop-color="#ffd1c1"/><stop offset=".386" stop-color="#ffcfbf"/><stop offset=".588" stop-color="#ffc9b7"/><stop offset=".747" stop-color="#ffbda9"/><stop offset=".882" stop-color="#ffae97"/><stop offset="1" stop-color="#ff9a7f"/></linearGradient><path fill="url(#g)" d="M197.179 71.174c-.179 3.187-.964 21.944-.964 21.944-2.085 2.031-11.462 2.116-15.144-1.507-2.929-2.882-3.078-5.284-3.078-5.284l3.213-27.238 15.973 12.085z"/><linearGradient id="h" gradientUnits="userSpaceOnUse" x1="-3101.7" y1="273.224" x2="-3140.278" y2="250.952" gradientTransform="scale(-1 1) rotate(-4.324 -4354.821 -38531.255)"><stop offset="0" stop-color="#ffd1c1"/><stop offset=".386" stop-color="#ffcfbf"/><stop offset=".588" stop-color="#ffc9b7"/><stop offset=".747" stop-color="#ffbda9"/><stop offset=".882" stop-color="#ffae97"/><stop offset="1" stop-color="#ff9a7f"/></linearGradient><path fill="url(#h)" d="M184.149 38.488l-1.76 9.663-2.684 14.741-.755 4.146c8.256 16.831 23.817 19.72 29.311 14.724 5.493-4.995 10.105-35.55 10.105-35.55l-34.217-7.724z"/><path fill="#173D7A" d="M185.196 81.485s13.864-24.331 17.739-26.151c3.875-1.82 16.092 2.08 23.466-7.326 7.278-9.283 3.709-14.669 1.16-15.35-2.549-.68-8.11 8.548-16.252 2.184-8.285-6.476-26.083-7.822-29.342-1.081 0 0-11.221.289-9.946 15.66 1.275 15.371 4.511 28.453 8.142 29.864l5.033 2.2z"/><linearGradient id="i" gradientUnits="userSpaceOnUse" x1="-3113.852" y1="268.952" x2="-3123.961" y2="263.116" gradientTransform="scale(-1 1) rotate(-4.324 -4354.821 -38531.255)"><stop offset="0" stop-color="#ffd1c1"/><stop offset=".386" stop-color="#ffcfbf"/><stop offset=".588" stop-color="#ffc9b7"/><stop offset=".747" stop-color="#ffbda9"/><stop offset=".882" stop-color="#ffae97"/><stop offset="1" stop-color="#ff9a7f"/></linearGradient><path fill="url(#i)" d="M194.53 54.577c-4.069 2.791-4.575 11.707 2.462 17.176l4.139-14.382c-.226-2.284-3.923-4.631-6.601-2.794z"/><path fill="#5793CE" d="M179.181 86.975c10.581 1.242 27.22 4.348 30.287 16.549 1.634 6.502 1.406 13.455.237 20.017-.917 5.147-1.757 10.306-2.366 15.507-1.028 8.781-2.258 18.67.149 27.337l9.918 18.171s-48.156 21.248-72.036-6.893c0 0 1.516-70.079 12.707-86.494 1.361-1.996 4.777-2.886 6.916-3.416 4.728-1.17 9.485-1.33 14.188-.778z"/><path fill="#396CAA" d="M158.078 91.169c1.361-1.996 4.777-2.886 6.916-3.416 3.579-.886 7.174-1.189 10.751-1.046v105.344c-10.622-.857-21.713-4.181-30.374-14.388 0 0 1.515-70.079 12.707-86.494z"/><linearGradient id="j" gradientUnits="userSpaceOnUse" x1="-146.673" y1="438.301" x2="-163.942" y2="502.594" gradientTransform="scale(-1 1) rotate(-19.359 -1149.268 529.556)"><stop offset="0" stop-color="#ffd1c1"/><stop offset=".386" stop-color="#ffcfbf"/><stop offset=".588" stop-color="#ffc9b7"/><stop offset=".747" stop-color="#ffbda9"/><stop offset=".882" stop-color="#ffae97"/><stop offset="1" stop-color="#ff9a7f"/></linearGradient><path fill="url(#j)" d="M266.172 113.58s-1.142 9.062-6.453 15.137c-5.311 6.076-11.376 8.483-16.355 14.903-3.912 5.045-42.846 42.392-46.809 28.777-.519-1.784.123-3.683.828-5.402 6.607-16.097 22.702-22.909 36.766-31.378l5.338-3.57s2.314-9.171 7.948-14.226l18.737-4.241z"/><linearGradient id="k" gradientUnits="userSpaceOnUse" x1="98.379" y1="308.677" x2="137.365" y2="308.677" gradientTransform="scale(-1 1) rotate(-4.324 -2703.833 5218.34)"><stop offset="0" stop-color="#18154b"/><stop offset=".128" stop-color="#191650"/><stop offset=".284" stop-color="#1c1a5f"/><stop offset=".454" stop-color="#212078"/><stop offset=".634" stop-color="#27299a"/><stop offset=".819" stop-color="#2f34c5"/><stop offset="1" stop-color="#3941f7"/></linearGradient><path fill="url(#k)" d="M267.933 91.025l11.702 13.241a2.253 2.253 0 01-.176 3.162l-23.772 21.524a2.252 2.252 0 01-3.18-.156l-11.48-12.647a2.253 2.253 0 01.126-3.156l23.55-22.118a2.253 2.253 0 013.23.15z"/><linearGradient id="l" gradientUnits="userSpaceOnUse" x1="101.279" y1="307.334" x2="131.843" y2="307.334" gradientTransform="scale(-1 1) rotate(-4.324 -2703.833 5218.34)"><stop offset=".046" stop-color="#f8f2fa"/><stop offset=".22" stop-color="#f4f1fa"/><stop offset=".389" stop-color="#e9ecfa"/><stop offset=".554" stop-color="#d5e5fb"/><stop offset=".718" stop-color="#badafc"/><stop offset=".879" stop-color="#97cdfd"/><stop offset="1" stop-color="#78c1fe"/></linearGradient><path fill="url(#l)" d="M266.214 93.178l-20.053 18.993 10.867 11.97 20.273-18.419-11.087-12.544z"/><linearGradient id="m" gradientUnits="userSpaceOnUse" x1="-164.36" y1="455.586" x2="-170.618" y2="432.172" gradientTransform="scale(-1 1) rotate(-19.359 -1149.268 529.556)"><stop offset="0" stop-color="#ffd1c1"/><stop offset=".386" stop-color="#ffcfbf"/><stop offset=".588" stop-color="#ffc9b7"/><stop offset=".747" stop-color="#ffbda9"/><stop offset=".882" stop-color="#ffae97"/><stop offset="1" stop-color="#ff9a7f"/></linearGradient><path fill="url(#m)" d="M254.097 128.898s-1.777-1.078-1.045-4.452c.731-3.374 2.281-11.338 2.281-11.338s-.022-2.844-1.149-2.219-3.561 2.385-4.503 7.327c0 0-.977 4.249-2.072 5.34-1.095 1.09-3.952 4.057-4.468 8.754 0 0 8.013 2.702 10.956-3.412z"/><linearGradient id="n" gradientUnits="userSpaceOnUse" x1="-4181.473" y1="-1948.895" x2="-4188.656" y2="-1883.824" gradientTransform="scale(-1 1) rotate(-10.621 8881.09 -22319.965)"><stop offset="0" stop-color="#ffd1c1"/><stop offset=".386" stop-color="#ffcfbf"/><stop offset=".588" stop-color="#ffc9b7"/><stop offset=".747" stop-color="#ffbda9"/><stop offset=".882" stop-color="#ffae97"/><stop offset="1" stop-color="#ff9a7f"/></linearGradient><path fill="url(#n)" d="M194.886 172.2c-1.636-2.187-1.877-5.283-1.986-8.552-.267-7.954-.658-15.894-1.01-23.839a987.57 987.57 0 01-.431-10.62c-.242-7.232-.733-17.855 8.734-19.587 2.155-.394 4.949 1.197 6.291 2.67 1.008 1.107 1.627 2.644 2.012 4.377.816 3.678.575 8.236.752 11.429.365 6.558.612 13.133.656 19.723.028 4.234.004 8.476-.223 12.722-.187 3.498-.069 7.912-1.675 11.182-1.713 3.489-5.938 4.013-9.076 3.119-1.882-.535-3.165-1.448-4.044-2.624z"/><path fill="#396CAA" d="M187.377 143.456c1.304-9.815-.071-45.078 13.984-46.517 15.551-1.592 12.538 46.94 12.538 46.94l-26.522-.423z"/><linearGradient id="o" gradientUnits="userSpaceOnUse" x1="-5732.294" y1="-925.813" x2="-5737.407" y2="-974.149" gradientTransform="scale(1 -1) rotate(-80.404 -2250.063 -4172.65)"><stop offset="0" stop-color="#ffd1c1"/><stop offset=".386" stop-color="#ffcfbf"/><stop offset=".588" stop-color="#ffc9b7"/><stop offset=".747" stop-color="#ffbda9"/><stop offset=".882" stop-color="#ffae97"/><stop offset="1" stop-color="#ff9a7f"/></linearGradient><path fill="url(#o)" d="M355.657 224.683c-1.398-.218-2.781-.87-4.127-1.406-.383-.152-4.128-1.389-4.553-1.417-6.193-.412-23.338.21-23.338.21l.251-17.125s14.755 2.857 23.536.691l.001.021c4.413-7.452 13.996-17.612 13.996-17.612s3.25-8.29 3.62-9.083c.37-.792-2.288-2.725-.132-4.936 0 0 .419-11.466 2.896 7.7 0 0 4.5 7.948 2.055 21.12l-.988 8.575c-.338 2.934-.867 11.764-1.75 12.893-.342.437-.686.729-1.043.922-2.737 1.473-7.517-.099-10.424-.553z"/><linearGradient id="p" gradientUnits="userSpaceOnUse" x1="-5763.262" y1="-936.058" x2="-5705.835" y2="-936.058" gradientTransform="scale(1 -1) rotate(-80.404 -2250.063 -4172.65)"><stop offset="0" stop-color="#071786"/><stop offset=".151" stop-color="#05136b"/><stop offset=".324" stop-color="#041055"/><stop offset=".511" stop-color="#030e45"/><stop offset=".72" stop-color="#020c3b"/><stop offset="1" stop-color="#020c38"/></linearGradient><path fill="url(#p)" d="M351.611 223.31c.802-4.319.664-9.011.283-12.889-.272-2.773-.999-5.891-2.31-8.619 3.984-7.447 8.249-16.95 8.249-16.95s3.023-10.889 3.393-11.681c.37-.792.968-2.765 3.125-4.975 0 0 3.884-5.99 6.362 13.177 0 0 1.596 8.302-.85 21.474l-.988 8.575c-.338 2.934-.867 11.764-1.75 12.893-.342.437-.686.729-1.043.921-2.738 1.474-7.517-.098-10.425-.552-1.37-.215-2.725-.844-4.046-1.374z"/><linearGradient id="q" gradientUnits="userSpaceOnUse" x1="-5728.828" y1="-965.94" x2="-5739.142" y2="-1063.442" gradientTransform="scale(1 -1) rotate(-80.404 -2250.063 -4172.65)"><stop offset="0" stop-color="#071786"/><stop offset=".151" stop-color="#05136b"/><stop offset=".324" stop-color="#041055"/><stop offset=".511" stop-color="#030e45"/><stop offset=".72" stop-color="#020c3b"/><stop offset="1" stop-color="#020c38"/></linearGradient><path fill="url(#q)" d="M331.908 222.005c-20.185 2.813-64.503 6.666-89.538-1.888-3.936-1.345-8.157-5.344-8.597-9.673-.34-3.344 1.049-8.251 3.928-10.274 2.379-1.671 10.269-2.23 13.015-2.105 7.779.353 57.436 4.313 80.9 6.2l.292 17.74z"/><path fill="#C6E0F5" d="M91.073 0c35.117 0 63.586 28.469 63.586 63.586 0 14.778-5.248 28.202-13.704 38.999h-21.183c11.993-8.843 19.87-22.954 19.87-38.999 0-26.823-21.745-48.569-48.569-48.569S42.504 36.762 42.504 63.586c0 16.045 7.877 30.155 19.87 38.999H41.191c-8.457-10.797-13.704-24.221-13.704-38.999C27.486 28.469 55.955 0 91.073 0"/><linearGradient id="r" gradientUnits="userSpaceOnUse" x1="211.322" y1="151.075" x2="363.224" y2="151.075" gradientTransform="matrix(-1 0 0 1 379.338 0)"><stop offset="0" stop-color="#f9fbfc"/><stop offset=".166" stop-color="#e6f3fe"/><stop offset=".347" stop-color="#d9eeff"/><stop offset=".509" stop-color="#d4ecff"/></linearGradient><path fill="url(#r)" d="M16.114 88.202v125.74c0 5.307 4.299 9.605 9.601 9.605h132.699c5.304 0 9.601-4.299 9.601-9.605V88.202c0-5.3-4.297-9.599-9.601-9.599H25.715c-5.302 0-9.601 4.299-9.601 9.599zm55.468 40.218c0-10.966 9.043-19.81 20.079-19.485 10.329.304 18.84 9.039 18.901 19.373.043 7.362-4.167 13.543-10.159 16.891v36.257a4.877 4.877 0 01-4.877 4.877h-8.912a4.876 4.876 0 01-4.876-4.877V145.2c-5.958-3.331-10.156-9.467-10.156-16.78z"/></svg>