<svg xmlns="http://www.w3.org/2000/svg" width="181" height="38"><path fill="#FFF" d="M32.637 15.445L19.252 7.954c-.159.159-.31.316-.479.477-4.312 4.106-6.889 5.759-5.447 8.463 1.442 2.704 9.183 1.527 11.047 4.113a9.521 9.521 0 011.78 4.807l6.484-3.629a3.834 3.834 0 000-6.74zM4.479 21.056c-1.431-2.683.443-4.813 8.522-16.601L6.115.601C3.44-.897.095.975.095 3.97v29.689c0 2.995 3.344 4.867 6.02 3.369l1.444-.808-.201.059c7.987-4.21 11.574-7.239 8.168-11.11-2.105-2.393-9.605-1.408-11.047-4.113zm50.132-2.908l-2.353-.428c-1.391-.257-1.819-.642-1.819-1.391 0-.856.727-1.605 2.246-1.605 1.69 0 2.674.963 2.674 2.139h3.423c0-2.995-2.139-5.135-6.097-5.135-3.658 0-5.669 2.033-5.669 4.6 0 2.375 1.284 3.68 3.958 4.172l2.353.428c1.626.321 2.139.856 2.139 1.605 0 .856-.749 1.605-2.567 1.605s-2.781-.941-2.781-2.139h-3.423c0 2.888 2.268 5.135 6.204 5.135 3.958 0 5.99-2.033 5.99-4.6.001-2.567-1.283-3.851-4.278-4.386zm15.725 2.568c0 1.818-1.284 3.102-2.888 3.102-1.604 0-2.888-1.284-2.888-3.102v-8.772h-3.423v8.772c0 3.936 2.46 6.418 6.311 6.418s6.311-2.482 6.311-6.418v-8.772h-3.423v8.772zm13.263-8.772h-6.953V26.92h3.423v-4.493h3.53c2.888 0 4.921-2.032 4.921-5.242 0-3.209-2.032-5.241-4.921-5.241zm-.214 7.167h-3.316V15.26h3.316c.963 0 1.712.727 1.712 1.925s-.749 1.926-1.712 1.926zm7.381 7.809h10.269v-3.102h-6.846V20.93h6.418v-2.995h-6.418v-2.888h6.846v-3.102H90.766V26.92zm22.72-5.712c1.048-.642 2.097-1.797 2.097-4.129 0-3.102-2.032-5.135-4.921-5.135h-7.06V26.92h3.423v-4.814h.428l4.279 4.814h4.279l-4.6-5.028a5.173 5.173 0 002.075-.684zm-6.461-2.204v-3.851h3.423c.963 0 1.712.727 1.712 1.925s-.749 1.925-1.712 1.925h-3.423zm16.794 3.637h-.428l-3.423-10.697h-3.744l4.921 14.976h4.921l4.921-14.976h-3.744l-3.424 10.697zm8.664 4.279h3.423V11.944h-3.423V26.92zm11.981-14.976h-5.563V26.92h5.563c4.044 0 7.274-3.209 7.274-7.488s-3.231-7.488-7.274-7.488zm0 11.66h-2.139V15.26h2.139c2.139 0 3.851 1.711 3.851 4.172 0 2.46-1.712 4.172-3.851 4.172zm9.627 3.316h10.269v-3.102h-6.846V20.93h6.418v-2.995h-6.418v-2.888h6.846v-3.102h-10.269V26.92zm19.468-15.19c-4.044 0-7.274 3.188-7.274 7.702 0 4.514 3.23 7.702 7.274 7.702 4.043 0 7.274-3.188 7.274-7.702 0-4.514-3.231-7.702-7.274-7.702zm0 12.088c-2.14 0-3.851-1.712-3.851-4.386 0-2.674 1.711-4.386 3.851-4.386 2.139 0 3.851 1.712 3.851 4.386 0 2.674-1.712 4.386-3.851 4.386z"/></svg>