<svg xmlns="http://www.w3.org/2000/svg" width="662" height="442"><path opacity=".5" fill="#173D7A" d="M453.036 439.95L267.14 332.624c-5.259-3.036-4.599-8.339 1.473-11.845l126.581-73.057c6.072-3.506 15.258-3.887 20.517-.85l185.895 107.327c5.259 3.036 4.599 8.34-1.473 11.845L473.552 439.1c-6.072 3.506-15.258 3.886-20.516.85z"/><path fill="#173D7A" d="M654.513 148.267L460.356 36.17c-2.255-1.302-4.547-1.503-6.579-.807l.012-.02-.353.133-.086.032-7.017 2.685 6.298 3.083c-.028.116-.065.224-.09.343l-31.625 143.956c-1.583 7.204 1.587 15.615 7.079 18.786l189.488 109.401-.676 8.03 7.669-2.972c2.576-1.205 4.639-3.93 5.492-7.811l31.625-143.956c1.582-7.204-1.587-15.615-7.08-18.786z"/><path fill="#396CAA" d="M654.513 148.267L460.356 36.17c-2.255-1.302-4.547-1.503-6.579-.807l.012-.02-.353.133-.086.032-7.017 2.685 6.298 3.083c-.028.116-.065.224-.09.343l-20.843 94.876 94.998 74.013 133.95-54.505c-1.287-3.335-3.426-6.173-6.133-7.736z"/><path fill="#274F89" d="M647.192 170.396l14.78-6.293c.271-5.724-2.099-11.637-5.988-14.8l-23.395 9.841 14.603 11.252z"/><path fill="#D4ECFF" d="M610.062 321.029L415.905 208.933c-5.492-3.171-8.662-11.582-7.079-18.786L440.45 46.191c1.583-7.204 7.318-10.474 12.811-7.303l194.157 112.097c5.492 3.171 8.662 11.582 7.079 18.786l-31.625 143.956c-1.582 7.204-7.318 10.473-12.81 7.302z"/><path fill="#FFF" d="M649.282 150.302L455.125 38.207c-2.661-1.536-5.369-1.535-7.645-.332 1.826-.399 3.815-.121 5.781 1.014l194.157 112.096c5.493 3.171 8.662 11.583 7.079 18.787l-31.625 143.955c-.816 3.714-2.745 6.356-5.166 7.635 3.278-.716 6.014-3.689 7.03-8.317l31.625-143.955c1.583-7.205-1.586-15.616-7.079-18.788z"/><path fill="#FFF" d="M605.853 310.321L423.252 204.948c-5.026-2.902-7.926-10.598-6.478-17.191l28.939-131.731c1.448-6.592 6.697-9.584 11.723-6.683l182.601 105.373c5.026 2.902 7.926 10.598 6.478 17.191l-28.939 131.731c-1.448 6.593-6.697 9.585-11.723 6.683z"/><path fill="#173D7A" d="M605.853 310.321L423.252 204.948c-5.026-2.902-7.926-10.598-6.478-17.191l28.939-131.731c1.448-6.592 6.697-9.584 11.723-6.683l182.601 105.373c5.026 2.902 7.926 10.598 6.478 17.191l-28.939 131.731c-1.448 6.593-6.697 9.585-11.723 6.683z"/><path fill="#5793CE" d="M607.445 309.674L424.843 204.3c-5.026-2.901-7.926-10.598-6.478-17.19l28.939-131.732c.733-3.336 2.443-5.739 4.601-6.934-2.895.745-5.287 3.458-6.192 7.582l-28.94 131.731c-1.448 6.593 1.452 14.29 6.478 17.191l182.601 105.373c2.482 1.434 5.015 1.418 7.121.252-1.732.448-3.646.188-5.528-.899z"/><path fill="#173D7A" d="M612.742 325.911l-26.54-3.504-171.321-98.912c-5.492-3.171-15.086-2.773-21.428.888l-121.397 70.063-16.048-2.119v9.106l.016.002c-.105 2.104 1.093 4.129 3.684 5.625l194.157 112.097c5.493 3.171 15.086 2.773 21.428-.888L607.5 341.964c3.568-2.06 5.346-4.714 5.242-7.206v-8.847z"/><path fill="#396CAA" d="M484.018 263.41l-12.172-7.027H338.027l-65.971 38.063-16.048-2.119v9.106l.016.002c-.105 2.104 1.093 4.129 3.684 5.625l194.157 112.097c2.903 1.676 6.951 2.345 11.059 2.073l19.094-157.82z"/><path fill="#5793CE" d="M263.13 293.267l-7.122-.94v9.106l.016.002c-.105 2.104 1.093 4.129 3.684 5.625l3.422 1.975v-15.768z"/><path fill="#274F89" d="M455.821 420.064c5.206 1.974 12.649 1.545 18.207-1.13v-20.31h-18.207v21.44z"/><path fill="#D4ECFF" d="M453.865 410.061L259.708 297.964c-5.492-3.171-4.804-8.71 1.539-12.372l132.207-76.304c6.342-3.662 15.936-4.059 21.429-.888L609.04 320.497c5.493 3.171 4.804 8.71-1.538 12.372l-132.207 76.304c-6.343 3.661-15.937 4.059-21.43.888z"/><path fill="#FFF" d="M607.5 329.543l-132.207 76.304c-6.342 3.662-15.936 4.059-21.428.889L259.708 294.639c-1.801-1.039-2.924-2.336-3.415-3.735-.859 2.598.236 5.225 3.415 7.061l194.157 112.096c5.493 3.171 15.086 2.773 21.428-.888L607.5 332.869c4.263-2.461 5.959-5.769 4.953-8.637-.625 1.892-2.28 3.768-4.953 5.311z"/><g fill="#5793CE"><path d="M342.286 260.854l-8.785-5.072c-.705-.407-.617-1.119.198-1.589l10.369-5.987c.814-.47 2.046-.521 2.752-.114l8.785 5.072c.705.407.617 1.119-.198 1.589l-10.369 5.987c-.815.47-2.047.521-2.752.114zm13.566 7.832l-8.785-5.072c-.705-.407-.617-1.119.198-1.589l10.369-5.987c.814-.47 2.047-.521 2.752-.114l8.785 5.072c.705.407.617 1.119-.198 1.589l-10.369 5.987c-.814.47-2.046.522-2.752.114zm13.567 7.833l-8.785-5.072c-.705-.407-.617-1.119.198-1.589l10.369-5.987c.814-.47 2.047-.521 2.752-.114l8.785 5.072c.705.407.617 1.119-.198 1.589l-10.369 5.987c-.815.47-2.047.521-2.752.114zm18.763-6.468l-8.785-5.072c-.705-.407-.617-1.119.198-1.589l8.704-5.025c.814-.47 2.047-.521 2.752-.114l8.785 5.072c.705.407.617 1.119-.198 1.589l-8.704 5.025c-.815.47-2.047.521-2.752.114zm13.566 7.832l-8.785-5.072c-.705-.407-.617-1.119.198-1.589l8.704-5.025c.814-.47 2.047-.521 2.752-.114l8.785 5.072c.705.407.617 1.119-.198 1.589l-8.704 5.025c-.815.47-2.046.521-2.752.114zm13.567 7.833l-8.785-5.072c-.705-.407-.617-1.119.198-1.589l8.704-5.025c.814-.47 2.047-.521 2.752-.114l8.785 5.072c.705.407.617 1.119-.198 1.589l-8.704 5.025c-.815.47-2.047.521-2.752.114zm13.566 7.832l-8.785-5.072c-.705-.407-.617-1.119.198-1.589l8.704-5.025c.814-.47 2.047-.521 2.752-.114l8.785 5.072c.705.407.617 1.119-.198 1.589l-8.704 5.025c-.815.47-2.047.521-2.752.114zm13.566 7.833l-8.785-5.072c-.705-.407-.617-1.119.198-1.589l8.704-5.025c.814-.47 2.047-.521 2.752-.114l8.785 5.072c.705.407.617 1.119-.198 1.589l-8.704 5.025c-.814.47-2.046.521-2.752.114zm13.567 7.832l-8.785-5.072c-.705-.407-.617-1.119.198-1.589l8.704-5.025c.814-.47 2.047-.521 2.752-.114l8.785 5.072c.705.407.617 1.119-.198 1.589l-8.704 5.025c-.815.471-2.047.522-2.752.114zm13.566 7.833l-8.785-5.072c-.705-.407-.617-1.119.198-1.589l8.704-5.025c.814-.47 2.046-.521 2.752-.114l8.785 5.072c.705.407.617 1.119-.198 1.589l-8.704 5.025c-.814.47-2.046.521-2.752.114zm13.567 7.833l-8.785-5.072c-.705-.407-.617-1.119.198-1.589l8.704-5.025c.814-.47 2.046-.521 2.752-.114l8.785 5.072c.705.407.617 1.119-.198 1.589l-8.704 5.025c-.815.47-2.047.521-2.752.114zm13.566 7.832l-8.785-5.072c-.705-.407-.617-1.119.198-1.589l8.704-5.025c.814-.47 2.046-.521 2.752-.114l8.785 5.072c.705.407.617 1.119-.198 1.589l-8.704 5.025c-.814.47-2.046.521-2.752.114zm13.567 7.833l-8.785-5.072c-.705-.407-.617-1.119.198-1.589l8.704-5.025c.814-.47 2.047-.521 2.752-.114l8.785 5.072c.705.407.617 1.119-.198 1.589l-8.704 5.025c-.815.47-2.047.521-2.752.114zm-102.109-74.202l-8.785-5.072c-.705-.407-.617-1.119.198-1.589l8.704-5.025c.814-.47 2.047-.521 2.752-.114l8.785 5.072c.705.407.617 1.119-.198 1.589l-8.704 5.025c-.815.47-2.047.521-2.752.114zm-13.769-7.949l-8.785-5.072c-.705-.407-.617-1.119.198-1.589l8.704-5.025c.814-.47 2.047-.521 2.752-.114l8.785 5.072c.705.407.617 1.119-.198 1.589l-8.704 5.025c-.815.47-2.047.521-2.752.114zm-13.791-7.963l-18.92-10.924c-.705-.407-.617-1.119.198-1.589l8.704-5.025c.814-.47 2.047-.521 2.752-.114l18.92 10.924c.705.407.617 1.119-.198 1.589l-8.704 5.025c-.815.47-2.047.522-2.752.114zm9.64-9.683l-15.354-8.865c-.705-.407-.617-1.119.198-1.589l8.704-5.025c.814-.47 2.047-.521 2.752-.114l15.354 8.865c.705.407.617 1.119-.198 1.589l-8.704 5.025c-.815.47-2.047.521-2.752.114zm31.486 33.428l-8.785-5.072c-.705-.407-.617-1.119.198-1.589l8.704-5.025c.814-.47 2.047-.521 2.752-.114l8.785 5.072c.706.407.617 1.119-.198 1.589l-8.704 5.025c-.814.47-2.046.521-2.752.114zm13.567 7.832l-8.785-5.072c-.706-.407-.617-1.119.198-1.589l8.704-5.025c.814-.47 2.047-.521 2.752-.114l8.785 5.072c.705.407.617 1.119-.198 1.589l-8.704 5.025c-.815.471-2.047.522-2.752.114zm13.566 7.833l-8.785-5.072c-.705-.407-.617-1.119.198-1.589l8.704-5.025c.814-.47 2.047-.521 2.752-.114l8.785 5.072c.705.407.617 1.119-.198 1.589l-8.704 5.025c-.814.47-2.046.521-2.752.114zm13.567 7.833l-8.785-5.072c-.705-.407-.617-1.119.198-1.589l8.704-5.025c.814-.47 2.047-.521 2.752-.114l8.785 5.072c.705.407.617 1.119-.198 1.589l-8.704 5.025c-.815.47-2.047.521-2.752.114zm13.566 7.832l-8.785-5.072c-.705-.407-.617-1.119.198-1.589l8.704-5.025c.814-.47 2.047-.521 2.752-.114l8.785 5.072c.705.407.617 1.119-.198 1.589l-8.704 5.025c-.815.47-2.047.521-2.752.114zm13.567 7.833l-8.785-5.072c-.705-.407-.617-1.119.198-1.589l8.704-5.025c.814-.47 2.047-.521 2.752-.114l8.785 5.072c.705.407.617 1.119-.198 1.589l-8.704 5.025c-.815.47-2.047.521-2.752.114zm13.566 7.832l-8.785-5.072c-.705-.407-.617-1.119.198-1.589l8.704-5.025c.814-.47 2.047-.521 2.752-.114l8.785 5.072c.705.407.617 1.119-.198 1.589l-8.704 5.025c-.815.47-2.047.522-2.752.114zm13.566 7.833l-8.785-5.072c-.705-.407-.617-1.119.198-1.589l8.704-5.025c.814-.47 2.047-.521 2.752-.114l8.785 5.072c.705.407.617 1.119-.198 1.589l-8.704 5.025c-.814.47-2.046.521-2.752.114zm13.567 7.833l-8.785-5.072c-.705-.407-.617-1.119.198-1.589l8.704-5.025c.814-.47 2.047-.521 2.752-.114l8.785 5.072c.705.407.617 1.119-.198 1.589l-8.704 5.025c-.815.47-2.047.521-2.752.114zm24.118 13.924l-19.168-11.067c-.705-.407-.617-1.119.198-1.589l8.704-5.025c.814-.47 2.047-.521 2.752-.114l19.168 11.067c.705.407.617 1.119-.198 1.589l-8.704 5.025c-.815.47-2.047.521-2.752.114zm26.412-15.249l-16.178-9.341c-.706-.407-.617-1.119.198-1.589l8.704-5.025c.815-.47 2.047-.521 2.752-.114l16.178 9.341c.705.407.617 1.119-.198 1.589l-8.704 5.025c-.814.47-2.046.521-2.752.114zm-135.304-62.869l-8.785-5.072c-.705-.407-.617-1.119.198-1.589l8.704-5.025c.814-.47 2.047-.521 2.752-.114l8.785 5.072c.705.407.617 1.119-.198 1.589l-8.704 5.025c-.814.471-2.047.522-2.752.114zm-13.904-8.027l-8.785-5.072c-.705-.407-.617-1.119.198-1.589l8.704-5.025c.814-.47 2.047-.521 2.752-.114l8.785 5.072c.705.407.617 1.119-.198 1.589l-8.704 5.025c-.814.47-2.046.521-2.752.114zm-13.904-8.028l-8.785-5.072c-.705-.407-.617-1.119.198-1.589l8.704-5.025c.814-.47 2.047-.521 2.752-.114l8.785 5.072c.705.407.617 1.119-.198 1.589l-8.704 5.025c-.814.471-2.046.522-2.752.114zm-13.904-8.027l-8.785-5.072c-.705-.407-.617-1.119.198-1.589l8.704-5.025c.814-.47 2.047-.521 2.752-.114l8.785 5.072c.705.407.617 1.119-.198 1.589l-8.704 5.025c-.814.47-2.046.521-2.752.114zm55.279 31.915l-8.785-5.072c-.705-.407-.617-1.119.198-1.589l8.704-5.025c.814-.47 2.047-.521 2.752-.114l8.785 5.072c.705.407.617 1.119-.198 1.589l-8.704 5.025c-.815.47-2.047.521-2.752.114zm13.566 7.833l-8.785-5.072c-.705-.407-.617-1.119.198-1.589l8.704-5.025c.814-.47 2.047-.521 2.752-.114l8.785 5.072c.705.407.617 1.119-.198 1.589l-8.704 5.025c-.815.47-2.047.521-2.752.114zm13.566 7.832l-8.785-5.072c-.705-.407-.617-1.119.198-1.589l8.704-5.025c.814-.47 2.047-.521 2.752-.114l8.785 5.072c.705.407.617 1.119-.198 1.589l-8.704 5.025c-.814.47-2.046.521-2.752.114zm13.567 7.833l-8.785-5.072c-.705-.407-.617-1.119.198-1.589l8.704-5.026c.814-.47 2.047-.521 2.752-.114l8.785 5.072c.705.407.617 1.119-.198 1.589l-8.704 5.025c-.815.471-2.047.522-2.752.115zm13.566 7.832l-8.785-5.072c-.705-.407-.617-1.119.198-1.589l8.704-5.025c.814-.47 2.047-.521 2.752-.114l8.785 5.072c.705.407.617 1.119-.198 1.589l-8.704 5.025c-.814.47-2.046.522-2.752.114zm13.567 7.833l-8.785-5.072c-.705-.407-.617-1.119.198-1.589l8.704-5.025c.814-.47 2.047-.521 2.752-.114l8.785 5.072c.705.407.617 1.119-.198 1.589l-8.704 5.025c-.815.47-2.047.521-2.752.114zm13.566 7.832l-8.785-5.072c-.705-.407-.617-1.119.198-1.589l8.704-5.025c.814-.47 2.047-.521 2.752-.114l8.785 5.072c.705.407.617 1.119-.198 1.589l-8.704 5.025c-.814.471-2.046.522-2.752.114zm13.567 7.833l-8.785-5.072c-.705-.407-.617-1.119.198-1.589l8.704-5.025c.814-.47 2.047-.521 2.752-.114l8.785 5.072c.705.407.617 1.119-.198 1.589l-8.704 5.025c-.815.47-2.047.521-2.752.114zm13.566 7.832l-8.785-5.072c-.705-.407-.617-1.119.198-1.589l8.704-5.025c.814-.47 2.047-.521 2.752-.114l8.785 5.072c.705.407.617 1.119-.198 1.589l-8.704 5.025c-.814.471-2.047.522-2.752.114zm-129.241-89.866l-8.785-5.072c-.705-.407-.617-1.119.198-1.589l8.704-5.025c.814-.47 2.047-.521 2.752-.114l8.785 5.072c.705.407.617 1.119-.198 1.589l-8.704 5.025c-.815.47-2.047.521-2.752.114zm-13.499-7.794l-8.785-5.072c-.705-.407-.617-1.119.198-1.589l8.704-5.025c.814-.47 2.047-.521 2.752-.114l8.785 5.072c.705.407.617 1.119-.198 1.589l-8.704 5.025c-.815.47-2.047.522-2.752.114zm-13.499-7.793l-8.785-5.072c-.705-.407-.617-1.119.198-1.589l8.704-5.025c.814-.47 2.046-.521 2.752-.114l8.785 5.072c.705.407.617 1.119-.198 1.589l-8.704 5.025c-.815.47-2.047.521-2.752.114zm-13.499-7.794l-8.785-5.072c-.705-.407-.617-1.119.198-1.589l8.704-5.025c.814-.47 2.047-.521 2.752-.114l8.785 5.072c.705.407.617 1.119-.198 1.589l-8.704 5.025c-.815.47-2.047.521-2.752.114zm13.881-8.014l-8.785-5.072c-.705-.407-.617-1.119.198-1.589l2.878-1.661c.814-.47 2.047-.521 2.752-.114l8.785 5.072c.705.407.617 1.119-.198 1.589l-2.877 1.661c-.816.47-2.048.521-2.753.114zm17.616 10.171l-8.785-5.072c-.706-.407-.617-1.119.198-1.589l2.877-1.661c.814-.47 2.047-.521 2.752-.114l8.785 5.072c.705.407.617 1.119-.198 1.589l-2.878 1.661c-.814.47-2.046.521-2.751.114zm13.443 7.761l-8.785-5.072c-.705-.407-.617-1.119.198-1.589l2.877-1.661c.814-.47 2.047-.521 2.752-.114l8.785 5.072c.705.407.617 1.119-.198 1.589l-2.878 1.661c-.814.47-2.046.521-2.751.114zm13.442 7.761l-8.785-5.072c-.705-.407-.617-1.119.198-1.589l2.877-1.661c.814-.47 2.047-.521 2.752-.114l8.785 5.072c.705.407.617 1.119-.198 1.589l-2.878 1.661c-.813.47-2.045.521-2.751.114zm13.443 7.761l-8.785-5.072c-.705-.407-.617-1.119.198-1.589l2.877-1.661c.814-.47 2.047-.521 2.752-.114l8.785 5.072c.705.407.617 1.119-.198 1.589l-2.878 1.661c-.814.47-2.046.521-2.751.114zm75.049 43.329l-8.785-5.072c-.705-.407-.617-1.119.198-1.589l2.878-1.661c.814-.47 2.047-.521 2.752-.114l8.785 5.072c.705.407.617 1.119-.198 1.589l-2.877 1.661c-.816.47-2.048.521-2.753.114zm13.442 7.761l-8.785-5.072c-.705-.407-.617-1.119.198-1.589l2.878-1.661c.814-.47 2.047-.521 2.752-.114l8.785 5.072c.705.407.617 1.119-.198 1.589l-2.877 1.661c-.815.471-2.047.522-2.753.114zm13.443 7.761l-8.785-5.072c-.705-.407-.617-1.119.198-1.589l2.878-1.661c.814-.47 2.047-.521 2.752-.114l8.785 5.072c.705.407.617 1.119-.198 1.589l-2.877 1.661c-.816.471-2.048.522-2.753.114zm13.443 7.762l-8.785-5.072c-.705-.407-.617-1.119.198-1.589l2.878-1.661c.814-.47 2.047-.521 2.752-.114l8.785 5.072c.706.407.617 1.119-.198 1.589l-2.877 1.661c-.816.47-2.048.521-2.753.114zm-133.139-60.839l-8.785-5.072c-.705-.407-.617-1.119.198-1.589l8.704-5.025c.814-.47 2.047-.521 2.752-.114l8.785 5.072c.705.407.617 1.119-.198 1.589l-8.704 5.025c-.815.47-2.047.521-2.752.114zm13.566 7.832l-8.785-5.072c-.705-.407-.617-1.119.198-1.589l8.704-5.025c.814-.47 2.047-.521 2.752-.114l8.785 5.072c.705.407.617 1.119-.198 1.589l-8.704 5.025c-.814.47-2.046.521-2.752.114zm13.567 7.833l-8.785-5.072c-.705-.407-.617-1.119.198-1.589l8.704-5.026c.814-.47 2.046-.521 2.752-.114l8.785 5.072c.705.407.617 1.119-.198 1.589l-8.704 5.025c-.815.471-2.047.522-2.752.115zm13.566 7.832l-8.785-5.072c-.705-.407-.617-1.119.198-1.589l8.704-5.025c.814-.47 2.046-.521 2.752-.114l8.785 5.072c.705.407.617 1.119-.198 1.589l-8.704 5.025c-.814.47-2.046.522-2.752.114zm13.567 7.833l-8.785-5.072c-.705-.407-.617-1.119.198-1.589l8.704-5.025c.814-.47 2.046-.521 2.752-.114l8.785 5.072c.705.407.617 1.119-.198 1.589l-8.704 5.025c-.815.47-2.047.521-2.752.114zm13.566 7.832l-8.785-5.072c-.705-.407-.617-1.119.198-1.589l8.704-5.025c.814-.47 2.046-.521 2.752-.114l8.785 5.072c.705.407.617 1.119-.198 1.589l-8.704 5.025c-.814.471-2.046.522-2.752.114zm13.567 7.833l-8.785-5.072c-.705-.407-.617-1.119.198-1.589l8.704-5.025c.814-.47 2.047-.521 2.752-.114l8.785 5.072c.705.407.617 1.119-.198 1.589l-8.704 5.025c-.815.47-2.047.521-2.752.114zm13.566 7.833l-8.785-5.072c-.705-.407-.617-1.119.198-1.589l8.704-5.025c.814-.47 2.047-.521 2.752-.114l8.785 5.072c.705.407.617 1.119-.198 1.589l-8.704 5.025c-.815.47-2.047.521-2.752.114zm13.566 7.832l-8.785-5.072c-.705-.407-.617-1.119.198-1.589l8.704-5.025c.814-.47 2.047-.521 2.752-.114l8.785 5.072c.706.407.617 1.119-.198 1.589l-8.704 5.025c-.814.47-2.046.521-2.752.114zm-186.092-61.693l-25.872-14.937c-.705-.407-.617-1.119.198-1.589l8.704-5.025c.814-.47 2.047-.521 2.752-.114l25.872 14.937c.705.407.617 1.119-.198 1.589l-8.704 5.025c-.815.47-2.047.521-2.752.114zm166.666 96.225l-25.872-14.937c-.705-.407-.617-1.119.198-1.589l8.704-5.025c.814-.47 2.046-.521 2.752-.114l25.872 14.937c.705.407.617 1.119-.198 1.589l-8.704 5.025c-.814.47-2.046.521-2.752.114zm-54.254-14.023l-8.785-5.072c-.705-.407-.617-1.119.198-1.589l10.369-5.987c.814-.47 2.047-.521 2.752-.114l8.785 5.072c.705.407.617 1.119-.198 1.589l-10.369 5.987c-.814.471-2.046.522-2.752.114zm-98.519-56.88l-14.05-8.111c-.705-.407-.617-1.119.198-1.589l10.369-5.987c.814-.47 2.047-.521 2.752-.114l14.049 8.111c.705.407.617 1.119-.198 1.589l-10.369 5.987c-.814.47-2.046.521-2.751.114zm85.448 49.334l-14.049-8.111c-.705-.407-.617-1.119.198-1.589l10.369-5.987c.814-.47 2.046-.521 2.752-.114l14.049 8.112c.705.407.617 1.119-.198 1.589l-10.369 5.987c-.815.469-2.047.52-2.752.113zm-65.875-38.033l-14.049-8.112c-.705-.407-.617-1.119.198-1.589l10.369-5.987c.814-.47 2.047-.521 2.752-.114l14.05 8.111c.705.407.617 1.119-.198 1.589l-10.369 5.987c-.816.471-2.048.522-2.753.115z"/><path d="M407.188 282.946l61.083 35.266c.758.438.758 1.147 0 1.585l-10.574 6.105c-.758.438-1.987.438-2.745 0l-61.083-35.266 13.319-7.69zm117.497 75.527l9.785 5.65c.578.334.506.917-.162 1.302l-4.242 2.449c-.668.385-1.677.427-2.256.093l-9.785-5.65c-.578-.334-.506-.917.162-1.302l4.242-2.449c.668-.385 1.678-.427 2.256-.093zm-13.678-7.898l9.785 5.65c.578.334.506.917-.162 1.302l-4.242 2.449c-.668.385-1.678.427-2.256.094l-9.785-5.65c-.578-.334-.506-.917.162-1.302l4.242-2.449c.667-.386 1.677-.428 2.256-.094zm-13.567-7.832l9.785 5.65c.578.334.506.917-.162 1.302l-4.242 2.449c-.668.385-1.677.427-2.256.093l-9.785-5.65c-.578-.334-.506-.917.162-1.302l4.242-2.449c.668-.385 1.678-.427 2.256-.093zm21.058 3.507l9.785 5.65c.578.334.506.917-.162 1.302l-4.242 2.449c-.668.385-1.678.427-2.256.094l-9.785-5.65c-.578-.334-.506-.917.162-1.302l4.242-2.449c.668-.386 1.678-.428 2.256-.094z"/></g><path fill="#D4ECFF" d="M572.087 193.415l-73.075-42.19.94-4.75 73.075 42.19zm-26.172 8.017l-51.01-29.451.94-4.751 51.01 29.451z"/><path fill="#FFF" d="M541.088 187.081l-44.13-25.478.94-4.751 44.13 25.479z"/><path fill="#FF2C9C" d="M570.034 203.793l-22.065-12.739.94-4.751 22.065 12.739z"/><path fill="#D4ECFF" d="M491.23 109.777l-22.065-12.739.939-4.75 22.066 12.739z"/><path fill="#FFF" d="M488.835 120.818l-22.065-12.739.94-4.751 22.065 12.739z"/><path fill="#D4ECFF" d="M597.134 273.952l-22.066-12.739.94-4.751 22.066 12.74zM484.047 142.898l-22.065-12.739.94-4.75 22.065 12.739z"/><path fill="#FF2C9C" d="M531.722 146.319c-.703 1.534-2.479 2.081-3.967 1.222s-2.124-2.799-1.421-4.333c.703-1.534 2.479-2.081 3.967-1.222s2.124 2.799 1.421 4.333z"/><path fill="#FFF" d="M541.226 151.806c-.703 1.534-2.479 2.081-3.967 1.222s-2.124-2.799-1.421-4.333c.703-1.534 2.479-2.081 3.967-1.222s2.124 2.799 1.421 4.333z"/><path fill="#D4ECFF" d="M550.729 157.293c-.703 1.534-2.479 2.081-3.967 1.222s-2.124-2.799-1.421-4.333c.703-1.534 2.479-2.081 3.967-1.222 1.488.86 2.125 2.799 1.421 4.333z"/><path fill="#FF2C9C" d="M560.233 162.78c-.703 1.534-2.479 2.081-3.967 1.222s-2.124-2.799-1.421-4.333c.703-1.534 2.479-2.081 3.967-1.222 1.488.86 2.125 2.8 1.421 4.333z"/><path fill="#FFF" d="M398.458 356.618l-55.259-31.904c-1.609-.929-1.407-2.551.451-3.623l33.347-19.253c1.857-1.072 4.667-1.189 6.276-.26l55.259 31.904c1.608.929 1.407 2.551-.451 3.623l-33.347 19.253c-1.857 1.073-4.667 1.189-6.276.26z"/><g fill="#5793CE"><path d="M358.527 218.135l-6.704 8.22-17.738-14.467 6.704-8.22z"/><path d="M354.464 226.532c2.236-.849 4.358-3.452 4.741-5.813.382-2.361-1.12-3.587-3.356-2.737-2.236.849-4.358 3.452-4.741 5.813-.382 2.361 1.12 3.586 3.356 2.737z"/></g><path fill="#5793CE" d="M345.945 203.676l-10.864 13.322-18.122-14.778 10.864-13.322z"/><path fill="#396CAA" d="M343.687 206.059l6.003 4.896c-.865 3.311-3.635 6.707-6.704 8.221l-6.004-4.896c.867-3.312 3.636-6.708 6.705-8.221z"/><path fill="#5793CE" d="M339.394 217.244c3.623-1.376 7.062-5.594 7.682-9.419.62-3.826-1.815-5.812-5.438-4.435-3.623 1.376-7.063 5.594-7.682 9.419-.62 3.826 1.815 5.811 5.438 4.435zm-18.127-14.784c3.623-1.376 7.062-5.594 7.682-9.419.62-3.826-1.815-5.812-5.438-4.435-3.623 1.376-7.063 5.593-7.682 9.419-.62 3.826 1.815 5.812 5.438 4.435z"/><path fill="#D4ECFF" d="M321.755 199.452c2.049-.779 3.995-3.164 4.346-5.328.35-2.164-1.027-3.288-3.076-2.509-2.05.779-3.995 3.164-4.346 5.328s1.026 3.287 3.076 2.509zm32.762 20.352c.87.709 1.72.386 1.899-.722.179-1.108-.38-2.581-1.25-3.29-.87-.709-1.72-.386-1.899.721-.179 1.109.38 2.581 1.25 3.291z"/><path fill="#5793CE" d="M174.06 400.358c-3.176 0-6.353-.871-9.256-2.617l-12.553-7.434a1.418 1.418 0 111.446-2.44l12.557 7.439c4.935 2.965 10.801 2.945 15.698-.06 4.899-3.004 7.581-8.221 7.175-13.957l-.267-3.786c-4.408-61.969-12.612-177.316 36.002-189.757 16.747-4.286 28.212-8.388 36.583-11.384 24.946-8.929 26.658-8.437 61.05 17.536a1.417 1.417 0 01-1.707 2.261c-34.162-25.798-34.614-25.639-58.389-17.128-8.423 3.013-19.958 7.143-36.833 11.46-46.322 11.855-38.228 125.667-33.879 186.811l.269 3.786c.481 6.811-2.704 13.008-8.52 16.574-2.931 1.798-6.152 2.696-9.376 2.696z"/><path opacity=".5" fill="#173D7A" d="M301.94 415.568c-17.959 10.369-47.077 10.368-65.036-.001s-17.96-27.18-.001-37.549 47.077-10.368 65.036.001c17.959 10.369 17.96 27.18.001 37.549z"/><path fill="#173D7A" d="M291.36 385.416c2.59 1.106 4.221 3.994 4.005 7.097-.102 1.464-.279 2.829-.584 3.47-.824 1.73-3.525 4.105-7.837 2.401-4.311-1.704-13.887-10.701-14.246-16.59-.667-10.94 11.842.709 18.662 3.622zm-25.332 18.093s1.034 6.307.532 7.463c-.502 1.156-3.503 3.623-7.936 3.09-4.433-.534-17.188-4.931-20.028-13.337-4.403-13.031 24.62.978 24.62.978l2.812 1.806z"/><path fill="#D4ECFF" d="M253.565 302.68l-.987 98.461c.104 3.424 2.347 6.317 5.363 6.826.373.063.772.114 1.199.151 3.055.267 4.834-1.043 5.849-2.42.822-1.115 1.255-2.529 1.316-3.975l1.257-42.031 6.275-37.581 8.682 66.513c.139 1.799 1 3.462 2.386 4.379.957.633 2.255 1.125 3.958 1.073 2.485-.075 4.211-1.405 5.263-2.592.834-.941 1.274-2.234 1.257-3.561l-3.441-40.02-1.281-51.045-37.096 5.822z"/><path fill="#FFC2B0" d="M266.315 214.547l1.557 8.972s.058 3.061-3.36 3.909c-3.418.848-4.475-1.358-4.475-1.358l-1.546-10.104 7.824-1.419z"/><path fill="#FFC2B0" d="M248.071 214.816c5.711 5.688 14.432 6.163 19.479 1.061 5.047-5.102 4.509-13.848-1.202-19.536-5.711-5.688-14.432-6.163-19.479-1.061-5.046 5.102-4.508 13.848 1.202 19.536z"/><path fill="#5793CE" d="M265.909 223.682c.237-.096 14.502-9.281 19.774.331 8.597 15.672 8.091 66.122 5.377 72.657-2.512 6.048-8.786 10.507-13.182 13.018-3.912 2.235-8.29 3.604-12.795 3.64-4.457.036-13.005-3.927-12.695-9.754 1.427-26.802-.943-49.393-3.131-71.313 0-.001 2.735-2.945 16.652-8.579z"/><path fill="#396CAA" d="M273.838 322.111l8.682 66.513c.139 1.799 1 3.462 2.386 4.379.227.15.476.29.741.419-1.802-1.352-7.065-57.18-8.038-63.39-.975-6.213-3.771-7.921-3.771-7.921z"/><path fill="#FFC2B0" d="M220.294 226.64l-7.751-25.386 4.094-1.697 9.137 19.893zm78.135-20.008l-5.81-26.43-4.627.051 1.738 21.919z"/><path fill="#5793CE" d="M249.257 232.26s-13.926 2.778-22.782-13.436c-.78-1.428-2.851-1.64-3.674-.387-1.42 2.163-3.302 5.477-2.327 9.059 4.312 15.847 27.724 19.349 31.929 28.54 4.204 9.192-3.146-23.776-3.146-23.776zm25.699-11.871s11.029.848 12.616-8.698c.818-4.916 1.063-7.851 1.109-9.543a1.924 1.924 0 012.162-1.871c2.641.328 6.731 1.116 7.285 2.886.828 2.643 2.386 15.606-8.508 35.497-7.135 13.03-14.664-18.271-14.664-18.271z"/><path fill="#FFC2B0" d="M292.642 180.267l-.105-3.014a6.194 6.194 0 00-.901-3.009l-3.055-5.018-.797-1.004a2.32 2.32 0 00-3.053-.522l-.703.442a2.887 2.887 0 00-1.344 2.628l1.58 4.288-1.998-.387a.708.708 0 00-.4 1.354l3.263 1.317 2.964 4.195 4.549-1.27zm-80.211 21.121l-.924-2.87a6.218 6.218 0 01-.175-3.137l1.169-5.757.409-1.215a2.32 2.32 0 012.695-1.527l.811.177a2.886 2.886 0 012.156 2.016l-.03 4.57 1.748-1.043a.71.71 0 01.837 1.138l-2.622 2.347-1.532 5.566-4.542-.265z"/><path fill="#396CAA" d="M255.779 251.464c1.27 5.791-2.292 50.738 9.303 61.864-4.458.036-13.005-3.927-12.695-9.754.957-17.973.194-34.034-1.064-49.288-4.547-5.891-17.057-9.642-24.885-17.198.573.176 28.084 8.644 29.341 14.376z"/><path fill="#FFF" d="M271.038 221.148l-1.981-2.035s-3.259 3.329-5.876 3.907c0 0-3.151.893-4.69.969l-1.275 3.516c.001 0 10.376-.743 13.822-6.357z"/><path fill="#173D7A" d="M256.428 210.717c-.49.245-1.054.26-1.538.005-.843-.444-2.21-3.797-3.964-3.551-2.743.384-6.715 6.143-11.66-1.89-2.57-4.175-1.063-6.429-2.313-8.799 0 0 .44 1.286 11.205-5.285s19.569 1.438 22.298 6.017c2.73 4.579 4.501 13.529-2.565 18.578-1.172.837-8.712-.657-8.867-1.288-.155-.631 1.865-1.647.723-3.125-.95-1.233-2.039-1.301-3.319-.662z"/><path fill="#5793CE" d="M155.529 392.02c-.245 0-.494-.064-.721-.198l-75.814-44.898a1.418 1.418 0 011.442-2.44l75.818 44.898c.672.4.895 1.269.497 1.943a1.422 1.422 0 01-1.222.695z"/><path opacity=".5" fill="#173D7A" d="M70.738 392.251l93.943-53.567c3.436-1.983 3.005-5.448-.962-7.739l-54.052-31.207c-3.967-2.29-9.968-2.539-13.404-.556L2.319 352.75c-3.436 1.984-3.005 5.448.962 7.739l54.052 31.207c3.968 2.29 9.969 2.539 13.405.555z"/><path fill="#396CAA" d="M.018 326.62V122.182l81.274-21.272 14.97-8.643c3.436-1.984 9.437-1.735 13.404.556l13.967 8.064 43.349-.024-12.836 197.357c.098 1.342-.651 2.638-2.302 3.591L70.738 363.01c-3.436 1.984-9.437 1.735-13.404-.556L3.282 331.246c-2.289-1.321-3.393-3.033-3.264-4.626z"/><path fill="#D4ECFF" d="M102.481 90.938c2.514.061 5.124.694 7.185 1.884l13.967 8.064 43.349-.024V305.85c.098 1.342-.651 2.638-2.302 3.591l-93.943 53.567c-1.651.953-3.895 1.385-6.221 1.329l-.969-206.269 38.934-67.13z"/><path fill="#5793CE" d="M69.875 363.431c-2.963 1.269-7.25 1.199-10.714-.122V155.63h10.714v207.801z"/><path fill="#D4ECFF" d="M70.738 158.092l93.943-53.567c3.436-1.984 3.005-5.448-.962-7.739l-54.052-31.207c-3.967-2.29-9.968-2.539-13.404-.556L2.319 118.591c-3.436 1.984-3.005 5.448.962 7.739l54.052 31.207c3.968 2.29 9.969 2.539 13.405.555z"/><path fill="#FAFDFF" d="M3.282 122.528l54.052 31.207c3.967 2.29 9.968 2.539 13.404.556l93.943-53.567c.766-.442 1.329-.961 1.714-1.521 1.18 1.899.645 3.96-1.714 5.322l-93.943 53.567c-3.436 1.984-9.437 1.735-13.404-.556L3.282 126.329c-3.083-1.78-4.019-4.266-2.677-6.218.539.867 1.434 1.7 2.677 2.417z"/><path fill="#173D7A" d="M68.081 136.382l62.545-36.255c1.608-.928 1.406-2.55-.45-3.621l-25.294-14.603c-1.856-1.072-4.665-1.188-6.272-.26l-62.545 36.255c-1.608.928-1.406 2.549.45 3.621l25.294 14.603c1.856 1.072 4.664 1.188 6.272.26z"/><path fill="#D4ECFF" d="M101.847 101.755l3.624-2.092c.222-.128.194-.353-.062-.501l-3.5-2.02c-.257-.148-.645-.164-.868-.036l-3.624 2.092c-.222.128-.195.353.062.501l3.499 2.02c.258.149.646.165.869.036z"/><path fill="#FF2C9C" d="M89.738 108.717l3.624-2.092c.222-.128.195-.353-.062-.501l-3.499-2.02c-.257-.148-.645-.164-.868-.036l-3.624 2.092c-.222.128-.194.353.062.501l3.5 2.02c.256.149.645.165.867.036z"/><path fill="#D4ECFF" d="M77.63 115.68l3.624-2.092c.222-.128.194-.353-.062-.501l-3.5-2.02c-.257-.148-.645-.164-.868-.036l-3.624 2.092c-.222.128-.195.353.062.501l3.499 2.021c.258.147.647.163.869.035zm-12.108 6.962l3.624-2.092c.222-.128.194-.353-.062-.501l-3.499-2.02c-.257-.148-.645-.164-.868-.036l-3.624 2.092c-.222.128-.194.353.062.501l3.499 2.02c.257.148.646.164.868.036z"/><path fill="#5793CE" d="M130.625 100.127l-.074.043c-.122-.087-.235-.177-.376-.259l-25.294-14.603c-1.857-1.072-4.665-1.188-6.272-.26L36.138 121.26c-1.482-1.061-1.56-2.505-.074-3.363l62.545-36.255c1.608-.928 4.416-.812 6.272.26l25.294 14.603c1.856 1.072 2.058 2.694.45 3.622z"/><path fill="#173D7A" d="M46.78 198.596l-35.561-20.361c-2.001-1.155-3.623-4.255-3.623-6.923v-12.717c0-2.668 1.622-3.895 3.623-2.739l35.561 20.36c2.001 1.155 3.623 4.255 3.623 6.923v12.717c0 2.669-1.622 3.895-3.623 2.74z"/><path fill="#FFF" d="M9.459 155.473c-.559.527-.91 1.426-.91 2.646v12.717c0 2.668 1.622 5.768 3.623 6.923l35.561 20.361c.643.371 1.237.472 1.76.383-.664.626-1.628.72-2.714.094l-35.561-20.361c-2.001-1.155-3.623-4.255-3.623-6.923v-12.717c.001-1.812.757-2.935 1.864-3.123z"/><path fill="#396CAA" d="M36.084 184.781l-3.262-1.883c-.436-.252-.79-.927-.79-1.509v-3.484c0-.582.354-.849.79-.597l3.262 1.883c.436.252.79.927.79 1.509v3.484c0 .582-.353.849-.79.597z"/><path fill="#FFF" d="M25.177 178.484l-3.262-1.883c-.436-.252-.79-.927-.79-1.509v-3.485c0-.582.354-.849.79-.597l3.262 1.883c.436.252.79.927.79 1.509v3.485c0 .582-.354.849-.79.597z"/><path fill="#173D7A" d="M46.78 290.491L11.219 270.13c-2.001-1.155-3.623-4.255-3.623-6.923V250.49c0-2.668 1.622-3.895 3.623-2.739l35.561 20.36c2.001 1.155 3.623 4.255 3.623 6.923v12.717c0 2.669-1.622 3.896-3.623 2.74z"/><path fill="#FFF" d="M9.459 247.368c-.559.527-.91 1.426-.91 2.646v12.717c0 2.668 1.622 5.768 3.623 6.923l35.561 20.361c.643.371 1.237.472 1.76.383-.664.626-1.628.72-2.714.094l-35.561-20.361c-2.001-1.155-3.623-4.255-3.623-6.923v-12.717c.001-1.812.757-2.935 1.864-3.123z"/><path fill="#FF2C9C" d="M36.084 276.677l-3.262-1.883c-.436-.252-.79-.927-.79-1.509V269.8c0-.582.354-.849.79-.597l3.262 1.883c.436.252.79.927.79 1.509v3.484c0 .582-.353.849-.79.598z"/><path fill="#FFF" d="M25.177 270.379l-3.262-1.883c-.436-.252-.79-.927-.79-1.509v-3.484c0-.582.354-.849.79-.597l3.262 1.883c.436.252.79.927.79 1.509v3.485c0 .581-.354.848-.79.596z"/><path fill="#173D7A" d="M46.78 336.439l-35.561-20.36c-2.001-1.155-3.623-4.255-3.623-6.923v-12.717c0-2.668 1.622-3.895 3.623-2.739l35.561 20.36c2.001 1.155 3.623 4.255 3.623 6.923V333.7c0 2.668-1.622 3.894-3.623 2.739z"/><path fill="#FFF" d="M9.459 293.316c-.559.527-.91 1.426-.91 2.646v12.717c0 2.668 1.622 5.768 3.623 6.923l35.561 20.361c.643.371 1.237.472 1.76.383-.664.626-1.628.721-2.714.094l-35.561-20.36c-2.001-1.155-3.623-4.255-3.623-6.923V296.44c.001-1.814.757-2.936 1.864-3.124z"/><path fill="#396CAA" d="M36.084 322.624l-3.262-1.883c-.436-.252-.79-.927-.79-1.509v-3.485c0-.582.354-.849.79-.597l3.262 1.883c.436.252.79.927.79 1.509v3.485c0 .582-.353.849-.79.597z"/><path fill="#FFF" d="M25.177 316.327l-3.262-1.883c-.436-.252-.79-.927-.79-1.509v-3.484c0-.582.354-.849.79-.597l3.262 1.883c.436.252.79.927.79 1.509v3.484c0 .581-.354.849-.79.597z"/><path fill="#173D7A" d="M46.78 244.544l-35.561-20.36c-2.001-1.155-3.623-4.255-3.623-6.923v-12.717c0-2.668 1.622-3.895 3.623-2.739l35.561 20.361c2.001 1.155 3.623 4.255 3.623 6.923v12.717c0 2.667-1.622 3.893-3.623 2.738z"/><path fill="#FFF" d="M9.459 201.42c-.559.527-.91 1.426-.91 2.646v12.717c0 2.668 1.622 5.768 3.623 6.923l35.561 20.361c.643.371 1.237.472 1.76.383-.664.626-1.628.721-2.714.094l-35.561-20.36c-2.001-1.155-3.623-4.255-3.623-6.923v-12.717c.001-1.813.757-2.935 1.864-3.124z"/><path fill="#396CAA" d="M36.084 230.729l-3.262-1.883c-.436-.252-.79-.927-.79-1.509v-3.485c0-.582.354-.849.79-.597l3.262 1.883c.436.252.79.927.79 1.509v3.484c0 .583-.353.85-.79.598z"/><path fill="#FFF" d="M25.177 224.432l-3.262-1.883c-.436-.252-.79-.927-.79-1.509v-3.484c0-.582.354-.849.79-.597l3.262 1.883c.436.252.79.927.79 1.509v3.484c0 .581-.354.848-.79.597z"/><path fill="#5793CE" d="M77.581 185.578l82.043-47.367c1.836-1.06 3.325-3.905 3.325-6.353v-15.644c0-2.448-1.488-3.574-3.325-2.514l-82.043 47.368c-1.836 1.06-3.325 3.904-3.325 6.353v15.644c0 2.448 1.488 3.573 3.325 2.513z"/><path opacity=".4" fill="#D4ECFF" d="M79.936 180.093l77.332-44.648c.932-.538 1.687-1.981 1.687-3.223v-11.761c0-1.242-.755-1.813-1.687-1.275l-77.332 44.648c-.932.538-1.687 1.981-1.687 3.223v11.761c0 1.242.755 1.813 1.687 1.275z"/><path fill="#D4ECFF" d="M141.152 138.804l11.541-6.663c.905-.522 1.638-1.924 1.638-3.13s-.733-1.761-1.638-1.238l-11.541 6.663c-.905.522-1.638 1.924-1.638 3.13s.733 1.76 1.638 1.238z"/><path fill="#173D7A" d="M131.318 142.298c0 1.206.847 1.695 1.891 1.092 1.045-.603 1.892-2.07 1.892-3.276s-.847-1.695-1.892-1.092-1.891 2.07-1.891 3.276zm-6.674 3.853c0 1.206.847 1.695 1.892 1.092s1.891-2.07 1.891-3.276-.847-1.695-1.891-1.092-1.892 2.069-1.892 3.276z"/><path fill="#D4ECFF" d="M117.971 150.003c0 1.206.847 1.695 1.892 1.092s1.891-2.07 1.891-3.276-.847-1.695-1.891-1.092c-1.045.603-1.892 2.07-1.892 3.276z"/><path fill="#173D7A" d="M111.299 153.856c0 1.206.847 1.695 1.891 1.092 1.045-.603 1.892-2.07 1.892-3.276s-.847-1.695-1.892-1.092c-1.044.603-1.891 2.07-1.891 3.276zm-28.111 19.687l3.887-2.244c.581-.335 1.051-1.234 1.051-2.009v-4.113c0-.774-.471-1.13-1.051-.795l-3.887 2.244c-.581.335-1.051 1.234-1.051 2.009v4.113c0 .775.471 1.131 1.051.795z"/><path fill="#5793CE" d="M77.581 213.165l82.043-47.367c1.836-1.06 3.325-3.904 3.325-6.353v-15.644c0-2.448-1.488-3.574-3.325-2.514l-82.043 47.367c-1.836 1.06-3.325 3.904-3.325 6.353v15.644c0 2.449 1.488 3.574 3.325 2.514z"/><path opacity=".4" fill="#D4ECFF" d="M79.936 207.68l77.332-44.648c.932-.538 1.687-1.981 1.687-3.223v-11.761c0-1.242-.755-1.813-1.687-1.275L79.936 191.42c-.932.538-1.687 1.981-1.687 3.223v11.761c0 1.243.755 1.814 1.687 1.276z"/><path fill="#D4ECFF" d="M141.152 166.391l11.541-6.663c.905-.522 1.638-1.924 1.638-3.13s-.733-1.761-1.638-1.238l-11.541 6.663c-.905.522-1.638 1.924-1.638 3.13s.733 1.76 1.638 1.238z"/><path fill="#FFF" d="M131.318 169.885c0 1.206.847 1.695 1.891 1.092 1.045-.603 1.892-2.07 1.892-3.276s-.847-1.695-1.892-1.092-1.891 2.07-1.891 3.276z"/><path fill="#173D7A" d="M124.644 173.738c0 1.206.847 1.695 1.892 1.092s1.891-2.07 1.891-3.276-.847-1.695-1.891-1.092c-1.045.603-1.892 2.069-1.892 3.276z"/><path fill="#D4ECFF" d="M117.971 177.59c0 1.206.847 1.695 1.892 1.092s1.891-2.07 1.891-3.276-.847-1.695-1.891-1.092c-1.045.603-1.892 2.07-1.892 3.276z"/><path fill="#173D7A" d="M111.299 181.443c0 1.206.847 1.695 1.891 1.092 1.045-.603 1.892-2.07 1.892-3.276s-.847-1.695-1.892-1.092c-1.044.603-1.891 2.07-1.891 3.276zM83.188 201.13l3.887-2.244c.581-.335 1.051-1.234 1.051-2.009v-4.113c0-.774-.471-1.13-1.051-.795l-3.887 2.244c-.581.335-1.051 1.234-1.051 2.009v4.113c0 .775.471 1.131 1.051.795z"/><path fill="#5793CE" d="M77.581 240.752l82.043-47.367c1.836-1.06 3.325-3.904 3.325-6.353v-15.644c0-2.448-1.488-3.574-3.325-2.514l-82.043 47.367c-1.836 1.06-3.325 3.904-3.325 6.353v15.644c0 2.449 1.488 3.574 3.325 2.514z"/><path opacity=".4" fill="#D4ECFF" d="M79.936 235.267l77.332-44.648c.932-.538 1.687-1.981 1.687-3.223v-11.761c0-1.242-.755-1.813-1.687-1.275l-77.332 44.648c-.932.538-1.687 1.981-1.687 3.223v11.761c0 1.242.755 1.813 1.687 1.275z"/><path fill="#D4ECFF" d="M141.152 193.978l11.541-6.663c.905-.522 1.638-1.924 1.638-3.13s-.733-1.761-1.638-1.238l-11.541 6.663c-.905.522-1.638 1.924-1.638 3.13s.733 1.76 1.638 1.238z"/><path fill="#FFF" d="M131.318 197.472c0 1.206.847 1.695 1.891 1.092s1.892-2.07 1.892-3.276-.847-1.695-1.892-1.092-1.891 2.07-1.891 3.276z"/><path fill="#173D7A" d="M124.644 201.325c0 1.206.847 1.695 1.892 1.092s1.891-2.07 1.891-3.276-.847-1.695-1.891-1.092c-1.045.602-1.892 2.069-1.892 3.276z"/><path fill="#D4ECFF" d="M117.971 205.177c0 1.206.847 1.695 1.892 1.092s1.891-2.07 1.891-3.276-.847-1.695-1.891-1.092c-1.045.603-1.892 2.07-1.892 3.276z"/><path fill="#173D7A" d="M111.299 209.03c0 1.206.847 1.695 1.891 1.092 1.045-.603 1.892-2.07 1.892-3.276s-.847-1.695-1.892-1.092c-1.044.603-1.891 2.07-1.891 3.276zm-28.111 19.687l3.887-2.244c.581-.335 1.051-1.234 1.051-2.009v-4.113c0-.774-.471-1.13-1.051-.795l-3.887 2.244c-.581.335-1.051 1.234-1.051 2.009v4.113c0 .775.471 1.131 1.051.795z"/><path fill="#5793CE" d="M77.581 268.339l82.043-47.367c1.836-1.06 3.325-3.904 3.325-6.353v-15.644c0-2.448-1.488-3.574-3.325-2.514l-82.043 47.368c-1.836 1.06-3.325 3.904-3.325 6.353v15.644c0 2.448 1.488 3.573 3.325 2.513z"/><path opacity=".4" fill="#D4ECFF" d="M79.936 262.854l77.332-44.648c.932-.538 1.687-1.981 1.687-3.223v-11.761c0-1.242-.755-1.813-1.687-1.275l-77.332 44.648c-.932.538-1.687 1.981-1.687 3.223v11.761c0 1.242.755 1.813 1.687 1.275z"/><path fill="#D4ECFF" d="M141.152 221.565l11.541-6.663c.905-.522 1.638-1.924 1.638-3.13s-.733-1.761-1.638-1.238l-11.541 6.663c-.905.522-1.638 1.924-1.638 3.13s.733 1.76 1.638 1.238z"/><path fill="#173D7A" d="M131.318 225.059c0 1.206.847 1.695 1.891 1.092 1.045-.603 1.892-2.07 1.892-3.276s-.847-1.695-1.892-1.092-1.891 2.07-1.891 3.276zm-6.674 3.852c0 1.206.847 1.695 1.892 1.092s1.891-2.07 1.891-3.276-.847-1.695-1.891-1.092c-1.045.603-1.892 2.07-1.892 3.276z"/><path fill="#D4ECFF" d="M117.971 232.764c0 1.206.847 1.695 1.892 1.092s1.891-2.07 1.891-3.276-.847-1.695-1.891-1.092c-1.045.603-1.892 2.07-1.892 3.276z"/><path fill="#173D7A" d="M111.299 236.617c0 1.206.847 1.695 1.891 1.092 1.045-.603 1.892-2.07 1.892-3.276s-.847-1.695-1.892-1.092c-1.044.603-1.891 2.07-1.891 3.276z"/><path fill="#D4ECFF" d="M83.188 256.304l3.887-2.244c.581-.335 1.051-1.234 1.051-2.009v-4.113c0-.774-.471-1.13-1.051-.795l-3.887 2.244c-.581.335-1.051 1.234-1.051 2.009v4.113c0 .775.471 1.131 1.051.795z"/><path fill="#5793CE" d="M77.581 295.926l82.043-47.367c1.836-1.06 3.325-3.904 3.325-6.353v-15.644c0-2.448-1.488-3.574-3.325-2.514l-82.043 47.367c-1.836 1.06-3.325 3.904-3.325 6.353v15.644c0 2.449 1.488 3.574 3.325 2.514z"/><path opacity=".4" fill="#D4ECFF" d="M79.936 290.441l77.332-44.648c.932-.538 1.687-1.981 1.687-3.223v-11.761c0-1.242-.755-1.813-1.687-1.275l-77.332 44.648c-.932.538-1.687 1.981-1.687 3.223v11.761c0 1.242.755 1.813 1.687 1.275z"/><path fill="#D4ECFF" d="M141.152 249.152l11.541-6.663c.905-.522 1.638-1.924 1.638-3.13s-.733-1.761-1.638-1.238l-11.541 6.663c-.905.522-1.638 1.924-1.638 3.13s.733 1.76 1.638 1.238z"/><path fill="#173D7A" d="M131.318 252.646c0 1.206.847 1.695 1.891 1.092 1.045-.603 1.892-2.07 1.892-3.276s-.847-1.695-1.892-1.092-1.891 2.07-1.891 3.276z"/><path fill="#FFF" d="M124.644 256.498c0 1.206.847 1.695 1.892 1.092s1.891-2.07 1.891-3.276-.847-1.695-1.891-1.092c-1.045.603-1.892 2.07-1.892 3.276z"/><path fill="#D4ECFF" d="M117.971 260.351c0 1.206.847 1.695 1.892 1.092s1.891-2.07 1.891-3.276-.847-1.695-1.891-1.092c-1.045.603-1.892 2.07-1.892 3.276z"/><path fill="#FFF" d="M111.299 264.204c0 1.206.847 1.695 1.891 1.092 1.045-.603 1.892-2.07 1.892-3.276s-.847-1.695-1.892-1.092c-1.044.603-1.891 2.07-1.891 3.276z"/><path fill="#D4ECFF" d="M83.188 283.891l3.887-2.244c.581-.335 1.051-1.234 1.051-2.009v-4.113c0-.774-.471-1.13-1.051-.795l-3.887 2.244c-.581.335-1.051 1.234-1.051 2.009v4.113c0 .775.471 1.131 1.051.795z"/><path fill="#5793CE" d="M77.581 323.513l82.043-47.367c1.836-1.06 3.325-3.904 3.325-6.353v-15.644c0-2.448-1.488-3.574-3.325-2.514l-82.043 47.368c-1.836 1.06-3.325 3.904-3.325 6.353V321c0 2.448 1.488 3.573 3.325 2.513z"/><path opacity=".4" fill="#D4ECFF" d="M79.936 318.028l77.332-44.648c.932-.538 1.687-1.981 1.687-3.223v-11.761c0-1.242-.755-1.813-1.687-1.275l-77.332 44.648c-.932.538-1.687 1.981-1.687 3.223v11.761c0 1.242.755 1.813 1.687 1.275z"/><path fill="#D4ECFF" d="M141.152 276.739l11.541-6.663c.905-.522 1.638-1.924 1.638-3.13s-.733-1.761-1.638-1.238l-11.541 6.663c-.905.522-1.638 1.924-1.638 3.13s.733 1.76 1.638 1.238z"/><path fill="#173D7A" d="M131.318 280.233c0 1.206.847 1.695 1.891 1.092s1.892-2.07 1.892-3.276-.847-1.695-1.892-1.092-1.891 2.069-1.891 3.276zm-6.674 3.852c0 1.206.847 1.695 1.892 1.092s1.891-2.07 1.891-3.276-.847-1.695-1.891-1.092c-1.045.603-1.892 2.07-1.892 3.276z"/><path fill="#D4ECFF" d="M117.971 287.938c0 1.206.847 1.695 1.892 1.092s1.891-2.07 1.891-3.276-.847-1.695-1.891-1.092-1.892 2.07-1.892 3.276z"/><path fill="#173D7A" d="M111.299 291.791c0 1.206.847 1.695 1.891 1.092 1.045-.603 1.892-2.07 1.892-3.276s-.847-1.695-1.892-1.092c-1.044.603-1.891 2.069-1.891 3.276zm-28.111 19.687l3.887-2.244c.581-.335 1.051-1.234 1.051-2.009v-4.113c0-.774-.471-1.13-1.051-.795l-3.887 2.244c-.581.335-1.051 1.234-1.051 2.009v4.113c0 .775.471 1.131 1.051.795z"/><path fill="#5793CE" d="M77.581 351.1l82.043-47.367c1.836-1.06 3.325-3.904 3.325-6.353v-15.644c0-2.448-1.488-3.574-3.325-2.514l-82.043 47.367c-1.836 1.06-3.325 3.904-3.325 6.353v15.644c0 2.449 1.488 3.574 3.325 2.514z"/><path opacity=".4" fill="#D4ECFF" d="M79.936 345.615l77.332-44.648c.932-.538 1.687-1.981 1.687-3.223v-11.761c0-1.242-.755-1.813-1.687-1.275l-77.332 44.648c-.932.538-1.687 1.981-1.687 3.223v11.761c0 1.242.755 1.813 1.687 1.275z"/><path fill="#D4ECFF" d="M141.152 304.326l11.541-6.663c.905-.522 1.638-1.924 1.638-3.13s-.733-1.761-1.638-1.238l-11.541 6.663c-.905.522-1.638 1.923-1.638 3.13 0 1.206.733 1.76 1.638 1.238z"/><path fill="#FFF" d="M129.208 309.313c0 2.278 1.6 3.202 3.573 2.063 1.973-1.139 3.573-3.91 3.573-6.188 0-2.279-1.6-3.202-3.573-2.063-1.973 1.139-3.573 3.909-3.573 6.188z"/><path fill="#173D7A" d="M115.387 317.4c0 1.206.847 1.695 1.891 1.092 1.045-.603 1.892-2.07 1.892-3.276s-.847-1.695-1.892-1.092c-1.044.603-1.891 2.07-1.891 3.276z"/><path fill="#D4ECFF" d="M108.714 321.253c0 1.206.847 1.695 1.892 1.092s1.891-2.07 1.891-3.276-.847-1.695-1.891-1.092c-1.045.603-1.892 2.07-1.892 3.276z"/><path fill="#173D7A" d="M102.041 325.106c0 1.206.847 1.695 1.892 1.092s1.891-2.07 1.891-3.276-.847-1.695-1.891-1.092c-1.045.603-1.892 2.07-1.892 3.276z"/><path fill="#D4ECFF" d="M83.188 339.065l3.887-2.244c.581-.335 1.051-1.234 1.051-2.009v-4.113c0-.774-.471-1.13-1.051-.795l-3.887 2.244c-.581.335-1.051 1.234-1.051 2.009v4.113c0 .775.471 1.13 1.051.795z"/><linearGradient id="a" gradientUnits="userSpaceOnUse" x1="279.918" y1="21.938" x2="405.322" y2="109.855"><stop offset="0" stop-color="#1e34b4"/><stop offset="1" stop-color="#4d87f4"/></linearGradient><path fill="url(#a)" d="M398.588 111.748c.405-10.977-5.761-23.838-14.645-31.989.011-.19.027-.375.035-.568.503-13.653-9.154-30.227-21.57-37.019-4.658-2.548-9.042-3.357-12.728-2.653-4.081-14.466-14.516-28.78-27.056-35.641-16.622-9.094-30.642-1.648-31.316 16.631-.094 2.553.086 5.182.496 7.841-7.863-3.102-14.591-1.062-17.978 4.892l-.025-.006-7.226 10.301 5.081 2.719c1.259 12.735 10.195 26.847 21.41 32.982l82.132 44.933c4.19 2.292 8.146 3.147 11.585 2.789l1.797 4.704 5.39-7.935-.007-.017c2.724-2.613 4.43-6.671 4.625-11.964z"/><linearGradient id="b" gradientUnits="userSpaceOnUse" x1="260.733" y1="26.491" x2="385.367" y2="105.448"><stop offset="0" stop-color="#3e6ee1"/><stop offset=".979" stop-color="#6bbdf6"/></linearGradient><path fill="url(#b)" d="M377.072 90.198c.011-.189.027-.375.035-.567.503-13.653-9.154-30.227-21.57-37.019-4.657-2.548-9.042-3.358-12.728-2.653-4.081-14.466-14.516-28.78-27.056-35.641-16.622-9.094-30.642-1.648-31.316 16.631-.094 2.552.086 5.182.496 7.841-11.021-4.347-19.847 1.363-20.308 13.868-.503 13.653 9.154 30.227 21.57 37.019l82.132 44.933c12.415 6.792 22.888 1.231 23.391-12.422.404-10.978-5.762-23.839-14.646-31.99z"/><linearGradient id="c" gradientUnits="userSpaceOnUse" x1="190.104" y1="27.691" x2="288.368" y2="96.582"><stop offset="0" stop-color="#1e34b4"/><stop offset="1" stop-color="#4d87f4"/></linearGradient><path fill="url(#c)" d="M283.092 98.064c.317-8.601-4.514-18.679-11.475-25.066.009-.149.022-.294.027-.445.394-10.698-7.173-23.685-16.902-29.007-3.65-1.997-7.085-2.631-9.974-2.079-3.198-11.335-11.374-22.552-21.201-27.928-13.025-7.126-24.011-1.291-24.539 13.032-.074 2 .068 4.061.389 6.144-6.162-2.43-11.433-.832-14.087 3.833l-.019-.005-5.662 8.072 3.981 2.13c.986 9.979 7.989 21.037 16.776 25.844l64.357 35.209c3.283 1.796 6.383 2.466 9.078 2.185l1.408 3.686 4.223-6.218-.005-.013c2.135-2.046 3.472-5.226 3.625-9.374z"/><linearGradient id="d" gradientUnits="userSpaceOnUse" x1="175.071" y1="31.259" x2="272.733" y2="93.128"><stop offset="0" stop-color="#3e6ee1"/><stop offset=".979" stop-color="#6bbdf6"/></linearGradient><path fill="url(#d)" d="M266.233 81.178c.009-.148.022-.294.027-.445.394-10.698-7.173-23.685-16.902-29.007-3.65-1.997-7.085-2.631-9.974-2.079-3.198-11.335-11.374-22.552-21.2-27.928-13.025-7.126-24.011-1.291-24.539 13.032-.074 2 .067 4.061.389 6.144-8.636-3.406-15.552 1.068-15.913 10.867-.394 10.698 7.173 23.685 16.902 29.007l64.357 35.209c9.728 5.322 17.934.964 18.328-9.734.317-8.601-4.514-18.678-11.475-25.066z"/><g><path opacity=".5" fill="#092E63" d="M479.887 340.564c-22.305 12.878-58.469 12.877-80.774-.001-22.306-12.878-22.306-33.757-.001-46.635s58.469-12.877 80.774.001 22.306 33.757.001 46.635z"/><path fill="#FF2E68" d="M510.499 272.512v-19.934h-3.763c-3.38-5.819-9.007-11.298-17.033-15.931-27.728-16.009-72.682-16.009-100.409 0-8.026 4.633-13.653 10.112-17.033 15.931h-3.758v19.827h.005c-.048 10.527 6.876 21.062 20.787 29.094 27.728 16.009 72.682 16.009 100.409.002 13.865-8.005 20.796-18.498 20.795-28.989z"/><path fill="#C62255" d="M489.703 236.647c-13.863-8.004-32.032-12.006-50.202-12.007v88.865c18.17 0 36.34-4.001 50.203-12.005 13.864-8.004 20.796-18.498 20.794-28.989v-19.934h-3.763c-3.38-5.818-9.007-11.297-17.032-15.93z"/><linearGradient id="e" gradientUnits="userSpaceOnUse" x1="368.499" y1="252.578" x2="510.499" y2="252.578"><stop offset="0" stop-color="#ff2e68"/><stop offset=".343" stop-color="#fb306b"/><stop offset=".661" stop-color="#f03675"/><stop offset=".969" stop-color="#dd4085"/><stop offset="1" stop-color="#db4187"/></linearGradient><path fill="url(#e)" d="M489.704 281.564c-27.727 16.008-72.682 16.008-100.409-.001-27.728-16.009-27.728-41.963-.001-57.971 27.727-16.008 72.681-16.008 100.409.001 27.727 16.008 27.728 41.963.001 57.971z"/><path fill="#FFF" d="M489.704 281.563c-27.727 16.009-72.682 16.009-100.409 0-13.288-7.672-20.136-17.629-20.688-27.682-.599 10.922 6.249 21.955 20.688 30.291 27.728 16.009 72.682 16.009 100.409 0 14.439-8.336 21.286-19.367 20.687-30.289-.551 10.05-7.399 20.008-20.687 27.68z"/><path fill="#FFF" d="M411.194 254.372l27.797-16.048c3.143-1.815 8.505-1.028 9.766 1.433l11.686 22.795c1.32 2.574-2.827 4.968-7.285 4.206l-39.483-6.747c-4.262-.728-5.624-3.824-2.481-5.639z"/></g></svg>