<svg version="1.0" xmlns="http://www.w3.org/2000/svg" width="229" height="422"><path fill="#012AB8" d="M110.811 389.053c-13.022 7.7-12.532 19.997 1.093 27.466 13.625 7.469 35.227 7.281 48.249-.419 13.022-7.7 12.532-19.997-1.093-27.466-13.625-7.469-35.227-7.281-48.249.419z" opacity=".5"/><path fill="#FFBA00" d="M182.738 291.638l-.813-1.877-11.914-7.308a21.2 21.2 0 00-1.038-.611l-.34-.2-.014.007c-8.116-4.305-19.037-3.425-31.06 3.706-25.045 14.855-45.348 51.143-45.348 81.051 0 14.21 4.589 24.412 12.086 29.626l-.017-.002.142.084c.781.535 10.096 6.526 10.938 6.953l3.211-1.426 4.288 2.833c6.557.51 14.117-1.453 22.174-6.232 25.045-14.855 45.348-51.143 45.348-81.051-.002-11.134-2.819-19.809-7.643-25.553zm-37.707 82.1c-13.713 8.133-24.829 1.452-24.829-14.924s11.117-36.244 24.829-44.378c13.713-8.133 24.829-1.452 24.829 14.924 0 16.376-11.117 36.245-24.829 44.378z"/><path d="M123.467 296.392l28.379 15.142a18.107 18.107 0 012.841-.499V295.09l-17.644-9.414c-4.735 2.872-9.294 6.507-13.576 10.716zm14.424 105.41v-25.08c-9.172 2.157-16.11-3.172-17.449-13.96l-26.128-13.941c-1.365 5.965-2.105 11.891-2.105 17.585 0 5.013.582 9.515 1.65 13.487l42.298 22.569a39.974 39.974 0 001.734-.66zm-17.569-45.974c.387-4.97 1.713-10.166 3.747-15.192v-.77l-22.477-11.993c-2.274 4.881-4.194 9.892-5.69 14.925l24.42 13.03zm-2.813-23.795v-4.483l-12.447-6.521a116.345 116.345 0 00-1.851 3.513l14.298 7.491zm17.973-19.148v-4.483l-15.673-8.211a99.97 99.97 0 00-2.673 3.083l18.346 9.611z" fill="#FFDA00"/><path fill="#FFE500" d="M149.719 292.72c-24.945 15.022-45.348 51.143-45.348 81.052 0 29.908 20.303 42.112 45.348 27.257 25.046-14.855 45.509-51.143 45.348-81.052-.16-29.912-20.66-42.124-45.348-27.257zm0 83.806c-13.712 8.133-24.829 1.451-24.829-14.924 0-16.376 11.117-36.244 24.829-44.377 13.713-8.133 24.83-1.452 24.83 14.924 0 16.374-11.117 36.243-24.83 44.377z"/><path fill="#FF8F00" d="M195.068 320.449c0-29.908-20.303-42.112-45.348-27.257-25.045 14.855-45.348 51.143-45.348 81.051 0 29.909 20.303 42.112 45.348 27.257 25.045-14.855 45.348-51.143 45.348-81.051zm-70.178 41.624c0-16.376 11.117-36.244 24.829-44.377 13.713-8.134 24.83-1.452 24.83 14.924 0 16.376-11.117 36.244-24.83 44.377-13.712 8.133-24.829 1.451-24.829-14.924z"/><path fill="#FF7200" d="M189.252 323.427c0-26.073-17.699-36.711-39.533-23.761-21.833 12.95-39.532 44.584-39.532 70.657 0 26.072 17.699 36.711 39.532 23.761 21.833-12.95 39.533-44.584 39.533-70.657z"/><path fill="#FFBA00" d="M186.39 325.124c0-24.185-16.418-34.054-36.671-22.041-20.252 12.012-36.671 41.357-36.671 65.542 0 24.185 16.418 34.054 36.671 22.042 20.253-12.013 36.671-41.357 36.671-65.543z"/><path fill="#FD0" d="M173.684 299.529l-59.9 59.9c-.481 3.116-.735 6.195-.735 9.195 0 9.483 2.532 16.751 6.821 21.376l66.486-66.486c-.386-12.352-5.215-20.709-12.672-23.985zm-38.717 96.188c12.531-12.191 30.343-30.239 47.102-47.4 1.532-4.328 2.689-8.707 3.42-13.026l-59.176 59.176c2.604 1.037 5.515 1.462 8.654 1.25z"/><path fill="#FD0" d="M149.719 303.914c20.136-11.943 36.475-2.251 36.662 21.631.001-.14.009-.281.009-.421 0-24.185-16.418-34.054-36.671-22.041-20.252 12.012-36.671 41.357-36.671 65.542 0 .139.008.272.009.41.188-24.104 16.526-53.178 36.662-65.121z"/><path fill="#FFFA00" d="M167.979 343.745c0 4.595-1.147 9.118-3.441 13.566-2.294 4.451-5.073 8.312-8.335 11.585v5.656c0 1.118-.026 1.992-.076 2.618-.052.626-.217 1.396-.497 2.309a7.186 7.186 0 01-1.376 2.51c-.638.762-1.491 1.535-2.562 2.319-1.07.784-1.925 1.262-2.562 1.434-.638.172-1.083-.017-1.338-.566a4.924 4.924 0 01-.459-1.608c-.051-.523-.076-1.373-.076-2.551v-5.478c-2.091 1.002-3.976 1.499-5.658 1.494-1.682-.005-2.856-.235-3.518-.692l-.994-.774c-1.07-.806-1.606-1.651-1.606-2.535 0-1.472.867-3.816 2.6-7.03 1.019-1.865 2.064-3.192 3.135-3.976 1.223-.896 2.726-.966 4.511-.212l.383.162c1.579 1.083 3.364.894 5.352-.563 3.772-2.763 5.658-5.942 5.658-9.536 0-1.295-.714-1.774-2.14-1.437-1.428.339-3.161.977-5.2 1.91a39.213 39.213 0 01-6.117 2.228c-2.039.552-3.773.202-5.2-1.051-1.427-1.252-2.14-3.675-2.14-7.269 0-3.476.968-7.337 2.905-11.584 1.937-4.247 4.613-8.033 8.029-11.361v-4.949c0-1.177.025-2.064.076-2.663.05-.596.203-1.342.459-2.236.255-.894.714-1.729 1.376-2.51.662-.78 1.529-1.563 2.6-2.347 1.377-1.008 2.409-1.425 3.096-1.252.689.173 1.082.607 1.185 1.297.102.691.153 1.774.153 3.246v4.948c1.427-.692 2.727-1.143 3.9-1.356 1.172-.209 1.988-.277 2.446-.201l.689.202.306.042c1.273.423 1.911 1.044 1.911 1.869 0 .943-.511 2.672-1.529 5.185-1.376 3.366-2.779 5.571-4.205 6.616-.918.672-1.963.968-3.135.883a6.88 6.88 0 00-.689-.202 4.814 4.814 0 00-.994-.156c-.306-.011-.791.124-1.453.402-.664.28-1.453.756-2.37 1.427-.969.71-1.887 1.752-2.753 3.122-.867 1.372-1.3 2.647-1.3 3.824 0 1.414.522 2.136 1.568 2.165 1.044.03 2.333-.384 3.861-1.238a41.84 41.84 0 015.047-2.372c1.835-.725 3.517-1.236 5.046-1.531 1.529-.295 2.816.22 3.862 1.545 1.045 1.326 1.569 3.55 1.569 6.672z"/><path fill="#FF8F00" d="M167.979 342.965c0 4.595-1.147 9.117-3.441 13.566-2.294 4.451-5.073 8.312-8.335 11.585v5.656c0 1.119-.026 1.992-.076 2.618-.052.626-.217 1.397-.497 2.309a7.186 7.186 0 01-1.376 2.51c-.638.762-1.491 1.535-2.562 2.319-1.07.784-1.925 1.262-2.562 1.434-.638.172-1.083-.017-1.338-.566a4.924 4.924 0 01-.459-1.608c-.051-.523-.076-1.373-.076-2.551v-5.479c-2.091 1.002-3.976 1.499-5.658 1.494-1.682-.005-2.856-.235-3.518-.692l-.994-.774c-1.07-.806-1.606-1.651-1.606-2.535 0-1.472.867-3.816 2.6-7.03 1.019-1.865 2.064-3.192 3.135-3.976 1.223-.896 2.726-.966 4.511-.212l.383.162c1.579 1.083 3.364.894 5.352-.563 3.772-2.763 5.658-5.942 5.658-9.536 0-1.295-.714-1.774-2.14-1.437-1.428.339-3.161.977-5.2 1.91a39.213 39.213 0 01-6.117 2.228c-2.039.552-3.773.202-5.2-1.051-1.427-1.252-2.14-3.675-2.14-7.269 0-3.476.968-7.337 2.905-11.584 1.937-4.247 4.613-8.033 8.029-11.361v-4.949c0-1.178.025-2.064.076-2.663.05-.596.203-1.342.459-2.236.255-.894.714-1.729 1.376-2.51.662-.78 1.529-1.563 2.6-2.347 1.377-1.008 2.409-1.425 3.096-1.253.689.173 1.082.607 1.185 1.297.102.691.153 1.774.153 3.246v4.948c1.427-.692 2.727-1.143 3.9-1.356 1.172-.209 1.988-.277 2.446-.201l.689.202.306.042c1.273.423 1.911 1.044 1.911 1.869 0 .943-.511 2.672-1.529 5.185-1.376 3.366-2.779 5.571-4.205 6.616-.918.672-1.963.968-3.135.883a7.072 7.072 0 00-.689-.203 4.814 4.814 0 00-.994-.156c-.306-.011-.791.124-1.453.402-.664.28-1.453.756-2.37 1.427-.969.71-1.887 1.751-2.753 3.122-.867 1.372-1.3 2.647-1.3 3.824 0 1.414.522 2.136 1.568 2.165 1.044.03 2.333-.384 3.861-1.238a41.84 41.84 0 015.047-2.372c1.835-.725 3.517-1.236 5.046-1.532 1.529-.295 2.816.22 3.862 1.545 1.045 1.33 1.569 3.554 1.569 6.676z"/><path fill="#FFBA00" d="M61.316 23.059C52.045 10.466 32.249 1.482 17.099 2.991c-4.873.485-8.664 2.001-11.267 4.249l-.927 2.522-1.794.395c-.222.441-2.287 5.85-2.45 6.317l-.034.079.007-.006c-1.54 4.519-.31 10.237 4.094 16.22 9.271 12.592 29.067 21.577 44.216 20.068 7.272-.724 12.144-3.739 14.226-8.067l.008-.002.081-.19c.088-.191.171-.383.248-.579l2.751-6.77-.239-1.042c.251-3.914-1.253-8.439-4.703-13.126zm-12.412 1.236c5.076 6.895 2.467 13.153-5.828 13.98-8.295.826-19.133-4.093-24.209-10.988-5.076-6.894-2.467-13.153 5.828-13.98 8.294-.826 19.133 4.093 24.209 10.988z"/><path d="M39.591 52.555l7.255-15.172c.485-.198.939-.42 1.351-.67l4.943 6.713-4.51 9.432c-2.886.26-5.932.143-9.039-.303zM12.99 3.704l7.774 10.559c-4.53 1.935-5.799 6.329-3.019 11.286l-6.679 13.968c-2.423-2.088-4.572-4.354-6.337-6.751-1.554-2.111-2.704-4.186-3.486-6.19L12.055 3.963c.305-.092.618-.177.935-.259zm6.853 24.802c1.704 1.972 3.872 3.749 6.286 5.235l.239.324-5.746 12.017a57.049 57.049 0 01-7.022-4.52l6.243-13.056zm6.192 10.891l1.389 1.887-3.219 6.603a58.421 58.421 0 01-1.868-.906l3.698-7.584zm13.502 2.491l1.39 1.887-4.054 8.315c-.692-.14-1.386-.3-2.081-.469l4.745-9.733z" fill="#FFDA00"/><path fill="#FFE500" d="M62.426 20.432C53.222 7.79 33.359-1.145 18.209.364 3.06 1.873-1.705 13.304 7.566 25.896s29.057 21.476 44.216 20.068c15.002-1.393 19.848-12.888 10.644-25.532zm-12.412 1.236c5.076 6.895 2.467 13.153-5.828 13.98-8.294.826-19.133-4.093-24.209-10.988-5.076-6.894-2.467-13.153 5.828-13.98 8.294-.826 19.133 4.094 24.209 10.988z"/><path fill="#FF8F00" d="M18.063.165C2.914 1.674-1.851 13.105 7.42 25.698c9.27 12.592 29.066 21.577 44.215 20.068 15.149-1.509 19.915-12.94 10.644-25.532C53.009 7.641 33.213-1.344 18.063.165zm7.596 10.317c8.295-.826 19.133 4.093 24.209 10.988 5.076 6.894 2.467 13.153-5.828 13.979-8.294.826-19.133-4.093-24.209-10.988-5.076-6.894-2.467-13.153 5.828-13.979z"/><path fill="#FF7200" d="M20.362 3.288c-13.206 1.315-17.36 11.28-9.279 22.258 8.082 10.977 25.339 18.81 38.545 17.495 13.206-1.316 17.361-11.281 9.279-22.258C50.826 9.805 33.569 1.972 20.362 3.288z"/><path fill="#FFBA00" d="M21.421 4.727c-12.25 1.22-16.104 10.464-8.607 20.647s23.505 17.448 35.755 16.228c12.25-1.22 16.104-10.464 8.607-20.647C49.68 10.772 33.672 3.507 21.421 4.727z"/><path fill="#FD0" d="M57.661 21.643L9.06 14.259c-.372 3.277.815 7.122 3.754 11.114a31.555 31.555 0 003.16 3.644l43.787 6.652c2.124-3.69 1.567-8.705-2.1-14.026zM10.389 10.382l43.257 6.572a40.955 40.955 0 00-5.478-4.424C35.793 10.499 22.7 8.422 13.645 7.173c-1.387.884-2.481 1.965-3.256 3.209z"/><path fill="#FFED00" d="M48.108 25.45c1.289 1.768 1.641 3.222 1.055 4.361-.586 1.14-1.724 1.932-3.413 2.378l1.587 2.176c.314.43.538.76.674.988.134.228.217.483.25.764.032.281-.101.488-.396.623-.296.134-.762.218-1.397.253-.636.035-1.185.005-1.645-.087a2.939 2.939 0 01-1.229-.552 5.859 5.859 0 01-.818-.733 15.435 15.435 0 01-.777-1l-1.537-2.108a20.38 20.38 0 01-4.105-.837c-1.346-.422-2.349-.803-3.006-1.144l-1.012-.546c-1.082-.577-1.747-1.036-1.995-1.376-.413-.566-.378-1.252.107-2.056.291-.464.755-.713 1.391-.747.726-.04 1.909.309 3.547 1.044l.351.158c1.566.811 2.941 1.184 4.121 1.119 2.24-.122 2.857-.874 1.848-2.257-.363-.498-1.068-.861-2.114-1.087a35.794 35.794 0 00-3.622-.563 47.926 47.926 0 01-4.265-.669c-1.476-.296-2.96-.864-4.452-1.702a11.656 11.656 0 01-3.751-3.331c-.975-1.337-1.285-2.582-.927-3.732.357-1.151 1.435-1.94 3.232-2.367l-1.389-1.904c-.33-.453-.559-.788-.686-1.005a2.156 2.156 0 01-.26-.746c-.047-.28.085-.487.396-.623.311-.134.784-.219 1.42-.254.818-.044 1.526.053 2.125.291s1.035.504 1.311.795c.276.292.62.721 1.033 1.287l1.388 1.904c.946.09 1.859.241 2.738.452.878.212 1.512.389 1.899.533l.607.25.256.092c1.137.481 1.821.879 2.052 1.196.265.363.342.901.232 1.613-.156.952-.659 1.45-1.506 1.496-.545.03-1.299-.118-2.259-.443a21.84 21.84 0 00-1.446-.557 6.138 6.138 0 00-1.049-.208 8.318 8.318 0 00-1.495-.043c-.575.031-1.017.203-1.325.514-.308.312-.296.694.034 1.147.397.544 1.016.952 1.86 1.224.843.272 1.757.435 2.74.487.983.053 2.106.168 3.37.347 1.264.179 2.465.402 3.605.67 1.14.268 2.313.788 3.521 1.558 1.208.77 2.25 1.756 3.126 2.957z"/><path fill="#FF8F00" d="M47.859 25.081c1.289 1.768 1.641 3.222 1.055 4.361-.586 1.14-1.724 1.932-3.413 2.378l1.587 2.176c.314.43.538.76.674.988.135.228.217.483.25.764.032.281-.101.488-.396.623-.296.134-.762.218-1.397.253-.636.035-1.185.005-1.645-.087a2.939 2.939 0 01-1.229-.552 5.859 5.859 0 01-.818-.733 15.435 15.435 0 01-.777-1l-1.537-2.108a20.38 20.38 0 01-4.105-.837c-1.346-.422-2.349-.803-3.006-1.144l-1.012-.546c-1.082-.577-1.747-1.036-1.996-1.376-.413-.566-.378-1.252.107-2.056.291-.464.755-.713 1.391-.747.726-.04 1.909.309 3.547 1.044l.351.158c1.566.811 2.941 1.184 4.121 1.119 2.24-.122 2.857-.874 1.848-2.257-.363-.498-1.068-.861-2.114-1.087a35.839 35.839 0 00-3.622-.563 47.926 47.926 0 01-4.265-.669c-1.476-.296-2.96-.864-4.452-1.702a11.656 11.656 0 01-3.751-3.331c-.975-1.337-1.285-2.582-.927-3.732.357-1.151 1.435-1.94 3.232-2.367l-1.389-1.904c-.33-.453-.559-.788-.686-1.005a2.156 2.156 0 01-.26-.746c-.047-.28.085-.487.396-.623.311-.134.784-.219 1.42-.254.818-.044 1.526.053 2.125.291s1.035.504 1.311.795c.276.292.62.721 1.033 1.287l1.388 1.904c.946.09 1.859.241 2.738.452.878.212 1.512.389 1.899.533l.607.25.256.092c1.137.481 1.821.879 2.052 1.196.265.363.342.901.232 1.613-.156.952-.659 1.45-1.506 1.496-.545.03-1.299-.118-2.259-.443a21.84 21.84 0 00-1.446-.557 6.138 6.138 0 00-1.049-.208 8.232 8.232 0 00-1.495-.042c-.575.031-1.017.203-1.325.514-.308.312-.296.694.034 1.147.397.544 1.016.952 1.86 1.224.843.272 1.757.435 2.74.487.983.053 2.106.168 3.37.347 1.264.179 2.465.402 3.605.67 1.14.268 2.313.788 3.521 1.558a11.474 11.474 0 013.127 2.956z"/><path fill="#FF8F00" d="M30.987 17.72c-3.617.36-4.755 3.09-2.542 6.097 2.214 3.007 6.941 5.152 10.558 4.792 3.617-.36 4.755-3.09 2.542-6.097-2.213-3.007-6.94-5.153-10.558-4.792z" opacity=".5"/><path fill="#FD0" d="M48.312 41.252c12.18-1.213 16.054-10.358 8.731-20.471.044.059.091.116.134.174 7.497 10.183 3.643 19.426-8.607 20.647-12.25 1.22-28.258-6.045-35.755-16.228-.043-.059-.081-.117-.123-.175 7.549 10.089 23.44 17.266 35.62 16.053z"/><path fill="#464C4C" d="M161.312 103.774c-5.211-.402-42.384 26.925-42.384 26.925s.809 4.843 5.094 4.01c4.285-.834 32.183-22.46 34.968-22.459 2.785.001 4.985 13.475 4.376 15.456 4.575.285 5.102.237 5.102.237s-1.945-23.767-7.156-24.169zM121.565 90.81l.442 6.181C141.2 93.214 167.8 66.739 167.8 66.739s-1.982-3.817-4.847-6.795c-9.678 11.34-41.388 30.866-41.388 30.866z"/><path fill="#FE7000" d="M70.649 202.73l-.036-.037-.015-.051-.022.013-4.985-5.149s-20.433-8.831-42.926 18.896a127142.414 127142.414 0 00-22.308 27.5l-.236.138.144-.026-.092.114.236-.137 34.883-6.092c35.169-6.147 37.407-28.293 37.407-28.293l-2.07-6.862.02-.014z"/><path fill="#FBB503" d="M68.112 204.21l-.027-.032-.015-.039-.012.007-3.78-4.264s-14.668-8.111-28.311 11.557l-13.531 19.505-.153.091.098-.01c-.056.079-.056.081-.056.081l.152-.091c.771-.075 4.599-.45 23.627-2.32 23.822-2.337 23.881-19.099 23.881-19.099l-1.885-5.378.012-.008z"/><path fill="#FEDE35" d="M66.592 205.092l.007-.005-.019-.024-.013-.03-.007.005-2.689-3.474s-9.449-7.479-15.043 4.886l-5.548 12.262-.079.046.055.004-.022.05.077-.044 13.413 1.125c13.523 1.135 11.591-10.76 11.591-10.76l-1.723-4.041z"/><path fill="#DDD" d="M57.694 193.654l14.377 24.479 21.082-5.867-22.554-32.379z"/><path fill="#FBFBFB" d="M62.071 201.107l2.653 4.516 17.005-9.758-4.219-6.056zm4.018 6.841l1.285 2.187 17.239-10.128-1.452-2.088z"/><path fill="#FC4400" d="M91.797 209.956s5.965 6.771-11.134 27.081c54.377 3.183 50.369-45.488 50.369-45.488s-19.55 4.524-39.235 18.407z"/><path fill="#FC4400" d="M72.306 178.75a1.158 1.158 0 00-1.578-.43l-5.051 2.967a1.157 1.157 0 00-.394 1.588l20.069 34.166c.327.557 1.034.75 1.577.429l5.052-2.967a1.156 1.156 0 00.393-1.588L72.306 178.75z"/><path fill="#DDD" d="M67.554 179.067l22.312 37.986s94.665-19.981 139.013-107.668c0 0-96.369-5.266-161.325 69.682z"/><path fill="#FC4400" d="M185.947 113.192c5.885 6.881 14.672 18.579 19.527 31.896a190.988 190.988 0 0023.406-35.704c-.001.001-17.65-.963-42.933 3.808z"/><path fill="#8B9594" d="M67.554 179.067l22.312 37.986s5.056-1.068 13.374-3.791l-26.114-44.455a193.104 193.104 0 00-9.572 10.26z"/><path opacity=".18" d="M227.312 112.409C182.343 197.53 89.866 217.053 89.866 217.053l-8.658-14.74c0-.001 89.868-21.179 146.104-89.904z"/><circle fill="#C1C1C1" cx="156.103" cy="158.057" r="16.004"/><circle fill="#F1EBEB" cx="156.119" cy="156.391" r="16.004"/><circle fill="#81DBE1" cx="156.119" cy="156.391" r="11.908"/><path fill="#68AFB4" d="M150.088 146.124a11.882 11.882 0 00-5.775 8.733 11.865 11.865 0 015.03-5.867c5.671-3.33 12.968-1.434 16.299 4.237a11.84 11.84 0 011.538 7.565 11.883 11.883 0 00-.794-10.432c-3.331-5.671-10.628-7.568-16.298-4.236z"/><circle fill="gray" cx="184.978" cy="116.216" r=".971"/><circle fill="gray" cx="84.151" cy="175.441" r=".971"/><circle fill="gray" cx="86.419" cy="179.302" r=".97"/><circle fill="gray" cx="88.687" cy="183.162" r=".97"/><circle fill="gray" cx="90.954" cy="187.023" r=".97"/><circle fill="gray" cx="93.222" cy="190.884" r=".97"/><circle fill="gray" cx="95.49" cy="194.744" r=".97"/><circle fill="gray" cx="97.758" cy="198.605" r=".97"/><circle fill="gray" cx="187.739" cy="119.788" r=".97"/><circle fill="gray" cx="190.577" cy="123.831" r=".971"/><circle fill="gray" cx="193.531" cy="127.731" r=".97"/><circle fill="gray" cx="196.171" cy="132.228" r=".97"/><circle fill="gray" cx="198.596" cy="136.355" r=".97"/><circle fill="gray" cx="200.383" cy="140.526" r=".971"/><circle fill="gray" cx="202.391" cy="144.732" r=".97"/><path fill="#C1C1C1" d="M97.347 206.273a345.665 345.665 0 01-4.603 6.476c.304 2.763-.427 7.768-5.715 15.84 27.39-10.621 38.774-20.331 43.457-26.984.891-5.853.546-10.056.546-10.056s-16.036 3.711-33.685 14.724z"/><path fill="#FC4400" d="M97.278 202.994c-5.549 11.876-10.562 16.368-23.07 23.054 53.554-20.41 55.087-35.01 55.087-35.01-4.597-1.057-24.463 5.752-32.017 11.956z"/><path opacity=".5" fill="#FBFBFB" d="M70.103 183.408l3.559 6.058c20.841-22.721 68.045-65.176 140.192-79.801-3.671.229-7.918.593-12.641 1.164-34.515 7.176-88.657 25.565-131.11 72.579z"/><ellipse transform="rotate(-128.875 89.773 169.102)" fill="#C1C1C1" cx="89.771" cy="169.099" rx="5.269" ry="24.206"/><path fill="#FC4400" d="M44.153 174.88c26.066-5.045 29.074 3.463 29.074 3.463 21.712-10.434 35.183-25.306 35.183-25.306s-40.56-27.201-64.257 21.843z"/><path fill="#464C4C" d="M135.855 97.436c-.543-9.511-7.317-16.716-9.159-14.996 0 0-26.514 21.859-16.892 60.263 9.733 2.851 25.226-11.785 28.346-15.125-4.741-13.122-6.445-23.214-2.295-30.142z"/><path fill="#FFF" d="M127.023 82.893l4.234 4.448 5.298-3.815-4.291-5.761z"/><path fill="#FFF" d="M126.696 82.44s6.276 9.399 5.817 22.463c1.095-8.335 1.283-14.705-1.084-18.271l-4.733-4.192z"/><path fill="#666" d="M127.424 92.613c2.041 1.645 2.443 3.108 2.443 3.108l-1.437.6s3.226 6.335 4.266 12.527c-.375-9.72-.3-19.973-6.015-26.627 0 0 1.642 6.746.743 10.392z"/><path fill="#FEDBB6" d="M151.65 107.727c-.251.045-.423.134-.423.134s.18-.036.423-.134zm-1.026-3.236c-.085.072-.136.122-.136.122s.055-.046.136-.122z"/><path fill="#FEDBB6" d="M151.65 107.727c-.243.098-.423.134-.423.134s.171-.089.423-.134c.709-.285 1.963-1.106.909-3.163-.555-1.084-1.57-.38-1.935-.073-.081.076-.136.122-.136.122s.05-.05.136-.122c.452-.425 1.822-1.924.325-3.293-.942-.861-2.675.689-2.675.689s-1.432-1.091-3.952-.314c-2.52.777-.457 6.909-.457 6.909l1.14 2.635s3.118.628 5.012.692 3.802-2.478 3.032-3.499c-.462-.614-1.022-.65-1.399-.583z"/><path fill="#FFF" d="M142.628 108.475l1.784 3.734 1.434-1.152-2.008-3.581z"/><path fill="#464C4C" d="M142.707 107.656l.006.01c.085-.058-.006-.01-.006-.01zm-11.543 6.827C118.231 122.04 121.98 97.5 121.98 97.5l-7.075 12.958s.576 8.065 9.419 11.069 20.754-9.364 20.754-9.364l-2.366-4.495c-.246.166-1.96 1.213-11.548 6.815z"/><path fill="#282B2B" d="M117.541 116.81c.41 1.934 5.684 15.178 18.712 2.263 0 0-11.972 10.478-18.712-2.263zm7.487-2.519c-4.142-1.157-3.46-12.607-3.46-12.607s-1.446 9.377 2.354 12.996c3.801 3.62 11.384-2.621 11.384-2.621s-6.137 3.39-10.278 2.232z"/><path fill="#EACAA7" d="M144.313 104.607l3.961-2.72s-.692.215-1.82.66c-1.129.445-2.141 2.06-2.141 2.06z"/><path fill="#743226" d="M130.692 77.988l-.273.577s.772.127.273-.577z"/><path fill="#743226" d="M133.075 52.748c-5.42 3.968-15.588 15.704-7.784 20.982 3.606 2.438 4.972 3.655 5.401 4.259l10.376-21.934c0-.001-2.574-7.276-7.993-3.307z"/><path fill="#FEDBB6" d="M135.479 54.83s-8.65 12.124-6.083 13.234c-1.725-.474-3.365 3.026-2.481 4.256.884 1.23 3.358 1.053 3.358 1.053s-1.67 3.692 1.478 8.15c5.46 7.733 18.797 2.735 18.797 2.735l-.891-9.221s1.866.131 2.96-3.13c3.711-14.854-17.138-17.077-17.138-17.077z"/><path fill="#E83401" d="M140.671 75.514c-5.344-2.396-1.467 9.302 9.698 6.907l-.555-5.747c-1.894.312-5.403.517-9.143-1.16z"/><path fill="#743226" d="M135.389 53.113l-5.62 4.878s-6.128 10.286-2.085 9.798c4.044-.488 3.309 4.538 3.309 4.538l.495-.035s.53-5.111-.347-10.673c5.047-.614 9.928-5.564 9.928-5.564l-5.68-2.942z"/><path fill="#FE703F" d="M143.281 78.999c-1.183.085-2.242.457-3.041 1.005 1.652 1.604 4.334 2.935 7.966 2.715.072-.257.105-.521.086-.79-.129-1.807-2.373-3.119-5.011-2.93z"/><circle fill="#743226" cx="139" cy="63.483" r="1.176"/><circle fill="#743226" cx="144.42" cy="60.738" r="1.176"/><path fill="#743226" d="M128.045 54.156c-3.846.807-4.745 5.888-3.991 9.783.873.313.619.248.225.132l.178.08c.187.06.374.12.561.176 3.881.741 13.767-5.163 15.882-7.051 2.32-2.07 2.683-9.763-.774-14.149 2.296 3.64-5.227 9.591-12.081 11.029zm-3.907 9.893l-.019-.025c-.471-.142-.955-.295.019.025zm-.019-.025l.16.048a1.04 1.04 0 01-.225-.132l.065.084z"/><path fill="#EACAA7" d="M145.782 73.956c-4.022-.61.859.53 3.875 1.095l-.001-.012s1.866.131 2.96-3.13c.374-1.498.489-2.862.41-4.113-.148.461-2.298 6.909-7.244 6.16zm-15.93 1.383c-.107 1.502.162 3.725 1.898 6.185 5.46 7.733 18.797 2.735 18.797 2.735l-.024-.252c-13.229 3.522-19.077-5.517-20.671-8.668z"/><path d="M167.776 66.763l.024-.024s-1.982-3.817-4.847-6.795c0 0-.808 5.653 4.823 6.819z"/><path fill="#FEDBB6" d="M174.043 59.182c-.251.045-.423.134-.423.134s.18-.036.423-.134zm-1.026-3.236c-.086.072-.136.122-.136.122s.055-.046.136-.122z"/><path fill="#FEDBB6" d="M174.043 59.182c-.243.098-.423.134-.423.134s.172-.089.423-.134c.709-.285 1.962-1.106.909-3.163-.555-1.084-1.57-.38-1.935-.073-.081.076-.136.122-.136.122s.05-.05.136-.122c.452-.425 1.822-1.924.325-3.293-.942-.861-2.675.689-2.675.689s-1.432-1.091-3.952-.314c-2.52.777-1.729 5.885-1.729 5.885l2.412 3.659s3.118.628 5.012.692c1.895.064 3.802-2.478 3.032-3.499-.462-.614-1.022-.65-1.399-.583z"/><path d="M162.917 60.448l.299-.222c-.088-.095-.173-.19-.263-.283 0 .001-.027.192-.036.505z"/><path fill="#FFF" d="M163.215 60.227l-.299.222c-.032 1.034.133 3.428 2.036 5.013l1.339-1.246 1.649-1.534-2.955-3.768-1.77 1.313z"/><path fill="#EACAA7" d="M170.667 53.342s1.133 1.939.402 2.996c-.731 1.058-2.241.659-3.598-.239.658.848.014 2.287-.178 3.535 1.006-.936.995-1.852.563-3.015.915 1.676 3.849.969 3.987-.583.134-1.602-1.176-2.694-1.176-2.694z"/><path fill="#EACAA7" d="M168.743 57.202c1.23 1.901 3.824-.771 3.824-.771-.92 1.012-2.779 1.148-3.824.771z"/><path fill="#EACAA7" d="M170.591 59.398c-.869-.32.119-1.814.119-1.814s-1.85 1.251-.418 2.069 3.442-.365 3.442-.365-2.275.43-3.143.11z"/><path fill="#EACAA7" d="M170.076 61.084c-.533-.757 1.128-1.426 1.128-1.426s-2.234-.02-1.519 1.466c.715 1.487 3.041 1.654 3.041 1.654s-2.117-.937-2.65-1.694z"/><path fill="#FDF2E6" d="M169.406 55.339c.877 1.567.879 1.507 1.244 1.405 0 0 1.443-.732.12-3.208 0-.001-1.144.022-1.364 1.803zm2.239 2.426l-1.204.312s-.629 1.4.535 1.407c1.164.008 1.045-.615 1.045-.615l-.376-1.104zm-.767 2.401s-.698.357-.467 1.159c.757.64 1.294.387 1.481-.106.187-.492-.811-1.001-1.014-1.053z"/><path fill="#464C4C" d="M153.23 113.945c-5.211-.402-42.384 26.925-42.384 26.925s.809 4.843 5.094 4.01c4.285-.834 32.183-22.46 34.968-22.459 2.786.001 4.985 13.475 4.376 15.456 4.575.284 5.102.237 5.102.237s-1.945-23.767-7.156-24.169z"/><path fill="#464C4C" d="M169.32 134.148c-3.316 1.928-14.036 3.73-14.036 3.73l.766 4.175 6.192.228.395-1.432s12.463-.991 12.474-2.226c.011-1.236-2.475-6.404-5.791-4.475z"/><path fill="#E83401" d="M128.981 84.562s-5.414-5.323-25.722-5.536c-17.395 3.425-.768 5.95-.768 5.95s17.6-4.2 25.752.335c8.151 4.536.738-.749.738-.749z"/><path fill="#C1C1C1" d="M114.075 143.371s-2.379-.331 1.865 1.509c4.243 1.84 31.293-8.004 36.836-8.274 1.87-.091 3.343.393 4.382.977-10.242-18.152-43.083 5.788-43.083 5.788z"/><path fill="#C1C1C1" d="M157.157 137.583c.189.335.373.681.546 1.045 1.831 1.64 1.495.102-.546-1.045z"/></svg>