<svg xmlns="http://www.w3.org/2000/svg" width="197" height="34" viewBox="0 0 197 34"><g><g><g><path fill="#333" d="M40.366 9.605l3.096 11.564.109.582h.073l.109-.534 3.145-11.612h3.847l-5.129 15.88h-3.98l-5.117-15.88zm15.278 4.073v11.806h-3.69V13.678zm0-5.212v2.472h-3.69V8.466zm6.351 5.018c1.056 0 1.943.485 2.661 1.455v-6.45h3.69v17.02h-3.194l-.266-1.455c-.742 1.123-1.71 1.685-2.903 1.685-1.436 0-2.557-.53-3.363-1.588-.807-1.059-1.21-2.489-1.21-4.291l-.012-.23c0-1.883.403-3.378 1.21-4.485.806-1.107 1.935-1.661 3.387-1.661zm.943 2.836c-1.234 0-1.851 1.103-1.851 3.31v.23c0 1.002.144 1.76.43 2.273.286.513.752.77 1.397.77.782 0 1.363-.28 1.742-.837V17.29c-.395-.646-.968-.97-1.718-.97zm14.129 1.843c0-1.237-.508-1.855-1.524-1.855-.992 0-1.548.695-1.669 2.085l.036.06h3.157zm-6.967 1.83v-.424c0-1.843.479-3.321 1.439-4.436.96-1.116 2.294-1.67 4.004-1.661 1.597 0 2.849.477 3.756 1.43.908.954 1.361 2.259 1.361 3.915v1.94h-6.726l-.024.06c.081.63.331 1.136.75 1.516.419.38.966.57 1.639.57.674 0 1.212-.049 1.615-.146.403-.097.956-.29 1.657-.582l.871 2.23c-.54.397-1.219.716-2.038.958a9.088 9.088 0 0 1-2.595.364c-1.717 0-3.099-.537-4.143-1.612-1.044-1.075-1.566-2.449-1.566-4.122zm15.314-.497v.23c0 2.118.676 3.177 2.026 3.177 1.351 0 2.027-1.06 2.027-3.176v-.23c0-2.118-.676-3.177-2.027-3.177-1.35 0-2.026 1.06-2.026 3.176zm-3.677.23v-.23c0-1.81.504-3.264 1.512-4.363 1.008-1.1 2.403-1.65 4.185-1.65 1.783 0 3.178.55 4.186 1.65 1.008 1.099 1.512 2.553 1.512 4.363v.23c0 1.819-.504 3.276-1.512 4.37-1.008 1.096-2.403 1.643-4.186 1.643-1.782 0-3.177-.545-4.185-1.636-1.008-1.091-1.512-2.55-1.512-4.376z"/></g><g><path fill="#e32524" d="M104.731 25.485l-.907-3.092h-4.996l-.896 3.091h-3.701l5.117-15.88h3.955l5.13 15.88zm-3.436-11.613l-1.645 5.685h3.363l-1.657-5.685zm12.158-.388c1.056 0 1.943.485 2.661 1.455v-6.45h3.69v17.02h-3.194l-.266-1.455c-.742 1.123-1.71 1.685-2.903 1.685-1.436 0-2.557-.53-3.363-1.588-.807-1.059-1.21-2.489-1.21-4.291l-.012-.23c0-1.883.403-3.378 1.21-4.485.806-1.107 1.935-1.661 3.387-1.661zm.943 2.836c-1.234 0-1.851 1.103-1.851 3.31v.23c0 1.002.144 1.76.43 2.273.286.513.752.77 1.397.77.782 0 1.363-.28 1.742-.837V17.29c-.395-.646-.968-.97-1.718-.97zm14.129 2.328h-2.746v3.988h2.529c1.572 0 2.358-.63 2.358-1.891 0-.703-.171-1.229-.514-1.576-.343-.348-.885-.521-1.627-.521zm-2.746-6.219v3.782h1.827c1.661-.032 2.492-.646 2.492-1.842 0-.679-.206-1.172-.617-1.48-.411-.306-1.061-.46-1.948-.46zm-3.689-2.836h5.443c2.009 0 3.553.368 4.634 1.103 1.08.735 1.62 1.822 1.62 3.26 0 .777-.181 1.455-.544 2.037-.363.582-.907 1.022-1.633 1.321.903.203 1.583.612 2.038 1.23.456.619.684 1.364.684 2.237 0 1.552-.512 2.724-1.536 3.515-1.025.793-2.521 1.188-4.488 1.188l-6.218-.012zm17.976-1.127v17.018h-3.69V8.466zm5.443 11.03v.23c0 2.118.676 3.177 2.027 3.177 1.35 0 2.026-1.06 2.026-3.176v-.23c0-2.118-.676-3.177-2.026-3.177-1.351 0-2.027 1.06-2.027 3.176zm-3.677.23v-.23c0-1.81.504-3.264 1.512-4.363 1.008-1.1 2.403-1.65 4.186-1.65 1.782 0 3.177.55 4.185 1.65 1.008 1.099 1.512 2.553 1.512 4.363v.23c0 1.819-.504 3.276-1.512 4.37-1.008 1.096-2.403 1.643-4.185 1.643-1.783 0-3.178-.545-4.186-1.636-1.008-1.091-1.512-2.55-1.512-4.376zm16.137.013c0 1.042.145 1.83.436 2.364.29.533.782.8 1.475.8.976 0 1.464-.53 1.464-1.588h3.363l.024.06c.024 1.285-.417 2.334-1.324 3.146-.908.812-2.083 1.218-3.527 1.218-1.758 0-3.127-.545-4.106-1.636-.98-1.091-1.47-2.546-1.47-4.364v-.255c0-1.81.488-3.263 1.463-4.358.976-1.094 2.339-1.642 4.089-1.642 1.508 0 2.704.418 3.587 1.254.883.837 1.312 1.974 1.288 3.413l-.024.073h-3.363c0-.582-.127-1.045-.381-1.388-.254-.344-.623-.516-1.107-.516-.677 0-1.161.271-1.451.813-.291.541-.436 1.325-.436 2.351zm11.952 1.054v4.691h-3.69V8.466h3.69v9.54h.484l2.516-4.328h4.21l-3.654 5.333 4.234 6.473h-4.185l-2.988-4.69zm14.915-2.63c0-1.237-.508-1.855-1.524-1.855-.992 0-1.548.695-1.669 2.085l.036.06h3.157zm-6.968 1.83v-.424c0-1.843.48-3.321 1.44-4.436.96-1.116 2.294-1.67 4.004-1.661 1.597 0 2.849.477 3.756 1.43.907.954 1.361 2.259 1.361 3.915v1.94h-6.726l-.024.06c.08.63.33 1.136.75 1.516.419.38.966.57 1.639.57s1.212-.049 1.615-.146c.403-.097.956-.29 1.657-.582l.871 2.23c-.54.397-1.22.716-2.038.958a9.098 9.098 0 0 1-2.595.364c-1.718 0-3.099-.537-4.143-1.612-1.045-1.075-1.567-2.449-1.567-4.122zm15.799 5.492h-3.69V13.678h3.472l.121 1.733c.532-1.3 1.339-1.951 2.42-1.951.387 0 .725.044 1.016.133l-.375 3.333-1.331-.012c-.823 0-1.367.275-1.633.825z"/></g><g><path fill="#e32524" d="M25.281 21.407C21.493 31.774 13.949 34 13.949 34S6.463 31.775 2.704 21.407C-1.055 11.04.205 4.722.205 4.722s3.633-.11 7.497-1.26C11.566 2.315 13.949 0 13.949 0s2.402 2.314 6.296 3.463c3.893 1.15 7.554 1.26 7.554 1.26s1.27 6.317-2.518 16.684zm1.259-15.74s-3.676.114-7.554-1.26a18.91 18.91 0 0 1-5.037-2.711 18.703 18.703 0 0 1-4.998 2.711c-3.849 1.374-7.497 1.26-7.497 1.26s-.889 7.015 2.812 16.055c2.584 6.314 7.408 9.694 9.683 11 2.293-1.306 7.154-4.686 9.758-11 3.729-9.04 2.833-16.055 2.833-16.055zM13.949 30.852V3.148s1.742 1.872 4.998 2.833c3.615 1.068 6.248.945 6.248.945s.471 6.117-2.357 13.664c-3.185 8.495-8.889 10.262-8.889 10.262z"/></g></g></g></svg>