<svg width="14" height="14" viewBox="0 0 14 14" fill="none" xmlns="http://www.w3.org/2000/svg">
<path d="M7.20113 14C4.95084 14 2.93743 12.9341 1.8715 11.8681C0.68714 10.6246 -0.319567 8.25584 0.0949593 5.59103C0.331832 3.93292 1.27932 1.68264 4.24023 0.083747C4.24023 0.0245289 4.41788 -0.0346892 4.59553 0.0245289C4.71397 0.0245289 4.83241 0.142965 4.95084 0.261401C5.01006 0.379838 5.01006 0.61671 4.89162 0.794364C3.11508 3.28152 3.41117 6.65696 5.54302 8.67037C7.61566 10.6246 10.7542 10.743 13.0637 9.02568C13.1229 9.02568 13.1229 8.96646 13.1822 8.96646C13.3006 8.96646 13.419 8.96646 13.5375 9.02568C13.7151 9.14412 13.7743 9.44021 13.6559 9.61786C12.057 12.6972 9.80673 13.6447 8.20784 13.8816C7.85253 14 7.55644 14 7.20113 14ZM4.18101 0.794364C1.63463 2.27482 0.864795 4.22901 0.627922 5.70947C0.272614 8.13741 1.2201 10.3877 2.28603 11.4536C3.41117 12.638 5.72068 13.7039 8.14862 13.3486C10.1028 13.0525 11.7609 11.8681 12.8861 9.91395C10.3989 11.3944 7.26035 11.0983 5.1285 9.14412C2.87821 6.95305 2.46368 3.45918 4.18101 0.794364Z" fill="#37373A"/>
</svg>
