<svg width="15" height="14" viewBox="0 0 15 14" fill="none" xmlns="http://www.w3.org/2000/svg">
<path d="M6.99994 10.7333C4.95827 10.7333 3.2666 9.0416 3.2666 6.99994C3.2666 4.95827 4.95827 3.2666 6.99994 3.2666C9.0416 3.2666 10.7333 4.95827 10.7333 6.99994C10.7333 9.0416 9.0416 10.7333 6.99994 10.7333ZM6.99994 3.84993C5.24994 3.84993 3.84993 5.24994 3.84993 6.99994C3.84993 8.74994 5.24994 10.1499 6.99994 10.1499C8.74994 10.1499 10.1499 8.74994 10.1499 6.99994C10.1499 5.24994 8.74994 3.84993 6.99994 3.84993Z" fill="#CFB764"/>
<path d="M7.00004 1.98333C6.82504 1.98333 6.70837 1.86667 6.70837 1.69167V0.291667C6.70837 0.116667 6.82504 0 7.00004 0C7.17504 0 7.29171 0.116667 7.29171 0.291667V1.69167C7.29171 1.86667 7.17504 1.98333 7.00004 1.98333Z" fill="#CFB764"/>
<path d="M4.37502 2.68345C4.25836 2.68345 4.14169 2.62511 4.08336 2.56678L3.38336 1.34178C3.32502 1.16678 3.38336 0.991781 3.50002 0.933447C3.61669 0.875114 3.79169 0.875114 3.90836 1.05011L4.60836 2.27511C4.66669 2.39178 4.60836 2.56678 4.49169 2.68345C4.43336 2.68345 4.37502 2.68345 4.37502 2.68345Z" fill="#CFB764"/>
<path d="M2.39166 4.66669C2.33333 4.66669 2.33333 4.60836 2.27499 4.60836L1.04999 3.90836C0.874992 3.79169 0.874992 3.61669 0.933325 3.50002C0.991659 3.38336 1.16666 3.32502 1.34166 3.38336L2.56666 4.08336C2.68333 4.14169 2.74166 4.31669 2.68333 4.49169C2.62499 4.60836 2.50833 4.66669 2.39166 4.66669Z" fill="#CFB764"/>
<path d="M1.69167 7.29171H0.291667C0.116667 7.29171 0 7.17504 0 7.00004C0 6.82504 0.116667 6.70837 0.291667 6.70837H1.69167C1.86667 6.70837 1.98333 6.82504 1.98333 7.00004C1.98333 7.17504 1.86667 7.29171 1.69167 7.29171Z" fill="#CFB764"/>
<path d="M1.16666 10.675C1.04999 10.675 0.991659 10.6167 0.933325 10.5584C0.874992 10.4417 0.874992 10.2667 1.04999 10.15L2.27499 9.45005C2.39166 9.39172 2.56666 9.39172 2.68333 9.56672C2.74166 9.68338 2.74166 9.85838 2.56666 9.97505L1.34166 10.675C1.28333 10.6167 1.22499 10.675 1.16666 10.675Z" fill="#CFB764"/>
<path d="M3.61669 13.1249C3.55836 13.1249 3.50002 13.1249 3.50002 13.0666C3.38336 13.0083 3.32502 12.8333 3.38336 12.6583L4.08336 11.4333C4.14169 11.3166 4.31669 11.2583 4.49169 11.3166C4.60836 11.3749 4.66669 11.5499 4.60836 11.7249L3.90836 12.9499C3.85002 13.0666 3.73336 13.1249 3.61669 13.1249Z" fill="#CFB764"/>
<path d="M7.05827 13.9999C6.88327 13.9999 6.7666 13.8833 6.7666 13.7083V12.3083C6.7666 12.1333 6.88327 12.0166 7.05827 12.0166C7.23327 12.0166 7.34993 12.1333 7.34993 12.3083V13.7083C7.34993 13.8833 7.23327 13.9999 7.05827 13.9999Z" fill="#CFB764"/>
<path d="M10.3834 13.1251C10.2667 13.1251 10.2084 13.0668 10.15 13.0084L9.45005 11.7834C9.39172 11.6668 9.39172 11.4918 9.56672 11.3751C9.68338 11.3168 9.85838 11.3168 9.97505 11.4918L10.675 12.7168C10.7334 12.8334 10.7334 13.0084 10.5584 13.1251C10.5 13.0668 10.4417 13.1251 10.3834 13.1251Z" fill="#CFB764"/>
<path d="M12.8334 10.675C12.7751 10.675 12.7167 10.675 12.7167 10.6167L11.4917 9.91666C11.3751 9.85833 11.3167 9.68332 11.3751 9.50832C11.4334 9.39166 11.6084 9.33333 11.7834 9.39166L13.0084 10.0917C13.1251 10.15 13.1834 10.325 13.1251 10.5C13.0667 10.6167 12.9501 10.675 12.8334 10.675Z" fill="#CFB764"/>
<path d="M13.7667 7.29171H12.3667C12.1917 7.29171 12.0751 7.17504 12.0751 7.00004C12.0751 6.82504 12.1917 6.70837 12.3667 6.70837H13.7667C13.9417 6.70837 14.0584 6.82504 14.0584 7.00004C14.0584 7.17504 13.8834 7.29171 13.7667 7.29171Z" fill="#CFB764"/>
<path d="M11.6667 4.60828C11.55 4.60828 11.4917 4.54994 11.4333 4.49161C11.375 4.37494 11.375 4.19994 11.55 4.08328L12.775 3.38328C12.8333 3.32494 13.0083 3.32494 13.125 3.49994C13.1833 3.61661 13.1833 3.79161 13.0083 3.90828L11.7833 4.60828C11.725 4.60828 11.6667 4.60828 11.6667 4.60828Z" fill="#CFB764"/>
<path d="M9.68334 2.68339C9.62501 2.68339 9.56667 2.68339 9.56667 2.62506C9.45001 2.56672 9.39168 2.39172 9.45001 2.21672L10.15 0.991724C10.2083 0.875057 10.3833 0.816724 10.5583 0.875057C10.675 0.933391 10.7333 1.10839 10.675 1.28339L9.97501 2.50839C9.91668 2.62506 9.80001 2.68339 9.68334 2.68339Z" fill="#CFB764"/>
</svg>
