<svg width="150" height="113" viewBox="0 0 150 113" fill="none" xmlns="http://www.w3.org/2000/svg"><path fill-rule="evenodd" clip-rule="evenodd" d="M45.823 112.331c5.41-.006 10.821-.012 16.232-.01l12.235.006c12.91.008 25.821.017 38.732-.01 11.421-.025 14.258-2.121 16.722-13.104 6.57-29.35 13.064-58.717 19.48-88.1 1.981-9.05.5-10.959-8.322-10.968-11.276-.012-22.552.003-33.828.018C83.18.195 59.286.226 35.393 0c-8.51-.078-12.358 3.474-14.142 11.508-4.165 18.759-8.477 37.483-12.789 56.207C5.887 78.898 3.312 90.079.77 101.269c-2.009 8.824-.388 10.952 8.53 11.011 12.174.08 24.35.066 36.524.051zm30.442-58.682l-.005-.006a477.553 477.553 0 00-2.714-3.066 4236.84 4236.84 0 01-5.133-5.775V44.8l-.009-.009-.007-.008c-5.67-6.388-11.124-12.535-16.915-18.787-3.442-3.714-4.539-7.322-.406-10.99 4.083-3.623 8.097-3.304 11.842.866l2.05 2.28c9.75 10.852 19.5 21.704 29.41 32.407 3.961 4.276 3.037 7.184-1.324 10.355a6678.306 6678.306 0 00-50.012 36.792c-3.736 2.771-7.3 3.464-10.321-.628-3.33-4.514-.25-7.2 3.205-9.727a5409.333 5409.333 0 0036.967-27.255c.947-.704 2.069-1.557 3.126-2.361.853-.65 1.665-1.266 2.31-1.747-.734-.83-1.42-1.608-2.061-2.336l-.003-.003zm-8.269 43.19c-3.514 0-5.467-3.124-5.467-6.248 0-3.123 1.953-6.247 5.467-6.247h29.676c3.514 0 5.467 3.124 5.467 6.247 0 3.124-1.953 6.248-5.467 6.248H67.996z" fill="#F2F3F5"/></svg>