<svg data-name="Layer 1" xmlns="http://www.w3.org/2000/svg" viewBox="0 0 16 16.024"><path d="M8 0a8.11 8.11 0 0 0-8 8.215 8.2 8.2 0 0 0 5.471 7.795c.4.076.529-.178.529-.395v-1.53c-2.226.497-2.688-.969-2.688-.969a2.163 2.163 0 0 0-.889-1.202c-.726-.51.055-.5.055-.5a1.688 1.688 0 0 1 1.226.847 1.678 1.678 0 0 0 2.329.683 1.767 1.767 0 0 1 .507-1.099c-1.777-.207-3.645-.912-3.645-4.06a3.227 3.227 0 0 1 .825-2.204 3.026 3.026 0 0 1 .077-2.174s.672-.22 2.201.842a7.396 7.396 0 0 1 4.006 0c1.528-1.063 2.198-.842 2.198-.842a3.023 3.023 0 0 1 .079 2.174 3.22 3.22 0 0 1 .824 2.205c0 3.155-1.872 3.85-3.653 4.053A1.995 1.995 0 0 1 10 13.36v2.254c0 .219.128.475.534.395A8.2 8.2 0 0 0 16 8.215 8.11 8.11 0 0 0 8 0z" fill="#0a0a0a" fill-rule="evenodd"/></svg>