<svg preserveAspectRatio="xMinYMid" viewBox="0 0 738 100" xmlns="http://www.w3.org/2000/svg" fill-rule="evenodd" clip-rule="evenodd" stroke-linejoin="round" stroke-miterlimit="1.414"><path d="M718.25 21.372c-7.837 0-14.588 4.576-17.778 11.19l-.04.023c-10.194-14.24-26.87-23.527-45.723-23.527-21.71 0-40.53 12.312-49.897 30.324-8.27-10.98-21.423-18.077-36.23-18.077-12.378 0-23.593 4.966-31.776 13.008-10.52-12.887-26.532-21.116-44.473-21.116-19.62 0-36.935 9.85-47.287 24.868-10.335-14.688-27.405-24.294-46.73-24.294-15.12 0-28.857 5.888-39.074 15.48C348.593 13.08 330.288 2.4 309.48 2.4c-26.057 0-48.19 16.742-56.267 40.05-11.13-14.375-28.542-23.642-48.13-23.642a60.76 60.76 0 00-19.515 3.217C172.903 9.06 155.238 1 135.68 1c-17.02 0-32.608 6.103-44.716 16.23a10.377 10.377 0 00-3.08-1.72C78.64 7.78 66.74 3.12 53.75 3.12 24.34 3.122.5 26.962.5 56.372L1 99.905h737V41.123c0-10.908-8.843-19.75-19.75-19.75v-.001z" fill="url(#_Linear1)" fill-rule="nonzero"/><path d="M718.25 21.372c-7.837 0-14.588 4.576-17.778 11.19l-.04.023c-10.194-14.24-26.87-23.527-45.723-23.527l-.543 90.847H738V41.123c0-10.91-8.843-19.75-19.75-19.75v-.001z" fill="url(#_Linear2)" fill-rule="nonzero"/><path d="M90.964 16.168s-2.022-1.35-3.08-1.72C78.64 6.718 66.74 2.06 53.75 2.06 24.34 2.06.5 25.903.5 55.31L1 99.905h90.167l-.203-83.736v-.001z" fill="url(#_Linear3)" fill-rule="nonzero"/><defs><linearGradient id="_Linear1" x1="0" y1="0" x2="1" y2="0" gradientUnits="userSpaceOnUse" gradientTransform="matrix(0 -99.905 99.905 0 369.25 99.905)"><stop offset="0%" stop-color="#fff"/><stop offset="43%" stop-color="#fcfeff"/><stop offset="71%" stop-color="#f3fcff"/><stop offset="95%" stop-color="#e4f8ff"/><stop offset="100%" stop-color="#e1f7ff"/></linearGradient><linearGradient id="_Linear2" x1="0" y1="0" x2="1" y2="0" gradientUnits="userSpaceOnUse" gradientTransform="translate(662.203 117.151) scale(82.191)"><stop offset="0%" stop-color="#fff" stop-opacity="0"/><stop offset="100%" stop-color="#fff"/></linearGradient><linearGradient id="_Linear3" x1="0" y1="0" x2="1" y2="0" gradientUnits="userSpaceOnUse" gradientTransform="rotate(180 45.583 56.56) scale(90.667)"><stop offset="0%" stop-color="#fff" stop-opacity="0"/><stop offset="100%" stop-color="#fff"/></linearGradient></defs></svg>