<svg preserveAspectRatio="xMinYMid" viewBox="0 0 485 110" xmlns="http://www.w3.org/2000/svg" fill-rule="evenodd" clip-rule="evenodd" stroke-linejoin="round" stroke-miterlimit="1.414"><path d="M467.003 50.848c-7.899 0-14.703 4.591-17.918 11.228-.013.008-.021.015-.04.022-10.272-14.286-27.083-23.604-46.083-23.604-21.879 0-40.847 12.352-50.289 30.423-8.336-11.015-21.591-18.136-36.514-18.136-12.476 0-23.78 4.982-32.027 13.051-10.604-12.93-26.739-21.187-44.823-21.187-19.775 0-37.226 9.885-47.659 24.951-10.416-14.736-27.621-24.374-47.097-24.374-15.239 0-29.085 5.907-39.382 15.53-10.735-16.223-29.183-26.938-50.156-26.938-26.261 0-48.567 16.797-56.709 40.182l-.214 40.357h488.816v-41.69c0-10.944-8.912-19.815-19.905-19.815z" fill="#fff" fill-rule="nonzero"/></svg>