<svg viewBox="0 0 96 96" xmlns="http://www.w3.org/2000/svg" fill-rule="evenodd" clip-rule="evenodd" stroke-miterlimit="10"><path d="M48 84c-19.882 0-36-16.118-36-36s16.118-36 36-36 36 16.118 36 36-16.118 36-36 36z" fill="#fff" fill-rule="nonzero" stroke="#ff6e6c" stroke-width="2"/><path d="M53.657 48l8.485-8.485a4 4 0 10-5.658-5.656L48 42.343l-8.485-8.484a4 4 0 00-5.657 5.656L42.343 48l-8.485 8.484a4 4 0 105.657 5.656L48 53.656l8.484 8.484a4 4 0 105.658-5.656L53.657 48z" fill="#ff6e6c" fill-rule="nonzero"/></svg>