<svg preserveAspectRatio="xMinYMid" xmlns="http://www.w3.org/2000/svg" viewBox="0 0 600 601"><path fill="#89D9FF" d="M299.995 81c121.231 0 219.499 98.27 219.499 219.499C519.494 421.732 421.227 520 299.995 520c-121.219 0-219.49-98.268-219.49-219.501C80.505 179.27 178.776 81 299.995 81z"/><path fill="#FFF" d="M299.995 88.252c117.224 0 212.247 95.026 212.247 212.247 0 117.225-95.023 212.249-212.247 212.249-117.211 0-212.238-95.024-212.238-212.249 0-117.221 95.027-212.247 212.238-212.247z"/><linearGradient id="a" gradientUnits="userSpaceOnUse" x1="1229.988" y1="-1320.986" x2="1568.022" y2="-1320.986" gradientTransform="matrix(1 0 0 -1 -1099 -997.783)"><stop offset="0" stop-color="#c8534c"/><stop offset="1" stop-color="#f0805f"/></linearGradient><path fill="url(#a)" d="M469.021 269.616l-66.548-68.73H197.528l-66.54 68.73 169.007 175.905z"/><path fill="#F37C5C" d="M299.995 200.886l56.778 23.096 28.084-23.096z"/><path fill="#F28671" d="M402.473 200.886h-17.616l40.762 23.875z"/><path fill="#F68B74" d="M425.619 224.761l-40.762-23.875-28.084 23.096 63.198 45.634z"/><path fill="#F0805F" d="M425.619 224.761l-5.648 44.855h49.05z"/><path fill="#F37847" d="M356.773 223.982l-56.778 45.634h119.976z"/><path fill="#E86A47" d="M299.995 269.616l20.431 112.688 99.545-112.688z"/><path fill="#E66950" d="M320.426 382.304l-20.431 63.217 60.737-63.217 59.239-112.688z"/><path fill="#E3775E" d="M419.971 269.616l-59.239 112.688 108.289-112.688z"/><path fill="#E2655F" d="M299.995 200.886l-56.759 23.096 56.759 45.634 56.778-45.634z"/><path fill="#DE5750" d="M215.142 200.886l28.094 23.096 56.759-23.096z"/><path fill="#BA4542" d="M197.528 200.886l-23.161 23.875 40.775-23.875z"/><path fill="#DD534A" d="M215.142 200.886l-40.775 23.875 5.676 44.855 63.193-45.634z"/><path fill="#C8534C" d="M130.988 269.616h49.055l-5.676-44.855z"/><path fill="#DE5750" d="M243.236 223.982l-63.193 45.634h119.952z"/><path fill="#C8534C" d="M180.043 269.616l99.542 112.688 20.41-112.688z"/><path fill="#BF4D4E" d="M279.585 382.304l-99.542-112.688 59.234 112.688 60.718 63.217z"/><path fill="#B04F4F" d="M180.043 269.616h-49.055l108.289 112.688z"/><path fill="#D8614F" d="M299.995 269.616l-20.41 112.688 20.41 63.217 20.431-63.217z"/><path opacity=".9" fill="#FFF" d="M406.029 269.616h-3.506l-32.919-31.401-32.084 31.401h2.761l-34.189 33.604.318 1.688-6.225 6.674-6.627-6.444.34-1.834-31.586-31.814-32.869 32.692 54.461 54.272-.359 1.972 16.481 16.7.021-.02 16.471-16.367-.317-1.819z"/></svg>