<svg viewBox="0 0 64 64" xmlns="http://www.w3.org/2000/svg" fill-rule="evenodd" clip-rule="evenodd" stroke-linejoin="round" stroke-miterlimit="10"><path d="M39.478 45.888v-6.41c0-5.751 7.478-5.949 7.478-16.022C46.955 15.195 40.26 8.5 32 8.5c-8.259 0-14.955 6.695-14.955 14.955 0 10.289 7.478 11.421 7.478 16.022v6.41" fill="#fffbeb" fill-rule="nonzero" stroke="#ffe783" stroke-width="2"/><path d="M27.728 24.522s1.734 1.36 4.272 1.391c2.538.03 4.272-1.391 4.272-1.391" fill="none" stroke="#fe9901" stroke-width="2" stroke-linecap="round" stroke-linejoin="miter" transform="matrix(1.3044 0 0 1 -9.74 0)"/><path d="M35.205 52.295a3.204 3.204 0 11-6.41 0" fill="#bdc3c7" fill-rule="nonzero" stroke="#bdc3c7" stroke-width="2" stroke-linecap="round" stroke-linejoin="miter"/><path d="M24.522 45.888v4.272c0 1.173.961 2.135 2.136 2.135H37.34a2.144 2.144 0 002.138-2.135v-4.272H24.522z" fill="#59a8fe" fill-rule="nonzero" stroke="#59a8fe" stroke-width="2" stroke-linecap="round" stroke-linejoin="miter"/></svg>