<svg width="138" height="32" viewBox="0 0 138 32" fill="none" xmlns="http://www.w3.org/2000/svg">
<path d="M3.28329 11.3003V20.716H5.69053C6.30194 20.7085 6.90587 20.5806 7.46777 20.3395C8.02967 20.0984 8.53851 19.7488 8.96517 19.3108C9.39183 18.8728 9.72794 18.355 9.95425 17.787C10.1806 17.219 10.2927 16.6119 10.2841 16.0005C10.3015 15.3875 10.1953 14.7773 9.972 14.2062C9.74866 13.6351 9.41268 13.1148 8.98408 12.6763C8.55547 12.2377 8.043 11.8899 7.47717 11.6535C6.91135 11.4171 6.30374 11.297 5.69053 11.3003H3.28329ZM5.69053 8.34839C10.1774 8.34839 13.5712 11.7383 13.5712 16.0005C13.5712 20.2627 10.1774 23.6717 5.69053 23.6717H0.380893C0.279874 23.6717 0.182992 23.6316 0.111561 23.5601C0.0401296 23.4887 0 23.3918 0 23.2908V8.74452C0 8.6435 0.0401296 8.54662 0.111561 8.47519C0.182992 8.40375 0.279874 8.36362 0.380893 8.36362L5.69053 8.34839Z" fill="#404242"/>
<path d="M25.1389 21.0437C26.1351 21.0467 27.1099 20.7542 27.9398 20.203C28.7697 19.6519 29.4174 18.867 29.8011 17.9476C30.1848 17.0282 30.2871 16.0157 30.0952 15.0381C29.9032 14.0606 29.4256 13.1619 28.7228 12.4559C28.0199 11.7498 27.1235 11.2681 26.1468 11.0717C25.1701 10.8754 24.1571 10.9731 23.236 11.3526C22.3149 11.7321 21.527 12.3763 20.9721 13.2037C20.4172 14.0311 20.1203 15.0045 20.1187 16.0007C20.1187 17.3342 20.6469 18.6135 21.5877 19.5586C22.5285 20.5037 23.8054 21.0377 25.1389 21.0437V21.0437ZM25.1389 8.00195C29.862 8.00195 33.4728 11.6319 33.4728 16.0007C33.4728 20.3695 29.862 23.9994 25.1389 23.9994C20.4158 23.9994 16.8354 20.3886 16.8354 16.0007C16.8354 11.6128 20.4463 8.00195 25.1389 8.00195Z" fill="#404242"/>
<path d="M44.9454 21.0437C45.9405 21.0415 46.9126 20.7444 47.739 20.1901C48.5654 19.6357 49.209 18.849 49.5886 17.9291C49.9682 17.0093 50.0667 15.9976 49.8718 15.0218C49.6768 14.046 49.1971 13.1498 48.4932 12.4464C47.7893 11.743 46.8927 11.264 45.9168 11.0698C44.9408 10.8755 43.9292 10.9748 43.0096 11.3551C42.0901 11.7354 41.3038 12.3796 40.7501 13.2064C40.1964 14.0333 39.9001 15.0056 39.8986 16.0007C39.8986 16.6633 40.0291 17.3194 40.2828 17.9315C40.5365 18.5436 40.9083 19.0997 41.377 19.568C41.8457 20.0363 42.402 20.4077 43.0143 20.6609C43.6266 20.9141 44.2828 21.0442 44.9454 21.0437V21.0437ZM44.9454 8.00195C49.6532 8.00195 53.2641 11.6128 53.2641 16.0007C53.2641 20.3886 49.638 23.9994 44.9454 23.9994C40.2528 23.9994 36.6115 20.3886 36.6115 16.0007C36.6115 11.6128 40.2223 8.00195 44.9454 8.00195Z" fill="#404242"/>
<path d="M64.2757 11.3005H60.8819V15.3531H64.2757C64.5428 15.3655 64.8096 15.3238 65.0602 15.2306C65.3108 15.1374 65.5401 14.9946 65.7342 14.8107C65.9284 14.6269 66.0834 14.4058 66.1902 14.1606C66.2969 13.9155 66.3531 13.6513 66.3554 13.3839C66.3649 13.1082 66.3177 12.8335 66.2165 12.5769C66.1154 12.3202 65.9626 12.0871 65.7675 11.8921C65.5725 11.697 65.3394 11.5442 65.0827 11.4431C64.8261 11.3419 64.5514 11.2947 64.2757 11.3043V11.3005ZM57.5986 8.74466C57.5986 8.64364 57.6388 8.54676 57.7102 8.47533C57.7816 8.4039 57.8785 8.36377 57.9795 8.36377H64.3709C67.418 8.36377 69.6234 10.5958 69.6234 13.3992C69.6345 14.3283 69.3839 15.2419 68.9003 16.0353C68.4167 16.8288 67.7195 17.4701 66.8886 17.8861L69.8367 23.0967C69.8773 23.1562 69.9002 23.2259 69.9027 23.2979C69.9053 23.3699 69.8873 23.4411 69.8511 23.5033C69.8148 23.5655 69.7616 23.6161 69.6977 23.6493C69.6338 23.6825 69.5618 23.6969 69.4901 23.6909H66.9038C66.8326 23.6925 66.7624 23.674 66.7011 23.6376C66.6398 23.6013 66.59 23.5485 66.5572 23.4852L63.7158 18.3279H60.8705V23.2795C60.8705 23.3805 60.8304 23.4774 60.7589 23.5489C60.6875 23.6203 60.5906 23.6604 60.4896 23.6604H57.9986C57.8976 23.6604 57.8007 23.6203 57.7292 23.5489C57.6578 23.4774 57.6177 23.3805 57.6177 23.2795L57.5986 8.74466Z" fill="#404242"/>
<path d="M78.182 11.373V20.7886H80.5892C81.2003 20.7817 81.804 20.6543 82.3659 20.4139C82.9277 20.1735 83.4367 19.8247 83.8636 19.3875C84.2906 18.9503 84.6272 18.4332 84.8542 17.8658C85.0812 17.2984 85.1942 16.6919 85.1866 16.0808C85.2051 15.4669 85.0996 14.8555 84.8765 14.2833C84.6534 13.711 84.3172 13.1896 83.8881 12.7502C83.459 12.3108 82.9457 11.9623 82.3789 11.7257C81.8121 11.4891 81.2034 11.3691 80.5892 11.373H78.182ZM80.5892 8.41724C85.0762 8.41724 88.4699 11.811 88.4699 16.0808C88.4699 20.3506 85.0762 23.7444 80.5892 23.7444H75.2948C75.1938 23.7444 75.0969 23.7042 75.0255 23.6328C74.9541 23.5614 74.9139 23.4645 74.9139 23.3635V8.81717C74.9139 8.71615 74.9541 8.61927 75.0255 8.54784C75.0969 8.47641 75.1938 8.43628 75.2948 8.43628L80.5892 8.41724Z" fill="#404242"/>
<path d="M98.4837 12.1612L96.6211 17.1966H100.342L98.4837 12.1612ZM95.528 20.0418L94.3091 23.3937C94.2833 23.4732 94.232 23.5421 94.1632 23.5896C94.0943 23.6371 94.0118 23.6606 93.9282 23.6565H91.2848C91.218 23.6628 91.1506 23.6514 91.0896 23.6233C91.0286 23.5952 90.9761 23.5515 90.9374 23.4966C90.8987 23.4417 90.8753 23.3775 90.8694 23.3106C90.8635 23.2437 90.8754 23.1764 90.9039 23.1156L96.6173 8.58457C96.6452 8.50716 96.6973 8.44083 96.766 8.39552C96.8346 8.3502 96.9161 8.32833 96.9982 8.33318H99.9578C100.04 8.32833 100.121 8.3502 100.19 8.39552C100.259 8.44083 100.311 8.50716 100.339 8.58457L106.052 23.1156C106.081 23.1764 106.092 23.2437 106.087 23.3106C106.081 23.3775 106.057 23.4417 106.019 23.4966C105.98 23.5515 105.927 23.5952 105.866 23.6233C105.805 23.6514 105.738 23.6628 105.671 23.6565H103.028C102.944 23.6606 102.862 23.6371 102.793 23.5896C102.724 23.5421 102.673 23.4732 102.647 23.3937L101.428 20.0418H95.528Z" fill="#404242"/>
<path d="M109.118 12.4889C109.118 10.0816 111.198 8.00195 114.481 8.00195C116.242 7.95981 117.95 8.60301 119.246 9.79595C119.285 9.83162 119.316 9.87491 119.337 9.92309C119.358 9.97127 119.369 10.0233 119.369 10.0759C119.369 10.1285 119.358 10.1805 119.337 10.2287C119.316 10.2769 119.285 10.3202 119.246 10.3559L117.78 11.8109C117.744 11.8466 117.702 11.8749 117.656 11.8942C117.609 11.9136 117.56 11.9235 117.509 11.9235C117.459 11.9235 117.409 11.9136 117.363 11.8942C117.316 11.8749 117.274 11.8466 117.239 11.8109C116.543 11.1781 115.639 10.8218 114.698 10.8091C113.384 10.8091 112.413 11.5709 112.413 12.4508C112.413 15.296 120.176 13.6544 120.176 19.1278C120.172 21.9007 118.077 23.9994 114.371 23.9994C113.347 24.0118 112.33 23.8216 111.38 23.4399C110.429 23.0581 109.564 22.4923 108.833 21.775C108.794 21.7394 108.763 21.6961 108.742 21.6479C108.721 21.5997 108.71 21.5477 108.71 21.4951C108.71 21.4425 108.721 21.3904 108.742 21.3423C108.763 21.2941 108.794 21.2508 108.833 21.2151L110.25 19.7982C110.285 19.7607 110.328 19.7309 110.375 19.7105C110.423 19.6901 110.474 19.6796 110.526 19.6796C110.577 19.6796 110.628 19.6901 110.676 19.7105C110.723 19.7309 110.766 19.7607 110.802 19.7982C111.703 20.6633 112.901 21.1512 114.15 21.1618C115.791 21.1618 116.873 20.2857 116.873 19.1888C116.873 16.3435 109.114 17.9851 109.114 12.5117" fill="#404242"/>
<path d="M134.253 8.72574V14.4772H127.683V8.72574C127.683 8.62472 127.643 8.52784 127.571 8.45641C127.5 8.38498 127.403 8.34485 127.302 8.34485H124.811C124.71 8.34485 124.613 8.38498 124.541 8.45641C124.47 8.52784 124.43 8.62472 124.43 8.72574V23.2568C124.43 23.3578 124.47 23.4547 124.541 23.5261C124.613 23.5976 124.71 23.6377 124.811 23.6377H127.302C127.403 23.6377 127.5 23.5976 127.571 23.5261C127.643 23.4547 127.683 23.3578 127.683 23.2568V17.4139H134.249V23.2568C134.249 23.3578 134.289 23.4547 134.361 23.5261C134.432 23.5976 134.529 23.6377 134.63 23.6377H137.121C137.222 23.6377 137.319 23.5976 137.391 23.5261C137.462 23.4547 137.502 23.3578 137.502 23.2568V8.72574C137.502 8.62472 137.462 8.52784 137.391 8.45641C137.319 8.38498 137.222 8.34485 137.121 8.34485H134.63C134.53 8.34585 134.434 8.38642 134.363 8.45775C134.293 8.52907 134.253 8.62538 134.253 8.72574V8.72574Z" fill="#404242"/>
</svg>
