<svg width="1514" height="784" viewBox="0 0 1514 784" fill="none" xmlns="http://www.w3.org/2000/svg">
<path d="M1346.07 606.995H1333.47V635.346H1346.07V606.995Z" fill="#0055DC"/>
<path d="M1380.72 641.646H1352.37V654.247H1380.72V641.646Z" fill="#0055DC"/>
<path d="M1346.07 660.547H1333.47V688.898H1346.07V660.547Z" fill="#0055DC"/>
<path d="M1327.17 641.646H1298.82V654.247H1327.17V641.646Z" fill="#0055DC"/>
<path d="M249.129 122.499H236.358V155.339H249.129V122.499Z" fill="#FF6633"/>
<path d="M291.091 164.461H258.251V177.232H291.091V164.461Z" fill="#FBAD41"/>
<path d="M249.129 186.353H236.358V219.193H249.129V186.353Z" fill="#FF6633"/>
<path d="M227.236 164.461H194.397V177.232H227.236V164.461Z" fill="#FBAD41"/>
<path d="M1319.3 147.881L1319.3 139.976L1298.97 139.976L1298.97 147.881L1319.3 147.881Z" fill="#C5EBF5"/>
<path d="M1293.32 173.855L1293.32 153.528L1285.42 153.528L1285.42 173.855L1293.32 173.855Z" fill="#C5EBF5"/>
<path d="M1279.77 147.881L1279.77 139.976L1259.44 139.976L1259.44 147.881L1279.77 147.881Z" fill="#C5EBF5"/>
<path d="M1293.32 134.329L1293.32 114.002L1285.42 114.002L1285.42 134.329L1293.32 134.329Z" fill="#C5EBF5"/>
<path d="M1253.97 567.619H1248.71V579.47H1253.97V567.619Z" fill="#FBAD41"/>
<path d="M1268.44 582.104H1256.61V587.371H1268.44V582.104Z" fill="#FBAD41"/>
<path d="M1253.97 590.004H1248.71V601.855H1253.97V590.004Z" fill="#FBAD41"/>
<path d="M1246.08 582.104H1234.24V587.371H1246.08V582.104Z" fill="#FBAD41"/>
<path d="M167.504 394.363H160.477V410.174H167.504V394.363Z" fill="#FBAD41"/>
<path d="M186.829 413.688H171.018V420.715H186.829V413.688Z" fill="#FBAD41"/>
<path d="M167.504 424.228H160.477V440.039H167.504V424.228Z" fill="#FBAD41"/>
<path d="M156.964 413.688H141.152V420.715H156.964V413.688Z" fill="#FBAD41"/>
<path d="M1247.39 380.235H1094.85V498.003H1247.39V380.235Z" fill="white"/>
<path d="M1093.76 379.145V499.093H1248.48V379.145H1093.76ZM1095.94 496.913V391.701H1246.3V496.911L1095.94 496.913Z" fill="#0055DC"/>
<path d="M1099.81 387.511C1100.85 387.511 1101.69 386.67 1101.69 385.632C1101.69 384.594 1100.85 383.753 1099.81 383.753C1098.77 383.753 1097.93 384.594 1097.93 385.632C1097.93 386.67 1098.77 387.511 1099.81 387.511Z" fill="white"/>
<path d="M1105.89 387.511C1106.93 387.511 1107.77 386.67 1107.77 385.632C1107.77 384.594 1106.93 383.753 1105.89 383.753C1104.85 383.753 1104.01 384.594 1104.01 385.632C1104.01 386.67 1104.85 387.511 1105.89 387.511Z" fill="white"/>
<path d="M1111.97 387.509C1113 387.509 1113.85 386.668 1113.85 385.63C1113.85 384.592 1113 383.751 1111.97 383.751C1110.93 383.751 1110.09 384.592 1110.09 385.63C1110.09 386.668 1110.93 387.509 1111.97 387.509Z" fill="white"/>
<path d="M1232.7 403.278H1109.07V438.485H1232.7V403.278Z" fill="#E2F5FA"/>
<path d="M1233.25 403.561H1125.44V483.245H1233.25V403.561Z" fill="#E2F5FA"/>
<path d="M1215.67 415.279H1153.57V419.966H1215.67V415.279Z" fill="#6ECCE5"/>
<path d="M1215.67 430.513H1153.57V435.2H1215.67V430.513Z" fill="#6ECCE5"/>
<path d="M1209.81 444.575H1153.57V449.262H1209.81V444.575Z" fill="#6ECCE5"/>
<path d="M1146.89 420.669C1148.37 420.669 1149.58 419.463 1149.58 417.974C1149.58 416.486 1148.37 415.279 1146.89 415.279C1145.4 415.279 1144.19 416.486 1144.19 417.974C1144.19 419.463 1145.4 420.669 1146.89 420.669Z" fill="#6ECCE5"/>
<path d="M1146.89 435.083C1148.37 435.083 1149.58 433.876 1149.58 432.388C1149.58 430.899 1148.37 429.693 1146.89 429.693C1145.4 429.693 1144.19 430.899 1144.19 432.388C1144.19 433.876 1145.4 435.083 1146.89 435.083Z" fill="#6ECCE5"/>
<path d="M1146.89 449.379C1148.37 449.379 1149.58 448.172 1149.58 446.684C1149.58 445.195 1148.37 443.989 1146.89 443.989C1145.4 443.989 1144.19 445.195 1144.19 446.684C1144.19 448.172 1145.4 449.379 1146.89 449.379Z" fill="#6ECCE5"/>
<path d="M1137.54 344.293H897.536V529.58H1137.54V344.293Z" fill="white"/>
<path d="M896.447 343.206V530.673H1138.63V343.206H896.447ZM898.626 528.493V361.953H1136.45V528.493H898.626Z" fill="#0055DC"/>
<path d="M1035 379.841H919.751V440.412H1035V379.841Z" fill="#E2F5FA"/>
<path d="M1035 445.419H919.751V508.172H1035V445.419Z" fill="#E2F5FA"/>
<path d="M1114.9 380.125H919.201V507.853H1114.9V380.125Z" fill="#E2F5FA"/>
<path d="M1115.32 445.173H1040.38V508.419H1115.32V445.173Z" fill="#E2F5FA"/>
<path d="M1035.98 394.186H950.84V400.097H1035.98V394.186Z" fill="#6ECCE5"/>
<path d="M1098.49 394.186H1044.23V400.097H1098.49V394.186Z" fill="#FBAD41"/>
<path d="M994.251 417.294H950.84V423.205H994.251V417.294Z" fill="#6ECCE5"/>
<path d="M1065.11 417.294H1002.51V423.205H1065.11V417.294Z" fill="#FBAD41"/>
<path d="M969.213 440.402H950.84V446.312H969.213V440.402Z" fill="#6ECCE5"/>
<path d="M1040.07 440.402H977.469V446.313H1040.07V440.402Z" fill="#FBAD41"/>
<path d="M960.868 463.51H950.84V469.42H960.868V463.51Z" fill="#6ECCE5"/>
<path d="M1023.38 463.51H969.123V469.421H1023.38V463.51Z" fill="#FBAD41"/>
<path d="M985.905 485.537H950.84V491.447H985.905V485.537Z" fill="#6ECCE5"/>
<path d="M1023.38 485.537H994.161V491.447H1023.38V485.537Z" fill="#FBAD41"/>
<path d="M411 379H259V497H411V379Z" fill="white"/>
<path d="M258 378V498H413V378H258ZM410.817 495.819H260.183V390.561H410.817V495.819Z" fill="#0055DC"/>
<path d="M397 402H273V437H397V402Z" fill="#E2F5FA"/>
<path d="M353.893 409.42H291.787V414.107H353.893V409.42Z" fill="#6ECCE5"/>
<path d="M353.893 424.653H291.787V429.341H353.893V424.653Z" fill="#6ECCE5"/>
<path d="M285.108 414.81C286.596 414.81 287.803 413.603 287.803 412.115C287.803 410.626 286.596 409.42 285.108 409.42C283.619 409.42 282.412 410.626 282.412 412.115C282.412 413.603 283.619 414.81 285.108 414.81Z" fill="#FBAB40"/>
<path d="M285.108 429.224C286.596 429.224 287.803 428.017 287.803 426.528C287.803 425.04 286.596 423.833 285.108 423.833C283.619 423.833 282.412 425.04 282.412 426.528C282.412 428.017 283.619 429.224 285.108 429.224Z" fill="#FBAB40"/>
<path d="M397 444H362V482H397V444Z" fill="#E2F5FA"/>
<path d="M376 442H273V482H376V442Z" fill="#E2F5FA"/>
<path d="M387 412H372V427H387V412Z" fill="white"/>
<path d="M353.893 452.777H291.787V457.464H353.893V452.777Z" fill="white"/>
<path d="M353.893 468.011H291.787V472.698H353.893V468.011Z" fill="white"/>
<path d="M285.108 458.167C286.596 458.167 287.803 456.961 287.803 455.472C287.803 453.984 286.596 452.777 285.108 452.777C283.619 452.777 282.412 453.984 282.412 455.472C282.412 456.961 283.619 458.167 285.108 458.167Z" fill="#FBAB40"/>
<path d="M285.108 472.581C286.596 472.581 287.803 471.374 287.803 469.886C287.803 468.397 286.596 467.191 285.108 467.191C283.619 467.191 282.412 468.397 282.412 469.886C282.412 471.374 283.619 472.581 285.108 472.581Z" fill="#FBAB40"/>
<path d="M387.182 428H371.818L371 427.182V411.818L371.818 411H387.182L388 411.818V427.182L387.182 428ZM372.635 426.365H386.371V412.629H372.635V426.365Z" fill="#FF4596"/>
<path d="M609 343H369V528H609V343Z" fill="white"/>
<path d="M367 342V530H610V342H367ZM369.187 527.814V360.8H607.813V527.814H369.187Z" fill="#0055DC"/>
<path d="M376 355C377.657 355 379 353.657 379 352C379 350.343 377.657 349 376 349C374.343 349 373 350.343 373 352C373 353.657 374.343 355 376 355Z" fill="white"/>
<path d="M386 355C387.657 355 389 353.657 389 352C389 350.343 387.657 349 386 349C384.343 349 383 350.343 383 352C383 353.657 384.343 355 386 355Z" fill="white"/>
<path d="M395.5 355C396.881 355 398 353.657 398 352C398 350.343 396.881 349 395.5 349C394.119 349 393 350.343 393 352C393 353.657 394.119 355 395.5 355Z" fill="white"/>
<path d="M266 386C267.105 386 268 384.881 268 383.5C268 382.119 267.105 381 266 381C264.895 381 264 382.119 264 383.5C264 384.881 264.895 386 266 386Z" fill="white"/>
<path d="M273 386C274.105 386 275 384.881 275 383.5C275 382.119 274.105 381 273 381C271.895 381 271 382.119 271 383.5C271 384.881 271.895 386 273 386Z" fill="white"/>
<path d="M280 386C281.105 386 282 384.881 282 383.5C282 382.119 281.105 381 280 381C278.895 381 278 382.119 278 383.5C278 384.881 278.895 386 280 386Z" fill="white"/>
<path d="M482 449H391V509H482V449Z" fill="#E2F5FA"/>
<path d="M528 379H390V509H528V379Z" fill="#E2F5FA"/>
<path d="M585 379H488V509H585V379Z" fill="#E2F5FA"/>
<path d="M492.937 492.619H407.797V486.709H492.937V492.619Z" fill="#6ECCE5"/>
<path d="M451.208 469.511H407.797V463.601H451.208V469.511Z" fill="#6ECCE5"/>
<path d="M522.064 469.511H459.463V463.601H522.064V469.511Z" fill="#6ECCE5"/>
<path d="M426.17 446.403H407.797V440.493H426.17V446.403Z" fill="#6ECCE5"/>
<path d="M497.027 446.403H434.426V440.493H497.027V446.403Z" fill="#6ECCE5"/>
<path d="M417.825 423.295H407.797V417.385H417.825V423.295Z" fill="#6ECCE5"/>
<path d="M480.335 423.295H426.08V417.385H480.335V423.295Z" fill="#6ECCE5"/>
<path d="M442.862 401.268H407.797V395.358H442.862V401.268Z" fill="#6ECCE5"/>
<path d="M542.557 401.217H451.155V395.358H542.557V401.217Z" fill="#6ECCE5"/>
<rect x="1083.5" y="381.5" width="163" height="124" fill="#E2F5FA" stroke="#0055DC" stroke-width="3"/>
<rect x="1246.5" y="439.5" width="12" height="208" transform="rotate(90 1246.5 439.5)" fill="#6ECCE5" stroke="#0055DC" stroke-width="3"/>
<rect x="885.5" y="344.5" width="252" height="186" fill="#6ECCE5" stroke="#0055DC" stroke-width="3"/>
<path d="M1002.75 342.416L1001.32 341.975C1001.18 342.407 1001.25 342.876 1001.51 343.252C1001.76 343.627 1002.17 343.869 1002.62 343.91L1002.75 342.416ZM1002.75 342.416C1002.62 343.91 1002.62 343.91 1002.62 343.91L1002.62 343.91L1002.63 343.911L1002.65 343.913L1002.76 343.923C1002.85 343.931 1002.99 343.943 1003.17 343.958C1003.54 343.988 1004.07 344.03 1004.75 344.081C1006.11 344.183 1008.07 344.318 1010.46 344.449C1015.24 344.712 1021.77 344.963 1028.75 344.916C1035.73 344.868 1043.18 344.522 1049.81 343.582C1056.38 342.651 1062.35 341.107 1066.19 338.53C1081.04 328.567 1085.09 308.546 1075.2 293.803C1065.31 279.061 1045.24 275.218 1030.4 285.18C1026.56 287.758 1022.86 292.702 1019.51 298.428C1016.13 304.204 1012.98 310.973 1010.29 317.409C1007.6 323.85 1005.36 329.988 1003.79 334.513C1003.01 336.777 1002.39 338.639 1001.97 339.937C1001.76 340.586 1001.59 341.093 1001.49 341.44C1001.43 341.613 1001.39 341.746 1001.36 341.836L1001.33 341.938L1001.32 341.965L1001.32 341.972L1001.32 341.974C1001.32 341.974 1001.32 341.975 1002.75 342.416Z" stroke="#0055DC" stroke-width="3" stroke-linejoin="round"/>
<path d="M999.136 342.115L998.489 343.469C998.897 343.664 999.371 343.664 999.78 343.47C1000.19 343.276 1000.49 342.908 1000.59 342.469L999.136 342.115ZM999.136 342.115C1000.59 342.469 1000.59 342.468 1000.59 342.468L1000.59 342.466L1000.6 342.459L1000.6 342.432L1000.63 342.327C1000.65 342.236 1000.68 342.1 1000.72 341.923C1000.81 341.57 1000.93 341.05 1001.08 340.385C1001.38 339.054 1001.8 337.137 1002.28 334.79C1003.24 330.098 1004.45 323.676 1005.43 316.765C1006.41 309.86 1007.16 302.433 1007.21 295.74C1007.25 289.105 1006.6 282.968 1004.62 278.79C996.944 262.639 977.735 255.692 961.699 263.31C945.663 270.928 938.913 290.207 946.585 306.358C948.57 310.537 952.918 314.916 958.089 319.073C963.305 323.267 969.538 327.375 975.509 330.979C981.485 334.586 987.226 337.707 991.472 339.925C993.595 341.034 995.347 341.919 996.568 342.526C997.179 342.83 997.658 343.065 997.984 343.224C998.148 343.304 998.273 343.365 998.358 343.406L998.454 343.452L998.479 343.464L998.486 343.467L998.488 343.468C998.488 343.468 998.489 343.469 999.136 342.115Z" stroke="#0055DC" stroke-width="3" stroke-linejoin="round"/>
<path d="M1002.24 342.467L1000.81 342.026C1000.68 342.458 1000.75 342.928 1001 343.303C1001.25 343.679 1001.66 343.921 1002.11 343.961L1002.24 342.467ZM1002.24 342.467C1002.11 343.961 1002.11 343.961 1002.11 343.961L1002.11 343.961L1002.12 343.962L1002.14 343.964L1002.23 343.972C1002.31 343.979 1002.43 343.989 1002.59 344.002C1002.9 344.028 1003.35 344.064 1003.93 344.108C1005.1 344.195 1006.77 344.31 1008.81 344.422C1012.9 344.647 1018.48 344.862 1024.45 344.821C1030.41 344.78 1036.79 344.485 1042.47 343.68C1048.08 342.884 1053.23 341.561 1056.55 339.33C1069.33 330.754 1072.82 313.519 1064.3 300.826C1055.78 288.132 1038.51 284.826 1025.73 293.401C1022.41 295.632 1019.23 299.892 1016.37 304.787C1013.47 309.732 1010.78 315.523 1008.48 321.024C1006.18 326.531 1004.27 331.778 1002.92 335.646C1002.25 337.581 1001.73 339.173 1001.37 340.282C1001.18 340.837 1001.05 341.271 1000.95 341.568C1000.91 341.716 1000.87 341.83 1000.85 341.907L1000.82 341.995L1000.81 342.017L1000.81 342.024L1000.81 342.025C1000.81 342.026 1000.81 342.026 1002.24 342.467Z" stroke="#0055DC" stroke-width="3" stroke-linejoin="round"/>
<path d="M999.112 342.626L998.464 343.979C998.873 344.174 999.347 344.175 999.755 343.981C1000.16 343.787 1000.46 343.419 1000.57 342.979L999.112 342.626ZM999.112 342.626C1000.57 342.979 1000.57 342.979 1000.57 342.978L1000.57 342.977L1000.57 342.971L1000.58 342.947L1000.6 342.858C1000.62 342.779 1000.64 342.663 1000.68 342.512C1000.75 342.209 1000.85 341.765 1000.98 341.196C1001.24 340.058 1001.6 338.42 1002.01 336.414C1002.83 332.403 1003.87 326.914 1004.7 321.005C1005.54 315.103 1006.19 308.749 1006.22 303.019C1006.26 297.347 1005.71 292.063 1003.99 288.446C997.386 274.545 980.851 268.562 967.043 275.122C953.236 281.681 947.427 298.278 954.031 312.18C955.749 315.796 959.496 319.563 963.916 323.117C968.382 326.707 973.715 330.221 978.819 333.302C983.928 336.386 988.836 339.053 992.465 340.949C994.28 341.897 995.777 342.653 996.821 343.173C997.344 343.433 997.753 343.634 998.032 343.77C998.172 343.838 998.279 343.89 998.352 343.925L998.435 343.965L998.456 343.975L998.462 343.978L998.464 343.979C998.464 343.979 998.464 343.979 999.112 342.626Z" stroke="#0055DC" stroke-width="3" stroke-linejoin="round"/>
<rect x="1086.5" y="344.5" width="24" height="186" fill="#E2F5FA" stroke="#0055DC" stroke-width="3"/>
<rect x="1137.5" y="381.5" width="23" height="208" transform="rotate(90 1137.5 381.5)" fill="#E2F5FA" stroke="#0055DC" stroke-width="3"/>
<rect x="547.5" y="407.5" width="419" height="171" fill="#003682" stroke="#0055DC" stroke-width="3"/>
<path d="M937.139 181.414H575.288V460.767H937.139V181.414Z" fill="white"/>
<path d="M574.196 180.323V461.858H938.228V180.323H574.196ZM576.375 459.676V207.689H936.049V459.678L576.375 459.676Z" fill="#0055DC"/>
<path d="M587.062 198.656C589.523 198.656 591.518 196.666 591.518 194.211C591.518 191.756 589.523 189.766 587.062 189.766C584.601 189.766 582.605 191.756 582.605 194.211C582.605 196.666 584.601 198.656 587.062 198.656Z" fill="white"/>
<path d="M601.477 198.656C603.939 198.656 605.934 196.666 605.934 194.211C605.934 191.756 603.939 189.766 601.477 189.766C599.016 189.766 597.021 191.756 597.021 194.211C597.021 196.666 599.016 198.656 601.477 198.656Z" fill="white"/>
<path d="M615.893 198.656C618.354 198.656 620.349 196.666 620.349 194.211C620.349 191.756 618.354 189.766 615.893 189.766C613.432 189.766 611.436 191.756 611.436 194.211C611.436 196.666 613.432 198.656 615.893 198.656Z" fill="white"/>
<path d="M914.837 230.057H597.59V433.634H914.837V230.057Z" fill="#E2F5FA"/>
<path d="M693.534 270.829V256.507H817.252V270.829H693.534Z" fill="#6ECCE5" stroke="#E2F5FA" stroke-width="2"/>
<path d="M693.534 304.833V290.512H817.252V304.833H693.534Z" fill="#6ECCE5" stroke="#E2F5FA" stroke-width="2"/>
<path d="M693.534 338.837V324.515H865.067V338.837H693.534Z" fill="#6ECCE5" stroke="#E2F5FA" stroke-width="2"/>
<path d="M693.534 372.84V358.519H865.067V372.84H693.534Z" fill="#6ECCE5" stroke="#E2F5FA" stroke-width="2"/>
<path d="M693.534 406.844V392.522H835.978V406.844H693.534Z" fill="#6ECCE5" stroke="#E2F5FA" stroke-width="2"/>
<path d="M626.468 270.829V256.507H666.148V270.829H626.468Z" fill="#FBAB40" stroke="#FBAB40" stroke-width="2"/>
<path d="M626.468 304.833V290.511H666.148V304.833H626.468Z" fill="#FBAB40" stroke="#FBAB40" stroke-width="2"/>
<path d="M626.468 338.836V324.515H666.793V338.836H626.468Z" fill="#FBAB40" stroke="#FBAB40" stroke-width="2"/>
<path d="M626.468 372.841V358.519H666.793V372.841H626.468Z" fill="#FBAB40" stroke="#FBAB40" stroke-width="2"/>
<path d="M626.468 406.844V392.522H666.584V406.844H626.468Z" fill="#FBAB40" stroke="#FBAB40" stroke-width="2"/>
<rect x="547.5" y="438.5" width="419" height="177" fill="#0055DC" stroke="#0055DC" stroke-width="3"/>
<path d="M965.5 527.5L547.5 527.5L547.5 508.5L547.5 489.5L965.5 489.5L965.5 527.5Z" fill="#003682" stroke="#0055DC" stroke-width="3"/>
<path d="M499.956 555.03L501.186 555.888L502.045 554.659L540.517 499.562L540.98 498.899L540.681 498.148L529.392 469.775L529.027 468.857L528.039 468.83L497.513 468.005L496.706 467.983L496.243 468.646L457.77 523.743L456.911 524.973L458.141 525.832L499.956 555.03Z" fill="#6ECCE5" stroke="#003682" stroke-width="3"/>
<path d="M519.248 483.734L551.881 437" stroke="#003682" stroke-width="3"/>
<path d="M1198.37 443.883L1197.56 445.141C1197.94 445.388 1198.41 445.45 1198.84 445.309C1199.27 445.168 1199.61 444.839 1199.78 444.416L1198.37 443.883ZM1198.37 443.883C1199.78 444.416 1199.78 444.415 1199.78 444.415L1199.78 444.414L1199.78 444.412L1199.78 444.402L1199.79 444.366C1199.81 444.336 1199.82 444.29 1199.84 444.232C1199.89 444.114 1199.95 443.943 1200.03 443.724C1200.19 443.285 1200.41 442.655 1200.68 441.883C1201.2 440.339 1201.88 438.219 1202.51 435.919C1203.14 433.626 1203.72 431.122 1204.02 428.82C1204.32 426.575 1204.4 424.3 1203.84 422.588C1201.79 416.334 1195.12 412.871 1188.9 414.904C1182.68 416.936 1179.34 423.675 1181.39 429.928C1181.95 431.64 1183.35 433.432 1184.92 435.067C1186.52 436.744 1188.47 438.421 1190.33 439.902C1192.19 441.387 1194 442.694 1195.33 443.629C1196 444.098 1196.56 444.474 1196.94 444.734C1197.14 444.864 1197.29 444.964 1197.39 445.033C1197.44 445.068 1197.49 445.094 1197.51 445.112L1197.54 445.133L1197.55 445.139L1197.56 445.14L1197.56 445.141C1197.56 445.141 1197.56 445.141 1198.37 443.883Z" stroke="#0055DC" stroke-width="3" stroke-linejoin="round"/>
<path d="M1199.67 444.362L1198.24 443.901C1198.1 444.332 1198.16 444.802 1198.41 445.181C1198.66 445.56 1199.06 445.807 1199.51 445.854L1199.67 444.362ZM1199.67 444.362C1199.51 445.854 1199.51 445.854 1199.51 445.854L1199.51 445.854L1199.52 445.854L1199.53 445.855L1199.56 445.859C1199.58 445.86 1199.59 445.862 1199.61 445.863C1199.64 445.866 1199.67 445.869 1199.71 445.873C1199.83 445.885 1200.01 445.902 1200.25 445.922C1200.71 445.963 1201.38 446.018 1202.19 446.073C1203.81 446.184 1206.04 446.299 1208.42 446.314C1210.79 446.329 1213.35 446.246 1215.65 445.95C1217.9 445.663 1220.11 445.149 1221.62 444.167C1227.12 440.579 1228.72 433.233 1225.14 427.752C1221.57 422.271 1214.2 420.768 1208.7 424.356C1207.19 425.338 1205.83 427.157 1204.66 429.092C1203.46 431.078 1202.35 433.391 1201.41 435.569C1200.46 437.753 1199.67 439.832 1199.12 441.364C1198.84 442.13 1198.62 442.761 1198.47 443.202C1198.4 443.423 1198.34 443.596 1198.3 443.715C1198.28 443.774 1198.27 443.82 1198.26 443.851L1198.24 443.887L1198.24 443.897L1198.24 443.9L1198.24 443.901C1198.24 443.901 1198.24 443.901 1199.67 444.362Z" stroke="#0055DC" stroke-width="3" stroke-linejoin="round"/>
<path d="M1199.38 444.132L1197.91 444.447C1198 444.889 1198.29 445.265 1198.7 445.469C1199.1 445.674 1199.58 445.686 1199.99 445.501L1199.38 444.132ZM1199.38 444.132C1199.99 445.501 1199.99 445.501 1199.99 445.501L1199.99 445.501L1199.99 445.499L1200 445.495L1200.04 445.48C1200.05 445.474 1200.06 445.468 1200.08 445.461C1200.1 445.45 1200.13 445.436 1200.17 445.42C1200.28 445.368 1200.45 445.292 1200.66 445.194C1201.08 444.997 1201.68 444.712 1202.42 444.353C1203.88 443.637 1205.86 442.625 1207.93 441.449C1209.99 440.275 1212.17 438.92 1214.02 437.514C1215.81 436.144 1217.47 434.592 1218.29 432.988C1221.26 427.129 1218.97 419.97 1213.13 417.01C1207.3 414.05 1200.17 416.431 1197.2 422.29C1196.38 423.894 1196.11 426.151 1196.07 428.411C1196.02 430.729 1196.22 433.288 1196.49 435.646C1196.76 438.01 1197.12 440.207 1197.4 441.81C1197.54 442.612 1197.67 443.268 1197.76 443.725C1197.81 443.954 1197.84 444.132 1197.87 444.255C1197.87 444.276 1197.88 444.295 1197.88 444.312C1197.89 444.346 1197.89 444.374 1197.9 444.395L1197.91 444.433L1197.91 444.443L1197.91 444.445L1197.91 444.446C1197.91 444.447 1197.91 444.447 1199.38 444.132Z" stroke="#0055DC" stroke-width="3" stroke-linejoin="round"/>
<path d="M1199.38 444.132L1197.91 444.447C1198 444.889 1198.29 445.265 1198.7 445.469C1199.1 445.674 1199.58 445.686 1199.99 445.501L1199.38 444.132ZM1199.38 444.132C1199.99 445.501 1199.99 445.501 1199.99 445.501L1199.99 445.501L1199.99 445.499L1200 445.495L1200.04 445.48C1200.05 445.474 1200.06 445.468 1200.08 445.461C1200.1 445.45 1200.13 445.436 1200.17 445.42C1200.28 445.368 1200.45 445.292 1200.66 445.194C1201.08 444.997 1201.68 444.712 1202.42 444.353C1203.88 443.637 1205.86 442.625 1207.93 441.449C1209.99 440.275 1212.17 438.92 1214.02 437.514C1215.81 436.144 1217.47 434.592 1218.29 432.988C1221.26 427.129 1218.97 419.97 1213.13 417.01C1207.3 414.05 1200.17 416.431 1197.2 422.29C1196.38 423.894 1196.11 426.151 1196.07 428.411C1196.02 430.729 1196.22 433.288 1196.49 435.646C1196.76 438.01 1197.12 440.207 1197.4 441.81C1197.54 442.612 1197.67 443.268 1197.76 443.725C1197.81 443.954 1197.84 444.132 1197.87 444.255C1197.87 444.276 1197.88 444.295 1197.88 444.312C1197.89 444.346 1197.89 444.374 1197.9 444.395L1197.91 444.433L1197.91 444.443L1197.91 444.445L1197.91 444.446C1197.91 444.447 1197.91 444.447 1199.38 444.132Z" stroke="#0055DC" stroke-width="3" stroke-linejoin="round"/>
<path d="M1198.26 444.638L1198.36 446.135C1198.81 446.106 1199.22 445.875 1199.49 445.506C1199.75 445.137 1199.83 444.67 1199.71 444.234L1198.26 444.638ZM1198.26 444.638C1199.71 444.234 1199.71 444.234 1199.71 444.234L1199.71 444.233L1199.71 444.23L1199.7 444.22L1199.69 444.184C1199.68 444.152 1199.67 444.106 1199.65 444.046C1199.62 443.925 1199.57 443.75 1199.5 443.527C1199.37 443.08 1199.18 442.441 1198.93 441.664C1198.44 440.112 1197.73 438.003 1196.87 435.784C1196.01 433.571 1194.99 431.216 1193.87 429.186C1192.78 427.206 1191.49 425.335 1190.02 424.294C1184.66 420.494 1177.24 421.708 1173.46 427.045C1169.67 432.383 1170.98 439.785 1176.34 443.585C1177.8 444.626 1180 445.226 1182.23 445.601C1184.51 445.986 1187.07 446.17 1189.45 446.247C1191.82 446.325 1194.05 446.297 1195.68 446.25C1196.49 446.226 1197.16 446.198 1197.62 446.175C1197.86 446.164 1198.04 446.154 1198.16 446.147C1198.23 446.143 1198.27 446.14 1198.31 446.138L1198.34 446.136L1198.35 446.135L1198.36 446.135L1198.36 446.135C1198.36 446.135 1198.36 446.135 1198.26 444.638Z" stroke="#0055DC" stroke-width="3" stroke-linejoin="round"/>
<path d="M1201.07 448.673L1201.96 447.461C1201.59 447.194 1201.12 447.107 1200.69 447.224C1200.25 447.341 1199.89 447.65 1199.7 448.065L1201.07 448.673ZM1201.07 448.673C1199.7 448.065 1199.7 448.065 1199.7 448.065L1199.7 448.066L1199.7 448.069L1199.7 448.078L1199.68 448.113C1199.67 448.143 1199.65 448.187 1199.62 448.245C1199.57 448.36 1199.5 448.527 1199.41 448.742C1199.23 449.171 1198.97 449.788 1198.67 450.545C1198.06 452.058 1197.26 454.138 1196.51 456.4C1195.76 458.656 1195.05 461.125 1194.62 463.408C1194.2 465.633 1194 467.901 1194.46 469.641C1196.17 475.996 1202.65 479.816 1208.96 478.123C1215.28 476.43 1218.98 469.882 1217.28 463.527C1216.81 461.787 1215.51 459.922 1214.03 458.205C1212.52 456.444 1210.67 454.663 1208.89 453.083C1207.11 451.5 1205.38 450.097 1204.1 449.091C1203.45 448.587 1202.92 448.181 1202.55 447.901C1202.36 447.761 1202.22 447.652 1202.12 447.577C1202.06 447.54 1202.03 447.511 1202 447.492L1201.97 447.469L1201.96 447.463L1201.96 447.461L1201.96 447.461C1201.96 447.461 1201.96 447.461 1201.07 448.673Z" stroke="#0055DC" stroke-width="3" stroke-linejoin="round"/>
<path d="M1199.81 448.125L1201.21 448.662C1201.37 448.239 1201.33 447.766 1201.11 447.375C1200.88 446.983 1200.49 446.714 1200.04 446.643L1199.81 448.125ZM1199.81 448.125C1200.04 446.643 1200.04 446.643 1200.04 446.643L1200.04 446.643L1200.04 446.642L1200.03 446.641L1199.99 446.635C1199.96 446.63 1199.91 446.623 1199.85 446.613C1199.73 446.595 1199.54 446.568 1199.31 446.535C1198.85 446.469 1198.19 446.378 1197.38 446.279C1195.77 446.08 1193.55 445.845 1191.18 445.701C1188.81 445.557 1186.24 445.502 1183.93 445.672C1181.68 445.838 1179.44 446.231 1177.88 447.13C1172.19 450.415 1170.2 457.663 1173.47 463.33C1176.74 468.997 1184.02 470.897 1189.7 467.612C1191.26 466.713 1192.72 464.97 1193.99 463.101C1195.3 461.183 1196.53 458.934 1197.59 456.81C1198.65 454.681 1199.56 452.647 1200.19 451.148C1200.51 450.397 1200.76 449.779 1200.94 449.347C1201.02 449.131 1201.09 448.961 1201.14 448.844C1201.16 448.786 1201.18 448.741 1201.19 448.711L1201.2 448.675L1201.21 448.666L1201.21 448.663L1201.21 448.662C1201.21 448.662 1201.21 448.662 1199.81 448.125Z" stroke="#0055DC" stroke-width="3" stroke-linejoin="round"/>
<path d="M1200.09 448.37L1201.57 448.135C1201.5 447.688 1201.23 447.297 1200.84 447.071C1200.44 446.845 1199.97 446.807 1199.55 446.969L1200.09 448.37ZM1200.09 448.37C1199.55 446.969 1199.55 446.969 1199.55 446.97L1199.55 446.97L1199.54 446.971L1199.54 446.975L1199.5 446.988C1199.49 446.993 1199.47 446.998 1199.46 447.004C1199.43 447.014 1199.4 447.026 1199.37 447.04C1199.25 447.086 1199.08 447.153 1198.86 447.24C1198.43 447.413 1197.81 447.666 1197.06 447.984C1195.56 448.62 1193.53 449.523 1191.4 450.586C1189.28 451.646 1187.03 452.881 1185.11 454.184C1183.24 455.455 1181.5 456.915 1180.6 458.473C1177.31 464.162 1179.21 471.435 1184.88 474.706C1190.55 477.978 1197.8 475.987 1201.08 470.298C1201.98 468.74 1202.37 466.501 1202.54 464.247C1202.71 461.934 1202.65 459.369 1202.51 457C1202.37 454.624 1202.13 452.412 1201.93 450.795C1201.83 449.986 1201.74 449.324 1201.68 448.863C1201.64 448.633 1201.62 448.452 1201.6 448.329C1201.59 448.308 1201.59 448.288 1201.59 448.27C1201.58 448.236 1201.58 448.208 1201.58 448.187L1201.57 448.149L1201.57 448.139L1201.57 448.136L1201.57 448.135C1201.57 448.135 1201.57 448.135 1200.09 448.37Z" stroke="#0055DC" stroke-width="3" stroke-linejoin="round"/>
<path d="M1200.09 448.37L1201.57 448.135C1201.5 447.688 1201.23 447.297 1200.84 447.071C1200.44 446.845 1199.97 446.807 1199.55 446.969L1200.09 448.37ZM1200.09 448.37C1199.55 446.969 1199.55 446.969 1199.55 446.97L1199.55 446.97L1199.54 446.971L1199.54 446.975L1199.5 446.988C1199.49 446.993 1199.47 446.998 1199.46 447.004C1199.43 447.014 1199.4 447.026 1199.37 447.04C1199.25 447.086 1199.08 447.153 1198.86 447.24C1198.43 447.413 1197.81 447.666 1197.06 447.984C1195.56 448.62 1193.53 449.523 1191.4 450.586C1189.28 451.646 1187.03 452.881 1185.11 454.184C1183.24 455.455 1181.5 456.915 1180.6 458.473C1177.31 464.162 1179.21 471.435 1184.88 474.706C1190.55 477.978 1197.8 475.987 1201.08 470.298C1201.98 468.74 1202.37 466.501 1202.54 464.247C1202.71 461.934 1202.65 459.369 1202.51 457C1202.37 454.624 1202.13 452.412 1201.93 450.795C1201.83 449.986 1201.74 449.324 1201.68 448.863C1201.64 448.633 1201.62 448.452 1201.6 448.329C1201.59 448.308 1201.59 448.288 1201.59 448.27C1201.58 448.236 1201.58 448.208 1201.58 448.187L1201.57 448.149L1201.57 448.139L1201.57 448.136L1201.57 448.135C1201.57 448.135 1201.57 448.135 1200.09 448.37Z" stroke="#0055DC" stroke-width="3" stroke-linejoin="round"/>
<path d="M1201.22 447.924L1201.21 446.424C1200.76 446.429 1200.33 446.637 1200.05 446.991C1199.77 447.346 1199.66 447.808 1199.76 448.249L1201.22 447.924ZM1201.22 447.924C1199.76 448.249 1199.76 448.25 1199.76 448.25L1199.76 448.251L1199.76 448.254L1199.76 448.264L1199.77 448.301C1199.78 448.333 1199.79 448.38 1199.8 448.441C1199.83 448.563 1199.87 448.74 1199.93 448.967C1200.04 449.42 1200.19 450.069 1200.4 450.858C1200.81 452.434 1201.4 454.578 1202.14 456.841C1202.88 459.097 1203.77 461.504 1204.77 463.592C1205.76 465.628 1206.94 467.566 1208.35 468.685C1213.5 472.77 1220.97 471.96 1225.04 466.835C1229.11 461.711 1228.21 454.249 1223.06 450.163C1221.65 449.045 1219.5 448.327 1217.29 447.832C1215.03 447.323 1212.48 447.001 1210.12 446.795C1207.75 446.589 1205.52 446.496 1203.89 446.455C1203.08 446.434 1202.41 446.427 1201.95 446.424C1201.71 446.423 1201.53 446.423 1201.41 446.423C1201.34 446.423 1201.3 446.424 1201.26 446.424L1201.22 446.424L1201.21 446.424L1201.21 446.424L1201.21 446.424C1201.21 446.424 1201.21 446.424 1201.22 447.924Z" stroke="#0055DC" stroke-width="3" stroke-linejoin="round"/>
<circle cx="518.552" cy="483.858" r="4.5" transform="rotate(34.9256 518.552 483.858)" fill="#0055DC"/>
<path d="M823.423 562.813L805.5 581.298L805.5 438.5L843.5 438.5L843.5 581.298L825.577 562.813L824.5 561.702L823.423 562.813Z" fill="#003682" stroke="#0055DC" stroke-width="3"/>
</svg>
