<svg xmlns="http://www.w3.org/2000/svg" xmlns:xlink="http://www.w3.org/1999/xlink" id="Layer_1" x="0px" y="0px" viewBox="0 0 564.8 145.3" style="enable-background:new 0 0 564.8 145.3;" xml:space="preserve">
<style type="text/css">
	.st0{fill:#FFFFFF;}
</style>
<title>Untitled-1</title>
<path class="st0" d="M0,75.6c0.8-5.1,1.4-10.3,2.4-15.4c1.4-8,4.2-15.7,8.2-22.7c1.5-2.3,3.2-4.6,5-6.7c6.3,3.3,7.4,6.5,4.3,12.3  c-3,5.6-6.3,11-7.5,17.4c-7.8,40,21,77.4,63.9,74.1c7.8-0.6,15.1-3.1,22.2-6.4c1.9-0.9,3.6-2.5,5.3-3.8l-0.1-1.2  c-3.8-1.4-7.5-3.1-11.3-4.3c-9.6-2.8-19.5-2.9-29.3-2c-4.5,0.4-9,1-13.4,1c-2.3,0-4.6-0.7-6.6-1.9c-5.1-3.3-10-7.1-14.9-10.6  c-1-0.7-2-1.5-2.9-2.4c-2.8-2.7-3.2-3.8-1.3-7.2c6.9-12.7,15-24.7,24.1-35.9c1.4-2,4-2.8,6.3-1.8c1.6,0.6,3.2,1.2,4.8,1.8  c-0.4,3.5-2.5,5.7-4.2,8.1c-5.5,7.5-10.9,15.1-16.3,22.8c-1.1,1.8-2.1,3.8-3,5.7c3.9,4.5,8.7,8.1,14.1,10.5c1.4,0.4,2.9,0.5,4.4,0.3  c11.2-1,22.4-1.9,33.6-0.3c7.1,1,13.9,2.9,20,6.8c1,0.7,2.1,1.3,3.3,1.8c1.6,1,3.6,0.6,4.7-0.9c2-2.2,3.9-4.6,5.6-7  c7.5-11.4,10.9-25.1,9.7-38.7c-0.8-9.6-3.8-18.1-8.9-26.8c-4.2,1.5-8.4,2.8-12.5,4.6c-3.3,1.4-6.5,3.1-9.6,5c-3.3,2-6.4,4.3-9.3,6.8  c-1.5,1.2-2.9,2.3-5,2c-17.2-2.1-34-5.7-48.5-16C23.5,34.9,15.9,21.5,12.8,5.3c-0.3-1.5-0.6-3.1-1-5.4c1.9,0.7,3.8,1.5,5.6,2.4  c5.8,3.2,11.5,6.5,17.2,9.8c17.5,10,36.6,14.8,56.5,17.2c0.6,0.1,1.2,0.1,2.6,0.2c-0.5,1.3-0.6,2.8-1.3,3.4  c-4.3,3.4-8.8,6.5-13.2,9.7c-2.7,2.2-6.4,2.7-9.5,1.1c-3.5-1.6-3.8-2.6-1.5-5.8c0.2-0.3,0.4-0.7,0.5-1c0-0.1,0-0.2,0,0L30.9,23.1  c1.4,1.9,2.2,3.1,3.1,4.3C42.5,37.9,54,43.5,67,46.6c3.3,0.8,6.6,1.4,9.8,2.3c4.4,1.3,8.2,0.4,11.9-2.3c4.2-3.1,8.7-5.8,13.3-8.3  c3.5-1.8,7.3-3,11.5-4.7c-0.8-1.2-1.4-2.8-2.4-3.7c-2.9-2.5-5.8-5.2-9.1-7.1c-12.9-7.1-26.6-10.7-41.4-7.2C53.6,17.3,48,15,42.7,10  C48.6,7.4,54.9,5.7,61.3,5c33.2-4.3,59.5,12.3,73,38.1c11.2,21.6,9.5,43.6-1.3,64.9c-11.2,21.9-29.8,34.1-54.2,36.9  c-26,3-46.7-7.4-63.1-27.1C7,107.3,1.6,95.2,0.7,81.5c-0.1-1.2-0.4-2.4-0.6-3.6L0,75.6z"></path>
<path class="st0" d="M194.6,48.4l-5.6,36.6h-7.9l-6-36l-0.9,0.1V85h-6.9V29.7h11.4c2.1,12.7,4.1,25.2,6.2,37.8h0.9  c1.9-12.6,3.8-25.2,5.8-37.8H203V85h-7.3V48.4H194.6z"></path>
<path class="st0" d="M532.9,85h-8.4c-3.5-12.8-7-25.6-10.5-38.4l-0.8,0.1v38.2h-7.1V29.7h10.2l8.5,31.3l0.9-0.1V29.7h7.2L532.9,85z"></path>
<path class="st0" d="M257.5,29.7c5.7,0,11.1-0.4,16.5,0.1s8.3,3.9,8.9,9.4c0.3,3.3,0.3,6.7,0,10c-0.2,3.5-2.2,6.7-5.3,8.4  c4.8,3.3,5.6,7.7,5.5,12.6s0,9.6,0,14.6h-7.7c-0.2-1.9-0.4-3.7-0.5-5.6c-0.1-3.5,0.1-7-0.1-10.4c-0.3-5.8-2.7-7.5-9.1-6.4v22.3h-8.3  L257.5,29.7z M265.7,37c-0.2,6.2-0.2,11.8,0,17.3c5.9,0.7,8.2-0.2,8.6-3.6c0.3-3.4,0.3-6.9,0-10.3c-0.1-1.8-1.6-3.3-3.5-3.3  C269.2,37,267.5,36.9,265.7,37L265.7,37z"></path>
<path class="st0" d="M401.9,62.6V85h-8.1V29.8c5.7,0,11.3-0.4,16.8,0.1c5.1,0.5,7.9,3.6,8.5,8.9c0.4,3.6,0.4,7.2,0,10.8  c-0.2,3.4-2,6.1-5.1,8.2c4.8,3.3,5.5,8.1,5.4,13.2c-0.1,4.6,0,9.1,0,14h-7.7c-0.2-1.9-0.4-3.7-0.5-5.5c-0.1-3.5,0.1-7-0.1-10.4  C410.9,63.3,408.6,61.6,401.9,62.6z M402.3,54.1c6.2,1.4,8.6-0.3,8.8-6c0.1-2.5,0-4.9-0.3-7.4c-0.2-2.3-1.7-3.5-3.9-3.7  c-1.4-0.1-2.9,0-4.6,0V54.1z"></path>
<path class="st0" d="M458.3,85.1V29.7c5.8,0,11.4-0.4,16.9,0.1c5,0.4,8.6,3.7,8.8,8.7c0.4,12.5,0.5,25,0,37.5  c-0.3,5.6-4.6,8.7-10.6,9C468.5,85.3,463.6,85.1,458.3,85.1z M466.6,37.3v39.7c7.2,1.9,9.6,0.2,9.7-6.7c0-5.2,0-10.4,0-15.6  c0-3.6,0-7.2,0-10.8c-0.1-5.8-1.7-7.2-7.5-6.9C468.2,36.9,467.6,37.1,466.6,37.3z"></path>
<path class="st0" d="M342.1,58.4c3.8,2.5,4.6,6.8,4.6,11.4c0,5,0,9.9,0,15.1h-7.8c-0.1-2.8-0.3-5.5-0.4-8.2s0.1-5.2-0.1-7.8  c-0.4-5.8-2.7-7.4-9.2-6.3v22.3h-8.1V29.4c6,0.2,12-0.7,18.1,0.6c3.8,0.9,6.4,3.3,6.8,7.1c0.5,4.5,0.5,9.1,0,13.7  C345.7,53.3,343.6,55.5,342.1,58.4z M329.4,36.9v17.3c6.5,1.2,8.8-0.5,8.8-6.5c0-2.1,0.1-4.2-0.1-6.3c-0.3-3-1.5-4.2-4.5-4.5  C332.4,36.8,331,36.9,329.4,36.9L329.4,36.9z"></path>
<path class="st0" d="M233.6,62.6v22.3H226c-1-2.5-1.3-48.7-0.4-55.3c6.3,0,12.8-1.1,19,0.9c4,1.3,5.8,4.6,6.1,8.6  c0.2,3.5,0.2,7,0,10.4c-0.2,3.4-2,6-5.1,8.3c5,3.3,5.4,8.3,5.3,13.5c-0.1,4.5,0,8.9,0,13.6h-7.7c-0.2-1.8-0.4-3.6-0.5-5.5  c-0.1-3.4,0-6.7-0.1-10.1C242.7,63.4,240.4,61.6,233.6,62.6z M233.9,36.9v17.4c5.8,0.8,8.1-0.3,8.6-4.3c0.3-3,0.3-5.9,0-8.9  c-0.3-3-1.7-4.1-4.7-4.3C236.6,36.8,235.4,36.9,233.9,36.9z"></path>
<path class="st0" d="M314.7,57.3c0,5.1,0.1,10.2,0,15.3c-0.3,10.4-8.5,15.9-18.3,12.4c-5.1-1.8-7.5-5.9-7.6-10.9  c-0.3-11.2-0.4-22.4,0-33.5c0.3-7.7,5.5-11.9,13.5-11.7c7.5,0.2,11.9,4.5,12.4,12.1c0,0.4,0,0.7,0,1.1L314.7,57.3z M306.5,57.4  L306.5,57.4c0-4,0-7.9,0-11.9c0.1-1.7,0-3.5-0.2-5.2c-0.1-2.3-2.2-4.1-4.5-4c0,0-0.1,0-0.1,0c-2.6,0-4,1.2-4.5,4  c-0.2,1.2-0.3,2.5-0.3,3.7c0,8.8,0,17.6,0,26.4c0,1.5,0.2,3,0.4,4.4c0.4,2.1,1.9,3.1,4,3.2c3.3,0.2,5-1.5,5.1-5.4  C306.6,67.6,306.5,62.5,306.5,57.4L306.5,57.4z"></path>
<path class="st0" d="M564.7,47.7h-7.8c0-2.2,0.1-4.4,0-6.5s-0.9-4.1-3.4-4.7c-3.2-0.7-5.4,0.8-5.9,4c-0.1,0.6-0.1,1.2-0.1,1.9v29.4  c0,0.7,0,1.5,0.1,2.2c0.5,2.6,2,3.9,4.6,3.9s4.4-1.2,4.5-3.9c0.3-3.8,0.1-7.7,0.1-11.7l-3.6-1v-6.9h11.3c0,7.1,0.5,14.1-0.2,20.9  c-0.7,7-5.5,10.5-12.7,10.4s-11.3-3.8-12.3-10.9c-0.2-1.5-0.3-2.9-0.3-4.4c0-8.8,0-17.6,0-26.4c0-1.1,0-2.2,0.1-3.4  c1.1-9.8,9.7-14.6,18.8-10.7c4.4,1.9,6.1,5.6,6.7,10C564.9,42.6,564.8,45.1,564.7,47.7z"></path>
<path class="st0" d="M453.5,84.9h-8.2c-0.6-3.2-1.2-6.5-1.8-9.9h-10.9c-0.6,3.4-1.1,6.6-1.7,9.9h-7.5c3-18.6,5.9-36.9,8.8-55.3h12.5  C447.7,48.1,450.6,66.4,453.5,84.9z M442.5,67.4c-1.4-9.1-2.7-17.9-4-26.7h-0.9c-1.3,8.8-2.6,17.7-3.9,26.6L442.5,67.4z"></path>
<path class="st0" d="M389.2,29.7v6.9l-9,0.5V85h-8.4V37.1l-8.8-0.4v-7L389.2,29.7z"></path>
<path class="st0" d="M210.2,29.6h8V85h-8V29.6z"></path>
<path class="st0" d="M490.9,29.6h7.7v55.3h-7.7V29.6z"></path>
<path class="st0" d="M190.7,96.3c4.6-1,4.6-0.9,6.6,2.7l5.5,10.3l0.8-0.2v-13l3-0.4v19.8c-3.3,1.2-4.1,1-5.6-1.6  c-1.8-3.3-3.5-6.6-5.2-9.9c-0.4-0.7-0.8-1.4-1.3-2l-0.8,0.2c0,3.8,0,7.5,0,11.3c0,1.8-0.3,3.3-3,2.5L190.7,96.3z"></path>
<path class="st0" d="M321.7,96.2c4.6-0.8,4.6-0.8,6.7,3c1.7,3.5,3.8,6.8,6.1,9.9v-13h3.3v19.3c-3.2,1.5-4.2,1.2-5.7-1.6  c-1.9-3.4-3.6-6.8-5.4-10.2c-0.4-0.8-1.1-1.5-2-1.8c0,4,0,8,0,12.1c0,1.8-0.5,2.9-2.9,2.1V96.2z"></path>
<path class="st0" d="M464.5,104.7c-0.1,8.5-3.7,12.2-10.5,11.9c-4.8-0.2-7.4-2.2-8.2-7c-0.4-2.2-0.4-4.4,0-6.6c1-5.2,6-8.7,11.2-7.7  c1.2,0.2,2.3,0.7,3.3,1.3C464,98.7,464.4,102.2,464.5,104.7z M460.6,105.9c-0.1-0.8-0.1-1.8-0.3-2.8c-0.6-3.1-2.1-4.5-4.9-4.6  c-2.7-0.3-5.2,1.6-5.6,4.3c-0.3,1.5-0.4,2.9-0.3,4.4c0.2,4.1,2.1,6.3,5.3,6.4s5.3-2.1,5.7-6.1C460.5,107.1,460.5,106.6,460.6,105.9  L460.6,105.9z"></path>
<path class="st0" d="M486.5,101.8v11.7c0,1.8-0.2,3.3-2.9,2.4V96.4c4.2-1.2,4.6-1,6.6,2.5s3.7,6.9,5.5,10.4l0.9-0.1V98.2  c0-1.8,0.6-2.9,2.9-2.1v19.5c-3.5,1.1-4.1,1-5.6-1.7c-1.8-3.3-3.5-6.6-5.3-9.9c-0.4-0.8-1-1.6-1.4-2.4L486.5,101.8z"></path>
<path class="st0" d="M298.9,106.4l4.4,9.5l-3.9,0.5c-0.9-2-1.6-3.8-2.4-5.6s-1.9-3.5-4.8-2.9v8l-3.7,0.4V96.1c3.2,0,6.5-0.5,9.5,0.1  c3.9,0.7,5.2,5.5,2.7,8.6C300.1,105.4,299.5,106,298.9,106.4z M292.2,104.7c2.2,0.2,4.3,0.6,5.3-1.6c0.4-1.1,0.3-2.3-0.3-3.4  c-1.3-1.6-3.2-1.3-5-0.8L292.2,104.7z"></path>
<path class="st0" d="M374.2,115.8c-4.8,2-4.2-2.3-5.8-4.1h-7.2c-2,1.1-0.8,5.8-5.6,4.2l6.7-19.9h5.1  C369.7,102.5,372,109.1,374.2,115.8z M367.6,108.4c-0.5-3.1-1.6-6-3.1-8.8l-2.8,8.8H367.6z"></path>
<path class="st0" d="M524.3,95.9h5c2.2,6.6,4.5,13.2,6.8,19.9c-0.5,0.2-1.1,0.4-1.6,0.6c-0.7,0-1.3,0-2-0.1c-0.7-1.5-1.3-2.9-2-4.6  h-7.3c-2,1.1-0.7,5.9-5.7,4.2C519.8,109.2,522,102.6,524.3,95.9z M527.1,100.4l-1-0.1l-2.5,8h6C528.7,105.5,527.9,103,527.1,100.4z"></path>
<path class="st0" d="M257.9,96h10.6c0.2,2.5,0.2,2.5-2.3,2.6c-1.5,0-2.9,0-4.6,0v4.9c1.9,1.8,5.4-0.9,6.9,3.1l-6.8,0.5v5.9l7.2,0.6  c0.5,1.5,0.5,2.6-1.3,2.7c-3.1,0.1-6.2,0-9.6,0V96z"></path>
<path class="st0" d="M230.4,99.2c-2.1-1.5-5.7,1.1-5.5-3.2h14.7v2.4l-5.2,0.6v17l-4,0.5L230.4,99.2z"></path>
<path class="st0" d="M390,96h15c0.1,0.7,0.1,1.3,0.2,2.3l-5.6,0.7v17l-3.8,0.3V100C394.2,97.4,390.1,100.4,390,96z"></path>
<path class="st0" d="M564.7,116h-10.6V96h3.5v16.5c2.7,0.6,4.9,1.1,7.1,1.6C564.8,114.2,564.7,115.2,564.7,116z"></path>
<path class="st0" d="M423.2,96h3.3v20c-0.5,0.2-1.1,0.3-1.6,0.4c-0.6-0.1-1.1-0.2-1.7-0.3V96z"></path>
<path class="st0" d="M167.3,96h3.2v20l-3.2,0.3V96z"></path>
</svg>