<svg width="76" height="58" fill="none" xmlns="http://www.w3.org/2000/svg"><path d="M15.45 15.993c-1.71 3.315-2.564 7.69-2.564 13.129 0 5.438.854 9.814 2.563 13.128 1.71 3.315 4.377 4.972 8.002 4.972 3.625 0 6.292-1.657 8.001-4.972 1.71-3.314 2.564-7.69 2.564-13.128s-.855-9.814-2.564-13.129c-1.709-3.315-4.376-4.972-8.001-4.972-3.625 0-6.293 1.657-8.002 4.972zm8 41.173c-7.509 0-13.128-2.538-16.857-7.613C2.864 44.426 1 37.615 1 29.122 1 20.576 2.864 13.766 6.593 8.69 10.323 3.564 15.941 1 23.451 1s13.128 2.564 16.857 7.69c3.73 5.076 5.593 11.886 5.593 20.432 0 8.493-1.864 15.303-5.593 20.43-3.729 5.076-9.348 7.614-16.857 7.614zM52.693 2.243h21.985v54.301H63.025v-43.97H52.693V2.244z" opacity=".05" stroke="#fff" stroke-width="1.5"/></svg>