<svg width="93" height="58" fill="none" xmlns="http://www.w3.org/2000/svg"><g opacity=".05" stroke="#fff" stroke-width="1.5"><path d="M15.45 15.993c-1.71 3.315-2.564 7.69-2.564 13.129 0 5.438.854 9.814 2.563 13.128 1.71 3.315 4.377 4.972 8.002 4.972 3.625 0 6.292-1.657 8.001-4.972 1.71-3.314 2.564-7.69 2.564-13.128s-.855-9.814-2.564-13.129c-1.709-3.315-4.376-4.972-8.001-4.972-3.625 0-6.293 1.657-8.002 4.972zm8 41.173c-7.509 0-13.128-2.538-16.857-7.613C2.864 44.426 1 37.615 1 29.122 1 20.576 2.864 13.766 6.593 8.69 10.323 3.564 15.941 1 23.451 1s13.128 2.564 16.857 7.69c3.73 5.076 5.593 11.886 5.593 20.432 0 8.493-1.864 15.303-5.593 20.43-3.729 5.076-9.348 7.614-16.857 7.614zM56.111 12.575V2.243h33.25v8.39L78.25 23.295c4.35.725 7.717 2.564 10.1 5.516 2.382 2.9 3.573 6.267 3.573 10.099 0 5.697-1.942 10.177-5.826 13.44-3.833 3.21-8.753 4.816-14.76 4.816-6.008 0-12.093-2.124-18.256-6.37l4.972-9.633c5.127 3.625 9.71 5.438 13.75 5.438 2.434 0 4.428-.596 5.981-1.787 1.606-1.191 2.409-2.9 2.409-5.127 0-2.279-.907-4.066-2.72-5.36-1.812-1.347-4.324-2.02-7.535-2.02-1.709 0-4.117.492-7.224 1.476v-8.934l10.41-12.274H56.11z"/></g></svg>