<svg width="94" height="58" fill="none" xmlns="http://www.w3.org/2000/svg"><g opacity=".05" stroke="#fff" stroke-width="1.5"><path d="M15.45 15.993c-1.71 3.315-2.564 7.69-2.564 13.129 0 5.438.854 9.814 2.563 13.128 1.71 3.315 4.377 4.972 8.002 4.972 3.625 0 6.292-1.657 8.001-4.972 1.71-3.314 2.564-7.69 2.564-13.128s-.855-9.814-2.564-13.129c-1.709-3.315-4.376-4.972-8.001-4.972-3.625 0-6.293 1.657-8.002 4.972zm8 41.173c-7.509 0-13.128-2.538-16.857-7.613C2.864 44.426 1 37.615 1 29.122 1 20.576 2.864 13.766 6.593 8.69 10.323 3.564 15.941 1 23.451 1s13.128 2.564 16.857 7.69c3.73 5.076 5.593 11.886 5.593 20.432 0 8.493-1.864 15.303-5.593 20.43-3.729 5.076-9.348 7.614-16.857 7.614zM70.716 31.22c3.211-3.264 5.49-5.853 6.836-7.77 1.399-1.967 2.098-3.858 2.098-5.67 0-1.813-.596-3.315-1.787-4.506-1.191-1.243-2.719-1.864-4.583-1.864-3.418 0-6.655 2.434-9.71 7.302l-9.711-5.749c2.537-3.936 5.308-6.914 8.312-8.933C65.226 2.01 69.085 1 73.746 1c4.713 0 8.83 1.502 12.352 4.506 3.573 2.952 5.36 6.991 5.36 12.118 0 2.797-.725 5.49-2.175 8.08-1.399 2.537-4.014 5.8-7.847 9.788l-9.788 10.176H93.09v10.876H54.791v-9.011l15.925-16.314z"/></g></svg>