<?xml version="1.0" encoding="UTF-8" standalone="no"?>
<svg width="90px" height="90px" viewBox="0 0 90 90" version="1.1" xmlns="http://www.w3.org/2000/svg" xmlns:xlink="http://www.w3.org/1999/xlink">
    <!-- Generator: Sketch 50.2 (55047) - http://www.bohemiancoding.com/sketch -->
    <title>browser-icon</title>
    <desc>Created with Sketch.</desc>
    <defs></defs>
    <g id="Page-1" stroke="none" stroke-width="1" fill="none" fill-rule="evenodd">
        <g id="getcryptotab--browser-promopage--texts-upd" transform="translate(-595.000000, -150.000000)">
            <g id="first" transform="translate(30.000000, 150.000000)">
                <g id="browser-icon" transform="translate(565.000000, 0.000000)">
                    <circle id="Oval" fill="#FFFFFF" cx="47.8125" cy="44.0625" r="38.4375"></circle>
                    <path d="M45,90 C20.1471863,90 0,69.8528137 0,45 C0,20.1471863 20.1471863,0 45,0 C69.8528137,0 90,20.1471863 90,45 C90,69.8528137 69.8528137,90 45,90 Z M61.902,63.054 C59.7419892,64.1880057 57.5280113,65.1059965 55.26,65.808 C52.9919887,66.5100035 50.2650159,66.861 47.079,66.861 C40.1669654,66.861 34.7400197,64.7280213 30.798,60.462 C27.1799819,56.5199803 25.371,51.3090324 25.371,44.829 C25.371,38.3489676 27.1799819,33.1380197 30.798,29.196 C32.6340092,27.19799 34.9154864,25.6320057 37.6425,24.498 C40.3695136,23.3639943 43.4204831,22.797 46.7955,22.797 C50.1705169,22.797 52.9919887,23.1479965 55.26,23.85 C57.5280113,24.5520035 59.7419892,25.4699943 61.902,26.604 C62.3340022,26.8200011 62.9414961,26.928 63.7245,26.928 C64.5075039,26.928 65.1824972,26.6175031 65.7495,25.9965 C66.3165028,25.3754969 66.6,24.6735039 66.6,23.8905 C66.6,23.1074961 66.4380016,22.4595026 66.114,21.9465 C65.7899984,21.4334974 64.8585077,20.7585042 63.3195,19.9215 C61.7804923,19.0844958 59.5665144,18.1800049 56.6775,17.208 C53.7884856,16.2359951 50.34602,15.75 46.35,15.75 C38.0879587,15.75 31.3380262,18.3419741 26.1,23.526 C20.699973,28.8180265 18,35.9189554 18,44.829 C18,53.7390445 20.699973,60.8399735 26.1,66.132 C28.6380127,68.6700127 31.6349827,70.6004934 35.091,71.9235 C38.5470173,73.2465066 42.2864799,73.908 46.3095,73.908 C50.3325201,73.908 53.7884856,73.4220049 56.6775,72.45 C59.5665144,71.4779951 62.2799873,70.290007 64.818,68.886 C66.0060059,68.291997 66.6,67.2660073 66.6,65.808 C66.6,64.9979959 66.3165028,64.2825031 65.7495,63.6615 C65.1824972,63.0404969 64.5075039,62.73 63.7245,62.73 C62.9414961,62.73 62.3340022,62.8379989 61.902,63.054 Z M54.7280605,53.0309278 C53.7085391,53.5661765 52.6652035,53.9987791 51.5973544,54.3293038 C50.5801003,54.6441682 49.3266727,54.8055005 47.8394985,54.8055005 C44.6832617,54.8055005 42.27196,53.8577749 40.5252512,51.967501 C38.9202728,50.2187837 38.1104983,47.8861498 38.1104983,44.9145003 C38.1104983,41.9428507 38.9202728,39.6102168 40.5278254,37.8587043 C41.3324147,36.9831221 42.3372504,36.2934124 43.5532104,35.7877656 C44.7748304,35.2797652 46.1537811,35.0235001 47.6977485,35.0235001 C49.2803609,35.0235001 50.5820331,35.1854306 51.5973544,35.4996967 C52.6652035,35.8302214 53.7085391,36.262824 54.7280605,36.7980727 C55.1430583,37.0058181 55.6109568,37.0890001 56.1622487,37.0890001 C56.876513,37.0890001 57.5130645,36.7961864 58.0055449,36.2568031 C58.4747106,35.7429549 58.7249987,35.1231939 58.7249987,34.4452501 C58.7249987,33.85333 58.5922335,33.3222693 58.3081737,32.8725079 C58.0089948,32.3988079 57.4327577,31.9812448 56.4972421,31.4724556 C55.661104,31.0177138 54.4984461,30.5427256 52.997493,30.037732 C51.4285046,29.5098481 49.5879142,29.25 47.4749985,29.25 C43.0565411,29.25 39.3953939,30.6558805 36.5586356,33.4633939 C33.6359272,36.3276291 32.1749983,40.1698721 32.1749983,44.9145003 C32.1749983,49.6591284 33.6359272,53.5013714 36.5625787,56.3694899 C37.9361302,57.7431225 39.568874,58.7948449 41.4432976,59.5123977 C43.3025619,60.2241473 45.3085689,60.5790005 47.4547485,60.5790005 C49.5810286,60.5790005 51.4282659,60.3192328 52.997493,59.7912685 C54.5055002,59.2839016 55.9244547,58.6626678 57.2535678,57.9274138 C58.1989737,57.4558012 58.7249987,56.5472126 58.7249987,55.4040004 C58.7249987,54.7153307 58.4763867,54.0878812 58.0055449,53.5721974 C57.5130645,53.0328141 56.876513,52.7400004 56.1622487,52.7400004 C55.6109568,52.7400004 55.1430583,52.8231824 54.7280605,53.0309278 Z" fill="#F7931A"></path>
                </g>
            </g>
        </g>
    </g>
</svg>