<?xml version="1.0" ?><svg height="512" id="svg2" version="1.1" width="512" xmlns="http://www.w3.org/2000/svg" xmlns:cc="http://creativecommons.org/ns#" xmlns:dc="http://purl.org/dc/elements/1.1/" xmlns:inkscape="http://www.inkscape.org/namespaces/inkscape" xmlns:rdf="http://www.w3.org/1999/02/22-rdf-syntax-ns#" xmlns:sodipodi="http://sodipodi.sourceforge.net/DTD/sodipodi-0.dtd" xmlns:svg="http://www.w3.org/2000/svg"><defs id="defs4"/><g id="layer1" transform="translate(0,-540.36218)"><g id="g2987" transform="translate(0,-14.00001)"><path d="m 84.85719,1042.6844 c 10.44229,0 20.88458,0 31.32687,0 l 0,-94.06893 24.85718,-0.0162 L 100.52062,858.03998 60,948.59927 l 24.85719,0.0162 z" id="path2983" style="fill:#333F4F;stroke:none"/><path d="m 240.33657,1042.6844 c 10.44229,0 20.88458,0 31.32687,0 l 0,-214.06893 24.85718,-0.0162 L 256,738.03998 l -40.52062,90.55929 24.85719,0.0162 z" id="path2985" style="fill:#333F4F;stroke:none"/><path d="m 395.81595,1042.6844 c 10.44229,0 20.88458,0 31.32687,0 l 0,-374.06893 24.85718,-0.0162 -40.52062,-90.55929 -40.52062,90.55929 24.85719,0.0162 z" id="path3035" style="fill:#333F4F;stroke:none"/></g></g></svg>