<?xml version="1.0" encoding="UTF-8"?>
<svg width="14px" height="10px" viewBox="0 0 14 10" version="1.1" xmlns="http://www.w3.org/2000/svg" xmlns:xlink="http://www.w3.org/1999/xlink">
    <!-- Generator: Sketch 50.2 (55047) - http://www.bohemiancoding.com/sketch -->
    <title>right-arrow-2 copy</title>
    <desc>Created with Sketch.</desc>
    <defs></defs>
    <g id="Welcome" stroke="none" stroke-width="1" fill="none" fill-rule="evenodd">
        <g id="17_Para-Cekme-Formu" transform="translate(-830.000000, -698.000000)" fill="#3FB26E" fill-rule="nonzero">
            <g id="Content" transform="translate(330.000000, 240.000000)">
                <g id="İçerik" transform="translate(40.000000, 250.000000)">
                    <g id="right-arrow-2-copy" transform="translate(460.000000, 208.000000)">
                        <path d="M9.2771875,0.437826087 C9.0895,0.244782609 8.777125,0.244782609 8.582875,0.437826087 C8.3951875,0.624347826 8.3951875,0.934782609 8.582875,1.12086957 L12.1034375,4.61956522 L0.4860625,4.61956522 C0.21525,4.62 0,4.83391304 0,5.10304348 C0,5.37217391 0.21525,5.59304348 0.4860625,5.59304348 L12.1034375,5.59304348 L8.582875,9.08521739 C8.3951875,9.27826087 8.3951875,9.58913043 8.582875,9.77521739 C8.777125,9.96826087 9.0899375,9.96826087 9.2771875,9.77521739 L13.6311875,5.44826087 C13.8254375,5.26173913 13.8254375,4.95130435 13.6311875,4.76521739 L9.2771875,0.437826087 Z" id="Shape"></path>
                    </g>
                </g>
            </g>
        </g>
    </g>
</svg>