<?xml version="1.0" encoding="UTF-8"?>
<svg width="14px" height="10px" viewBox="0 0 14 10" version="1.1" xmlns="http://www.w3.org/2000/svg" xmlns:xlink="http://www.w3.org/1999/xlink">
    <!-- Generator: Sketch 50.2 (55047) - http://www.bohemiancoding.com/sketch -->
    <title>Shape Copy 3</title>
    <desc>Created with Sketch.</desc>
    <defs></defs>
    <g id="Welcome" stroke="none" stroke-width="1" fill="none" fill-rule="evenodd">
        <g id="Büyük-Promosyonlar" transform="translate(-510.000000, -580.000000)" fill="#9D9FA9" fill-rule="nonzero">
            <g id="Splash-Promo1" transform="translate(470.000000, 100.000000)">
                <g id="Maddeler" transform="translate(40.000000, 355.000000)">
                    <path d="M9.42743728,125.150393 C9.23671007,124.949869 8.91927596,124.949869 8.72187996,125.150393 C8.53115275,125.344142 8.53115275,125.666606 8.72187996,125.859904 L12.2994601,129.494174 L0.493934582,129.494174 C0.218736107,129.494626 0,129.716828 0,129.996387 C0,130.275946 0.218736107,130.505374 0.493934582,130.505374 L12.2994601,130.505374 L8.72187996,134.13287 C8.53115275,134.333394 8.53115275,134.656309 8.72187996,134.849607 C8.91927596,135.050131 9.23715465,135.050131 9.42743728,134.849607 L13.851953,130.354981 C14.049349,130.161232 14.049349,129.838768 13.851953,129.64547 L9.42743728,125.150393 Z" id="Shape-Copy-3"></path>
                </g>
            </g>
        </g>
    </g>
</svg>