<svg preserveAspectRatio="xMinYMid" viewBox="0 0 64 64" xmlns="http://www.w3.org/2000/svg" fill-rule="evenodd" clip-rule="evenodd" stroke-linejoin="round" stroke-miterlimit="1.414"><path d="M9.5 45.5a9 9 0 1118 0 9 9 0 01-18 0z" fill="#fff" fill-rule="nonzero" stroke-width="1.29" stroke="#bdbdbd" transform="matrix(.77778 0 0 .77778 5.034 9.188)"/><path d="M37.577 44.576a7 7 0 1114 0 7 7 0 01-14 0z" fill="#fff" fill-rule="nonzero" stroke-width="1.0033362000000001" stroke="#bdbdbd"/><path d="M9.5 18.501a9 9 0 1118 0 9 9 0 01-18 0z" fill="#fff" fill-rule="nonzero" stroke-width="1.29" stroke="#bdbdbd" transform="matrix(.77778 0 0 .77778 5.034 5.035)"/><path d="M15.923 19.424a3.5 3.5 0 117 0 3.5 3.5 0 01-7 0z" fill="#ffba59" fill-rule="nonzero"/><path d="M36.5 18.5a9 9 0 1118 0 9 9 0 01-18 0z" fill="#fff" fill-rule="nonzero" stroke-width="1.29" stroke="#bdbdbd" transform="matrix(.77778 0 0 .77778 9.188 5.034)"/><path d="M12.423 32h39.154M32 12.423v39.154" fill="none" stroke-width=".9996830999999999" stroke-linecap="round" stroke="#858990"/></svg>