<svg preserveAspectRatio="xMinYMid" viewBox="0 0 64 64" xmlns="http://www.w3.org/2000/svg" fill-rule="evenodd" clip-rule="evenodd" stroke-linejoin="round" stroke-miterlimit="1.414"><path d="M26.313 46.625a2.35 2.35 0 00-.711-1.727 2.35 2.35 0 00-1.727-.71 2.35 2.35 0 00-1.727.71 2.35 2.35 0 00-.71 1.727c0 .677.236 1.253.71 1.727a2.35 2.35 0 001.727.71 2.35 2.35 0 001.727-.71 2.35 2.35 0 00.71-1.727zm0-29.25a2.35 2.35 0 00-.711-1.727 2.35 2.35 0 00-1.727-.71 2.35 2.35 0 00-1.727.71 2.35 2.35 0 00-.71 1.727c0 .677.236 1.253.71 1.727a2.35 2.35 0 001.727.71 2.35 2.35 0 001.727-.71 2.35 2.35 0 00.71-1.727zm16.25 3.25a2.35 2.35 0 00-.711-1.726 2.35 2.35 0 00-1.727-.711 2.35 2.35 0 00-1.727.71 2.35 2.35 0 00-.71 1.727c0 .677.236 1.253.71 1.727a2.35 2.35 0 001.727.71 2.35 2.35 0 001.727-.71 2.35 2.35 0 00.71-1.727zm2.437 0c0 .88-.22 1.697-.66 2.45a4.744 4.744 0 01-1.778 1.765c-.033 4.858-1.946 8.362-5.738 10.511-1.15.644-2.869 1.33-5.154 2.057-2.167.677-3.601 1.278-4.304 1.803-.702.525-1.053 1.371-1.053 2.539v.66a4.738 4.738 0 011.777 1.765c.44.753.66 1.57.66 2.45 0 1.354-.474 2.505-1.422 3.453S25.23 51.5 23.875 51.5c-1.354 0-2.505-.474-3.453-1.422S19 47.98 19 46.625c0-.88.22-1.697.66-2.45a4.738 4.738 0 011.778-1.765V21.59a4.738 4.738 0 01-1.778-1.765 4.77 4.77 0 01-.66-2.45c0-1.354.474-2.505 1.422-3.453S22.52 12.5 23.875 12.5c1.354 0 2.505.474 3.453 1.422s1.422 2.099 1.422 3.453c0 .88-.22 1.697-.66 2.45a4.738 4.738 0 01-1.777 1.765v12.619c.913-.44 2.217-.922 3.91-1.447a36.323 36.323 0 002.221-.75c.55-.21 1.147-.473 1.79-.786.644-.314 1.143-.648 1.498-1.003a7.954 7.954 0 001.029-1.295c.33-.508.567-1.096.71-1.765.145-.668.216-1.443.216-2.323a4.743 4.743 0 01-1.777-1.765 4.774 4.774 0 01-.66-2.45c0-1.354.474-2.505 1.422-3.453s2.099-1.422 3.453-1.422c1.354 0 2.505.474 3.453 1.422S45 19.271 45 20.625z" fill="#ccc"/></svg>