<svg preserveAspectRatio="xMinYMid" viewBox="0 0 64 64" xmlns="http://www.w3.org/2000/svg" fill-rule="evenodd" clip-rule="evenodd" stroke-linejoin="round" stroke-miterlimit="1.414"><path d="M42.01 23.161H21.99a3.346 3.346 0 00-3.336 3.337V43.18a3.346 3.346 0 003.336 3.337h20.02a3.346 3.346 0 003.336-3.337V26.498a3.346 3.346 0 00-3.336-3.337zM32 38.176a3.346 3.346 0 01-3.337-3.337A3.346 3.346 0 0132 31.502a3.346 3.346 0 013.337 3.337A3.346 3.346 0 0132 38.176z" fill="#888" fill-rule="nonzero"/><path d="M32 38.176a3.346 3.346 0 01-3.337-3.337A3.346 3.346 0 0132 31.502a3.346 3.346 0 013.337 3.337A3.346 3.346 0 0132 38.176z" fill="#fff" fill-rule="nonzero"/><path d="M10 23.161v-7.176a8.344 8.344 0 018.341-8.341 8.344 8.344 0 018.341 8.341v7.176h-3.169v-7.176a5.176 5.176 0 00-5.172-5.171 5.176 5.176 0 00-5.172 5.171v7.176H10z" fill="#888" fill-rule="nonzero"/></svg>