<svg preserveAspectRatio="xMinYMid" viewBox="0 0 64 64" xmlns="http://www.w3.org/2000/svg" fill-rule="evenodd" clip-rule="evenodd" stroke-linejoin="round" stroke-miterlimit="1.414"><path d="M42.01 23.161H40.34v-3.337A8.344 8.344 0 0032 11.483a8.344 8.344 0 00-8.341 8.341v3.337H21.99a3.346 3.346 0 00-3.336 3.337V43.18a3.346 3.346 0 003.336 3.337h20.02a3.346 3.346 0 003.336-3.337V26.498a3.346 3.346 0 00-3.336-3.337zM32 38.176a3.346 3.346 0 01-3.337-3.337A3.346 3.346 0 0132 31.502a3.346 3.346 0 013.337 3.337A3.346 3.346 0 0132 38.176zm5.172-15.015H26.828v-3.337A5.176 5.176 0 0132 14.653a5.176 5.176 0 015.172 5.171v3.337z" fill="#fff" fill-rule="nonzero"/></svg>