<svg preserveAspectRatio="xMinYMid" viewBox="0 0 64 64" xmlns="http://www.w3.org/2000/svg" fill-rule="evenodd" clip-rule="evenodd" stroke-miterlimit="1.414"><path d="M53.438 35.306l-4.026 1.183a17.702 17.702 0 01-1.787 4.258l2.122 3.441c.353.568.136 1.474-.449 2.068l-2.313 2.346c-.586.594-1.49.826-2.067.486l-3.489-2.041a17.826 17.826 0 01-4.646 1.997l-.9 3.8c-.152.65-.945 1.143-1.782 1.15l-3.304.042c-.837.013-1.642-.461-1.813-1.105l-.993-3.762a17.935 17.935 0 01-4.659-1.823l-3.517 2.18c-.568.353-1.479.145-2.081-.434l-2.372-2.289c-.602-.58-.839-1.479-.503-2.054l2.041-3.508a17.856 17.856 0 01-2.075-4.687l-3.911-.743c-.657-.127-1.184-.894-1.23-1.726l-.182-3.283c-.047-.832.394-1.653 1.032-1.851l4.124-1.266a17.754 17.754 0 011.832-4.659l-2.069-3.454c-.343-.573-.117-1.475.476-2.063l2.344-2.318c.593-.586 1.5-.807 2.074-.461l3.263 1.965a17.942 17.942 0 014.956-2.155l.863-3.45c.163-.647.961-1.129 1.799-1.129H33.5c.837 0 1.635.482 1.798 1.129l.827 3.305c1.856.423 3.6 1.144 5.188 2.089l3.108-1.874c.574-.346 1.481-.126 2.075.461l2.345 2.318c.594.587.819 1.489.474 2.062l-1.858 3.107a17.873 17.873 0 012.119 5.152l3.574.729c.656.133 1.174.909 1.209 1.741l.139 3.286c.032.837-.418 1.651-1.06 1.84zM32 24.381c4.223 0 7.652 3.414 7.652 7.619S36.223 39.619 32 39.619c-4.223 0-7.652-3.414-7.652-7.619s3.429-7.619 7.652-7.619z" fill="#fff" stroke-width="1.5" stroke="#888" transform="matrix(.84442 0 0 .84442 4.98 4.98)"/></svg>