<svg preserveAspectRatio="xMinYMid" viewBox="0 0 64 64" xmlns="http://www.w3.org/2000/svg" fill-rule="evenodd" clip-rule="evenodd" stroke-miterlimit="1.414"><path d="M18.5 12.667h27a4 4 0 014 4V47a4 4 0 01-4 4h-27a4 4 0 01-4-4V16.667a4 4 0 014-4z" fill="#fff" fill-rule="nonzero" stroke="#888" stroke-width="1.5"/><path d="M23.5 32h17M32 23.5v17" fill="none" stroke="#6da" stroke-width="4.00005" stroke-linecap="round" stroke-linejoin="round"/><path d="M31.994 3.998c-5.771 0-5.667 5.69-5.667 5.69s-2.833.121-2.833 2.884c0 2.76 2.833 2.76 2.833 2.76h11.334s2.833.2 2.833-2.76c0-2.964-2.833-2.884-2.833-2.884s.105-5.69-5.667-5.69z" fill="#858990"/><path d="M34 8.965a2 2 0 10-4.001.001A2 2 0 0034 8.965z" fill="#fff"/></svg>