<svg preserveAspectRatio="xMinYMid" viewBox="0 0 64 64" xmlns="http://www.w3.org/2000/svg" fill-rule="evenodd" clip-rule="evenodd" stroke-linecap="round" stroke-linejoin="round" stroke-miterlimit="1.414"><path d="M17.32 21.79l.027 27.426A3.782 3.782 0 0021.131 53h21.74a3.781 3.781 0 003.784-3.783l.024-27.428H17.321z" fill="#fff" fill-opacity=".5"/><path d="M16.272 21.06l.028 29.387a4.052 4.052 0 004.054 4.054h23.294a4.051 4.051 0 004.054-4.053l.026-29.388" fill="none" stroke-width="2" stroke="#fff" transform="matrix(.93331 0 0 .93331 2.134 2.134)"/><path d="M14.426 17.607l34.716-9.302" fill="none" stroke-width="2.79993" stroke="#fff"/><path d="M37.494 11.426l-.905-3.378a2.563 2.563 0 00-3.138-1.812L26.98 7.971a2.562 2.562 0 00-1.81 3.137l.905 3.378" fill="none" stroke-width="1.86662" stroke-linecap="butt" stroke-linejoin="miter" stroke="#fff"/><path d="M38.986 47.447l.027-23.388M24.987 47.447l.026-23.388m6.974 23.388l.026-23.388" fill="none" stroke-width="2" stroke="#fff" transform="matrix(.93331 0 0 .93331 2.134 2.134)"/></svg>