<svg preserveAspectRatio="xMinYMid" viewBox="0 0 64 64" xmlns="http://www.w3.org/2000/svg" fill-rule="evenodd" clip-rule="evenodd" stroke-miterlimit="1.414"><path d="M15.333 14.084A3.333 3.333 0 0012 17.417v29.166a3.333 3.333 0 003.333 3.333h33.334A3.332 3.332 0 0052 46.583V17.417a3.332 3.332 0 00-3.333-3.333H15.333z" fill="#fff" fill-rule="nonzero" stroke="#888" stroke-width="1.333335"/><circle cx="26.863" cy="28.711" r="2.344" fill="#444" transform="matrix(.88889 0 0 .88889 3.556 1.497)"/><circle cx="26.863" cy="28.711" r="2.344" fill="#444" transform="matrix(.88889 0 0 .88889 -5.576 1.497)"/><circle cx="37.139" cy="28.711" r="2.344" fill="#444" transform="matrix(.88889 0 0 .88889 3.556 1.497)"/><circle cx="47.411" cy="28.711" r="2.344" fill="#444" transform="matrix(.88889 0 0 .88889 3.556 1.497)"/><circle cx="16.59" cy="37.128" r="2.344" fill="#444" transform="matrix(.88889 0 0 .88889 3.556 1.497)"/><circle cx="26.863" cy="37.128" r="2.344" fill="#444" transform="matrix(.88889 0 0 .88889 3.556 1.497)"/><circle cx="37.139" cy="37.128" r="2.344" fill="#444" transform="matrix(.88889 0 0 .88889 3.556 1.497)"/><circle cx="47.411" cy="37.128" r="2.344" fill="#444" transform="matrix(.88889 0 0 .88889 3.556 1.497)"/><circle cx="16.59" cy="45.546" r="2.344" fill="#444" transform="matrix(.88889 0 0 .88889 3.556 1.497)"/><circle cx="26.863" cy="45.546" r="2.344" fill="#444" transform="matrix(.88889 0 0 .88889 3.556 1.497)"/><circle cx="37.139" cy="45.546" r="2.344" fill="#444" transform="matrix(.88889 0 0 .88889 3.556 1.497)"/><circle cx="47.411" cy="45.546" r="2.344" fill="#444" transform="matrix(.88889 0 0 .88889 3.556 1.497)"/><g><path d="M16.59 19.468V8.851" fill="none" stroke="#888" stroke-width="1.5" stroke-linecap="round" stroke-linejoin="round" transform="matrix(.88889 0 0 .70051 3.556 4.164)"/></g><g><path d="M26.864 19.468V8.851" fill="none" stroke="#888" stroke-width="1.5" stroke-linecap="round" stroke-linejoin="round" transform="matrix(.88889 0 0 .70051 3.556 4.164)"/></g><g><path d="M47.41 19.468V8.851" fill="none" stroke="#888" stroke-width="1.5" stroke-linecap="round" stroke-linejoin="round" transform="matrix(.88889 0 0 .70051 3.556 4.164)"/></g><g><path d="M37.138 19.468V8.851" fill="none" stroke="#888" stroke-width="1.5" stroke-linecap="round" stroke-linejoin="round" transform="matrix(.88889 0 0 .70051 3.556 4.164)"/></g></svg>