<svg preserveAspectRatio="xMinYMid" viewBox="0 0 64 64" xmlns="http://www.w3.org/2000/svg" fill-rule="evenodd" clip-rule="evenodd" stroke-linecap="round" stroke-linejoin="round" stroke-miterlimit="1.414"><path d="M17.32 21.79l.027 27.426A3.782 3.782 0 0021.131 53h21.74a3.781 3.781 0 003.784-3.783l.024-27.428H17.321z" fill="#fff"/><path d="M16.272 21.06l.028 29.387a4.052 4.052 0 004.054 4.054h23.294a4.051 4.051 0 004.054-4.053l.026-29.388" fill="none" stroke-width="2" stroke="#d35444" transform="matrix(.93331 0 0 .93331 2.134 2.134)"/><path d="M12.746 15.992h38.508" fill="none" stroke-width="3" stroke="#d35444" transform="matrix(.93331 0 0 .93331 2.134 2.134)"/><path d="M38.334 15.992v-3.747A2.746 2.746 0 0035.589 9.5h-7.18a2.745 2.745 0 00-2.743 2.745v3.747" fill="none" stroke-width="2" stroke-linecap="butt" stroke-linejoin="miter" stroke="#d35444" transform="matrix(.93331 0 0 .93331 2.134 2.134)"/><path d="M38.986 47.447l.027-23.388M24.987 47.447l.026-23.388m6.974 23.388l.026-23.388" fill="none" stroke-width="2" stroke="#d35444" transform="matrix(.93331 0 0 .93331 2.134 2.134)"/></svg>