<svg preserveAspectRatio="xMinYMid" viewBox="0 0 64 64" xmlns="http://www.w3.org/2000/svg" fill-rule="evenodd" clip-rule="evenodd" stroke-linecap="round" stroke-linejoin="round" stroke-miterlimit="1.414"><path d="M49.433 49.407H14.995" fill="none" stroke-width="1.9974876000000001" stroke-dasharray="5.17,7.75,0,0" stroke="#ffba59"/><path d="M36.83 19.782l5.397-5.396s2.447-.018 4.926 2.461c2.479 2.481 2.461 4.924 2.461 4.924l-5.396 5.399-7.388-7.388z" fill="#f90" stroke-width=".9968957999999999" stroke="#f90"/><path d="M36.788 19.853l.014-.043h.029c.283.009 2.576.14 4.896 2.463 2.327 2.327 2.455 4.621 2.462 4.896h.001v.028l-.04.012-18.53 18.559-11.027 3.64 3.64-11.027 18.555-18.528z" fill="#eaeaea" stroke-width=".9968957999999999" stroke="#eaeaea"/><path d="M14.593 49.407l3.462-10.85s2.447-.017 4.926 2.462c2.479 2.48 2.462 4.924 2.462 4.924l-10.85 3.464z" fill="#fafafa" fill-rule="nonzero" stroke-width=".9909952" stroke="#fafafa"/><path d="M14.593 49.407l1.731-5.425s1.224-.009 2.463 1.231c1.24 1.24 1.231 2.462 1.231 2.462l-5.425 1.732z" fill="#f90" fill-rule="nonzero" stroke-width=".9987438000000001" stroke="#f90"/></svg>