<svg preserveAspectRatio="xMinYMid" viewBox="0 0 64 64" xmlns="http://www.w3.org/2000/svg" fill-rule="evenodd" clip-rule="evenodd" stroke-linejoin="round" stroke-miterlimit="1.414"><path fill="#fff" d="M24.5 19h15v27h-15z"/><path d="M39.128 42.451H24.871V19.343h14.257v23.108zm-8.238 2.347c0-.636.512-1.151 1.141-1.151.628 0 1.139.516 1.139 1.151 0 .634-.511 1.15-1.139 1.15a1.146 1.146 0 01-1.141-1.15m9.193 1.044h.004V18.144h-.003A1.147 1.147 0 0038.935 17H25.062a1.15 1.15 0 00-1.147 1.145h-.001v27.697h.002l-.002.036c0 .62.521 1.122 1.163 1.122l.028-.001V47h13.848c.624 0 1.132-.502 1.132-1.122.002-.013-.002-.024-.002-.036" fill="#444" fill-rule="nonzero"/></svg>