<svg preserveAspectRatio="xMinYMid" viewBox="0 0 50 26" xmlns="http://www.w3.org/2000/svg" fill-rule="evenodd" clip-rule="evenodd" stroke-linejoin="round" stroke-miterlimit="1.414"><path d="M12.5 1.5C18.847 1.5 24 6.653 24 13s-5.153 11.5-11.5 11.5S1 19.347 1 13 6.153 1.5 12.5 1.5zm-1.293 8.81l.001-1.654C11.208 7.742 10.467 7 9.55 7c-.916 0-1.658.74-1.658 1.654l-.002 7.033a3.311 3.311 0 003.315 3.311l4.146.001a1.656 1.656 0 10.001-3.31h-3.316a.832.832 0 01-.829-.828V13.62l4.146.001a1.655 1.655 0 100-3.311h-4.146z" fill="#fff"/><path d="M42.492 8.276c-1.455-.233-2.845.863-3.078 2.325-.568 3.556 4.132 6.607 4.35 6.643.219.035 5.634-1.403 6.202-4.957.232-1.461-.74-2.936-2.197-3.168-1.868-.299-2.82 1.176-2.894 1.164-.07-.011-.61-1.724-2.383-2.007" fill="#fff" fill-rule="nonzero"/></svg>