<svg preserveAspectRatio="xMinYMid" viewBox="0 0 64 64" xmlns="http://www.w3.org/2000/svg" fill-rule="evenodd" clip-rule="evenodd" stroke-linejoin="round" stroke-miterlimit="1.414"><circle cx="32" cy="32" r="22.5" fill="#5ac8fa" stroke-width="2" stroke="#fff"/><path d="M34.664 44.315s5.947 5.062 6.629 5.062c.682 0 1.625-7.136 1.263-8.226-.34-1.021-5.471-4.207-5.471-4.207l-2.421 7.371z" fill="#de524b" fill-rule="nonzero"/><path d="M29.358 44.17l-1.316 3.529s.686.841 3.959.841c3.271 0 3.958-.841 3.958-.841l-1.316-3.529h-5.285z" fill="#434a54" fill-rule="nonzero"/><path d="M31.324 44.17H30.13l-1.636 3.826c.321.151.845.326 1.674.437l1.156-4.263z" fill-opacity=".2" fill-rule="nonzero"/><path d="M29.333 44.315s-5.946 5.062-6.628 5.062c-.681 0-1.626-7.136-1.26-8.223.337-1.022 5.47-4.21 5.47-4.21l2.418 7.371z" fill="#de524b" fill-rule="nonzero"/><path d="M24.406 27.758c-.002 6.494 2.747 18.059 2.747 18.059s.84 1.032 4.848 1.032c4.007-.001 4.848-1.033 4.848-1.033s2.748-11.564 2.748-18.059c-.001-6.936-3.741-14.384-7.596-14.384s-7.597 7.449-7.595 14.385z" fill="#fff" fill-rule="nonzero"/><path d="M31.942 41.363c-3.547.002-5.915-.832-5.915-.832.106.619.191.962.191.962s1.833.983 5.782.963c3.95-.02 5.781-.963 5.781-.963s.085-.338.19-.962c.002 0-2.479.834-6.029.832zM32.001 31.058a4.262 4.262 0 110-8.525 4.262 4.262 0 010 8.525z" fill="#94ddff" fill-rule="nonzero"/><path d="M28.494 26.796a3.507 3.507 0 117.015 0 3.507 3.507 0 01-7.015 0z" fill="#434a54" fill-rule="nonzero"/><path d="M34.47 25.043a.767.767 0 10-1.535.002.768.768 0 001.535-.002z" fill="#fff" fill-opacity=".4" fill-rule="nonzero"/><circle cx="34.469" cy="26.234" r=".52" fill="#fff" fill-opacity=".2"/><path d="M26.491 18.501c-.035.071 2.737.783 5.51.776 2.766-.008 5.531-.732 5.505-.787-1.439-3.013-3.457-5.117-5.505-5.117-2.052 0-4.072 2.109-5.51 5.128zM32.679 45.895V38.68s0-.308-.678-.308c-.677 0-.677.308-.677.308v7.215s0 4.733.677 4.732c.677 0 .677-4.732.678-4.732z" fill="#de524b" fill-rule="nonzero"/><path d="M31.431 13.426c-6.341 3.859-7.575 15.289-3.355 32.909.303.109.695.219 1.2.309-.552-4.278-5.94-25.413 2.725-33.271-.19 0-.38.018-.57.053z" fill="#fff" fill-opacity=".2" fill-rule="nonzero"/></svg>