<svg preserveAspectRatio="xMinYMid" viewBox="0 0 64 64" xmlns="http://www.w3.org/2000/svg" fill-rule="evenodd" clip-rule="evenodd" stroke-linecap="round" stroke-linejoin="round" stroke-miterlimit="1.414"><path d="M28.929 50.851a3.09 3.09 0 01-3.089-3.088V16.239a3.09 3.09 0 013.089-3.09h19.936a3.09 3.09 0 013.087 3.09v31.524a3.09 3.09 0 01-3.087 3.088H28.929z" fill="#858990" fill-rule="nonzero" stroke-width="1.5" stroke="#888"/><path d="M28.762 27.565H9.33M16.822 21.039L9.33 27.565l7.492 6.525" fill="none" stroke-width="3" stroke="#ff8b99"/><path d="M31.06 52.796c-.005 1.73 1.142 2.936 2.562 2.689l17.362-3.008c1.422-.244 2.578-1.853 2.584-3.58l.102-33.024c.006-1.732-1.143-2.938-2.563-2.692l-17.36 3.006c-1.421.246-2.579 1.852-2.584 3.583l-.103 33.026zm2.235-19.114a2.081 2.081 0 114.158 0 2.081 2.081 0 01-4.158 0z" fill="#94dbfc" fill-rule="nonzero"/></svg>