<svg preserveAspectRatio="xMinYMid" viewBox="0 0 50 26" xmlns="http://www.w3.org/2000/svg" fill-rule="evenodd" clip-rule="evenodd" stroke-linejoin="round" stroke-miterlimit="1.414"><path d="M12.5 1.5C18.847 1.5 24 6.653 24 13s-5.153 11.5-11.5 11.5S1 19.347 1 13 6.153 1.5 12.5 1.5zm2.509 10.477c.17.963.135 1.964-.138 2.9a4.958 4.958 0 01-1.383 2.267 4.958 4.958 0 01-2.237 1.162 5.842 5.842 0 01-2.794-.029 5.435 5.435 0 01-1.985-1.001 5.525 5.525 0 01-1.482-1.823 5.474 5.474 0 01.002-4.906 5.498 5.498 0 013.095-2.71 5.507 5.507 0 013.678.036c.652.24 1.251.619 1.759 1.089-.171.185-.356.358-.532.537l-1.004 1.004a2.936 2.936 0 00-1.177-.693 3.26 3.26 0 00-1.603-.064 3.238 3.238 0 00-1.632.907 3.417 3.417 0 00-.793 1.289 3.31 3.31 0 000 2.125c.226.672.67 1.268 1.251 1.676.364.256.778.438 1.215.526.429.085.875.076 1.304.003a3.134 3.134 0 001.203-.476 2.567 2.567 0 001.092-1.688H9.872v-2.131h5.137zm3.715-.05v-1.539h-1.345v1.539H15.84v1.345h1.539v1.539h1.345v-1.539h1.539v-1.345h-1.539z" fill="#fff"/><path d="M42.492 8.276c-1.455-.233-2.845.863-3.078 2.325-.568 3.556 4.132 6.607 4.35 6.643.219.035 5.634-1.403 6.202-4.957.232-1.461-.74-2.936-2.197-3.168-1.868-.299-2.82 1.176-2.894 1.164-.07-.011-.61-1.724-2.383-2.007" fill="#fff" fill-rule="nonzero"/></svg>