<svg preserveAspectRatio="xMinYMid" viewBox="0 0 64 64" xmlns="http://www.w3.org/2000/svg" fill-rule="evenodd" clip-rule="evenodd" stroke-linejoin="round" stroke-miterlimit="1.414"><circle cx="32" cy="32" r="22.5" fill="#C6C6C6" transform="rotate(180 32 32)"/><path d="M29.336 19.685s-5.947-5.062-6.63-5.062c-.68 0-1.624 7.136-1.262 8.226.34 1.02 5.47 4.206 5.47 4.206l2.422-7.37z" fill="#989595" fill-rule="nonzero"/><path d="M34.642 19.83l1.316-3.53s-.686-.84-3.96-.84c-3.27 0-3.957.84-3.957.84l1.317 3.53h5.285z" fill="#434A54" fill-rule="nonzero"/><path d="M32.676 19.83h1.194l1.636-3.826c-.32-.15-.845-.326-1.674-.437l-1.156 4.263z" fill-opacity=".2" fill-rule="nonzero"/><path d="M34.667 19.685s5.946-5.062 6.628-5.062c.68 0 1.626 7.136 1.26 8.223-.337 1.022-5.47 4.21-5.47 4.21l-2.418-7.37z" fill="#989595" fill-rule="nonzero"/><path d="M39.594 36.242c.002-6.494-2.747-18.06-2.747-18.06s-.84-1.03-4.848-1.03-4.85 1.032-4.85 1.032-2.747 11.564-2.747 18.06c0 6.935 3.74 14.383 7.596 14.383 3.854 0 7.596-7.45 7.594-14.385z" fill="#fff" fill-rule="nonzero"/><path d="M32.058 22.637c3.547-.002 5.915.832 5.915.832-.106-.62-.19-.963-.19-.963s-1.834-.983-5.783-.963c-3.95.02-5.78.963-5.78.963s-.086.338-.19.962c-.003 0 2.478-.835 6.028-.833zM32 32.942c2.35 0 4.26 1.91 4.26 4.263a4.261 4.261 0 11-8.523 0 4.264 4.264 0 014.262-4.263z" fill="#94DDFF" fill-rule="nonzero"/><path d="M35.506 37.204a3.507 3.507 0 11-7.013-.003 3.507 3.507 0 017.012.004z" fill="#434A54" fill-rule="nonzero"/><path d="M29.53 38.957a.767.767 0 101.535-.003.77.77 0 00-.767-.766.769.769 0 00-.768.77z" fill="#fff" fill-opacity=".4" fill-rule="nonzero"/><circle cx="34.469" cy="26.234" r=".52" fill="#fff" fill-opacity=".2" transform="rotate(180 32 32)"/><path d="M37.51 45.5c.034-.072-2.738-.784-5.51-.777-2.767.008-5.532.732-5.506.787 1.44 3.013 3.457 5.117 5.505 5.117 2.05 0 4.07-2.11 5.51-5.128zm-6.19-27.395v7.215s0 .308.68.308c.676 0 .676-.308.676-.308v-7.215s0-4.733-.677-4.732c-.678 0-.678 4.732-.68 4.732z" fill="#989595" fill-rule="nonzero"/><path d="M32.57 50.574c6.34-3.86 7.574-15.29 3.354-32.91a7.474 7.474 0 00-1.2-.308c.552 4.278 5.94 25.413-2.725 33.27.19 0 .38-.017.57-.052z" fill="#fff" fill-opacity=".2" fill-rule="nonzero"/></svg>