<svg preserveAspectRatio="xMinYMid" viewBox="0 0 64 64" xmlns="http://www.w3.org/2000/svg" fill-rule="evenodd" clip-rule="evenodd" stroke-miterlimit="1.414"><path d="M49.5 41.434v8.375a4 4 0 01-4 4h-27a4 4 0 01-4-4v-8.667" fill="#fff" fill-rule="nonzero" stroke="#888" stroke-width="1.5"/><path d="M18.5 12.76h27a4 4 0 014 4v29.333a4 4 0 01-4 4h-27a4 4 0 01-4-4V16.76a4 4 0 014-4z" fill="#fff" fill-rule="nonzero" stroke="#888" stroke-width="1.5"/><path d="M32.004 4.091c-5.771 0-5.667 5.69-5.667 5.69s-2.833.121-2.833 2.884c0 2.76 2.833 2.76 2.833 2.76h11.334s2.833.2 2.833-2.76c0-2.964-2.833-2.884-2.833-2.884s.105-5.69-5.667-5.69z" fill="#858990"/><path d="M34 9.058a2 2 0 10-4.001.001A2 2 0 0034 9.058z" fill="#fff"/><path d="M44 36.959H26M44 44.875H26M44 29.042H26" fill="none" stroke="#59a8ff" stroke-width="1.5" stroke-linecap="round" stroke-linejoin="round" transform="matrix(.94439 0 0 1 -1.054 -4.958)"/></svg>