<svg preserveAspectRatio="xMinYMid" viewBox="0 0 50 26" xmlns="http://www.w3.org/2000/svg" fill-rule="evenodd" clip-rule="evenodd" stroke-linejoin="round" stroke-miterlimit="1.414"><path d="M12.5 1.5C18.847 1.5 24 6.653 24 13s-5.153 11.5-11.5 11.5S1 19.347 1 13 6.153 1.5 12.5 1.5zm.962 9.334c0-1.825-.244-1.97 2.364-1.97V6.5c-4.949 0-5.122.272-5.122 4.334H9.129v2.363h1.575V19.5h2.758v-6.303h2.364v-2.363h-2.364z" fill="#fff"/><path d="M42.492 8.276c-1.455-.233-2.845.863-3.078 2.325-.568 3.556 4.132 6.607 4.35 6.643.219.035 5.634-1.403 6.202-4.957.232-1.461-.74-2.936-2.197-3.168-1.868-.299-2.82 1.176-2.894 1.164-.07-.011-.61-1.724-2.383-2.007" fill="#fff" fill-rule="nonzero"/></svg>