<svg preserveAspectRatio="xMinYMid" viewBox="0 0 64 64" xmlns="http://www.w3.org/2000/svg" fill-rule="evenodd" clip-rule="evenodd" stroke-linecap="round" stroke-linejoin="round" stroke-miterlimit="1.414"><path fill="#fafafa" d="M8 20.058h47.742V45.18H8z"/><path d="M28.633 20.083h26.13c.68 0 1.236.556 1.236 1.237v22.686a1.24 1.24 0 01-1.236 1.238H9.237A1.241 1.241 0 018 44.006V21.32c0-.681.558-1.237 1.237-1.237h16.407c0-7.891.086-7.779 7.508-7.779 5.388 0 5.388 0 5.388-5.548" fill="none" stroke="#444" stroke-width="2"/><path d="M23.121 32.761c0 .955-.776 1.731-1.732 1.731h-7.11a1.732 1.732 0 110-3.463h7.11a1.732 1.732 0 011.732 1.732zM51.213 32.761c0 .955-.775 1.731-1.732 1.731h-2.864a1.732 1.732 0 110-3.463h2.864a1.731 1.731 0 011.732 1.732zM18.875 26.339c0 .957-.775 1.732-1.732 1.732h-2.864a1.732 1.732 0 110-3.464h2.864c.957 0 1.732.775 1.732 1.732zM39.101 39.203c0 .956-.775 1.731-1.732 1.731H23.887a1.731 1.731 0 110-3.464h13.481c.957 0 1.733.775 1.733 1.733z" fill="#444" fill-rule="nonzero"/><circle cx="19.605" cy="30.761" r="1.732" fill="#444" transform="translate(8 2)"/><circle cx="25.976" cy="30.761" r="1.732" fill="#444" transform="translate(8 2)"/><circle cx="32.346" cy="30.761" r="1.732" fill="#444" transform="translate(8 2)"/><circle cx="41.481" cy="37.131" r="1.732" fill="#444" transform="translate(8 2)"/><circle cx="35.11" cy="37.131" r="1.732" fill="#444" transform="translate(8 2)"/><circle cx="9.629" cy="37.131" r="1.732" fill="#444" transform="translate(8 2)"/><circle cx="15.999" cy="24.339" r="1.732" fill="#444" transform="translate(8 2)"/><circle cx="22.37" cy="24.339" r="1.732" fill="#444" transform="translate(8 2)"/><circle cx="28.74" cy="24.339" r="1.732" fill="#444" transform="translate(8 2)"/><circle cx="35.11" cy="24.339" r="1.732" fill="#444" transform="translate(8 2)"/><circle cx="41.481" cy="24.339" r="1.732" fill="#444" transform="translate(8 2)"/></svg>