<svg preserveAspectRatio="xMinYMid" viewBox="0 0 64 64" xmlns="http://www.w3.org/2000/svg" fill-rule="evenodd" clip-rule="evenodd" stroke-linecap="round" stroke-miterlimit="1.414"><circle cx="32" cy="32" r="21.6" fill="#e9faff" stroke-width="2" stroke="#6da" transform="matrix(.92593 0 0 .92593 2.37 2.37)"/><path d="M30.946 36.615l-.064-.822c-.19-1.706.378-3.572 1.961-5.468 1.421-1.676 2.211-2.908 2.211-4.331 0-1.612-1.012-2.687-3.001-2.719-1.14 0-2.404.38-3.194.98l-.759-1.991C29.145 21.506 30.946 21 32.622 21c3.634 0 5.278 2.244 5.278 4.646 0 2.15-1.202 3.699-2.721 5.501-1.39 1.643-1.896 3.034-1.802 4.646l.034.822h-2.465zm-.697 4.425c0-1.17.79-1.99 1.896-1.99 1.106 0 1.866.82 1.866 1.99 0 1.107-.729 1.96-1.897 1.96-1.106 0-1.865-.853-1.865-1.96z" fill="#94ddff" fill-rule="nonzero"/></svg>