<svg preserveAspectRatio="xMinYMid" viewBox="0 0 64 64" xmlns="http://www.w3.org/2000/svg" fill-rule="evenodd" clip-rule="evenodd" stroke-linejoin="round" stroke-miterlimit="1.414"><path d="M29.499 44.014V42.43a4.14 4.14 0 012.004-.518c.962 0 1.716.234 2.263.701.546.467.819 1.064.819 1.793 0 1.056-.481 1.775-1.443 2.158.523.131.929.376 1.219.736.29.359.434.815.434 1.366 0 .766-.282 1.389-.847 1.87-.565.481-1.357.722-2.375.722-.944 0-1.747-.154-2.41-.462v-1.64a4.77 4.77 0 002.298.589c.504 0 .899-.119 1.184-.358.284-.238.427-.544.427-.917 0-.813-.659-1.219-1.976-1.219h-.532v-1.416h.532c.495 0 .911-.107 1.247-.322a1.02 1.02 0 00.505-.911c0-.784-.481-1.177-1.444-1.177-.635 0-1.27.196-1.905.589zm5.493-6.838h-5.984v-1.345a17.125 17.125 0 002.831-2.487c.794-.883 1.191-1.679 1.191-2.389 0-.468-.136-.832-.406-1.093-.271-.262-.664-.393-1.177-.393-.776 0-1.518.29-2.228.869v-1.639a3.883 3.883 0 011.149-.575 4.409 4.409 0 011.373-.224c.897 0 1.628.245 2.193.736.565.49.847 1.179.847 2.066 0 1.663-1.149 3.34-3.447 5.031h3.658v1.443zm-1.374-14.012h-1.667v-7.342l-2.242 1.359v-1.752L32.133 14h1.485v9.164z" fill="#2c3e50" fill-rule="nonzero"/><circle cx="38" cy="22" r="1" fill="#34495e" fill-opacity=".5" transform="translate(0 -1)"/><circle cx="38" cy="22" r="1" fill="#34495e" fill-opacity=".5" transform="translate(0 13.129)"/><circle cx="38" cy="22" r="1" fill="#34495e" fill-opacity=".5" transform="translate(0 27.258)"/></svg>