<svg preserveAspectRatio="xMinYMid" viewBox="0 0 64 64" xmlns="http://www.w3.org/2000/svg" fill-rule="evenodd" clip-rule="evenodd" stroke-linejoin="round" stroke-miterlimit="1.414"><path fill="#fff" d="M14.499 21h33v22h-33z"/><path d="M17.607 42.785V21.213h28.687v21.572H17.607zm-1.635-11.64a.853.853 0 11-.002 1.706.853.853 0 01.002-1.706m32.18 13.067h.034c.726 0 1.313-.586 1.313-1.312l-.002-.033h.002V21.134h-.002l.002-.033c0-.727-.588-1.313-1.313-1.313-.012 0-.022.002-.034.003v-.003H15.844v.035c-.012 0-.023-.003-.035-.003a1.31 1.31 0 00-1.31 1.311l.002.034h-.002v21.672h.002l-.002.035c0 .725.586 1.31 1.31 1.31l.035-.002v.034l32.308-.002z" fill="#444" fill-rule="nonzero"/></svg>