<svg preserveAspectRatio="xMinYMid" viewBox="0 0 46 46" xmlns="http://www.w3.org/2000/svg" fill-rule="evenodd" clip-rule="evenodd" stroke-miterlimit="10"><circle cx="23" cy="23" r="20.245" fill="#fff" stroke="#94ddff"/><path d="M34.465 29.683v5.487a2.62 2.62 0 01-2.62 2.62h-17.69a2.62 2.62 0 01-2.62-2.62v-5.678" fill="#fff" fill-rule="nonzero" stroke="#888" stroke-width=".98268" stroke-miterlimit="1.414"/><path d="M14.156 10.899h17.688a2.62 2.62 0 012.62 2.62v19.217a2.62 2.62 0 01-2.62 2.62H14.156a2.62 2.62 0 01-2.62-2.62V13.519a2.62 2.62 0 012.62-2.62z" fill="#fff" fill-rule="nonzero" stroke="#888" stroke-width=".98268" stroke-miterlimit="1.414"/><path d="M23.005 5.22c-3.781 0-3.713 3.728-3.713 3.728s-1.856.08-1.856 1.89c0 1.807 1.856 1.807 1.856 1.807h7.425s1.856.132 1.856-1.808c0-1.941-1.856-1.89-1.856-1.89s.069-3.727-3.712-3.727z" fill="#858990"/><path d="M24.31 8.474a1.31 1.31 0 10-2.62 0 1.31 1.31 0 002.62 0z" fill="#fff"/><path d="M44 36.959H26M44 44.875H26M44 29.042H26" fill="none" stroke="#59a8ff" stroke-width="1.5" stroke-linecap="round" stroke-linejoin="round" stroke-miterlimit="1.414" transform="matrix(.61868 0 0 .65512 1.346 -.709)"/></svg>