<?xml version="1.0" encoding="UTF-8"?>
<svg width="20px" height="18px" viewBox="0 0 20 18" version="1.1" xmlns="http://www.w3.org/2000/svg" xmlns:xlink="http://www.w3.org/1999/xlink">
    <!-- Generator: Sketch 51.3 (57544) - http://www.bohemiancoding.com/sketch -->
    <title>left-quote (1)</title>
    <desc>Created with Sketch.</desc>
    <defs></defs>
    <g id="Final_Design" stroke="none" stroke-width="1" fill="none" fill-rule="evenodd" opacity="0.178828102">
        <g id="01Artboard_Final_Updated" transform="translate(-258.000000, -1778.000000)" fill="#000000" fill-rule="nonzero">
            <g id="Group-21" transform="translate(236.000000, 726.000000)">
                <g id="left-quote-(1)" transform="translate(22.000000, 1052.000000)">
                    <path d="M8.39935466,3.57415482 C8.92220606,3.36007264 9.14146632,2.75076183 8.90533988,2.25672603 L8.07889736,0.560536475 C7.84277092,0.0831332196 7.269321,-0.131113636 6.76333578,0.0831332196 C5.32971099,0.675976172 4.09848029,1.44996558 3.12024219,2.38863359 C1.92274384,3.49181552 1.11316749,4.75984072 0.674646961,6.15960881 C0.236126436,7.57600943 0,9.50258434 0,11.9562955 L0,17.0119284 C0,17.5553678 0.455386699,18 1.01197044,18 L7.64037683,18 C8.19696057,18 8.65234727,17.5553678 8.65234727,17.0119284 L8.65234727,10.5400595 C8.65234727,9.99645546 8.19696057,9.55198792 7.64037683,9.55198792 L4.46953612,9.55198792 C4.50326846,7.88856941 4.90805664,6.55483744 5.6501683,5.55013331 C6.25735056,4.74353754 7.16812396,4.08482315 8.39935466,3.57415482 Z" id="Shape" opacity="0.449999988"></path>
                    <path d="M19.3982951,3.56085309 C19.9221324,3.34657596 20.1416371,2.73671028 19.9052344,2.24222459 L19.0772335,0.561138079 C18.8406618,0.0831352475 18.2661306,-0.131141884 17.7591912,0.0831352475 C16.3397611,0.676518073 15.1229377,1.45121232 14.1261259,2.37425227 C12.9262005,3.49508649 12.0983686,4.76426642 11.6588522,6.16530921 C11.2195047,7.5497043 11,9.47836331 11,11.9507918 L11,17.0110286 C11,17.5549629 11.4562454,18 12.0138787,18 L18.6547841,18 C19.2124173,18 19.6686627,17.5549629 19.6686627,17.0110286 L19.6686627,10.5332661 C19.6686627,9.98916703 19.2124173,9.54429474 18.6547841,9.54429474 L15.4610662,9.54429474 C15.4948622,7.87936143 15.9005826,6.5444149 16.6439247,5.53879584 C17.2522519,4.73130071 18.1647427,4.07198646 19.3982951,3.56085309 Z" id="Shape" opacity="0.449999988"></path>
                </g>
            </g>
        </g>
    </g>
</svg>