<svg id="Capa_1" enable-background="new 0 0 512 512" height="512" viewBox="0 0 512 512" width="512" xmlns="http://www.w3.org/2000/svg"><g><path d="m256 444.719c-104.226 0-188.719-84.492-188.719-188.719s84.493-188.719 188.719-188.719l20 187.692z" fill="#7f584f"/><path d="m256 67.281c104.227 0 188.719 84.492 188.719 188.719s-84.492 188.719-188.719 188.719z" fill="#674037"/><g><path d="m256 75c.018 0 .035.001.053.001l10-29.001-10-30.999c-.018 0-.035-.001-.053-.001-33.43 0-65.268 6.811-94.208 19.114l1.686 37.529 21.765 17.714c21.736-9.241 45.649-14.357 70.757-14.357z" fill="#5a5555"/><path d="m185.243 89.357-23.452-55.243c-28.663 12.186-54.484 29.759-76.185 51.455l12.431 32.431 29.996 9.995c16.296-16.291 35.686-29.487 57.21-38.638z" fill="#dd4e4e"/><path d="m128.033 127.995-42.427-42.426c-22.692 22.687-40.866 49.885-53.097 80.123l17.395 31.075 38.242-8.583c9.187-22.715 22.84-43.147 39.887-60.189z" fill="#5a5555"/><path d="m88.146 188.185-55.637-22.493c-11.282 27.893-17.509 58.371-17.509 90.308l29.037 20 30.963-20c0-23.982 4.675-46.869 13.146-67.815z" fill="#dd4e4e"/><path d="m75 256h-60c0 33.423 6.808 65.255 19.106 94.191l40.956-3.131 14.293-20.305c-9.239-21.736-14.355-45.648-14.355-70.755z" fill="#5a5555"/><path d="m89.356 326.755-55.249 23.436c12.191 28.682 29.776 54.519 51.489 76.229l32.431-12.431 9.995-29.995c-16.305-16.303-29.51-35.703-38.666-57.239z" fill="#dd4e4e"/><path d="m128.022 383.994-42.427 42.426c22.686 22.684 49.881 40.852 80.116 53.078l22.298-20.42.195-35.217c-22.712-9.182-43.141-22.828-60.182-39.867z" fill="#5a5555"/><path d="m256 437c-23.975 0-46.856-4.672-67.797-13.138l-22.492 55.637c27.887 11.277 58.359 17.501 90.289 17.501h.002l10-30-10-30s-.001 0-.002 0z" fill="#dd4e4e"/><path d="m256.002 437v60c31.946 0 62.433-6.231 90.332-17.52l-1.056-37.348-21.437-18.29c-20.952 8.479-43.847 13.158-67.839 13.158z" fill="#2d2d2d"/><path d="m323.842 423.843 22.492 55.637c30.211-12.224 57.387-30.381 80.06-53.05l-12.394-32.393-30.032-10.032c-17.028 17.023-37.437 30.658-60.126 39.838z" fill="#ae2d2d"/><path d="m477.902 350.172-25.732-20.915-29.517-2.521c-9.158 21.549-22.371 40.959-38.685 57.269l42.427 42.426c21.722-21.718 39.314-47.564 51.507-76.259z" fill="#2d2d2d"/><path d="m422.653 326.736 55.25 23.436c12.287-28.915 19.09-60.722 19.097-94.118l-23.962-10-36.038 10c-.008 25.081-5.119 48.967-14.347 70.682z" fill="#ae2d2d"/><path d="m437 256c0 .018-.001.036-.001.054h60c0-.018.001-.036.001-.054 0-31.93-6.224-62.402-17.501-90.29l-37.329 1.048-18.308 21.444c8.466 20.942 13.138 43.823 13.138 67.798z" fill="#2d2d2d"/><path d="m423.862 188.203 55.637-22.493c-12.219-30.218-30.375-57.399-53.042-80.078l-31.894 11.894-10.533 30.533c17.023 17.034 30.656 37.449 39.832 60.144z" fill="#ae2d2d"/><path d="m384.031 128.059 42.427-42.427c-21.703-21.714-47.531-39.302-76.204-51.499l-22.308 18.992-1.144 36.25c21.533 9.163 40.93 22.374 57.229 38.684z" fill="#2d2d2d"/><path d="m326.801 89.376 23.452-55.243c-28.937-12.308-60.772-19.125-94.2-19.133v60c25.106.008 49.016 5.13 70.748 14.376z" fill="#ae2d2d"/></g><g><path d="m256 512c-68.38 0-132.667-26.629-181.02-74.98-48.351-48.353-74.98-112.64-74.98-181.02s26.629-132.667 74.98-181.02c48.353-48.351 112.64-74.98 181.02-74.98l10 15-10 15c-60.367 0-117.12 23.508-159.806 66.194s-66.194 99.439-66.194 159.806 23.508 117.12 66.194 159.806 99.439 66.194 159.806 66.194l10 15z" fill="#ffe477"/></g><g><path d="m256 512v-30c60.367 0 117.12-23.508 159.806-66.194s66.194-99.439 66.194-159.806-23.508-117.12-66.194-159.806-99.439-66.194-159.806-66.194v-30c68.38 0 132.667 26.629 181.02 74.98 48.351 48.353 74.98 112.64 74.98 181.02s-26.629 132.667-74.98 181.02c-48.353 48.351-112.64 74.98-181.02 74.98z" fill="#ffb655"/></g><g fill="#ffb655"><path d="m170.466 191.627 53.741 53.74 21.212-21.213-53.74-53.74 9.029-9.029-21.213-21.213-39.27 39.271 21.213 21.213z"/><path d="m224.154 266.581-53.74 53.74-9.029-9.029-21.213 21.213 39.271 39.27 21.213-21.212-9.029-9.029 53.74-53.741z"/></g><g fill="#ff7c48"><path d="m287.846 245.419 53.74-53.74 9.029 9.029 21.213-21.213-39.27-39.27-21.213 21.213 9.028 9.028-53.74 53.741z"/><path d="m341.534 320.373-53.74-53.74-21.213 21.213 53.74 53.74-9.029 9.029 21.213 21.213 39.27-39.271-21.212-21.213z"/></g><path d="m256.026 205.409c-27.955 0-50.617 22.662-50.617 50.617s22.662 50.617 50.617 50.617l20-50.643z" fill="#ffe477"/><path d="m256.026 306.643c27.955 0 50.617-22.662 50.617-50.617s-22.662-50.617-50.617-50.617z" fill="#ffb655"/></g></svg>