<?xml version="1.0" encoding="utf-8"?>
<!-- Generator: Adobe Illustrator 19.0.0, SVG Export Plug-In . SVG Version: 6.00 Build 0)  -->
<svg version="1.1" id="Layer_1" xmlns="http://www.w3.org/2000/svg" xmlns:xlink="http://www.w3.org/1999/xlink" x="0px" y="0px"
	 viewBox="0 0 247.4 326.5" style="enable-background:new 0 0 247.4 326.5;" xml:space="preserve">
<style type="text/css">
	.st0{fill:#FFFFFF;}
	.st1{fill:#F7F7F7;}
	.st2{fill:#55484D;}
	.st3{fill:#DEDDDD;}
	.st4{fill:#AE1F26;}
	.st5{fill:#010101;}
	.st6{fill:#588B3E;}
</style>
<g>
	<polygon class="st0" points="0,18.6 0.5,302.8 39.7,322.6 39.1,0.6 	"/>
	<polygon class="st1" points="39.9,0.1 40.6,322.1 247.4,299.5 246.8,10.9 	"/>
	<g>
		<polygon class="st2" points="245.8,300.6 206.2,305.7 40.2,323.2 79.8,318.1 		"/>
	</g>
	<rect id="XMLID_130_" x="39.4" class="st3" width="1.9" height="322.6"/>
</g>
<g id="XMLID_4_">
	<polygon id="XMLID_3_" class="st4" points="247.4,299.9 41.3,323.2 41.3,261.8 247.4,243.8 	"/>
	<g id="XMLID_5_">
		<path id="XMLID_186_" class="st0" d="M67.9,281.4l7.8-0.7l0,1.8l-5.9,0.6l0,5.5l5.5-0.5l0,1.8l-5.5,0.5l-0.1,7.5l-1.9,0.2
			L67.9,281.4z"/>
		<path id="XMLID_188_" class="st0" d="M90.7,287.4c0,5.7-3.1,9-6.8,9.4c-3.8,0.4-6.5-2.8-6.4-7.8c0-5.3,2.9-9,6.8-9.3
			C88.2,279.3,90.7,282.5,90.7,287.4z M79.5,288.7c0,3.5,1.6,6.6,4.6,6.3c3-0.3,4.7-3.6,4.7-7.3c0-3.3-1.5-6.6-4.6-6.3
			C81.1,281.7,79.5,285.1,79.5,288.7z"/>
		<path id="XMLID_191_" class="st0" d="M93.2,279.3c0.9-0.3,2.3-0.6,3.6-0.7c2-0.2,3.3,0.1,4.2,1c0.7,0.7,1.1,1.8,1.1,3
			c0,2.2-1.2,3.8-2.8,4.5l0,0.1c1.1,0.3,1.8,1.5,2.1,3.2c0.5,2.3,0.8,3.8,1.1,4.5l-1.9,0.2c-0.2-0.4-0.5-1.8-0.9-3.9
			c-0.4-2.3-1.2-3-2.9-3l-1.8,0.2l-0.1,7.2l-1.9,0.2L93.2,279.3z M95,286.7l1.9-0.2c2-0.2,3.3-1.6,3.3-3.5c0-2.1-1.3-3-3.3-2.8
			c-0.9,0.1-1.5,0.2-1.8,0.4L95,286.7z"/>
		<path id="XMLID_194_" class="st0" d="M111.2,279.2l-4.4,0.4l0-1.8l10.7-1l0,1.8L113,279l-0.1,14.8l-1.9,0.2L111.2,279.2z"/>
		<path id="XMLID_196_" class="st0" d="M121,276.5l-0.1,6.9l7-0.7l0.1-6.9l1.9-0.2l-0.1,16.6l-1.9,0.2l0.1-7.8l-7,0.7l-0.1,7.8
			l-1.9,0.2l0.1-16.6L121,276.5z"/>
		<path id="XMLID_198_" class="st0" d="M140.5,283.4l-5.6,0.5l0,6l6.3-0.6l0,1.8l-8.1,0.8l0.1-16.6l7.8-0.7l0,1.8l-6,0.6l0,5.2
			l5.6-0.5L140.5,283.4z"/>
		<path id="XMLID_200_" class="st0" d="M149.7,290.4l-3.6-16.3l2-0.2l1.7,8.2c0.4,2,0.8,4.1,1,5.6l0,0c0.2-1.7,0.7-3.7,1.2-5.9
			l2-8.6l2-0.2l1.7,8.3c0.4,1.9,0.8,3.9,1,5.6l0,0c0.3-1.9,0.7-3.7,1.2-5.8l2-8.6l1.9-0.2l-4.2,17l-2,0.2l-1.8-8.5
			c-0.4-2.1-0.7-3.7-0.9-5.3l0,0c-0.3,1.7-0.6,3.3-1.2,5.5l-2.1,8.8L149.7,290.4z"/>
		<path id="XMLID_202_" class="st0" d="M173.1,280.4l-5.6,0.5l0,6l6.3-0.6l0,1.8l-8.1,0.8l0.1-16.6l7.8-0.7l0,1.8l-6,0.6l0,5.2
			l5.6-0.5L173.1,280.4z"/>
		<path id="XMLID_204_" class="st0" d="M176.2,271.5c0.8-0.3,2.1-0.5,3.4-0.7c1.9-0.2,3.1,0.1,4,0.8c0.7,0.6,1.2,1.5,1.2,2.8
			c0,1.6-0.9,3.1-2.5,3.9l0,0c1.4,0.3,3,1.4,3,3.9c0,1.4-0.5,2.6-1.2,3.4c-1,1.2-2.7,1.8-5,2c-1.3,0.1-2.3,0.1-2.9,0.1L176.2,271.5z
			 M178,286.1c0.4,0,0.9,0,1.6,0c1.9-0.2,3.7-1.2,3.7-3.6c0-2.3-1.7-3-3.7-2.9l-1.5,0.1L178,286.1z M178,278.1l1.7-0.2
			c2-0.2,3.1-1.5,3.2-3.1c0-1.9-1.3-2.6-3.2-2.4c-0.9,0.1-1.4,0.2-1.7,0.3L178,278.1z"/>
		<path id="XMLID_208_" class="st0" d="M187.5,284.2c0.8,0.5,2.1,0.9,3.3,0.8c1.9-0.2,3-1.4,3-3.1c0-1.6-0.8-2.4-2.7-3
			c-2.4-0.7-3.8-2-3.8-4.3c0-2.6,1.9-4.7,4.7-4.9c1.5-0.1,2.6,0.2,3.2,0.5l-0.5,1.8c-0.5-0.3-1.4-0.7-2.7-0.5
			c-2,0.2-2.7,1.6-2.7,2.7c0,1.6,0.9,2.2,2.9,2.9c2.4,0.9,3.7,2.1,3.7,4.5c0,2.6-1.7,4.9-5.1,5.3c-1.4,0.1-2.9-0.2-3.7-0.7
			L187.5,284.2z"/>
		<path id="XMLID_210_" class="st0" d="M200.3,269l-0.1,16.6l-1.9,0.2l0.1-16.6L200.3,269z"/>
		<path id="XMLID_212_" class="st0" d="M206.3,270.3l-4.4,0.4l0-1.8l10.7-1l0,1.8l-4.4,0.4l-0.1,14.8l-1.9,0.2L206.3,270.3z"/>
		<path id="XMLID_214_" class="st0" d="M221.7,275.8l-5.6,0.5l0,6l6.3-0.6l0,1.8l-8.1,0.8l0.1-16.6l7.8-0.7l0,1.8l-6,0.6l0,5.2
			l5.6-0.5L221.7,275.8z"/>
		<path id="XMLID_216_" class="st0" d="M224.5,280.8c0.8,0.5,2.1,0.9,3.3,0.8c1.9-0.2,3-1.4,3-3.1c0-1.6-0.8-2.4-2.7-3
			c-2.4-0.7-3.8-2-3.8-4.3c0-2.6,1.9-4.7,4.7-4.9c1.5-0.1,2.6,0.2,3.2,0.5l-0.5,1.8c-0.5-0.3-1.4-0.7-2.7-0.5
			c-2,0.2-2.7,1.6-2.7,2.7c0,1.6,0.9,2.2,2.9,2.9c2.4,0.9,3.7,2.1,3.7,4.5c0,2.6-1.7,4.9-5.1,5.3c-1.4,0.1-2.9-0.2-3.7-0.7
			L224.5,280.8z"/>
	</g>
	<polygon id="XMLID_6_" class="st4" points="0,248 41.3,261.8 41.3,323.2 0,302.1 	"/>
	<g id="XMLID_38_">
		<path id="XMLID_29_" class="st5" d="M21.8,233.2c0.5-1,1-2.6,1-4.5c0-2.8-1.1-4.7-2.6-5.2c-1.4-0.4-2.2,0.4-2.9,2.9
			c-0.8,3-2,4.6-4,4c-2.1-0.8-3.7-3.8-3.7-7.6c0-2,0.3-3.4,0.7-4.1l1.4,1.1c-0.2,0.6-0.6,1.8-0.6,3.6c0,2.7,1.1,4.1,2.1,4.4
			c1.3,0.4,2-0.6,2.7-3.1c0.9-3.1,2.1-4.5,4.3-3.9c2.3,0.7,4.3,3.7,4.3,8.6c0,2-0.4,4.1-1,5L21.8,233.2z"/>
		<path id="XMLID_36_" class="st5" d="M10.9,211.8c0.6,0.1,1.1,0.9,1.1,1.9c0,0.9-0.5,1.4-1.1,1.2c-0.6-0.2-1.1-1-1.1-1.9
			C9.8,212.1,10.3,211.6,10.9,211.8z M24.2,218.4l-10.5-3v-2.6l10.5,2.8L24.2,218.4L24.2,218.4z"/>
		<path id="XMLID_26_" class="st5" d="M10.8,204.7l2.8,0.7v-3.7l1.4,0.3v3.8l5.6,1.3c1.3,0.3,2.1,0,2.1-1.6c0-0.7-0.1-1.3-0.1-1.6
			l1.5,0.2c0.2,0.6,0.3,1.4,0.3,2.5c0,1.3-0.3,2.2-0.8,2.8c-0.6,0.6-1.6,0.7-2.8,0.4l-5.7-1.4v2.2l-1.4-0.4v-2.2l-2.4-0.6
			L10.8,204.7z"/>
		<path id="XMLID_35_" class="st5" d="M19.1,198.5c2.6,0.5,3.7-1.7,3.7-4.4c0-1.9-0.2-3.2-0.6-4.2l1.4-0.2c0.3,1,0.7,2.7,0.7,5.1
			c0,4.6-2.2,7-5.4,6.3c-3.1-0.6-5.5-3.7-5.5-7.9c0-4.7,2.9-5.5,4.8-5.2c0.4,0.1,0.7,0.2,0.9,0.2V198.5L19.1,198.5z M17.8,190.4
			c-1.2-0.2-3,0.2-3,3.2c0,2.7,1.7,4.2,3,4.6V190.4z"/>
		<path id="XMLID_23_" class="st6" d="M23.5,169.3c0.3,1.2,0.8,3.7,0.8,6.5c0,3.2-0.6,5.7-2,7.6c-1.2,1.6-3.2,2.5-5.5,2.1
			c-4.2-0.6-7.2-5-7.2-11.6c0-2.3,0.3-4,0.6-4.8l1.4,0.7c-0.3,1-0.6,2.3-0.6,4.3c0,4.8,2.1,8.2,5.6,8.6c3.7,0.5,6-2.4,6-7.3
			c0-1.8-0.2-3-0.4-3.6l-4.4-0.3v4.1l-1.5-0.1l0-6.7L23.5,169.3L23.5,169.3z"/>
		<path id="XMLID_22_" class="st6" d="M21.2,152.7c1.1,0,2.1-0.1,3-0.2v2.4l-1.8,0.2v0.1c0.9,0.7,2,2.3,2,5c0,2.4-1,5.2-4.7,5
			l-6-0.3v-2.6l5.7,0.2c2,0.1,3.4-0.8,3.4-3.2c0-1.8-0.9-3.1-1.8-3.6c-0.3-0.2-0.6-0.2-1-0.2l-6.3,0v-2.6L21.2,152.7L21.2,152.7z"/>
		<path id="XMLID_34_" class="st6" d="M24.2,139.8l-1.4,0.3v0.1c0.9,0.8,1.6,2.3,1.6,4.5c0,3.1-1.6,4.7-3.1,4.7
			c-2.6,0.1-3.9-3-3.9-8.7l-0.2,0c-0.9,0.1-2.4,0.5-2.4,3.4c0,1.3,0.3,2.7,0.8,3.7l-1.2,0.6c-0.5-1.2-0.9-2.9-0.9-4.7
			c0-4.4,2.1-5.6,4.2-5.8l4-0.3c0.9-0.1,1.9-0.2,2.6-0.5V139.8L24.2,139.8z M18.7,140.6c0,2.9,0.3,6.2,2.4,6.1
			c1.3-0.1,1.9-1.3,1.9-2.7c0-2-0.9-3.1-1.8-3.5c-0.2-0.1-0.4-0.1-0.6-0.1L18.7,140.6z"/>
		<path id="XMLID_19_" class="st6" d="M16.8,133.9c-1.2,0.1-2.2,0.3-3.2,0.4l0-2.3l2-0.3v-0.1c-1.4-0.5-2.2-2-2.2-3.7
			c0-0.3,0-0.5,0.1-0.7l1.7-0.2c0,0.3-0.1,0.5-0.1,0.9c0,1.9,1,3,2.4,3.2c0.3,0,0.6,0.1,0.9,0l5.7-0.7v2.7L16.8,133.9z"/>
		<path id="XMLID_33_" class="st6" d="M9.1,113.4l12.3-2.5c1-0.2,2.1-0.5,2.8-0.7l0,2.5l-1.9,0.5v0.1c1.2,0.6,2.2,2.3,2.2,4.7
			c0,3.6-2.2,6.8-5.5,7.2c-3.4,0.5-5.5-2.1-5.5-5.6c0-2.2,0.7-3.8,1.5-4.6v-0.1l-5.9,1.1V113.4z M17.8,114.2c-0.2,0-0.6,0.1-0.8,0.3
			c-1.2,0.6-2.2,2.2-2.2,4.2c0,2.7,1.7,4.1,4,3.7c2.1-0.3,4-2.1,4-5c0-1.8-0.9-3.3-2.3-3.5c-0.3,0-0.5,0-0.8,0L17.8,114.2z"/>
		<path id="XMLID_32_" class="st6" d="M10.9,105.9c0.6-0.2,1.1,0.4,1.1,1.4c0,0.9-0.5,1.7-1.1,1.8c-0.6,0.1-1.1-0.4-1.1-1.4
			C9.8,106.8,10.3,106,10.9,105.9z M24.2,105.7l-10.5,2.4v-2.6l10.5-2.5L24.2,105.7L24.2,105.7z"/>
		<path id="XMLID_14_" class="st6" d="M16.4,100.5c-1.1,0.3-1.9,0.5-2.7,0.8l0-2.3l1.7-0.6v-0.1c-1-0.5-1.9-1.9-1.9-4.2
			c0-2,0.8-5.3,4.3-6.5l6.4-2v2.7L18,90.2c-1.7,0.5-3,1.8-3,4.3c0,1.7,0.9,2.8,1.9,3c0.2,0.1,0.6,0,0.9-0.1l6.4-1.8l0,2.7
			L16.4,100.5L16.4,100.5z"/>
		<path id="XMLID_31_" class="st6" d="M13.7,72.4c0.7-0.2,1.5-0.5,2.8-1l6.1-2.4c2.5-1,4.1-0.9,5.1,0.2c1,1.1,1.4,3.1,1.4,5.1
			c0,1.8-0.3,4-0.9,5.4l-1.6-0.2c0.5-1.2,0.9-2.9,0.9-4.8c0-2.8-1.1-4.5-3.9-3.4l-1.2,0.5v0.1c1,0.4,1.8,1.8,1.8,4.1
			c0,3.7-2.3,7.2-5.3,8.2c-3.5,1.2-5.4-1.3-5.4-4.6c0-2.5,0.9-4.2,1.7-5.1v-0.1l-1.5,0.5L13.7,72.4L13.7,72.4z M17.7,73.5
			c-0.3,0.1-0.6,0.3-0.9,0.5c-1.1,0.9-2,2.5-2,4.4c0,2.5,1.5,3.8,3.9,2.9c2.1-0.7,3.8-2.8,3.8-5.8c0-1.7-0.8-2.9-2-3
			c-0.3,0-0.7,0.1-1,0.2L17.7,73.5L17.7,73.5z"/>
		<path id="XMLID_11_" class="st5" d="M23.6,65.5c-0.4,0.2-0.7-0.1-0.7-0.6s0.3-1,0.7-1.2c0.4-0.2,0.7,0.1,0.7,0.6
			C24.3,64.8,24,65.3,23.6,65.5z"/>
		<path id="XMLID_10_" class="st5" d="M24,56.4c0.1,0.3,0.3,1,0.3,2c0,2.3-1.1,4.2-2.8,4.9c-1.6,0.7-2.8-0.3-2.8-2.7
			c0-0.8,0.1-1.6,0.3-2l0.7,0c-0.1,0.4-0.3,0.9-0.3,1.7c0,1.7,0.9,2.2,2,1.7c1.3-0.5,2-2,2-3.5c0-0.8-0.2-1.2-0.3-1.6L24,56.4z"/>
		<path id="XMLID_30_" class="st5" d="M21.4,49.3c2-1,2.9,0.5,2.9,2.3c0,2-1.1,4.1-2.8,4.9c-1.8,0.8-2.8-0.3-2.8-2.4
			C18.7,52.1,19.8,50.1,21.4,49.3z M21.5,55.2c1.2-0.5,2.1-1.9,2.1-3.2c0-1.3-0.9-1.8-2.1-1.3c-0.9,0.4-2,1.6-2,3.2
			C19.4,55.5,20.4,55.7,21.5,55.2z"/>
		<path id="XMLID_7_" class="st5" d="M20.2,48.2c-0.5,0.3-1,0.5-1.4,0.8v-1.2l0.9-0.5v-0.1c-0.5-0.2-1-0.6-1-1.8c0-1,0.4-2,1.1-2.6
			v0c-0.3-0.1-0.5-0.2-0.7-0.5c-0.2-0.3-0.4-0.7-0.4-1.4c0-1,0.5-2.7,2.3-3.7l3.2-1.7v1.3l-3.1,1.7c-1,0.6-1.6,1.4-1.6,2.5
			c0,0.8,0.4,1.1,0.9,1.1c0.1,0,0.3-0.1,0.5-0.2l3.4-1.8v1.3l-3.3,1.7c-0.8,0.4-1.5,1.3-1.5,2.3c0,0.8,0.5,1.2,1,1.2
			c0.1,0,0.3,0,0.5-0.1l3.3-1.7v1.3L20.2,48.2L20.2,48.2z"/>
	</g>
	<g id="XMLID_37_">
		<path id="XMLID_146_" class="st4" d="M66.4,29l0.3-4.5l-1.3-0.1l0-1.3l1.4,0.1l0.3-3.3l-1.4-0.1l0-1.3l1.5,0.1l0.3-4.3l0.9,0.1
			l-0.3,4.3l1.7,0.1l0.3-4.3l0.9,0.1l-0.3,4.3l1.3,0.1l0,1.3l-1.4-0.1l-0.2,3.3l1.4,0.1l0,1.3l-1.5-0.1L70,29.2l-1-0.1l0.3-4.5
			l-1.7-0.1L67.4,29L66.4,29z M69.5,23.3l0.3-3.3L68.1,20l-0.3,3.3L69.5,23.3z"/>
		<path id="XMLID_149_" class="st4" d="M76.9,16.6L76.9,16.6l-1.8,1.3l-0.3-1.5l2.2-1.6l1.2,0.1l0.2,14.8l-1.4-0.1L76.9,16.6z"/>
		<path id="XMLID_151_" class="st4" d="M86.7,27.7c0.6,0.6,1.5,1.1,2.5,1.1c1.4,0.1,2.2-0.9,2.2-2.5c0-1.4-0.6-2.3-2.1-3.2
			c-1.8-1-2.9-2.4-2.9-4.5c0-2.4,1.3-4.1,3.4-4c1.1,0.1,1.9,0.5,2.4,0.9l-0.4,1.6c-0.4-0.3-1.1-0.8-2-0.8c-1.5-0.1-2,1.1-2,2.2
			c0,1.4,0.7,2.2,2.2,3.1c1.8,1.1,2.8,2.4,2.8,4.7c0,2.4-1.2,4.4-3.7,4.2c-1-0.1-2.2-0.6-2.7-1.1L86.7,27.7z"/>
		<path id="XMLID_153_" class="st4" d="M100.7,23.7l-4.2-0.2l0.1,5.5l4.6,0.3l0,1.7l-6-0.3L95,15.2l5.8,0.3l0,1.7L96.4,17l0.1,4.9
			l4.2,0.2L100.7,23.7z"/>
		<path id="XMLID_155_" class="st4" d="M111,31c-0.5,0.3-1.5,0.6-2.8,0.6c-3-0.2-5.3-3-5.4-8.1c-0.1-4.8,2.1-8,5.5-7.8
			c1.3,0.1,2.2,0.5,2.6,0.8l-0.3,1.6c-0.5-0.4-1.3-0.7-2.2-0.8c-2.5-0.1-4.1,2.1-4.1,6.1c0.1,3.8,1.6,6.3,4.2,6.4
			c0.8,0,1.7-0.2,2.2-0.5L111,31z"/>
		<path id="XMLID_157_" class="st4" d="M114.4,16.3l0.1,9.1c0.1,3.4,1.1,5,2.6,5c1.6,0.1,2.6-1.4,2.5-4.8l-0.1-9.1l1.4,0.1l0.1,9
			c0.1,4.7-1.6,6.6-4,6.4c-2.2-0.1-3.9-2-3.9-6.8l-0.1-9.1L114.4,16.3z"/>
		<path id="XMLID_159_" class="st4" d="M123.7,17c0.7-0.2,1.7-0.2,2.6-0.2c1.5,0.1,2.4,0.5,3.1,1.4c0.6,0.7,0.9,1.8,0.9,3
			c0,2-0.8,3.3-2,3.8l0,0.1c0.8,0.5,1.3,1.6,1.6,3.2c0.4,2.2,0.7,3.7,0.9,4.3l-1.4-0.1c-0.2-0.4-0.4-1.8-0.8-3.7
			c-0.3-2.1-0.9-3-2.2-3.1l-1.3-0.1l0.1,6.7l-1.4-0.1L123.7,17z M125.2,24.1l1.4,0.1c1.5,0.1,2.4-1,2.4-2.8c0-2-1-2.9-2.5-3
			c-0.7,0-1.1,0-1.4,0.1L125.2,24.1z"/>
		<path id="XMLID_162_" class="st4" d="M134.1,17.4l0.2,15.4l-1.4-0.1l-0.2-15.4L134.1,17.4z"/>
		<path id="XMLID_164_" class="st4" d="M139.1,19.4l-3.3-0.2l0-1.7l7.9,0.4l0,1.7l-3.3-0.2l0.2,13.7l-1.4-0.1L139.1,19.4z"/>
		<path id="XMLID_166_" class="st4" d="M148.4,33.6l-0.1-6.5l-3.5-9l1.6,0.1l1.6,4.3c0.4,1.2,0.8,2.1,1.1,3.2l0,0c0.3-1,0.6-2,1-3.1
			l1.5-4.2l1.6,0.1l-3.5,8.6l0.1,6.6L148.4,33.6z"/>
		<path id="XMLID_168_" class="st4" d="M158.7,31.8c0.6,0.6,1.5,1.1,2.5,1.1c1.4,0.1,2.2-0.9,2.2-2.5c0-1.4-0.6-2.3-2.1-3.2
			c-1.8-1-2.9-2.4-2.9-4.5c0-2.4,1.3-4.1,3.4-4c1.1,0.1,1.9,0.5,2.4,0.9l-0.4,1.6c-0.4-0.3-1.1-0.8-2-0.8c-1.5-0.1-2,1.1-2,2.2
			c0,1.4,0.7,2.2,2.2,3.1c1.8,1.1,2.8,2.4,2.8,4.7c0,2.4-1.2,4.4-3.7,4.2c-1-0.1-2.2-0.6-2.7-1.1L158.7,31.8z"/>
		<path id="XMLID_170_" class="st4" d="M176.3,27.3c0.1,5.3-2.1,8-4.8,7.8c-2.8-0.2-4.9-3.4-4.9-8.1c-0.1-4.9,2-8,4.9-7.8
			C174.3,19.4,176.2,22.8,176.3,27.3z M168,27.1c0,3.3,1.3,6.3,3.5,6.4c2.2,0.1,3.4-2.7,3.3-6.2c0-3.1-1.2-6.3-3.5-6.4
			C169,20.8,167.9,23.7,168,27.1z"/>
		<path id="XMLID_173_" class="st4" d="M178.4,19.9l1.4,0.1l0.2,13.7l4.6,0.3l0,1.7l-6-0.3L178.4,19.9z"/>
		<path id="XMLID_175_" class="st4" d="M187.2,20.4l0.1,9.1c0.1,3.4,1.1,5,2.6,5c1.6,0.1,2.6-1.4,2.5-4.8l-0.1-9.1l1.4,0.1l0.1,9
			c0.1,4.7-1.6,6.6-4,6.4c-2.2-0.1-3.9-2-3.9-6.8l-0.1-9.1L187.2,20.4z"/>
		<path id="XMLID_177_" class="st4" d="M198.6,22.8l-3.3-0.2l0-1.7l7.9,0.4l0,1.7l-3.3-0.2l0.2,13.7l-1.4-0.1L198.6,22.8z"/>
		<path id="XMLID_179_" class="st4" d="M206.3,21.5l0.2,15.4l-1.4-0.1l-0.2-15.4L206.3,21.5z"/>
		<path id="XMLID_181_" class="st4" d="M218.4,29.7c0.1,5.3-2.1,8-4.8,7.8c-2.8-0.2-4.9-3.4-4.9-8.1c-0.1-4.9,2-8,4.8-7.8
			C216.4,21.8,218.4,25.1,218.4,29.7z M210.1,29.5c0,3.3,1.3,6.3,3.5,6.4c2.2,0.1,3.4-2.7,3.3-6.2c0-3.1-1.2-6.3-3.5-6.4
			C211.2,23.1,210.1,26.1,210.1,29.5z"/>
		<path id="XMLID_184_" class="st4" d="M220.8,37.7l-0.2-15.4l1.5,0.1l3.6,8c0.8,1.8,1.5,3.5,2,5.1l0,0c-0.2-2.1-0.2-3.9-0.3-6.3
			l-0.1-6.4l1.3,0.1l0.2,15.4l-1.4-0.1l-3.5-8c-0.8-1.8-1.5-3.6-2.1-5.2l0,0c0.1,1.9,0.2,3.8,0.2,6.4l0.1,6.6L220.8,37.7z"/>
	</g>
</g>
<g id="XMLID_131_">
	<path id="XMLID_2_" class="st4" d="M162.3,149.8l-47.1,18c-6.7,2.6-12.5-1.4-13-8.9l-2.3-32.6c-0.5-7.9,4.7-16.4,11.7-18.9
		l101-35.8c-1.1-3.8-1.9-6-1.9-6c-42.3,6.5-62.8-9.5-62.8-9.5s-20,15.3-68.2,6.7c0,0-25.2,71,31.2,131.1l52-20.5L162.3,149.8
		L162.3,149.8z"/>
	<path id="XMLID_1_" class="st6" d="M133.3,134.3l47.2-17.5c6.4-2.4,11.5,1.8,11.5,9.2l0.1,32.1c0,7-4.9,14.6-11,17l-63.8,25.4
		c9.9,9.3,21.8,18,36.2,25.8c70.5-53.2,67.1-116.5,61.1-145.7l-82.5,29.7L133.3,134.3z"/>
</g>
<g id="XMLID_145_">
</g>
<g id="XMLID_218_">
</g>
<g id="XMLID_219_">
</g>
<g id="XMLID_220_">
</g>
<g id="XMLID_221_">
</g>
<g id="XMLID_222_">
</g>
</svg>
