<svg width="48" height="48" viewBox="0 0 48 48" fill="none" xmlns="http://www.w3.org/2000/svg">
<path d="M42.045 4.45499H13.5L12 5.95499V24.1725H6.03751L4.53751 25.6725V42L6.03751 43.5H22.3275L23.8275 42V36H42.045L43.545 34.5V5.95499L42.045 4.45499ZM20.8275 40.5H7.53751V27.1725H12V34.5L13.5 36H20.85L20.8275 40.5ZM20.8275 33.06H15V27.21H20.85L20.8275 33.06ZM40.545 33.06H23.8275V26.445L34.5 15.645L34.5675 19.395L37.5675 19.3425L37.4025 10.5675L28.6275 10.7325L28.68 13.7325L32.25 13.635L21.825 24.135H15V7.45499H40.545V33.06Z" fill="#0055DC"/>
</svg>
