<svg id="Layer_1" data-name="Layer 1" xmlns="http://www.w3.org/2000/svg" viewBox="0 0 64.8518 66"><title>Challenges faced</title><path d="M45.8867,37.8369c-.9342.5765-.6226.7143.3.9111a3.5835,3.5835,0,0,1,2.6549,1.7268c1.1212,1.8169.567,4.8471-2.0493,6.4616s-5.5733.7509-6.6945-1.0661a3.5833,3.5833,0,0,1-.3528-3.1473c.2386-.9089.2563-1.2547-.68-.6771l-6.2077,3.8306,3.8306,6.2077c1.0053,1.6292.4579,2.9929-.4763,3.5694a2.8133,2.8133,0,0,1-2.1388.2634c-.8163-.2108-1.1856-.4-1.879.0275a3.19,3.19,0,0,0,3.2373,5.2463c.6934-.4279.69-.8436.8674-1.667A2.8132,2.8132,0,0,1,37.494,57.73c.9342-.5764,2.3985-.4543,3.4038,1.1749l3.8306,6.2077,19.2363-11.87-11.87-19.2363Z" fill="#c5dcf0"/><path d="M44.518,66l-4.1687-6.7563a2.3809,2.3809,0,0,0-1.3458-1.13,1.4775,1.4775,0,0,0-1.171.1656,2.1738,2.1738,0,0,0-.9057,1.3923l-.0547.2669a2.2672,2.2672,0,0,1-1.1017,1.801,2.86,2.86,0,0,1-2.2539.2044A4.0336,4.0336,0,0,1,31.25,60.15a3.4545,3.4545,0,0,1,.6069-4.7542,2.2686,2.2686,0,0,1,2.1013-.1773l.2775.0746a2.1583,2.1583,0,0,0,1.6388-.1879c.6925-.4276,1.0432-1.4228.2659-2.6825l-4.1688-6.7562,6.7563-4.1693c.338-.2087.9662-.5956,1.47-.2237.4984.37.325,1.0306.1715,1.6132a2.9521,2.9521,0,0,0,.2784,2.6451c.9575,1.5531,3.5208,2.267,5.8071.8563s2.7972-4.022,1.8393-5.5747A2.9466,2.9466,0,0,0,46.06,39.38c-.5966-.1273-1.2654-.27-1.371-.88-.1065-.6155.5221-1.0034.86-1.2117l6.7568-4.1692L64.8518,53.4526ZM38.61,56.7729a2.8,2.8,0,0,1,.725.0949,3.584,3.584,0,0,1,2.1115,1.6989l3.4917,5.6589L63.0773,53.0323,51.8845,34.8933l-5.31,3.2767a4.0911,4.0911,0,0,1,2.8166,1.9662c1.2848,2.0824.6833,5.5325-2.26,7.349s-6.2967.8059-7.5815-1.2765a4.09,4.09,0,0,1-.4944-3.3988l-5.31,3.2767,3.4917,5.6589c1.1831,1.9173.5506,3.6932-.6863,4.4569a3.4478,3.4478,0,0,1-2.6267.3419l-.3071-.0823c-.5927-.1623-.7158-.1962-1.0838.031a2.2386,2.2386,0,0,0-.1865,2.98,2.6861,2.6861,0,0,0,1.5314,1.233,1.5751,1.5751,0,0,0,1.215-.0639c.3691-.2277.3942-.3531.5148-.9565l.0606-.2969a3.4552,3.4552,0,0,1,1.4867-2.2069A2.7749,2.7749,0,0,1,38.61,56.7729Zm7.2764-18.9361h0Z" fill="#0071ce"/><path d="M43.46,27.0605h7.2V0H0V50.66H27.061V43.4594c0-2.36-1.5062-2.544-1.9677-2.544A2.8379,2.8379,0,0,0,23.09,42.0443a2.0639,2.0639,0,0,1-1.7231.8644c-1.3942,0-2.8873-1.46-2.8873-3.6331s1.4931-3.6331,2.8873-3.6331a2.099,2.099,0,0,1,1.74.88,2.81,2.81,0,0,0,1.9885,1.1133c.461,0,1.9662-.1835,1.9662-2.5449l-.0122-8.042,8.0426.0121c.7279,0,1.18.2489,1.18.6494a1.2052,1.2052,0,0,1-.3966.7874l-.22.2068A3.4183,3.4183,0,0,0,34.3267,31.44a4.7285,4.7285,0,0,0,4.9484,4.2026A4.7289,4.7289,0,0,0,44.2245,31.44,3.4091,3.4091,0,0,0,42.901,28.708l-.1913-.18a1.26,1.26,0,0,1-.43-.8184C42.28,27.3094,42.732,27.0605,43.46,27.0605ZM25.4522,1.2892V9.3467c0,1.7057.9734,2.4694,1.9386,2.4694a2.5105,2.5105,0,0,0,1.7448-.8228l.1928-.2044a2.1485,2.1485,0,0,1,1.7923-.9182,3.466,3.466,0,0,1,2.913,3.66,3.4659,3.4659,0,0,1-2.913,3.66,2.1788,2.1788,0,0,1-1.7947-.92l-.2194-.232a2.467,2.467,0,0,0-1.7158-.7932c-.9652,0-1.9386.7637-1.9386,2.4693v8.0571H17.3946c-.5342,0-1.0509-.0557-1.2131-.461-.156-.3889.0818-.7066.6717-1.2694a3.3281,3.3281,0,0,0,1.28-2.6747c0-2.0165-1.9778-4.176-4.9223-4.176S8.29,19.35,8.29,21.3662A3.3092,3.3092,0,0,0,9.5569,24.03c.5991.57.84.8911.6833,1.2819-.1612.4039-.6784.46-1.2131.46H1.2892V1.2892Zm-.3574,35.057c-.372,0-.72-.3637-1.0524-.7105a3.33,3.33,0,0,0-2.6757-1.2824c-2.017,0-4.1765,1.9779-4.1765,4.9223s2.1595,4.9223,4.1765,4.9223a3.2973,3.2973,0,0,0,2.6626-1.2708c.3555-.3714.6911-.7225,1.064-.7225.2029,0,.6785,0,.6785,1.2548v5.9117H1.2892V27.0605H9.0271a2.39,2.39,0,0,0,2.41-1.27c.507-1.2669-.4673-2.1958-.9952-2.6985a2.0732,2.0732,0,0,1-.8635-1.726c0-1.3942,1.46-2.8868,3.6321-2.8868s3.6332,1.4926,3.6332,2.8868a2.0984,2.0984,0,0,1-.8785,1.74,2.4307,2.4307,0,0,0-.9812,2.6839,2.39,2.39,0,0,0,2.41,1.2708H25.76l.0121,8.0309C25.7718,36.3462,25.2972,36.3462,25.0948,36.3462Zm16.7185-6.8914.2068.1947a2.1679,2.1679,0,0,1,.9153,1.79,3.4669,3.4669,0,0,1-3.66,2.9134A3.4661,3.4661,0,0,1,35.6159,31.44a2.1759,2.1759,0,0,1,.9191-1.7938l.2364-.2223a2.4668,2.4668,0,0,0,.7894-1.7139c0-.9652-.7638-1.9386-2.4684-1.9386l-8.3511-.0126V17.7142c0-.355.0635-1.18.6495-1.18a1.21,1.21,0,0,1,.79.402l.2049.2169a3.4189,3.4189,0,0,0,2.7347,1.3265,4.7287,4.7287,0,0,0,4.2022-4.9489,4.7287,4.7287,0,0,0-4.2022-4.9489A3.3739,3.3739,0,0,0,28.3874,9.907l-.1782.1894a1.2613,1.2613,0,0,1-.8184.4305c-.586,0-.6495-.8252-.6495-1.18V1.2892h22.63V25.7713H43.46c-1.7057,0-2.4694.9734-2.4694,1.9386A2.5078,2.5078,0,0,0,41.8133,29.4548Z" fill="#a8afbf"/></svg>