<svg id="Layer_1" data-name="Layer 1" xmlns="http://www.w3.org/2000/svg" viewBox="0 0 65.9847 66"><title>Results achieved</title><polygon points="56.099 1.866 44.48 13.214 44.48 21.298 56.099 9.663 56.099 1.866" fill="#caedc2"/><polygon points="56.323 9.886 44.703 21.506 52.773 21.506 64.12 9.886 56.323 9.886" fill="#caedc2"/><path d="M56.3608,27.4912l-1.2067.42A27.6736,27.6736,0,1,1,38.03,10.8253l.4163-1.2067A28.9534,28.9534,0,1,0,56.3608,27.4912Z" fill="#a8afbf"/><path d="M28.9818,55.4006A18.3818,18.3818,0,1,1,36.576,20.274l.5275-1.1625a19.6487,19.6487,0,1,0,9.53,9.244l-1.1453.563a18.2163,18.2163,0,0,1,1.8752,8.1006A18.402,18.402,0,0,1,28.9818,55.4006Z" fill="#a8afbf"/><path d="M37.9659,37.0191a8.9742,8.9742,0,1,1-6.9361-8.75l.29-1.2431A10.253,10.253,0,1,0,38.7946,34.01l-1.22.3741A8.9937,8.9937,0,0,1,37.9659,37.0191Z" fill="#a8afbf"/><path d="M42.8061,22.2918,30.56,34.5377a2.9638,2.9638,0,1,0,.9031.9032L44.6123,22.2918h8.491L65.9847,9.1006H56.8855V0L43.6934,12.8823v8.5071l-.9036.9024Zm9.76-1.2768H45.889L56.5268,10.3773h6.4267ZM44.971,13.42,55.6078,3.0321V9.4593L44.971,20.1105Z" fill="#67bc00"/></svg>