<svg xmlns="http://www.w3.org/2000/svg" viewBox="0 0 246 246"><title>dotConnect_O</title><rect width="246" height="246" fill="#fff" opacity="0"/><polyline points="195.133 81.555 195.133 164.696 123.134 206.276 51.134 164.696 51.134 81.555 123.134 39.994 195.133 81.555" fill="#ffc400"/><polyline points="123.134 39.994 51.134 81.555 123.134 123.134 123.134 39.992 123.134 39.994" fill="#ffcd26"/><polyline points="123.134 123.134 51.134 164.696 123.134 206.276 123.134 206.274 123.134 123.134" fill="#ffaf00"/><polyline points="195.133 81.555 123.134 123.134 195.133 164.696 195.133 164.695 195.133 81.555" fill="#ffaf00"/><polyline points="123.134 39.992 123.134 123.134 195.133 81.555 123.134 39.994" fill="#ffbc19"/><polyline points="123.134 123.134 123.134 123.134 123.134 206.274 195.133 164.695 123.134 123.134" fill="#ff9300"/><path d="M123.1318,106.0342A17.499,17.499,0,1,0,139.85,128.7061h17.384a55.7559,55.7559,0,0,1,12.4937-10.3475H139.8494A17.5292,17.5292,0,0,0,123.1318,106.0342Zm0,24.6506a7.1517,7.1517,0,1,1,7.1524-7.1526A7.16,7.16,0,0,1,123.1318,130.6848Z" fill="#fff"/><path d="M146.29,146.9049l-23.157,13.372-32.167-18.5761V104.5571l32.167-18.5693L155.3,104.5571v.0017l10.3474-5.9753v-.0017L123.1333,74.0405,80.6191,98.5818v49.0909l42.5142,24.5547,20.0894-11.6024A55.1983,55.1983,0,0,1,146.29,146.9049Z" fill="#fff"/><path d="M245.0322,165.8457a46.5615,46.5615,0,1,1-46.5654-46.5649A46.5635,46.5635,0,0,1,245.0322,165.8457Z" fill="#e8e8e8" fill-rule="evenodd"/><path d="M186.0039,187.333a21.4922,21.4922,0,1,1,0-42.9844h24.9785a21.4962,21.4962,0,0,1,0,42.9922l-24.9785-.0078m24.4072-7.5762a13.9033,13.9033,0,1,0,0-27.8066h-23.86a13.9033,13.9033,0,0,0,0,27.8066h23.86" fill="#e42521"/></svg>