<svg xmlns="http://www.w3.org/2000/svg" viewBox="0 0 246 246"><title>DAC</title><rect width="246" height="246" fill="#fff" opacity="0"/><polyline points="195 81.422 195 164.563 123 206.142 51 164.563 51 81.422 123 39.86 195 81.422" fill="#f80"/><polyline points="123 39.86 51 81.422 123 123 123 39.858 123 39.86" fill="#ffa640"/><polyline points="123 123 51 164.563 123 206.142 123 123" fill="#ff6a00"/><polyline points="195 81.422 123 123 195 164.563 195 164.56 195 81.422" fill="#ff6a00"/><polyline points="123 39.858 123 123 195 81.422 123 39.86" fill="#ff9030"/><polyline points="123 123 123 123 123 206.14 195 164.56 123 123" fill="#ff4f00"/><path d="M160.1182,128.0244a18.4882,18.4882,0,0,1-14.2237-6.6543,5.173,5.173,0,1,1,7.9385-6.6347,8.185,8.185,0,1,0,6.2852-13.4288H85.88a8.1851,8.1851,0,1,0,6.2861,13.4268,5.1737,5.1737,0,1,1,7.937,6.6387A18.5322,18.5322,0,1,1,85.88,90.959h74.2378a18.5327,18.5327,0,0,1,0,37.0654Z" fill="#fff"/><path d="M114.3115,109.793a5.1735,5.1735,0,0,0-5.1738,5.1738v43.01h10.3477v-43.01A5.1728,5.1728,0,0,0,114.3115,109.793Z" fill="#fff"/><path d="M96.9375,134.58a5.1721,5.1721,0,0,0-5.1724,5.1729v18.2237h10.3462V139.7529A5.1727,5.1727,0,0,0,96.9375,134.58Z" fill="#fff"/><path d="M131.6846,109.793a5.1729,5.1729,0,0,0-5.1729,5.1738v43.01h10.3467v-43.01A5.1732,5.1732,0,0,0,131.6846,109.793Z" fill="#fff"/><path d="M149.06,134.58a5.1728,5.1728,0,0,0-5.1729,5.1729v18.2237h10.3477V139.7529A5.1738,5.1738,0,0,0,149.06,134.58Z" fill="#fff"/></svg>