<svg width="352" height="112" viewBox="0 0 352 112" fill="none" xmlns="http://www.w3.org/2000/svg">
<g filter="url(#filter0_dd)">
<rect x="16" y="8" width="320" height="72" rx="36" fill="white"/>
<rect x="16.25" y="8.25" width="319.5" height="71.5" rx="35.75" stroke="url(#paint0_linear)" stroke-width="0.5"/>
<rect x="16.25" y="8.25" width="319.5" height="71.5" rx="35.75" stroke="url(#paint1_linear)" stroke-width="0.5" style="mix-blend-mode:soft-light"/>
</g>
<path d="M299 38.41L297.59 37L292 42.59L286.41 37L285 38.41L290.59 44L285 49.59L286.41 51L292 45.41L297.59 51L299 49.59L293.41 44L299 38.41Z" fill="black"/>
<mask id="mask0" mask-type="alpha" maskUnits="userSpaceOnUse" x="285" y="37" width="14" height="14">
<path d="M299 38.41L297.59 37L292 42.59L286.41 37L285 38.41L290.59 44L285 49.59L286.41 51L292 45.41L297.59 51L299 49.59L293.41 44L299 38.41Z" fill="white"/>
</mask>
<g mask="url(#mask0)">
<rect x="280" y="32" width="24" height="24" fill="#8A8B8C"/>
</g>
<rect x="216" y="20" width="48" height="48" rx="24" fill="#FD8235"/>
<rect x="230.25" y="33.5" width="4.5" height="21" rx="2.25" fill="white"/>
<rect x="237.75" y="38" width="4.5" height="12" rx="2.25" fill="white"/>
<rect x="245.25" y="41.375" width="4.5" height="4.5" rx="2.25" fill="white"/>
<rect x="152.5" y="20.5" width="47" height="47" rx="23.5" stroke="black" stroke-opacity="0.08" stroke-linecap="square"/>
<path d="M183 45H177V51H175V45H169V43H175V37H177V43H183V45Z" fill="#FD8235"/>
<rect x="88.5" y="20.5" width="47" height="47" rx="23.5" stroke="black" stroke-opacity="0.08"/>
<path d="M107.6 39.4C107.2 39 107 38.5 107 38C107 37.5 107.2 37 107.6 36.6C108 36.2 108.5 36 109 36C110.1 36 111 36.9 111 38C111 38.5 110.8 39 110.4 39.4C110 39.8 109.5 40 109 40C108.5 40 108 39.8 107.6 39.4Z" fill="#FF8226"/>
<path d="M111.3 42.4C109.9 43 109 44.4 109 46V48H106C105.5 48 105 47.5 105 47V43C105 41.9 105.9 41 107 41H111C111 41.5 111.1 42 111.3 42.4Z" fill="#FF8226"/>
<path d="M119 46V50C119 50.5 118.5 51 118 51H112C111.5 51 111 50.5 111 50V46C111 45.1 111.6 44.3 112.5 44.1C112.7 44.1 112.9 44 113 44H117C117.2 44 117.4 44 117.5 44.1C118.4 44.3 119 45.1 119 46Z" fill="#FF8226"/>
<path d="M117 41C117 41.4 116.9 41.7 116.7 42C116.6 42.2 116.5 42.3 116.4 42.4C116 42.8 115.5 43 115 43C114.5 43 114 42.8 113.6 42.4C113.5 42.3 113.4 42.1 113.3 42C113.1 41.7 113 41.4 113 41C113 40.5 113.2 40 113.6 39.6C114 39.2 114.5 39 115 39C116.1 39 117 39.9 117 41Z" fill="#FF8226"/>
<path d="M58 50C58 51.1 58.9 52 60 52C61.1 52 62 51.1 62 50C62 48.9 61.1 48 60 48C58.9 48 58 48.9 58 50Z" fill="#8A8B8C"/>
<path d="M58 38C58 39.1 58.9 40 60 40C61.1 40 62 39.1 62 38C62 36.9 61.1 36 60 36C58.9 36 58 36.9 58 38Z" fill="#8A8B8C"/>
<path d="M58 44C58 45.1 58.9 46 60 46C61.1 46 62 45.1 62 44C62 42.9 61.1 42 60 42C58.9 42 58 42.9 58 44Z" fill="#8A8B8C"/>
<defs>
<filter id="filter0_dd" x="0" y="0" width="352" height="112" filterUnits="userSpaceOnUse" color-interpolation-filters="sRGB">
<feFlood flood-opacity="0" result="BackgroundImageFix"/>
<feColorMatrix in="SourceAlpha" type="matrix" values="0 0 0 0 0 0 0 0 0 0 0 0 0 0 0 0 0 0 127 0"/>
<feOffset dy="16"/>
<feGaussianBlur stdDeviation="8"/>
<feColorMatrix type="matrix" values="0 0 0 0 0 0 0 0 0 0 0 0 0 0 0 0 0 0 0.08 0"/>
<feBlend mode="normal" in2="BackgroundImageFix" result="effect1_dropShadow"/>
<feColorMatrix in="SourceAlpha" type="matrix" values="0 0 0 0 0 0 0 0 0 0 0 0 0 0 0 0 0 0 127 0"/>
<feOffset dy="8"/>
<feGaussianBlur stdDeviation="8"/>
<feColorMatrix type="matrix" values="0 0 0 0 0 0 0 0 0 0 0 0 0 0 0 0 0 0 0.04 0"/>
<feBlend mode="normal" in2="effect1_dropShadow" result="effect2_dropShadow"/>
<feBlend mode="normal" in="SourceGraphic" in2="effect2_dropShadow" result="shape"/>
</filter>
<linearGradient id="paint0_linear" x1="16" y1="8" x2="16" y2="80" gradientUnits="userSpaceOnUse">
<stop stop-opacity="0.01"/>
<stop offset="0.95" stop-opacity="0.01"/>
<stop offset="1" stop-opacity="0.04"/>
</linearGradient>
<linearGradient id="paint1_linear" x1="16" y1="8" x2="16" y2="80" gradientUnits="userSpaceOnUse">
<stop stop-color="white" stop-opacity="0.8"/>
<stop offset="0.0493601" stop-color="white" stop-opacity="0.4"/>
<stop offset="0.2" stop-color="white" stop-opacity="0.01"/>
<stop offset="1" stop-color="white" stop-opacity="0.01"/>
</linearGradient>
</defs>
</svg>
