<svg width="40" height="40" viewBox="0 0 40 40" fill="none" xmlns="http://www.w3.org/2000/svg">
<path fill-rule="evenodd" clip-rule="evenodd" d="M10 20.8828V28.0091C10 29.1087 10.896 29.9999 12.0013 29.9999C13.1066 29.9999 14.0026 29.1087 14.0026 28.0091V17.116C13.8875 19.2156 12.1397 20.8828 10 20.8828Z" fill="#DE201D"/>
<path fill-rule="evenodd" clip-rule="evenodd" d="M29.8792 10C25.5134 10 21.9736 13.5115 21.9736 17.8425V20.284C21.9736 19.1844 22.8721 18.2932 23.9804 18.2932C25.0882 18.2932 25.9867 19.1844 25.9867 20.284V21.2972C25.9867 22.3964 26.8852 23.2876 27.9934 23.2876C29.1012 23.2876 29.9997 22.3964 29.9997 21.2968V10.0021C29.9597 10.0008 29.9196 10 29.8792 10Z" fill="#FFD51F"/>
<path fill-rule="evenodd" clip-rule="evenodd" d="M10 20.944C12.1368 20.944 13.8825 19.2747 13.9972 17.172V15.3019C13.9972 15.2507 14.0001 15.2003 14.0039 15.1494C14.0818 14.1201 14.9436 13.3086 15.996 13.3086C17.1 13.3086 17.9948 14.201 17.9948 15.3019V23.1013C17.9948 24.2021 18.8895 25.0942 19.9936 25.0942C21.0972 25.0942 21.992 24.2021 21.9924 23.1017V17.8544C21.9924 13.5165 25.518 10 29.8671 10H10V20.944Z" fill="#FF8126"/>
</svg>
