<svg width="40" height="40" viewBox="0 0 40 40" fill="none" xmlns="http://www.w3.org/2000/svg">
<path d="M31.7867 15.5693C31.2215 14.2094 30.075 12.741 29.1772 12.2769C29.8176 13.517 30.2619 14.8489 30.4945 16.2251L30.4969 16.2469C29.0262 12.5803 26.5322 11.1019 24.4953 7.88261C24.3923 7.71984 24.2893 7.55673 24.1889 7.38455C24.1315 7.28622 24.0856 7.19762 24.0456 7.11606C23.9611 6.95246 23.896 6.77957 23.8516 6.60089C23.8517 6.59264 23.8487 6.58466 23.8433 6.57847C23.8378 6.57228 23.8303 6.56831 23.8221 6.56732C23.8141 6.56512 23.8056 6.56512 23.7976 6.56732C23.7959 6.56732 23.7932 6.57034 23.7912 6.57102C23.7892 6.57169 23.7848 6.57471 23.7818 6.57605L23.7869 6.56732C20.5196 8.48035 19.4111 12.0218 19.309 13.7932C18.0042 13.8829 16.7568 14.3637 15.7293 15.1729C15.6221 15.0821 15.5101 14.9972 15.3937 14.9185C15.0973 13.8811 15.0847 12.7832 15.3571 11.7392C14.1573 12.3205 13.0911 13.1445 12.2261 14.159H12.2201C11.7046 13.5056 11.7408 11.3509 11.7704 10.9008C11.6179 10.9621 11.4723 11.0394 11.3361 11.1314C10.881 11.4562 10.4556 11.8207 10.0648 12.2205C9.61942 12.672 9.21268 13.16 8.84881 13.6794V13.6814V13.6791C8.01252 14.8647 7.41937 16.2042 7.10359 17.6203L7.08614 17.7062C7.06164 17.8206 6.97337 18.3939 6.95827 18.5184C6.95827 18.5281 6.95625 18.5372 6.95524 18.5469C6.84138 19.1387 6.77083 19.738 6.74414 20.3401V20.4072C6.74699 23.6642 7.97151 26.8016 10.1757 29.1993C12.3799 31.5971 15.4033 33.0808 18.6485 33.3572C21.8937 33.6335 25.1245 32.6825 27.7024 30.692C30.2803 28.7015 32.0178 25.8164 32.5713 22.6069C32.5932 22.4391 32.6109 22.2729 32.6304 22.1034C32.8983 19.8891 32.6083 17.6429 31.7867 15.5693V15.5693ZM16.7946 25.7513C16.8553 25.7805 16.9124 25.812 16.9748 25.8399L16.9839 25.8456C16.9208 25.8154 16.8577 25.784 16.7946 25.7513V25.7513ZM30.4979 16.2499V16.2375L30.5002 16.2513L30.4979 16.2499Z" fill="url(#paint0_linear)"/>
<path d="M31.7867 15.5693C31.2215 14.2093 30.075 12.741 29.1772 12.2769C29.8176 13.517 30.2619 14.8489 30.4945 16.2251V16.2375L30.4969 16.2513C31.4995 19.1203 31.3544 22.2658 30.0921 25.0304C28.6013 28.2291 24.9927 31.5078 19.3443 31.3484C13.241 31.1755 7.86611 26.6467 6.86127 20.715C6.67836 19.7796 6.86127 19.3054 6.95323 18.5452C6.82779 19.1357 6.75778 19.7366 6.74414 20.3401V20.4072C6.74699 23.6642 7.97151 26.8015 10.1757 29.1993C12.3799 31.5971 15.4033 33.0808 18.6485 33.3571C21.8937 33.6335 25.1245 32.6825 27.7024 30.692C30.2803 28.7015 32.0178 25.8164 32.5713 22.6069C32.5932 22.4391 32.6109 22.2729 32.6304 22.1034C32.8983 19.8891 32.6083 17.6429 31.7867 15.5693V15.5693Z" fill="url(#paint1_radial)"/>
<path d="M31.7867 15.5693C31.2215 14.2093 30.075 12.741 29.1772 12.2769C29.8176 13.517 30.2619 14.8489 30.4945 16.2251V16.2375L30.4969 16.2513C31.4995 19.1203 31.3544 22.2658 30.0921 25.0304C28.6013 28.2291 24.9927 31.5078 19.3443 31.3484C13.241 31.1755 7.86611 26.6467 6.86127 20.715C6.67836 19.7796 6.86127 19.3054 6.95323 18.5452C6.82779 19.1357 6.75778 19.7366 6.74414 20.3401V20.4072C6.74699 23.6642 7.97151 26.8015 10.1757 29.1993C12.3799 31.5971 15.4033 33.0808 18.6485 33.3571C21.8937 33.6335 25.1245 32.6825 27.7024 30.692C30.2803 28.7015 32.0178 25.8164 32.5713 22.6069C32.5932 22.4391 32.6109 22.2729 32.6304 22.1034C32.8983 19.8891 32.6083 17.6429 31.7867 15.5693V15.5693Z" fill="url(#paint2_radial)"/>
<path d="M25.4662 17.0984C25.4944 17.1182 25.5205 17.138 25.547 17.1578C25.2203 16.5784 24.8136 16.048 24.3388 15.5821C20.296 11.5386 23.2793 6.81473 23.7824 6.57477L23.7874 6.56738C20.5201 8.48041 19.4116 12.0219 19.3096 13.7933C19.4613 13.7828 19.6116 13.7701 19.7667 13.7701C20.926 13.7722 22.064 14.0813 23.0651 14.6659C24.0662 15.2505 24.8946 16.0898 25.4662 17.0984V17.0984Z" fill="url(#paint3_radial)"/>
<path d="M19.7747 17.9058C19.7532 18.2294 18.6101 19.3453 18.2104 19.3453C14.5116 19.3453 13.9111 21.5829 13.9111 21.5829C14.0749 23.467 15.3879 25.0189 16.975 25.8399C17.0475 25.8775 17.121 25.9114 17.1945 25.9446C17.3218 26.001 17.4491 26.0531 17.5764 26.101C18.1211 26.2938 18.6916 26.4038 19.269 26.4275C25.7521 26.7316 27.008 18.6747 22.3295 16.3368C23.4332 16.1932 24.5509 16.4646 25.4658 17.0983C24.8943 16.0897 24.0659 15.2504 23.0648 14.6658C22.0637 14.0812 20.9256 13.7721 19.7663 13.77C19.612 13.77 19.4609 13.7828 19.3092 13.7932C18.0044 13.8829 16.757 14.3637 15.7295 15.1729C15.9279 15.3407 16.1517 15.5649 16.6233 16.0297C17.5059 16.8993 19.7697 17.8001 19.7747 17.9058V17.9058Z" fill="url(#paint4_radial)"/>
<path d="M19.7747 17.9058C19.7532 18.2294 18.6101 19.3453 18.2104 19.3453C14.5116 19.3453 13.9111 21.5829 13.9111 21.5829C14.0749 23.467 15.3879 25.0189 16.975 25.8399C17.0475 25.8775 17.121 25.9114 17.1945 25.9446C17.3218 26.001 17.4491 26.0531 17.5764 26.101C18.1211 26.2938 18.6916 26.4038 19.269 26.4275C25.7521 26.7316 27.008 18.6747 22.3295 16.3368C23.4332 16.1932 24.5509 16.4646 25.4658 17.0983C24.8943 16.0897 24.0659 15.2504 23.0648 14.6658C22.0637 14.0812 20.9256 13.7721 19.7663 13.77C19.612 13.77 19.4609 13.7828 19.3092 13.7932C18.0044 13.8829 16.757 14.3637 15.7295 15.1729C15.9279 15.3407 16.1517 15.5649 16.6233 16.0297C17.5059 16.8993 19.7697 17.8001 19.7747 17.9058V17.9058Z" fill="url(#paint5_radial)"/>
<path d="M15.1227 14.7404C15.2281 14.8075 15.315 14.8659 15.3912 14.9186C15.0948 13.8812 15.0822 12.7832 15.3546 11.7393C14.1548 12.3205 13.0886 13.1445 12.2236 14.1591C12.2871 14.1574 14.1739 14.1235 15.1227 14.7404V14.7404Z" fill="url(#paint6_radial)"/>
<path d="M6.86291 20.7151C7.86674 26.6468 13.2427 31.1757 19.3459 31.3485C24.9944 31.5083 28.6029 28.2293 30.0938 25.0305C31.3561 22.2659 31.5011 19.1204 30.4985 16.2514V16.239C30.4985 16.2292 30.4965 16.2235 30.4985 16.2265L30.5009 16.2484C30.9623 19.2612 29.4299 22.1801 27.0343 24.1539L27.0269 24.1706C22.3591 27.9722 17.892 26.4642 16.9879 25.8487C16.9248 25.8185 16.8617 25.7871 16.7986 25.7544C14.077 24.4536 12.9527 21.974 13.1937 19.8475C12.5477 19.8571 11.9127 19.679 11.3658 19.335C10.8189 18.991 10.3835 18.4958 10.1124 17.9093C10.8268 17.4717 11.6414 17.2242 12.4785 17.1906C13.3156 17.157 14.1474 17.3384 14.8946 17.7174C16.435 18.4167 18.1879 18.4856 19.7785 17.9093C19.7735 17.8036 17.5097 16.9025 16.6271 16.0332C16.1555 15.5684 15.9317 15.3445 15.7333 15.1764C15.6261 15.0856 15.5141 15.0007 15.3977 14.922C15.3205 14.8693 15.2336 14.8122 15.1292 14.7438C14.1804 14.1269 12.2936 14.1608 12.2311 14.1625H12.2251C11.7096 13.509 11.7458 11.3544 11.7754 10.9043C11.6229 10.9656 11.4773 11.0429 11.3411 11.1349C10.886 11.4597 10.4605 11.8241 10.0697 12.2239C9.62282 12.6742 9.21439 13.1611 8.84876 13.6795V13.6815V13.6792C8.01248 14.8648 7.41933 16.2043 7.10355 17.6204C7.09717 17.6469 6.63502 19.6673 6.86291 20.7151V20.7151Z" fill="url(#paint7_radial)"/>
<path d="M24.3386 15.582C24.8134 16.0484 25.2202 16.5795 25.5468 17.1594C25.6183 17.2135 25.6851 17.2672 25.7418 17.3192C28.6909 20.0377 27.1457 23.8805 27.0305 24.1541C29.4262 22.1803 30.9573 19.2614 30.4972 16.2486C29.0258 12.5803 26.5318 11.1019 24.4949 7.88261C24.3919 7.71984 24.2889 7.55673 24.1885 7.38455C24.1311 7.28622 24.0852 7.19761 24.0452 7.11606C23.9607 6.95246 23.8956 6.77957 23.8512 6.60089C23.8513 6.59264 23.8483 6.58466 23.8429 6.57847C23.8374 6.57228 23.8299 6.56831 23.8217 6.56732C23.8137 6.56512 23.8052 6.56512 23.7972 6.56732C23.7955 6.56732 23.7928 6.57034 23.7908 6.57102C23.7888 6.57169 23.7844 6.57471 23.7814 6.57605C23.2783 6.81467 20.295 11.5385 24.3386 15.582V15.582Z" fill="url(#paint8_radial)"/>
<path d="M25.7403 17.3175C25.6836 17.2655 25.6168 17.2118 25.5453 17.1578C25.5188 17.138 25.4926 17.1182 25.4644 17.0984C24.5495 16.4646 23.4318 16.1933 22.3281 16.3369C27.0066 18.6761 25.7514 26.7316 19.2676 26.4276C18.6903 26.4039 18.1198 26.2938 17.5751 26.101C17.4477 26.0534 17.3204 26.0012 17.1931 25.9446C17.1196 25.9111 17.0461 25.8775 16.9736 25.8399L16.9827 25.8456C17.8869 26.4628 22.3526 27.9708 27.0217 24.1675L27.0291 24.1507C27.1456 23.8789 28.6907 20.035 25.7403 17.3175V17.3175Z" fill="url(#paint9_radial)"/>
<path d="M13.911 21.5828C13.911 21.5828 14.5114 19.3452 18.2102 19.3452C18.61 19.3452 19.7541 18.2293 19.7746 17.9058C18.184 18.482 16.4311 18.4131 14.8906 17.7138C14.1434 17.3348 13.3117 17.1534 12.4745 17.1871C11.6374 17.2207 10.8228 17.4681 10.1084 17.9058C10.3795 18.4922 10.8149 18.9874 11.3618 19.3314C11.9088 19.6755 12.5437 19.8535 13.1897 19.8439C12.9487 21.9708 14.0731 24.4503 16.7946 25.7508C16.8553 25.78 16.9124 25.8116 16.9748 25.8394C15.3863 25.0189 14.0747 23.467 13.911 21.5828Z" fill="url(#paint10_radial)"/>
<path d="M31.7867 15.5693C31.2215 14.2094 30.075 12.741 29.1772 12.2769C29.8176 13.517 30.2619 14.8489 30.4945 16.2251L30.4969 16.2469C29.0262 12.5803 26.5322 11.1019 24.4953 7.88261C24.3923 7.71984 24.2893 7.55673 24.1889 7.38455C24.1315 7.28622 24.0856 7.19762 24.0456 7.11606C23.9611 6.95246 23.896 6.77957 23.8516 6.60089C23.8517 6.59264 23.8487 6.58466 23.8433 6.57847C23.8378 6.57228 23.8303 6.56831 23.8221 6.56732C23.8141 6.56512 23.8056 6.56512 23.7976 6.56732C23.7959 6.56732 23.7932 6.57034 23.7912 6.57102C23.7892 6.57169 23.7848 6.57471 23.7818 6.57605L23.7869 6.56732C20.5196 8.48035 19.4111 12.0218 19.309 13.7932C19.4607 13.7828 19.6111 13.77 19.7661 13.77C20.9254 13.7722 22.0635 14.0812 23.0646 14.6659C24.0657 15.2505 24.8941 16.0897 25.4656 17.0984C24.5507 16.4646 23.433 16.1932 22.3293 16.3368C27.0078 18.6761 25.7526 26.7316 19.2688 26.4276C18.6914 26.4039 18.1209 26.2938 17.5762 26.101C17.4489 26.0533 17.3216 26.0012 17.1943 25.9446C17.1208 25.911 17.0473 25.8775 16.9748 25.8399L16.9839 25.8456C16.9208 25.8154 16.8577 25.784 16.7946 25.7513C16.8553 25.7805 16.9124 25.812 16.9748 25.8399C15.3863 25.019 14.0747 23.4671 13.9109 21.5829C13.9109 21.5829 14.5114 19.3453 18.2102 19.3453C18.6099 19.3453 19.7541 18.2294 19.7745 17.9059C19.7695 17.8001 17.5058 16.899 16.6231 16.0298C16.1515 15.5649 15.9277 15.3411 15.7293 15.1729C15.6221 15.0821 15.5101 14.9972 15.3937 14.9185C15.0973 13.8811 15.0847 12.7832 15.3571 11.7392C14.1573 12.3205 13.0911 13.1445 12.2261 14.159H12.2201C11.7046 13.5056 11.7408 11.3509 11.7704 10.9008C11.6179 10.9621 11.4723 11.0394 11.3361 11.1314C10.881 11.4562 10.4556 11.8207 10.0648 12.2205C9.61942 12.672 9.21268 13.16 8.84881 13.6794V13.6814V13.6791C8.01252 14.8647 7.41937 16.2042 7.10359 17.6203L7.08614 17.7062C7.06164 17.8206 6.95189 18.4019 6.93611 18.5268C6.93611 18.5362 6.93611 18.517 6.93611 18.5268C6.83573 19.1268 6.77163 19.7324 6.74414 20.3401V20.4072C6.74699 23.6642 7.97151 26.8016 10.1757 29.1993C12.3799 31.5971 15.4033 33.0808 18.6485 33.3572C21.8937 33.6335 25.1245 32.6825 27.7024 30.692C30.2803 28.7015 32.0178 25.8164 32.5713 22.6069C32.5932 22.4391 32.6109 22.2729 32.6304 22.1034C32.8983 19.8891 32.6083 17.6429 31.7867 15.5693V15.5693ZM30.4962 16.2375L30.4986 16.2513L30.4962 16.2375Z" fill="url(#paint11_linear)"/>
<defs>
<linearGradient id="paint0_linear" x1="30.0649" y1="10.7236" x2="8.47157" y2="31.5572" gradientUnits="userSpaceOnUse">
<stop offset="0.048" stop-color="#FFF44F"/>
<stop offset="0.111" stop-color="#FFE847"/>
<stop offset="0.225" stop-color="#FFC830"/>
<stop offset="0.368" stop-color="#FF980E"/>
<stop offset="0.401" stop-color="#FF8B16"/>
<stop offset="0.462" stop-color="#FF672A"/>
<stop offset="0.534" stop-color="#FF3647"/>
<stop offset="0.705" stop-color="#E31587"/>
</linearGradient>
<radialGradient id="paint1_radial" cx="0" cy="0" r="1" gradientUnits="userSpaceOnUse" gradientTransform="translate(29.0671 9.54421) scale(27.117)">
<stop offset="0.129" stop-color="#FFBD4F"/>
<stop offset="0.186" stop-color="#FFAC31"/>
<stop offset="0.247" stop-color="#FF9D17"/>
<stop offset="0.283" stop-color="#FF980E"/>
<stop offset="0.403" stop-color="#FF563B"/>
<stop offset="0.467" stop-color="#FF3750"/>
<stop offset="0.71" stop-color="#F5156C"/>
<stop offset="0.782" stop-color="#EB0878"/>
<stop offset="0.86" stop-color="#E50080"/>
</radialGradient>
<radialGradient id="paint2_radial" cx="0" cy="0" r="1" gradientUnits="userSpaceOnUse" gradientTransform="translate(19.1584 20.6304) scale(27.117)">
<stop offset="0.3" stop-color="#960E18"/>
<stop offset="0.351" stop-color="#B11927" stop-opacity="0.74"/>
<stop offset="0.435" stop-color="#DB293D" stop-opacity="0.343"/>
<stop offset="0.497" stop-color="#F5334B" stop-opacity="0.094"/>
<stop offset="0.53" stop-color="#FF3750" stop-opacity="0"/>
</radialGradient>
<radialGradient id="paint3_radial" cx="0" cy="0" r="1" gradientUnits="userSpaceOnUse" gradientTransform="translate(22.4281 3.39041) scale(19.6451)">
<stop offset="0.132" stop-color="#FFF44F"/>
<stop offset="0.252" stop-color="#FFDC3E"/>
<stop offset="0.506" stop-color="#FF9D12"/>
<stop offset="0.526" stop-color="#FF980E"/>
</radialGradient>
<radialGradient id="paint4_radial" cx="0" cy="0" r="1" gradientUnits="userSpaceOnUse" gradientTransform="translate(16.1591 27.7135) scale(12.9116)">
<stop offset="0.353" stop-color="#3A8EE6"/>
<stop offset="0.472" stop-color="#5C79F0"/>
<stop offset="0.669" stop-color="#9059FF"/>
<stop offset="1" stop-color="#C139E6"/>
</radialGradient>
<radialGradient id="paint5_radial" cx="0" cy="0" r="1" gradientUnits="userSpaceOnUse" gradientTransform="translate(20.6403 18.4081) rotate(-13.5916) scale(6.84564 8.01454)">
<stop offset="0.206" stop-color="#9059FF" stop-opacity="0"/>
<stop offset="0.278" stop-color="#8C4FF3" stop-opacity="0.064"/>
<stop offset="0.747" stop-color="#7716A8" stop-opacity="0.45"/>
<stop offset="0.975" stop-color="#6E008B" stop-opacity="0.6"/>
</radialGradient>
<radialGradient id="paint6_radial" cx="0" cy="0" r="1" gradientUnits="userSpaceOnUse" gradientTransform="translate(18.8159 8.43482) scale(9.28858)">
<stop stop-color="#FFE226"/>
<stop offset="0.121" stop-color="#FFDB27"/>
<stop offset="0.295" stop-color="#FFC82A"/>
<stop offset="0.502" stop-color="#FFA930"/>
<stop offset="0.732" stop-color="#FF7E37"/>
<stop offset="0.792" stop-color="#FF7139"/>
</radialGradient>
<radialGradient id="paint7_radial" cx="0" cy="0" r="1" gradientUnits="userSpaceOnUse" gradientTransform="translate(26.117 2.54323) scale(39.6302)">
<stop offset="0.113" stop-color="#FFF44F"/>
<stop offset="0.456" stop-color="#FF980E"/>
<stop offset="0.622" stop-color="#FF5634"/>
<stop offset="0.716" stop-color="#FF3647"/>
<stop offset="0.904" stop-color="#E31587"/>
</radialGradient>
<radialGradient id="paint8_radial" cx="0" cy="0" r="1" gradientUnits="userSpaceOnUse" gradientTransform="translate(22.7765 4.74676) rotate(83.976) scale(29.0459 19.0626)">
<stop stop-color="#FFF44F"/>
<stop offset="0.06" stop-color="#FFE847"/>
<stop offset="0.168" stop-color="#FFC830"/>
<stop offset="0.304" stop-color="#FF980E"/>
<stop offset="0.356" stop-color="#FF8B16"/>
<stop offset="0.455" stop-color="#FF672A"/>
<stop offset="0.57" stop-color="#FF3647"/>
<stop offset="0.737" stop-color="#E31587"/>
</radialGradient>
<radialGradient id="paint9_radial" cx="0" cy="0" r="1" gradientUnits="userSpaceOnUse" gradientTransform="translate(18.5974 11.8752) scale(24.7418)">
<stop offset="0.137" stop-color="#FFF44F"/>
<stop offset="0.48" stop-color="#FF980E"/>
<stop offset="0.592" stop-color="#FF5634"/>
<stop offset="0.655" stop-color="#FF3647"/>
<stop offset="0.904" stop-color="#E31587"/>
</radialGradient>
<radialGradient id="paint10_radial" cx="0" cy="0" r="1" gradientUnits="userSpaceOnUse" gradientTransform="translate(25.1284 13.3231) scale(27.0797)">
<stop offset="0.094" stop-color="#FFF44F"/>
<stop offset="0.231" stop-color="#FFE141"/>
<stop offset="0.509" stop-color="#FFAF1E"/>
<stop offset="0.626" stop-color="#FF980E"/>
</radialGradient>
<linearGradient id="paint11_linear" x1="29.8055" y1="10.6122" x2="11.4317" y2="28.9856" gradientUnits="userSpaceOnUse">
<stop offset="0.167" stop-color="#FFF44F" stop-opacity="0.8"/>
<stop offset="0.266" stop-color="#FFF44F" stop-opacity="0.634"/>
<stop offset="0.489" stop-color="#FFF44F" stop-opacity="0.217"/>
<stop offset="0.6" stop-color="#FFF44F" stop-opacity="0"/>
</linearGradient>
</defs>
</svg>
