<svg width="40" height="40" viewBox="0 0 40 40" fill="none" xmlns="http://www.w3.org/2000/svg">
<path d="M27.2875 19.8407C27.256 16.3422 30.152 14.6402 30.2845 14.561C28.6443 12.1697 26.1022 11.843 25.2088 11.8169C23.0737 11.5922 21.0026 13.0945 19.915 13.0945C18.8057 13.0945 17.1308 11.8386 15.3256 11.8755C13.0027 11.9113 10.8296 13.2562 9.63779 15.3447C7.17812 19.603 9.01256 25.8607 11.3691 29.3027C12.5479 30.9884 13.9254 32.8706 15.7284 32.8044C17.4922 32.7317 18.1511 31.6799 20.2797 31.6799C22.3888 31.6799 23.0075 32.8044 24.8463 32.7621C26.7393 32.7317 27.9312 31.0688 29.0688 29.3678C30.431 27.4357 30.9781 25.5329 30.9998 25.4352C30.9553 25.42 27.3233 24.0339 27.2875 19.8407Z" fill="white"/>
<path d="M23.8113 9.55213C24.76 8.36571 25.4091 6.75162 25.2289 5.11365C23.8558 5.17443 22.1386 6.06343 21.1497 7.2238C20.2748 8.24631 19.4933 9.92227 19.6952 11.4984C21.2377 11.6134 22.8214 10.7201 23.8113 9.55213Z" fill="white"/>
</svg>
