<svg width="40" height="40" viewBox="0 0 40 40" fill="none" xmlns="http://www.w3.org/2000/svg">
<path d="M16.29 22.0625C16.29 22.5919 16.3667 23.0731 16.5233 23.5063C16.69 23.9325 16.9067 24.3141 17.1833 24.6475C17.46 24.9809 17.7833 25.2663 18.1633 25.5069C18.53 25.7475 18.93 25.9469 19.3567 26.1016C19.78 26.2597 20.2233 26.3766 20.6733 26.4522C21.13 26.5278 21.5733 26.5656 22.0233 26.5656C22.59 26.5656 23.1167 26.5209 23.6167 26.4281C24.1167 26.3319 24.6033 26.2047 25.0833 26.0431C25.5633 25.8816 26.0267 25.6891 26.49 25.4691C26.9567 25.2491 27.43 25.0084 27.9167 24.7403V29.4016C27.3733 29.6766 26.84 29.9069 26.3067 30.1063C25.7733 30.2988 25.24 30.4672 24.6967 30.6013C24.1533 30.7388 23.6033 30.8419 23.04 30.9038C22.4767 30.9656 21.9 31 21.3 31C20.5 31 19.7267 30.9037 18.9833 30.7147C18.24 30.5256 17.5433 30.2541 16.89 29.8966C16.2367 29.5391 15.64 29.1059 15.0967 28.5972C14.55 28.0884 14.0867 27.5144 13.6967 26.8784C13.3067 26.2425 13.0067 25.5447 12.79 24.7953C12.58 24.0459 12.4733 23.2484 12.4733 22.4028C12.4733 21.4988 12.5933 20.6394 12.8333 19.8178C13.0767 18.9928 13.42 18.2434 13.8733 17.5559C14.3233 16.8684 14.8733 16.2566 15.5233 15.7237C16.1733 15.1909 16.9033 14.7544 17.7167 14.4175C17.2733 14.8747 16.9267 15.4144 16.6833 16.0434C16.4333 16.6691 16.2767 17.2981 16.2067 17.9272H23.8C23.8 17.1366 23.7233 16.4491 23.5667 15.8578C23.41 15.2666 23.16 14.775 22.81 14.3866C22.4633 13.9947 22.0167 13.6991 21.4667 13.5066C20.9167 13.3106 20.2533 13.2109 19.4767 13.2109C18.56 13.2109 17.6433 13.3484 16.7267 13.6337C15.81 13.9087 14.94 14.3041 14.1133 14.8025C13.2867 15.3078 12.5267 15.9025 11.8333 16.5831C11.14 17.2706 10.5567 18.0097 10.0833 18.8106C10.1833 17.8825 10.3833 16.9888 10.66 16.1397C10.9367 15.2906 11.3033 14.5 11.7433 13.7678C12.1833 13.0459 12.7 12.3859 13.29 11.7947C13.88 11.2034 14.5333 10.6947 15.2567 10.2822C15.98 9.86969 16.7467 9.53625 17.58 9.31281C18.4133 9.11688 19.3 9 20.2333 9C20.78 9 21.3233 9.05156 21.8667 9.15125C22.41 9.25438 22.94 9.39187 23.4567 9.57062C24.4833 9.935 25.4 10.4437 26.2067 11.09C27.0133 11.7431 27.69 12.4856 28.24 13.3347C28.79 14.1837 29.2067 15.1222 29.4933 16.1431C29.78 17.1641 29.9267 18.2262 29.9267 19.3297V22.0625H16.29V22.0625Z" fill="#0078D7"/>
</svg>
