<svg width="40" height="40" viewBox="0 0 40 40" fill="none" xmlns="http://www.w3.org/2000/svg">
<path d="M24.8572 23.3886C27.4424 21.9583 29.4194 20.8685 29.5883 20.7834C30.129 20.4939 30.6866 19.7277 29.5883 19.1317C29.2335 18.9444 27.3241 17.8887 24.8572 16.5265L21.4609 19.9661L24.8572 23.3886Z" fill="#FFD400"/>
<path d="M21.461 19.9661L10.6133 30.9829C10.8667 31.017 11.154 30.9489 11.4919 30.7616C12.2016 30.3699 19.7376 26.2152 24.8573 23.3886L21.461 19.9661Z" fill="#FF3333"/>
<path d="M21.4604 19.966L24.8566 16.5264C24.8566 16.5264 12.2516 9.59619 11.4912 9.18753C11.204 9.01725 10.8829 8.96617 10.5957 9.01725L21.4604 19.966Z" fill="#48FF48"/>
<path d="M21.4609 19.9661L10.5962 9.01733C10.1569 9.1195 9.78516 9.51114 9.78516 10.3114C9.78516 11.5885 9.78516 28.6161 9.78516 29.6889C9.78516 30.4211 10.0724 30.9489 10.6131 31L21.4609 19.9661Z" fill="#3BCCFF"/>
</svg>
