<svg width="80" height="80" viewBox="0 0 80 80" fill="none" xmlns="http://www.w3.org/2000/svg">
<circle cx="40" cy="40" r="40" fill="#FD8235"/>
<path d="M40 24C35.0619 24 31.0588 27.8961 31.0588 32.7023V45.0687C31.0588 46.2071 30.1108 47.1298 28.9412 47.1298C27.7716 47.1298 26.8235 46.2071 26.8235 45.0687V39.5725H20V45.2977C20 50.1039 24.0031 54 28.9412 54C33.8793 54 37.8824 50.1039 37.8824 45.2977V32.7023C37.8824 31.5639 38.8304 30.6412 40 30.6412C41.1696 30.6412 42.1176 31.5639 42.1176 32.7023V35.2214L44.9412 36.4809L48.9412 35.2214V32.7023C48.9412 27.8961 44.9381 24 40 24ZM42.1176 39.687V45.2977C42.1176 50.1039 46.1207 54 51.0588 54C55.9969 54 60 50.1039 60 45.2977V39.8015H53.1765V45.2977C53.1765 46.4361 52.2285 47.3588 51.0588 47.3588C49.8892 47.3588 48.9412 46.4361 48.9412 45.2977V39.687L44.9412 40.9466L42.1176 39.687Z" fill="white"/>
</svg>
