<svg width="64" height="64" xmlns="http://www.w3.org/2000/svg"><path d="M41.081 39.507v-2h-1.333v2h-2v1.333h2v2h1.333v-2h2v-1.333h-2zm-8.27 3.16H17.6c.337-5.607 7.634-4.79 8.715-7.7.09-.994.057-1.688.057-2.597-.452-.237-1.292-1.745-1.428-3.018-.354-.029-.912-.374-1.076-1.739-.088-.733.263-1.145.476-1.275-1.198-4.61-.54-8.637 4.926-8.738 1.366 0 2.418.365 2.828 1.086 3.989.555 2.792 5.919 2.215 7.653.214.13.564.542.476 1.275-.164 1.364-.722 1.71-1.077 1.74-.136 1.272-.943 2.78-1.394 3.016 0 .909-.035 1.603.055 2.599.113.303.603.914 1.034 1.343a7.964 7.964 0 0 0-.992 3.861c0 .871.139 1.71.396 2.494zm7.604 4.173a6.667 6.667 0 1 1 0-13.333 6.667 6.667 0 0 1 0 13.333z" fill="#0088F7" fill-rule="evenodd"/></svg>