<svg width="64" height="64" xmlns="http://www.w3.org/2000/svg"><path d="M18.74 29.739V33.998l.44.16 24.445 8.847.894.323V21.251l-.865.268-24.444 7.583-.47.146v.49zm24.445 12.634c0 1.092.984 1.93 2.148 1.93 1.165 0 2.148-.838 2.148-1.93v-20.22c0-1.092-.983-1.93-2.148-1.93-1.164 0-2.148.838-2.148 1.93v20.22zM16.52 33.526c0 1.048.775 1.93 1.777 1.93 1.002 0 1.778-.882 1.778-1.93v-3.791c0-1.049-.776-1.93-1.778-1.93s-1.777.881-1.777 1.93v3.79zm15.066 4.572l-.52 1.59c-.258.792-1.081 1.213-1.843.953l-2.559-.875c-.767-.262-1.185-1.122-.925-1.92l.52-1.458-1.256-.448-.526 1.475c-.49 1.504.293 3.112 1.756 3.613l2.56.875c1.47.502 3.055-.308 3.54-1.802l.52-1.589-1.267-.414z" fill="#0088F7" fill-rule="nonzero"/></svg>