<svg width="64" height="64" xmlns="http://www.w3.org/2000/svg"><path d="M45.333 41.099c0 1.502-1.197 2.72-2.654 2.72H21.32c-1.466 0-2.654-1.22-2.654-2.72V29.867c0-.553.388-.77.858-.489l10.82 6.455c.948.566 2.362.565 3.31 0l10.82-6.455c.474-.283.858-.062.858.489v11.232zm0-16.38v.785c0 .545-.381 1.221-.852 1.502l-11.834 7.06c-.325.194-.97.194-1.294 0l-11.834-7.06c-.473-.282-.852-.953-.852-1.502v-.785c0-1.502 1.197-2.719 2.654-2.719H42.68c1.466 0 2.654 1.22 2.654 2.72z" fill="#0088F7" fill-rule="evenodd"/></svg>