<svg width="64" height="64" xmlns="http://www.w3.org/2000/svg"><path d="M46.5 29.165l-8.465 8.533c-.21.211-.457.317-.744.317s-.535-.106-.744-.317a1.03 1.03 0 0 1-.314-.75v-4.267h-3.704c-1.08 0-2.047.034-2.902.1a20.8 20.8 0 0 0-2.546.359c-.843.172-1.576.408-2.2.708a7.76 7.76 0 0 0-1.743 1.158 5.796 5.796 0 0 0-1.323 1.684c-.342.65-.61 1.42-.802 2.308-.193.889-.29 1.895-.29 3.017 0 .61.028 1.294.083 2.05 0 .066.014.197.042.391.027.195.04.342.04.442a.624.624 0 0 1-.14.417.48.48 0 0 1-.388.166c-.177 0-.33-.094-.463-.283a1.882 1.882 0 0 1-.215-.367 32.96 32.96 0 0 1-.397-.9c-1.4-3.166-2.1-5.672-2.1-7.516 0-2.211.292-4.061.877-5.55 1.785-4.478 6.608-6.717 14.467-6.717h3.704v-4.267c0-.288.105-.538.314-.75.21-.21.457-.316.744-.316s.535.105.744.316l8.466 8.534c.21.21.314.46.314.75 0 0-.105.539-.314.75z" fill="#0088F7" fill-rule="evenodd"/></svg>