<svg width="62" height="62" xmlns="http://www.w3.org/2000/svg"><g fill="#0085FB" fill-rule="nonzero"><path d="M21.695 19.992v1.364c0 .125.101.226.229.226h18.152c.128 0 .229-.101.229-.226v-1.364a.226.226 0 0 0-.229-.226H21.924c-.128 0-.229.1-.229.226zm-1.362 0c0-.877.71-1.588 1.59-1.588h18.153c.879 0 1.59.71 1.59 1.588v1.364c0 .877-.71 1.587-1.59 1.587H21.924c-.879 0-1.59-.709-1.59-1.587v-1.364z"/><path d="M21.695 16.588v1.363c0 .125.101.226.229.226h18.152c.128 0 .229-.1.229-.226v-1.363a.226.226 0 0 0-.229-.226H21.924c-.128 0-.229.1-.229.226zm-1.362 0c0-.877.71-1.588 1.59-1.588h18.153c.879 0 1.59.71 1.59 1.588v1.363c0 .877-.71 1.588-1.59 1.588H21.924c-.879 0-1.59-.71-1.59-1.588v-1.363zM20.333 24.987a3.406 3.406 0 0 1 3.404-3.405h14.526a3.405 3.405 0 0 1 3.404 3.405v19.289a3.406 3.406 0 0 1-3.404 3.405H23.737a3.405 3.405 0 0 1-3.404-3.405v-19.29zm10.068 2.095v1.191c-.817.283-1.43.683-1.842 1.2-.41.517-.616 1.15-.616 1.9 0 .755.208 1.374.625 1.858.41.489 1.013.905 1.808 1.25.61.26 1.038.502 1.283.724.244.223.367.509.367.859 0 .41-.15.751-.45 1.02-.3.27-.675.405-1.125.405-.806 0-1.639-.409-2.5-1.225v2.616c.928.444 1.744.675 2.45.692v1.091h1.5V39.43c.944-.256 1.65-.707 2.116-1.354.467-.647.7-1.365.7-2.154a2.93 2.93 0 0 0-.338-1.4 2.867 2.867 0 0 0-.837-.995c-.333-.242-.797-.493-1.391-.755-.662-.294-1.084-.538-1.267-.733a.922.922 0 0 1-.283-.675c0-.35.134-.625.404-.825.27-.2.562-.3.879-.3.666 0 1.37.362 2.108 1.084V28.78c-.706-.377-1.403-.586-2.091-.625v-1.074h-1.5z"/></g></svg>