<?xml version="1.0" ?><svg enable-background="new 0 0 24 24" height="100%" version="1.1" viewBox="0 0 24 24" width="100%" xml:space="preserve" xmlns="http://www.w3.org/2000/svg" xmlns:xlink="http://www.w3.org/1999/xlink"><g><path d="M20.428,3.572C19.414,2.559,18.066,2,16.633,2s-2.782,0.559-3.796,1.572l-1.544,1.544c-0.391,0.391-0.391,1.023,0,1.414   s1.023,0.391,1.414,0l1.544-1.544c1.273-1.271,3.491-1.271,4.763,0C19.649,5.623,20,6.468,20,7.367   c0,0.899-0.351,1.745-0.986,2.381l-3.089,3.088c-1.271,1.272-3.489,1.271-4.762,0c-0.391-0.391-1.023-0.391-1.414,0   s-0.391,1.023,0,1.414c1.014,1.014,2.361,1.572,3.795,1.572s2.781-0.559,3.795-1.572l3.089-3.088C21.441,10.149,22,8.801,22,7.367   C22,5.934,21.441,4.586,20.428,3.572z"/><path d="M11.293,17.47l-1.544,1.544c-1.272,1.271-3.49,1.271-4.763,0c-1.313-1.313-1.313-3.449,0-4.763l3.088-3.088   c1.313-1.313,3.449-1.313,4.762,0c0.391,0.391,1.023,0.391,1.414,0s0.391-1.023,0-1.414c-2.091-2.093-5.497-2.092-7.59,0   l-3.088,3.088c-2.092,2.093-2.092,5.498,0,7.591C4.586,21.441,5.934,22,7.368,22c1.434,0,2.781-0.559,3.795-1.572l1.544-1.544   c0.391-0.391,0.391-1.023,0-1.414S11.684,17.079,11.293,17.47z"/></g></svg>
