<svg version="1.1" id="Layer_1" xmlns="http://www.w3.org/2000/svg" x="0" y="0" viewBox="0 0 471 57.7" xml:space="preserve"><style>.st0{fill:#5c8cb1}.st1{fill:#7eadca}.st2{fill:#b9d0e1}.st16{fill:#68a2d2}.st17{fill:#0097c7}</style><path class="st0" d="M279 45.2c.1-.4.2-.9.2-1.3 0-.8-.1-1.7-.5-2.4-1-2.1-3.6-3-6.2-3.9-1-.3-2.1-.7-3-1.2-.6-3.2-1-6.4-1.3-9.6.7 0 1.2 0 1.7-.2 1.3 0 2.4-.2 3-1.2.7-1.4 1.1-2.9 1.1-4.4 0-.8-.4-1.5-1-2l-3-1.8c1.5-1.9 2.4-4.3 2.4-6.7 0-5.8-4.7-10.5-10.5-10.5s-10.5 4.7-10.5 10.5c0 2.4.8 4.8 2.3 6.7l-3 1.8c-.6.5-1 1.2-1 2 .1 1.5.5 3 1.2 4.4.6 1 1.7 1 3 1.2l1.6.2c-.2 3.2-.6 6.4-1.2 9.5-.9.6-1.9 1-3 1.3-2.6.9-5.2 1.8-6.2 4-.4.7-.6 1.4-.6 2.2 0 .4.1.9.2 1.3-1.4.9-2.2 2.5-2.2 4.2 0 1.6.7 3.2 1.9 4.3 1.8 1.3 3.8 2.2 6 2.7a52.5 52.5 0 0023 0c2.2-.5 4.2-1.4 6-2.7 1.2-1.1 1.9-2.7 1.9-4.3 0-1.6-.8-3.2-2.3-4.1z"/><path class="st1" d="M259 50.4c-2.5-.3-10.3-1.5-12.2-4.4-.7.3-1.3.8-1.8 1.4 0 3 9.6 4.3 14 3.8 1.4-.2.7-.7 0-.8zm3-22.5l-4.5-1.7c-.3 3.6-.8 7.2-1.5 10.8-.7 2.3-8 2.6-9.3 5.4-.6 1.2 2.2 3 8.9 3 6.3 0 6.9-8.5 8-15.1.2-1.3-1-2.2-1.7-2.4h.1zm3.1-7.3c-1.2-1.1-2.5-2.1-3.9-3 3.9-1 6.6-4.6 6.6-8.6 0-5.3-3.3-7-5.7-7h-.3c-4.7.1-8.6 3.9-8.5 8.7 0 2.7 1.4 5.3 3.6 6.9l-5.1 3c-.1.1-.2.2-.2.4.1 1.2.4 2.4 1 3.4 0 .3 3.8.6 8.7.7h3.2c.5 0 .9-3.3 1-4 0-.2-.2-.4-.4-.5z"/><path class="st2" d="M260.5 4c3.7.6-1.7 5-3.5 4.7s0-5.2 3.5-4.7z"/><path d="M234 44.8c.1-.4.1-.9 0-1.3 0-.8-.2-1.6-.5-2.3-1-2-3.5-3-6-3.8-1-.3-2.1-.7-3-1.2-.6-3.1-1-6.2-1.2-9.4l1.6-.1c1.3-.2 2.3-.3 3-1.3.7-1.3 1-2.8 1-4.3 0-.8-.4-1.5-1-2l-3-1.7c1.5-1.9 2.4-4.2 2.4-6.6 0-5.7-4.6-10.3-10.3-10.3s-10.3 4.6-10.3 10.3c0 2.4.9 4.7 2.4 6.6l-3 1.7c-.6.5-1 1.2-1 2 0 1.5.3 3 1 4.3.7 1 1.7 1 3 1.2l1.6.1c-.2 3.2-.6 6.3-1.2 9.4-.9.6-1.9 1-3 1.3-2.5.8-5 1.7-6 3.8-.4.7-.6 1.5-.6 2.3 0 .4.1.9.2 1.3-1.3.9-2.1 2.4-2.1 4s.6 3.2 1.8 4.3c1.8 1.3 3.8 2.2 5.9 2.7 7.4 1.7 15.2 1.7 22.6 0 2.2-.5 4.2-1.4 6-2.7 1.1-1.1 1.7-2.6 1.7-4.1 0-1.6-.7-3.1-2-4.1v-.1z" fill="#537c38"/><path d="M214.2 50c-2.4-.3-10-1.5-12-4.3-.7.3-1.2.7-1.7 1.3 0 2.9 9.4 4.3 13.7 3.7 1.4-.1.7-.6 0-.7zm2.8-22.1l-4.2-1.7c-.3 3.6-.8 7.2-1.5 10.7-.7 2.2-7.9 2.5-9 5.2-.7 1.2 2 3 8.6 3 6.2 0 6.7-8.3 7.9-14.9.2-1.2-1.1-2-1.7-2.3h-.1zm3.3-7.2c-1.2-1.1-2.5-2.1-3.9-3 3.8-1 6.5-4.4 6.5-8.4 0-5.1-3.3-6.8-5.6-6.9h-.3c-4.6-.1-8.5 3.6-8.6 8.2-.1 2.9 1.4 5.6 3.8 7.2-1.2.7-4.3 2.4-5 3-.1.1-.2.2-.2.4 0 1.2.3 2.3.9 3.4.1.2 3.8.5 8.6.6h3.1c.5 0 1-3.2 1-3.9 0-.2-.1-.5-.3-.6z" fill="#6c9d40"/><path d="M215.7 4.5c3.7.5-1.7 4.8-3.4 4.6s0-5.2 3.4-4.6z" fill="#c5d4a1"/><path d="M315.8.7c-15.6 0-28.2 12.6-28.2 28.2s12.6 28.2 28.2 28.2S344 44.5 344 28.9v-.1C343.9 13.3 331.3.7 315.8.7zm-20.2 28.1c0-11.2 9-20.2 20.2-20.3 4.1 0 8.1 1.3 11.4 3.6l-28 28.1c-2.3-3.3-3.6-7.3-3.6-11.4zM315.8 49c-4.1 0-8-1.2-11.4-3.5l28.1-28.1c2.3 3.4 3.5 7.3 3.5 11.4C336 40 327 49 315.8 49z" fill="#b33430"/><path d="M399.1 8.7c-11-11.3-29-11.6-40.3-.6-11.3 11-11.6 29-.6 40.3l.6.6c11.3 11 29.3 10.7 40.3-.6 10.7-11.1 10.7-28.6 0-39.7zm-13.8 20.6l7.1 7.2c.5.6.5 1.4 0 2l-4 4.1c-.6.6-1.5.6-2.1 0l-7.2-7c-.1-.1-.4-.1-.5 0l-7 7c-.6.6-1.5.6-2.1.1l-.1-.1-4-4c-.6-.6-.6-1.5 0-2.1l7-7.1c.2-.1.2-.4 0-.6l-7.4-7.4c-.5-.6-.5-1.4 0-2l4.1-4.1c.6-.5 1.4-.5 2 0l7.5 7.4c.1.1.4.1.5 0l7.4-7.4c.6-.6 1.5-.6 2.1 0l4.1 4c.6.6.6 1.5 0 2.1l-7.4 7.4c-.2.1-.2.4 0 .5v.1-.1z" fill="#b5332b"/><path d="M462.6 8.7c-11-11.3-29-11.6-40.3-.6-11.3 11-11.6 29-.6 40.3l.6.6c11.3 11 29.3 10.7 40.3-.6 10.7-11.1 10.7-28.6 0-39.7zm-13.8 20.6l7.1 7.2c.5.6.5 1.4 0 2l-4 4.1c-.6.6-1.5.6-2.1 0l-7.2-7c-.1-.1-.4-.1-.5 0l-7.1 7c-.6.5-1.4.5-2 0l-4.2-4c-.6-.6-.6-1.5 0-2.1l7.1-7.1c.2-.1.2-.4 0-.6l-7.4-7.4c-.5-.6-.5-1.4 0-2l4.1-4.2c.6-.6 1.5-.6 2.1 0l7.4 7.5c.1.1.4.1.5 0l7.4-7.5c.6-.6 1.5-.6 2.1 0l4.1 4.1c.6.6.6 1.5 0 2.1l-7.4 7.4c-.2.1-.2.4 0 .5v.1-.1z" fill="#bfbeba"/><path class="st0" d="M75.5 37.6l-3.8-5.8 8-30.3s1.2-3.2 2.2.2L87.3 18h13.2l3.8-14.3s1.1-7.7 3.2-.3l8.6 29.4-4 4.8H75.5z"/><path d="M93.7 55.5c-17 0-21.2-10.1-21.8-11.6L67.3 9.3 76.2 26c.1.2.2.4.4.6l4 4.4c.3.4.8.6 1.3.6h.4c.7-.2 1.2-.7 1.4-1.3L93.7 7l10 23.3c.2.6.8 1.1 1.4 1.2h.4c.5 0 1-.2 1.4-.6l3.9-4.3c.2-.2.3-.4.4-.6l9.3-17.9-5 35.7c-.5 1.4-4.5 11.5-21.6 11.6l-.2.1z" fill="#80a6c5"/><path class="st2" d="M66.6 6c-.1.3-.2.7-.2 1l5 37.3c0 .3 4 12 22.3 12v1.3l.2-1.3c18.5 0 22.2-12 22.2-12.2L121.3 7c.1-.3.1-.6-.1-.9-.3 0-.6 0-1 .9l-9.8 19.2-5.3 5.8L93.8 5.6l-.1-.3v.2L82.2 32l-5.5-6.2-10-19.6c-.1-.1-.1-.2-.2-.3l.1.1z"/><path d="M109.5 25.3l-4 4.3L95 5c-.1-.2-.1-.3-.2-.5l-.2-.2c-.1-.4-.5-.7-.9-.7-.4.1-.7.3-.9.7 0 .1-.1.1-.1.2-.1.2-.2.3-.3.5L82 29.6l-4-4.3-10.6-16c1.8 10 8.6 40.4 15 45 3.7.6 7.4.9 11.2 1h.3c3.8-.1 7.5-.4 11.2-1 6.4-4.6 13.1-35 15-45l-10.6 16z" fill="#e4e8ec"/><path d="M104.9 29.7L95 5.9c-1.4-3.6-2.6 0-2.6 0l-9.9 23.8v.7c0 11.7 2 20 5.2 25.8 2 .3 4.1.5 6.2.5 1.9 0 3.9-.2 5.8-.5 3.8-8 5.6-16.9 5.2-25.8v-.7z" opacity=".5" fill="#fff"/><path class="st1" d="M93.7 7.7l9.7 22.8 1.4 3.2 2.4-2.6 3.9-4.3.2-.2.1-.3L120 9.5 115.2 44c-.5 1.3-4.5 11.3-21.3 11.4h-.2c-16.7 0-20.9-10-21.4-11.4l-4.5-33.4L76 26.3l.2.3.2.2 4 4.3 2.3 2.6 1.4-3.2 9.6-22.8m.1-4.2C93 3.5 92.5 5 92.5 5L81.9 29.6l-4-4.3-10-19.7c-.5-1-1-1.4-1.4-1.4-.9 0-1.5 2-1.3 3L70 44.5s4 13.2 23.6 13.2h.2c19.7-.1 23.4-13.2 23.4-13.2l5.3-37.3c.3-1-.3-2.1-1.3-2.3-.1 0-.2 0-.3-.1-.7 0-1.4.5-2 1.7l-9.6 18.9-4 4.3L95 5.1c-.5-1.2-1-1.6-1.2-1.6z"/><path d="M72.6 37.6s3.7 6.7 21.3 6.7 21-6.7 21-6.7" fill="none" stroke="#b9d0e1" stroke-width="3.3" stroke-linecap="round" stroke-miterlimit="10"/><path d="M29.7 1.7c-.5 0-.9.3-1 .7l-7 18.1-19.4 1c-.5 0-.9.3-1 .8-.2.4-.1.9.3 1.2l15.2 12.3-5 18.8c-.1.4.1.8.4 1.1.4.3.8.3 1.2 0l16.3-10.5L46 55.7c.4.4 1 .3 1.4-.1.2-.3.3-.7.2-1l-5-18.8 15.1-12.3c.5-.2.8-.8.5-1.3-.2-.4-.7-.7-1.1-.6l-19.4-1-7-18.1c-.1-.5-.5-.8-1-.8z" fill="#fcd157"/><path d="M33.2 11.2L29.7 2l-7.4 19.2-20.6 1.1 16 13-5.3 20 .4-.2c24.9-23 20.4-44 20.4-43.9z" fill="#fbe28b"/><path d="M29.7 2.7c0-.1 0-.1.1-.1s.1 0 .1.1l6.7 17.4.5 1.4h1.4l18.6 1c.1 0 .1.1.1.2v.1L42.7 34.5l-1.1 1 .4 1.3 4.8 18v.2h-.3L31 44.9l-1.2-.8-1.2.8-15.6 10h-.2v-.1l4.8-18 .3-1.4-1-1L2.2 22.9c-.1 0-.1 0-.1-.1s0-.1.1-.1h.1l18.6-1 1.4-.1.5-1.4 6.7-17.3.1-.1m0-2.2c-.9 0-1.7.6-2.1 1.4l-6.7 17.3-18.6 1C.9 20.5 0 21.7.2 23c.1.6.4 1.1.8 1.5l14.4 11.8-4.8 18c-.2 1.3.6 2.6 1.9 2.8.6.1 1.2 0 1.7-.3l15.6-10.1 15.6 10.1c1.1.7 2.6.4 3.3-.8.3-.5.4-1.2.3-1.8l-4.8-18 14.4-11.7c1-.9 1.1-2.4.2-3.4-.4-.5-.9-.7-1.5-.8l-18.6-1L31.9 2c-.4-.9-1.2-1.5-2.2-1.5l-.1.1z" fill="#f7c045"/><g id="Layer_1_1_"><path class="st16" d="M159.6 57.3c-.7 0-1.3-.4-1.6-.9l-28.5-37.2c-.3-.4-.4-1-.2-1.5.1-.5.4-.9.9-1.2L144.9.6c.3-.2.6-.3 1-.3h27.6c.3 0 .7.1 1 .3l14.7 15.9c.4.3.7.7.9 1.2.1.5 0 1-.2 1.5l-28.4 37.2c-.7.6-1.3.9-1.9.9z"/><path class="st16" d="M159.6 57.3c-.7 0-1.3-.4-1.6-.9l-28.5-37.2c-.3-.4-.4-1-.2-1.5.1-.5.4-.9.9-1.2L144.9.6c.3-.2.6-.3 1-.3h27.6c.3 0 .7.1 1 .3l14.7 15.9c.4.3.7.7.9 1.2.1.5 0 1-.2 1.5l-28.4 37.2c-.7.6-1.3.9-1.9.9z"/><path class="st17" d="M159.6 57.3c-.7 0-1.3-.4-1.6-.9l-28.5-37.2c-.3-.4-.4-1-.2-1.5.1-.5.4-.9.9-1.2L144.9.6c.3-.2.6-.3 1-.3h27.6c.3 0 .7.1 1 .3l14.7 15.9c.4.3.7.7.9 1.2.1.5 0 1-.2 1.5l-28.4 37.2c-.7.6-1.3.9-1.9.9z"/><path fill="#52b1dc" d="M173.4 2.3h-27.7l-14.6 15.9 28.5 37.2 13-33.1 15.5-4.1z"/><path fill="#99daf6" d="M172.6 22.3l-4.7-20h-22.2l-14.6 15.9 28.5 37.2-13.1-33.1z"/><path fill="#fff" d="M146.5 22.3l4.7-20h-5.5l-14.6 15.9z"/><path class="st17" d="M173.1 2.7l14.3 15.4.1.1-27.9 36.5-28-36.5.1-.1L146 2.7h27.1m.2-2.4h-27.6c-.3 0-.7.1-1 .3L130 16.5c-.4.3-.7.7-.9 1.2-.1.5 0 1 .2 1.5L158 56.4c.3.6 1 .9 1.6.9.7 0 1.3-.4 1.6-.9l28.4-37.2c.3-.4.4-1 .2-1.5-.1-.5-.4-.9-.9-1.2L174.3.6c-.3-.2-.7-.2-1-.3z"/></g></svg>