<svg height="19" viewBox="0 0 118 19" width="118" xmlns="http://www.w3.org/2000/svg"><g fill="none"><path d="m13.884 4.844h.666l1.9-1.9.093-.807a8.54 8.54 0 0 0 -13.893 4.168c.211-.087.446-.101.667-.04l3.8-.627s.193-.32.294-.3a4.74 4.74 0 0 1 6.487-.494h-.013z" fill="#ea4335"/><path d="m19.157 6.305a8.553 8.553 0 0 0 -2.58-4.16l-2.666 2.667a4.741 4.741 0 0 1 1.74 3.76v.474a2.374 2.374 0 0 1 0 4.747h-4.747l-.474.48v2.848l.474.473h4.747a6.174 6.174 0 0 0 3.506-11.29z" fill="#4285f4"/><path d="m6.15 17.564h4.747v-3.8h-4.747c-.339 0-.672-.073-.98-.214l-.667.208-1.913 1.9-.166.666a6.127 6.127 0 0 0 3.726 1.24z" fill="#34a853"/><path d="m6.15 5.238a6.173 6.173 0 0 0 -3.726 11.067l2.752-2.753a2.374 2.374 0 1 1 3.14-3.14l2.753-2.753a6.16 6.16 0 0 0 -4.919-2.421z" fill="#fbbc05"/><path d="m34.51 14.911a6.07 6.07 0 0 1 -4.399-1.807 5.862 5.862 0 0 1 -1.846-4.347 5.874 5.874 0 0 1 1.845-4.347 6.07 6.07 0 0 1 4.4-1.84 5.893 5.893 0 0 1 4.22 1.701l-1.187 1.207a4.276 4.276 0 0 0 -3.033-1.2 4.23 4.23 0 0 0 -3.134 1.333 4.359 4.359 0 0 0 -1.287 3.166 4.35 4.35 0 0 0 1.287 3.127 4.473 4.473 0 0 0 6.24.073 3.543 3.543 0 0 0 .914-2.073h-4v-1.706h5.66c.055.344.077.692.067 1.04a5.337 5.337 0 0 1 -1.46 3.935 5.678 5.678 0 0 1 -4.287 1.738zm13.161-1.134a4.08 4.08 0 0 1 -5.647 0 3.8 3.8 0 0 1 -1.153-2.832 3.805 3.805 0 0 1 1.153-2.833 4.089 4.089 0 0 1 5.647 0 3.805 3.805 0 0 1 1.154 2.833 3.802 3.802 0 0 1 -1.16 2.832zm-4.4-1.112a2.16 2.16 0 0 0 3.053.1c.034-.033.068-.066.1-.1.444-.46.684-1.08.666-1.72a2.38 2.38 0 0 0 -.666-1.727 2.195 2.195 0 0 0 -3.168 0 2.38 2.38 0 0 0 -.667 1.727c-.017.64.226 1.26.674 1.72h.007zm13.08 1.112a4.08 4.08 0 0 1 -5.647 0 3.8 3.8 0 0 1 -1.154-2.832 3.805 3.805 0 0 1 1.154-2.833 4.08 4.08 0 0 1 5.647 0 3.805 3.805 0 0 1 1.154 2.833 3.795 3.795 0 0 1 -1.154 2.832zm-4.4-1.112a2.16 2.16 0 0 0 3.154 0c.444-.46.685-1.08.666-1.72a2.38 2.38 0 0 0 -.666-1.727 2.193 2.193 0 0 0 -3.167 0 2.38 2.38 0 0 0 -.666 1.727c-.017.64.226 1.26.673 1.72h.007zm10.107 5.806a3.496 3.496 0 0 1 -2.22-.707 4.092 4.092 0 0 1 -1.294-1.64l1.52-.634c.165.388.423.73.752.993a1.9 1.9 0 0 0 1.247.42 2.003 2.003 0 0 0 1.554-.6c.401-.484.6-1.106.553-1.733v-.573h-.06a2.544 2.544 0 0 1 -2.086.9 3.62 3.62 0 0 1 -2.667-1.16 3.838 3.838 0 0 1 -1.14-2.794 3.876 3.876 0 0 1 1.14-2.813 3.612 3.612 0 0 1 2.667-1.166c.423-.002.843.093 1.226.272.332.145.628.361.868.634h.06v-.634h1.653v7.1a4.14 4.14 0 0 1 -1.06 3.101 3.733 3.733 0 0 1 -2.713 1.034zm.12-5.12a1.94 1.94 0 0 0 1.507-.667c.41-.47.628-1.08.606-1.707a2.518 2.518 0 0 0 -.606-1.74 1.936 1.936 0 0 0 -1.507-.666 2.062 2.062 0 0 0 -1.56.666 2.434 2.434 0 0 0 -.666 1.727c-.013.635.225 1.25.666 1.707.398.44.966.688 1.56.68zm6.594-10.333v11.652h-1.74v-11.652zm4.774 11.893a3.783 3.783 0 0 1 -2.807-1.14 3.86 3.86 0 0 1 -1.127-2.826 3.914 3.914 0 0 1 1.086-2.854 3.581 3.581 0 0 1 2.666-1.114c.458-.006.911.084 1.334.26.38.153.726.38 1.02.666.251.243.474.513.666.807.154.248.286.51.393.78l.18.453-5.332 2.194a2.001 2.001 0 0 0 1.92 1.2c.798.004 1.54-.415 1.953-1.099l1.333.9c-.34.487-.775.9-1.28 1.214a3.63 3.63 0 0 1 -2.005.56zm-2.227-4.087 3.547-1.474a1.221 1.221 0 0 0 -.554-.606 1.807 1.807 0 0 0 -.913-.233 2.059 2.059 0 0 0 -1.433.633 2.111 2.111 0 0 0 -.647 1.68zm14.754 4.087a5.493 5.493 0 0 1 -5.586-5.62 5.494 5.494 0 0 1 5.364-5.62h.222a4.977 4.977 0 0 1 3.953 1.759l-.96.933a3.626 3.626 0 0 0 -2.987-1.368 4.078 4.078 0 0 0 -2.967 1.186 4.167 4.167 0 0 0 -1.207 3.108 4.162 4.162 0 0 0 1.207 3.107 4.073 4.073 0 0 0 2.967 1.186 4.238 4.238 0 0 0 3.333-1.56l.96.96a5.248 5.248 0 0 1 -1.846 1.407 5.62 5.62 0 0 1 -2.453.522zm6.879-.24h-1.38v-10.767h1.38zm2.254-6.481a3.86 3.86 0 0 1 5.44 0 3.903 3.903 0 0 1 1.067 2.8 3.903 3.903 0 0 1 -1.067 2.8 3.86 3.86 0 0 1 -5.44 0 3.903 3.903 0 0 1 -1.066-2.8 3.897 3.897 0 0 1 1.066-2.8zm1.026 4.735a2.328 2.328 0 0 0 3.38 0 2.67 2.67 0 0 0 .714-1.933 2.659 2.659 0 0 0 -.714-1.933 2.328 2.328 0 0 0 -3.38 0 2.67 2.67 0 0 0 -.713 1.933 2.664 2.664 0 0 0 .72 1.926zm13.128 1.746h-1.334v-1.02h-.04a2.57 2.57 0 0 1 -.973.92c-.415.24-.887.368-1.367.366a2.594 2.594 0 0 1 -2.093-.84 3.338 3.338 0 0 1 -.714-2.252v-4.535h1.38v4.28c0 1.374.607 2.06 1.82 2.06a1.693 1.693 0 0 0 1.4-.666 2.512 2.512 0 0 0 .541-1.593v-4.08h1.38v7.359zm4.686.24a3.24 3.24 0 0 1 -2.467-1.127 4 4 0 0 1 -1.034-2.794 4 4 0 0 1 1.034-2.793 3.244 3.244 0 0 1 2.467-1.127 3.13 3.13 0 0 1 1.506.36c.408.204.754.515 1 .9h.06l-.06-1.02v-3.406h1.38v10.766h-1.332v-1.02h-.06a2.543 2.543 0 0 1 -1 .9c-.459.242-.972.367-1.493.36zm.227-1.26a2.198 2.198 0 0 0 1.66-.72c.468-.534.708-1.23.666-1.94a2.703 2.703 0 0 0 -.666-1.941 2.252 2.252 0 0 0 -3.333 0c-.47.53-.71 1.225-.666 1.933a2.669 2.669 0 0 0 .666 1.932 2.196 2.196 0 0 0 1.673.737z" fill="#5f6368"/></g></svg>