<svg xmlns="http://www.w3.org/2000/svg" width="150" height="150"><circle fill="none" stroke="#888" stroke-width="2" stroke-linecap="round" stroke-miterlimit="10" stroke-dasharray="6.0399,6.0399" cx="69.25" cy="71.969" r="50"/><circle fill="#94DDFF" cx="34.5" cy="33.219" r="24.25"/><circle fill="#94DDFF" cx="47.419" cy="120.781" r="24.25"/><circle fill="#94DDFF" cx="120.875" cy="66.219" r="24.25"/><path fill="#F9CC55" d="M48.37 28.116c-2.209-.553-4.42-1.027-6.712-1.5-1.815-.316-2.604-.948-3.474-2.527l-3.474-5.922c-.633-1.026-.79-1.026-1.421 0l-3.474 5.922c-.868 1.579-1.658 2.211-3.475 2.527-2.289.473-4.5.947-6.711 1.5-1.185.237-1.264.395-.395 1.342l4.5 5.054c1.264 1.343 1.579 2.371 1.343 4.185-.238 2.29-.474 4.502-.632 6.791-.158 1.184 0 1.344 1.105.868l6.238-2.763c1.658-.79 2.765-.79 4.422 0l6.239 2.763c1.104.474 1.263.316 1.104-.868-.156-2.288-.392-4.501-.631-6.791-.239-1.814.076-2.841 1.342-4.185l4.502-5.054c.868-.948.791-1.105-.396-1.342z"/><path fill="none" stroke="#FFF" stroke-width="2" stroke-miterlimit="10" d="M50.383 27.571c-2.519-.63-5.04-1.17-7.652-1.71-2.069-.359-2.969-1.08-3.96-2.88l-3.962-6.752c-.721-1.17-.9-1.17-1.62 0l-3.961 6.752c-.99 1.801-1.89 2.521-3.962 2.88-2.609.541-5.131 1.081-7.651 1.711-1.351.27-1.441.45-.45 1.53l5.131 5.762c1.44 1.532 1.8 2.703 1.53 4.771-.271 2.61-.54 5.132-.721 7.742-.179 1.35 0 1.531 1.26.989l7.111-3.15c1.892-.901 3.152-.901 5.043 0l7.113 3.15c1.258.541 1.439.36 1.258-.989-.178-2.61-.447-5.131-.719-7.742-.271-2.068.088-3.24 1.53-4.771l5.132-5.762c.991-1.081.904-1.262-.45-1.531z"/><circle fill="#444" cx="112.768" cy="63.108" r="3.918"/><circle fill="#444" cx="129.732" cy="63.108" r="3.918"/><path fill="none" stroke="#444" stroke-width="2" stroke-linecap="round" stroke-linejoin="round" stroke-miterlimit="10" d="M133.625 72.747c-6.835 6.834-17.915 6.834-24.75 0"/><path fill="#FFF" d="M55.609 108.271c-.32 1.078-.447 1.602-.498 2.154-.003 1.411-.006 2.465.002 3.877 1.448-.005 2.641-.078 4.5.27.833.154 1.794.498 2.115 1.174.798 1.68 1.015 12.684.057 13.943-.625.821-2.446 2.506-3.405 2.506s-7.382.039-8.896 0c-1.513-.039-2.662-2.112-3.394-2.112s-3.243-.021-4.161-.002c-.034.449.012.961-.024 1.41a.631.631 0 01-.615.383h-8.198c-.378.041-.692-.321-.671-.685.001-4.926-.001-9.854.001-14.778.009-.233.113-.49.336-.595.182-.112.403-.068.605-.076 2.661.001 5.321.002 7.983 0 .292-.004.593.26.572.564-.001.426.003.853-.005 1.278 1.053-.021 3.167-.556 4.273-2.202s3.724-7.672 4.536-9.545c1.349-3.114 5.951-1.137 4.887 2.436z"/><path fill="#B8F4A4" d="M32.679 116.021h8.891v15.57h-8.891z"/><path opacity=".4" fill="#DCF0FF" d="M32.679 116.021h8.891v3.188h-8.891z"/><path fill="none" stroke="#414042" stroke-width="1.5" stroke-linecap="round" stroke-linejoin="round" d="M55.609 108.271c-.32 1.078-.447 1.602-.498 2.154-.003 1.411-.006 2.465.002 3.877 1.448-.005 2.641-.078 4.5.27.833.154 1.794.498 2.115 1.174.798 1.68 1.015 12.684.057 13.943-.625.821-2.446 2.506-3.405 2.506s-7.382.039-8.896 0c-1.513-.039-2.662-2.112-3.394-2.112s-3.243-.021-4.161-.002c-.034.449.012.961-.024 1.41a.631.631 0 01-.615.383h-8.198c-.378.041-.692-.321-.671-.685.001-4.926-.001-9.854.001-14.778.009-.233.113-.49.336-.595.182-.112.403-.068.605-.076 2.661.001 5.321.002 7.983 0 .292-.004.593.26.572.564-.001.426.003.853-.005 1.278 1.053-.021 3.167-.556 4.273-2.202s3.724-7.672 4.536-9.545c1.349-3.114 5.951-1.137 4.887 2.436z" opacity=".6"/></svg>