<svg xmlns="http://www.w3.org/2000/svg" width="64" height="64" viewBox="93.342 18 64 64"><path fill="#444" d="M121.57 67.08a.46.46 0 01.46-.463h6.624c.257 0 .462.206.462.463s-.205.462-.462.462h-6.624a.46.46 0 01-.46-.462m26.64-2.939h-45.925V33.379h45.925v30.762zm9.132 3.166c0-.685-.553-1.239-1.234-1.239v-.088h-6.551a.96.96 0 00.568-.877V32.415a.96.96 0 00-.959-.961h-47.839a.96.96 0 00-.956.961v32.687c0 .39.234.728.568.877h-6.363v.086c-.682 0-1.234.556-1.234 1.241s.553 1.24 1.234 1.24h61.53a1.239 1.239 0 001.236-1.239"/></svg>