<svg xmlns="http://www.w3.org/2000/svg" width="150" height="150"><circle fill="none" stroke="#888" stroke-width="2" stroke-linecap="round" stroke-miterlimit="10" stroke-dasharray="6.0399,6.0399" cx="69.25" cy="71.969" r="50"/><circle fill="#94DDFF" cx="34.5" cy="33.219" r="24.25"/><circle fill="#94DDFF" cx="47.419" cy="120.781" r="24.25"/><circle fill="#94DDFF" cx="120.875" cy="66.219" r="24.25"/><path fill="#444" d="M70.545 80.085l6.518-11.255H63.939l6.606 11.255z"/><path fill="none" stroke="#888" stroke-width="1.5" stroke-miterlimit="10" d="M87.997 84.09c0 3.221-2.512 5.832-5.607 5.832H58.61c-3.097 0-5.607-2.611-5.607-5.832V60.912c0-3.221 2.511-5.833 5.607-5.833h23.786c3.093 0 5.606 2.612 5.606 5.833l-.005 23.178h0z"/><path fill="#FFF" d="M110.767 69.434l-1.796-8.293 13.003 5.741 9.464-10.606 1.796 8.293-9.438 10.724-13.029-5.859zm-68.42-27.851l-7.075 4.685.627-14.2-13.32-4.966 7.075-4.685 13.42 4.9-.727 14.266zm11.839 70.446l6.622 5.306-13.713 3.74-.661 14.2-6.622-5.306.567-14.275 13.807-3.665z"/></svg>