<svg xmlns="http://www.w3.org/2000/svg" width="64" height="64"><path fill="none" stroke="#888" stroke-width="1.5" stroke-miterlimit="10" d="M54.5 50.441c0 2.209-1.723 4-3.846 4h-37.31c-2.123 0-3.845-1.791-3.845-4v-9.953c0-2.209 1.722-4 3.845-4h37.312c2.123 0 3.844 1.791 3.844 4v9.953h0zm0-26.879c0 2.209-1.723 4-3.846 4h-37.31c-2.123 0-3.845-1.791-3.845-4v-9.953c0-2.209 1.722-4 3.845-4h37.312c2.123 0 3.844 1.791 3.844 4v9.953h0z"/><path d="M19.372 47.893l-.672 2.421h-2.213l2.885-9.44h2.802l2.927 9.44h-2.297l-.729-2.422h-2.703v.001zm2.396-1.6l-.588-2.003c-.168-.562-.336-1.261-.476-1.819h-.028c-.14.561-.28 1.273-.434 1.819l-.561 2.003h2.087zm7.417-5.294c.561-.11 1.695-.194 2.76-.194 1.302 0 2.101.127 2.788.531.658.352 1.139.994 1.139 1.85 0 .842-.49 1.625-1.559 2.019v.026c1.078.295 1.877 1.105 1.877 2.324 0 .854-.393 1.527-.979 2.004-.688.547-1.834.854-3.711.854-1.051 0-1.835-.067-2.312-.142l-.003-9.272zm2.114 3.612H32c1.121 0 1.723-.461 1.723-1.161 0-.716-.547-1.093-1.513-1.093-.462 0-.729.026-.911.056v2.198zm0 4.191c.21.027.462.027.827.027.966 0 1.821-.364 1.821-1.358 0-.951-.854-1.33-1.919-1.33h-.729v2.661zM47.4 50.047c-.395.196-1.273.406-2.422.406-3.268 0-4.945-2.03-4.945-4.721 0-3.222 2.299-5.015 5.154-5.015 1.104 0 1.944.224 2.326.421l-.438 1.692a4.61 4.61 0 00-1.793-.351c-1.695 0-3.016 1.021-3.016 3.123 0 1.893 1.119 3.082 3.023 3.082.646 0 1.359-.141 1.779-.309l.332 1.672z" fill="#F90"/><path d="M20.633 15.926h-.028l-1.737.826-.351-1.598 2.41-1.12h1.765v9.104h-2.059v-7.212zm7.88 7.212v-1.289l1.177-1.064c1.989-1.777 2.957-2.801 2.983-3.865 0-.742-.448-1.33-1.5-1.33-.784 0-1.471.392-1.947.756l-.603-1.526c.687-.519 1.751-.938 2.984-.938 2.06 0 3.193 1.205 3.193 2.857 0 1.525-1.106 2.745-2.423 3.922l-.841.7v.028h3.432v1.75l-6.455-.001zm10.975-2.087c.38.196 1.246.562 2.115.562 1.104 0 1.666-.533 1.666-1.219 0-.896-.896-1.304-1.834-1.304h-.869v-1.526h.826c.715-.015 1.625-.28 1.625-1.052 0-.545-.447-.951-1.347-.951-.739 0-1.524.322-1.903.546l-.437-1.54c.547-.352 1.642-.688 2.812-.688 1.947 0 3.025 1.022 3.025 2.27 0 .967-.548 1.724-1.668 2.115v.027c1.094.196 1.977 1.022 1.977 2.213 0 1.611-1.416 2.789-3.727 2.789-1.18 0-2.173-.31-2.703-.646l.442-1.596z" fill="#56AFB1"/></svg>