<svg xmlns="http://www.w3.org/2000/svg" width="64" height="64"><path fill="#FBF9F5" stroke="#94DDFF" stroke-width="1.5" stroke-miterlimit="10" d="M13.25 16.844a3.75 3.75 0 00-3.75 3.75v22.812a3.75 3.75 0 003.75 3.75h37.5a3.75 3.75 0 003.75-3.75V20.594a3.749 3.749 0 00-3.75-3.75h-37.5z"/><path d="M27.497 26.605v6.887c0 1.214-.366 2.168-1.1 2.861-.733.694-1.739 1.041-3.021 1.041s-2.272-.35-2.975-1.048c-.702-.699-1.053-1.66-1.053-2.884v-6.857h1.238v6.945c0 .888.242 1.57.728 2.046.486.473 1.199.712 2.141.712.898 0 1.589-.239 2.075-.717.486-.479.728-1.164.728-2.056v-6.931h1.239zm4.055 6.218v4.426h-1.237V26.605h2.92c1.306 0 2.27.249 2.894.75s.935 1.253.935 2.257c0 1.408-.712 2.358-2.141 2.854l2.89 4.783H36.35l-2.577-4.425-2.221-.001zm0-1.062h1.696c.874 0 1.515-.174 1.923-.521.407-.347.611-.868.611-1.562 0-.703-.208-1.211-.623-1.521-.414-.311-1.081-.466-1.999-.466h-1.608v4.07zm7.979 5.488V26.606h1.238v9.523h4.695v1.119h-5.933z" fill="#6093FF"/></svg>