<svg viewBox="0 0 64 64" xmlns="http://www.w3.org/2000/svg" fill-rule="evenodd" clip-rule="evenodd" stroke-linejoin="round" stroke-miterlimit="1.414"><path d="M40.003 46.369h.005V18.133h-.003A1.136 1.136 0 0038.867 17H25.129c-.625 0-1.134.509-1.136 1.133V46.37h.001l-.002.035c0 .614.517 1.111 1.152 1.111h13.74c.618 0 1.121-.497 1.121-1.11.002-.014-.002-.025-.002-.037" fill="#444" fill-rule="nonzero"/><path d="M30.9 45.335c0-.629.508-1.14 1.13-1.14.622 0 1.128.511 1.128 1.14 0 .627-.506 1.14-1.128 1.14a1.138 1.138 0 01-1.13-1.14" fill="#fff" fill-rule="nonzero"/><path d="M39.302 18.84a.585.585 0 00-.584-.585H25.282a.585.585 0 00-.584.584v23.985c0 .322.262.584.584.584h13.436a.585.585 0 00.584-.584V18.839z" fill="#fff"/></svg>