<svg xmlns="http://www.w3.org/2000/svg" width="64" height="64"><path fill="#888" d="M31.729 32.439c0 3.097-.623 5.669-1.867 7.719-1.246 2.049-3.003 3.438-5.272 4.164l5.751 5.983h-4.083l-4.709-5.454-.91.033c-3.559 0-6.305-1.088-8.238-3.264-1.934-2.176-2.9-5.247-2.9-9.214 0-3.934.969-6.983 2.909-9.148 1.939-2.165 4.694-3.247 8.264-3.247 3.47 0 6.18 1.102 8.131 3.305 1.948 2.205 2.924 5.246 2.924 9.123zm-19.254 0c0 3.272.697 5.755 2.09 7.445 1.394 1.692 3.419 2.537 6.074 2.537 2.678 0 4.699-.843 6.066-2.528 1.366-1.686 2.049-4.171 2.049-7.454 0-3.25-.681-5.715-2.041-7.396-1.361-1.68-3.375-2.52-6.041-2.52-2.679 0-4.714.846-6.108 2.537-1.393 1.692-2.089 4.151-2.089 7.379z"/><path fill="#444" d="M47.122 13.694l-.813 7.576 7.636-2.142.556 4.304-7.14.575 4.68 6.168-3.946 2.122-3.292-6.703-2.955 6.703-4.065-2.122 4.581-6.168-7.101-.575.694-4.304 7.457 2.142-.812-7.576h4.52z"/></svg>