<svg viewBox="0 0 64 64" xmlns="http://www.w3.org/2000/svg" fill-rule="evenodd" clip-rule="evenodd" stroke-linejoin="round" stroke-miterlimit="1.414"><path d="M15.739 15.739A22.928 22.928 0 0 1 32 9a22.928 22.928 0 0 1 16.261 6.739l-6.504 6.504A13.757 13.757 0 0 0 32 18.2a13.757 13.757 0 0 0-9.757 4.043L15.74 15.74z" fill="#eb4134"/><path d="M41.757 41.757l6.504 6.504A22.928 22.928 0 0 1 32 55a22.928 22.928 0 0 1-16.261-6.739l6.504-6.504A13.757 13.757 0 0 0 32 45.8a13.76 13.76 0 0 0 9.757-4.043z" fill="#34aa51"/><path d="M15.739 15.739l6.504 6.504A13.757 13.757 0 0 0 18.2 32a13.76 13.76 0 0 0 4.043 9.757L15.74 48.26A22.928 22.928 0 0 1 9 32a22.928 22.928 0 0 1 6.739-16.261z" fill="#fbbe04"/><path d="M32 27.4h22.54A23.13 23.13 0 0 1 55 32a23.13 23.13 0 0 1-.46 4.6 22.981 22.981 0 0 1-6.279 11.661l-6.504-6.504a13.802 13.802 0 0 0 3.256-5.157H32v-9.2z" fill="#4186f7"/></svg>