<svg preserveAspectRatio="xMinYMid" viewBox="0 0 64 64" xmlns="http://www.w3.org/2000/svg" fill-rule="evenodd" clip-rule="evenodd" stroke-linejoin="round" stroke-miterlimit="1.414"><path d="M9.5 45.5a9 9 0 1118 0 9 9 0 01-18 0zM36.5 45.499a9 9 0 1118 0 9 9 0 01-18 0zM9.5 18.501a9 9 0 1118 0 9 9 0 01-18 0zM36.5 18.5a9 9 0 1118 0 9 9 0 01-18 0z" fill="#fff" fill-rule="nonzero" stroke="#bdbdbd"/><path d="M18.501 23.195a4.696 4.696 0 01-4.693-4.693 4.696 4.696 0 014.693-4.693 4.694 4.694 0 010 9.386z" fill="#ffba59" fill-rule="nonzero"/></svg>