<svg preserveAspectRatio="xMinYMid" viewBox="0 0 139 139" xmlns="http://www.w3.org/2000/svg" fill-rule="evenodd" clip-rule="evenodd" stroke-linejoin="round" stroke-miterlimit="1.414"><path d="M82.578 105.476c4.692-1.17 1.327 2.235.274 3.34-1.213 1.27-5.264 3.488-7.547 4.281-2.286.795-4.942 1.191-7.968 1.191-4.647 0-8.262-1.138-10.84-3.4-2.578-2.27-3.867-5.146-3.867-8.636 0-1.351.093-2.74.288-4.157.196-1.417 6.522-24.944 6.812-26.4.295-1.449.437-2.78.437-3.98 0-2.168-.45-3.685-1.343-4.538-.894-.85-2.6-1.282-5.131-1.282-1.24 0-2.515.199-3.814.583-1.305.386-1.865-1.376 1.209-4.13 1.261-1.13 2.863-2.375 5.737-3.285 2.873-.911 5.588-1.368 8.156-1.368 4.615 0 8.177 1.116 10.677 3.346 2.501 2.233 3.751 5.127 3.751 8.693 0 .738-.082 2.038-.258 3.896-.173 1.862-6.482 24.944-6.788 26.69-.316 1.737-.467 3.063-.467 3.953 0 2.245.5 3.779 1.505 4.594 1.01.815 2.752 1.22 5.226 1.22 1.161 0 2.474-.242 3.951-.61z" fill="#888" fill-rule="nonzero"/><ellipse cx="102" cy="30.5" rx="11" ry="10.5" fill="#888" transform="matrix(1.01157 .11903 -.11682 .99283 -23.828 -9.203)"/></svg>