<svg preserveAspectRatio="xMinYMid" viewBox="0 0 64 64" xmlns="http://www.w3.org/2000/svg" fill-rule="evenodd" clip-rule="evenodd" stroke-linecap="round" stroke-linejoin="round" stroke-miterlimit="1.414"><path d="M48 48.898a4 4 0 01-4 4H20a4 4 0 01-4-4V36a4 4 0 014-4h24a4 4 0 014 4v12.898z" fill="#fafafa"/><path d="M48 28a4 4 0 01-4 4H20a4 4 0 01-4-4V15.102a4 4 0 014-4h24a4 4 0 014 4V28z" fill="#eaeaea"/><path d="M32 36.45v12m-6-6h12" fill="none" stroke-width="2.0022732" stroke="#858990"/></svg>