<svg preserveAspectRatio="xMinYMid" viewBox="0 0 64 64" xmlns="http://www.w3.org/2000/svg" fill-rule="evenodd" clip-rule="evenodd" stroke-miterlimit="1.414"><path d="M32 25.567c3.567 0 6.462 2.883 6.462 6.434s-2.895 6.434-6.461 6.434c-3.566 0-6.462-2.883-6.462-6.434 0-3.55 2.896-6.434 6.462-6.434zm18.104 9.226l-3.4.999a14.948 14.948 0 01-1.51 3.595l1.793 2.906c.298.48.115 1.245-.38 1.746l-1.953 1.981c-.494.502-1.258.698-1.745.41l-2.946-1.723a15.052 15.052 0 01-3.923 1.687l-.76 3.208c-.129.55-.798.966-1.505.971l-2.79.036c-.707.01-1.387-.39-1.531-.933l-.839-3.177a15.145 15.145 0 01-3.934-1.54l-2.97 1.842c-.48.298-1.248.122-1.757-.367l-2.003-1.933c-.508-.49-.708-1.249-.425-1.734l1.724-2.963a15.078 15.078 0 01-1.752-3.957l-3.303-.628c-.555-.107-1-.755-1.038-1.457l-.154-2.772c-.04-.703.333-1.396.871-1.564l3.483-1.069a14.992 14.992 0 011.547-3.934l-1.747-2.916c-.29-.484-.1-1.246.402-1.742l1.979-1.958c.5-.495 1.267-.681 1.751-.39l2.756 1.66a15.15 15.15 0 014.185-1.82l.728-2.913c.138-.546.812-.953 1.52-.953h2.79c.706 0 1.38.407 1.518.953l.698 2.791a15.16 15.16 0 014.38 1.764l2.625-1.582c.485-.293 1.251-.107 1.753.389l1.98 1.957c.501.496.691 1.258.4 1.741l-1.569 2.624a15.092 15.092 0 011.79 4.35l3.017.616c.554.112.992.768 1.021 1.47L51 33.24c.027.707-.353 1.394-.895 1.554h0z" fill="#aaa" stroke-width="1.26663" stroke="#aaa"/></svg>