<svg preserveAspectRatio="xMinYMid" viewBox="0 0 64 64" xmlns="http://www.w3.org/2000/svg" fill-rule="evenodd" clip-rule="evenodd" stroke-linecap="round" stroke-linejoin="round" stroke-miterlimit="1.414"><path d="M32 12v5.164M44 55.475c-8.042.297-12.233-.657-12-8.639M20 55.475c8.042.297 12.233-.657 12-8.639" fill="none" stroke="#444" stroke-width="2"/><circle cx="7.259" cy="31.766" r="3.475" fill="#fafafa" stroke="#444" transform="rotate(90 31.25 32.517)"/><circle cx="7.259" cy="31.766" r="3.475" fill="#fafafa" stroke="#444" transform="rotate(-90 37.484 25.25)"/><circle cx="7.259" cy="31.766" r="3.475" fill="#fafafa" stroke="#444" transform="rotate(-90 25.484 37.25)"/><path d="M45.836 22.164v19.672a4 4 0 01-4 4h-19.67a4 4 0 01-4-4V22.164a4 4 0 014-4h19.67a4 4 0 014 4z" fill="#fff" fill-rule="nonzero" stroke="#888" stroke-width="1.5" stroke-linecap="butt" stroke-linejoin="miter"/><path d="M32.167 25.418v13.164M38.749 32H25.585" fill="none" stroke="#6da" stroke-width="2.0009052"/></svg>