<svg preserveAspectRatio="xMinYMid" viewBox="0 0 64 64" xmlns="http://www.w3.org/2000/svg" fill-rule="evenodd" clip-rule="evenodd" stroke-linecap="round" stroke-miterlimit="1.414"><circle cx="32" cy="32" r="21.6" fill="#fff" stroke-width="1.5" stroke="#888"/><path d="M36.42 41.475c-.133-1.45-.082-2.463-.082-3.788.656-.345 1.834-2.543 2.033-4.399.516-.043 1.33-.547 1.568-2.537.129-1.068-.381-1.669-.693-1.858.84-2.528 2.588-10.349-3.229-11.157-.598-1.051-2.131-1.583-4.124-1.583-7.968.147-8.93 6.018-7.183 12.74-.311.189-.821.79-.694 1.858.239 1.99 1.053 2.494 1.57 2.537.198 1.855 1.422 4.055 2.081 4.399 0 1.325.05 2.338-.082 3.788-1.135 3.052-6.964 3.291-10.326 6.232 3.516 3.539 9.212 6.07 15.225 6.07 6.011 0 13.078-4.746 14.255-6.041-3.341-2.969-9.182-3.199-10.319-6.261z" fill="#6cf" fill-rule="nonzero" stroke-width="2" stroke="#6cf"/><circle cx="32" cy="32" r="21.6" fill="none" stroke-width="1.5" stroke="#888"/></svg>