<svg preserveAspectRatio="xMinYMid" viewBox="0 0 50 26" xmlns="http://www.w3.org/2000/svg" fill-rule="evenodd" clip-rule="evenodd" stroke-linejoin="round" stroke-miterlimit="1.414"><path d="M12.5 1.5C18.847 1.5 24 6.653 24 13s-5.153 11.5-11.5 11.5S1 19.347 1 13 6.153 1.5 12.5 1.5zM9.065 19.029v-8.486H6.184v8.486h2.881zm10.389 0v-4.867c0-2.606-1.422-3.819-3.317-3.819-1.53 0-2.214.823-2.597 1.402v-1.203h-2.881c.038.796 0 8.487 0 8.487h2.881V14.29c0-.253.02-.507.095-.688.209-.507.682-1.032 1.479-1.032 1.042 0 1.459.778 1.459 1.919v4.54h2.881zM7.624 9.384c1.005 0 1.63-.652 1.63-1.466-.018-.834-.625-1.467-1.611-1.467s-1.63.634-1.63 1.467c0 .814.625 1.466 1.592 1.466h.019z" fill="#fff"/><path d="M42.492 8.276c-1.455-.233-2.845.863-3.078 2.325-.568 3.556 4.132 6.607 4.35 6.643.219.035 5.634-1.403 6.202-4.957.232-1.461-.74-2.936-2.197-3.168-1.868-.299-2.82 1.176-2.894 1.164-.07-.011-.61-1.724-2.383-2.007" fill="#fff" fill-rule="nonzero"/></svg>