<svg preserveAspectRatio="xMinYMid" xmlns="http://www.w3.org/2000/svg" width="45.921" viewBox="52.04 0 45.921 46"><circle fill="#007BB6" cx="75" cy="23" r="20.245"/><path fill="#FFF" d="M69.706 31.796h-4.721V17.891h4.721v13.905zm-2.361-15.804h-.032c-1.584 0-2.608-1.068-2.608-2.401 0-1.366 1.056-2.404 2.671-2.404 1.615 0 2.61 1.038 2.64 2.404-.001 1.333-1.025 2.401-2.671 2.401zm19.384 15.804h-4.721v-7.438c0-1.867-.685-3.144-2.392-3.144-1.305 0-2.081.859-2.422 1.689-.124.297-.155.713-.155 1.128v7.765h-4.721s.062-12.6 0-13.905h4.721v1.97c.627-.948 1.747-2.296 4.254-2.296 3.105 0 5.434 1.987 5.434 6.257v7.975l.002-.001z"/></svg>