<svg preserveAspectRatio="xMinYMid" viewBox="0 0 64 64" xmlns="http://www.w3.org/2000/svg" fill-rule="evenodd" clip-rule="evenodd" stroke-linecap="round" stroke-linejoin="round" stroke-miterlimit="1.5"><path d="M28.125 32.671h6.863c2.384 0 4.32-2.313 4.32-5.162 0-2.849-1.936-5.163-4.32-5.163h-10.39c-2.384 0-4.32 2.314-4.32 5.163 0 .885.187 1.718.516 2.446" fill="none" stroke="#34495e" stroke-width="2.59" transform="rotate(-45 39.09 10.467) scale(.83762 .70091)"/><path d="M28.125 32.671h6.863c2.384 0 4.32-2.313 4.32-5.162 0-2.849-1.936-5.163-4.32-5.163h-10.39c-2.384 0-4.32 2.314-4.32 5.163 0 .885.187 1.718.516 2.446" fill="none" stroke="#34495e" stroke-width="2.59" transform="rotate(135 23.08 29.063) scale(.83762 .70091)"/></svg>