<svg width="48" height="48" viewBox="0 0 48 48" fill="none" xmlns="http://www.w3.org/2000/svg">
<path d="M37.8075 4.5H10.1925L8.6925 6V42L10.1925 43.5H37.8075L39.3075 42V6L37.8075 4.5ZM36.3075 40.5H11.6925V7.5H36.3075V40.5Z" fill="#0055DC"/>
<path d="M16.335 27.3225V29.16C16.3141 29.8407 16.4183 30.5194 16.6425 31.1625C16.8246 31.6428 17.1361 32.0633 17.5425 32.3775C17.9756 32.6819 18.4694 32.8891 18.99 32.985C19.6307 33.1025 20.2812 33.1578 20.9325 33.15V31.1475C20.4821 31.1733 20.0321 31.0911 19.62 30.9075C19.4714 30.8304 19.3397 30.7243 19.2328 30.5955C19.1259 30.4667 19.0459 30.3178 18.9975 30.1575C18.8723 29.7573 18.814 29.3392 18.825 28.92V26.58C18.8287 26.2262 18.7651 25.875 18.6375 25.545C18.4946 25.1995 18.255 24.9027 17.9475 24.69C17.5076 24.4058 17.0156 24.212 16.5 24.12H16.395V23.8425H16.5C17.0172 23.7436 17.5094 23.5421 17.9475 23.25C18.255 23.0373 18.4946 22.7405 18.6375 22.395C18.7658 22.0626 18.8295 21.7088 18.825 21.3525V18.975C18.814 18.5558 18.8723 18.1377 18.9975 17.7375C19.0459 17.5772 19.1259 17.4283 19.2328 17.2995C19.3397 17.1706 19.4714 17.0646 19.62 16.9875C20.0339 16.8105 20.483 16.731 20.9325 16.755V14.775C20.2808 14.7657 19.6299 14.8235 18.99 14.9475C18.469 15.0376 17.9745 15.2425 17.5425 15.5475C17.1361 15.8617 16.8246 16.2822 16.6425 16.7625C16.4206 17.4009 16.3165 18.0743 16.335 18.75V20.595C16.3935 21.1829 16.2183 21.7701 15.8475 22.23C15.6088 22.4237 15.3342 22.5684 15.0395 22.6559C14.7448 22.7434 14.4358 22.772 14.13 22.74V25.17C14.7465 25.1033 15.3642 25.2841 15.8475 25.6725C16.2222 26.1362 16.3975 26.7296 16.335 27.3225Z" fill="#0055DC"/>
<path d="M30.4575 32.3775C30.8639 32.0633 31.1754 31.6428 31.3575 31.1625C31.5817 30.5194 31.6859 29.8407 31.665 29.16V27.3225C31.6066 26.7346 31.7817 26.1474 32.1525 25.6875C32.3914 25.4944 32.6662 25.3506 32.961 25.2644C33.2558 25.1781 33.5647 25.1512 33.87 25.185V22.755C33.5642 22.7878 33.255 22.7596 32.9602 22.6721C32.6653 22.5845 32.3908 22.4394 32.1525 22.245C31.7817 21.7851 31.6066 21.1979 31.665 20.61V18.75C31.6854 18.0693 31.5812 17.3907 31.3575 16.7475C31.1754 16.2672 30.8639 15.8467 30.4575 15.5325C30.0255 15.2276 29.5311 15.0226 29.01 14.9325C28.3701 14.8085 27.7192 14.7507 27.0675 14.76V16.77C27.517 16.746 27.9661 16.8255 28.38 17.0025C28.5286 17.0796 28.6603 17.1856 28.7672 17.3145C28.8741 17.4433 28.9541 17.5922 29.0025 17.7525C29.1277 18.1527 29.186 18.5708 29.175 18.99V21.36C29.1705 21.7163 29.2342 22.0701 29.3625 22.4025C29.5067 22.7452 29.7461 23.0394 30.0525 23.25C30.4833 23.5306 30.9649 23.7242 31.47 23.82H31.575V24.0975H31.47C30.9649 24.1933 30.4833 24.3869 30.0525 24.6675C29.745 24.8802 29.5054 25.177 29.3625 25.5225C29.2349 25.8525 29.1713 26.2037 29.175 26.5575V28.95C29.186 29.3692 29.1277 29.7873 29.0025 30.1875C28.9541 30.3478 28.8741 30.4967 28.7672 30.6255C28.6603 30.7544 28.5286 30.8604 28.38 30.9375C27.9679 31.1211 27.5179 31.2033 27.0675 31.1775V33.15C27.7183 33.1627 28.3689 33.1125 29.01 33C29.5318 32.8996 30.0257 32.6872 30.4575 32.3775Z" fill="#0055DC"/>
</svg>
