<svg width="217" height="64" viewBox="0 0 217 64" fill="none" xmlns="http://www.w3.org/2000/svg">
<g clip-path="url(#clip0)">
<path d="M30.9463 10.6144H38.1661V0.411743C38.1661 0.411743 30.5773 0.411743 30.3944 0.411743C13.571 0.725025 0 14.306 0 31.0197C0 47.9144 13.8682 61.6116 30.9463 61.6261H38.1661V51.4251H30.9463C27.8123 51.413 24.7222 50.6958 21.91 49.3277C19.0977 47.9596 16.6371 45.9765 14.7145 43.5286C12.7919 41.0807 11.4577 38.2322 10.8129 35.1987C10.1681 32.1653 10.2297 29.0265 10.993 26.0201C12.156 30.377 14.7439 34.2308 18.3532 36.9807C21.9625 39.7306 26.3903 41.222 30.9463 41.2224H38.1661V31.0197H30.9463C25.2889 31.0197 20.6864 26.4125 20.6864 20.8171C20.6864 15.2216 25.2889 10.6144 30.9463 10.6144Z" fill="white"/>
<path d="M58.7969 11.887V6.26726C58.7969 2.28825 61.2361 0 65.7375 0C67.6478 0 69.2315 0.521599 70.4642 1.54219C71.6968 2.56278 72.3287 4.07913 72.3287 6.13645V6.38514H68.4102V6.13645C68.4102 4.34558 67.1286 3.52523 65.4942 3.52523C63.6329 3.52523 62.7023 4.34612 62.7023 5.98789V12.1615C62.7023 13.8022 63.6329 14.6231 65.4942 14.6241C67.1775 14.6241 68.4102 13.8781 68.4102 12.0113V11.7626H72.3287V12.0113C72.3287 14.0767 71.7001 15.6189 70.4691 16.6379C69.238 17.6568 67.6526 18.1542 65.7424 18.1542C61.2361 18.1542 58.7969 15.8676 58.7969 11.887Z" fill="white"/>
<path d="M75.3853 17.7812V0.373082H83.028C86.6493 0.373082 88.5791 2.36259 88.5791 5.84422C88.5791 8.20675 87.6485 9.89751 85.7627 10.868L89.082 16.52V17.7877H85.2909L81.6206 11.3283H79.2825V17.7877L75.3853 17.7812ZM79.2825 8.10825H82.3749C83.8835 8.10825 84.6378 7.48653 84.6378 5.89428C84.6378 4.32787 83.8835 3.73037 82.3749 3.73037H79.2825V8.10825Z" fill="white"/>
<path d="M96.8829 17.7812V10.8923L91.2256 1.64075V0.373082H95.0722L98.8699 7.28629L102.868 0.373082H106.46V1.64075L100.806 10.7437V17.7812H96.8829Z" fill="white"/>
<path d="M108.727 17.7812V0.373082H116.623C119.766 0.373082 121.651 2.48693 121.651 5.84422C121.651 9.20151 119.766 11.2911 116.623 11.2911H112.624V17.7812H108.727ZM112.624 7.93062H115.89C116.869 7.93062 117.7 7.23461 117.7 5.84099C117.7 4.44737 116.874 3.73037 115.893 3.73037H112.627L112.624 7.93062Z" fill="white"/>
<path d="M127.886 17.7812V3.73199H123.034V0.373082H136.611V3.73037H131.784V17.7796L127.886 17.7812Z" fill="white"/>
<path d="M152.743 11.8627C152.743 13.828 152.114 15.3702 150.831 16.4893C149.548 17.6084 147.838 18.1542 145.676 18.1542C143.515 18.1542 141.804 17.6084 140.522 16.4893C139.24 15.3702 138.617 13.828 138.617 11.8627V6.31732C138.617 2.33831 141.327 0 145.676 0C150.026 0 152.743 2.33831 152.743 6.31732V11.8627ZM148.846 6.11708C148.846 4.70085 147.763 3.53331 145.676 3.53331C143.59 3.53331 142.509 4.70246 142.509 6.11708V12.0371C142.509 13.455 143.59 14.6209 145.676 14.6209C147.763 14.6209 148.846 13.4518 148.846 12.0371V6.11708Z" fill="white"/>
<path d="M59.7194 41.2645V23.8563H67.6152C70.7582 23.8563 72.6439 25.9702 72.6439 29.3275C72.6439 32.6848 70.7582 34.7744 67.6152 34.7744H63.6167V41.2645H59.7194ZM63.6167 31.4139H66.8821C67.8617 31.4139 68.6928 30.7162 68.6928 29.3242C68.6928 27.9322 67.8634 27.2104 66.8821 27.2104H63.6167V31.4139Z" fill="white"/>
<path d="M75.3853 41.2645V23.8563H83.028C86.6493 23.8563 88.5791 25.8458 88.5791 29.3275C88.5791 31.69 87.6485 33.3808 85.7627 34.3513L89.082 40.0033V41.271H85.2909L81.6206 34.8115H79.2825V41.271L75.3853 41.2645ZM79.2825 31.5899H82.3749C83.8835 31.5899 84.6378 30.9682 84.6378 29.3775C84.6378 27.7869 83.8835 27.2136 82.3749 27.2136H79.2825V31.5899Z" fill="white"/>
<path d="M105.608 35.346C105.608 37.3097 104.98 38.8518 103.698 39.9709C102.416 41.09 100.705 41.6375 98.5435 41.6375C96.3818 41.6375 94.6708 41.09 93.3875 39.9709C92.1042 38.8518 91.4772 37.3097 91.4772 35.346V29.799C91.4772 25.82 94.1924 23.4833 98.5435 23.4833C102.895 23.4833 105.608 25.82 105.608 29.799V35.346ZM101.718 29.6003C101.718 28.1825 100.637 27.0166 98.5501 27.0166C96.4635 27.0166 95.381 28.1841 95.381 29.6003V35.5269C95.381 36.9431 96.4618 38.1106 98.5501 38.1106C100.638 38.1106 101.718 36.9415 101.718 35.5269V29.6003Z" fill="white"/>
<path d="M108.475 35.3653V29.7456C108.475 25.7666 110.914 23.4784 115.414 23.4784C117.326 23.4784 118.91 24 120.149 25.0206C121.388 26.0412 122.009 27.5559 122.009 29.6213V29.8748H118.09V29.6261C118.09 27.8353 116.807 27.0149 115.172 27.0149C113.313 27.0149 112.383 27.8353 112.382 29.476V35.6447C112.382 37.2854 113.312 38.1057 115.172 38.1057C116.857 38.1057 118.09 37.3597 118.09 35.4945V35.2458H122.009V35.4945C122.009 37.5583 121.38 39.1005 120.149 40.1211C118.918 41.1417 117.332 41.6374 115.414 41.6374C110.914 41.6374 108.475 39.3492 108.475 35.3653Z" fill="white"/>
<path d="M125.096 41.2645V23.8563H136.688V27.2136H128.994V30.9439H135.524V34.1527H128.994V37.9072H136.737V41.2645H125.096Z" fill="white"/>
<path d="M140.723 40.0711C139.391 39.0263 138.736 37.5341 138.736 35.6189H142.635C142.617 36.1878 142.824 36.7411 143.213 37.1611C144.018 37.933 144.973 38.1058 146.104 38.1058C147.789 38.1058 148.669 37.4599 148.669 36.4393C148.673 36.2088 148.608 35.9823 148.482 35.7879C148.357 35.5936 148.177 35.4399 147.964 35.346C147.487 35.0715 146.607 34.7243 145.299 34.3012L143.892 33.828C142.586 33.4066 141.755 33.0335 140.723 32.2616C139.717 31.4914 139.164 30.3238 139.164 28.8301C139.164 27.2152 139.743 25.9233 140.924 24.9544C142.104 23.9855 143.716 23.4881 145.752 23.4881C147.739 23.4881 149.344 23.9855 150.579 25.0045C151.815 26.0234 152.415 27.4913 152.415 29.4324H148.496C148.496 27.8402 147.263 27.0198 145.655 27.0198C144.047 27.0198 143.115 27.6157 143.115 28.6347C143.115 29.1821 143.366 29.455 143.743 29.7538C143.944 29.9266 144.447 30.101 144.723 30.2011L146.005 30.6484L147.311 31.0957C150.705 32.2649 152.617 33.5584 152.617 36.2439C152.617 39.5027 150.202 41.6407 145.76 41.6407C143.74 41.6375 142.055 41.1159 140.723 40.0711Z" fill="white"/>
<path d="M156.603 40.0711C155.27 39.0263 154.617 37.5341 154.617 35.6189H158.514C158.497 36.1878 158.704 36.7411 159.092 37.1611C159.897 37.933 160.852 38.1058 161.984 38.1058C163.669 38.1058 164.549 37.4599 164.549 36.4393C164.553 36.2089 164.488 35.9824 164.363 35.7881C164.238 35.5937 164.058 35.44 163.845 35.346C163.367 35.0715 162.487 34.7243 161.181 34.3012L159.772 33.828C158.465 33.4066 157.634 33.0335 156.604 32.2616C155.598 31.4914 155.045 30.3238 155.045 28.8301C155.045 27.2152 155.623 25.9233 156.805 24.9544C157.987 23.9855 159.595 23.4881 161.633 23.4881C163.618 23.4881 165.225 23.9855 166.461 25.0045C167.697 26.0234 168.296 27.4913 168.296 29.4324H164.377C164.377 27.8402 163.146 27.0198 161.537 27.0198C159.927 27.0198 158.998 27.6157 158.998 28.6347C158.998 29.1821 159.249 29.455 159.626 29.7538C159.827 29.9266 160.33 30.101 160.606 30.2011L161.889 30.6484L163.195 31.0957C166.59 32.2649 168.5 33.5584 168.5 36.2439C168.5 39.5027 166.087 41.6407 161.643 41.6407C159.62 41.6375 157.935 41.1159 156.603 40.0711Z" fill="white"/>
<path d="M171.638 41.2645V23.8563H175.535V41.2645H171.638Z" fill="white"/>
<path d="M179.408 41.2645V23.8563H182.979L189.24 34.0735V23.8563H193.138V41.2645H189.567L183.306 31.0441V41.2645H179.408Z" fill="white"/>
<path d="M198.241 39.9467C197.085 38.8018 196.506 37.2854 196.506 35.3702V29.7505C196.506 25.7957 199.097 23.4833 203.546 23.4833C205.533 23.4833 207.138 24.0049 208.4 25.0739C209.662 26.1429 210.292 27.6367 210.292 29.5519H206.374C206.374 27.9855 205.167 27.0166 203.332 27.0166C201.396 27.0166 200.415 27.9855 200.415 29.5777V35.3654C200.415 36.9576 201.471 38.1009 203.282 38.1009C203.911 38.1136 204.533 37.9729 205.095 37.6912C205.656 37.4096 206.138 36.9957 206.5 36.4861V34.9439H203.482V31.74H210.292V41.2677H208.206L207.401 39.7255C206.521 40.8946 204.836 41.6407 203.025 41.6407C201.007 41.6375 199.423 41.0658 198.241 39.9467Z" fill="white"/>
<path d="M58.7969 61.6715V51.4139H60.7088V54.5823C61.2771 54.101 62.0067 53.847 62.7545 53.8701C64.3431 53.8701 65.4909 54.839 65.4909 56.6638V59.049C65.4909 60.8689 64.348 61.8427 62.7545 61.8427C62.3287 61.8455 61.9066 61.7647 61.5125 61.605C61.1185 61.4454 60.7604 61.21 60.459 60.9125L59.9006 61.6683L58.7969 61.6715ZM60.7088 59.33C61.2541 59.8677 61.7978 60.1374 62.3578 60.1374C62.5203 60.141 62.6819 60.1117 62.8326 60.0514C62.9833 59.991 63.12 59.9008 63.2342 59.7864C63.3484 59.6719 63.4378 59.5356 63.4968 59.3857C63.5558 59.2359 63.5832 59.0757 63.5774 58.9149V56.8156C63.5832 56.6549 63.5558 56.4947 63.4968 56.3449C63.4378 56.195 63.3484 56.0587 63.2342 55.9442C63.12 55.8297 62.9833 55.7395 62.8326 55.6792C62.6819 55.6188 62.5203 55.5896 62.3578 55.5932C61.7978 55.5932 61.2541 55.8548 60.7088 56.3925V59.33Z" fill="white" fill-opacity="0.54"/>
<path d="M68.2992 64.0001V63.3154L69.0208 61.6715L66.3726 54.9343V54.0477H68.1375L69.9629 59.1038L71.6838 54.0558H73.4193V54.9424L69.86 64.0082L68.2992 64.0001Z" fill="white" fill-opacity="0.54"/>
<path d="M77.5093 58.2237V54.9343C77.5093 52.6073 78.951 51.2686 81.5551 51.2686C82.6572 51.2686 83.5699 51.5738 84.2899 52.1696C85.0099 52.7655 85.3789 53.6537 85.3789 54.8325V54.9779H83.2907V54.8325C83.2907 53.7118 82.4743 53.1595 81.4212 53.1595C80.2016 53.1595 79.5975 53.7554 79.5975 54.7889V58.3691C79.5975 59.4026 80.2016 59.9985 81.4212 59.9985C82.4809 59.9985 83.2907 59.4752 83.2907 58.3255V58.1801H85.3789V58.3255C85.3789 59.5043 85.0115 60.4054 84.2899 61.0029C83.5682 61.6004 82.6572 61.8895 81.5551 61.8895C78.951 61.8895 77.5093 60.5572 77.5093 58.2237Z" fill="white" fill-opacity="0.54"/>
<path d="M86.7324 59.0231V56.6961C86.7324 55.0215 87.9243 53.8733 90.086 53.8733C92.2199 53.8733 93.4265 55.0215 93.4265 56.6961V59.0231C93.4265 60.6961 92.2199 61.8458 90.086 61.8458C87.9243 61.8491 86.7324 60.6961 86.7324 59.0231ZM91.513 58.9423V56.7833C91.513 56.084 91.0134 55.5899 90.086 55.5899C89.1586 55.5899 88.6443 56.0986 88.6443 56.7833V58.9423C88.6443 59.627 89.1456 60.1357 90.086 60.1357C91.0264 60.1357 91.513 59.6351 91.513 58.9423Z" fill="white" fill-opacity="0.54"/>
<path d="M95.0723 61.6715V54.0477H96.9825V61.6715H95.0723Z" fill="white" fill-opacity="0.54"/>
<path d="M98.9712 61.6714V54.0477H100.075L100.633 54.8034C100.932 54.5044 101.288 54.268 101.68 54.1082C102.073 53.9484 102.494 53.8685 102.919 53.8732C104.581 53.8732 105.597 54.9778 105.597 56.8268V61.6714H103.677V56.9431C103.677 56.0549 103.187 55.5898 102.486 55.5898C101.897 55.5898 101.368 55.8514 100.881 56.3892V61.6714H98.9712Z" fill="white" fill-opacity="0.54"/>
<path d="M108.062 61.0901C107.754 60.845 107.506 60.5345 107.337 60.1817C107.167 59.8289 107.08 59.4428 107.082 59.0521H108.979C109.053 59.7368 109.729 60.1292 110.775 60.1292C111.467 60.1292 111.908 59.8822 111.908 59.4833C111.908 59.2055 111.732 59.0311 111.394 58.9585L109.26 58.4207C107.921 58.0864 107.245 57.3727 107.245 56.3101C107.245 54.797 108.423 53.8668 110.378 53.8668C112.364 53.8668 113.57 54.8115 113.629 56.4845H111.711C111.667 55.8886 111.165 55.5834 110.225 55.5834C109.445 55.5834 109.092 55.845 109.092 56.1938C109.092 56.4409 109.312 56.6315 109.753 56.7332L111.946 57.2709C113.152 57.5616 113.755 58.2398 113.755 59.3363C113.755 60.8947 112.49 61.8394 110.534 61.8394C109.518 61.849 108.695 61.5987 108.062 61.0901Z" fill="white" fill-opacity="0.54"/>
<path d="M115.564 61.6716V51.4867H120.167C122.005 51.4867 123.124 52.7237 123.124 54.7019C123.124 56.6801 122.005 57.9025 120.167 57.9025H117.654V61.6716H115.564ZM117.654 56.0987H119.787C120.479 56.0987 121.008 55.6143 121.008 54.6873C121.008 53.7604 120.479 53.2905 119.787 53.2905H117.654V56.0987Z" fill="white" fill-opacity="0.54"/>
<path d="M124.523 61.25C124.033 60.8576 123.789 60.281 123.789 59.577C123.789 57.9912 124.848 57.103 126.907 57.103H128.494V56.6185C128.494 55.9338 128.083 55.585 127.258 55.585C126.434 55.585 126.022 55.9338 126.022 56.4571H124.156C124.156 54.8858 125.216 53.8733 127.258 53.8733C129.301 53.8733 130.408 54.9052 130.408 56.491V61.6714H129.31L128.75 60.9302C128.111 61.5342 127.256 61.8644 126.372 61.8491C125.704 61.8659 125.051 61.6543 124.523 61.25V61.25ZM128.494 59.388V58.5435H126.905C126.009 58.5435 125.699 58.9213 125.699 59.3299C125.699 59.8676 126.053 60.1373 126.773 60.1373C127.098 60.144 127.42 60.0804 127.717 59.951C128.015 59.8215 128.28 59.6294 128.494 59.388Z" fill="white" fill-opacity="0.54"/>
<path d="M132.321 61.6715V54.0477H134.233V61.6715H132.321Z" fill="white" fill-opacity="0.54"/>
<path d="M142.698 51.4139V61.6715H141.588L141.029 60.9158C140.728 61.2138 140.37 61.4498 139.976 61.61C139.582 61.7703 139.16 61.8515 138.734 61.8492C137.147 61.8492 136.004 60.8802 136.004 59.0522V56.6671C136.004 54.8471 137.147 53.8734 138.74 53.8734C139.485 53.8509 140.212 54.1036 140.78 54.5823V51.4139H142.698ZM140.786 56.3893C140.241 55.8516 139.697 55.59 139.137 55.59C138.974 55.5863 138.813 55.6156 138.662 55.676C138.511 55.7363 138.375 55.8265 138.261 55.941C138.146 56.0555 138.057 56.1918 137.998 56.3416C137.939 56.4915 137.912 56.6517 137.917 56.8124V58.9117C137.912 59.0724 137.939 59.2326 137.998 59.3825C138.057 59.5324 138.146 59.6687 138.261 59.7832C138.375 59.8976 138.511 59.9878 138.662 60.0482C138.813 60.1085 138.974 60.1378 139.137 60.1342C139.697 60.1342 140.241 59.8726 140.786 59.3268V56.3893Z" fill="white" fill-opacity="0.54"/>
</g>
<defs>
<clipPath id="clip0">
<rect width="217" height="64" fill="white"/>
</clipPath>
</defs>
</svg>
