<svg id="SvgjsSvg1310" xmlns="http://www.w3.org/2000/svg" version="1.1" xmlns:xlink="http://www.w3.org/1999/xlink" xmlns:svgjs="http://svgjs.com/svgjs" width="52" height="50" viewBox="0 0 52 50"><title>Фигура 5</title><desc>Created with Avocode.</desc><defs id="SvgjsDefs1311"></defs><path id="SvgjsPath1312" d="M693.765 1123.31C693.765 1123.31 699.233 1122.1799999999998 699.846 1119.1C700.4590000000001 1116.01 704.19 1115.6799999999998 704.19 1115.6799999999998C704.19 1115.6799999999998 707.533 1112.1299999999999 706.652 1108.34C705.7700000000001 1104.55 708.172 1102.53 708.172 1102.53C708.172 1102.53 709.01 1100.1299999999999 708.8960000000001 1098.17C708.7810000000001 1096.2 708.3890000000001 1094.53 708.3890000000001 1094.53L706.9410000000001 1097.1499999999999C706.9410000000001 1097.1499999999999 704.9850000000001 1090.4999999999998 705.2760000000002 1090.03C705.5670000000002 1089.55 705.7380000000002 1088.1499999999999 704.9860000000002 1086.76C704.2350000000002 1085.36 702.8140000000002 1083.7 702.8140000000002 1083.7L702.9590000000002 1086.25C702.9590000000002 1086.25 701.9640000000002 1083.34 701.0770000000002 1082.54C700.1900000000003 1081.74 699.4840000000003 1081.3799999999999 699.4840000000003 1081.3799999999999L699.8460000000002 1083.6999999999998Z " fill="#c9492f" fill-opacity="1" transform="matrix(1,0,0,1,-658,-1076)"></path><path id="SvgjsPath1313" d="M683.5 1076C697.031 1076 708 1086.97 708 1100.5C708 1114.03 697.031 1125 683.5 1125C669.969 1125 659 1114.03 659 1100.5C659 1086.97 669.969 1076 683.5 1076Z " fill="#2e8dd9" fill-opacity="1" transform="matrix(1,0,0,1,-658,-1076)"></path><path id="SvgjsPath1314" d="M683.657 1078.69C694.851 1078.69 705.086 1086.01 706.856 1096.79C708.939 1109.49 698.1179999999999 1121.1299999999999 683.657 1121.1299999999999C669.196 1121.1299999999999 658.375 1109.4899999999998 660.4580000000001 1096.79C662.2280000000001 1086.01 672.4620000000001 1078.69 683.657 1078.69Z " fill="#34a1f7" fill-opacity="1" transform="matrix(1,0,0,1,-658,-1076)"></path><path id="SvgjsPath1315" d="M674.652 1077.67C674.652 1077.67 672.917 1078.3500000000001 673.783 1078.6200000000001C674.648 1078.88 675.57 1079.22 674.796 1079.42C674.022 1079.6100000000001 673.2760000000001 1080 673.2760000000001 1080C673.2760000000001 1080 673.7950000000001 1079.7 673.2760000000001 1080.43C672.7570000000001 1081.16 672.691 1081.46 673.2040000000001 1081.45C673.716 1081.44 674.72 1081 674.796 1081.45C674.873 1081.9 677.3430000000001 1082.03 674.941 1082.4C672.539 1082.76 672.196 1082.3200000000002 672.407 1083.0500000000002C672.618 1083.7800000000002 672.844 1083.8500000000001 672.2620000000001 1084.2100000000003C671.6800000000001 1084.5700000000002 671.1460000000001 1084.5300000000002 671.176 1084.8700000000003C671.207 1085.2000000000003 672.1840000000001 1085.9400000000003 672.624 1085.9600000000003C673.065 1085.9700000000003 673.6460000000001 1086.4500000000003 672.842 1087.8500000000004C672.038 1089.2400000000005 672.091 1092.8400000000004 672.697 1093.6600000000003C673.303 1094.4800000000002 674.217 1095.9900000000002 674.217 1095.9900000000002C674.217 1095.9900000000002 683.563 1089.1300000000003 683.05 1090.6100000000001C682.536 1092.0900000000001 683.401 1092.8300000000002 681.674 1094.1000000000001C679.948 1095.3600000000001 678.574 1095.9800000000002 678.271 1096.2C677.9689999999999 1096.43 677.4029999999999 1097.15 677.4029999999999 1097.15L677.4749999999999 1098.3100000000002L677.3299999999999 1100.5600000000002C677.3299999999999 1100.5600000000002 676.3499999999999 1099.1100000000001 674.8689999999999 1099.8400000000001C673.3879999999999 1100.5600000000002 673.9859999999999 1101.68 673.8549999999999 1101.94C673.7239999999999 1102.21 677.2339999999999 1107.42 679.6469999999999 1106.6000000000001C682.06 1105.7700000000002 686.0559999999999 1104.7 686.597 1104.7800000000002C687.139 1104.8600000000001 688.082 1105.3600000000001 688.1899999999999 1105.7200000000003C688.2979999999999 1106.0900000000001 688.856 1107.0600000000002 688.4069999999999 1107.3200000000002C687.958 1107.5900000000001 688.1179999999999 1106.7500000000002 685.8729999999999 1108.0500000000002C683.6289999999999 1109.3500000000001 682.3549999999999 1110.1000000000001 680.299 1110.3700000000001C678.242 1110.65 676.824 1110.3700000000001 676.824 1110.3700000000001C676.824 1110.3700000000001 679.914 1113.24 680.516 1113.5000000000002C681.1179999999999 1113.7600000000002 685.511 1114.5200000000002 685.511 1114.5200000000002C685.511 1114.5200000000002 683.661 1113.7800000000002 684.7869999999999 1113.2100000000003C685.9129999999999 1112.6400000000003 686.685 1113.4500000000003 685.9459999999999 1112.5600000000002C685.2059999999999 1111.66 684.9959999999999 1110.66 685.511 1110.7400000000002C686.0269999999999 1110.8200000000002 685.453 1110.4600000000003 686.597 1110.9600000000003C687.741 1111.4500000000003 688.062 1111.2700000000002 687.973 1111.7600000000002C687.8839999999999 1112.2400000000002 687.703 1112.1800000000003 688.6239999999999 1112.3400000000001C689.5459999999999 1112.5000000000002 687.2109999999999 1112.14 689.4929999999999 1112.7700000000002C691.775 1113.4100000000003 692.896 1112.9200000000003 692.896 1112.9200000000003C692.896 1112.9200000000003 692.461 1111.0700000000004 692.606 1110.7400000000002C692.752 1110.4000000000003 692.292 1109.4200000000003 692.751 1109.1400000000003C693.211 1108.8600000000004 693.665 1110.2700000000004 693.475 1108.7000000000003C693.285 1107.1400000000003 693.813 1106.8200000000002 693.765 1106.3800000000003C693.717 1105.9300000000003 693.692 1104.7100000000003 693.692 1104.7100000000003C693.692 1104.7100000000003 692.927 1104.3900000000003 692.751 1104.8500000000004C692.5749999999999 1105.3100000000004 692.832 1105.6000000000004 692.172 1105.5800000000004C691.5120000000001 1105.5600000000004 691.025 1104.3700000000003 690.652 1103.9800000000005C690.278 1103.5900000000004 689.767 1103.9100000000005 689.855 1103.0300000000004C689.943 1102.1600000000005 690.678 1102.4700000000005 690.29 1101.8700000000003C689.9019999999999 1101.2700000000004 689.328 1100.5600000000004 689.4929999999999 1100.5600000000004C689.659 1100.5600000000004 689.8549999999999 1100.5600000000004 689.8549999999999 1100.5600000000004L690.0719999999999 1099.2600000000004C690.0719999999999 1099.2600000000004 688.7779999999999 1101.0100000000004 688.262 1101.3600000000004C687.747 1101.7200000000003 687.2489999999999 1101.8000000000004 687.2489999999999 1101.8000000000004L687.1759999999999 1100.5600000000004C687.1759999999999 1100.5600000000004 687.28 1100.3400000000004 686.887 1099.4700000000005C686.4929999999999 1098.6100000000006 686.452 1098.9200000000005 686.525 1098.1700000000005C686.597 1097.4100000000005 686.655 1097.0100000000004 687.683 1096.8600000000006C688.712 1096.7000000000005 689.14 1096.6300000000006 689.276 1097.0800000000006C689.4119999999999 1097.5200000000007 688.564 1097.3600000000006 689.4929999999999 1097.5800000000006C690.4229999999999 1097.8100000000006 689.9799999999999 1098.2900000000006 690.507 1097.8000000000006C691.0329999999999 1097.3100000000006 690.507 1096.4900000000007 690.507 1096.4900000000007C690.507 1096.4900000000007 690.2239999999999 1095.0000000000007 689.7829999999999 1094.9700000000007C689.3419999999999 1094.9400000000007 689.2649999999999 1095.3900000000008 688.6239999999999 1094.9000000000008C687.9839999999999 1094.4000000000008 687.5389999999999 1094.9800000000007 687.6109999999999 1093.9500000000007C687.6829999999999 1092.9200000000008 686.8529999999998 1092.8600000000008 687.7559999999999 1092.6400000000008C688.6579999999999 1092.4300000000007 688.4479999999999 1092.3200000000008 688.8419999999999 1092.3500000000008C689.2349999999999 1092.3800000000008 688.5699999999998 1093.5400000000009 689.2759999999998 1092.2800000000009C689.9819999999999 1091.020000000001 689.9199999999998 1091.010000000001 690.2899999999998 1091.1200000000008C690.6589999999999 1091.2300000000007 691.2699999999999 1092.1800000000007 691.6649999999998 1091.9200000000008C692.0609999999998 1091.6500000000008 692.3949999999999 1091.2000000000007 692.3169999999999 1091.6200000000008C692.2379999999999 1092.0500000000009 691.7399999999999 1092.5300000000009 692.3889999999999 1092.6400000000008C693.0379999999999 1092.7600000000007 693.1349999999999 1092.1600000000008 693.2579999999999 1092.7200000000007C693.381 1093.2700000000007 692.8419999999999 1093.4100000000008 693.6199999999999 1093.8100000000006C694.3979999999999 1094.2000000000007 694.6029999999998 1094.1500000000005 694.9949999999999 1094.7500000000007C695.3879999999999 1095.3500000000006 694.8769999999998 1095.4800000000007 695.6469999999999 1095.5500000000006C696.4169999999999 1095.6200000000006 696.6539999999999 1094.5200000000007 696.661 1095.7700000000007C696.6679999999999 1097.0100000000007 696.5379999999999 1097.2600000000007 696.8779999999999 1097.7300000000007C697.217 1098.2000000000007 696.689 1098.5300000000007 697.3849999999999 1098.6700000000008C698.0799999999999 1098.8200000000008 697.6549999999999 1099.0000000000007 698.4709999999999 1098.3800000000008C699.286 1097.770000000001 699.7649999999999 1098.7500000000007 699.3389999999999 1097.510000000001C698.9129999999999 1096.270000000001 698.7379999999999 1096.220000000001 698.688 1095.480000000001C698.638 1094.730000000001 698.953 1094.410000000001 699.05 1093.950000000001C699.1469999999999 1093.490000000001 699.7009999999999 1093.080000000001 699.7009999999999 1093.080000000001C699.7009999999999 1093.080000000001 699.4949999999999 1093.7300000000012 700.1359999999999 1092.790000000001C700.7759999999998 1091.840000000001 698.4509999999999 1089.4200000000012 697.6739999999999 1088.5000000000011C696.8969999999998 1087.580000000001 698.2149999999999 1088.050000000001 696.7329999999998 1088.060000000001C695.2509999999999 1088.070000000001 694.5609999999998 1088.2100000000012 694.5609999999998 1088.2100000000012C694.5609999999998 1088.2100000000012 694.3519999999999 1087.5000000000011 694.0539999999999 1087.2600000000011C693.7569999999998 1087.030000000001 693.8499999999999 1087.380000000001 692.6059999999999 1087.050000000001C691.3629999999998 1086.7100000000012 691.6349999999999 1086.900000000001 691.0139999999999 1086.540000000001C690.3929999999999 1086.1800000000012 690.2209999999999 1086.780000000001 690.3619999999999 1085.9600000000012C690.5029999999998 1085.1300000000012 691.3009999999998 1082.780000000001 691.8819999999998 1083.4900000000011C692.4639999999998 1084.1900000000012 692.6519999999998 1084.860000000001 693.3299999999998 1084.9400000000012C694.0089999999998 1085.0100000000011 694.2709999999998 1084.6500000000012 694.2709999999998 1084.6500000000012C694.2709999999998 1084.6500000000012 694.6719999999998 1084.5400000000013 694.5609999999998 1084.1400000000012C694.4499999999998 1083.7400000000011 694.8849999999998 1083.8700000000013 694.4159999999998 1083.5600000000013C693.9469999999998 1083.2500000000014 692.5469999999998 1083.4700000000014 692.5339999999999 1082.8300000000013C692.5209999999998 1082.1900000000012 692.9129999999999 1082.7100000000014 692.7509999999999 1082.0300000000013C692.5889999999998 1081.3600000000013 692.4379999999999 1081.1700000000014 692.3889999999999 1080.6500000000012C692.3399999999999 1080.1300000000012 692.5489999999999 1080.1800000000012 692.2439999999999 1079.7800000000013C691.939 1079.3800000000012 692.1949999999999 1079.5200000000013 691.882 1079.2000000000014C691.569 1078.8800000000015 691.021 1078.2900000000013 692.2439999999999 1078.4000000000015C693.468 1078.5100000000014 695.8749999999999 1079.6700000000014 697.747 1081.3100000000015C699.6179999999999 1082.9400000000016 701.669 1085.2500000000016 702.67 1088.4300000000014C703.67 1091.6000000000015 704.158 1113.2800000000013 695.8639999999999 1116.9900000000014C687.5699999999999 1120.6900000000014 673.5169999999999 1122.5400000000013 669.7289999999999 1110.3000000000013C665.9399999999999 1098.0600000000013 664.371 1086.4700000000014 664.371 1086.4700000000014C664.371 1086.4700000000014 666.915 1080.5900000000013 674.6519999999999 1077.6700000000014Z " fill="#208ce7" fill-opacity="1" transform="matrix(1,0,0,1,-658,-1076)"></path><path id="SvgjsPath1316" d="M680.733 1089.88C680.733 1089.88 682.962 1089.74 683.05 1090.39C683.1379999999999 1091.0300000000002 682.7099999999999 1092.64 681.891 1092.93C681.073 1093.22 680.733 1089.88 680.733 1089.88Z " fill="#713e3e" fill-opacity="1" transform="matrix(1,0,0,1,-658,-1076)"></path><path id="SvgjsPath1317" d="M661.475 1090.32C661.475 1090.32 661.226 1087.1699999999998 661.692 1085.08C662.158 1083 663.937 1081.09 663.937 1081.09C663.937 1081.09 663.734 1083.76 665.602 1084.79C667.47 1085.82 667.557 1086.3899999999999 667.557 1086.3899999999999C667.557 1086.3899999999999 675.238 1086.05 675.448 1087.4099999999999C675.658 1088.7699999999998 677.3829999999999 1090.2699999999998 679.14 1090.0299999999997C680.898 1089.7799999999997 681.754 1089.9999999999998 682.109 1090.7499999999998C682.4630000000001 1091.4999999999998 682.537 1092.5999999999997 681.964 1092.9299999999998C681.3900000000001 1093.2599999999998 679.398 1094.6599999999999 678.2710000000001 1095.2599999999998C677.1450000000001 1095.8499999999997 676.6790000000001 1096.7099999999998 676.6790000000001 1096.7099999999998Z " fill="#cf5029" fill-opacity="1" transform="matrix(1,0,0,1,-658,-1076)"></path><path id="SvgjsPath1318" d="M681.964 1093.01C681.3900000000001 1093.34 679.398 1094.74 678.2710000000001 1095.33C677.6460000000001 1095.6599999999999 677.225 1096.07 676.9730000000001 1096.37C676.431 1095.52 675.6650000000001 1094.1 675.6650000000001 1094.1C675.6650000000001 1094.1 676.1210000000001 1093.23 677.258 1092.86C678.394 1092.5 678.0740000000001 1092.7099999999998 679.864 1093.08C681.216 1093.36 682.0120000000001 1092.1 682.321 1091.46C682.457 1092.1000000000001 682.388 1092.76 681.964 1093.01Z " fill="#e89d55" fill-opacity="1" transform="matrix(1,0,0,1,-658,-1076)"></path><path id="SvgjsPath1319" d="M704.19 1111.97C702.7660000000001 1113.38 702.091 1115.1000000000001 702.091 1115.1000000000001C702.091 1115.1000000000001 702.134 1115.0700000000002 702.21 1115.0300000000002C701.615 1115.7400000000002 701.3670000000001 1116.1900000000003 701.3670000000001 1116.1900000000003C701.3670000000001 1116.1900000000003 703.1630000000001 1111.0400000000002 703.8280000000001 1108.1200000000003C704.493 1105.2000000000003 704.9140000000001 1096.7100000000003 704.9140000000001 1096.7100000000003C704.9140000000001 1096.7100000000003 702.926 1103.9700000000003 702.3080000000001 1104.7100000000003C701.6890000000001 1105.4400000000003 701.5420000000001 1105.8900000000003 700.4250000000001 1107.2500000000002C699.3090000000001 1108.6100000000001 697.7470000000001 1110.8100000000002 697.7470000000001 1110.8100000000002C697.7470000000001 1110.8100000000002 697.368 1108.4500000000003 697.4570000000001 1107.18C697.5230000000001 1106.24 697.3730000000002 1104.5 697.2900000000001 1103.66C697.3050000000001 1103.5900000000001 697.3120000000001 1103.5400000000002 697.3120000000001 1103.5400000000002L697.8910000000001 1104.9200000000003C697.8910000000001 1104.9200000000003 698.5620000000001 1102.4400000000003 698.6880000000001 1100.5600000000004C698.8130000000001 1098.6800000000003 698.1810000000002 1094.9700000000005 698.1810000000002 1094.9700000000005C698.1810000000002 1094.9700000000005 698.8710000000002 1095.3700000000006 699.4120000000001 1096.1300000000006C699.9520000000001 1096.8900000000006 700.4250000000002 1097.8700000000006 700.4250000000002 1097.8700000000006C700.4250000000002 1097.8700000000006 700.6060000000002 1094.5700000000006 699.4840000000002 1091.1200000000006C698.3630000000002 1087.6700000000005 695.2850000000002 1084.7900000000006 695.2850000000002 1084.7900000000006C695.2850000000002 1084.7900000000006 696.5930000000002 1084.9900000000007 697.6020000000002 1085.5200000000007C698.6110000000002 1086.0500000000006 699.7740000000002 1087.2600000000007 699.7740000000002 1087.2600000000007C699.7740000000002 1087.2600000000007 698.8410000000002 1085.0300000000007 697.1670000000003 1083.2700000000007C695.4930000000003 1081.5100000000007 692.4620000000002 1079.4200000000008 692.4620000000002 1079.4200000000008C692.4620000000002 1079.4200000000008 696.2920000000003 1080.3300000000008 699.9190000000002 1083.2700000000007C703.5450000000002 1086.2100000000007 704.7690000000002 1088.8600000000006 704.7690000000002 1088.8600000000006C704.7690000000002 1088.8600000000006 704.5940000000003 1087.6000000000006 704.3350000000003 1086.3900000000006C704.0760000000002 1085.1800000000005 703.0320000000003 1083.8500000000006 703.0320000000003 1083.8500000000006C703.0320000000003 1083.8500000000006 706.7220000000003 1087.2400000000007 707.3030000000002 1092.8600000000006C707.8840000000002 1098.4900000000007 706.2900000000002 1102.7400000000007 706.2900000000002 1102.7400000000007C706.2900000000002 1102.7400000000007 707.2600000000002 1102.0200000000007 708.1720000000001 1100.5600000000006C709.0840000000002 1099.1100000000006 708.4620000000001 1094.6000000000006 708.4620000000001 1094.6000000000006C708.4620000000001 1094.6000000000006 709.5710000000001 1098.0000000000007 708.6060000000001 1102.8900000000006C707.6410000000001 1107.7800000000007 705.6140000000001 1110.5700000000006 704.19 1111.9700000000005Z " fill="#f0d416" fill-opacity="1" transform="matrix(1,0,0,1,-658,-1076)"></path><path id="SvgjsPath1320" d="M691.665 1111.68L691.7379999999999 1112.1200000000001L692.679 1111.0300000000002C692.679 1111.0300000000002 692.5129999999999 1111.8000000000002 693.1859999999999 1111.8300000000002C693.858 1111.8500000000001 694.5229999999999 1110.5800000000002 695.5749999999999 1108.9900000000002C696.559 1107.5100000000002 697.222 1104.0300000000002 697.304 1103.5900000000001C697.603 1104.2200000000003 698.117 1105.4800000000002 698.1089999999999 1106.67C698.097 1108.3500000000001 697.819 1109.94 697.819 1109.94C697.819 1109.94 699.497 1108.31 700.063 1105.5800000000002C700.629 1102.8400000000001 700.353 1100.5600000000002 700.353 1100.5600000000002C700.353 1100.5600000000002 701.222 1101.8600000000001 701.367 1102.8200000000002C701.511 1103.7700000000002 701.584 1104.42 701.584 1104.42C701.584 1104.42 703.3599999999999 1102.54 703.9 1098.6000000000001C704.4399999999999 1094.66 703.611 1090.68 703.611 1090.68C703.611 1090.68 707.229 1096.8300000000002 705.638 1104.05C704.356 1109.87 703.166 1112.87 702.7520000000001 1113.82C702.307 1114.55 702.0910000000001 1115.1 702.0910000000001 1115.1C702.0910000000001 1115.1 703.4100000000001 1114.34 704.2620000000002 1113.79C705.1150000000001 1113.24 706.5790000000002 1111.17 706.5790000000002 1111.17C706.5790000000002 1111.17 705.9800000000001 1114.14 703.7560000000002 1116.48C701.5310000000002 1118.81 699.2220000000002 1119.77 697.5290000000002 1120.48C695.8370000000002 1121.18 693.1860000000003 1122.58 693.1860000000003 1122.58C693.1860000000003 1122.58 694.4190000000002 1122.54 696.1540000000002 1122.1499999999999C697.8890000000002 1121.7599999999998 698.7600000000002 1121.1299999999999 698.7600000000002 1121.1299999999999C698.7600000000002 1121.1299999999999 698.4090000000002 1121.4199999999998 697.8110000000003 1121.84C695.6140000000003 1122.77 693.4470000000002 1123.34 692.9680000000003 1123.31C692.3660000000003 1123.27 690.7240000000003 1122.58 690.7240000000003 1122.58L689.9280000000002 1121.4199999999998C689.9280000000002 1121.4199999999998 685.8660000000002 1120.4899999999998 685.0050000000002 1120.33C684.1430000000003 1120.1699999999998 684.8600000000002 1117.72 684.8600000000002 1117.72L680.5880000000002 1114.52C680.5880000000002 1114.52 681.8890000000002 1114 685.1490000000002 1114.15C687.4510000000002 1114.26 689.0640000000002 1113.5700000000002 689.8140000000002 1113.15L689.6380000000001 1113.5C689.6380000000001 1113.5 690.3680000000002 1113.19 690.9410000000001 1112.63C691.5150000000001 1112.0700000000002 691.6650000000002 1111.68 691.6650000000002 1111.68Z " fill="#f09116" fill-opacity="1" transform="matrix(1,0,0,1,-658,-1076)"></path><path id="SvgjsPath1321" d="M690 1112.77L689.691 1113.3899999999999C689.081 1113.9299999999998 688.0110000000001 1114.58 686.308 1114.7399999999998C683.28 1115.0199999999998 682.615 1115.0299999999997 682.615 1115.0299999999997C682.615 1115.0299999999997 682.576 1116.3299999999997 686.018 1116.4799999999998C689.46 1116.6299999999999 690.072 1116.1899999999998 690.072 1116.1899999999998C690.072 1116.1899999999998 689.616 1117.11 688.118 1117.86C686.62 1118.62 686.091 1118.7299999999998 686.091 1118.7299999999998C686.091 1118.7299999999998 689.107 1119.5599999999997 692.679 1118.37C696.251 1117.1799999999998 699.4119999999999 1113.35 699.4119999999999 1113.35C699.4119999999999 1113.35 698.9689999999999 1117.1899999999998 696.4429999999999 1118.8799999999999C693.9179999999999 1120.57 690.8689999999999 1121.4899999999998 690.8689999999999 1121.4899999999998C690.8689999999999 1121.4899999999998 691.6759999999999 1121.8099999999997 693.3299999999999 1121.2799999999997C694.9839999999999 1120.7399999999998 695.8639999999999 1120.3299999999997 695.8639999999999 1120.3299999999997C695.8639999999999 1120.3299999999997 694.8609999999999 1121.5399999999997 693.569 1122.3799999999997C693.329 1122.5099999999998 693.1859999999999 1122.5799999999997 693.1859999999999 1122.5799999999997C693.1859999999999 1122.5799999999997 693.2069999999999 1122.5799999999997 693.2479999999999 1122.5799999999997C693.1909999999999 1122.6099999999997 693.1349999999999 1122.6499999999996 693.0769999999999 1122.6799999999996C691.9469999999999 1123.0399999999995 691.1869999999999 1123.2999999999995 692.0269999999999 1123.0899999999997C692.382 1123.0099999999998 692.7359999999999 1122.8599999999997 693.0769999999999 1122.6799999999996C693.1859999999999 1122.6399999999996 693.2969999999999 1122.6099999999997 693.4109999999998 1122.5699999999997C693.8429999999998 1122.5399999999997 694.8579999999998 1122.4399999999996 696.1539999999999 1122.1499999999996C697.8889999999999 1121.7599999999995 698.7599999999999 1121.1299999999997 698.7599999999999 1121.1299999999997C698.7599999999999 1121.1299999999997 695.2979999999999 1124.0099999999998 691.5199999999999 1124.7599999999998C687.7419999999998 1125.5199999999998 684.2079999999999 1125.3499999999997 684.2079999999999 1125.3499999999997L685.0049999999999 1125.9999999999998C685.0049999999999 1125.9999999999998 683.9439999999998 1125.9199999999998 682.3979999999999 1125.7099999999998C680.8519999999999 1125.4999999999998 678.271 1124.84 678.271 1124.84L679.5749999999999 1125.78C679.5749999999999 1125.78 672.1999999999999 1124.29 665.747 1118.08C659.293 1111.86 659.014 1103.83 659.014 1103.83L658.5070000000001 1105.51C658.5070000000001 1105.51 658.306 1103.71 658.3620000000001 1101.8C658.4180000000001 1099.8899999999999 659.0860000000001 1097.08 659.0860000000001 1097.08L658.0000000000001 1099.26C658.0000000000001 1099.26 658.9720000000001 1092.98 661.4030000000001 1089.74C663.8330000000001 1086.49 667.4440000000002 1085.38 669.3670000000002 1085.3C671.2890000000002 1085.23 672.6240000000001 1085.74 672.6240000000001 1085.74L673.3480000000002 1085.01L673.5660000000001 1085.16L674.7960000000002 1083.78L674.9410000000001 1084.07L676.8240000000002 1082.8999999999999L676.9680000000002 1083.1899999999998C676.9680000000002 1083.1899999999998 677.0920000000002 1083.0099999999998 677.9820000000002 1082.83C678.8710000000002 1082.6599999999999 679.2130000000002 1082.8999999999999 679.2130000000002 1082.8999999999999L678.4160000000002 1083.1899999999998L678.7780000000001 1083.4099999999999C678.7780000000001 1083.4099999999999 678.6990000000002 1083.4299999999998 678.5600000000002 1083.5099999999998C678.0690000000002 1083.7799999999997 676.8330000000002 1084.8199999999997 675.7380000000002 1088.6499999999999C674.3330000000002 1093.55 677.6200000000001 1096.1999999999998 677.6200000000001 1096.1999999999998L677.4030000000001 1096.35C677.4030000000001 1096.35 677.5050000000001 1097.1799999999998 677.5470000000001 1097.37C677.5900000000001 1097.55 677.4750000000001 1098.6 677.4750000000001 1098.6L676.7510000000001 1098.3799999999999L677.258 1099.26C677.258 1099.26 676.662 1098.84 676.027 1098.6C675.558 1098.4299999999998 675.585 1098.6699999999998 675.63 1098.81C675.568 1098.71 675.398 1098.55 674.941 1098.6C674.27 1098.6699999999998 673.114 1100.86 676.244 1103.62C679.375 1106.37 682.953 1103.32 685.294 1103.3999999999999C687.635 1103.4799999999998 688.886 1104.6999999999998 688.986 1105.5099999999998C689.087 1106.3099999999997 688.032 1106.4099999999999 687.683 1106.3799999999997C687.334 1106.3499999999997 687.185 1106.4399999999996 685.873 1107.0999999999997C684.561 1107.7699999999998 684.522 1108.4099999999996 682.326 1109.2099999999996C680.129 1110.0099999999995 676.8240000000001 1109.5799999999995 676.8240000000001 1109.5799999999995C676.8240000000001 1109.5799999999995 676.9340000000001 1109.8499999999995 677.9820000000001 1110.8099999999995C679.0300000000001 1111.7699999999995 680.0450000000001 1111.8099999999995 680.878 1111.9699999999996C681.71 1112.1299999999997 682.3190000000001 1112.4599999999996 681.8910000000001 1112.4099999999996C681.464 1112.3599999999997 680.5880000000001 1112.5599999999997 680.5880000000001 1112.5599999999997C680.5880000000001 1112.5599999999997 682.3270000000001 1113.5099999999998 685.2220000000001 1113.7199999999998C688.1170000000001 1113.9299999999998 690.0000000000001 1112.7699999999998 690.0000000000001 1112.7699999999998ZM675.665 1098.89C675.665 1098.89 675.66 1098.8600000000001 675.63 1098.8100000000002C675.647 1098.8600000000001 675.665 1098.89 675.665 1098.89Z " fill="#f36c37" fill-opacity="1" transform="matrix(1,0,0,1,-658,-1076)"></path><path id="SvgjsPath1322" d="M685.294 1103.47C687.635 1103.55 688.886 1104.77 688.986 1105.58C689.087 1106.3799999999999 688.032 1106.48 687.683 1106.4499999999998C687.334 1106.4199999999998 687.185 1106.5099999999998 685.873 1107.1799999999998C684.561 1107.84 684.522 1108.4899999999998 682.326 1109.2799999999997C680.129 1110.0799999999997 676.8240000000001 1109.6499999999996 676.8240000000001 1109.6499999999996C676.8240000000001 1109.6499999999996 676.83 1109.6599999999996 676.8530000000001 1109.6999999999996C673.5880000000001 1108.5499999999995 671.032 1105.5099999999995 671.032 1105.5099999999995L670.6700000000001 1107.8299999999995C670.6700000000001 1107.8299999999995 669.5920000000001 1106.6499999999994 669.5110000000001 1105.4299999999994C669.4300000000001 1104.2099999999994 668.8940000000001 1100.6399999999994 671.9730000000001 1099.1799999999994C673.869 1098.2899999999993 674.8560000000001 1098.4399999999994 675.3360000000001 1098.6899999999994C675.2370000000001 1098.6699999999994 675.1080000000002 1098.6599999999994 674.9410000000001 1098.6699999999994C674.2700000000001 1098.7499999999993 673.1140000000001 1100.9399999999994 676.2440000000001 1103.6899999999994C679.3750000000001 1106.4399999999994 682.9530000000001 1103.3899999999994 685.2940000000001 1103.4699999999993ZM675.643 1098.92C675.655 1098.95 675.6650000000001 1098.97 675.6650000000001 1098.97C675.6650000000001 1098.97 675.6630000000001 1098.95 675.6530000000001 1098.93C675.6500000000001 1098.92 675.6460000000002 1098.92 675.6430000000001 1098.92Z " fill="#cf5029" fill-opacity="1" transform="matrix(1,0,0,1,-658,-1076)"></path><path id="SvgjsPath1323" d="M687.683 1106.38C687.568 1106.3700000000001 687.475 1106.3700000000001 687.355 1106.4C686.46 1106.13 685.025 1105.8500000000001 683.1220000000001 1106.6000000000001C680.307 1107.7 675.6560000000001 1108.8700000000001 673.2760000000001 1104.92C671.215 1101.51 673.09 1098.5700000000002 674.8180000000001 1098.64C674.1490000000001 1098.93 673.2990000000001 1101.0300000000002 676.2440000000001 1103.6200000000001C679.3750000000001 1106.3700000000001 682.9530000000001 1103.3200000000002 685.2940000000001 1103.4C687.6350000000001 1103.48 688.8860000000001 1104.7 688.9860000000001 1105.51C689.0870000000001 1106.31 688.0320000000002 1106.41 687.6830000000001 1106.3799999999999Z " fill="#e67b25" fill-opacity="1" transform="matrix(1,0,0,1,-658,-1076)"></path></svg>