<svg id="SvgjsSvg1358" xmlns="http://www.w3.org/2000/svg" version="1.1" xmlns:xlink="http://www.w3.org/1999/xlink" xmlns:svgjs="http://svgjs.com/svgjs" width="81" height="110" viewBox="0 0 81 110"><title>Rounded Rectangle 7 copy</title><desc>Created with Avocode.</desc><defs id="SvgjsDefs1359"><clipPath id="SvgjsClipPath1365"><path id="SvgjsPath1364" d="M611 1494L656 1494C662.627 1494 668 1499.37 668 1506L668 1550C668 1556.63 662.627 1562 656 1562L611 1562C604.373 1562 599 1556.63 599 1550L599 1506C599 1499.37 604.373 1494 611 1494Z " fill="#ffffff"></path></clipPath><clipPath id="SvgjsClipPath1389"><path id="SvgjsPath1388" d="M623 1494L668 1494C674.627 1494 680 1499.37 680 1506L680 1550C680 1556.63 674.627 1562 668 1562L623 1562C616.373 1562 611 1556.63 611 1550L611 1506C611 1499.37 616.373 1494 623 1494Z " fill="#ffffff"></path></clipPath><clipPath id="SvgjsClipPath1393"><path id="SvgjsPath1392" d="M645 1513L647 1513C649.761 1513 652 1515.24 652 1518L652 1520C652 1522.00934 650.81329 1523.74308 649.10241 1524.53751L652.71798 1538.1671500000002C653.42602 1540.8362600000003 651.76143 1543.0000000000002 649 1543.0000000000002L643.164 1543.0000000000002C640.40258 1543.0000000000002 638.73798 1540.8362600000003 639.44602 1538.1671500000002L643.04428 1524.6027700000002C641.25491 1523.8411100000003 640 1522.0662800000002 640 1520.0000000000002L640 1518.0000000000002C640 1515.2400000000002 642.239 1513.0000000000002 645 1513.0000000000002Z " fill="#ffffff"></path></clipPath></defs><path id="SvgjsPath1360" d="M656.934 1534.3C656.967 1533.87 657 1533.44 657 1533L657 1479C657 1469.61 649.389 1462 640 1462C630.611 1462 623 1469.61 623 1479L623 1533C623 1533.44 623.033 1533.87 623.066 1534.3C617.518 1529.53 614 1522.47 614 1514.58L614 1479C614 1464.64 625.641 1453 640 1453C654.359 1453 666 1464.64 666 1479L666 1514.58C666 1522.47 662.482 1529.53 656.934 1534.3Z " fill="#f2be58" fill-opacity="1" transform="matrix(1,0,0,1,-599,-1452)"></path><path id="SvgjsPath1361" d="M656.934 1534.3C656.967 1533.87 657 1533.44 657 1533L657 1479C657 1469.61 649.389 1462 640 1462C630.611 1462 623 1469.61 623 1479L623 1533C623 1533.44 623.033 1533.87 623.066 1534.3C617.518 1529.53 614 1522.47 614 1514.58L614 1479C614 1464.64 625.641 1453 640 1453C654.359 1453 666 1464.64 666 1479L666 1514.58C666 1522.47 662.482 1529.53 656.934 1534.3Z " fill-opacity="0" fill="#ffffff" stroke-dasharray="0" stroke-linejoin="round" stroke-linecap="round" stroke-opacity="1" stroke="#262626" stroke-miterlimit="50" stroke-width="2" transform="matrix(1,0,0,1,-599,-1452)"></path><path id="SvgjsPath1362" d="M611 1494L656 1494C662.627 1494 668 1499.37 668 1506L668 1550C668 1556.63 662.627 1562 656 1562L611 1562C604.373 1562 599 1556.63 599 1550L599 1506C599 1499.37 604.373 1494 611 1494Z " fill="#e5954e" fill-opacity="1" transform="matrix(1,0,0,1,-599,-1452)"></path><path id="SvgjsPath1363" d="M611 1494L656 1494C662.627 1494 668 1499.37 668 1506L668 1550C668 1556.63 662.627 1562 656 1562L611 1562C604.373 1562 599 1556.63 599 1550L599 1506C599 1499.37 604.373 1494 611 1494Z " fill-opacity="0" fill="#ffffff" stroke-dasharray="0" stroke-linejoin="round" stroke-linecap="round" stroke-opacity="1" stroke="#262626" stroke-miterlimit="50" stroke-width="4" clip-path="url(&quot;#SvgjsClipPath1365&quot;)" transform="matrix(1,0,0,1,-599,-1452)"></path><path id="SvgjsPath1366" d="M602 1500L614 1500 " fill="#e5b354" fill-opacity="1" transform="matrix(1,0,0,1,-599,-1452)"></path><path id="SvgjsPath1367" d="M602 1500L614 1500 " fill-opacity="0" fill="#ffffff" stroke-dasharray="0" stroke-linejoin="round" stroke-linecap="round" stroke-opacity="1" stroke="#262626" stroke-miterlimit="50" stroke-width="2" transform="matrix(1,0,0,1,-599,-1452)"></path><path id="SvgjsPath1368" d="M602 1506L614 1506 " fill="#e5b354" fill-opacity="1" transform="matrix(1,0,0,1,-599,-1452)"></path><path id="SvgjsPath1369" d="M602 1506L614 1506 " fill-opacity="0" fill="#ffffff" stroke-dasharray="0" stroke-linejoin="round" stroke-linecap="round" stroke-opacity="1" stroke="#262626" stroke-miterlimit="50" stroke-width="2" transform="matrix(1,0,0,1,-599,-1452)"></path><path id="SvgjsPath1370" d="M602 1512L614 1512 " fill="#e5b354" fill-opacity="1" transform="matrix(1,0,0,1,-599,-1452)"></path><path id="SvgjsPath1371" d="M602 1512L614 1512 " fill-opacity="0" fill="#ffffff" stroke-dasharray="0" stroke-linejoin="round" stroke-linecap="round" stroke-opacity="1" stroke="#262626" stroke-miterlimit="50" stroke-width="2" transform="matrix(1,0,0,1,-599,-1452)"></path><path id="SvgjsPath1372" d="M602 1518L614 1518 " fill="#e5b354" fill-opacity="1" transform="matrix(1,0,0,1,-599,-1452)"></path><path id="SvgjsPath1373" d="M602 1518L614 1518 " fill-opacity="0" fill="#ffffff" stroke-dasharray="0" stroke-linejoin="round" stroke-linecap="round" stroke-opacity="1" stroke="#262626" stroke-miterlimit="50" stroke-width="2" transform="matrix(1,0,0,1,-599,-1452)"></path><path id="SvgjsPath1374" d="M602 1524L614 1524 " fill="#e5b354" fill-opacity="1" transform="matrix(1,0,0,1,-599,-1452)"></path><path id="SvgjsPath1375" d="M602 1524L614 1524 " fill-opacity="0" fill="#ffffff" stroke-dasharray="0" stroke-linejoin="round" stroke-linecap="round" stroke-opacity="1" stroke="#262626" stroke-miterlimit="50" stroke-width="2" transform="matrix(1,0,0,1,-599,-1452)"></path><path id="SvgjsPath1376" d="M602 1530L614 1530 " fill="#e5b354" fill-opacity="1" transform="matrix(1,0,0,1,-599,-1452)"></path><path id="SvgjsPath1377" d="M602 1530L614 1530 " fill-opacity="0" fill="#ffffff" stroke-dasharray="0" stroke-linejoin="round" stroke-linecap="round" stroke-opacity="1" stroke="#262626" stroke-miterlimit="50" stroke-width="2" transform="matrix(1,0,0,1,-599,-1452)"></path><path id="SvgjsPath1378" d="M602 1536L614 1536 " fill="#e5b354" fill-opacity="1" transform="matrix(1,0,0,1,-599,-1452)"></path><path id="SvgjsPath1379" d="M602 1536L614 1536 " fill-opacity="0" fill="#ffffff" stroke-dasharray="0" stroke-linejoin="round" stroke-linecap="round" stroke-opacity="1" stroke="#262626" stroke-miterlimit="50" stroke-width="2" transform="matrix(1,0,0,1,-599,-1452)"></path><path id="SvgjsPath1380" d="M602 1542L614 1542 " fill="#e5b354" fill-opacity="1" transform="matrix(1,0,0,1,-599,-1452)"></path><path id="SvgjsPath1381" d="M602 1542L614 1542 " fill-opacity="0" fill="#ffffff" stroke-dasharray="0" stroke-linejoin="round" stroke-linecap="round" stroke-opacity="1" stroke="#262626" stroke-miterlimit="50" stroke-width="2" transform="matrix(1,0,0,1,-599,-1452)"></path><path id="SvgjsPath1382" d="M602 1548L614 1548 " fill="#e5b354" fill-opacity="1" transform="matrix(1,0,0,1,-599,-1452)"></path><path id="SvgjsPath1383" d="M602 1548L614 1548 " fill-opacity="0" fill="#ffffff" stroke-dasharray="0" stroke-linejoin="round" stroke-linecap="round" stroke-opacity="1" stroke="#262626" stroke-miterlimit="50" stroke-width="2" transform="matrix(1,0,0,1,-599,-1452)"></path><path id="SvgjsPath1384" d="M602 1554L614 1554 " fill="#e5b354" fill-opacity="1" transform="matrix(1,0,0,1,-599,-1452)"></path><path id="SvgjsPath1385" d="M602 1554L614 1554 " fill-opacity="0" fill="#ffffff" stroke-dasharray="0" stroke-linejoin="round" stroke-linecap="round" stroke-opacity="1" stroke="#262626" stroke-miterlimit="50" stroke-width="2" transform="matrix(1,0,0,1,-599,-1452)"></path><path id="SvgjsPath1386" d="M623 1494L668 1494C674.627 1494 680 1499.37 680 1506L680 1550C680 1556.63 674.627 1562 668 1562L623 1562C616.373 1562 611 1556.63 611 1550L611 1506C611 1499.37 616.373 1494 623 1494Z " fill="#f2be58" fill-opacity="1" transform="matrix(1,0,0,1,-599,-1452)"></path><path id="SvgjsPath1387" d="M623 1494L668 1494C674.627 1494 680 1499.37 680 1506L680 1550C680 1556.63 674.627 1562 668 1562L623 1562C616.373 1562 611 1556.63 611 1550L611 1506C611 1499.37 616.373 1494 623 1494Z " fill-opacity="0" fill="#ffffff" stroke-dasharray="0" stroke-linejoin="round" stroke-linecap="round" stroke-opacity="1" stroke="#262626" stroke-miterlimit="50" stroke-width="4" clip-path="url(&quot;#SvgjsClipPath1389&quot;)" transform="matrix(1,0,0,1,-599,-1452)"></path><path id="SvgjsPath1390" d="M645 1513L647 1513C649.761 1513 652 1515.24 652 1518L652 1520C652 1522.00934 650.81329 1523.74308 649.10241 1524.53751L652.71798 1538.1671500000002C653.42602 1540.8362600000003 651.76143 1543.0000000000002 649 1543.0000000000002L643.164 1543.0000000000002C640.40258 1543.0000000000002 638.73798 1540.8362600000003 639.44602 1538.1671500000002L643.04428 1524.6027700000002C641.25491 1523.8411100000003 640 1522.0662800000002 640 1520.0000000000002L640 1518.0000000000002C640 1515.2400000000002 642.239 1513.0000000000002 645 1513.0000000000002Z " fill="#e5954e" fill-opacity="1" transform="matrix(1,0,0,1,-599,-1452)"></path><path id="SvgjsPath1391" d="M645 1513L647 1513C649.761 1513 652 1515.24 652 1518L652 1520C652 1522.00934 650.81329 1523.74308 649.10241 1524.53751L652.71798 1538.1671500000002C653.42602 1540.8362600000003 651.76143 1543.0000000000002 649 1543.0000000000002L643.164 1543.0000000000002C640.40258 1543.0000000000002 638.73798 1540.8362600000003 639.44602 1538.1671500000002L643.04428 1524.6027700000002C641.25491 1523.8411100000003 640 1522.0662800000002 640 1520.0000000000002L640 1518.0000000000002C640 1515.2400000000002 642.239 1513.0000000000002 645 1513.0000000000002Z " fill-opacity="0" fill="#ffffff" stroke-dasharray="0" stroke-linejoin="round" stroke-linecap="round" stroke-opacity="1" stroke="#262626" stroke-miterlimit="50" stroke-width="4" clip-path="url(&quot;#SvgjsClipPath1393&quot;)" transform="matrix(1,0,0,1,-599,-1452)"></path></svg>