<svg id="SvgjsSvg1324" xmlns="http://www.w3.org/2000/svg" version="1.1" xmlns:xlink="http://www.w3.org/1999/xlink" xmlns:svgjs="http://svgjs.com/svgjs" width="140" height="99" viewBox="0 0 140 99"><title>Shape 80 copy</title><desc>Created with Avocode.</desc><defs id="SvgjsDefs1325"><clipPath id="SvgjsClipPath1329"><path id="SvgjsPath1328" d="M368.03 1540.06L375 1554L367 1556L362 1562L350.185 1549.4C343.224 1551.71 335.557 1553 327.5 1553C318.856 1553 310.676 1551.5 303.324 1548.85L291 1562L286 1556L278 1554L285.548 1538.9C280.657 1534.8600000000001 276.682 1530.24 274 1525L274 1525C274 1525 271.184 1522.01 268 1520C264.816 1517.99 261 1518 261 1518L261 1491C261 1491 272.283 1491.4 277.693 1486.27C279.277 1484.15 281.103 1482.16 283.101 1480.28C282.293 1478.37 281.391 1476.56 280.427 1475.18C276.831 1470.02 273 1467.0800000000002 273 1467.0800000000002C273 1467.0800000000002 287.277 1460.5400000000002 297.195 1470.7100000000003C305.995 1466.4700000000003 316.368 1464.0000000000002 327.5 1464.0000000000002C359.256 1464.0000000000002 385 1483.9200000000003 385 1508.5000000000002C385 1520.8400000000001 378.51 1532.0000000000002 368.03 1540.0600000000002Z " fill="#ffffff"></path></clipPath><clipPath id="SvgjsClipPath1333"><path id="SvgjsPath1332" d="M285 1492C286.105 1492 287 1492.9 287 1494C287 1495.1 286.105 1496 285 1496C283.895 1496 283 1495.1 283 1494C283 1492.9 283.895 1492 285 1492Z " fill="#ffffff"></path></clipPath><clipPath id="SvgjsClipPath1345"><path id="SvgjsPath1344" d="M322.211 1473.58C322.211 1473.58 331.293 1471.04 343.943 1474.52C356.592 1478 361.88399999999996 1484.29 361.88399999999996 1484.29L358.39399999999995 1488.52C358.39399999999995 1488.52 352.62399999999997 1482.15 340.90899999999993 1479.8899999999999C329.19499999999994 1477.6299999999999 324.2799999999999 1479.37 324.2799999999999 1479.37Z " fill="#ffffff"></path></clipPath><clipPath id="SvgjsClipPath1349"><path id="SvgjsPath1348" d="M262.5 1491C266.09 1491 269 1497.04 269 1504.5C269 1511.96 266.09 1518 262.5 1518C258.91 1518 256 1511.96 256 1504.5C256 1497.04 258.91 1491 262.5 1491Z " fill="#ffffff"></path></clipPath><clipPath id="SvgjsClipPath1353"><path id="SvgjsPath1352" d="M260 1500C260.552 1500 261 1500.9 261 1502C261 1503.1 260.552 1504 260 1504C259.448 1504 259 1503.1 259 1502C259 1500.9 259.448 1500 260 1500Z " fill="#ffffff"></path></clipPath><clipPath id="SvgjsClipPath1357"><path id="SvgjsPath1356" d="M264 1500C264.552 1500 265 1500.9 265 1502C265 1503.1 264.552 1504 264 1504C263.448 1504 263 1503.1 263 1502C263 1500.9 263.448 1500 264 1500Z " fill="#ffffff"></path></clipPath></defs><path id="SvgjsPath1326" d="M368.03 1540.06L375 1554L367 1556L362 1562L350.185 1549.4C343.224 1551.71 335.557 1553 327.5 1553C318.856 1553 310.676 1551.5 303.324 1548.85L291 1562L286 1556L278 1554L285.548 1538.9C280.657 1534.8600000000001 276.682 1530.24 274 1525L274 1525C274 1525 271.184 1522.01 268 1520C264.816 1517.99 261 1518 261 1518L261 1491C261 1491 272.283 1491.4 277.693 1486.27C279.277 1484.15 281.103 1482.16 283.101 1480.28C282.293 1478.37 281.391 1476.56 280.427 1475.18C276.831 1470.02 273 1467.0800000000002 273 1467.0800000000002C273 1467.0800000000002 287.277 1460.5400000000002 297.195 1470.7100000000003C305.995 1466.4700000000003 316.368 1464.0000000000002 327.5 1464.0000000000002C359.256 1464.0000000000002 385 1483.9200000000003 385 1508.5000000000002C385 1520.8400000000001 378.51 1532.0000000000002 368.03 1540.0600000000002Z " fill="#ffaba2" fill-opacity="1" transform="matrix(1,0,0,1,-256,-1463)"></path><path id="SvgjsPath1327" d="M368.03 1540.06L375 1554L367 1556L362 1562L350.185 1549.4C343.224 1551.71 335.557 1553 327.5 1553C318.856 1553 310.676 1551.5 303.324 1548.85L291 1562L286 1556L278 1554L285.548 1538.9C280.657 1534.8600000000001 276.682 1530.24 274 1525L274 1525C274 1525 271.184 1522.01 268 1520C264.816 1517.99 261 1518 261 1518L261 1491C261 1491 272.283 1491.4 277.693 1486.27C279.277 1484.15 281.103 1482.16 283.101 1480.28C282.293 1478.37 281.391 1476.56 280.427 1475.18C276.831 1470.02 273 1467.0800000000002 273 1467.0800000000002C273 1467.0800000000002 287.277 1460.5400000000002 297.195 1470.7100000000003C305.995 1466.4700000000003 316.368 1464.0000000000002 327.5 1464.0000000000002C359.256 1464.0000000000002 385 1483.9200000000003 385 1508.5000000000002C385 1520.8400000000001 378.51 1532.0000000000002 368.03 1540.0600000000002Z " fill-opacity="0" fill="#ffffff" stroke-dasharray="0" stroke-linejoin="round" stroke-linecap="round" stroke-opacity="1" stroke="#262626" stroke-miterlimit="50" stroke-width="4" clip-path="url(&quot;#SvgjsClipPath1329&quot;)" transform="matrix(1,0,0,1,-256,-1463)"></path><path id="SvgjsPath1330" d="M285 1492C286.105 1492 287 1492.9 287 1494C287 1495.1 286.105 1496 285 1496C283.895 1496 283 1495.1 283 1494C283 1492.9 283.895 1492 285 1492Z " fill="#ffaba2" fill-opacity="1" transform="matrix(1,0,0,1,-256,-1463)"></path><path id="SvgjsPath1331" d="M285 1492C286.105 1492 287 1492.9 287 1494C287 1495.1 286.105 1496 285 1496C283.895 1496 283 1495.1 283 1494C283 1492.9 283.895 1492 285 1492Z " fill-opacity="0" fill="#ffffff" stroke-dasharray="0" stroke-linejoin="round" stroke-linecap="round" stroke-opacity="1" stroke="#262626" stroke-miterlimit="50" stroke-width="4" clip-path="url(&quot;#SvgjsClipPath1333&quot;)" transform="matrix(1,0,0,1,-256,-1463)"></path><path id="SvgjsPath1334" d="M382 1496C382 1496 392.053 1495.69 391 1491C389.947 1486.31 378.807 1492.86 395 1499 " fill="#ffaba2" fill-opacity="0" transform="matrix(1,0,0,1,-256,-1463)"></path><path id="SvgjsPath1335" d="M382 1496C382 1496 392.053 1495.69 391 1491C389.947 1486.31 378.807 1492.86 395 1499 " fill-opacity="0" fill="#ffffff" stroke-dasharray="0" stroke-linejoin="round" stroke-linecap="round" stroke-opacity="1" stroke="#262626" stroke-miterlimit="50" stroke-width="2" transform="matrix(1,0,0,1,-256,-1463)"></path><path id="SvgjsPath1336" d="M291 1480C291 1480 295.045 1478.09 297 1474C298.399 1471.07 300 1464 300 1464C300 1464 311.89 1475.04 308 1488 " fill="#ffaba2" fill-opacity="1" transform="matrix(1,0,0,1,-256,-1463)"></path><path id="SvgjsPath1337" d="M291 1480C291 1480 295.045 1478.09 297 1474C298.399 1471.07 300 1464 300 1464C300 1464 311.89 1475.04 308 1488 " fill-opacity="0" fill="#ffffff" stroke-dasharray="0" stroke-linejoin="round" stroke-linecap="round" stroke-opacity="1" stroke="#262626" stroke-miterlimit="50" stroke-width="2" transform="matrix(1,0,0,1,-256,-1463)"></path><path id="SvgjsPath1338" d="M284 1545C284 1545 287.97 1551.69 297 1554 " fill="#ffaba2" fill-opacity="1" transform="matrix(1,0,0,1,-256,-1463)"></path><path id="SvgjsPath1339" d="M284 1545C284 1545 287.97 1551.69 297 1554 " fill-opacity="0" fill="#ffffff" stroke-dasharray="0" stroke-linejoin="round" stroke-linecap="round" stroke-opacity="1" stroke="#262626" stroke-miterlimit="50" stroke-width="2" transform="matrix(1,0,0,1,-256,-1463)"></path><path id="SvgjsPath1340" d="M356 1554C356 1554 366.757 1550.6 369 1545 " fill="#ffaba2" fill-opacity="1" transform="matrix(1,0,0,1,-256,-1463)"></path><path id="SvgjsPath1341" d="M356 1554C356 1554 366.757 1550.6 369 1545 " fill-opacity="0" fill="#ffffff" stroke-dasharray="0" stroke-linejoin="round" stroke-linecap="round" stroke-opacity="1" stroke="#262626" stroke-miterlimit="50" stroke-width="2" transform="matrix(1,0,0,1,-256,-1463)"></path><path id="SvgjsPath1342" d="M322.211 1473.58C322.211 1473.58 331.293 1471.04 343.943 1474.52C356.592 1478 361.88399999999996 1484.29 361.88399999999996 1484.29L358.39399999999995 1488.52C358.39399999999995 1488.52 352.62399999999997 1482.15 340.90899999999993 1479.8899999999999C329.19499999999994 1477.6299999999999 324.2799999999999 1479.37 324.2799999999999 1479.37Z " fill="#ee8982" fill-opacity="1" transform="matrix(1,0,0,1,-256,-1463)"></path><path id="SvgjsPath1343" d="M322.211 1473.58C322.211 1473.58 331.293 1471.04 343.943 1474.52C356.592 1478 361.88399999999996 1484.29 361.88399999999996 1484.29L358.39399999999995 1488.52C358.39399999999995 1488.52 352.62399999999997 1482.15 340.90899999999993 1479.8899999999999C329.19499999999994 1477.6299999999999 324.2799999999999 1479.37 324.2799999999999 1479.37Z " fill-opacity="0" fill="#ffffff" stroke-dasharray="0" stroke-linejoin="round" stroke-linecap="round" stroke-opacity="1" stroke="#262626" stroke-miterlimit="50" stroke-width="4" clip-path="url(&quot;#SvgjsClipPath1345&quot;)" transform="matrix(1,0,0,1,-256,-1463)"></path><path id="SvgjsPath1346" d="M262.5 1491C266.09 1491 269 1497.04 269 1504.5C269 1511.96 266.09 1518 262.5 1518C258.91 1518 256 1511.96 256 1504.5C256 1497.04 258.91 1491 262.5 1491Z " fill="#e7867f" fill-opacity="1" transform="matrix(1,0,0,1,-256,-1463)"></path><path id="SvgjsPath1347" d="M262.5 1491C266.09 1491 269 1497.04 269 1504.5C269 1511.96 266.09 1518 262.5 1518C258.91 1518 256 1511.96 256 1504.5C256 1497.04 258.91 1491 262.5 1491Z " fill-opacity="0" fill="#ffffff" stroke-dasharray="0" stroke-linejoin="round" stroke-linecap="round" stroke-opacity="1" stroke="#262626" stroke-miterlimit="50" stroke-width="4" clip-path="url(&quot;#SvgjsClipPath1349&quot;)" transform="matrix(1,0,0,1,-256,-1463)"></path><path id="SvgjsPath1350" d="M260 1500C260.552 1500 261 1500.9 261 1502C261 1503.1 260.552 1504 260 1504C259.448 1504 259 1503.1 259 1502C259 1500.9 259.448 1500 260 1500Z " fill="#ffaba2" fill-opacity="1" transform="matrix(1,0,0,1,-256,-1463)"></path><path id="SvgjsPath1351" d="M260 1500C260.552 1500 261 1500.9 261 1502C261 1503.1 260.552 1504 260 1504C259.448 1504 259 1503.1 259 1502C259 1500.9 259.448 1500 260 1500Z " fill-opacity="0" fill="#ffffff" stroke-dasharray="0" stroke-linejoin="round" stroke-linecap="round" stroke-opacity="1" stroke="#262626" stroke-miterlimit="50" stroke-width="4" clip-path="url(&quot;#SvgjsClipPath1353&quot;)" transform="matrix(1,0,0,1,-256,-1463)"></path><path id="SvgjsPath1354" d="M264 1500C264.552 1500 265 1500.9 265 1502C265 1503.1 264.552 1504 264 1504C263.448 1504 263 1503.1 263 1502C263 1500.9 263.448 1500 264 1500Z " fill="#ffaba2" fill-opacity="1" transform="matrix(1,0,0,1,-256,-1463)"></path><path id="SvgjsPath1355" d="M264 1500C264.552 1500 265 1500.9 265 1502C265 1503.1 264.552 1504 264 1504C263.448 1504 263 1503.1 263 1502C263 1500.9 263.448 1500 264 1500Z " fill-opacity="0" fill="#ffffff" stroke-dasharray="0" stroke-linejoin="round" stroke-linecap="round" stroke-opacity="1" stroke="#262626" stroke-miterlimit="50" stroke-width="4" clip-path="url(&quot;#SvgjsClipPath1357&quot;)" transform="matrix(1,0,0,1,-256,-1463)"></path></svg>