<svg id="Layer_1" data-name="Layer 1" xmlns="http://www.w3.org/2000/svg" viewBox="0 0 26.9999 36"><title>5</title><path d="M20,7v4H7V7H0V36H27V7ZM17,0H10V9h7ZM13.5,5.99A1.49,1.49,0,1,1,15,4.5,1.4951,1.4951,0,0,1,13.5,5.99Z" fill="#d2b9ff"/><path d="M20.4581,29.5H6.5407s.0008-.7337,0-.9279c-.0064-1.6335-.2262-2.5607,1.6292-2.9951,2.0336-.4757,4.04-.9012,3.0757-2.7046C8.3864,17.5292,10.43,14.5,13.4994,14.5c3.0113,0,5.1052,2.9168,2.2553,8.3724-.9386,1.7928.9968,2.218,3.075,2.7046,1.8618.4361,1.6356,1.3488,1.6284,2.9951Z" fill="#9d64fe"/></svg>