<svg id="f0b625b3-7a73-42de-b5d8-4a8265aa5ca0" data-name="315a907a-eff9-4ba2-a847-4c49af72d283" xmlns="http://www.w3.org/2000/svg" viewBox="0 0 1920.0133 550.0109"><title>Pattern</title><g opacity="0.5"><path d="M369.4128,10.0075,351.9224,0h-1.7143l18.7767,10.7434L294.7633,53.575V0h-.8516V53.5777L219.69,11.0929,238.9206,0H237.218L219.262,10.3578V0h-.8515V10.8491L180.8727,32.5112,143.3521,54.1635,68.2585,10.838V0h-.8516V10.3464L49.4658,0H47.7474L66.9716,11.0892,30.72,32.008-.0035,14.2859v.9823L11.3181,21.799l18.55,10.7L-.0035,49.7361v.9879L11.744,43.9481,30.3048,33.2426V76.071l-.01-.0055L-.0035,58.582v.9869L29.88,76.8154-.0035,94.06v.9827l30.74-17.74L66.9811,98.2173,29.869,119.6225l-29.8725,17.23v1.01l67.41-38.8845V182.735a2.6529,2.6529,0,0,0-1.62.9285L30.2948,163.1818-.0035,145.6967v.9826L29.869,163.9185l35.48,20.4749a2.5647,2.5647,0,0,0-.0148,1.8919L-.0035,223.9744v.9826l65.7592-37.9325a2.6549,2.6549,0,0,0,1.6512.9666v83.7574L-.0035,232.847v.9825L67.62,272.8542h.4258l75.5022-43.571.0315-.0547,75.47-43.5342v-.7369l-37.7507-21.7848h-.4258l-37.112,21.4526V142.0219L219.0492,98.574v-.2456l.2128-.1226V11.8289l74.8637,42.852.2124-.123.2123.1225,75.5013-43.57,0-.2452.2133-.1233V0h-.8518ZM67.4069,97.48l-36.25-20.9177V32.7382l36.25-20.9176Zm.8516,1.4971L141.94,141.4789l.5434.3136L69.88,183.6635a2.6531,2.6531,0,0,0-1.621-.9286Zm0,172.7706V187.9911a2.6541,2.6541,0,0,0,1.6512-.9655l35.4612,20.4681,37.1124,21.4213Zm74.6506-43.57L70.332,186.2863a2.5637,2.5637,0,0,0-.0143-1.8928l7.2484-4.18L104.675,164.58l38.2341,21.035Zm0-43.5346-37.3717-20.5607,37.3717-21.5528Zm38.1765-20.61,36.899,21.2932-74.2239,42.8153V185.6084ZM143.335,141.2849,68.2585,97.96V11.8206L143.122,55.0333l74.8626,43.1726Zm75.0755-43.8162L144.2039,54.6552l37.0946-21.4071,37.112-21.4161Z" transform="translate(0.0035)" fill="#fff" opacity="0.2"/><path d="M1116.5005,504.1268a2.6323,2.6323,0,0,0-2.0433.982l-147.4128-85.11-.0047.0082-74.8283-43.1945h-.422L819.5538,418.51a2.644,2.644,0,1,0-2.8085,3.7382v83.8032l-74.2-42.8271h-.422l-72.4716,41.8566a2.6392,2.6392,0,0,0-1.7283-1.07,3.1185,3.1185,0,0,0-.8442,0,2.6373,2.6373,0,0,0-1.7166,1.0546l-35.0674-20.2424-35.1608-20.2963a2.546,2.546,0,0,0,.0058-1.8775,2.0426,2.0426,0,0,0-.4233-.73,2.6172,2.6172,0,0,0-4.099,0,1.95,1.95,0,0,0-.423.7305,2.5439,2.5439,0,0,0,.0058,1.8772L555.04,484.8348,446.8148,547.3186l-1.7675,1.02a2.6307,2.6307,0,0,0-1.624-.943,2.5245,2.5245,0,0,0-.8441,0,2.631,2.631,0,0,0-1.6239.9425,2.1585,2.1585,0,0,0-.4251.73,2.6282,2.6282,0,0,0-.1783.9347l.0008.0083H445.65l.0008-.0083a2.6294,2.6294,0,0,0-.1781-.9343l34.5114-19.9216v20.8642h.8442V528.66l37.0065-21.3616L588.4316,548.05l1.7663,1.02a2.63,2.63,0,0,0-.1795.9385l0,.0033h5.2978l0-.0033a2.6287,2.6287,0,0,0-.18-.94L665.5526,508.4a2.6309,2.6309,0,0,0,1.5267.8243v40.7864h.8442V509.2244a2.6315,2.6315,0,0,0,1.5135-.8094L741.49,550.0072l-.0063.0037h1.688L816.88,507.4361l.2838-.1638,72.3689,41.7925a2.6308,2.6308,0,0,0-.1807.9428l0,.0033H894.65l0-.0033a2.6294,2.6294,0,0,0-.1808-.943l70.3278-40.6139a2.63,2.63,0,0,0,1.6145.9319v40.6283h.8441V509.3828a2.63,2.63,0,0,0,1.6026-.9164l71.9654,41.5408-.0064.0037h.8526l-.0021-.0036.0047-.008.0068.0116h.7985l71.98-41.5677a2.6442,2.6442,0,1,0,2.0433-4.3164Zm-524.2553,43.274a2.63,2.63,0,0,0-1.6182.9364l-71.9289-41.5381,36.7637-21.2334,35.1688-20.312a2.6291,2.6291,0,0,0,1.6146.9318Zm70.2891-38.2322-67.8262,39.1683a2.6293,2.6293,0,0,0-1.6187-.9361V466.1856a2.63,2.63,0,0,0,1.6154-.9321l35.1685,20.3006,35.1133,20.2688a2.5174,2.5174,0,0,0,.0985,1.8725Zm79.7764,40.3376-72.403-41.794a2.5108,2.5108,0,0,0,.1137-1.87l72.313-41.765,73.9888,42.7049Zm75.2787-127.2578a2.623,2.623,0,0,0,1.1456-.4811L853.73,441.97v.007L889.5292,462.64a2.5443,2.5443,0,0,0,.0022,1.8739l-35.1585,20.3-36.7835,21.2379Zm73.9889,125.1524a2.63,2.63,0,0,0-1.6058.9212l-35.1776-20.3064-36.7834-21.2332,36.7834-21.2378,35.1637-20.3027a2.63,2.63,0,0,0,1.62.938Zm0-86.4342a2.63,2.63,0,0,0-1.6226.9415l-35.1646-20.3,36.7872-21.2348ZM892,419.3983l-.211-.1218-37.8423,21.844-34.6014-19.9752a2.6323,2.6323,0,0,0,.4708-1.5036,2.6022,2.6022,0,0,0-.0293-.2918L892,377.6652,965.98,420.37l-35.931,20.7481-37.8375-21.8412Zm37.2044,22.2067-35.1595,20.3026a2.63,2.63,0,0,0-1.6229-.941V420.3729Zm.0011,86.4131-35.1772,20.3037a2.63,2.63,0,0,0-1.6063-.921V466.18a2.63,2.63,0,0,0,1.62-.9377l35.1635,20.3048,35.1552,20.3a2.546,2.546,0,0,0,.0058,1.8765Zm37.2054-23.8487a2.63,2.63,0,0,0-1.6272.9473l-35.1562-20.3006L894.47,464.5142a2.5439,2.5439,0,0,0,.0023-1.8745l35.7989-20.663v-.0126l36.14-20.8691Zm147.62,3.5453-72.3771,41.7973-72.3591-41.7681a2.6279,2.6279,0,0,0-2.0392-3.5746V421.0951l146.7754,84.7422a2.5442,2.5442,0,0,0,0,1.8774Z" transform="translate(0.0035)" fill="#fff" opacity="0.2"/><polygon points="1880.388 348.9 1920.013 371.757 1920.013 370.775 1881.453 348.532 1920.013 326.28 1920.013 325.297 1880.388 348.163 1880.388 348.9" fill="#fff" opacity="0.2"/><path d="M1882.6445,1.7361,1920.01,23.2849v-.9826l-36.927-21.2961a2.6533,2.6533,0,0,0,.1882-.9695c0-.0126-.0034-.0242-.0037-.0367h-5.3386c0,.0125-.0033.0242-.0033.0367a2.65,2.65,0,0,0,.188.9689L1805.5222,42.87V.2857L1806.0338,0h-1.3631V43.3617l-35.3171,20.3851-39.7584,22.9441-73.011-42.1334a2.554,2.554,0,0,0,.0086-1.8734L1730.55,0h-1.8309l.064.0369-72.6125,41.908a2.6546,2.6546,0,0,0-1.6511-.9661V0h-.8516V40.9788a2.6542,2.6542,0,0,0-1.6516.9661l-35.46-20.4637-35.48-20.4749a2.6514,2.6514,0,0,0,.1882-.97c0-.0126-.0034-.0242-.0037-.0367h-5.3381c0,.0125-.0037.0241-.0037.0367a2.6492,2.6492,0,0,0,.1883.97l-7.2484,4.18L1541.75,20.82,1503.9067,0h-1.6032L1465.34,21.3669,1428.4408.0735,1428.5684,0h-1.1922V.4423l37.7506,21.7848h.4258L1502.6646.7744V43.3778l-75.9332,43.8015,227.357,131.1726,73.0991-42.1668a2.66,2.66,0,0,0,4.8157,0l72.88,42.0408,75.5013,43.5429,39.625,22.8663v-.9827L1881.45,261.4l37.1123-21.408,1.448-.8353v-.9821l-1.8738,1.0808-37.1124,21.4076V176.9379a2.653,2.653,0,0,0,1.639-.9507l37.3472,21.5434v-.9875l-36.9185-21.2913a2.5646,2.5646,0,0,0-.0027-1.893l36.9212-21.3061V151.07l-37.3528,21.5551a2.6555,2.6555,0,0,0-1.6334-.9434v-81.7a2.66,2.66,0,0,0,1.7318-1.0632l35.3806,20.4091,1.8738,1.0808v-.9827l-1.448-.8353-35.427-20.4354a2.5368,2.5368,0,0,0-.0993-1.8878l2.5736-1.4852L1920.01,64.93v-.9853l-37.4461,21.6115a2.6553,2.6553,0,0,0-1.54-.8313V2.6648A2.6535,2.6535,0,0,0,1882.6445,1.7361Zm-303.6259.9286a2.6538,2.6538,0,0,0,1.62-.9286l35.4921,20.4818,35.4641,20.4662a2.5514,2.5514,0,0,0,.0072,1.8694L1579.0186,86.422ZM1503.5164.7567l37.3715,20.5608L1503.5164,42.87Zm74.65,172.8223L1428.4408,87.1937,1503.09,44.1148,1578.1669,87.44Zm0-87.1568-73.6814-42.5015-.5434-.3136,72.6038-41.871a2.6534,2.6534,0,0,0,1.621.9287Zm.8517,1.4971,36.25,20.9178v43.8243l-36.25,20.9176Zm74.65,129.2008-74.2143-42.81,36.2519-20.9188,37.9624,21.8978ZM1651.6,131.6927l-16.9189,9.7588-18.5608,10.7056V109.3286l.01.0056,35.4719,20.4688a2.5632,2.5632,0,0,0-.0022,1.89Zm2.0679,42.6146-18.561-10.7067-18.55-10.7,35.4734-20.4695a2.6543,2.6543,0,0,0,1.6374.9488Zm0-46.1836a2.6535,2.6535,0,0,0-1.6326.9428l-35.49-20.4823,37.1224-21.4222Zm0-41.9444-37.98,21.9173-36.2442-20.9142,37.1121-21.4052,35.4912-20.4709a2.6519,2.6519,0,0,0,1.6206.9287Zm.8516-39.9443a2.6533,2.6533,0,0,0,1.62-.9287L1691.6317,65.78l37.112,21.4077-36.242,20.91L1654.52,86.1793Zm2.0652,83.5683,35.4725-20.4665.01-.0057v42.826l-18.5609-10.7056-16.9193-9.7589a2.5642,2.5642,0,0,0-.0023-1.8893ZM1654.52,87.162l37.1223,21.4222-35.49,20.4825a2.6541,2.6541,0,0,0-1.6322-.943Zm0,46.2178a2.6536,2.6536,0,0,0,1.6371-.9492l35.4786,20.4672-18.5548,10.7028L1654.52,174.3073Zm72.4026,41.6645a2.6186,2.6186,0,0,0,.03.2943L1654.52,217.12V175.29l37.9673-21.9,34.91,20.1392A2.6527,2.6527,0,0,0,1726.9224,175.0443Zm2.247-2.628a2.6471,2.6471,0,0,0-1.1559.4849l-35.0943-20.2456V108.84l36.25-20.915Zm2.0071.4848a2.6438,2.6438,0,0,0-1.1554-.4848V87.9245l37.1118,21.405,37.112,21.4052-37.112,21.4169Zm73.4942,44.219-37.1119-21.4073-35.32-20.3746a2.6092,2.6092,0,0,0,.03-.2939,2.6532,2.6532,0,0,0-.4753-1.516l35.766-20.64,37.1119-21.4168ZM1744.5219,95.3057l-14.075-8.1183,74.67-43.0728,73.0443,42.1527a2.5341,2.5341,0,0,0-.1056,1.8676l-72.9588,42.1083Zm135.65,165.3576-74.2239-42.8059L1843.06,196.45l35.4733-20.4628a2.6524,2.6524,0,0,0,1.6385.9509Zm0-88.9815a2.6416,2.6416,0,0,0-2.0668,3.57l-35.4711,20.4613L1805.5222,217.12V130.98l72.9058-42.0779a2.6616,2.6616,0,0,0,1.7439,1.0788Zm0-86.9566a2.6572,2.6572,0,0,0-1.5271.8163L1805.948,43.6072l72.6035-41.8716a2.6533,2.6533,0,0,0,1.62.9291Z" transform="translate(0.0035)" fill="#fff" opacity="0.2"/></g></svg>