<svg xmlns="http://www.w3.org/2000/svg" viewBox="0 0 932.673 250.641"><path d="M932.673 133.89l-.188-.108v-.217L865.97 95.197l-.563.325v.075l-45.756 26.378-20.197-11.56-.093.162-.281-.162-20.287 11.702v.649l18.28 10.559a2.257 2.257 0 0 0-.003 1.661l-63.943 36.642V95.833l-.563-.325-66.516 38.369-66.515 38.384-64.206 37.037a2.343 2.343 0 0 0-4.243 0l-64.206-37.037-66.515-38.36-64.506-37.224a2.255 2.255 0 0 0-.003-1.662l64.509-37.226v-.649l-66.517-38.37-.187.109-.188-.108-66.515 38.373-24.203 13.946V24.12l-.19-.326L200.814 0l-.373.001-41.249 23.794-.188.324-.027 18.491-25.035 14.5L67.41 95.516l-39.614-22.85L0 56.63v.866L26.858 72.99 0 88.462v.865L27.233 73.64l-.007 37.656-.006 35.962a2.345 2.345 0 0 0-1.79 3.242l-15.884 9.143L0 165.137v.866l6.85-3.944 18.99-10.93a2.338 2.338 0 0 0 1.38.76v41.458a2.336 2.336 0 0 0-1.436.827L0 179.169v.868l25.402 14.782a2.264 2.264 0 0 0-.003 1.675L0 211.119v.866l.707-.408v14.256L0 225.425v.866l.707.408v23.942h.75v-23.509l25.95 14.975h.375l39.44-22.76v27.67a2.329 2.329 0 0 0-1.819 3.151l-.824.474h6.026l-.814-.47a2.257 2.257 0 0 0 .004-1.667l31.248-18.02 32.695-18.856v39.013h.75v-39.447l32.907-18.99 32.858 18.962v37.956l-2.632 1.518h1.5l1.132-.652v.652h.75v-1.085l64.327-37.122a2.338 2.338 0 0 0 1.438.832v37.375h.75v-37.375a2.337 2.337 0 0 0 1.44-.832l62.503 36.07a2.259 2.259 0 0 0 .005 1.668l-.813.469h6.012l-.814-.47a2.26 2.26 0 0 0 .005-1.667l62.504-36.07a2.338 2.338 0 0 0 1.44.832v37.375h.75v-37.375a2.327 2.327 0 0 0 1.82-3.145l31.25-18.026 32.694-18.86v75.888l-2.63 1.518h1.5l1.506-.869 1.506.869h1.501l-2.257-1.302 32.695-18.867 31.677-18.28a2.334 2.334 0 0 0 1.018.427v38.022h.75v-38.022a2.334 2.334 0 0 0 1.018-.428l30.918 17.836v20.614h.75v-20.174l16.352 9.431 14.905 8.597a2.259 2.259 0 0 0 .002 1.665l-.833.48h6.056l-.833-.48a2.258 2.258 0 0 0 .002-1.665l14.905-8.597 16.352-9.431v20.174h.75v-20.619l31.935-18.428v39.047h.75v-39.047l65.954 38.07 1.694.977h1.53l-2.271-1.31 32.68-18.86 32.695-18.866v39.036h.75v-39.04l65.953 37.752.188-.108.187.108 66.515-38.385v-.215l.188-.11zM27.219 241.133L1.457 226.266v-15.095l24.32-14.029a2.34 2.34 0 0 0 1.442.835zm.75-89.245a2.336 2.336 0 0 0 1.384-.766l37.533 21.441-37.475 21.618a2.336 2.336 0 0 0-1.442-.835zm39.253 66.593L27.97 241.133v-43.156a2.329 2.329 0 0 0 1.82-3.15l37.432-21.592zm0-46.59l-37.46-21.399a2.267 2.267 0 0 0 .058-1.656l37.402-21.547zm0-45.467L29.475 148.17a2.341 2.341 0 0 0-1.505-.912l.006-35.906.007-37.713 39.24 22.635zm92.532-101.66l38.676 22.068a2.264 2.264 0 0 0 .01 1.676l-38.756 22.824zm-.778 18.713l-.042 27.833-24.055-13.876zm-24.471 14.607l24.616 14.229 40.757 23.483-63.965 36.927a2.338 2.338 0 0 0-1.437-.832zM67.973 96.707l25.4 14.652-25.4 14.633zm0 30.15l26.338-15.174v-.65L68.16 95.95l65.595-37.865-.03 73.807a2.328 2.328 0 0 0-1.822 3.147l-63.93 36.907zm32.695 102.977l-31.25 18.022a2.337 2.337 0 0 0-1.445-.84v-73.772l32.695 18.867 32.695 18.868zm99.585-19.533l-32.107-18.529 30.669-17.698a2.338 2.338 0 0 0 1.439.831zm0-40.026a2.327 2.327 0 0 0-1.82 3.145l-30.676 17.695v-37.499l32.496-18.745zm0-36.27l-33.059 19.07-.187.324v38.149l-32.894 18.974-65.758-37.932 63.926-36.905a2.343 2.343 0 0 0 4.012-2.316l63.96-36.924zm0-38.859L160.079 71.97l38.748-22.819a2.338 2.338 0 0 0 1.428.818zm0-49.807a2.338 2.338 0 0 0-1.448.843l-38.672-22.064L200.253.975zm133.781-25.594l65.39 37.72-63.95 36.903a2.34 2.34 0 0 0-1.44-.832zm0 78.421a2.338 2.338 0 0 0 1.447-.84l63.944 36.9-32.696 18.86-31.253 18.028a2.34 2.34 0 0 0-1.442-.835zm-.75-78.421v73.79a2.338 2.338 0 0 0-1.435.829l-63.712-36.756-.243-.14zm-132.28 30.224a2.344 2.344 0 0 0 0-4.63V.971l41 23.366v47.185l-36.81 21.21-4.19 2.414zm0 84.902l32.496 18.745v37.499l-30.675-17.695a2.328 2.328 0 0 0-1.821-3.145zm0 40.035a2.338 2.338 0 0 0 1.439-.833l30.669 17.7-32.108 18.528zm0 73.784v-37.523l32.858-18.962 31.08 17.936a2.248 2.248 0 0 0 .008 1.647zm65.765-40.055a2.338 2.338 0 0 0-1.444.838l-31.074-17.925v-37.931l32.518-18.75zm.188-74.742l-33.081 19.074-32.872-18.962V96.012l3.374-1.944 38.188-22.002.002-.004 24.576-14.161 1.073.619 63.248 36.495a2.255 2.255 0 0 0-.004 1.66zm.562 74.742v-74.201l64.319-37.11a2.338 2.338 0 0 0 1.446.842v72.113a2.327 2.327 0 0 0-1.822 3.141l-62.499 36.053a2.338 2.338 0 0 0-1.444-.838zm67.962 39.22a2.327 2.327 0 0 0-3.643 0l-62.5-36.067a2.247 2.247 0 0 0 .008-1.647l62.497-36.066a2.327 2.327 0 0 0 3.633 0l62.502 36.046a2.26 2.26 0 0 0 .003 1.667zm64.32-39.22a2.338 2.338 0 0 0-1.445.838l-62.499-36.052a2.254 2.254 0 0 0-.002-1.66l31.25-18.027 32.695-18.86zm33.445-17.19l-31.252 18.028a2.337 2.337 0 0 0-1.444-.838v-73.76l65.39 37.711zm66.514 38.377l-32.695 18.868v-75.455l32.695 18.86 31.117 17.95a2.293 2.293 0 0 0-.027.259 2.338 2.338 0 0 0 .42 1.335zm99.585 17.187a2.337 2.337 0 0 0-1.442.836l-31.256-18.031 16.347-9.43 16.351-9.431zm0-36.922l-33.448 19.294-30.756-17.742a2.337 2.337 0 0 0 .419-1.336 2.281 2.281 0 0 0-.026-.259l63.811-36.809zm2.193 37.758a2.337 2.337 0 0 0-1.442-.836v-36.056l16.351 9.432 16.342 9.427zm32.002-18.466l-33.444-19.292v-36.852l65.381 37.715zm32.32-19.083l-32.694-18.855-32.695-18.855 65.39-37.736zm66.517-113.814v75.146l-65.39-37.428zm66.515 114.256l-33.07 19.084-33.055 19.076-66.156-38.17v-75.88l65.954 37.752h.373l64.508-36.965a2.337 2.337 0 0 0 1.446.84zm0-78.894a2.337 2.337 0 0 0-1.44.834l-17.72-10.237 19.16-11.053zm.75-20.458l19.257 11.023-17.815 10.27a2.337 2.337 0 0 0-1.442-.835zm0 25.089a2.337 2.337 0 0 0 1.44-.834l62.421 36.061a2.221 2.221 0 0 0 .2 1.65l-64.061 36.954zm65.765 111.906l-65.388-37.428 64.133-36.994a2.338 2.338 0 0 0 1.255.623zm0-78.43a2.345 2.345 0 0 0-1.608 1.056l-62.337-36.013a2.259 2.259 0 0 0 0-1.668l63.945-36.864zm.75-73.78l65.392 37.72L867.76 171a2.346 2.346 0 0 0-1.604-1.049zm0 152.208v-73.797a2.346 2.346 0 0 0 1.262-.628l64.126 36.691zm65.765-38.382l-64.058-36.652a2.217 2.217 0 0 0 .195-1.65l46.608-27.114 17.255-10.039z" fill="#e1e5eb" data-name="Layer 2"/></svg>