<svg id="Layer_2" data-name="Layer 2" xmlns="http://www.w3.org/2000/svg" viewBox="0 0 1324.2478 223.1307"><title>Banner_290</title><path d="M1323.1849,0V32.7138L1298.7462,18.507,1266.9115,0h-2.1127l57.8577,33.6346-92.6137,53.3866V0H1228.98V86.6083L1138.416,34.4351a3.1942,3.1942,0,0,0,0-2.3605L1193.9749,0h-2.1226l-53.9741,31.1591a3.3117,3.3117,0,0,0-2.04-1.18V0h-1.0625V29.9794a3.31,3.31,0,0,0-2.0476,1.1885L1078.2981,0h-2.1355l56.0322,32.0855a3.1914,3.1914,0,0,0,.0034,2.3521L1106.31,49.3814V50.3l28.7317,16.5618.3977-.23.132.23L1164.1763,50.5,1228.98,87.833V87.94l.797.4593,94.2049-54.3031v-.3072l.2656-.1525V0ZM1134.7756,65.4839l-27.1377-15.6428,25.0977-14.488a3.31,3.31,0,0,0,2.04,1.18Zm1.0625.0035V36.5328a3.312,3.312,0,0,0,2.0418-1.1818l25.2319,14.5358Z" fill="#fff" opacity="0.15"/><polygon points="1040.571 86.581 947.961 33.199 1006.002 0 1003.865 0 947.427 32.282 947.427 0 946.365 0 946.365 32.278 890.392 0 888.267 0 946.63 33.656 1040.836 87.959 1041.633 87.5 1041.633 0 1040.571 0 1040.571 86.581" fill="#fff" opacity="0.15"/><path d="M570.6084,32.244V0h-1.0626V32.244L523.24,5.5523,513.6075,0h-2.1243l11.2252,6.4705,46.306,26.6928L478.4517,85.3874a3.3134,3.3134,0,0,0-2.0494-1.1906V0H475.34V84.1971a3.3114,3.3114,0,0,0-2.0488,1.191l-91.0932-52.52V0H381.135V32.2552L335.08,5.7188V0h-1.0629V5.72L287.9929,32.25V0H286.93V32.25L240.9058,5.72V0h-1.0627V6.0256l.2657.46L286.93,33.475V86.6329L196.3442,34.3747a3.2989,3.2989,0,0,0,.2278-1.1854,3.3229,3.3229,0,0,0-5.91-2.0927L136.7584,0h-2.125l55.4933,32.0134a3.2936,3.2936,0,0,0,2.5809,4.4534l.0411,104.458L99.8475,87.3354l37.0379-21.35v-.9186L99.5823,43.5916V0H98.5194V42.98L45.5471,12.4849a3.2073,3.2073,0,0,0-.0818-2.344L63.23,0H61.0892L44.8867,9.2493a3.3074,3.3074,0,0,0-1.96-1.0838V0H41.8638V8.1655a3.3091,3.3091,0,0,0-1.9533,1.0753L23.8461,0H21.7174L39.33,10.1317A3.3174,3.3174,0,0,0,41.8643,14.72l.0092,50.8975.0094,53.2935L0,94.7993v1.2249L41.3514,119.83,0,143.6668v1.2252l42.68-24.6035L98.7852,87.9476l94.2282,54.3555,35.4573,20.5224.0389,26.17.2657.4582,58.4206,33.6757.5287.0014,59.129-33.6757.2684-.46V122.5184l34.2787,19.7376,94.2047,54.3088.2657-.1532.2656.1532,94.2059-54.3032v-.9186L478.9794,88.6571a3.1871,3.1871,0,0,0,.0047-2.3517l91.3585-52.6828L628.6838,0h-2.1259ZM98.5194,86.8757,42.9456,118.91l-.0094-53.3746-.0093-50.8163a3.3169,3.3169,0,0,0,2.1316-1.2915L98.5194,44.2045Zm1.0629-42.06,35.975,20.71L99.5823,86.2632Zm94.7588,97.0295,34.0691-19.64.0586,39.3924Zm34.3332-21.0583-34.863,20.1376L193.77,36.4664a3.313,3.313,0,0,0,2.0354-1.1766l90.5932,52.2621Zm.7979,1.3889,54.8891,32.3019a3.2007,3.2007,0,0,0-.0138,2.3725l-54.7763,31.2308ZM286.93,221.7517l-56.8221-32.7553L284.8788,157.77a3.3134,3.3134,0,0,0,2.0515,1.1935Zm0-69.3422a3.3119,3.3119,0,0,0-2.0222,1.1576L230.03,121.2722l56.9-32.801Zm59.1291,36.2766-58.0665,33.07V158.963a3.3167,3.3167,0,0,0,0-6.5535V88.4712l5.9349,3.417,52.1316,30.018Zm.8-67.5446-.0025-.0046-54.0852-31.14-4.7783-2.7513V33.475L334.5488,6.6385l46.8519,26.9947,91.3579,52.6732a3.1889,3.1889,0,0,0,.0047,2.35L383.1859,140.308l-1.5195.8758ZM475.34,195.1861,382.729,141.7967l.3438-.1982,90.2341-52.02a3.3105,3.3105,0,0,0,2.0328,1.172Zm93.6747-53.3834-92.6121,53.3834V90.7506a3.3137,3.3137,0,0,0,2.04-1.1784Z" fill="#fff" opacity="0.15"/></svg>