<svg id="747c94f3-3bd5-4b7d-a87b-632b007dd32e" data-name="Layer 1" xmlns="http://www.w3.org/2000/svg" viewBox="0 0 1212.4994 225.502"><title>Pattern</title><path d="M59.4788,225.2407l84.04-48.1255V225.502h.9561V177.1182l83.32,48.1049-.4832.2789H230.19l-1.2005-.6929-84.754-48.9317L59.48,126.9648l-.7169.4131V224.002L0,190.313v1.1016l59.0033,33.8261Zm.24-97.0346,83.3188,48.083L59.7191,224.002Z" fill="#fff" opacity="0.08"/><path d="M399.6979,225.502l-.4831-.2789,83.32-48.0742V225.502h.9561V177.1489l41.6606,24.0425,39.8191,22.979a2.9761,2.9761,0,0,0-.2033,1.0635,2.6623,2.6623,0,0,0,.0265.2681h5.9477a2.6624,2.6624,0,0,0,.0266-.2681,2.9928,2.9928,0,0,0-2.5221-2.9517V130.353a2.977,2.977,0,0,0,1.8435-1.0722l81.9546,47.3066V225.502h.9562V177.1387l41.4347,23.9023v24.461h.9562V201.04l41.4072-23.896v45.1329a2.9929,2.9929,0,0,0-2.5223,2.9511,2.6924,2.6924,0,0,0,.0271.274H740.25a2.6643,2.6643,0,0,0,.0272-.274,2.993,2.993,0,0,0-2.5227-2.9511V177.144l41.4074,23.896v24.462h.956V200.7646l-.239-.414L737.7547,176.04V128.1592l81.4986,47.07a2.9871,2.9871,0,0,0,5.112,2.9531L905.821,225.228l-.4747.274h2.8793l-.5338-.3082,47.8248-27.3325a2.98,2.98,0,0,0,1.7637.9766V225.502h.9561V198.8379a2.9809,2.9809,0,0,0,1.7572-.9692l24.197,13.9355,23.221,13.373-.5577.3248h3.0359l-1.2852-.74-.0006-.001-27.8488-16.038-20.2393-11.6563a2.9888,2.9888,0,0,0-2.28-4.1323l-.0083-45.8452-.0085-48.003,83.8152,48.3077V225.502h.9559V147.9438L1124.509,194.85a2.8816,2.8816,0,0,0-.0766,2.1206l-11.4095,6.59-37.9853,21.941h1.9119l28.8778-16.6807,19.0457-11.001a2.9813,2.9813,0,0,0,1.9162,1.1607v26.521h.9559V198.981a2.9845,2.9845,0,0,0,1.9193-1.1646l48.1112,27.6856h1.918l-49.59-28.5362a2.8862,2.8862,0,0,0-.0775-2.1147L1212.26,147.585l.24-.4141V49.3262l-.2391-.4141L1127.5062,0h-.478l-84.7566,48.9209-84.77,48.9238-50.4767,29.1309L822.25,78.0156,790.35,59.53l-.035-23.5718-.2391-.4126-52.56-30.333-.4757-.0015-53.1972,30.333-.2415.4151V95.8364l-30.84-17.7788L568.0074,29.14l-.239.1382-.239-.1382L482.7741,78.0527V78.88l82.1977,47.456a2.8749,2.8749,0,0,0-.0042,2.1177l-82.1935,47.4536L398.02,224.8091l-1.2006.6929Zm811.8453-79.1582L1157.7455,115.29V81.2075l12.1377-7.0058,41.66-24.0474ZM1127.7451,1.2417l41.66,24.042,41.66,24.0425-41.66,24.0478L1129.636,96.33a2.978,2.978,0,0,0-1.8909-1.1314Zm2.344,95.93,26.7-15.4116v32.9785l-26.7522-15.4419a2.89,2.89,0,0,0,.052-2.125Zm-2.344,3.93a2.9789,2.9789,0,0,0,1.78-.9971L1211.064,147.17l-81.56,46.8779a2.9807,2.9807,0,0,0-1.7591-.9707Zm-.9559,91.976a2.98,2.98,0,0,0-1.7584.97l-38.9746-22.4263,40.733-23.6113Zm-41.6613-167.789,41.6613-24.0469V95.1982a2.98,2.98,0,0,0-1.8926,1.1309l-39.7687-22.9507L1043.4666,49.335Zm-.4781,48.9175L1124.4429,97.17a2.9537,2.9537,0,0,0,2.3463,3.9312v45.8042L1085.1,171.0713l-42.11-24.231-.0017-96.6772Zm-42.6173-24.043.0018,96.1265-83.337-48.0318ZM907.2643,127.94l49.9986-28.854.0087,48.0757.0082,45.7725a2.9767,2.9767,0,0,0-1.9177,1.1631l-48.0978-27.7222Zm0,39.5381,47.6582,27.4683a2.8913,2.8913,0,0,0,.0736,2.1113l-47.7318,27.2788Zm-.9562-1.6538-32.3659-18.6538,32.3659-18.6787Zm-.2387-38.2983-33.3222,19.2309v.8272l33.5609,19.3432v57.4776l-81.461-47.0489a2.9669,2.9669,0,0,0-2.3221-4.0107l-.0369-94.0889ZM821.0555,78.4272l-30.6513,17.691-.0528-35.4825Zm-30.889,18.9683L821.532,79.2568l.0371,94.0894a2.9791,2.9791,0,0,0-1.8313,1.0591l-81.5049-47.0738Zm-.7179-1.251L740.066,67.0488a2.8837,2.8837,0,0,0,.0125-2.1362L789.36,36.7817Zm-51.6939-89.69,51.1217,29.5034L739.6,64.0845a2.983,2.983,0,0,0-1.8457-1.0752Zm0,62.4585A2.985,2.985,0,0,0,739.574,67.87L788.9466,96.959l-51.1919,29.5449ZM684.5574,36.2373,736.7987,6.4492v56.56a2.9882,2.9882,0,0,0,0,5.9033v57.5913l-5.34-3.0786L684.5574,96.3877Zm-.7193,60.8389.0024.0044L732.5,125.1289l4.299,2.4785V176.04l-41.8855,24.1729-42.1517-24.315-82.1929-47.4448a2.873,2.873,0,0,0-.0043-2.1162l80.5912-46.5244,1.367-.7891ZM568.2463,30.3818l83.32,48.09-.3093.1787-81.1819,46.8555a2.9776,2.9776,0,0,0-1.829-1.0557ZM483.9691,78.4663,567.29,30.3818V124.45a2.98,2.98,0,0,0-1.8349,1.061Zm81.4776,50.815a2.9789,2.9789,0,0,0,1.8437,1.0722v91.9287a2.9772,2.9772,0,0,0-1.8366,1.064L525.63,200.3633l-41.6607-24.042Z" fill="#fff" opacity="0.08"/></svg>