<svg id="Layer_1" data-name="Layer 1" xmlns="http://www.w3.org/2000/svg" viewBox="0 0 30.2083 36.055"><title>6</title><path d="M30.2083,21.6117V0H0V36.055H15.39C20.1663,36.055,30.2083,25.2048,30.2083,21.6117ZM2.9234,33.1318V2.9234H27.2848c.12-.0361.0228,14.7554,0,17.54-.05,6.17-9.16,3.5733-9.16,3.5733s2.768,9.0947-3.5081,9.0947Z" fill="#abe6e3"/><path d="M6.9727,7.328,8.7463,10.55h1.245V5.838H8.8666V8.7255L7.2232,5.838H5.848V10.55H6.9727Zm15.4312,2.33a2.8973,2.8973,0,0,1-1.195-.281l-.0625-.0308-.2506.966.0375.0205a3.4,3.4,0,0,0,1.4054.2854c1.4905,0,2.0216-.7965,2.0216-1.4807,0-.6605-.4132-1.1132-1.3-1.4236-.6514-.2335-.8669-.3523-.8669-.599,0-.2371.2556-.3909.6514-.3909a2.4022,2.4022,0,0,1,.9945.2134l.06.0272.2756-.946L24.1324,6a3.2274,3.2274,0,0,0-1.2677-.238c-1.1346,0-1.8962.58-1.8962,1.44,0,.6354.4635,1.1109,1.3728,1.411.5811.1965.779.3481.779.5985C23.12,9.4951,22.86,9.6575,22.4039,9.6575ZM14.05,9.589H12.048V8.6019h1.7912V7.648H12.048V6.7993h1.8988V5.838H10.8305V10.55H14.05Zm1.4855.9611-1.18-4.7121H15.65l.6161,3.2646.6914-3.2646H18.22l.6113,3.2056.6388-3.2056h1.2374L19.4228,10.55H18.14l-.6111-3.1177L16.8326,10.55ZM17.54,12.5669H12.668v5.8464H17.54Zm-1.949,15.591H5.8467v1.949h9.7447Zm0-3.8977H5.8467v1.9489h9.7447Zm8.77-3.898H5.8467v1.9495H24.3616Zm0-3.8977H19.4892v1.9488h4.8724Zm0-3.8976H19.4892v1.9487h4.8724ZM10.719,16.4645H5.8467v1.9488H10.719Zm0-3.8976H5.8467v1.9487H10.719Z" fill="#57c5c3"/></svg>