<svg id="Layer_1" data-name="Layer 1" xmlns="http://www.w3.org/2000/svg" viewBox="0 0 42.0007 35.9934"><title>4</title><path d="M36.7166,13.0658a9.7234,9.7234,0,0,0,.62-3.4228A9.5148,9.5148,0,0,0,18.7275,6.72a6.6145,6.6145,0,0,0-4.4444-1.7129A6.7177,6.7177,0,0,0,7.63,11.1029c-.0336-.0005-.0669-.0028-.1007-.0028A7.5752,7.5752,0,0,0,0,18.72c0,4.2085,3.8453,7.278,8.0035,7.278h27c4.1283.031,6.9972-2.66,6.9972-6.364A6.69,6.69,0,0,0,36.7166,13.0658ZM33.72,12.1212l-.758,1.4344-1.5153-.2183a4.758,4.758,0,0,1-.8186.6786l-.064,1.5268-1.5523.48-.9161-1.2245a4.7377,4.7377,0,0,1-1.0593-.0987l-1.127,1.0354-1.4369-.7562.2194-1.5137a4.7254,4.7254,0,0,1-.68-.8168l-1.5293-.0632-.48-1.55,1.2265-.9142a4.719,4.719,0,0,1,.099-1.0579L22.2915,7.9373,23.05,6.5032l1.5153.2185a4.7362,4.7362,0,0,1,.8186-.6785l.064-1.5268L27,4.0358,27.916,5.26a4.7573,4.7573,0,0,1,1.0593.0993l1.1269-1.0354,1.4369.7564L31.32,6.5938a4.7245,4.7245,0,0,1,.68.817l1.5292.0634.48,1.55-1.2263.9146a4.725,4.725,0,0,1-.099,1.0578Z" fill="#b7dafe"/><path d="M27.4116,8.1119a2.0077,2.0077,0,1,0,2.5152,1.324A2.0069,2.0069,0,0,0,27.4116,8.1119Z" fill="#b7dafe"/><path d="M31.24,27.3451V24.6528l-2.3885-.85a7.8856,7.8856,0,0,0-.6749-1.6283l1.0887-2.2918L27.3632,17.98l-2.29,1.09a7.8551,7.8551,0,0,0-1.6276-.6761l-.8495-2.3892H19.9051l-.85,2.39a7.841,7.841,0,0,0-1.6277.6758l-2.29-1.09-1.9023,1.9031,1.0885,2.2918a7.8467,7.8467,0,0,0-.6747,1.6283l-2.3885.85v2.6923l2.3885.8488a7.818,7.818,0,0,0,.6747,1.6281l-1.0885,2.2924,1.9023,1.903,2.29-1.0885a7.9162,7.9162,0,0,0,1.6277.6753l.85,2.3892h2.6908l.8495-2.3892a7.9131,7.9131,0,0,0,1.6276-.6753l2.29,1.0885,1.9023-1.903L28.1768,29.822a7.8079,7.8079,0,0,0,.6749-1.6281Zm-9.99,3.212a4.5586,4.5586,0,1,1,4.5561-4.5584A4.5565,4.5565,0,0,1,21.25,30.5571Z" fill="#4d8eda"/></svg>