<svg id="Layer_1" data-name="Layer 1" xmlns="http://www.w3.org/2000/svg" viewBox="0 0 39.0091 36.0068"><title>2</title><path d="M36.2334,6.7173a2.7725,2.7725,0,0,0-2.5026,1.602L21.7682,4.0774c.0074-.0984.0114-.1971.0114-.2968A3.7212,3.7212,0,1,0,15.3634,6.382L5.0094,18.54a3.3861,3.3861,0,0,0-1.5744-.39,3.49,3.49,0,0,0,0,6.98,3.39,3.39,0,0,0,2.2468-.8575l9.2016,7.6614a2.734,2.734,0,0,0-.3608,1.3569,2.6741,2.6741,0,1,0,5.3476,0,2.7353,2.7353,0,0,0-.08-.6522L29.847,26.63a3.459,3.459,0,0,0,2.7159,1.3168,3.57,3.57,0,0,0,1.198-6.909l2.2578-8.6919c.0709.0059.1424.0095.2147.0095a2.8193,2.8193,0,0,0,0-5.638ZM33.4673,9.7565l-7.9019,3.1961L21.0686,5.9935a3.7635,3.7635,0,0,0,.53-1.0581L33.4862,9.1518a2.73,2.73,0,0,0-.0279.3844C33.4583,9.6105,33.4614,9.6836,33.4673,9.7565ZM13.9459,16.8584a1.1009,1.1009,0,1,1-1.0819,1.1A1.0924,1.0924,0,0,1,13.9459,16.8584Zm4.346-.9635.4654-8.4057a3.6726,3.6726,0,0,0,1.7137-.8381l4.2836,6.6294Zm6.9407-1.8743,2.8938,4.4774-2.6,3.309-7.42-2.5622L18.239,16.85ZM17.8967,7.5559,17.4153,16.25l-1.7944.7254a1.9723,1.9723,0,0,0-.7683-.7517l2.4708-8.74A3.7964,3.7964,0,0,0,17.8967,7.5559ZM15.8759,17.8053l1.4865-.6011-.097,1.75L15.82,18.4553a1.9777,1.9777,0,0,0,.0635-.4966C15.883,17.9071,15.8805,17.8557,15.8759,17.8053Zm1.6019,12.7875.5786-10.4494L24.96,22.5278l-6.5568,8.3405A2.618,2.618,0,0,0,17.4778,30.5928ZM16.51,7.2147l-2.482,8.7793c-.027-.0013-.0543-.0023-.0816-.0023a1.9634,1.9634,0,0,0-1.894,2.3724L6.6881,20.5258a3.4918,3.4918,0,0,0-.97-1.4906L16.0175,6.9412A3.7505,3.7505,0,0,0,16.51,7.2147Zm9.31,15.61,3.2658,1.1274a3.3656,3.3656,0,0,0-.03.4322,3.5553,3.5553,0,0,0,.3349,1.5112l-9.94,5.94a2.7464,2.7464,0,0,0-.3575-.4531Zm.5663-.7213L28.62,19.2624l1.6,2.4756a3.5778,3.5778,0,0,0-.9273,1.3689Zm2.3015-4.3189L26.0433,13.693,33.67,10.6073a2.8106,2.8106,0,0,0,.2651.5025ZM6.87,21.64c0-.0849-.0032-.1689-.0093-.2515l5.5478-2.2356a1.9132,1.9132,0,0,0,3.01.08l1.797.62-.5976,10.788a2.6449,2.6449,0,0,0-1.1947.6206l-9.17-7.6351A3.4892,3.4892,0,0,0,6.87,21.64Zm26.0568-.7964a3.2437,3.2437,0,0,0-.3638-.0225,3.4559,3.4559,0,0,0-1.642.4192l-1.74-2.6921,5.3421-6.7958a2.7427,2.7427,0,0,0,.6633.3911Z" fill="#6edb24"/></svg>