<svg id="Layer_1" data-name="Layer 1" xmlns="http://www.w3.org/2000/svg" viewBox="0 0 35.835 36.0648"><title>1</title><path d="M0,0,.0046,8.0037h25V.0044ZM3.0056,5.0076a.9964.9964,0,1,1,1-.9961A.9984.9984,0,0,1,3.0056,5.0076ZM.0046,18.0034h25V10.0039h-25Zm3.001-5.0095a1.0093,1.0093,0,1,1-1,1.0093A1.005,1.005,0,0,1,3.0056,12.9939ZM.0046,28.0027h25v-8h-25Zm3.001-5.0042a.9964.9964,0,1,1-1,.9966A.9986.9986,0,0,1,3.0056,22.9985Z" fill="#d2b9ff"/><path d="M19.7693,24.4805l3.8226-3.9077L18.784,15.6651a2.6512,2.6512,0,0,0-3.8146,0,2.8069,2.8069,0,0,0-.0072,3.9071Z" fill="#9d64fe"/><path d="M33.3365,32.8854a4.9656,4.9656,0,0,1-.9418-.6528l-4.34-4.4942L26.778,29.0432l4.57,4.6322a3.005,3.005,0,0,1,.5179.7141l.2714.5349,1.8959.9879.7517-.77-.9249-1.98Z" fill="#9d64fe"/><path d="M30.7049,23.6465a4.6938,4.6938,0,0,0,3.7425-1.4119,4.8955,4.8955,0,0,0,1.3876-3.434,5.0392,5.0392,0,0,0-.1961-1.3914l-2.86,2.9257c-1.4516.3238-3.53-1.8254-3.22-3.2919L32.42,14.1175a4.7586,4.7586,0,0,0-1.3588-.2,4.68,4.68,0,0,0-3.36,1.4193,4.9288,4.9288,0,0,0-1.38,3.8258,2.53,2.53,0,0,1-.7069,1.9514L14.8337,32.137a2.3231,2.3231,0,0,0-.6593,1.6266,2.2765,2.2765,0,0,0,2.2509,2.3012,2.2279,2.2279,0,0,0,1.591-.6737L28.7977,24.3683A2.4047,2.4047,0,0,1,30.7049,23.6465ZM16.4411,34.6827a.9418.9418,0,1,1,.9418-.9418A.9418.9418,0,0,1,16.4411,34.6827Z" fill="#9d64fe"/></svg>