<svg id="Layer_1" xmlns="http://www.w3.org/2000/svg" viewBox="0 0 1920 550"><style>.st1{fill:#fff}</style><g opacity=".2"><path class="st1" d="M1874.1 19.6l45.9 26.7v-1.2l-45.3-26.4c.3-.8.3-1.6 0-2.4L1903.1 0h-2.2l-26.8 15.4c-.5-.6-1.2-1.1-2-1.2V0h-1.1v14.3c-1.8.3-3 1.9-2.8 3.7 0 .2.1.5.2.7l-53 30.6V0h-1.1v49.3L1768 22.6 1728.9 0h-2.2l87.1 50.2-90.5 52.2c-1.1-1.4-3.2-1.7-4.7-.5-1.1.9-1.5 2.4-1 3.8L1627 158v-53.2l46.8-27 .3-.5v-54L1714.6 0h-2.2l-38.9 22.4L1634.7 0h-2.1l40 23-43.4 25c-.5-.6-1.2-1-2-1.2V0h-1.1v46.9c-.8.1-1.5.5-2 1.2l-43.4-25 40-23h-2.1l-38.9 22.4L1540.5 0h-2.2l40.5 23.4V77l-46.1 26.5V0h-1.1v104.2l-91.1 52.5c-.5-.6-1.2-1.1-2-1.2v-102c1.8-.3 3-1.9 2.8-3.7 0-.2-.1-.5-.2-.7l85-49h-2.2l-83.4 48.1c-1.1-1.4-3.2-1.6-4.6-.5-.2.2-.4.3-.5.5L1352.1 0h-2.1l85 49c-.3.8-.3 1.6 0 2.3l-44.3 25.5-46.3 26.7V0h-1.1v103.6l-92.6-53.4 46.3-26.7L1337.8 0h-2.1l-39.2 22.6-46.3 26.7V0h-1.1v49.3l-46.3-26.7L1163.7 0h-2.1l87.9 50.7 94.2 54.3 91.4 52.7c-.3.8-.3 1.6 0 2.4l-91.4 52.7v.9l94.2 54.3.3-.2.3.2 94.2-54.3L1567 194v66.5l.3.5 59.1 33.7h.5l58.4-33.7.3-.5v-26.2l35.5-20.5 94.2-54.4 56.1 32.3 48.7 28.1v-1.2l-47.4-27.3 47.4-27.3v-1.2l-47.9 27.6V86.2c1.8-.3 3-2 2.8-3.8 0-.3-.1-.5-.2-.8l22.5-12.9 22.9-13.2v-1.2l-19.1 11-27.1 15.3c-.5-.6-1.2-1-2-1.1V20.8c.9-.1 1.6-.5 2.1-1.2zM1627 53.5c1.8-.3 3-1.9 2.8-3.7 0-.2-.1-.5-.2-.7l43.4-25V77l-46 26.5v-50zm-189.4 213l-92.6-53.4 90.6-52.2c.5.6 1.2 1 2 1.2v104.4zm0-111c-.8.1-1.5.6-2 1.2l-90.6-52.2 46.3-26.7 44.3-25.5c.5.6 1.2 1.1 2 1.2v102zm1 111V162.1c.8-.1 1.5-.5 2-1.2l90.2 52 .3.2-92.5 53.4zm187.4-42.8c-1.8.3-3 2-2.8 3.8.2 1.4 1.3 2.5 2.8 2.8v62.8l-58.1-33.1v-66.8l52.1-30 5.9-3.4.1 63.9zm0-65.1l-4.8 2.8-54.1 31.1-34.8 20-1.5-.9-89.6-51.7c.3-.8.3-1.6 0-2.4l91.4-52.7 46.9-27 46.6 26.8-.1 54zm0-55l-46-26.5V24l43.4 25c-.7 1.7.2 3.6 1.9 4.3.2.1.5.2.7.2v50.1zm1 56.2l56.9 32.8-54.9 32.3c-.5-.6-1.2-1-2-1.2v-63.9zm0 133.3v-62.8c.8-.1 1.5-.6 2.1-1.2l54.8 31.2-56.9 32.8zm57.4-33.7l-54.8-31.2c.3-.8.3-1.6 0-2.4l54.9-32.3-.1 65.9zm1.1-26.5l.1-39.4 34.1 19.6-34.2 19.8zm34.6-20.6l-34.9-20.1-57.7-33.2 90.6-52.3c.5.6 1.2 1 2 1.2v104.4zm94.3-54.7l-36-20.7 36-20.7v41.4zm0-42.7l-37.3 21.5v.9l37 21.4-92.9 53.6V107.8c1.8-.3 3-1.9 2.8-3.7 0-.2-.1-.5-.2-.7l90.5-52.2.1 63.7zm1-63.7l53.1 30.3c-.3.7-.4 1.6-.1 2.3l-53 30.5V51.2zm55.6 85.7v53.4l-55.6-32v-42.7l53.5-30.8c.5.7 1.3 1.2 2.1 1.3v50.8zm0-57.4c-.8.1-1.5.5-2 1.1l-53.2-30.3 53.1-30.6c.5.6 1.2 1.1 2 1.2l.1 58.6zM1191.2 483.1l-94.2-54.3-.8.5v.1l-64.8 37.3-28.6-16.4-.1.2-.4-.2-28.7 16.6v.9l25.9 14.9c-.3.8-.3 1.6 0 2.4L908.8 537V429.7l-.8-.5-94.2 54.3-94.2 54.3-21 12.1h2.1l18.6-10.7V550h1.1v-10.7L739 550h2.1L721 538.3l92.6-53.4V550h1.1v-65.1l93.4 53.4h.5L1000 486c.5.6 1.2 1.1 2 1.2V550h1.1v-62.8c.8-.1 1.5-.5 2-1.2l88.4 51c-.2.8-.1 1.6.3 2.3l-18.4 10.6h2.1l16.9-9.7c.5.5 1.1.8 1.8.9v8.8h1.1v-8.8c.7-.1 1.3-.4 1.8-.9l17 9.7h2.1l-18.5-10.6c.4-.7.5-1.6.3-2.3l66-38.4 24.4-14.2V550h1.1v-66.4l-.3-.2v-.3zM907.8 537l-92.6-53 92.6-53.4V537zm94.2-56.3c-.8.1-1.5.5-2 1.2l-25.1-14.5 27.1-15.6v28.9zm1.1 0v-29l27.3 15.6-25.2 14.5c-.6-.6-1.3-1-2.1-1.1zm93.1 53.9c-.9.1-1.8.7-2.3 1.5l-88.3-51c.3-.8.3-1.6 0-2.4l90.6-52.2v104.1zm3.3 1.5c-.5-.8-1.3-1.3-2.3-1.5V430.2l92.6 53.4-90.3 52.5zM437.6 483.6l-91.4-52.7c.3-.8.3-1.6 0-2.4l91.4-52.7v-.9l-94.2-54.3-.3.2-.3-.2-94.2 54.3-34.3 19.7v-66.5l-.3-.5-59.1-33.7h-.5L96 327.7l-.3.5v26.2l-35.5 20.5L0 409.6v1.2l60-34.6v104.5c-1.8.3-3 1.9-2.8 3.7 0 .2.1.5.2.7L0 518.3v1.2l57.9-33.4c1.1 1.4 3.2 1.7 4.7.5 1.1-.9 1.5-2.4 1-3.8l90.6-52.3v53.2l-46.8 27-.3.5V550h1.1v-38.5l46-26.5v50c-1.8.3-3 1.9-2.8 3.7 0 .2.1.5.2.7L133.4 550h2.2l16.6-9.6c.5.6 1.2 1 2 1.2v8.4h1.1v-8.4c.8-.1 1.5-.5 2-1.2l16.6 9.6h2.2l-18.2-10.5c.7-1.7-.2-3.6-1.9-4.3-.2-.1-.5-.2-.7-.2v-50.1l46 26.5V550h1.1v-38.5l46.1-26.5v65h1.1v-65.7l91.1-52.5c.5.6 1.2 1.1 2 1.2v102.1c-1.8.3-3 1.9-2.8 3.7 0 .2.1.5.2.7L321.8 550h2.2l16.6-9.6c1.1 1.4 3.2 1.6 4.6.5.2-.2.4-.3.5-.5l16.6 9.6h2.1l-18.2-10.5c.3-.8.3-1.6 0-2.3l44.3-25.5 46.3-26.7v65h1.1v-65l92.6 53.4-20.3 11.6h2.1l18.6-10.7V550h1.1v-10.7l18.6 10.7h2.1l-21-12.1-94.1-54.3zM96.8 329.1l54.8 31.2c-.3.8-.3 1.6 0 2.4L96.7 395l.1-65.9zm-1.1 26.5l-.1 39.4-34.1-19.6 34.2-19.8zM63 481.9c-.5-.6-1.2-1-2-1.2V376.2l34.9 20.1 57.7 33.2L63 481.9zm91.1-53.2l-56.9-32.8 54.9-32.3c.5.6 1.2 1 2 1.2v63.9zm0-70.5c-.8.1-1.5.6-2.1 1.2l-54.8-31.2 56.8-32.8v62.8h.1zm1.1 6.6c1.8-.3 3-2 2.8-3.8-.2-1.4-1.3-2.5-2.8-2.8v-62.8l58.1 33.1v66.8l-52.1 30-5.9 3.4-.1-63.9zM340 430.9l-91.4 52.7-46.9 27-46.6-26.8V430l4.8-2.8 54.1-31.1 34.8-20 1.5.9 89.6 51.7c-.2.6-.2 1.4.1 2.2zm2.6-4.5c-.8.1-1.5.5-2 1.2l-90.2-52-.3-.2 92.6-53.4v104.4h-.1zm1-104.4l92.6 53.4-90.6 52.2c-.5-.6-1.2-1-2-1.2V322zm46.3 188.7l-44.3 25.5c-.5-.6-1.2-1.1-2-1.2V433c.8-.1 1.5-.6 2-1.2l90.6 52.2-46.3 26.7z"/></g></svg>