<svg width="1131" height="646" fill="none" xmlns="http://www.w3.org/2000/svg"><g filter="url(#filter0_i)"><path d="M1088 371.71v149.5L957.498 596 827 521.21v-149.5L957.498 297 1088 371.71z" fill="#535570" fill-opacity=".1"/></g><g filter="url(#filter1_i)"><path d="M1131 346.697v199.5L956.498 646 782 546.197v-199.5L956.498 247 1131 346.697z" fill="#535570" fill-opacity=".1"/></g><g filter="url(#filter2_i)"><path d="M1039 399.725v93.5L957.499 540 876 493.225v-93.5L957.499 353 1039 399.725z" fill="#535570" fill-opacity=".1"/></g><g filter="url(#filter3_i)"><path d="M319 228.202v182.5L159.498 502 0 410.702v-182.5L159.498 137 319 228.202z" fill="#535570" fill-opacity=".1"/></g><g filter="url(#filter4_i)"><path d="M278 252.214v134.5L160.498 454 43 386.714v-134.5L160.498 185 278 252.214z" fill="#535570" fill-opacity=".1"/></g><g filter="url(#filter5_i)"><path d="M236.326 275.942v87.07L160.43 406.57l-75.895-43.558v-87.07l75.895-43.512 75.896 43.512z" fill="#535570" fill-opacity=".1"/></g><path d="M43.5 356.149l6.5 3.682v7.334l-6.5 3.685-6.5-3.685v-7.334l6.5-3.682z" stroke="#DD4552" stroke-width="2"/><path d="M105.5 259.161l4.5 2.658v5.359l-4.5 2.66-4.5-2.66v-5.359l4.5-2.658z" stroke="#45ABFF" stroke-width="2"/><path d="M232 231.147l3 1.687v3.33l-3 1.689-3-1.689v-3.33l3-1.687z" stroke="#B25FFF" stroke-width="2"/><path d="M263.5 389.161l4.5 2.658v5.359l-4.5 2.66-4.5-2.66v-5.359l4.5-2.658z" stroke="#3370FF" stroke-width="2"/><g clip-path="url(#clip0)"><path d="M160.302 270.154l42.936 24.677v49.365l-42.936 24.702-42.935-24.702v-49.365l42.935-24.677z" stroke="#fff" stroke-width="4"/><path d="M197 298.739v41.5L160.499 361 124 340.239v-41.5L160.499 278 197 298.739z" stroke="#fff" stroke-opacity=".5"/><path d="M173.634 338.481h-35.272v-6.424h35.272a4.79 4.79 0 003.378-1.391 4.739 4.739 0 000-6.72 4.79 4.79 0 00-3.378-1.391h-27.266a11.27 11.27 0 01-7.945-3.273 11.144 11.144 0 01-3.29-7.902c0-2.964 1.183-5.806 3.29-7.902a11.265 11.265 0 017.945-3.273h35.273v6.423h-35.273a4.804 4.804 0 00-3.389 1.386 4.738 4.738 0 00-1.04 5.188 4.742 4.742 0 001.04 1.544 4.789 4.789 0 003.389 1.385h27.266a11.297 11.297 0 014.308.843 11.242 11.242 0 013.654 2.421 11.131 11.131 0 012.442 12.193 11.164 11.164 0 01-2.442 3.629 11.239 11.239 0 01-3.654 2.42c-1.366.56-2.83.847-4.308.844z" fill="#fff"/></g><defs><filter id="filter0_i" x="827" y="297" width="261" height="301" filterUnits="userSpaceOnUse" color-interpolation-filters="sRGB"><feFlood flood-opacity="0" result="BackgroundImageFix"/><feBlend in="SourceGraphic" in2="BackgroundImageFix" result="shape"/><feColorMatrix in="SourceAlpha" values="0 0 0 0 0 0 0 0 0 0 0 0 0 0 0 0 0 0 127 0" result="hardAlpha"/><feOffset dy="2"/><feGaussianBlur stdDeviation="15"/><feComposite in2="hardAlpha" operator="arithmetic" k2="-1" k3="1"/><feColorMatrix values="0 0 0 0 0.278431 0 0 0 0 0.282353 0 0 0 0 0.368627 0 0 0 0.3 0"/><feBlend in2="shape" result="effect1_innerShadow"/></filter><filter id="filter1_i" x="782" y="247" width="349" height="401" filterUnits="userSpaceOnUse" color-interpolation-filters="sRGB"><feFlood flood-opacity="0" result="BackgroundImageFix"/><feBlend in="SourceGraphic" in2="BackgroundImageFix" result="shape"/><feColorMatrix in="SourceAlpha" values="0 0 0 0 0 0 0 0 0 0 0 0 0 0 0 0 0 0 127 0" result="hardAlpha"/><feOffset dy="2"/><feGaussianBlur stdDeviation="15"/><feComposite in2="hardAlpha" operator="arithmetic" k2="-1" k3="1"/><feColorMatrix values="0 0 0 0 0.278431 0 0 0 0 0.282353 0 0 0 0 0.368627 0 0 0 0.3 0"/><feBlend in2="shape" result="effect1_innerShadow"/></filter><filter id="filter2_i" x="876" y="353" width="163" height="189" filterUnits="userSpaceOnUse" color-interpolation-filters="sRGB"><feFlood flood-opacity="0" result="BackgroundImageFix"/><feBlend in="SourceGraphic" in2="BackgroundImageFix" result="shape"/><feColorMatrix in="SourceAlpha" values="0 0 0 0 0 0 0 0 0 0 0 0 0 0 0 0 0 0 127 0" result="hardAlpha"/><feOffset dy="2"/><feGaussianBlur stdDeviation="15"/><feComposite in2="hardAlpha" operator="arithmetic" k2="-1" k3="1"/><feColorMatrix values="0 0 0 0 0.278431 0 0 0 0 0.282353 0 0 0 0 0.368627 0 0 0 0.3 0"/><feBlend in2="shape" result="effect1_innerShadow"/></filter><filter id="filter3_i" x="0" y="137" width="319" height="367" filterUnits="userSpaceOnUse" color-interpolation-filters="sRGB"><feFlood flood-opacity="0" result="BackgroundImageFix"/><feBlend in="SourceGraphic" in2="BackgroundImageFix" result="shape"/><feColorMatrix in="SourceAlpha" values="0 0 0 0 0 0 0 0 0 0 0 0 0 0 0 0 0 0 127 0" result="hardAlpha"/><feOffset dy="2"/><feGaussianBlur stdDeviation="15"/><feComposite in2="hardAlpha" operator="arithmetic" k2="-1" k3="1"/><feColorMatrix values="0 0 0 0 0.278431 0 0 0 0 0.282353 0 0 0 0 0.368627 0 0 0 0.3 0"/><feBlend in2="shape" result="effect1_innerShadow"/></filter><filter id="filter4_i" x="43" y="185" width="235" height="271" filterUnits="userSpaceOnUse" color-interpolation-filters="sRGB"><feFlood flood-opacity="0" result="BackgroundImageFix"/><feBlend in="SourceGraphic" in2="BackgroundImageFix" result="shape"/><feColorMatrix in="SourceAlpha" values="0 0 0 0 0 0 0 0 0 0 0 0 0 0 0 0 0 0 127 0" result="hardAlpha"/><feOffset dy="2"/><feGaussianBlur stdDeviation="15"/><feComposite in2="hardAlpha" operator="arithmetic" k2="-1" k3="1"/><feColorMatrix values="0 0 0 0 0.278431 0 0 0 0 0.282353 0 0 0 0 0.368627 0 0 0 0.3 0"/><feBlend in2="shape" result="effect1_innerShadow"/></filter><filter id="filter5_i" x="84.535" y="232.43" width="151.791" height="176.14" filterUnits="userSpaceOnUse" color-interpolation-filters="sRGB"><feFlood flood-opacity="0" result="BackgroundImageFix"/><feBlend in="SourceGraphic" in2="BackgroundImageFix" result="shape"/><feColorMatrix in="SourceAlpha" values="0 0 0 0 0 0 0 0 0 0 0 0 0 0 0 0 0 0 127 0" result="hardAlpha"/><feOffset dy="2"/><feGaussianBlur stdDeviation="15"/><feComposite in2="hardAlpha" operator="arithmetic" k2="-1" k3="1"/><feColorMatrix values="0 0 0 0 0.278431 0 0 0 0 0.282353 0 0 0 0 0.368627 0 0 0 0.3 0"/><feBlend in2="shape" result="effect1_innerShadow"/></filter><clipPath id="clip0"><path fill="#fff" d="M115 268h90v104h-90z"/></clipPath></defs></svg>