<svg width="1024" height="262" viewBox="0 0 1024 262" fill="none" xmlns="http://www.w3.org/2000/svg">
<g opacity="0.2">
<path fill-rule="evenodd" clip-rule="evenodd" d="M1024 261.784V203.603L1023.71 203.439V203.109L922.585 144.763L852.163 185.484L820.998 167.784L790.045 185.699V186.685L817.836 202.741C817.513 203.552 817.512 204.456 817.832 205.268L720.615 260.988V145.729L719.76 145.236L517.795 261.784H520.074L618.347 205.061V261.784H619.487V205.058L718.57 261.784H721.519L818.404 206.255C818.954 206.937 819.736 207.392 820.603 207.532V261.784H821.743V207.532C822.604 207.393 823.383 206.942 823.933 206.265L918.835 261.101C918.774 261.326 918.737 261.555 918.725 261.784H925.874C925.86 261.551 925.823 261.318 925.761 261.09L1022.86 204.594V261.784H1024ZM1022.29 203.605L925.309 260.034C925.19 259.849 925.055 259.676 924.905 259.517C924.803 259.408 924.693 259.306 924.578 259.211C924.477 259.127 924.37 259.048 924.26 258.976C923.84 258.701 923.366 258.518 922.87 258.44V146.244L1022.29 203.605ZM921.729 258.44C921.231 258.519 920.756 258.703 920.335 258.98C920.216 259.058 920.103 259.143 919.994 259.234C919.719 259.466 919.479 259.74 919.285 260.045L824.509 205.281C824.833 204.467 824.833 203.559 824.51 202.744L921.729 146.687V258.44ZM823.935 201.76C823.385 201.082 822.604 200.63 821.743 200.49V169.38L851.021 186.142L823.935 201.76ZM791.471 186.191L820.603 169.384V200.49C819.741 200.63 818.962 201.081 818.412 201.758L791.471 186.191ZM719.475 146.716V260.987L620.061 204.072L719.475 146.716Z" fill="#A9ABB0"/>
<path fill-rule="evenodd" clip-rule="evenodd" d="M485.53 261.784L286.621 147.013C286.941 146.201 286.939 145.297 286.616 144.486L384.693 87.8773V86.89L283.564 28.544L283.279 28.7087L282.994 28.544L145.069 108.104V36.6784L144.781 36.1836L81.3076 0L80.7402 0.00195312L18.0264 36.1848L17.7402 36.6772L17.6992 64.795L0 75.0489V76.3656L17.6973 66.1141L17.6338 108.439L0 98.2639V99.6047L17.918 109.964L79.8838 145.673L0 191.799V193.116L80.4551 146.661V203.775L30.1924 232.775L29.9072 233.268V261.784H31.0479V233.598L80.4551 205.093V258.931C80.1689 258.974 79.8906 259.052 79.625 259.162C79.4033 259.255 79.1904 259.369 78.9912 259.505C78.5527 259.804 78.1865 260.198 77.9209 260.657C77.7188 261.007 77.5771 261.388 77.5039 261.784H84.5449C84.4717 261.388 84.3311 261.007 84.1289 260.658C83.8623 260.199 83.4971 259.805 83.0586 259.506C82.9473 259.43 82.832 259.361 82.7139 259.299C82.5889 259.233 82.46 259.175 82.3281 259.124C82.0918 259.034 81.8457 258.969 81.5947 258.931V205.093L131.002 233.598V261.784H132.143V233.599L181.582 205.087V261.784H182.723V204.43L280.51 147.998C281.06 148.681 281.843 149.137 282.709 149.278V258.937C282.517 258.966 282.327 259.011 282.144 259.071C281.826 259.174 281.524 259.322 281.247 259.511C280.809 259.809 280.443 260.202 280.177 260.661C280.049 260.882 279.945 261.116 279.868 261.359C279.823 261.498 279.787 261.64 279.761 261.784H286.793C286.753 261.582 286.694 261.383 286.617 261.19L383.838 205.099V261.784H384.979V205.099L483.249 261.784H485.53ZM18.8809 37.6589L77.6816 71.2159C77.3604 72.0359 77.3652 72.9481 77.6973 73.7644L18.7744 108.471L18.8809 37.6589ZM182.152 88.0483L279.943 144.487C279.62 145.297 279.618 146.2 279.938 147.011L131.572 232.611L81.5957 203.776V146.003L182.152 88.0483ZM19.373 109.443L78.2842 74.7438C78.833 75.407 79.6045 75.8488 80.4551 75.9871V144.686L19.373 109.443ZM80.4551 68.9454C79.5869 69.0861 78.8027 69.5428 78.252 70.2275L19.457 36.676L80.4551 1.48267V68.9454ZM383.268 204.11L286.041 260.205C285.491 259.527 284.711 259.076 283.85 258.936V149.278C284.716 149.138 285.5 148.682 286.05 147.999L383.268 204.11ZM286.039 143.501C285.488 142.825 284.71 142.375 283.85 142.236V30.0256L383.268 87.3832L286.039 143.501ZM282.709 30.0246V142.236C281.853 142.375 281.076 142.823 280.526 143.495L183.293 87.3897L282.709 30.0246ZM143.929 108.761L81.5947 144.686V75.9871C82.4336 75.8548 83.1973 75.4274 83.75 74.782C84.3008 74.1365 84.6045 73.3153 84.6045 72.4662C84.6045 71.6171 84.3008 70.796 83.75 70.1505C83.1973 69.505 82.4336 69.0777 81.5947 68.9454V1.47717L143.929 37.0097V108.761Z" fill="#A9ABB0"/>
</g>
</svg>
