<svg width="331" height="179" viewBox="0 0 331 179" fill="none" xmlns="http://www.w3.org/2000/svg">
<g opacity="0.15">
<mask id="path-1-outside-1" maskUnits="userSpaceOnUse" x="-1.55613e-05" y="-2.88495e-05" width="331" height="179" fill="black">
<rect fill="white" x="-1.55613e-05" y="-2.88495e-05" width="331" height="179"/>
<path fill-rule="evenodd" clip-rule="evenodd" d="M135.783 100.4L1 178L2.54551 178L69.1351 139.673L69.1351 178L69.9075 178L69.9075 139.674L135.786 177.598C135.758 177.667 135.734 177.737 135.713 177.808L135.691 177.89C135.682 177.927 135.673 177.963 135.666 178L140.431 178C140.419 177.933 140.404 177.867 140.386 177.802L140.358 177.713C140.306 177.549 140.236 177.39 140.15 177.241C139.969 176.93 139.721 176.665 139.424 176.463C139.236 176.335 139.032 176.235 138.817 176.165C138.693 176.125 138.564 176.095 138.434 176.075L138.434 101.931C138.72 101.885 138.993 101.788 139.241 101.647C139.501 101.499 139.733 101.302 139.924 101.066L206.185 139.221L206.185 178L206.958 178L206.958 139.665L240.459 158.943L240.459 178L241.232 178L241.232 158.943L274.711 139.67L274.711 176.071C274.541 176.097 274.374 176.141 274.214 176.202C274.157 176.224 274.101 176.247 274.046 176.274L273.952 176.32C273.902 176.346 273.853 176.375 273.804 176.405L273.719 176.46C273.422 176.662 273.174 176.928 272.993 177.239C272.941 177.329 272.894 177.422 272.854 177.518C272.79 177.674 272.743 177.835 272.712 178L277.483 178C277.472 177.944 277.461 177.889 277.446 177.834C277.434 177.788 277.42 177.741 277.405 177.695C277.353 177.536 277.284 177.383 277.2 177.238C277.131 177.12 277.053 177.008 276.965 176.904C276.904 176.83 276.838 176.759 276.767 176.693C276.675 176.608 276.578 176.53 276.475 176.459C276.34 176.367 276.196 176.29 276.046 176.227C275.865 176.153 275.677 176.1 275.483 176.071L275.483 139.67L308.962 158.943L308.962 178L309.734 178L309.734 158.72L309.541 158.386L275.483 138.779L275.483 100.162L330 131.571L330 130.681L275.87 99.4939L317.859 75.35L330 68.3456L330 67.439L318.051 74.3188L318.008 45.7017L330 52.6329L330 51.7428L318.007 44.8098L317.979 25.7986L317.786 25.4655L275.289 1.00141L274.905 1.00001L231.895 25.4648L231.7 25.7993L231.7 74.0921L206.571 59.629L139.912 98.0215C139.54 97.567 139.014 97.2643 138.434 97.1702L137.661 97.1702C137.078 97.2643 136.55 97.5684 136.177 98.0254L135.786 98.6912C135.567 99.2399 135.566 99.8508 135.783 100.4ZM277.362 49.1511L317.206 26.4624L317.279 74.3408L277.352 50.8743C277.576 50.3225 277.58 49.7056 277.362 49.1511ZM140.308 98.6919L206.571 60.532L274.71 99.7168L274.71 138.779L240.845 158.275L140.311 100.399C140.528 99.8501 140.527 99.2395 140.308 98.6919ZM276.954 51.5367L316.873 74.9976L275.483 98.8266L275.483 52.3772C275.713 52.3397 275.934 52.2697 276.141 52.1707C276.317 52.0864 276.482 51.9811 276.633 51.8568C276.749 51.761 276.857 51.6539 276.954 51.5367ZM276.976 48.4831C276.602 48.0198 276.071 47.7112 275.483 47.616L275.483 2.00248L316.816 25.7979L276.976 48.4831ZM136.176 176.933L70.2944 139.005L136.17 101.066C136.543 101.529 137.073 101.836 137.661 101.931L137.661 176.074C137.529 176.095 137.401 176.127 137.277 176.169C137.206 176.193 137.135 176.221 137.066 176.251C136.723 176.404 136.417 176.636 136.176 176.933ZM274.711 98.8266L232.472 74.5364L232.472 26.0232L274.711 1.99863L274.711 47.616C274.142 47.7056 273.624 47.9943 273.25 48.431C272.877 48.8673 272.671 49.4226 272.671 49.9968C272.671 50.5706 272.877 51.1259 273.25 51.5622C273.624 51.9989 274.142 52.2876 274.711 52.3772L274.711 98.8266Z"/>
</mask>
<path fill-rule="evenodd" clip-rule="evenodd" d="M135.783 100.4L1 178L2.54551 178L69.1351 139.673L69.1351 178L69.9075 178L69.9075 139.674L135.786 177.598C135.758 177.667 135.734 177.737 135.713 177.808L135.691 177.89C135.682 177.927 135.673 177.963 135.666 178L140.431 178C140.419 177.933 140.404 177.867 140.386 177.802L140.358 177.713C140.306 177.549 140.236 177.39 140.15 177.241C139.969 176.93 139.721 176.665 139.424 176.463C139.236 176.335 139.032 176.235 138.817 176.165C138.693 176.125 138.564 176.095 138.434 176.075L138.434 101.931C138.72 101.885 138.993 101.788 139.241 101.647C139.501 101.499 139.733 101.302 139.924 101.066L206.185 139.221L206.185 178L206.958 178L206.958 139.665L240.459 158.943L240.459 178L241.232 178L241.232 158.943L274.711 139.67L274.711 176.071C274.541 176.097 274.374 176.141 274.214 176.202C274.157 176.224 274.101 176.247 274.046 176.274L273.952 176.32C273.902 176.346 273.853 176.375 273.804 176.405L273.719 176.46C273.422 176.662 273.174 176.928 272.993 177.239C272.941 177.329 272.894 177.422 272.854 177.518C272.79 177.674 272.743 177.835 272.712 178L277.483 178C277.472 177.944 277.461 177.889 277.446 177.834C277.434 177.788 277.42 177.741 277.405 177.695C277.353 177.536 277.284 177.383 277.2 177.238C277.131 177.12 277.053 177.008 276.965 176.904C276.904 176.83 276.838 176.759 276.767 176.693C276.675 176.608 276.578 176.53 276.475 176.459C276.34 176.367 276.196 176.29 276.046 176.227C275.865 176.153 275.677 176.1 275.483 176.071L275.483 139.67L308.962 158.943L308.962 178L309.734 178L309.734 158.72L309.541 158.386L275.483 138.779L275.483 100.162L330 131.571L330 130.681L275.87 99.4939L317.859 75.35L330 68.3456L330 67.439L318.051 74.3188L318.008 45.7017L330 52.6329L330 51.7428L318.007 44.8098L317.979 25.7986L317.786 25.4655L275.289 1.00141L274.905 1.00001L231.895 25.4648L231.7 25.7993L231.7 74.0921L206.571 59.629L139.912 98.0215C139.54 97.567 139.014 97.2643 138.434 97.1702L137.661 97.1702C137.078 97.2643 136.55 97.5684 136.177 98.0254L135.786 98.6912C135.567 99.2399 135.566 99.8508 135.783 100.4ZM277.362 49.1511L317.206 26.4624L317.279 74.3408L277.352 50.8743C277.576 50.3225 277.58 49.7056 277.362 49.1511ZM140.308 98.6919L206.571 60.532L274.71 99.7168L274.71 138.779L240.845 158.275L140.311 100.399C140.528 99.8501 140.527 99.2395 140.308 98.6919ZM276.954 51.5367L316.873 74.9976L275.483 98.8266L275.483 52.3772C275.713 52.3397 275.934 52.2697 276.141 52.1707C276.317 52.0864 276.482 51.9811 276.633 51.8568C276.749 51.761 276.857 51.6539 276.954 51.5367ZM276.976 48.4831C276.602 48.0198 276.071 47.7112 275.483 47.616L275.483 2.00248L316.816 25.7979L276.976 48.4831ZM136.176 176.933L70.2944 139.005L136.17 101.066C136.543 101.529 137.073 101.836 137.661 101.931L137.661 176.074C137.529 176.095 137.401 176.127 137.277 176.169C137.206 176.193 137.135 176.221 137.066 176.251C136.723 176.404 136.417 176.636 136.176 176.933ZM274.711 98.8266L232.472 74.5364L232.472 26.0232L274.711 1.99863L274.711 47.616C274.142 47.7056 273.624 47.9943 273.25 48.431C272.877 48.8673 272.671 49.4226 272.671 49.9968C272.671 50.5706 272.877 51.1259 273.25 51.5622C273.624 51.9989 274.142 52.2876 274.711 52.3772L274.711 98.8266Z" fill="white"/>
<path fill-rule="evenodd" clip-rule="evenodd" d="M135.783 100.4L1 178L2.54551 178L69.1351 139.673L69.1351 178L69.9075 178L69.9075 139.674L135.786 177.598C135.758 177.667 135.734 177.737 135.713 177.808L135.691 177.89C135.682 177.927 135.673 177.963 135.666 178L140.431 178C140.419 177.933 140.404 177.867 140.386 177.802L140.358 177.713C140.306 177.549 140.236 177.39 140.15 177.241C139.969 176.93 139.721 176.665 139.424 176.463C139.236 176.335 139.032 176.235 138.817 176.165C138.693 176.125 138.564 176.095 138.434 176.075L138.434 101.931C138.72 101.885 138.993 101.788 139.241 101.647C139.501 101.499 139.733 101.302 139.924 101.066L206.185 139.221L206.185 178L206.958 178L206.958 139.665L240.459 158.943L240.459 178L241.232 178L241.232 158.943L274.711 139.67L274.711 176.071C274.541 176.097 274.374 176.141 274.214 176.202C274.157 176.224 274.101 176.247 274.046 176.274L273.952 176.32C273.902 176.346 273.853 176.375 273.804 176.405L273.719 176.46C273.422 176.662 273.174 176.928 272.993 177.239C272.941 177.329 272.894 177.422 272.854 177.518C272.79 177.674 272.743 177.835 272.712 178L277.483 178C277.472 177.944 277.461 177.889 277.446 177.834C277.434 177.788 277.42 177.741 277.405 177.695C277.353 177.536 277.284 177.383 277.2 177.238C277.131 177.12 277.053 177.008 276.965 176.904C276.904 176.83 276.838 176.759 276.767 176.693C276.675 176.608 276.578 176.53 276.475 176.459C276.34 176.367 276.196 176.29 276.046 176.227C275.865 176.153 275.677 176.1 275.483 176.071L275.483 139.67L308.962 158.943L308.962 178L309.734 178L309.734 158.72L309.541 158.386L275.483 138.779L275.483 100.162L330 131.571L330 130.681L275.87 99.4939L317.859 75.35L330 68.3456L330 67.439L318.051 74.3188L318.008 45.7017L330 52.6329L330 51.7428L318.007 44.8098L317.979 25.7986L317.786 25.4655L275.289 1.00141L274.905 1.00001L231.895 25.4648L231.7 25.7993L231.7 74.0921L206.571 59.629L139.912 98.0215C139.54 97.567 139.014 97.2643 138.434 97.1702L137.661 97.1702C137.078 97.2643 136.55 97.5684 136.177 98.0254L135.786 98.6912C135.567 99.2399 135.566 99.8508 135.783 100.4ZM277.362 49.1511L317.206 26.4624L317.279 74.3408L277.352 50.8743C277.576 50.3225 277.58 49.7056 277.362 49.1511ZM140.308 98.6919L206.571 60.532L274.71 99.7168L274.71 138.779L240.845 158.275L140.311 100.399C140.528 99.8501 140.527 99.2395 140.308 98.6919ZM276.954 51.5367L316.873 74.9976L275.483 98.8266L275.483 52.3772C275.713 52.3397 275.934 52.2697 276.141 52.1707C276.317 52.0864 276.482 51.9811 276.633 51.8568C276.749 51.761 276.857 51.6539 276.954 51.5367ZM276.976 48.4831C276.602 48.0198 276.071 47.7112 275.483 47.616L275.483 2.00248L316.816 25.7979L276.976 48.4831ZM136.176 176.933L70.2944 139.005L136.17 101.066C136.543 101.529 137.073 101.836 137.661 101.931L137.661 176.074C137.529 176.095 137.401 176.127 137.277 176.169C137.206 176.193 137.135 176.221 137.066 176.251C136.723 176.404 136.417 176.636 136.176 176.933ZM274.711 98.8266L232.472 74.5364L232.472 26.0232L274.711 1.99863L274.711 47.616C274.142 47.7056 273.624 47.9943 273.25 48.431C272.877 48.8673 272.671 49.4226 272.671 49.9968C272.671 50.5706 272.877 51.1259 273.25 51.5622C273.624 51.9989 274.142 52.2876 274.711 52.3772L274.711 98.8266Z" stroke="white" stroke-width="0.5" mask="url(#path-1-outside-1)"/>
</g>
</svg>
