<svg width="903" height="241" viewBox="0 0 903 241" fill="none" xmlns="http://www.w3.org/2000/svg">
<g opacity="0.2">
<path fill-rule="evenodd" clip-rule="evenodd" d="M879.216 14.3982L903 0.839844V2.15259L880.068 15.2244V86.9756L903 100.192V101.51L879.213 87.802L879.21 87.7971L841.845 66.2629L744.054 122.701C744.376 123.512 744.378 124.415 744.059 125.226L892.425 210.825L903 204.724V206.04L892.995 211.812L892.996 241H891.854V211.814L842.416 183.302V241H841.274V182.644L743.488 126.212C742.938 126.896 742.154 127.352 741.288 127.492V237.151C741.812 237.231 742.312 237.427 742.75 237.725C742.848 237.792 742.942 237.864 743.033 237.939C743.107 238.002 743.179 238.067 743.248 238.135C743.382 238.268 743.505 238.411 743.616 238.563C743.689 238.663 743.757 238.768 743.82 238.875C744.086 239.334 744.246 239.846 744.287 240.375C744.303 240.584 744.301 240.793 744.28 241H737.153C737.102 240.462 737.177 239.915 737.38 239.404L640.16 183.314V241H639.019V183.314L539.603 240.659L540.194 241H536.726L737.376 125.228C737.166 124.694 737.094 124.121 737.162 123.561C737.197 123.268 737.27 122.979 737.381 122.701L639.304 66.0918V65.1047L740.433 6.75879L740.718 6.92334L741.003 6.75879L878.928 86.3184V14.8931L879.216 14.3982ZM737.947 126.213L640.73 182.325L737.956 238.42C738.506 237.742 739.286 237.29 740.147 237.151V127.492C739.281 127.353 738.498 126.897 737.947 126.213ZM737.958 121.716C738.508 121.04 739.288 120.59 740.147 120.451V8.24023L640.73 65.5979L737.958 121.716ZM741.288 8.23926V120.451C742.145 120.59 742.921 121.038 743.47 121.71L840.704 65.6045L741.288 8.23926Z" fill="#939599"/>
<path fill-rule="evenodd" clip-rule="evenodd" d="M507.951 241L304.237 123.45L303.382 123.943V239.202L206.165 183.483C206.485 182.671 206.484 181.767 206.161 180.956L233.952 164.9V163.914L202.999 145.999L171.834 163.698L101.412 122.978L0.285156 181.323V181.654L0 181.817V241H1.14062V182.809L98.2363 239.305C98.084 239.864 98.0781 240.447 98.2148 241H105.18C105.315 240.451 105.312 239.871 105.162 239.316L200.064 184.479C200.614 185.156 201.394 185.607 202.254 185.747V241H203.395V185.746C204.261 185.606 205.043 185.152 205.593 184.469L303.668 240.68H304.235L404.51 183.273V241H405.65V183.276L505.066 240.659L504.475 241H507.951ZM1.70801 181.82L98.6885 238.248C98.959 237.826 99.3174 237.465 99.7373 237.191C99.9639 237.042 100.206 236.921 100.459 236.828C100.675 236.749 100.898 236.691 101.127 236.654V124.459L1.70801 181.82ZM102.268 236.654C102.766 236.734 103.241 236.918 103.662 237.195C104.084 237.472 104.441 237.834 104.712 238.26L199.488 183.496C199.305 183.035 199.225 182.544 199.249 182.057C199.268 181.684 199.347 181.312 199.487 180.959L102.268 124.902V236.654ZM200.062 179.975C200.612 179.297 201.393 178.845 202.254 178.705V147.595L172.977 164.357L200.062 179.975ZM232.526 164.406L203.395 147.598V178.705C204.256 178.845 205.035 179.296 205.585 179.973L232.526 164.406ZM304.522 124.931V239.202L403.937 182.287L304.522 124.931Z" fill="#939599"/>
</g>
</svg>
