<svg id="Layer_1" data-name="Layer 1" xmlns="http://www.w3.org/2000/svg" viewBox="0 0 38.4917 36"><title>3</title><path d="M32.5463,28.8011l1.9287-3.2722-2.5912-2.3723a14.9152,14.9152,0,0,0,.9187-5.8772L36,15.78l-.84-3.69-3.5178.0869a14.7233,14.7233,0,0,0-3.694-5.1708l1.2021-3.3315L27.5267,2.6736,25.9108,1.6609,23.4614,4.2164A14.7013,14.7013,0,0,0,17.1939,3.195L15.7116,0,12.0355.8834l.0761,3.5339A14.8889,14.8889,0,0,0,7.2579,7.8482L3.9843,6.5756,1.91,9.7578l2.4824,2.4916a14.9816,14.9816,0,0,0-1.1752,6.3194L0,20.03l.7943,3.7012,3.518-.0436a14.641,14.641,0,0,0,3.6148,5.2L6.68,32.2031l1.8174,1.1545,1.84,1.1188,2.4148-2.59a14.6083,14.6083,0,0,0,6.2591.9375L20.5316,36l3.6655-.9288L24.078,31.537a14.9614,14.9614,0,0,0,5.1364-3.8578ZM16.7,27.3713a9.219,9.219,0,0,1-3.67-1.3586,9.2129,9.2129,0,0,1-2.8455-2.6876,9.47,9.47,0,0,1,2.451-13.1113,9.4664,9.4664,0,0,1,14.7284,9.1454A9.469,9.469,0,0,1,16.7,27.3713Z" fill="#aae4e2"/><path d="M36.4916,22.4582V11.4589h-4V22.4582h-2V14.4589h-4v7.9993h-2V17.4589h-4v4.9993h-2l-.0038.9995H38.4915l0-.9995ZM24.6338,12.474h4.0027l5.9343-5.32V9.3788h1.0783V5.4638H31.4832V6.477h2.28l-5.5587,4.9836H24.16l-.16.1645c-.7345.7518-3.1392,3.2181-3.2483,3.3458l.8378.6376C21.7023,15.4826,23.4144,13.7238,24.6338,12.474Z" fill="#51c3c1"/></svg>