<svg xmlns="http://www.w3.org/2000/svg" viewBox="0 0 13 13"><path d="M6.5,0A6.5,6.5,0,1,0,13,6.5,6.5,6.5,0,0,0,6.5,0Zm0,12A5.5,5.5,0,1,1,12,6.5,5.5062,5.5062,0,0,1,6.5,12Z" fill="#ffd200"/><path d="M6.2,8.75a.7835.7835,0,0,0-.8657.8867.93.93,0,0,0,.2251.66.8377.8377,0,0,0,.6406.2422.8373.8373,0,0,0,.644-.2481.9253.9253,0,0,0,.2276-.6543.9025.9025,0,0,0-.2266-.65A.8562.8562,0,0,0,6.2,8.75Z" fill="#ffd200"/><path d="M6.5234,2.4606a4.709,4.709,0,0,0-2.3154.6015l-.082.0459.5215,1.0928.0913-.0444a6.52,6.52,0,0,1,.81-.334,2.8189,2.8189,0,0,1,.8858-.1353A1.2237,1.2237,0,0,1,7.2109,3.9a.7129.7129,0,0,1,.2549.5943,1.0469,1.0469,0,0,1-.1636.5913,3.9746,3.9746,0,0,1-.7778.7373,2.8284,2.8284,0,0,0-.7558.8174,2.0725,2.0725,0,0,0-.2207,1.0009v.4336H6.77V7.74a1.1255,1.1255,0,0,1,.1475-.6182,3.0178,3.0178,0,0,1,.6269-.606,5.654,5.654,0,0,0,.8145-.7334,2.12,2.12,0,0,0,.3643-.61,2.0818,2.0818,0,0,0,.12-.7305A1.806,1.806,0,0,0,8.208,2.9845,2.5575,2.5575,0,0,0,6.5234,2.4606Z" fill="#ffd200"/></svg>