<svg id="Layer_1" data-name="Layer 1" xmlns="http://www.w3.org/2000/svg" viewBox="0 0 35.975 36"><title>7</title><path d="M35.975,20.4235v-4.847c-2.451-.8725-4.0341-1.1231-4.8256-3.03-.7893-1.91.1531-3.2085,1.2689-5.56L28.994,3.5592c-2.36,1.1217-3.6494,2.0607-5.5549,1.27l-.002-.0012C21.5316,4.0388,21.2815,2.4517,20.41,0h-4.844c-.8763,2.4642-1.1243,4.0388-3.0276,4.8276v.0012c-1.9117.7924-3.2177-.1569-5.5571-1.27L3.5567,6.9869c1.12,2.3565,2.0581,3.6532,1.2687,5.5587v.0013c-.7894,1.9-2.35,2.1476-4.8254,3.03v4.847c2.4467.8728,4.038,1.1254,4.8273,3.0322.79,1.9087-.1589,3.2136-1.2706,5.5587l3.4241,3.4267c2.3664-1.125,3.6517-2.062,5.5425-1.2739h.0021c1.9179.7981,2.1681,2.38,3.04,4.8328H20.41c.874-2.4586,1.1221-4.0387,3.0276-4.829h.002c1.9074-.7919,3.2113.1571,5.5549,1.27l3.4243-3.4267c-1.0972-2.3123-2.0647-3.64-1.2689-5.5607C31.939,21.5489,33.53,21.2963,35.975,20.4235Zm-17.9875,7.632A10.0552,10.0552,0,1,1,28.0324,18,10.0518,10.0518,0,0,1,17.9875,28.0555Z" fill="#fbdc82"/><path d="M24.4849,23.75c0-.2384.0027-.4623.0027-.6718,0-1.3654-.1077-2.1535-1.7213-2.5262-1.863-.43-3.597-.8075-2.757-2.393,2.556-4.8274.6776-7.4092-2.0218-7.4092-2.7523,0-4.5846,2.6805-2.0217,7.4092.8649,1.5953-.9341,1.972-2.757,2.393-1.6136.3727-1.7213,1.1608-1.7213,2.5262,0,.21.0027.4334.0027.6718Z" fill="#f8ba1d"/></svg>