<svg width="160" height="180" viewBox="0 0 160 180" fill="none" xmlns="http://www.w3.org/2000/svg">
<path d="M160 0V130.122L80 180L0 130.122V0H160Z" fill="#167ACC"/>
<mask id="path-2-outside-1" maskUnits="userSpaceOnUse" x="21" y="41" width="118" height="99" fill="black">
<rect fill="white" x="21" y="41" width="118" height="99"/>
<path d="M79.4704 124.012L82.6546 120.677V119.035H74.8246V121.27H79.4008L76.5472 124.256V125.792H78.409C79.7662 125.792 80.5144 126.351 80.5144 127.451C80.5318 128.516 79.7662 129.162 78.4264 129.162C77.3302 129.162 76.2514 128.673 75.3466 127.748L74.233 129.93C75.3292 130.786 77.017 131.362 78.6352 131.362C81.4366 131.362 83.2114 129.738 83.2114 127.416C83.2114 125.513 81.9064 124.343 80.062 124.081L79.4704 124.012Z"/>
<path d="M57.2507 77.1237C58.2875 79.4444 59.3713 81.6015 60.448 83.6094C45.7123 78.706 36.8818 64.2069 35.5333 49.275H50.3125C50.443 51.0283 50.6025 52.7488 50.8163 54.3857H41.0687C42.6166 61.6643 46.6838 71.5874 57.2507 77.1237ZM73.9728 100.2C72.164 85.8428 53.6583 77.6584 53.6583 42H104.408C104.408 77.6584 85.9426 85.8428 84.1373 100.2H73.9728ZM62.1771 49.275C62.9202 66.1821 69.3908 79.5863 77.9313 89.4803C71.091 77.622 68.3758 62.4464 68.336 49.275H62.1771ZM97.1583 113.364V139H60.9083V113.364C67.9445 113.364 73.121 108.152 73.8532 103.837H84.2425C84.9421 108.155 89.9156 113.364 97.1583 113.364ZM93.5333 118.387C93.5333 118.387 88.7 114.265 79.0333 114.265C69.3667 114.265 64.5333 118.387 64.5333 118.387V135.362H93.5333V118.387ZM107.754 49.275C107.624 51.0283 107.464 52.7488 107.25 54.3857H116.994C115.446 61.6643 111.379 71.5874 100.812 77.1237C99.7756 79.4444 98.6917 81.6015 97.6151 83.6094C112.354 78.706 121.185 64.2069 122.533 49.275H107.754Z"/>
<path d="M125.376 103.174C120.294 100.865 115.919 102.482 113.218 104.24C115.919 102.478 119.029 98.9102 119 93.3068C109.607 97.0861 110.68 102.395 108.977 105.486C107.835 107.565 105.326 106.483 105.326 106.483L104.554 107.765C105.877 108.468 108.139 108.926 110.775 108.926C115.513 108.926 121.465 107.437 125.376 103.174ZM134.236 88.53C129.226 88.8831 126.558 92.393 125.17 94.9489C126.558 92.393 127.395 87.8782 124.988 83.4509C119.152 90.4742 122.262 94.2207 122.226 97.3992C122.212 98.9539 120.45 98.9175 120.45 98.9175L120.475 100.388C121.614 100.239 131.909 97.7779 134.236 88.53ZM137.991 74.4396C133.746 75.9907 132.336 79.8027 131.764 82.3586C132.336 79.8027 131.912 75.5756 128.737 72.3461C125.42 79.8755 129.034 82.3404 129.788 85.1002C130.158 86.451 128.61 87.3066 128.61 87.3066L129.661 87.9583C129.882 87.8527 138.307 83.1086 137.991 74.4396ZM137.266 60.6333C133.993 63.0581 133.58 66.7791 133.736 69.1348C133.583 66.7828 132.304 63.1674 128.748 61.1903C127.791 68.5377 131.535 69.7428 132.887 71.931C133.547 73.0015 132.971 74.3268 132.971 74.3268L134 74.2576C134 74.2576 134.094 73.7952 134.613 72.6483C135.668 70.3036 139.162 67.7913 137.266 60.6333ZM130.375 50.73C130.375 50.73 129.386 54.3127 130.212 57.0361C131.097 59.9415 133.377 61.9913 133.377 61.9913C133.377 61.9913 134.609 58.8128 133.736 55.6816C132.931 52.798 130.375 50.73 130.375 50.73ZM55.446 107.765L54.6739 106.483C54.6739 106.483 52.169 107.565 51.0235 105.486C49.3197 102.395 50.3927 97.0861 41.0003 93.3068C40.9713 98.9102 44.0816 102.482 46.7822 104.24C44.0816 102.478 39.7062 100.865 34.6239 103.174C38.5317 107.437 44.4876 108.93 49.2255 108.93C51.8609 108.926 54.1193 108.468 55.446 107.765ZM39.5213 100.385L39.5467 98.9138C39.5467 98.9138 37.7849 98.9502 37.7704 97.3956C37.7378 94.2171 40.8444 90.4742 35.0082 83.4472C32.6011 87.8746 33.4385 92.393 34.8269 94.9452C33.4385 92.3893 30.7669 88.8795 25.7607 88.5263C28.088 97.7779 38.3831 100.239 39.5213 100.385ZM30.3391 87.9583L31.3904 87.3066C31.3904 87.3066 29.8425 86.4474 30.2123 85.1002C30.9663 82.3404 34.5804 79.8755 31.2635 72.3461C28.088 75.5756 27.6602 79.8027 28.2366 82.3586C27.6639 79.8027 26.2574 75.9907 22.0088 74.4396C21.6898 83.1086 30.1144 87.8527 30.3391 87.9583ZM25.3874 72.6519C25.9057 73.7988 26 74.2612 26 74.2612L27.0295 74.3304C27.0295 74.3304 26.4531 73.0051 27.1129 71.9347C28.465 69.7465 32.206 68.5377 31.2526 61.194C27.6892 63.1674 26.4132 66.7791 26.261 69.1348C26.4132 66.7791 26 63.0545 22.7302 60.6333C20.8343 67.7913 24.3288 70.3035 25.3874 72.6519ZM26.261 55.6816C25.391 58.8128 26.6199 61.9913 26.6199 61.9913C26.6199 61.9913 28.9 59.9415 29.7845 57.0361C30.611 54.3127 29.6214 50.73 29.6214 50.73C29.6214 50.73 27.0657 52.798 26.261 55.6816Z"/>
</mask>
<path d="M79.4704 124.012L82.6546 120.677V119.035H74.8246V121.27H79.4008L76.5472 124.256V125.792H78.409C79.7662 125.792 80.5144 126.351 80.5144 127.451C80.5318 128.516 79.7662 129.162 78.4264 129.162C77.3302 129.162 76.2514 128.673 75.3466 127.748L74.233 129.93C75.3292 130.786 77.017 131.362 78.6352 131.362C81.4366 131.362 83.2114 129.738 83.2114 127.416C83.2114 125.513 81.9064 124.343 80.062 124.081L79.4704 124.012Z" fill="#FFD800"/>
<path d="M57.2507 77.1237C58.2875 79.4444 59.3713 81.6015 60.448 83.6094C45.7123 78.706 36.8818 64.2069 35.5333 49.275H50.3125C50.443 51.0283 50.6025 52.7488 50.8163 54.3857H41.0687C42.6166 61.6643 46.6838 71.5874 57.2507 77.1237ZM73.9728 100.2C72.164 85.8428 53.6583 77.6584 53.6583 42H104.408C104.408 77.6584 85.9426 85.8428 84.1373 100.2H73.9728ZM62.1771 49.275C62.9202 66.1821 69.3908 79.5863 77.9313 89.4803C71.091 77.622 68.3758 62.4464 68.336 49.275H62.1771ZM97.1583 113.364V139H60.9083V113.364C67.9445 113.364 73.121 108.152 73.8532 103.837H84.2425C84.9421 108.155 89.9156 113.364 97.1583 113.364ZM93.5333 118.387C93.5333 118.387 88.7 114.265 79.0333 114.265C69.3667 114.265 64.5333 118.387 64.5333 118.387V135.362H93.5333V118.387ZM107.754 49.275C107.624 51.0283 107.464 52.7488 107.25 54.3857H116.994C115.446 61.6643 111.379 71.5874 100.812 77.1237C99.7756 79.4444 98.6917 81.6015 97.6151 83.6094C112.354 78.706 121.185 64.2069 122.533 49.275H107.754Z" fill="#FFD800"/>
<path d="M125.376 103.174C120.294 100.865 115.919 102.482 113.218 104.24C115.919 102.478 119.029 98.9102 119 93.3068C109.607 97.0861 110.68 102.395 108.977 105.486C107.835 107.565 105.326 106.483 105.326 106.483L104.554 107.765C105.877 108.468 108.139 108.926 110.775 108.926C115.513 108.926 121.465 107.437 125.376 103.174ZM134.236 88.53C129.226 88.8831 126.558 92.393 125.17 94.9489C126.558 92.393 127.395 87.8782 124.988 83.4509C119.152 90.4742 122.262 94.2207 122.226 97.3992C122.212 98.9539 120.45 98.9175 120.45 98.9175L120.475 100.388C121.614 100.239 131.909 97.7779 134.236 88.53ZM137.991 74.4396C133.746 75.9907 132.336 79.8027 131.764 82.3586C132.336 79.8027 131.912 75.5756 128.737 72.3461C125.42 79.8755 129.034 82.3404 129.788 85.1002C130.158 86.451 128.61 87.3066 128.61 87.3066L129.661 87.9583C129.882 87.8527 138.307 83.1086 137.991 74.4396ZM137.266 60.6333C133.993 63.0581 133.58 66.7791 133.736 69.1348C133.583 66.7828 132.304 63.1674 128.748 61.1903C127.791 68.5377 131.535 69.7428 132.887 71.931C133.547 73.0015 132.971 74.3268 132.971 74.3268L134 74.2576C134 74.2576 134.094 73.7952 134.613 72.6483C135.668 70.3036 139.162 67.7913 137.266 60.6333ZM130.375 50.73C130.375 50.73 129.386 54.3127 130.212 57.0361C131.097 59.9415 133.377 61.9913 133.377 61.9913C133.377 61.9913 134.609 58.8128 133.736 55.6816C132.931 52.798 130.375 50.73 130.375 50.73ZM55.446 107.765L54.6739 106.483C54.6739 106.483 52.169 107.565 51.0235 105.486C49.3197 102.395 50.3927 97.0861 41.0003 93.3068C40.9713 98.9102 44.0816 102.482 46.7822 104.24C44.0816 102.478 39.7062 100.865 34.6239 103.174C38.5317 107.437 44.4876 108.93 49.2255 108.93C51.8609 108.926 54.1193 108.468 55.446 107.765ZM39.5213 100.385L39.5467 98.9138C39.5467 98.9138 37.7849 98.9502 37.7704 97.3956C37.7378 94.2171 40.8444 90.4742 35.0082 83.4472C32.6011 87.8746 33.4385 92.393 34.8269 94.9452C33.4385 92.3893 30.7669 88.8795 25.7607 88.5263C28.088 97.7779 38.3831 100.239 39.5213 100.385ZM30.3391 87.9583L31.3904 87.3066C31.3904 87.3066 29.8425 86.4474 30.2123 85.1002C30.9663 82.3404 34.5804 79.8755 31.2635 72.3461C28.088 75.5756 27.6602 79.8027 28.2366 82.3586C27.6639 79.8027 26.2574 75.9907 22.0088 74.4396C21.6898 83.1086 30.1144 87.8527 30.3391 87.9583ZM25.3874 72.6519C25.9057 73.7988 26 74.2612 26 74.2612L27.0295 74.3304C27.0295 74.3304 26.4531 73.0051 27.1129 71.9347C28.465 69.7465 32.206 68.5377 31.2526 61.194C27.6892 63.1674 26.4132 66.7791 26.261 69.1348C26.4132 66.7791 26 63.0545 22.7302 60.6333C20.8343 67.7913 24.3288 70.3035 25.3874 72.6519ZM26.261 55.6816C25.391 58.8128 26.6199 61.9913 26.6199 61.9913C26.6199 61.9913 28.9 59.9415 29.7845 57.0361C30.611 54.3127 29.6214 50.73 29.6214 50.73C29.6214 50.73 27.0657 52.798 26.261 55.6816Z" fill="#FFD800"/>
<path d="M79.4704 124.012L82.6546 120.677V119.035H74.8246V121.27H79.4008L76.5472 124.256V125.792H78.409C79.7662 125.792 80.5144 126.351 80.5144 127.451C80.5318 128.516 79.7662 129.162 78.4264 129.162C77.3302 129.162 76.2514 128.673 75.3466 127.748L74.233 129.93C75.3292 130.786 77.017 131.362 78.6352 131.362C81.4366 131.362 83.2114 129.738 83.2114 127.416C83.2114 125.513 81.9064 124.343 80.062 124.081L79.4704 124.012Z" stroke="#126BB3" stroke-width="1.5" mask="url(#path-2-outside-1)"/>
<path d="M57.2507 77.1237C58.2875 79.4444 59.3713 81.6015 60.448 83.6094C45.7123 78.706 36.8818 64.2069 35.5333 49.275H50.3125C50.443 51.0283 50.6025 52.7488 50.8163 54.3857H41.0687C42.6166 61.6643 46.6838 71.5874 57.2507 77.1237ZM73.9728 100.2C72.164 85.8428 53.6583 77.6584 53.6583 42H104.408C104.408 77.6584 85.9426 85.8428 84.1373 100.2H73.9728ZM62.1771 49.275C62.9202 66.1821 69.3908 79.5863 77.9313 89.4803C71.091 77.622 68.3758 62.4464 68.336 49.275H62.1771ZM97.1583 113.364V139H60.9083V113.364C67.9445 113.364 73.121 108.152 73.8532 103.837H84.2425C84.9421 108.155 89.9156 113.364 97.1583 113.364ZM93.5333 118.387C93.5333 118.387 88.7 114.265 79.0333 114.265C69.3667 114.265 64.5333 118.387 64.5333 118.387V135.362H93.5333V118.387ZM107.754 49.275C107.624 51.0283 107.464 52.7488 107.25 54.3857H116.994C115.446 61.6643 111.379 71.5874 100.812 77.1237C99.7756 79.4444 98.6917 81.6015 97.6151 83.6094C112.354 78.706 121.185 64.2069 122.533 49.275H107.754Z" stroke="#126BB3" stroke-width="1.5" mask="url(#path-2-outside-1)"/>
<path d="M125.376 103.174C120.294 100.865 115.919 102.482 113.218 104.24C115.919 102.478 119.029 98.9102 119 93.3068C109.607 97.0861 110.68 102.395 108.977 105.486C107.835 107.565 105.326 106.483 105.326 106.483L104.554 107.765C105.877 108.468 108.139 108.926 110.775 108.926C115.513 108.926 121.465 107.437 125.376 103.174ZM134.236 88.53C129.226 88.8831 126.558 92.393 125.17 94.9489C126.558 92.393 127.395 87.8782 124.988 83.4509C119.152 90.4742 122.262 94.2207 122.226 97.3992C122.212 98.9539 120.45 98.9175 120.45 98.9175L120.475 100.388C121.614 100.239 131.909 97.7779 134.236 88.53ZM137.991 74.4396C133.746 75.9907 132.336 79.8027 131.764 82.3586C132.336 79.8027 131.912 75.5756 128.737 72.3461C125.42 79.8755 129.034 82.3404 129.788 85.1002C130.158 86.451 128.61 87.3066 128.61 87.3066L129.661 87.9583C129.882 87.8527 138.307 83.1086 137.991 74.4396ZM137.266 60.6333C133.993 63.0581 133.58 66.7791 133.736 69.1348C133.583 66.7828 132.304 63.1674 128.748 61.1903C127.791 68.5377 131.535 69.7428 132.887 71.931C133.547 73.0015 132.971 74.3268 132.971 74.3268L134 74.2576C134 74.2576 134.094 73.7952 134.613 72.6483C135.668 70.3036 139.162 67.7913 137.266 60.6333ZM130.375 50.73C130.375 50.73 129.386 54.3127 130.212 57.0361C131.097 59.9415 133.377 61.9913 133.377 61.9913C133.377 61.9913 134.609 58.8128 133.736 55.6816C132.931 52.798 130.375 50.73 130.375 50.73ZM55.446 107.765L54.6739 106.483C54.6739 106.483 52.169 107.565 51.0235 105.486C49.3197 102.395 50.3927 97.0861 41.0003 93.3068C40.9713 98.9102 44.0816 102.482 46.7822 104.24C44.0816 102.478 39.7062 100.865 34.6239 103.174C38.5317 107.437 44.4876 108.93 49.2255 108.93C51.8609 108.926 54.1193 108.468 55.446 107.765ZM39.5213 100.385L39.5467 98.9138C39.5467 98.9138 37.7849 98.9502 37.7704 97.3956C37.7378 94.2171 40.8444 90.4742 35.0082 83.4472C32.6011 87.8746 33.4385 92.393 34.8269 94.9452C33.4385 92.3893 30.7669 88.8795 25.7607 88.5263C28.088 97.7779 38.3831 100.239 39.5213 100.385ZM30.3391 87.9583L31.3904 87.3066C31.3904 87.3066 29.8425 86.4474 30.2123 85.1002C30.9663 82.3404 34.5804 79.8755 31.2635 72.3461C28.088 75.5756 27.6602 79.8027 28.2366 82.3586C27.6639 79.8027 26.2574 75.9907 22.0088 74.4396C21.6898 83.1086 30.1144 87.8527 30.3391 87.9583ZM25.3874 72.6519C25.9057 73.7988 26 74.2612 26 74.2612L27.0295 74.3304C27.0295 74.3304 26.4531 73.0051 27.1129 71.9347C28.465 69.7465 32.206 68.5377 31.2526 61.194C27.6892 63.1674 26.4132 66.7791 26.261 69.1348C26.4132 66.7791 26 63.0545 22.7302 60.6333C20.8343 67.7913 24.3288 70.3035 25.3874 72.6519ZM26.261 55.6816C25.391 58.8128 26.6199 61.9913 26.6199 61.9913C26.6199 61.9913 28.9 59.9415 29.7845 57.0361C30.611 54.3127 29.6214 50.73 29.6214 50.73C29.6214 50.73 27.0657 52.798 26.261 55.6816Z" stroke="#126BB3" stroke-width="1.5" mask="url(#path-2-outside-1)"/>
<path fill-rule="evenodd" clip-rule="evenodd" d="M4.44444 0H0V130.122L80 180L160 130.122V0H155.556V50.6757V127.351L80 174.459L4.44444 127.351V0Z" fill="#1886E0"/>
</svg>
