<svg id="Layer_1" data-name="Layer 1" xmlns="http://www.w3.org/2000/svg" viewBox="0 0 33.0812 36"><title>10</title><path d="M11.5784,34.3866A1.6107,1.6107,0,0,0,13.1857,36h5.009V32.6758h-5.009A1.6971,1.6971,0,0,0,11.5784,34.3866Z" fill="#a4e2e1"/><path d="M30.4583,12.7589C29.1148,5.55,24.0279,0,16.5407,0S3.9658,5.55,2.6237,12.7589A2.912,2.912,0,0,0,0,15.6572V23.1a2.92,2.92,0,0,0,2.9141,2.9267H8.0114a12.4164,12.4164,0,0,1,0-13.2976h-2.4A10.8609,10.8609,0,0,1,16.5407,4.2748,10.8614,10.8614,0,0,1,27.47,12.73h-2.4a12.4153,12.4153,0,0,1,0,13.2976h5.0991a2.9179,2.9179,0,0,0,2.9123-2.9259v-7.444A2.9117,2.9117,0,0,0,30.4583,12.7589Z" fill="#a4e2e1"/><path d="M19.8487,33.5232v1.6981c5.9654,0,9.6821-2.1469,10.186-7.5323H28.3355C27.972,31.8252,25.1938,33.5232,19.8487,33.5232Z" fill="#a4e2e1"/><path d="M21.223,21.9148c0-2.8689-2.9866-3.6682-5.2756-4.7439-1.39-.7215-1.2144-2.4474.7774-2.5634a8.5842,8.5842,0,0,1,3.2683.6219l.484-2.2038a12.348,12.348,0,0,0-3.2675-.5625v-1.362H15.8717v1.4271c-2.6019.3574-3.9919,1.99-3.9919,3.8133,0,3.2614,3.8083,3.7587,5.054,4.3387,1.6991.76,1.3849,2.3418-.1528,2.69a8.1589,8.1589,0,0,1-4.3147-.7217l-.6081,2.1994a9.2582,9.2582,0,0,0,4.0135.9721v1.3354H17.21V25.747C19.4259,25.4364,21.2263,24.2126,21.223,21.9148Z" fill="#2fc4c2"/></svg>