<svg id="Layer_1" data-name="Layer 1" xmlns="http://www.w3.org/2000/svg" viewBox="0 0 36 36"><title>9</title><path d="M29.42,25.1782A13.4236,13.4236,0,0,0,31.1543,21H36V15H31.1543A13.4272,13.4272,0,0,0,29.42,10.8224l3.4292-3.4293L28.6054,3.15,25.1762,6.58A13.4013,13.4013,0,0,0,21,4.846V0H15V4.846A13.4246,13.4246,0,0,0,10.8222,6.58L7.3931,3.1512,3.1494,7.3939l3.4307,3.43A13.4171,13.4171,0,0,0,4.8458,15H0v6H4.8458A13.4185,13.4185,0,0,0,6.58,25.1767L3.1494,28.6056,7.3931,32.85,10.8222,29.42A13.4684,13.4684,0,0,0,15,31.1546V36h6V31.1546A13.422,13.422,0,0,0,25.1762,29.42,14.5847,14.5847,0,0,0,29.42,25.1782ZM18,26.8709A8.8707,8.8707,0,1,1,26.8707,18,8.87,8.87,0,0,1,18,26.8709Z" fill="#fbda79"/><path d="M33.9715,30.0634l-9.14-9.069a2.8221,2.8221,0,0,1-.81-2.1978A5.495,5.495,0,0,0,22.44,14.4885a5.4035,5.4035,0,0,0-3.849-1.5982,5.5248,5.5248,0,0,0-1.5573.2241l3.2777,3.2946c.3555,1.6517-2.0255,4.0724-3.6877,3.7073l-3.2777-3.2944a5.591,5.591,0,0,0-.224,1.5671,5.4547,5.4547,0,0,0,5.8769,5.4564,2.7845,2.7845,0,0,1,2.185.8135l9.1412,9.069a2.5847,2.5847,0,0,0,3.6462-3.6645Zm-1.83,2.8645a1.0392,1.0392,0,1,1,1.034-1.0388A1.0365,1.0365,0,0,1,32.1419,32.9279Z" fill="#f8ba1d"/></svg>