<svg width="1920" height="290" viewBox="0 0 1920 290" fill="none" xmlns="http://www.w3.org/2000/svg">
<path d="M684.451 211.043C684.448 207.359 685.212 203.718 686.689 200.378C688.166 197.037 690.32 194.076 693 191.705L687.023 184C683.256 187.304 680.226 191.439 678.148 196.112C676.07 200.786 674.996 205.884 675 211.043C675 212.04 675.049 213.024 675.126 214L684.509 212.709C684.475 212.158 684.451 211.603 684.451 211.043Z" fill="#197FD3" stroke="#0062CC" stroke-width="1.5" stroke-linecap="round" stroke-linejoin="round"/>
<path d="M742 210.159C741.987 212.109 741.808 214.055 741.465 215.975L732.102 214.153C732.709 210.66 732.55 207.076 731.636 203.651C730.722 200.226 729.077 197.043 726.813 194.323C724.55 191.603 721.723 189.412 718.531 187.904C715.338 186.395 711.857 185.604 708.329 185.587C704.586 185.563 700.889 186.413 697.529 188.071L692.821 179.723C697.987 177.068 703.746 175.795 709.544 176.027C715.342 176.258 720.982 177.986 725.923 181.044C730.864 184.101 734.938 188.386 737.754 193.485C740.57 198.584 742.032 204.326 741.999 210.158L742 210.159ZM708.274 234.414C703.117 234.414 698.093 232.762 693.932 229.698C689.772 226.635 686.69 222.319 685.134 217.376L676 220.151C678.073 226.819 682.139 232.682 687.646 236.944C693.152 241.205 699.832 243.657 706.775 243.967C713.718 244.276 720.587 242.427 726.447 238.672C732.307 234.917 736.874 229.438 739.525 222.981L730.552 219.696C728.673 224.067 725.563 227.79 721.604 230.405C717.645 233.021 713.012 234.414 708.274 234.414Z" fill="#197FD3" stroke="#0062CC" stroke-width="1.5" stroke-miterlimit="10"/>
<path d="M700 216H694V223H700V216Z" fill="#0062CC"/>
<path d="M710 212H704V223H710V212Z" fill="#0062CC"/>
<path d="M720 208H714V223H720V208Z" fill="#0062CC"/>
<path d="M716.401 199.221L718.612 201.645L720.5 194L713.061 195.556L715.366 198.085L707.623 206.587L705.019 203.945L703.654 202.486L694 212.838L695.008 214L703.719 204.813L707.663 208.813L716.401 199.221Z" fill="#0062CC"/>
<path d="M346.504 163.144C352.249 160.614 358.568 159.281 364.983 159.251L364.971 156.751C358.22 156.783 351.561 158.185 345.496 160.856L346.504 163.144ZM364.983 159.251C371.397 159.22 377.732 160.492 383.508 162.967L384.492 160.669C378.396 158.057 371.721 156.718 364.971 156.751L364.983 159.251ZM407.762 206.826C406.898 212.97 404.711 218.849 401.354 224.051L403.455 225.406C407.008 219.899 409.323 213.676 410.238 207.174L407.762 206.826ZM401.354 224.051C397.998 229.253 393.554 233.653 388.334 236.942L389.666 239.058C395.196 235.573 399.902 230.914 403.455 225.406L401.354 224.051ZM343.646 237.93C338.135 234.6 333.44 230.078 329.909 224.697L327.819 226.068C331.555 231.762 336.522 236.547 342.354 240.07L343.646 237.93ZM329.909 224.697C326.377 219.315 324.098 213.211 323.239 206.833L320.761 207.167C321.67 213.915 324.082 220.374 327.819 226.068L329.909 224.697Z" fill="#0062CC"/>
<path d="M364.996 210C363.018 210.001 361.085 210.588 359.441 211.688C357.797 212.787 356.516 214.35 355.76 216.177C355.003 218.005 354.806 220.016 355.193 221.955C355.58 223.895 356.533 225.676 357.932 227.074C359.331 228.472 361.113 229.424 363.053 229.809C364.993 230.194 367.004 229.995 368.831 229.237C370.658 228.479 372.219 227.197 373.317 225.552C374.415 223.907 375.001 221.973 375 219.996C375 218.682 374.74 217.382 374.237 216.169C373.734 214.956 372.997 213.854 372.068 212.926C371.139 211.997 370.037 211.261 368.823 210.759C367.609 210.257 366.309 209.999 364.996 210Z" fill="#197FD3" stroke="#0062CC" stroke-width="1.5" stroke-miterlimit="10"/>
<path d="M372.921 231C370.784 232.616 368.174 233.491 365.49 233.492C362.806 233.493 360.195 232.619 358.058 231.005C352.463 233.457 349.003 241.271 349 244.617V244.625C349 244.625 354.098 249.462 363.892 249.952C364.419 249.978 364.949 250 365.503 250C366.056 250 366.587 249.977 367.113 249.95C376.907 249.45 382 244.607 382 244.607V244.6C381.992 241.285 378.416 233.475 372.921 231Z" fill="#197FD3" stroke="#0062CC" stroke-width="1.5" stroke-miterlimit="10"/>
<path d="M331.504 182C333.383 181.999 335.22 181.412 336.782 180.312C338.343 179.213 339.56 177.65 340.279 175.822C340.997 173.995 341.184 171.984 340.817 170.044C340.449 168.105 339.543 166.323 338.214 164.925C336.885 163.527 335.191 162.576 333.348 162.191C331.505 161.806 329.595 162.005 327.86 162.763C326.124 163.521 324.641 164.804 323.598 166.449C322.555 168.094 321.999 170.028 322 172.006C322.001 174.658 323.004 177.201 324.786 179.075C326.568 180.949 328.985 182.001 331.504 182Z" fill="#197FD3" stroke="#0062CC" stroke-width="1.5" stroke-miterlimit="10"/>
<path d="M347.999 196.6C347.993 193.285 344.416 185.475 338.921 183C336.784 184.616 334.174 185.491 331.49 185.492C328.806 185.493 326.195 184.619 324.058 183.005C318.463 185.457 315.003 193.271 315 196.617V196.625C315 196.625 320.098 201.462 329.892 201.951C330.419 201.978 330.949 202 331.503 202C332.056 202 332.587 201.977 333.113 201.95C342.907 201.45 348 196.607 348 196.607L347.999 196.6Z" fill="#197FD3" stroke="#0062CC" stroke-width="1.5" stroke-miterlimit="10"/>
<path d="M398.504 182C400.383 181.999 402.22 181.412 403.782 180.312C405.343 179.213 406.56 177.65 407.279 175.822C407.997 173.995 408.184 171.984 407.817 170.044C407.449 168.105 406.543 166.323 405.214 164.925C403.885 163.528 402.192 162.576 400.348 162.191C398.505 161.806 396.595 162.006 394.86 162.763C393.124 163.521 391.641 164.804 390.598 166.449C389.555 168.094 388.999 170.028 389 172.006C389.001 174.658 390.004 177.201 391.786 179.075C393.568 180.949 395.985 182.001 398.504 182Z" fill="#197FD3" stroke="#0062CC" stroke-width="1.5" stroke-miterlimit="10"/>
<path d="M414.999 196.6C414.993 193.285 411.416 185.475 405.921 183C403.785 184.616 401.174 185.491 398.49 185.492C395.806 185.493 393.195 184.619 391.058 183.005C385.463 185.457 382.003 193.271 382 196.617V196.625C382 196.625 387.098 201.462 396.892 201.951C397.419 201.977 397.949 202 398.503 202C399.056 202 399.587 201.976 400.113 201.95C409.907 201.45 415 196.607 415 196.607L414.999 196.6Z" fill="#197FD3" stroke="#0062CC" stroke-width="1.5" stroke-miterlimit="10"/>
<path d="M521.236 101.563L482.828 101.583L482.802 51.6099L509.997 51.5959L521.216 62.7409L521.236 101.563Z" fill="#0071CE" stroke="#0062CC" stroke-width="1.5" stroke-miterlimit="10" stroke-linecap="round"/>
<path d="M521.216 62.7409L510.002 62.6979L509.997 51.5959L521.216 62.7409Z" fill="#197FD3" stroke="#0062CC" stroke-width="1.5" stroke-linejoin="bevel"/>
<path d="M487.845 69.3656L516.053 69.3511" stroke="#0062CC" stroke-width="1.5" stroke-miterlimit="10"/>
<path d="M487.848 74.8972L515.957 74.8828" stroke="#0062CC" stroke-width="1.5" stroke-miterlimit="10"/>
<path d="M487.851 80.4291L516.059 80.4146" stroke="#0062CC" stroke-width="1.5" stroke-miterlimit="10"/>
<path d="M515.963 85.9463L487.854 85.9607" stroke="#0062CC" stroke-width="1.5" stroke-miterlimit="10"/>
<path d="M509.309 91.4814L487.972 91.4923" stroke="#0062CC" stroke-width="1.5" stroke-miterlimit="10"/>
<path d="M500.605 110.94L462.196 110.96L462.171 60.9881L489.365 60.9741L500.585 72.1191L500.605 110.94Z" fill="#197FD3" stroke="#0062CC" stroke-width="1.5" stroke-miterlimit="10"/>
<path d="M500.585 72.1191L489.371 72.0751L489.365 60.9741L500.585 72.1191Z" fill="#197FD3" stroke="#0062CC" stroke-width="1.5" stroke-linecap="round" stroke-linejoin="bevel"/>
<path d="M467.214 78.7432L495.422 78.7288" stroke="#0062CC" stroke-width="1.5" stroke-miterlimit="10"/>
<path d="M467.217 84.2749L495.326 84.2605" stroke="#0062CC" stroke-width="1.5" stroke-miterlimit="10"/>
<path d="M467.22 89.8064L495.428 89.792" stroke="#0062CC" stroke-width="1.5" stroke-miterlimit="10"/>
<path d="M495.332 95.3237L467.223 95.3381" stroke="#0062CC" stroke-width="1.5" stroke-miterlimit="10"/>
<path d="M488.678 100.859L467.341 100.87" stroke="#0062CC" stroke-width="1.5" stroke-miterlimit="10"/>
<path d="M1613.43 100.85L1664.57 100.823L1664.54 54.8695L1613.41 54.8957L1613.43 100.85Z" stroke="#0062CC" stroke-width="1.3" stroke-miterlimit="10"/>
<path d="M1613.41 67.1499L1664.55 67.1238L1664.54 54.8694L1613.41 54.8955L1613.41 67.1499Z" fill="#197FD3" stroke="#0062CC" stroke-width="1.3" stroke-miterlimit="10"/>
<path d="M1635.8 74.9277L1642.06 90.9424" stroke="#0062CC" stroke-width="2" stroke-miterlimit="10"/>
<path d="M1630.54 76.45L1621.59 83.642L1630.55 89.765" stroke="#0062CC" stroke-width="2" stroke-miterlimit="10"/>
<path d="M1646.8 76.4419L1655.76 83.6249L1646.8 89.7569" stroke="#0062CC" stroke-width="2" stroke-miterlimit="10"/>
<path d="M1660.76 60.9989C1660.76 61.3215 1660.66 61.6369 1660.48 61.9052C1660.3 62.1735 1660.05 62.3826 1659.75 62.5062C1659.45 62.6298 1659.13 62.6622 1658.81 62.5995C1658.49 62.5367 1658.2 62.3815 1657.97 62.1536C1657.75 61.9256 1657.59 61.6351 1657.53 61.3187C1657.46 61.0024 1657.5 60.6745 1657.62 60.3765C1657.74 60.0784 1657.95 59.8235 1658.22 59.6442C1658.49 59.4648 1658.8 59.3691 1659.13 59.3689C1659.34 59.3688 1659.55 59.4108 1659.75 59.4927C1659.95 59.5745 1660.13 59.6946 1660.28 59.8459C1660.43 59.9973 1660.55 60.1771 1660.63 60.3749C1660.71 60.5727 1660.76 60.7847 1660.76 60.9989ZM1653.44 59.3718C1653.12 59.372 1652.8 59.4678 1652.53 59.6471C1652.27 59.8264 1652.06 60.0812 1651.93 60.3793C1651.81 60.6773 1651.78 61.0053 1651.84 61.3217C1651.9 61.638 1652.06 61.9285 1652.29 62.1565C1652.52 62.3845 1652.81 62.5397 1653.12 62.6024C1653.44 62.6652 1653.77 62.6328 1654.06 62.5092C1654.36 62.3856 1654.62 62.1764 1654.8 61.9081C1654.98 61.6398 1655.07 61.3244 1655.07 61.0018C1655.07 60.7876 1655.03 60.5755 1654.95 60.3777C1654.86 60.1798 1654.74 60.0001 1654.59 59.8488C1654.44 59.6974 1654.26 59.5773 1654.06 59.4955C1653.87 59.4136 1653.65 59.3717 1653.44 59.3718H1653.44ZM1647.75 59.3746C1647.43 59.3748 1647.12 59.4707 1646.85 59.65C1646.58 59.8294 1646.37 60.0841 1646.25 60.3822C1646.12 60.6803 1646.09 61.0082 1646.15 61.3246C1646.22 61.6409 1646.37 61.9315 1646.6 62.1594C1646.83 62.3874 1647.12 62.5426 1647.44 62.6053C1647.75 62.6681 1648.08 62.6356 1648.38 62.512C1648.68 62.3884 1648.93 62.1792 1649.11 61.9109C1649.29 61.6426 1649.38 61.3272 1649.38 61.0046C1649.38 60.5721 1649.21 60.1575 1648.91 59.8518C1648.6 59.5461 1648.19 59.3744 1647.75 59.3746Z" fill="#0062CC"/>
<path d="M835.23 222.266L829.995 227.686L823.319 253.254C823.215 253.653 823.01 254.017 822.725 254.31C822.44 254.602 822.084 254.812 821.695 254.92C821.305 255.027 820.895 255.027 820.505 254.92C820.115 254.813 819.76 254.603 819.474 254.311L798.674 233.031C798.389 232.739 798.183 232.376 798.079 231.977C797.974 231.577 797.974 231.157 798.078 230.758C798.182 230.359 798.387 229.995 798.672 229.702C798.958 229.41 799.313 229.2 799.703 229.093L824.63 222.238L829.911 216.825L829.38 216.282C829.172 216.069 829.056 215.781 829.056 215.48C829.055 215.179 829.172 214.891 829.379 214.678L830.692 213.333C830.899 213.12 831.181 213 831.474 213C831.768 213 832.05 213.119 832.257 213.332L838.675 219.898C838.778 220.003 838.86 220.128 838.915 220.265C838.971 220.403 839 220.55 839 220.699C839 220.848 838.971 220.995 838.916 221.133C838.86 221.271 838.779 221.396 838.676 221.501L837.364 222.847C837.156 223.059 836.875 223.179 836.581 223.179C836.287 223.179 836.006 223.06 835.798 222.847L832.259 219.227" stroke="#0062CC" stroke-width="1.5" stroke-linejoin="round"/>
<path d="M818.847 227L803.232 231.019C802.95 231.091 802.693 231.233 802.486 231.431C802.28 231.629 802.132 231.876 802.056 232.146C801.981 232.416 801.981 232.701 802.057 232.971C802.133 233.241 802.281 233.488 802.488 233.685L819.041 249.534C819.248 249.731 819.505 249.874 819.787 249.946C820.069 250.018 820.366 250.018 820.647 249.945C820.929 249.873 821.186 249.731 821.393 249.533C821.599 249.335 821.747 249.088 821.823 248.818L826 233.848L818.847 227ZM813.227 235.726C812.904 236.036 812.491 236.247 812.042 236.333C811.593 236.419 811.128 236.375 810.705 236.208C810.282 236.04 809.92 235.756 809.666 235.391C809.411 235.027 809.275 234.598 809.275 234.159C809.275 233.72 809.41 233.291 809.664 232.926C809.919 232.561 810.28 232.277 810.703 232.109C811.126 231.941 811.591 231.897 812.04 231.982C812.489 232.067 812.902 232.278 813.225 232.588C813.66 233.004 813.904 233.568 813.904 234.157C813.904 234.745 813.661 235.309 813.227 235.726ZM819.885 244.462C819.689 244.65 819.439 244.778 819.167 244.83C818.894 244.882 818.612 244.856 818.356 244.754C818.099 244.652 817.88 244.48 817.726 244.259C817.572 244.038 817.489 243.778 817.489 243.512C817.489 243.246 817.571 242.986 817.725 242.765C817.879 242.544 818.098 242.371 818.355 242.269C818.611 242.168 818.893 242.141 819.165 242.192C819.437 242.244 819.687 242.372 819.884 242.56C820.147 242.812 820.295 243.154 820.295 243.511C820.295 243.867 820.148 244.209 819.885 244.462ZM821.07 237.075C820.835 237.3 820.536 237.454 820.21 237.516C819.884 237.578 819.546 237.547 819.239 237.425C818.931 237.303 818.669 237.097 818.484 236.832C818.299 236.567 818.2 236.256 818.2 235.937C818.2 235.619 818.298 235.307 818.483 235.042C818.667 234.777 818.93 234.571 819.237 234.449C819.544 234.327 819.882 234.295 820.208 234.357C820.534 234.419 820.833 234.572 821.069 234.797C821.225 234.947 821.348 235.124 821.433 235.32C821.517 235.515 821.561 235.724 821.561 235.936C821.561 236.147 821.518 236.357 821.433 236.552C821.349 236.747 821.225 236.925 821.069 237.075H821.07Z" fill="#197FD3" stroke="#0062CC" stroke-width="1.5" stroke-linecap="round" stroke-linejoin="bevel"/>
<path d="M1558.68 162.131C1558.67 163.823 1558.15 165.473 1557.2 166.872C1556.25 168.272 1554.9 169.357 1553.33 169.992C1551.77 170.627 1550.04 170.782 1548.39 170.439C1546.73 170.095 1545.21 169.268 1544.03 168.062C1542.84 166.856 1542.04 165.325 1541.72 163.662C1541.4 162 1541.59 160.281 1542.25 158.723C1542.91 157.165 1544.01 155.838 1545.43 154.909C1546.84 153.981 1548.5 153.492 1550.19 153.506C1551.32 153.515 1552.43 153.745 1553.46 154.184C1554.5 154.622 1555.43 155.26 1556.22 156.061C1557.01 156.862 1557.63 157.81 1558.05 158.852C1558.48 159.893 1558.69 161.007 1558.68 162.131ZM1554.61 136.43L1546.05 136.361L1546 143.27C1543.88 143.735 1541.86 144.555 1540.02 145.695L1535.17 140.766L1529.07 146.767L1533.92 151.697C1532.75 153.518 1531.9 155.525 1531.4 157.632L1524.49 157.576L1524.42 166.131L1531.33 166.187C1531.8 168.302 1532.62 170.323 1533.76 172.164L1528.83 177.014L1534.83 183.114L1539.76 178.262C1541.58 179.432 1543.59 180.285 1545.69 180.783L1545.64 187.693L1554.19 187.763L1554.25 180.853C1556.36 180.389 1558.38 179.569 1560.22 178.429L1565.07 183.36L1571.17 177.358L1566.32 172.429C1567.49 170.607 1568.35 168.599 1568.84 166.492L1575.75 166.548L1575.82 157.993L1568.91 157.937C1568.45 155.822 1567.63 153.801 1566.49 151.962L1571.42 147.112L1565.42 141.014L1560.49 145.861C1558.67 144.691 1556.66 143.839 1554.55 143.34L1554.61 136.43Z" fill="#197FD3" stroke="#0062CC" stroke-width="1.5" stroke-miterlimit="10"/>
<path d="M1598.3 178.402C1598.71 179.411 1598.8 180.515 1598.57 181.577C1598.35 182.639 1597.81 183.61 1597.04 184.368C1596.26 185.125 1595.27 185.635 1594.21 185.833C1593.14 186.031 1592.04 185.908 1591.04 185.48C1590.04 185.052 1589.2 184.337 1588.6 183.427C1588.01 182.517 1587.7 181.452 1587.72 180.366C1587.73 179.281 1588.07 178.224 1588.68 177.329C1589.3 176.435 1590.16 175.742 1591.17 175.34C1591.84 175.073 1592.56 174.94 1593.28 174.949C1594 174.959 1594.71 175.11 1595.37 175.394C1596.03 175.679 1596.63 176.091 1597.14 176.607C1597.64 177.123 1598.04 177.733 1598.3 178.402V178.402ZM1589.65 164.129L1584.55 166.163L1586.2 170.28C1585.05 171.069 1584.05 172.046 1583.24 173.17L1579.16 171.42L1576.99 176.464L1581.07 178.214C1580.82 179.579 1580.8 180.978 1581.01 182.349L1576.9 183.993L1578.93 189.09L1583.05 187.447C1583.84 188.59 1584.81 189.591 1585.94 190.407L1584.19 194.483L1589.23 196.65L1590.98 192.572C1592.35 192.825 1593.75 192.844 1595.12 192.629L1596.76 196.746L1601.86 194.711L1600.22 190.595C1601.36 189.806 1602.36 188.829 1603.17 187.705L1607.25 189.456L1609.42 184.413L1605.34 182.663C1605.59 181.297 1605.61 179.898 1605.4 178.525L1609.51 176.882L1607.48 171.785L1603.36 173.428C1602.57 172.285 1601.6 171.284 1600.47 170.468L1602.22 166.392L1597.18 164.227L1595.43 168.302C1594.06 168.049 1592.67 168.03 1591.29 168.245L1589.65 164.129Z" stroke="#0062CC" stroke-width="1.5" stroke-miterlimit="10"/>
<path d="M1195.15 54.15C1197.75 51.5478 1201.07 49.7757 1204.68 49.0577C1208.29 48.3398 1212.03 48.7082 1215.43 50.1165C1218.83 51.5247 1221.73 53.9096 1223.78 56.9695C1225.82 60.0293 1226.91 63.6268 1226.91 67.3069C1226.91 70.987 1225.82 74.5843 1223.78 77.6442C1221.73 80.704 1218.83 83.0889 1215.43 84.4972C1212.03 85.9055 1208.29 86.274 1204.68 85.556C1201.07 84.8381 1197.75 83.0659 1195.15 80.4636C1191.67 76.9716 1189.71 72.24 1189.71 67.3069C1189.71 62.3737 1191.67 57.642 1195.15 54.15ZM1191.52 50.5177C1188.2 53.8383 1185.94 58.0691 1185.02 62.675C1184.1 67.281 1184.57 72.0552 1186.37 76.3939C1188.17 80.7327 1191.21 84.4411 1195.11 87.0502C1199.02 89.6593 1203.61 91.0519 1208.31 91.0519C1213 91.0519 1217.59 89.6593 1221.5 87.0502C1225.4 84.4411 1228.45 80.7327 1230.24 76.3939C1232.04 72.0552 1232.51 67.281 1231.59 62.675C1230.68 58.0691 1228.42 53.8383 1225.1 50.5177C1220.64 46.0654 1214.6 43.5642 1208.31 43.5642C1202.01 43.5642 1195.97 46.0654 1191.52 50.5177Z" fill="#197FD3"/>
<path d="M1208.31 44.2999C1213.63 44.3 1218.79 46.1456 1222.9 49.5224C1227.02 52.8991 1229.83 57.598 1230.87 62.8185C1231.91 68.039 1231.11 73.458 1228.6 78.1522C1226.09 82.8465 1222.03 86.5256 1217.11 88.5625C1212.19 90.5994 1206.72 90.8683 1201.63 89.3231C1196.53 87.778 1192.13 84.5145 1189.18 80.0888C1186.22 75.663 1184.89 70.3489 1185.41 65.0518C1185.93 59.7546 1188.28 54.8022 1192.04 51.0385C1194.17 48.8954 1196.71 47.1964 1199.5 46.0397C1202.29 44.883 1205.28 44.2917 1208.31 44.2999ZM1208.31 43C1202.68 43 1197.23 44.9498 1192.89 48.5174C1188.54 52.0849 1185.56 57.0492 1184.47 62.5647C1183.37 68.0802 1184.22 73.8054 1186.87 78.7649C1189.52 83.7244 1193.81 87.6114 1199.01 89.7634C1204.2 91.9155 1209.98 92.1996 1215.36 90.5672C1220.74 88.9348 1225.39 85.487 1228.52 80.8112C1231.64 76.1354 1233.05 70.5209 1232.5 64.9245C1231.95 59.328 1229.47 54.0959 1225.49 50.1194C1223.24 47.8589 1220.56 46.0663 1217.61 44.8445C1214.66 43.6227 1211.5 42.9959 1208.31 43Z" fill="#0062CC"/>
<path d="M1229.51 88.5069L1224.69 83.6882" stroke="#0062CC" stroke-width="4" stroke-miterlimit="10"/>
<path d="M1233.21 85.0645L1226.06 92.2134L1249.21 115.363L1256.36 108.215L1233.21 85.0645Z" fill="#197FD3" stroke="#0062CC" stroke-width="1.5" stroke-miterlimit="10"/>
<path d="M1208.41 62.5975C1210.08 62.6585 1211.71 63.0676 1213.21 63.7986C1214.71 64.5296 1216.04 65.5662 1217.11 66.8418C1215.83 68.523 1212.8 71.7518 1208.41 71.7518C1204.36 71.7518 1201.15 68.5155 1199.73 66.8018C1200.81 65.542 1202.14 64.5186 1203.63 63.7952C1205.13 63.0718 1206.75 62.6641 1208.41 62.5975ZM1208.41 60.7666C1201.48 60.7666 1197.41 66.7635 1197.41 66.7635C1197.41 66.7635 1201.84 73.5836 1208.41 73.5836C1215.49 73.5836 1219.38 66.7635 1219.38 66.7635C1219.38 66.7635 1215.45 60.7666 1208.41 60.7666ZM1208.4 64.1516C1207.8 64.1516 1207.21 64.3288 1206.72 64.661C1206.22 64.9932 1205.83 65.4654 1205.6 66.0178C1205.37 66.5703 1205.31 67.1782 1205.43 67.7646C1205.55 68.3511 1205.83 68.8898 1206.26 69.3126C1206.68 69.7354 1207.22 70.0235 1207.81 70.1401C1208.39 70.2568 1209 70.1969 1209.55 69.968C1210.11 69.7392 1210.58 69.3517 1210.91 68.8545C1211.24 68.3573 1211.42 67.7728 1211.42 67.1748C1211.42 66.7778 1211.34 66.3846 1211.19 66.0178C1211.04 65.651 1210.81 65.3176 1210.53 65.0369C1210.25 64.7561 1209.92 64.5335 1209.55 64.3816C1209.19 64.2297 1208.79 64.1515 1208.4 64.1516Z" fill="#0062CC"/>
<path d="M1036.62 245.21C1038.86 245.21 1040.67 243.396 1040.67 241.159C1040.67 238.922 1038.86 237.109 1036.62 237.109C1034.38 237.109 1032.57 238.922 1032.57 241.159C1032.57 243.396 1034.38 245.21 1036.62 245.21Z" fill="#197FD3" stroke="#0062CC" stroke-width="1.5" stroke-miterlimit="10"/>
<path d="M1083.04 58.2542C1082.46 58.2542 1081.89 58.4278 1081.4 58.7531C1080.91 59.0783 1080.53 59.5406 1080.31 60.0814C1080.08 60.6223 1080.03 61.2174 1080.14 61.7916C1080.25 62.3658 1080.54 62.8933 1080.95 63.3073C1081.36 63.7212 1081.89 64.0031 1082.47 64.1173C1083.04 64.2315 1083.63 64.1729 1084.18 63.9489C1084.72 63.7248 1085.18 63.3454 1085.5 62.8586C1085.83 62.3719 1086 61.7997 1086 61.2142C1086 60.4292 1085.69 59.6763 1085.14 59.1212C1084.58 58.5661 1083.83 58.2542 1083.04 58.2542Z" fill="#197FD3" stroke="#0062CC" stroke-width="1.5" stroke-miterlimit="10"/>
<path d="M1093.73 58.2542C1093.15 58.2542 1092.57 58.4278 1092.09 58.7531C1091.6 59.0783 1091.22 59.5406 1091 60.0814C1090.77 60.6223 1090.71 61.2174 1090.83 61.7916C1090.94 62.3658 1091.22 62.8933 1091.64 63.3073C1092.05 63.7212 1092.58 64.0031 1093.15 64.1173C1093.73 64.2315 1094.32 64.1729 1094.86 63.9489C1095.41 63.7248 1095.87 63.3454 1096.19 62.8586C1096.52 62.3719 1096.69 61.7997 1096.69 61.2142C1096.69 60.4292 1096.38 59.6763 1095.82 59.1212C1095.27 58.5661 1094.52 58.2542 1093.73 58.2542Z" fill="#197FD3" stroke="#0062CC" stroke-width="1.5" stroke-miterlimit="10"/>
<path d="M1104.42 64.1739C1106.06 64.1739 1107.38 62.8487 1107.38 61.2139C1107.38 59.5791 1106.06 58.2539 1104.42 58.2539C1102.79 58.2539 1101.46 59.5791 1101.46 61.2139C1101.46 62.8487 1102.79 64.1739 1104.42 64.1739Z" fill="#197FD3" stroke="#0062CC" stroke-width="1.5" stroke-miterlimit="10"/>
<path d="M279.811 134.139C279.811 137.163 277.359 139.615 274.335 139.615V141.115C278.187 141.115 281.311 137.991 281.311 134.139H279.811ZM274.335 139.615C271.311 139.615 268.859 137.163 268.859 134.139H267.359C267.359 137.991 270.482 141.115 274.335 141.115V139.615ZM268.859 134.139C268.859 131.115 271.311 128.663 274.335 128.663V127.163C270.482 127.163 267.359 130.286 267.359 134.139H268.859ZM274.335 128.663C277.359 128.663 279.811 131.115 279.811 134.139H281.311C281.311 130.286 278.187 127.163 274.335 127.163V128.663ZM271.267 134.889H277.403V133.389H271.267V134.889ZM275.085 137.207V131.071H273.585V137.207H275.085Z" fill="#197FD3"/>
<path d="M1190.7 185.226C1190.7 188.25 1188.25 190.701 1185.23 190.701V192.201C1189.08 192.201 1192.2 189.078 1192.2 185.226H1190.7ZM1185.23 190.701C1182.2 190.701 1179.75 188.25 1179.75 185.226H1178.25C1178.25 189.078 1181.37 192.201 1185.23 192.201V190.701ZM1179.75 185.226C1179.75 182.202 1182.2 179.75 1185.23 179.75V178.25C1181.37 178.25 1178.25 181.373 1178.25 185.226H1179.75ZM1185.23 179.75C1188.25 179.75 1190.7 182.202 1190.7 185.226H1192.2C1192.2 181.373 1189.08 178.25 1185.23 178.25V179.75ZM1182.16 185.976H1188.29V184.476H1182.16V185.976ZM1185.98 188.294V182.158H1184.48V188.294H1185.98Z" fill="#197FD3"/>
<path d="M651.375 146C650.818 147.828 649.82 149.49 648.469 150.842C647.118 152.193 645.456 153.191 643.628 153.748C645.455 154.306 647.117 155.305 648.468 156.655C649.819 158.006 650.817 159.668 651.375 161.494C651.933 159.667 652.932 158.006 654.282 156.655C655.633 155.304 657.295 154.306 659.122 153.748C657.295 153.191 655.633 152.192 654.282 150.841C652.931 149.49 651.933 147.828 651.375 146Z" fill="#197FD3" stroke="#0062CC" stroke-width="1.5" stroke-miterlimit="10"/>
<path d="M630.5 163C629.837 163 629.201 163.263 628.732 163.732C628.263 164.201 628 164.837 628 165.5C628 166.163 628.263 166.799 628.732 167.268C629.201 167.737 629.837 168 630.5 168C631.163 168 631.799 167.737 632.268 167.268C632.737 166.799 633 166.163 633 165.5C633 164.837 632.737 164.201 632.268 163.732C631.799 163.263 631.163 163 630.5 163V163Z" stroke="#0062CC" stroke-width="1.5" stroke-miterlimit="10"/>
<path d="M1113.98 198.577C1113.46 200.291 1112.53 201.85 1111.26 203.117C1109.99 204.384 1108.43 205.32 1106.72 205.843C1108.43 206.366 1109.99 207.302 1111.26 208.568C1112.52 209.835 1113.46 211.393 1113.98 213.106C1114.51 211.393 1115.44 209.835 1116.71 208.568C1117.98 207.302 1119.53 206.366 1121.25 205.843C1119.53 205.32 1117.98 204.383 1116.71 203.116C1115.44 201.849 1114.51 200.291 1113.98 198.577Z" fill="#197FD3" stroke="#0062CC" stroke-width="1.5" stroke-miterlimit="10" stroke-linecap="round"/>
<path d="M1282.5 148C1282.1 149.298 1281.4 150.478 1280.44 151.437C1279.48 152.396 1278.3 153.105 1277 153.501C1278.3 153.897 1279.48 154.606 1280.44 155.564C1281.4 156.523 1282.1 157.703 1282.5 159C1282.9 157.703 1283.6 156.523 1284.56 155.564C1285.52 154.605 1286.7 153.897 1288 153.501C1286.7 153.105 1285.52 152.396 1284.56 151.437C1283.6 150.478 1282.9 149.297 1282.5 148Z" fill="#197FD3" stroke="#0062CC" stroke-width="1.5" stroke-miterlimit="10" stroke-linecap="round"/>
<path d="M1424.5 55C1424.1 56.2976 1423.4 57.4779 1422.44 58.4372C1421.48 59.3965 1420.3 60.1052 1419 60.5009C1420.3 60.8969 1421.48 61.6055 1422.44 62.5644C1423.4 63.5232 1424.1 64.703 1424.5 66C1424.9 64.703 1425.6 63.5232 1426.56 62.5643C1427.52 61.6054 1428.7 60.8968 1430 60.5009C1428.7 60.1049 1427.52 59.396 1426.56 58.4368C1425.6 57.4776 1424.9 56.2974 1424.5 55Z" fill="#197FD3" stroke="#0062CC" stroke-width="1.5" stroke-miterlimit="10" stroke-linecap="round"/>
<path d="M817.77 72.2175C821.402 72.2175 821.478 75.875 825.085 75.875C828.691 75.875 828.767 72.2175 832.4 72.2175C836.032 72.2175 836.108 75.875 839.714 75.875C843.321 75.875 843.372 72.2175 847.029 72.2175C850.687 72.2175 850.611 75.875 854.344 75.875C858.078 75.875 857.977 72.2175 861.659 72.2175C865.292 72.2175 865.368 75.875 868.974 75.875C872.581 75.875 872.657 72.2175 876.289 72.2175C879.922 72.2175 879.998 75.875 883.604 75.875C887.211 75.875 887.262 72.2175 890.919 72.2175C894.577 72.2175 894.501 75.875 898.234 75.875C901.968 75.875 901.867 72.2175 905.549 72.2175" stroke="#0062CC" stroke-width="1.5" stroke-miterlimit="10"/>
<path d="M1524 240C1527.63 240 1527.71 243.657 1531.32 243.657C1534.92 243.657 1535 240 1538.63 240C1542.26 240 1542.34 243.657 1545.95 243.657C1549.55 243.657 1549.6 240 1553.26 240C1556.92 240 1556.84 243.657 1560.58 243.657C1564.31 243.657 1564.21 240 1567.89 240C1571.52 240 1571.6 243.657 1575.21 243.657C1578.81 243.657 1578.89 240 1582.52 240C1586.15 240 1586.23 243.657 1589.84 243.657C1593.44 243.657 1593.49 240 1597.15 240C1600.81 240 1600.73 243.657 1604.46 243.657C1608.2 243.657 1608.1 240 1611.78 240" stroke="#0062CC" stroke-width="1.5" stroke-miterlimit="10"/>
<path d="M1717 88C1720.13 88 1720.06 85 1723.25 85C1726.44 85 1726.35 88 1729.5 88C1732.6 88 1732.67 85 1735.75 85C1738.83 85 1738.9 88 1742 88C1745.1 88 1745.17 85 1748.25 85C1751.33 85 1751.38 88 1754.5 88C1757.63 88 1757.56 85 1760.75 85C1763.94 85 1763.85 88 1767 88" stroke="#0062CC" stroke-width="1.5" stroke-miterlimit="10"/>
<path d="M518 250C521.632 250 521.708 253.657 525.315 253.657C528.921 253.657 528.998 250 532.63 250C536.262 250 536.338 253.657 539.945 253.657C543.552 253.657 543.602 250 547.26 250C550.917 250 550.841 253.657 554.575 253.657C558.309 253.657 558.207 250 561.89 250C565.522 250 565.598 253.657 569.205 253.657C572.812 253.657 572.888 250 576.52 250C580.152 250 580.228 253.657 583.835 253.657" stroke="#197FD3" stroke-width="1.5" stroke-miterlimit="10"/>
<path d="M114.214 179.077C117.846 179.077 117.922 182.735 121.529 182.735C125.136 182.735 125.212 179.077 128.844 179.077C132.476 179.077 132.552 182.735 136.159 182.735C139.766 182.735 139.816 179.077 143.474 179.077C147.131 179.077 147.055 182.735 150.789 182.735C154.523 182.735 154.421 179.077 158.104 179.077C161.736 179.077 161.812 182.735 165.419 182.735C169.026 182.735 169.102 179.077 172.734 179.077C176.366 179.077 176.442 182.735 180.049 182.735" stroke="#0062CC" stroke-width="1.5" stroke-miterlimit="10"/>
<path d="M643.936 125.467H694.763" stroke="#0062CC" stroke-width="1.5" stroke-miterlimit="10"/>
<path d="M223.084 215.586C225.089 215.586 226.714 213.961 226.714 211.957C226.714 209.952 225.089 208.327 223.084 208.327C221.08 208.327 219.455 209.952 219.455 211.957C219.455 213.961 221.08 215.586 223.084 215.586Z" fill="#197FD3" stroke="#0062CC" stroke-width="1.5" stroke-miterlimit="10"/>
<path d="M238.791 97.7934C240.45 97.7934 241.795 96.4485 241.795 94.7895C241.795 93.1305 240.45 91.7856 238.791 91.7856C237.132 91.7856 235.787 93.1305 235.787 94.7895C235.787 96.4485 237.132 97.7934 238.791 97.7934Z" stroke="#0062CC" stroke-width="1.5" stroke-miterlimit="10"/>
<path d="M197.021 183.584L201.917 178.688" stroke="#0062CC" stroke-width="1.5" stroke-miterlimit="10"/>
<path d="M196.961 178.629L201.857 183.525" stroke="#0062CC" stroke-width="1.5" stroke-miterlimit="10"/>
<path d="M628.227 218.312C627.617 218.312 627.02 218.131 626.513 217.792C626.006 217.453 625.61 216.972 625.377 216.408C625.143 215.844 625.082 215.224 625.201 214.625C625.32 214.027 625.614 213.477 626.045 213.046C626.477 212.614 627.027 212.32 627.625 212.201C628.224 212.082 628.844 212.143 629.408 212.377C629.971 212.61 630.453 213.006 630.792 213.513C631.131 214.02 631.312 214.617 631.312 215.227C631.312 215.632 631.233 216.033 631.078 216.408C630.922 216.782 630.695 217.122 630.409 217.409C630.122 217.695 629.782 217.922 629.408 218.078C629.034 218.233 628.632 218.312 628.227 218.312ZM628.227 207C623.91 207 620 210.5 620 214.818C620 219.136 623.567 224.29 628.227 231.681C632.887 224.29 636.454 219.135 636.454 214.818C636.454 210.5 632.545 207 628.227 207Z" fill="#197FD3" stroke="#0062CC" stroke-width="1.5" stroke-miterlimit="10"/>
<path d="M1025.92 226.1V259.172H1055.7" stroke="#0062CC" stroke-width="1.5" stroke-miterlimit="10"/>
<path d="M1051.37 229.32V259.172" stroke="#0062CC" stroke-width="1.5" stroke-miterlimit="10"/>
<path d="M1046.49 238.251V259.171" stroke="#0062CC" stroke-width="1.5" stroke-miterlimit="10"/>
<path d="M1041.29 250.091V259.172" stroke="#0062CC" stroke-width="1.5" stroke-miterlimit="10"/>
<path d="M1036.62 244.534V259.171" stroke="#0062CC" stroke-width="1.5" stroke-miterlimit="10"/>
<path d="M1031.53 251.233V259.172" stroke="#0062CC" stroke-width="1.5" stroke-miterlimit="10"/>
<path d="M1346.64 43.7905C1343.5 43.7916 1340.48 44.995 1338.21 47.1532C1335.93 49.3114 1334.57 52.26 1334.4 55.3921C1332.19 55.7913 1330.21 57.0035 1328.85 58.7902C1327.49 60.5769 1326.84 62.8087 1327.04 65.0463C1327.24 67.2838 1328.28 69.3652 1329.93 70.8806C1331.59 72.3961 1333.76 73.2358 1336.01 73.2347H1357.27C1359.52 73.2358 1361.68 72.3961 1363.34 70.8806C1365 69.3652 1366.03 67.2838 1366.23 65.0463C1366.43 62.8087 1365.79 60.5769 1364.43 58.7902C1363.06 57.0035 1361.08 55.7913 1358.87 55.3921C1358.71 52.26 1357.34 49.3114 1355.07 47.1532C1352.79 44.995 1349.77 43.7915 1346.64 43.7905V43.7905Z" stroke="#197FD3" stroke-width="1.5" stroke-miterlimit="10"/>
<path d="M1339.71 53.6091C1340.15 52.3555 1340.92 51.2448 1341.94 50.3952C1342.96 49.5457 1344.2 48.9892 1345.51 48.7851C1346.82 48.5811 1348.17 48.737 1349.4 49.2364C1350.63 49.7358 1351.7 50.5599 1352.5 51.6208" stroke="#197FD3" stroke-width="1.5" stroke-miterlimit="10"/>
<path d="M1258 190V200.648V225H1323" stroke="#0062CC" stroke-width="1.5" stroke-miterlimit="10"/>
<path d="M1266 201H1258V225H1266V201Z" fill="#197FD3" stroke="#0062CC" stroke-width="1.5" stroke-miterlimit="10"/>
<path d="M1281 211H1273V225H1281V211Z" stroke="#0062CC" stroke-width="1.5" stroke-miterlimit="10"/>
<path d="M1296 192H1288V225H1296V192Z" fill="#197FD3" stroke="#0062CC" stroke-width="1.5" stroke-miterlimit="10"/>
<path d="M1311 172H1303V225H1311V172Z" stroke="#0062CC" stroke-width="1.5" stroke-miterlimit="10"/>
<path d="M476.186 212.034L466.201 202.049L460.048 208.202L470.033 218.187L476.186 212.034Z" fill="#197FD3" stroke="#0062CC" stroke-width="1.5" stroke-miterlimit="10"/>
<path d="M460.135 198.165C460.611 197.989 461.127 197.953 461.622 198.061C462.117 198.17 462.571 198.418 462.93 198.777L496.352 232.199L496.688 232.535L501.963 243.278C502.02 243.395 502.039 243.527 502.017 243.655C501.995 243.783 501.934 243.902 501.841 243.993C501.748 244.084 501.629 244.144 501.5 244.164C501.372 244.184 501.24 244.162 501.124 244.103L490.534 238.688L456.776 204.93C456.53 204.684 456.335 204.391 456.202 204.07C456.069 203.748 456 203.404 456 203.056C456 202.708 456.069 202.363 456.202 202.042C456.335 201.72 456.53 201.428 456.776 201.182L459.181 198.777C459.451 198.506 459.776 198.298 460.134 198.165" stroke="#0062CC" stroke-width="1.5" stroke-miterlimit="10"/>
<path d="M493.61 235.611L473.109 215.11" stroke="#0062CC" stroke-width="1.5" stroke-miterlimit="10"/>
<path d="M490.282 238.436L496.435 232.283" stroke="#0062CC" stroke-width="1.5" stroke-miterlimit="10"/>
<path d="M909.104 211.171H894.983V219.873H909.104V211.171Z" fill="#197FD3" stroke="#0062CC" stroke-width="1.5" stroke-miterlimit="10"/>
<path d="M887.947 212.715C888.159 212.254 888.498 211.864 888.925 211.59C889.352 211.317 889.849 211.171 890.356 211.172H988.725L1000.52 215.198C1000.61 215.229 1000.69 215.288 1000.74 215.366C1000.8 215.444 1000.83 215.537 1000.83 215.633C1000.83 215.729 1000.8 215.822 1000.74 215.899C1000.68 215.976 1000.6 216.033 1000.51 216.063L988.725 219.873H890.356C890.008 219.873 889.663 219.804 889.342 219.671C889.02 219.538 888.728 219.343 888.482 219.097C888.236 218.851 888.041 218.558 887.908 218.237C887.775 217.915 887.706 217.571 887.706 217.223V213.821C887.706 213.439 887.788 213.062 887.947 212.715" stroke="#0062CC" stroke-width="1.5" stroke-miterlimit="10"/>
<path d="M988.725 215.522H909.104" stroke="#0062CC" stroke-width="1.5" stroke-miterlimit="10"/>
<path d="M988.369 219.873V211.171" stroke="#0062CC" stroke-width="1.5" stroke-miterlimit="10"/>
<path d="M994.591 217.977L1000.51 216.063C1000.6 216.033 1000.68 215.976 1000.74 215.899C1000.8 215.822 1000.83 215.729 1000.83 215.633C1000.83 215.537 1000.8 215.444 1000.74 215.366C1000.69 215.288 1000.61 215.229 1000.52 215.198L994.49 213.14L994.591 217.977Z" fill="#197FD3" stroke="#0062CC" stroke-width="1.5" stroke-miterlimit="10"/>
<path d="M1114.82 46.635H1072.98V75.941H1114.82V70.309L1123.55 66.83L1114.82 61.288V46.635Z" stroke="#0062CC" stroke-width="1.5" stroke-miterlimit="10"/>
<path d="M311.63 53.9751L290.207 56.7048L293.735 84.3904L315.158 81.6606L311.63 53.9751Z" fill="#197FD3" stroke="#0062CC" stroke-width="1.5" stroke-miterlimit="10"/>
<path d="M311.567 53.962L290.144 56.6909L293.67 84.376L315.093 81.6471L311.567 53.962Z" stroke="#0062CC" stroke-width="1.5" stroke-miterlimit="10"/>
<path d="M294.454 63.1753L309.022 61.3196" stroke="#0062CC" stroke-width="1.5" stroke-miterlimit="10"/>
<path d="M295.042 67.7893L309.61 65.9336" stroke="#0062CC" stroke-width="1.5" stroke-miterlimit="10"/>
<path d="M295.63 72.4036L310.197 70.5479" stroke="#0062CC" stroke-width="1.5" stroke-miterlimit="10"/>
<path d="M296.218 77.0178L310.785 75.1621" stroke="#0062CC" stroke-width="1.5" stroke-miterlimit="10"/>
<path d="M449.25 147.5C449.25 151.78 445.78 155.25 441.5 155.25V156.75C446.609 156.75 450.75 152.609 450.75 147.5H449.25ZM441.5 155.25C437.22 155.25 433.75 151.78 433.75 147.5H432.25C432.25 152.609 436.391 156.75 441.5 156.75V155.25ZM433.75 147.5C433.75 143.22 437.22 139.75 441.5 139.75V138.25C436.391 138.25 432.25 142.391 432.25 147.5H433.75ZM441.5 139.75C445.78 139.75 449.25 143.22 449.25 147.5H450.75C450.75 142.391 446.609 138.25 441.5 138.25V139.75ZM437.311 148.25H445.689V146.75H437.311V148.25ZM442.25 151.689V143.311H440.75V151.689H442.25Z" fill="#0062CC"/>
<path d="M786.25 59C786.25 62.4518 783.452 65.25 780 65.25V66.75C784.28 66.75 787.75 63.2802 787.75 59H786.25ZM780 65.25C776.548 65.25 773.75 62.4518 773.75 59H772.25C772.25 63.2802 775.72 66.75 780 66.75V65.25ZM773.75 59C773.75 55.5482 776.548 52.75 780 52.75V51.25C775.72 51.25 772.25 54.7198 772.25 59H773.75ZM780 52.75C783.452 52.75 786.25 55.5482 786.25 59H787.75C787.75 54.7198 784.28 51.25 780 51.25V52.75ZM776.55 59.75H783.45V58.25H776.55V59.75ZM780.75 62.4496V55.5503H779.25V62.4496H780.75Z" fill="#197FD3"/>
<path d="M1441.25 117C1441.25 120.452 1438.45 123.25 1435 123.25V124.75C1439.28 124.75 1442.75 121.28 1442.75 117H1441.25ZM1435 123.25C1431.55 123.25 1428.75 120.452 1428.75 117H1427.25C1427.25 121.28 1430.72 124.75 1435 124.75V123.25ZM1428.75 117C1428.75 113.548 1431.55 110.75 1435 110.75V109.25C1430.72 109.25 1427.25 112.72 1427.25 117H1428.75ZM1435 110.75C1438.45 110.75 1441.25 113.548 1441.25 117H1442.75C1442.75 112.72 1439.28 109.25 1435 109.25V110.75ZM1431.55 117.75H1438.45V116.25H1431.55V117.75ZM1435.75 120.45V113.55H1434.25V120.45H1435.75Z" fill="#197FD3"/>
<path d="M243.512 158.511L250.809 165.808" stroke="#0062CC" stroke-width="1.5" stroke-miterlimit="10"/>
<path d="M243.511 165.809L250.809 158.511" stroke="#0062CC" stroke-width="1.5" stroke-miterlimit="10"/>
<path d="M769.429 192.465L776.726 199.762" stroke="#0062CC" stroke-width="1.5" stroke-miterlimit="10"/>
<path d="M769.429 199.762L776.727 192.465" stroke="#0062CC" stroke-width="1.5" stroke-miterlimit="10"/>
<path d="M1617.97 136.361H1628.29" stroke="#0062CC" stroke-width="1.5" stroke-miterlimit="10"/>
<path d="M1623.13 141.521V131.201" stroke="#0062CC" stroke-width="1.5" stroke-miterlimit="10"/>
<path d="M1750.44 200.5L1755.95 194.991" stroke="#0062CC" stroke-width="1.5" stroke-miterlimit="10"/>
<path d="M1755.95 200.5L1750.44 194.99" stroke="#0062CC" stroke-width="1.5" stroke-miterlimit="10"/>
<path d="M1225.94 151.368L1233.24 158.665" stroke="#0062CC" stroke-width="1.5" stroke-miterlimit="10"/>
<path d="M1225.94 158.665L1233.24 151.368" stroke="#0062CC" stroke-width="1.5" stroke-miterlimit="10"/>
<path d="M1477.55 80.895H1491.87C1491.56 77.2006 1489.96 73.7351 1487.34 71.1135C1484.71 68.492 1481.25 66.884 1477.55 66.575V80.895Z" fill="#197FD3" stroke="#0062CC" stroke-width="1.5" stroke-miterlimit="10"/>
<path d="M1490.62 84.458C1490.37 87.4394 1489.27 90.2875 1487.46 92.6666C1485.64 95.0457 1483.19 96.8566 1480.38 97.8856C1477.57 98.9146 1474.52 99.1189 1471.6 98.4744C1468.68 97.8298 1466.01 96.3634 1463.89 94.2479C1461.77 92.1324 1460.31 89.4561 1459.66 86.5347C1459.02 83.6132 1459.22 80.5684 1460.25 77.7593C1461.28 74.9502 1463.09 72.494 1465.47 70.6803C1467.85 68.8666 1470.7 67.7709 1473.68 67.5227V84.458H1490.62Z" stroke="#0062CC" stroke-width="1.5" stroke-miterlimit="10"/>
<path d="M1473.68 84.458L1463.9 94.243" stroke="#0062CC" stroke-width="1.5" stroke-miterlimit="10"/>
<path d="M213.428 121.708H164.689V158.262H213.428V121.708Z" stroke="#0062CC" stroke-width="1.5" stroke-miterlimit="10"/>
<path d="M209.283 125.528H168.834V154.442H209.283V125.528Z" stroke="#0062CC" stroke-width="1.5" stroke-miterlimit="10"/>
<path d="M192.903 134.217L188.061 141.907L183.291 138.138L175.601 149.597H202.515L192.903 134.217Z" fill="#197FD3" stroke="#0062CC" stroke-width="1.5" stroke-miterlimit="10"/>
<path d="M177.921 136.086C178.528 136.208 179.158 136.13 179.718 135.866C180.278 135.601 180.738 135.163 181.03 134.617C181.322 134.071 181.431 133.445 181.34 132.833C181.249 132.22 180.963 131.653 180.525 131.215C180.087 130.777 179.52 130.492 178.908 130.402C178.295 130.311 177.669 130.42 177.123 130.712C176.577 131.005 176.14 131.465 175.876 132.025C175.611 132.585 175.534 133.215 175.656 133.822C175.768 134.381 176.043 134.894 176.446 135.297C176.849 135.7 177.362 135.975 177.921 136.086Z" fill="#197FD3" stroke="#0062CC" stroke-width="1.5" stroke-miterlimit="10"/>
<path d="M1204.99 232.049L1222.2 237.827L1216.78 240.853L1223.01 247.062L1220.23 249.846L1214 243.628L1210.87 249.166L1204.99 232.049Z" fill="#197FD3" stroke="#0062CC" stroke-width="1.5" stroke-miterlimit="10" stroke-linecap="round"/>
<path d="M1199.74 226.707L1194.26 221.226" stroke="#0062CC" stroke-width="1.5" stroke-miterlimit="10"/>
<path d="M1205.39 225.759L1205.58 219.419" stroke="#0062CC" stroke-width="1.5" stroke-miterlimit="10"/>
<path d="M1198.63 232.522L1192.66 232.339" stroke="#0062CC" stroke-width="1.5" stroke-miterlimit="10"/>
<path d="M1684.89 167.708C1684.89 168.172 1684.71 168.617 1684.38 168.945C1684.05 169.273 1683.61 169.457 1683.14 169.457C1682.68 169.457 1682.24 169.273 1681.91 168.945C1681.58 168.617 1681.4 168.172 1681.4 167.708V160.711C1681.4 160.247 1681.58 159.802 1681.91 159.474C1682.24 159.146 1682.68 158.962 1683.14 158.962C1683.61 158.962 1684.05 159.146 1684.38 159.474C1684.71 159.802 1684.89 160.247 1684.89 160.711V167.708Z" fill="#197FD3" stroke="#0062CC" stroke-width="1.5" stroke-miterlimit="10"/>
<path d="M1684.89 167.708C1684.89 168.172 1684.71 168.617 1684.38 168.945C1684.05 169.273 1683.61 169.457 1683.14 169.457C1682.68 169.457 1682.24 169.273 1681.91 168.945C1681.58 168.617 1681.4 168.172 1681.4 167.708V160.711C1681.4 160.247 1681.58 159.802 1681.91 159.474C1682.24 159.146 1682.68 158.962 1683.14 158.962C1683.61 158.962 1684.05 159.146 1684.38 159.474C1684.71 159.802 1684.89 160.247 1684.89 160.711V167.708ZM1690.14 153.715H1676.15C1674.29 153.715 1672.51 154.452 1671.2 155.764C1669.89 157.076 1669.15 158.856 1669.15 160.711V181.701C1669.15 185.412 1670.63 188.972 1673.25 191.596C1675.87 194.22 1679.43 195.694 1683.14 195.694C1686.86 195.694 1690.41 194.22 1693.04 191.596C1695.66 188.972 1697.14 185.412 1697.14 181.701V160.711C1697.14 158.856 1696.4 157.076 1695.09 155.764C1693.78 154.452 1692 153.715 1690.14 153.715V153.715Z" stroke="#0062CC" stroke-width="1.5" stroke-miterlimit="10"/>
<path d="M1713.29 206.408V208.408H1711.29" stroke="#197FD3" stroke-width="1.5" stroke-miterlimit="10"/>
<path d="M1707.54 208.408H1656.88" stroke="#197FD3" stroke-width="1.5" stroke-miterlimit="10" stroke-dasharray="3.75 3.75"/>
<path d="M1655 208.408H1653V206.408" stroke="#197FD3" stroke-width="1.5" stroke-miterlimit="10"/>
<path d="M1653 202.181V145.114" stroke="#197FD3" stroke-width="1.5" stroke-miterlimit="10" stroke-dasharray="4.23 4.23"/>
<path d="M1653 143V141H1655" stroke="#197FD3" stroke-width="1.5" stroke-miterlimit="10"/>
<path d="M1658.75 141H1709.41" stroke="#197FD3" stroke-width="1.5" stroke-miterlimit="10" stroke-dasharray="3.75 3.75"/>
<path d="M1711.29 141H1713.29V143" stroke="#197FD3" stroke-width="1.5" stroke-miterlimit="10"/>
<path d="M1713.29 147.228V204.295" stroke="#197FD3" stroke-width="1.5" stroke-miterlimit="10" stroke-dasharray="4.23 4.23"/>
<path d="M391.839 72.1909H414.369" stroke="#0062CC" stroke-width="1.5" stroke-miterlimit="10"/>
<path d="M419.144 72.1909H429.274" stroke="#0062CC" stroke-width="1.5" stroke-miterlimit="10"/>
<path d="M297.408 115.108H338.202" stroke="#0062CC" stroke-width="1.5" stroke-miterlimit="10"/>
<path d="M326.08 119.786H346.874" stroke="#0062CC" stroke-width="1.5" stroke-miterlimit="10"/>
<path d="M1334.89 111.468H1365.02" stroke="#0062CC" stroke-width="1.5" stroke-miterlimit="10"/>
<path d="M1304.89 117.645H1348.85" stroke="#0062CC" stroke-width="1.5" stroke-miterlimit="10"/>
<path d="M480.541 143.96H518.184V142.46H480.541V143.96ZM484.552 139.275H510.147V137.775H484.552V139.275Z" fill="#0062CC"/>
<path d="M166.104 94.4077H204.064" stroke="#0062CC" stroke-width="1.5" stroke-miterlimit="10"/>
<path d="M151.937 98.6101H180.489" stroke="#0062CC" stroke-width="1.5" stroke-miterlimit="10"/>
<path d="M1096.43 252.646H1136.03" stroke="#0062CC" stroke-width="1.5" stroke-miterlimit="10"/>
<path d="M1112.61 246.702H1163.73" stroke="#0062CC" stroke-width="1.5" stroke-miterlimit="10"/>
<path d="M1529.99 83.656H1567.94" stroke="#197FD3" stroke-width="1.5" stroke-miterlimit="10"/>
<path d="M1545.09 88.8408H1588.86" stroke="#197FD3" stroke-width="1.5" stroke-miterlimit="10"/>
<path d="M1662 237H1705.77" stroke="#0062CC" stroke-width="1.5" stroke-miterlimit="10"/>
<path d="M1680 233H1733.77" stroke="#0062CC" stroke-width="1.5" stroke-miterlimit="10"/>
<path d="M322.399 110.429H351.492" stroke="#0062CC" stroke-width="1.5" stroke-miterlimit="10"/>
<path d="M355.281 81.7862L361.96 75.1079" stroke="#0062CC" stroke-width="1.5" stroke-miterlimit="10"/>
<path d="M355.201 75.0271L361.88 81.7055" stroke="#0062CC" stroke-width="1.5" stroke-miterlimit="10"/>
<path d="M561.585 145.371L567.557 139.399" stroke="#197FD3" stroke-width="1.5" stroke-miterlimit="10"/>
<path d="M561.514 139.327L567.485 145.299" stroke="#197FD3" stroke-width="1.5" stroke-miterlimit="10"/>
<path d="M494.871 182.394L499.968 177.297" stroke="#0062CC" stroke-width="1.5" stroke-miterlimit="10"/>
<path d="M494.811 177.236L499.907 182.332" stroke="#0062CC" stroke-width="1.5" stroke-miterlimit="10"/>
<path d="M1572.34 61.3975L1578.34 55.3901" stroke="#0062CC" stroke-width="1.5" stroke-miterlimit="10"/>
<path d="M1572.26 55.3176L1578.27 61.3249" stroke="#0062CC" stroke-width="1.5" stroke-miterlimit="10"/>
<path d="M596.895 70.6753C592.628 74.303 589.954 74.4724 585.504 74.4724V89.0724C585.504 94.8978 589.558 96.4182 596.895 101.052C604.232 96.4185 608.287 94.8981 608.287 89.0724V74.4724C603.837 74.4724 601.162 74.303 596.895 70.6753Z" stroke="#0062CC" stroke-width="1.5" stroke-miterlimit="10"/>
<path d="M276.5 204.5L279.892 193.5H253.892L259.139 204.5H276.5Z" fill="#197FD3" stroke="#0062CC" stroke-width="1.5" stroke-miterlimit="10"/>
<path d="M284.183 189L278.502 207.667L259 207.664L260.324 210H280.206L285.887 191.333H289.864L291 189H284.183Z" fill="#0062CC"/>
<path d="M274 212C273.604 212 273.218 212.117 272.889 212.337C272.56 212.557 272.304 212.869 272.152 213.235C272.001 213.6 271.961 214.002 272.038 214.39C272.116 214.778 272.306 215.135 272.586 215.414C272.866 215.694 273.222 215.885 273.61 215.962C273.998 216.039 274.4 215.999 274.766 215.848C275.131 215.696 275.443 215.44 275.663 215.111C275.883 214.782 276 214.395 276 214C276 213.469 275.789 212.961 275.414 212.586C275.039 212.211 274.53 212 274 212Z" fill="#0062CC"/>
<path d="M265 212C264.604 212 264.218 212.117 263.889 212.337C263.56 212.557 263.303 212.869 263.152 213.235C263.001 213.6 262.961 214.003 263.038 214.391C263.116 214.778 263.306 215.135 263.586 215.414C263.866 215.694 264.222 215.885 264.61 215.962C264.998 216.039 265.4 215.999 265.766 215.848C266.131 215.696 266.443 215.44 266.663 215.111C266.883 214.782 267 214.395 267 214C267 213.469 266.789 212.961 266.414 212.586C266.039 212.211 265.53 212 265 212V212Z" fill="#0062CC"/>
<path d="M393.601 99.7859C389.965 102.878 387.685 103.022 383.893 103.022V115.465C383.893 120.43 387.348 121.726 393.601 125.675C399.854 121.726 403.31 120.43 403.31 115.465V103.022C399.517 103.022 397.238 102.878 393.601 99.7859Z" fill="#197FD3" stroke="#0062CC" stroke-width="1.5" stroke-miterlimit="10"/>
<path d="M392.805 116.622L388.43 112.362L389.998 110.792L392.805 113.482L398.358 107.81L399.928 109.38L392.805 116.622Z" fill="#0062CC"/>
<path d="M595.962 90.4301L590.828 85.4311L592.668 83.5891L595.962 86.7451L602.478 80.0911L604.319 81.9321L595.962 90.4301Z" fill="#0062CC"/>
<path d="M1468.4 153.604L1474.92 147.079" stroke="#197FD3" stroke-width="1.5" stroke-miterlimit="10"/>
<path d="M1468.32 147L1474.84 153.525" stroke="#197FD3" stroke-width="1.5" stroke-miterlimit="10"/>
<path d="M1428.16 170.749H1374V237.514H1428.16V170.749Z" fill="#197FD3" stroke="#0062CC" stroke-width="1.5" stroke-miterlimit="10"/>
<path d="M1425.52 252.422H1376.63C1375.94 252.422 1375.27 252.144 1374.77 251.65C1374.28 251.156 1374 250.486 1374 249.787V159.144C1374 158.445 1374.28 157.775 1374.77 157.281C1375.27 156.787 1375.94 156.51 1376.63 156.51H1425.52C1426.22 156.51 1426.89 156.787 1427.39 157.281C1427.88 157.775 1428.16 158.445 1428.16 159.144V249.787C1428.16 250.486 1427.88 251.156 1427.39 251.65C1426.89 252.144 1426.22 252.422 1425.52 252.422Z" stroke="#0062CC" stroke-width="1.5" stroke-miterlimit="10"/>
<path d="M1428.16 170.749H1374" stroke="#0062CC" stroke-width="1.5" stroke-miterlimit="10"/>
<path d="M1374 237.514H1428.16" stroke="#0062CC" stroke-width="1.5" stroke-miterlimit="10"/>
<path d="M1401.08 247.57C1402.73 247.57 1404.07 246.232 1404.07 244.581C1404.07 242.931 1402.73 241.593 1401.08 241.593C1399.43 241.593 1398.09 242.931 1398.09 244.581C1398.09 246.232 1399.43 247.57 1401.08 247.57Z" stroke="#0062CC" stroke-width="1.5" stroke-miterlimit="10"/>
<path d="M1396.3 163.893H1406.22" stroke="#0062CC" stroke-width="1.5" stroke-miterlimit="10"/>
<path d="M1387.92 222.71C1386.69 222.582 1385.55 221.998 1384.72 221.072C1383.9 220.147 1383.44 218.947 1383.46 217.708C1383.42 215.866 1384.27 214.136 1384.82 212.379C1385.97 208.735 1384.03 205.865 1381.3 204.131C1384.03 202.398 1385.97 199.528 1384.82 195.884C1384.27 194.127 1383.42 192.397 1383.46 190.555C1383.44 189.316 1383.9 188.116 1384.72 187.191C1385.55 186.265 1386.69 185.681 1387.92 185.553" stroke="#0062CC" stroke-width="1.5" stroke-miterlimit="10"/>
<path d="M1415.73 222.71C1416.97 222.582 1418.11 221.998 1418.93 221.072C1419.76 220.147 1420.21 218.947 1420.2 217.708C1420.23 215.866 1419.39 214.136 1418.83 212.379C1417.69 208.735 1419.62 205.865 1422.35 204.131C1419.62 202.398 1417.69 199.528 1418.83 195.884C1419.39 194.127 1420.23 192.397 1420.2 190.555C1420.21 189.316 1419.76 188.116 1418.93 187.191C1418.11 186.265 1416.97 185.681 1415.73 185.553" stroke="#0062CC" stroke-width="1.5" stroke-miterlimit="10"/>
<path d="M1389.03 216.63H1393.61" stroke="#0062CC" stroke-width="1.5" stroke-miterlimit="10"/>
<path d="M1389.34 192.213H1398.47" stroke="#0062CC" stroke-width="1.5" stroke-miterlimit="10"/>
<path d="M1401.05 192.213H1404" stroke="#0062CC" stroke-width="1.5" stroke-miterlimit="10"/>
<path d="M1407.43 192.213H1414.34" stroke="#0062CC" stroke-width="1.5" stroke-miterlimit="10"/>
<path d="M1389.34 198.317H1405.32" stroke="#0062CC" stroke-width="1.5" stroke-miterlimit="10"/>
<path d="M1408.28 198.317H1412.28" stroke="#0062CC" stroke-width="1.5" stroke-miterlimit="10"/>
<path d="M1389.34 204.422H1396.73" stroke="#0062CC" stroke-width="1.5" stroke-miterlimit="10"/>
<path d="M1400.47 204.422H1404.48" stroke="#0062CC" stroke-width="1.5" stroke-miterlimit="10"/>
<path d="M1406.91 204.422H1410.39" stroke="#0062CC" stroke-width="1.5" stroke-miterlimit="10"/>
<path d="M1389.34 210.526H1398.04" stroke="#0062CC" stroke-width="1.5" stroke-miterlimit="10"/>
<path d="M1401.37 210.526H1404" stroke="#0062CC" stroke-width="1.5" stroke-miterlimit="10"/>
<path d="M1407.8 210.526H1414.34" stroke="#0062CC" stroke-width="1.5" stroke-miterlimit="10"/>
<path d="M1396.3 216.63H1408.75" stroke="#0062CC" stroke-width="1.5" stroke-miterlimit="10"/>
<path d="M1437.96 197.152C1433.91 202.572 1439.92 203.629 1439.5 207.736C1439.49 207.841 1439.51 207.946 1439.56 208.037C1439.61 208.129 1439.69 208.202 1439.79 208.246C1439.88 208.29 1439.99 208.303 1440.09 208.283C1440.2 208.263 1440.29 208.211 1440.36 208.134C1445.54 202.546 1439.42 201.081 1438.99 197.463C1438.98 197.347 1438.94 197.237 1438.86 197.147C1438.79 197.056 1438.69 196.99 1438.58 196.956C1438.47 196.922 1438.35 196.923 1438.24 196.958C1438.13 196.993 1438.03 197.06 1437.96 197.152V197.152Z" fill="#197FD3"/>
<path d="M1446.53 191.667C1446.53 191.601 1446.52 191.533 1446.49 191.475C1446.45 191.417 1446.4 191.372 1446.34 191.344C1446.28 191.317 1446.21 191.31 1446.15 191.324C1446.08 191.338 1446.02 191.373 1445.98 191.423C1437.9 200.356 1449.18 201.253 1447.03 208.206C1447.01 208.271 1447.02 208.341 1447.05 208.403C1447.07 208.466 1447.12 208.518 1447.17 208.552C1447.23 208.586 1447.3 208.601 1447.37 208.593C1447.44 208.585 1447.5 208.555 1447.55 208.508C1457.92 198.481 1445.41 198.277 1446.53 191.667Z" fill="#197FD3"/>
<path d="M1469.53 247.007H1418.79C1419.55 248.625 1420.75 249.994 1422.26 250.953C1423.77 251.912 1425.52 252.422 1427.3 252.422H1461.02C1462.8 252.422 1464.55 251.912 1466.06 250.953C1467.57 249.994 1468.77 248.625 1469.53 247.007Z" fill="#197FD3" stroke="#0062CC" stroke-width="1.5" stroke-miterlimit="10"/>
<path d="M1464.24 219.583C1464.39 217.841 1464.46 216.093 1464.46 214.169H1423.86C1423.86 229.643 1428.92 238.874 1434.8 247.007H1453.44C1455.25 244.828 1456.79 242.443 1458.04 239.901C1467.72 238.754 1476.09 229.65 1477.76 221.252C1477.8 221.048 1477.79 220.837 1477.73 220.636C1477.68 220.435 1477.59 220.248 1477.45 220.089C1477.32 219.929 1477.15 219.801 1476.96 219.713C1476.77 219.626 1476.57 219.581 1476.36 219.582L1464.24 219.583ZM1461.52 232.318C1462.37 229.942 1463.03 227.504 1463.5 225.026H1468.55C1468.68 225.027 1468.81 225.061 1468.92 225.127C1469.03 225.192 1469.13 225.285 1469.19 225.398C1469.26 225.511 1469.3 225.639 1469.3 225.769C1469.3 225.9 1469.27 226.029 1469.21 226.144C1467.57 229.139 1464.8 231.359 1461.52 232.318Z" fill="#197FD3" stroke="#0062CC" stroke-width="1.5" stroke-miterlimit="10"/>
<path d="M1430.27 221.271C1430.53 226.764 1432.25 232.088 1435.26 236.69" stroke="#0062CC" stroke-width="1.5" stroke-miterlimit="10"/>
<path d="M557.026 173C550.226 173 543 175.039 543 178.819V202.092H543.059C543.663 205.552 550.531 207.417 557.026 207.417C563.521 207.417 570.388 205.552 570.992 202.092H571.052V178.819C571.052 175.039 563.825 173 557.026 173Z" fill="#197FD3"/>
<path d="M557.026 183.875C564.352 183.875 570.29 181.612 570.29 178.819C570.29 176.026 564.352 173.762 557.026 173.762C549.7 173.762 543.762 176.026 543.762 178.819C543.762 181.612 549.7 183.875 557.026 183.875Z" stroke="#0062CC" stroke-width="1.5" stroke-miterlimit="10"/>
<path d="M570.29 186.413C570.29 189.205 564.352 191.469 557.026 191.469C549.7 191.469 543.762 189.205 543.762 186.413" stroke="#0062CC" stroke-width="1.5" stroke-miterlimit="10"/>
<path d="M570.29 194.129C570.29 196.922 564.352 199.185 557.026 199.185C549.7 199.185 543.762 196.922 543.762 194.129" stroke="#0062CC" stroke-width="1.5" stroke-miterlimit="10"/>
<path d="M570.29 201.599C570.29 204.392 564.352 206.656 557.026 206.656C549.7 206.656 543.762 204.392 543.762 201.599" stroke="#0062CC" stroke-width="1.5" stroke-miterlimit="10"/>
<path d="M570.29 178.819V202.092" stroke="#0062CC" stroke-width="1.5" stroke-miterlimit="10"/>
<path d="M543.762 178.819V202.092" stroke="#0062CC" stroke-width="1.5" stroke-miterlimit="10"/>
<path d="M972.828 48.666C966.028 48.666 958.802 50.706 958.802 54.4846V77.7579H958.861C959.465 81.2179 966.333 83.0833 972.828 83.0833C979.322 83.0833 986.19 81.2183 986.794 77.7579H986.853V54.485C986.853 50.706 979.627 48.666 972.828 48.666Z" fill="#197FD3"/>
<path d="M972.828 59.5417C980.153 59.5417 986.092 57.2778 986.092 54.4852C986.092 51.6926 980.153 49.4287 972.828 49.4287C965.502 49.4287 959.563 51.6926 959.563 54.4852C959.563 57.2778 965.502 59.5417 972.828 59.5417Z" stroke="#0062CC" stroke-width="1.5" stroke-miterlimit="10"/>
<path d="M986.092 62.0789C986.092 64.8715 980.153 67.1354 972.828 67.1354C965.502 67.1354 959.563 64.8715 959.563 62.0789" stroke="#0062CC" stroke-width="1.5" stroke-miterlimit="10"/>
<path d="M986.092 69.7952C986.092 72.5878 980.153 74.8517 972.828 74.8517C965.502 74.8517 959.563 72.5878 959.563 69.7952" stroke="#0062CC" stroke-width="1.5" stroke-miterlimit="10"/>
<path d="M986.092 77.2651C986.092 80.0577 980.153 82.3217 972.828 82.3217C965.502 82.3217 959.563 80.0577 959.563 77.2651" stroke="#0062CC" stroke-width="1.5" stroke-miterlimit="10"/>
<path d="M986.092 54.4854V77.7583" stroke="#0062CC" stroke-width="1.5" stroke-miterlimit="10"/>
<path d="M959.563 54.4854V77.7583" stroke="#0062CC" stroke-width="1.5" stroke-miterlimit="10"/>
<path d="M669.35 119.296H716.828" stroke="#0062CC" stroke-width="1.5" stroke-miterlimit="10"/>
<path d="M1328.43 124.552H1402.04" stroke="#0062CC" stroke-width="1.5" stroke-miterlimit="10"/>
<path d="M1779 130.27H1789.15C1789.42 130.27 1789.67 130.327 1789.91 130.436C1790.15 130.546 1790.36 130.706 1790.53 130.905L1798.77 140.486C1799.04 140.809 1799.2 141.219 1799.21 141.645C1799.21 142.07 1799.07 142.485 1798.8 142.816L1780.42 165.664C1780.25 165.876 1780.03 166.047 1779.79 166.164C1779.54 166.282 1779.27 166.343 1779 166.344C1778.73 166.345 1778.46 166.285 1778.22 166.168C1777.97 166.052 1777.75 165.882 1777.58 165.672L1758.99 142.822C1758.72 142.489 1758.58 142.072 1758.58 141.644C1758.59 141.215 1758.75 140.803 1759.03 140.479L1767.32 130.899C1767.49 130.701 1767.71 130.542 1767.94 130.434C1768.18 130.325 1768.44 130.269 1768.7 130.269L1779 130.27Z" fill="#197FD3" stroke="#0062CC" stroke-width="1.5" stroke-miterlimit="10"/>
<path d="M1799.53 141.636H1758.26" stroke="#0062CC" stroke-width="1.5" stroke-miterlimit="10"/>
<path d="M1779.41 165.852L1787.06 142.534C1787.15 142.257 1787.17 141.961 1787.12 141.673C1787.08 141.385 1786.96 141.112 1786.79 140.878L1778.89 130.27L1771 140.878C1770.82 141.112 1770.71 141.385 1770.66 141.673C1770.61 141.961 1770.63 142.257 1770.73 142.534L1778.38 165.852C1778.41 165.961 1778.48 166.056 1778.57 166.123C1778.66 166.191 1778.78 166.227 1778.89 166.227C1779 166.227 1779.12 166.191 1779.21 166.123C1779.3 166.056 1779.37 165.961 1779.41 165.852V165.852Z" stroke="#0062CC" stroke-width="1.5" stroke-linejoin="bevel"/>
<path d="M1778.89 124.641V112" stroke="#0062CC" stroke-width="1.5" stroke-miterlimit="10"/>
<path d="M1798.17 122.362L1793.76 126.77" stroke="#0062CC" stroke-width="1.5" stroke-miterlimit="10"/>
<path d="M1764.18 156.347L1759.3 161.226" stroke="#0062CC" stroke-width="1.5" stroke-miterlimit="10"/>
<path d="M1798.22 160.962L1793.72 156.468" stroke="#0062CC" stroke-width="1.5" stroke-miterlimit="10"/>
<path d="M1764.09 126.834L1759.44 122.183" stroke="#0062CC" stroke-width="1.5" stroke-miterlimit="10"/>
<path d="M1744 141.636H1753.16" stroke="#0062CC" stroke-width="1.5" stroke-miterlimit="10"/>
<path d="M1804.69 141.636H1814.2" stroke="#0062CC" stroke-width="1.5" stroke-miterlimit="10"/>
<path d="M1778.9 170.8V178.8" stroke="#0062CC" stroke-width="1.5" stroke-miterlimit="10"/>
<path d="M712 63.0672C711.566 60.9178 710.307 59.0036 708.474 57.7041C706.641 56.4047 704.367 55.8147 702.103 56.0511C699.839 56.2874 697.75 57.3329 696.25 58.9804C694.75 60.6279 693.948 62.7571 694.004 64.946C694.004 64.9966 694.003 64.8956 694.004 64.946C692.759 63.8702 691.127 63.3036 689.454 63.3664C687.759 63.3248 686.11 63.8981 684.835 64.9724C683.56 66.0466 682.753 67.543 682.573 69.1637C681.835 69.1429 681.1 69.2675 680.414 69.5298C679.728 69.7921 679.105 70.1866 678.583 70.689C678.061 71.1914 677.652 71.791 677.38 72.4511C677.108 73.1112 676.98 73.8178 677.003 74.5274C677.035 75.9956 677.666 77.3928 678.761 78.4169C679.856 79.4409 681.326 80.0096 682.853 79.9999H707.322" stroke="#0062CC" stroke-width="1.5" stroke-linejoin="bevel"/>
<path d="M710 80H714" stroke="#0062CC" stroke-width="1.5" stroke-linejoin="bevel"/>
<path d="M716.85 80H720.829C721.64 80 722.442 79.8406 723.191 79.5309C723.939 79.2211 724.62 78.7672 725.193 78.1949C725.766 77.6226 726.22 76.9432 726.53 76.1955C726.84 75.4477 727 74.6463 727 73.8369C726.936 72.1742 726.226 70.6018 725.022 69.4521C723.817 68.3025 722.213 67.6659 720.547 67.6769C720.36 66.1061 719.601 64.6588 718.414 63.6117C717.227 62.5645 715.696 61.9908 714.112 62.0001C713.103 61.9995 712.109 62.2462 711.218 62.7188C710.326 63.1914 709.565 63.8752 709 64.7104" stroke="#0062CC" stroke-width="1.5" stroke-linejoin="bevel"/>
<path d="M679.019 43.1275C678.767 41.8716 678.044 40.7543 676.995 39.9958C675.946 39.2373 674.646 38.8925 673.352 39.0294C672.057 39.1663 670.861 39.775 670 40.7355C669.139 41.696 668.675 42.9387 668.7 44.2187C668.699 44.1893 668.7 44.2482 668.7 44.2187C667.989 43.5911 667.058 43.2605 666.104 43.2971C665.137 43.2729 664.197 43.6074 663.47 44.234C662.742 44.8606 662.282 45.7335 662.179 46.6789C661.758 46.6668 661.339 46.7395 660.947 46.8925C660.556 47.0455 660.201 47.2756 659.903 47.5686C659.605 47.8617 659.372 48.2114 659.217 48.5965C659.062 48.9816 658.988 49.3938 659.001 49.8077C659.02 50.6642 659.38 51.4792 660.005 52.0765C660.629 52.6739 661.468 53.0056 662.339 52.9999H684.449C685.39 52.9999 686.294 52.632 686.96 51.9772C687.626 51.3224 688 49.926 688 49C688 46.8667 687.621 45.506 686.5 44.5C685.379 43.494 684.109 42.5 682 42.5C681 42.5 679.511 42.911 679.019 43.1275Z" fill="#197FD3"/>
<circle cx="651.5" cy="89.5" r="3.5" stroke="#0062CC" stroke-width="1.5" stroke-miterlimit="10"/>
</svg>
