<svg width="85" height="76" viewBox="0 0 85 76" fill="none" xmlns="http://www.w3.org/2000/svg">
<path fill-rule="evenodd" clip-rule="evenodd" d="M74.5962 3.24419L85 45.2756L84.9464 72.8512C84.9464 74.6642 83.4448 76 81.4606 76H3.4858C1.50158 76 0 74.6642 0 72.8512V45.2756L10.4038 3.24419C10.8864 1.33584 12.7098 0 14.9085 0H70.0915C72.2902 0 74.1136 1.28814 74.5962 3.24419ZM14.9085 1.28814C13.5678 1.28814 12.3344 2.14689 11.7981 3.43503L1.55521 44.7985H31.3722C31.8013 44.7985 32.0694 45.037 32.0694 45.4664C32.1767 51.1915 36.8423 54.7696 42.4732 54.7696C48.3186 54.7696 52.877 50.6667 52.877 45.4664C52.877 45.037 53.0915 44.7985 53.5741 44.7985H83.3912L73.041 3.48274C72.7192 2.1946 71.4322 1.28814 70.0379 1.28814H14.9085ZM3.4858 74.7119H81.4606C82.694 74.7119 83.552 73.9485 83.552 72.8512V46.2298H54.4322L54.3785 46.7546C53.6814 52.1456 48.6404 56.2009 42.6341 56.2009C36.8423 56.2009 31.3186 53.0998 30.7823 46.7068L30.7287 46.1343H1.44795V72.8512C1.44795 73.9485 2.25237 74.7119 3.4858 74.7119ZM31.2295 14.1979C31.5349 13.9336 32.0295 13.9341 32.3342 14.1991L42.5 23.0404L52.6658 14.1991C52.9705 13.9341 53.4651 13.9336 53.7705 14.1979C54.076 14.4623 54.0766 14.8914 53.7719 15.1564L43.6034 24L53.7719 32.8436C54.0766 33.1086 54.076 33.5377 53.7705 33.8021C53.4651 34.0664 52.9705 34.0659 52.6658 33.8009L42.5 24.9596L32.3342 33.8009C32.0295 34.0659 31.5349 34.0664 31.2295 33.8021C30.924 33.5377 30.9234 33.1086 31.2281 32.8436L41.3966 24L31.2281 15.1564C30.9234 14.8914 30.924 14.4623 31.2295 14.1979Z" fill="#57575C"/>
</svg>
