<svg width="84" height="32" viewBox="0 0 84 32" fill="none" xmlns="http://www.w3.org/2000/svg">
<path d="M0 27.4511V4.19373C0.472464 4.19373 0.878256 4.51329 1.43725 5.10834L10.3874 14.0585L19.3376 5.10834C19.8297 4.59787 20.2273 4.19373 20.8402 4.19373V27.4511H16.0058V16.345L10.3874 21.8981L4.84746 16.345L4.8344 27.4511H0Z" fill="#404242"/>
<path d="M33.3958 4.19373C32.9015 4.19373 32.7767 4.54897 32.4038 5.36966L22.8264 27.4511H27.9875L29.0197 24.8379H36.8332L37.8655 27.4511H43.9279L34.3637 5.36966C33.9834 4.53701 33.7783 4.19373 33.3958 4.19373V4.19373ZM32.9265 15.2737L35.1737 20.7875H30.6792L32.9265 15.2737Z" fill="#404242"/>
<path d="M45.927 4.45508V27.4511H51.4147V18.8276H52.7866C55.0993 18.8276 56.038 19.6245 56.834 21.7514C57.7842 24.2675 58.1211 26.004 58.405 27.4511H64.6059L62.7167 21.9634C61.9601 19.7437 60.9808 17.9844 59.1889 16.7878C60.6498 16.1756 62.3342 14.0985 62.3342 11.2654C62.3342 6.81515 58.8309 4.45508 54.3545 4.45508H45.927ZM51.4147 8.50552H53.0479C55.6134 8.50552 56.7712 9.70409 56.7712 11.613C56.7712 13.4938 55.4579 14.6465 53.4399 14.6465H51.4147V8.50552Z" fill="#404242"/>
<path d="M74.4403 23.6651C76.7465 23.6651 77.6735 22.4052 77.6735 21.3087C77.6735 17.2428 66.5182 19.1276 66.5182 11.0904C66.5182 8.58465 68.626 4 74.9598 4C78.7409 4 81.5459 5.88465 82.7497 7.15383L79.5806 10.4783C78.4043 9.2681 76.8898 8.23686 74.6786 8.23686C73.0595 8.23686 72.1229 9.01643 72.1229 10.3663C72.1229 14.0962 83.6469 12.6692 83.6469 20.6051C83.6469 24.1406 81.1064 28 74.6316 28C70.117 28 67.3734 26.1369 65.8198 24.2577L69.013 20.8914C70.2096 22.3134 71.667 23.6651 74.4403 23.6651V23.6651Z" fill="#404242"/>
</svg>
