<svg width="424" height="228" viewBox="0 0 424 228" fill="none" xmlns="http://www.w3.org/2000/svg">
<path opacity="0.7" fill-rule="evenodd" clip-rule="evenodd" d="M173.702 128.04L0 228L1.99178 228L87.8093 178.63L87.8093 228L88.8047 228L88.8047 178.631L173.706 227.483C173.669 227.571 173.639 227.661 173.611 227.753L173.583 227.859C173.572 227.906 173.561 227.953 173.552 228L179.693 228C179.677 227.914 179.657 227.829 179.634 227.744L179.599 227.63C179.532 227.419 179.441 227.215 179.33 227.022C179.096 226.622 178.778 226.28 178.395 226.02C178.152 225.855 177.889 225.727 177.612 225.637C177.452 225.585 177.286 225.546 177.118 225.52L177.118 130.013C177.487 129.954 177.839 129.828 178.159 129.647C178.494 129.456 178.793 129.203 179.038 128.898L264.433 178.047L264.433 228L265.43 228L265.43 178.62L308.604 203.452L308.604 228L309.6 228L309.6 203.451L352.746 178.625L352.746 225.516C352.527 225.548 352.311 225.605 352.105 225.684C352.032 225.712 351.959 225.742 351.889 225.776L351.768 225.836C351.703 225.87 351.64 225.906 351.577 225.945L351.467 226.016C351.084 226.276 350.766 226.619 350.532 227.019C350.464 227.135 350.405 227.256 350.353 227.379C350.271 227.579 350.209 227.787 350.169 228L356.318 228C356.305 227.928 356.29 227.857 356.271 227.787C356.255 227.726 356.238 227.666 356.218 227.607C356.151 227.403 356.062 227.206 355.954 227.019C355.865 226.866 355.764 226.722 355.652 226.588C355.572 226.492 355.487 226.402 355.395 226.317C355.278 226.207 355.152 226.106 355.019 226.015C354.845 225.897 354.66 225.797 354.466 225.717C354.233 225.621 353.991 225.553 353.741 225.515L353.741 178.625L396.887 203.451L396.887 228L397.882 228L397.882 203.164L397.634 202.735L353.741 177.478L353.741 127.734L424 168.194L424 167.047L354.24 126.873L408.353 95.7728L424 86.7503L424 85.5825L408.601 94.4445L408.545 57.5819L424 66.5102L424 65.3636L408.544 56.433L408.508 31.9439L408.259 31.5149L353.491 0.00180015L352.996 -3.4235e-07L297.567 31.514L297.315 31.9449L297.315 94.1525L264.931 75.5221L179.024 124.977C178.544 124.391 177.866 124.002 177.118 123.88L176.122 123.88C175.371 124.002 174.691 124.393 174.211 124.982L173.706 125.84C173.424 126.546 173.422 127.333 173.702 128.04ZM356.163 62.0251L407.512 32.799L407.605 94.4729L356.149 64.2449C356.439 63.5341 356.443 62.7395 356.163 62.0251ZM179.533 125.84L264.931 76.6852L352.745 127.161L352.745 177.478L309.101 202.591L179.538 128.039C179.818 127.332 179.816 126.546 179.533 125.84ZM355.637 65.0981L407.082 95.3189L353.741 126.014L353.741 66.1807C354.037 66.1325 354.322 66.0424 354.589 65.9148C354.815 65.8062 355.028 65.6705 355.223 65.5105C355.373 65.387 355.512 65.2491 355.637 65.0981ZM355.665 61.1647C355.184 60.5679 354.499 60.1704 353.741 60.0478L353.741 1.29132L407.009 31.943L355.665 61.1647ZM174.209 226.625L89.3034 177.769L174.201 128.899C174.681 129.494 175.365 129.891 176.122 130.013L176.122 225.52C175.953 225.547 175.788 225.588 175.628 225.642C175.535 225.673 175.445 225.708 175.356 225.747C174.914 225.944 174.519 226.244 174.209 226.625ZM352.746 126.014L298.311 94.7249L298.311 32.2333L352.746 1.28636L352.746 60.0478C352.013 60.1631 351.346 60.535 350.863 61.0975C350.383 61.6595 350.117 62.3748 350.117 63.1145C350.117 63.8537 350.383 64.569 350.863 65.131C351.346 65.6935 352.013 66.0653 352.746 66.1807L352.746 126.014Z" fill="#E8E9EB"/>
</svg>
