<svg viewBox="0 0 305 177" fill="none" xmlns="http://www.w3.org/2000/svg"><g opacity=".5"><path fill-rule="evenodd" clip-rule="evenodd" d="M236.089 1l-25.013 14.449-.257-.444-.005.01.262.454-46.76 26.991 46.491 25.602 46.184-26.722h.524l46.44 26.825v.908l-92.879 53.626v.046l-92.88 53.649-.785-.454V71.9a3.262 3.262 0 01-2.031-1.19L0 137.335v-1.211l24.007-13.867L0 108.412v-1.209l24.53 14.147V18.251a3.265 3.265 0 01-2.03-1.19L0 30.06V28.85l21.981-12.698a3.145 3.145 0 01.01-2.307L0 1.142V1h1.888l20.65 11.922a3.265 3.265 0 011.992-1.143V1h1.048v10.78c.782.126 1.49.533 1.994 1.143L48.224 1h2.13L28.12 13.844c.295.74.3 1.565.01 2.307l87.288 50.422a3.263 3.263 0 011.992-1.144L117.41 1h1.048v64.428c.781.127 1.49.533 1.994 1.144l89.314-51.557L185.493 1h2.096l23.208 13.4L233.995 1h2.094zM25.579 121.349l89.281-51.548a3.163 3.163 0 01.018-2.33L27.61 17.06a3.265 3.265 0 01-2.032 1.19V121.35zM118.456 71.9v103.133l91.31-52.742-89.279-51.58a3.262 3.262 0 01-2.031 1.19zm92.357-3.235l-.253.46-47.304-26.053-42.265 24.398a3.16 3.16 0 01.017 2.331l89.766 51.862 91.871-53.045L257.254 42.4l-46.178 26.72-.262-.454z" fill="#fff" fill-opacity=".3"/><path d="M236.139 1.087l.323-.187H233.969l-.024.013-23.148 13.371L187.639.914 187.616.9H185.12l.323.187 24.123 13.928-89.092 51.428a3.363 3.363 0 00-1.916-1.099V.9H117.31V1l-.001 64.345a3.368 3.368 0 00-1.915 1.1L28.253 16.106a3.246 3.246 0 00-.01-2.22l22.162-12.8.323-.187H48.197l-.023.013-20.58 11.882a3.364 3.364 0 00-1.916-1.1V.9h-1.247v10.795a3.363 3.363 0 00-1.916 1.1L1.938.912 1.915.9H-.1v.3l.05.03 21.918 12.66a3.246 3.246 0 00-.01 2.218L-.05 28.764l-.05.029V30.232l.15-.086L22.476 17.19c.5.596 1.19 1 1.954 1.144v102.842L.05 107.116l-.15-.086V108.47l.05.029 23.857 13.758L-.05 136.038l-.05.029v1.441l.15-.087 115.306-66.582c.5.596 1.19 1 1.955 1.145v104.013l.049.029.786.455.05.029.05-.029 92.88-53.65.05-.029v-.045l92.829-53.598.05-.029V68.108l-.05-.029-46.44-26.824-.023-.014H256.964l-.023.014-46.135 26.694-46.286-25.49 46.606-26.903.086-.05-.008-.015 24.935-14.403zm66.307 67.531l-91.671 52.929-89.643-51.79c.26-.726.255-1.521-.016-2.243l42.142-24.327 47.255 26.025.088.048.048-.088.167-.303.173.3.05.087.087-.05 46.128-26.691 45.192 26.103zm-187.71 1.139l-89.058 51.419V18.336a3.365 3.365 0 001.955-1.145l87.121 50.323a3.261 3.261 0 00-.018 2.243zm94.831 52.534l-91.01 52.569V71.984a3.366 3.366 0 001.955-1.143l89.055 51.45z" stroke="#fff" stroke-opacity=".3" stroke-width=".2"/></g></svg>