<svg width="505" height="297" viewBox="0 0 505 297" fill="none" xmlns="http://www.w3.org/2000/svg">
<path fill-rule="evenodd" clip-rule="evenodd" d="M384.53 297V282.685L503.641 213.899L505 213.235V73.6093L504.659 73.02L387.882 5.80396C388.031 5.37556 388.11 4.92603 388.115 4.4726C388.115 3.34144 387.666 2.25666 386.866 1.45685C386.067 0.657049 384.982 0.207708 383.851 0.207708C382.719 0.207708 381.635 0.656988 380.835 1.45685C380.035 2.25666 379.586 3.34144 379.586 4.4726C379.591 4.92859 379.671 5.38068 379.821 5.81122L266.752 71.1392C266.331 70.5851 265.78 70.1427 265.148 69.851C264.516 69.5592 263.822 69.4269 263.127 69.4658C262.432 69.5046 261.757 69.7134 261.161 70.0737C260.565 70.434 260.067 70.935 259.71 71.5327C259.353 72.1303 259.148 72.8064 259.113 73.5017C259.078 74.197 259.214 74.8903 259.509 75.5208C259.804 76.1513 260.25 76.6997 260.806 77.1181C261.363 77.5364 262.013 77.8119 262.701 77.9204V210.349L227.929 189.934L226.906 190.52V232.681L191.608 253.181V144.058L215.703 130.143L216.042 129.551L215.524 45.9058L215.183 45.3218L146.83 5.94727C147.108 5.29902 147.221 4.5918 147.159 3.88917C147.097 3.18647 146.861 2.5102 146.474 1.9209C146.086 1.33155 145.558 0.847601 144.937 0.512396C144.317 0.177191 143.622 0.0011044 142.917 5.76453e-06C142.212 -0.0011539 141.517 0.172674 140.895 0.505926C140.273 0.839239 139.744 1.32148 139.354 1.90955C138.965 2.49763 138.727 3.1731 138.662 3.87562C138.598 4.57807 138.709 5.28559 138.985 5.93476L70.1212 45.3013L70.0437 45.4345L0 85.8673V87.4686L69.7799 47.1709V180.882C68.7491 181.049 67.8164 181.591 67.161 182.404L0 143.644V145.213L66.4789 183.579C66.0962 184.551 66.0985 185.632 66.4861 186.601L0 224.98V226.55L67.1769 187.772C67.8315 188.575 68.7576 189.109 69.7799 189.275V297H71.1388V189.274C72.1633 189.108 73.0909 188.571 73.7455 187.765L189.57 254.364L116.03 297H118.74L226.907 234.251V297H228.265L228.265 191.707L382.473 282.271L356.814 297H359.543L383.172 283.437V297H384.53ZM146.089 7.0879L214.167 46.3039L214.675 128.376L146.887 89.311C147.254 88.3663 147.27 87.3215 146.933 86.3657C146.597 85.4098 145.929 84.606 145.051 84.0996C144.174 83.5931 143.144 83.4176 142.148 83.6046C141.152 83.7917 140.255 84.3289 139.621 85.1193L71.7465 45.9386L139.724 7.07795C140.12 7.53406 140.608 7.90009 141.156 8.15125C141.705 8.40241 142.301 8.5329 142.905 8.53382C143.508 8.5348 144.104 8.40619 144.654 8.15674C145.203 7.90729 145.693 7.54279 146.089 7.0879ZM143.591 170.219V91.9993C144.617 91.8325 145.546 91.2938 146.201 90.4858L190.249 115.913V143.273L143.591 170.219ZM191.608 116.65L214.003 129.556L191.608 142.488V116.65ZM380.448 7.01923C381.107 7.90204 382.084 8.49378 383.172 8.6692L383.172 142.005L267.32 75.3545C267.727 74.3948 267.754 73.3165 267.396 72.3377L380.448 7.01923ZM387.258 7.01325L502.96 73.6102L384.53 142.004V8.6692C385.621 8.49335 386.599 7.8993 387.258 7.01325ZM503.641 74.7861V211.545L385.21 143.18L503.641 74.7861ZM383.513 143.769L502.962 212.723L383.854 281.478L264.06 211.147L264.06 77.9196C265.044 77.7603 265.941 77.2585 266.591 76.5027L383.513 143.769ZM72.8839 181.569C72.3612 181.212 71.7648 180.977 71.1388 180.881L71.1387 130.732L142.571 171.984H143.251L190.249 144.842V253.186L74.433 186.593C74.6638 186.003 74.7589 185.369 74.7114 184.738C74.6639 184.106 74.4751 183.494 74.1587 182.945C73.8424 182.397 73.4067 181.926 72.8839 181.569ZM142.232 170.219L71.1388 129.163V47.1561L138.935 86.2918C138.705 86.8814 138.61 87.5152 138.658 88.1463C138.706 88.7774 138.895 89.3897 139.212 89.9378C139.528 90.4858 139.964 90.9557 140.487 91.3126C141.01 91.6694 141.606 91.9041 142.232 91.9993V170.219Z" fill="white" fill-opacity="0.1"/>
<path d="M24.7064 297L0 282.732V284.326L21.9564 297H24.7064Z" fill="white" fill-opacity="0.1"/>
</svg>
