<svg width="368" height="465" viewBox="0 0 368 465" fill="none" xmlns="http://www.w3.org/2000/svg">
<path opacity="0.5" d="M1264.08 250.449L1354.16 198.415C1354.58 198.943 1355.17 199.326 1355.82 199.511C1356.47 199.695 1357.17 199.673 1357.81 199.446C1358.45 199.219 1359 198.799 1359.4 198.244C1359.79 197.688 1360 197.025 1360 196.345C1360 195.666 1359.79 195.002 1359.4 194.447C1359 193.892 1358.45 193.472 1357.81 193.245C1357.17 193.018 1356.47 192.995 1355.82 193.18C1355.17 193.365 1354.58 193.747 1354.16 194.276L1171.2 88.6164L1171.19 88.6266L1078.32 35.0029H1077.79L988.138 86.7685C987.897 86.2568 987.527 85.8161 987.066 85.4891C986.604 85.1622 986.066 84.9602 985.503 84.9026C984.941 84.845 984.373 84.9339 983.854 85.1606C983.336 85.3873 982.885 85.7441 982.546 86.1964C982.206 86.6487 981.989 87.1811 981.915 87.7421C981.842 88.303 981.915 88.8734 982.127 89.398C982.339 89.9225 982.683 90.3833 983.125 90.7357C983.567 91.0881 984.093 91.3202 984.652 91.4094V195.446L892.559 142.279H892.035L802.087 194.242C801.835 193.889 801.516 193.591 801.147 193.363C800.779 193.135 800.369 192.982 799.942 192.913V92.3137C800.468 92.231 800.967 92.0214 801.394 91.7029C801.821 91.3844 802.165 90.9665 802.394 90.4855C802.624 90.0045 802.733 89.4748 802.712 88.9421C802.691 88.4095 802.541 87.89 802.274 87.4285C802.007 86.9671 801.632 86.5775 801.181 86.2935C800.73 86.0096 800.217 85.8398 799.686 85.7988C799.154 85.7578 798.621 85.8468 798.132 86.0583C797.642 86.2697 797.212 86.5971 796.878 87.0122L709.606 36.6236C709.798 36.1254 709.866 35.5879 709.804 35.0576C709.742 34.5273 709.551 34.0202 709.249 33.58C708.947 33.1398 708.542 32.7798 708.07 32.531C707.598 32.2823 707.072 32.1523 706.538 32.1523C706.004 32.1523 705.478 32.2823 705.006 32.531C704.534 32.7798 704.129 33.1398 703.827 33.58C703.525 34.0202 703.334 34.5273 703.272 35.0576C703.21 35.5879 703.278 36.1254 703.47 36.6236L616.198 87.0123C615.709 86.4013 615.018 85.9856 614.249 85.8408C613.48 85.696 612.684 85.8315 612.007 86.2228C611.329 86.6142 610.814 87.2354 610.555 87.974C610.296 88.7125 610.31 89.5194 610.595 90.2484L520.518 142.279L430.57 194.214C430.316 193.866 429.995 193.572 429.627 193.348C429.259 193.125 428.85 192.976 428.424 192.911V89.0838L428.162 88.63L335.34 35.0366L335.281 34.9339L282.189 4.5766C282.401 4.07598 282.487 3.53039 282.437 2.98867C282.387 2.44695 282.204 1.92603 281.904 1.47254C281.603 1.01906 281.195 0.647171 280.716 0.390185C280.236 0.133199 279.701 -0.000862695 279.157 4.17742e-06C278.613 0.00087105 278.078 0.13664 277.599 0.395153C277.121 0.653665 276.714 1.02685 276.415 1.48129C276.116 1.93573 275.934 2.45724 275.886 2.99911C275.838 3.54098 275.926 4.0863 276.14 4.58624L223.441 34.9497L223.179 35.4L222.779 99.9022L223.041 100.359L241.617 111.089L241.617 195.239L214.404 179.43V146.918L213.615 146.467L186.806 162.21L186.806 60.0878C187.337 60.0042 187.838 59.7918 188.267 59.4692C188.696 59.1466 189.04 58.7236 189.267 58.2374C189.495 57.7512 189.6 57.2166 189.573 56.6804C189.546 56.1442 189.388 55.6229 189.112 55.162C188.837 54.7011 188.453 54.3148 187.994 54.0369C187.535 53.7591 187.014 53.5981 186.478 53.5681C185.942 53.5382 185.407 53.6402 184.92 53.8652C184.433 54.0902 184.008 54.4313 183.683 54.8586L96.5096 4.4813C96.6255 4.14928 96.6869 3.80066 96.6912 3.44901C96.6912 2.57675 96.3448 1.74022 95.7282 1.12344C95.1115 0.50666 94.2752 0.160156 93.4032 0.160156C92.5311 0.160156 91.6948 0.50666 91.0781 1.12344C90.4615 1.74022 90.1151 2.57675 90.1151 3.44901C90.1194 3.79868 90.1801 4.14535 90.2947 4.47572L0.262621 56.309L0 56.7633L0 164.435L1.04769 164.947L92.879 217.991L92.879 355.389L213.612 427.205L213.746 426.98L214.14 427.209L332.479 359.278C332.984 359.905 333.702 360.323 334.496 360.452V464.546L335.282 465L428.085 411.395H428.162L520.779 357.897L613.397 411.395H613.92L704.044 359.337C704.349 359.702 704.73 359.996 705.161 360.198C705.592 360.4 706.062 360.505 706.538 360.505C707.014 360.505 707.484 360.4 707.914 360.198C708.345 359.996 708.727 359.702 709.031 359.337L799.156 411.395H799.68L892.297 357.895L984.914 411.36H985.438L1078.32 357.711L1168.38 305.71C1168.89 306.346 1169.61 306.77 1170.41 306.9V410.94L1171.2 411.394L1264.08 357.745V357.7L1356.95 304.073V303.165L1310.52 276.341H1309.99L1263.81 303.063L1217.32 277.46L1264.08 250.469L1263.81 250.015L1263.82 250.005L1264.08 250.449ZM224.225 35.707L276.711 5.46581C277.017 5.8166 277.394 6.09768 277.818 6.29004C278.242 6.48241 278.701 6.58158 279.167 6.58085C279.632 6.58012 280.091 6.47951 280.514 6.28582C280.937 6.09213 281.314 5.80987 281.618 5.45812L334.028 35.4253L281.698 65.6393C281.209 65.0298 280.518 64.6155 279.75 64.4712C278.982 64.327 278.188 64.4624 277.511 64.8529C276.835 65.2434 276.32 65.8633 276.06 66.6004C275.801 67.3375 275.814 68.1431 276.096 68.8717L223.833 98.9965L224.225 35.707ZM278.638 70.9448V131.263L242.665 110.484V89.3857L276.625 69.7776C277.13 70.4007 277.846 70.8161 278.638 70.9448ZM224.352 99.9062L241.618 89.9543V109.879L224.352 99.9062ZM241.877 196.602L305.337 233.403L219.188 283.165C218.653 282.37 217.944 281.708 217.115 281.229C216.285 280.749 215.358 280.465 214.403 280.398V180.641L241.877 196.602ZM186.548 163.576L213.356 147.833V280.41C212.409 280.493 211.493 280.79 210.676 281.277C209.86 281.765 209.165 282.432 208.643 283.227L94.4651 217.672L186.548 163.576ZM93.9267 6.68519C94.7653 6.54993 95.5183 6.09363 96.0264 5.41285L116.898 17.4742L183.187 55.7827C182.911 56.5376 182.932 57.3692 183.246 58.1092L93.9263 109.506L93.9267 6.68519ZM28.5214 41.2495L90.7758 5.40824C91.284 6.09149 92.0385 6.54959 92.879 6.68519L92.879 109.505L57.618 89.1373L1.57294 56.764L28.5214 41.2495ZM1.04769 57.6708L46.7014 84.0415L92.3552 110.412L1.04769 163.132L1.04769 57.6708ZM1.57154 164.04L93.6637 110.867L183.807 58.9946C184.309 59.5774 185 59.9644 185.759 60.0873L185.759 162.825L185.362 163.058L93.4008 217.06L1.57154 164.04ZM93.9267 354.796L93.9267 218.571L208.144 284.147C207.741 285.062 207.562 286.06 207.622 287.058C207.682 288.056 207.979 289.025 208.489 289.885C208.998 290.745 209.706 291.471 210.553 292.003C211.399 292.534 212.36 292.856 213.356 292.942L213.356 425.833L93.9267 354.796ZM331.953 358.372L214.404 425.85L214.404 292.952C215.308 292.887 216.187 292.627 216.981 292.19C217.775 291.752 218.465 291.149 219.004 290.42L331.958 356.042C331.659 356.79 331.658 357.623 331.953 358.372ZM334.496 353.979C333.708 354.107 332.994 354.52 332.49 355.139L219.548 289.524C219.988 288.689 220.229 287.764 220.253 286.821C220.277 285.878 220.084 284.942 219.689 284.086L306.384 234.008L334.496 250.311L334.496 353.979ZM334.496 249.1L243.189 196.151L332.487 144.794C332.991 145.415 333.706 145.829 334.496 145.958L334.496 249.1ZM334.496 139.485C334.014 139.559 333.554 139.74 333.151 140.016C332.748 140.292 332.412 140.654 332.168 141.077C331.924 141.5 331.778 141.973 331.742 142.46C331.705 142.946 331.779 143.435 331.956 143.89L242.665 195.243L242.665 111.694L278.9 132.624H279.424L334.496 100.813L334.496 139.485ZM334.496 99.603L279.685 131.263V70.9448C280.168 70.8713 280.627 70.6903 281.03 70.4151C281.434 70.14 281.77 69.7776 282.014 69.355C282.258 68.9324 282.404 68.4602 282.441 67.9735C282.477 67.4868 282.405 66.9981 282.227 66.5434L334.496 36.3641V99.603ZM616.725 87.9178L703.995 37.5299C704.299 37.9125 704.686 38.2215 705.126 38.4339C705.566 38.6463 706.049 38.7566 706.537 38.7566C707.026 38.7566 707.509 38.6463 707.949 38.4339C708.389 38.2215 708.776 37.9125 709.08 37.5299L796.35 87.9178C796.054 88.6669 796.055 89.5008 796.354 90.2491L711.752 139.116C711.172 138.267 710.394 137.573 709.486 137.093C708.577 136.613 707.565 136.363 706.538 136.363C705.51 136.363 704.498 136.613 703.59 137.093C702.681 137.573 701.903 138.267 701.324 139.116L616.722 90.2484C617.02 89.5003 617.022 88.6665 616.725 87.9176V87.9178ZM796.419 197.487L793.253 199.316L709.07 247.941C708.566 247.321 707.851 246.907 707.061 246.779V148.958C707.981 148.885 708.873 148.611 709.675 148.155C710.477 147.699 711.168 147.072 711.701 146.319L752.716 170L796.296 195.163C796.037 195.924 796.081 196.757 796.419 197.487V197.487ZM614.182 92.3138C614.972 92.1856 615.687 91.772 616.191 91.1516L700.817 140.033C700.415 140.874 700.209 141.795 700.216 142.726C700.222 143.658 700.441 144.576 700.855 145.411L614.182 195.481V92.3138ZM521.304 143.035L611.126 91.1514C611.63 91.772 612.345 92.1856 613.135 92.3138V196.086L567.219 222.597L521.304 196.086V143.035ZM521.304 256.293C522.324 256.221 523.31 255.9 524.177 255.358C525.044 254.816 525.766 254.069 526.278 253.184C526.789 252.299 527.077 251.301 527.114 250.279C527.152 249.257 526.939 248.242 526.493 247.321L566.68 224.118V276.512L521.304 302.723V256.293ZM566.172 223.201L525.977 246.41C525.443 245.649 524.747 245.015 523.939 244.555C523.131 244.095 522.231 243.819 521.304 243.748V197.297L566.172 223.201ZM515.088 252.697L474.879 275.923L474.879 224.118L515.092 247.335C514.686 248.171 514.475 249.087 514.474 250.016C514.473 250.945 514.683 251.862 515.088 252.698V252.697ZM515.606 246.421L475.4 223.194L497.83 210.244L520.256 197.296V243.751C519.332 243.826 518.436 244.104 517.632 244.566C516.828 245.028 516.136 245.661 515.606 246.421L515.606 246.421ZM431.041 195.151L520.256 143.64V196.086L474.353 222.59L430.917 197.497C431.262 196.761 431.306 195.92 431.041 195.152L431.041 195.151ZM428.425 199.387C429.15 199.277 429.817 198.925 430.319 198.389L473.832 223.512L473.832 276.528L428.425 302.756L428.425 199.387ZM338.089 141.566L381.722 116.379L427.377 90.0252V192.916C426.526 193.059 425.766 193.531 425.262 194.231L381.722 169.092L338.083 143.896C338.382 143.149 338.384 142.315 338.089 141.566H338.089ZM335.544 99.9062V36.3756L426.853 89.1177L381.198 115.472L337.563 140.66C337.058 140.033 336.339 139.615 335.544 139.486V99.9062ZM335.544 145.958C336.332 145.831 337.046 145.418 337.551 144.799L381.198 170L424.799 195.174C424.544 195.929 424.587 196.753 424.919 197.477L381.198 222.732L335.544 249.102L335.544 145.958ZM335.544 250.318L425.513 198.372C426.005 198.907 426.66 199.263 427.377 199.384L427.377 303.362L343.98 351.445L337.558 355.148C337.053 354.524 336.336 354.108 335.544 353.98L335.544 250.318ZM335.544 463.638V360.451C336.334 360.323 337.05 359.909 337.555 359.287L426.815 410.917L335.544 463.638ZM501.361 367.903L427.938 410.313L338.085 358.382C338.383 357.634 338.383 356.801 338.086 356.053L427.9 304.27L515.522 354.861L519.732 357.292L501.361 367.903ZM520.256 356.384L474.602 330.024L428.948 303.665L474.37 277.427L520.256 303.933L520.256 356.384ZM497.829 289.769L475.417 276.823L515.599 253.613C516.13 254.375 516.823 255.01 517.628 255.473C518.433 255.936 519.33 256.215 520.256 256.291V302.723L497.829 289.769ZM613.135 410.033L521.827 357.292L613.135 304.561V410.033ZM521.304 356.384V303.933L567.466 277.268L567.728 276.814V223.513L613.659 196.994L701.281 247.585L703.473 248.851C703.176 249.599 703.176 250.432 703.473 251.18L521.304 356.384ZM614.183 410.033V304.572L703.453 356.115C703.169 356.868 703.184 357.701 703.493 358.445L614.183 410.033ZM706.014 353.979C705.2 354.111 704.466 354.546 703.959 355.197L614.696 303.659L704.001 252.084C704.506 252.707 705.222 253.122 706.013 253.251L706.014 353.979ZM704.005 247.941L614.731 196.374L701.376 146.32C701.908 147.072 702.6 147.699 703.401 148.155C704.203 148.611 705.094 148.885 706.013 148.958V246.779C705.224 246.907 704.51 247.321 704.005 247.941L704.005 247.941ZM707.062 353.979V253.251C707.853 253.122 708.57 252.707 709.075 252.084L796.361 302.47C796.058 303.217 796.052 304.05 796.344 304.801L709.116 355.196C708.609 354.545 707.875 354.111 707.061 353.979H707.062ZM798.894 410.033L709.583 358.445C709.893 357.701 709.907 356.867 709.623 356.113L796.863 305.711C797.369 306.347 798.093 306.771 798.894 306.9V410.033ZM798.894 300.428C798.113 300.555 797.404 300.961 796.9 301.572L709.604 251.18C709.901 250.431 709.901 249.598 709.604 248.849L797 198.362C797.498 198.908 798.166 199.268 798.895 199.385L798.894 300.428ZM798.894 192.913C798.039 193.05 797.273 193.521 796.764 194.222L753.24 169.092L712.222 145.41C712.636 144.575 712.854 143.657 712.861 142.726C712.867 141.794 712.661 140.873 712.259 140.033L796.885 91.1517C797.39 91.7722 798.105 92.1857 798.894 92.3138L798.894 192.913ZM985.7 91.4094C986.215 91.327 986.702 91.1222 987.121 90.812L1030.56 115.893V115.902L1074.99 141.554C1074.69 142.301 1074.69 143.133 1074.99 143.88L1031.35 169.081L985.7 195.447V91.4094ZM799.942 199.385C800.663 199.27 801.324 198.916 801.82 198.38L891.249 250.015L801.935 301.572C801.431 300.961 800.723 300.555 799.942 300.428V199.385ZM891.773 356.397L845.46 330.444L891.773 304.557V356.397ZM891.773 303.358L844.133 329.987L844.131 330.901L891.237 357.298L799.941 410.033V306.9C800.426 306.826 800.887 306.643 801.291 306.365C801.695 306.087 802.032 305.722 802.275 305.296C802.518 304.871 802.663 304.395 802.697 303.906C802.731 303.417 802.655 302.927 802.474 302.471L891.773 250.922L891.773 303.358ZM892.267 249.393L802.404 197.508C802.749 196.781 802.8 195.95 802.546 195.187L892.297 143.338L984.128 196.354L892.267 249.393ZM892.821 250.317L984.818 197.166L985.171 196.962L1074.99 248.846C1074.7 249.585 1074.69 250.41 1074.98 251.152L892.821 356.383V250.317ZM985.176 410.301L893.374 357.274L985.127 304.269L1077.01 357.257L985.176 410.301ZM1077.53 356.35L986.174 303.664L1075.5 252.062C1076.01 252.697 1076.73 253.121 1077.53 253.251V356.35ZM1077.53 246.779C1076.75 246.906 1076.04 247.312 1075.54 247.923L1031.88 222.714L986.223 196.354L1031.88 169.987L1075.52 144.783C1076.02 145.405 1076.74 145.819 1077.53 145.947V246.779ZM1077.53 139.476C1076.74 139.604 1076.02 140.021 1075.52 140.645L1031.87 115.443L1077.53 89.081V139.476ZM1078.05 87.8711L1077.79 87.7199L1030.82 114.838L987.879 90.0399C988.26 89.492 988.464 88.8406 988.464 88.1733C988.459 88.052 988.446 87.931 988.427 87.811L1078.05 36.0618L1169.87 89.0769L1125.28 114.834L1078.32 87.7199L1078.05 87.8711ZM1167.87 197.522L1124.23 222.717L1080.57 247.923C1080.07 247.313 1079.36 246.906 1078.58 246.78V145.948C1079.37 145.82 1080.08 145.405 1080.59 144.784L1124.23 169.991L1167.87 195.193C1167.57 195.942 1167.57 196.775 1167.87 197.522H1167.87ZM1078.58 139.476V89.081L1124.23 115.439L1080.59 140.644C1080.09 140.02 1079.37 139.605 1078.58 139.476ZM1167.86 304.801L1078.58 356.35V253.251C1079.38 253.121 1080.1 252.697 1080.61 252.062L1124.23 277.26L1167.88 302.471C1167.58 303.217 1167.57 304.05 1167.86 304.801L1167.86 304.801ZM1170.41 300.429C1169.63 300.556 1168.92 300.962 1168.42 301.573L1124.76 276.351L1081.13 251.151C1081.42 250.409 1081.41 249.584 1081.12 248.844L1168.41 198.424C1168.91 199.042 1169.62 199.453 1170.41 199.581L1170.41 300.429ZM1170.41 193.11C1169.61 193.24 1168.89 193.659 1168.39 194.286L1124.76 169.084L1081.12 143.881C1081.42 143.134 1081.42 142.301 1081.12 141.553L1125.55 115.902V115.885L1170.41 89.9775L1170.41 193.11ZM1171.46 410.033V306.9C1172.26 306.771 1172.98 306.347 1173.49 305.712L1217.11 330.914L1262.77 357.291L1171.46 410.033ZM1263.56 304.124L1263.81 303.665L1264.08 304.119L1310.25 277.399L1355.65 303.618L1263.78 356.663L1174.01 304.801C1174.3 304.05 1174.29 303.217 1173.99 302.47L1216.26 278.072L1263.56 304.124ZM1173.45 301.572C1172.95 300.961 1172.24 300.555 1171.46 300.428V199.582C1172.24 199.456 1172.94 199.051 1173.45 198.444L1262.77 250.015L1173.45 301.572ZM1263.8 249.4L1173.99 197.548C1174.17 197.092 1174.25 196.6 1174.22 196.11C1174.18 195.62 1174.04 195.144 1173.79 194.718C1173.55 194.291 1173.21 193.925 1172.81 193.647C1172.41 193.368 1171.94 193.185 1171.46 193.11V89.9787L1353.63 195.181C1353.33 195.93 1353.33 196.764 1353.63 197.512L1263.8 249.4Z" fill="#CED2D9"/>
</svg>
