<svg width="1389" height="507" viewBox="0 0 1389 507" fill="none" xmlns="http://www.w3.org/2000/svg">
<path opacity="0.4" d="M1128.72 -277.003L1323.86 -390L1519 -277.003V-51.0078L1375.48 32.1319C1370.38 35.8326 1365.05 39.3219 1359.51 42.5807L295.01 676.971C201.775 731.783 81.7884 700.588 27.0113 607.294C-27.7658 514.001 3.40988 393.937 96.6441 339.125L1128.72 -276.2V-277.003Z" fill="url(#paint0_linear)"/>
<path opacity="0.4" d="M1257.62 -237.656L1456.81 -353L1656 -237.656V-6.9693L1509.5 77.8966C1504.29 81.6742 1498.86 85.236 1493.2 88.5624L653.131 590.41C557.962 646.36 435.485 614.517 379.572 519.287C323.658 424.056 355.481 301.499 450.649 245.549L1257.62 -236.837V-237.656Z" fill="url(#paint1_linear)"/>
<path opacity="0.1" d="M1116.37 -55.3503L1115.63 -56.6497L945.732 41.3559V142.432L833.98 207.4L826.5 203L818 208V217.997L826.5 223L835 217.997V208.542L947.232 143.295V42.2223L1116.37 -55.3503Z" fill="white"/>
<path opacity="0.1" d="M1115.63 16.504L1213.35 -38.9191L1214.09 -37.6143L1117.14 17.3694L1118.5 98.6052L947.997 197.049L860.275 146.402L745.983 211.879L745.865 218.885L738.865 223L732 219.115L732.133 211.114L739.135 207L745.347 210.515L860.278 144.672L947.997 195.317L1116.98 97.7477L1115.63 16.504Z" fill="white"/>
<path opacity="0.3" fill-rule="evenodd" clip-rule="evenodd" d="M1084.02 62.8811L1233.89 -27.7163L1233.11 -29L1084.01 61.1306L1014.33 19.4056L853.354 112.283L845 107.642L836 112.641V122.639L845 127.642L854 122.639V113.642L1014.32 21.1455L1084.02 62.8811ZM852.4 113.468L852.5 113.642V121.757L845 125.926L837.5 121.757V113.524L845 109.358L852.4 113.468Z" fill="white"/>
<defs>
<linearGradient id="paint0_linear" x1="773.723" y1="155.552" x2="2132.16" y2="-684.862" gradientUnits="userSpaceOnUse">
<stop stop-color="white" stop-opacity="0"/>
<stop offset="0.96875" stop-color="white"/>
</linearGradient>
<linearGradient id="paint1_linear" x1="895.258" y1="203.88" x2="2281.9" y2="-653.965" gradientUnits="userSpaceOnUse">
<stop stop-color="white" stop-opacity="0"/>
<stop offset="0.96875" stop-color="white"/>
</linearGradient>
</defs>
</svg>
