<svg viewBox="0 0 378 218" fill="none" xmlns="http://www.w3.org/2000/svg"><g opacity=".5"><mask id="a" maskUnits="userSpaceOnUse" x="0" y="0" width="379" height="219" fill="#000"><path fill="#fff" d="M0 0h379v219H0z"/><path fill-rule="evenodd" clip-rule="evenodd" d="M378 60.09l-41.66-24.053-.059-.103-53.092-30.357a3.297 3.297 0 00-.285-3.104A3.297 3.297 0 00280.157 1a3.29 3.29 0 00-3.017 4.586L224.442 35.95l-.263.45-.4 64.502.262.457 18.576 10.73v84.15l-27.213-15.809v-32.512l-.789-.451-26.809 15.743V61.088a3.277 3.277 0 002.461-1.85 3.279 3.279 0 00-1.273-4.201 3.282 3.282 0 00-4.311.822L97.51 5.48c.115-.332.177-.68.181-1.032a3.29 3.29 0 00-6.576 0c.004.35.065.696.18 1.027L1.263 57.309 1 57.763v107.672l1.048.512L92.164 218h2.133L2.572 165.04l92.092-53.173 90.143-51.872c.502.583 1.193.97 1.952 1.092v102.738L94.503 218h2.106l117.747-69.167V218h1.047v-36.359L278.052 218h2.089l-35.952-20.849 89.298-51.357a3.264 3.264 0 002.009 1.164V218h1.048v-71.042a3.26 3.26 0 002.007-1.159L378 168.576v-1.21l-38.917-22.47a3.158 3.158 0 00.006-2.33L378 120.105v-1.21l-39.437 22.765a3.263 3.263 0 00-2.019-1.174V37.376L378 61.322V60.09zM277.711 6.466l-52.486 30.241-.392 63.29 52.263-30.125a3.275 3.275 0 011.415-4.02 3.272 3.272 0 014.187.787l52.33-30.214-52.41-29.967a3.245 3.245 0 01-3.8.832 3.251 3.251 0 01-1.107-.824zm1.927 125.797V71.945a3.264 3.264 0 01-2.013-1.167l-33.96 19.608v21.098l35.973 20.779zm-37.02-41.309l-17.266 9.952 17.266 9.973V90.954zM97.027 6.413a3.27 3.27 0 01-2.1 1.272v102.821l89.319-51.397a3.17 3.17 0 01-.059-2.326l-87.16-50.37zm-5.251-.005L2.573 57.764l91.306 52.741V7.685a3.27 3.27 0 01-2.103-1.277zM2.048 58.671v105.461l91.307-52.72L2.048 58.671zm332.103 82.345a3.254 3.254 0 011.345-.531v-38.672l-55.072 31.811h-.524l-36.235-20.93v83.549l89.291-51.353a3.249 3.249 0 01.212-2.813 3.26 3.26 0 01.983-1.061zm-53.466-8.753l54.811-31.66V37.364l-52.269 30.18a3.247 3.247 0 01-.213 2.811 3.264 3.264 0 01-2.329 1.59v60.318z"/></mask><path fill-rule="evenodd" clip-rule="evenodd" d="M378 60.09l-41.66-24.053-.059-.103-53.092-30.357a3.297 3.297 0 00-.285-3.104A3.297 3.297 0 00280.157 1a3.29 3.29 0 00-3.017 4.586L224.442 35.95l-.263.45-.4 64.502.262.457 18.576 10.73v84.15l-27.213-15.809v-32.512l-.789-.451-26.809 15.743V61.088a3.277 3.277 0 002.461-1.85 3.279 3.279 0 00-1.273-4.201 3.282 3.282 0 00-4.311.822L97.51 5.48c.115-.332.177-.68.181-1.032a3.29 3.29 0 00-6.576 0c.004.35.065.696.18 1.027L1.263 57.309 1 57.763v107.672l1.048.512L92.164 218h2.133L2.572 165.04l92.092-53.173 90.143-51.872c.502.583 1.193.97 1.952 1.092v102.738L94.503 218h2.106l117.747-69.167V218h1.047v-36.359L278.052 218h2.089l-35.952-20.849 89.298-51.357a3.264 3.264 0 002.009 1.164V218h1.048v-71.042a3.26 3.26 0 002.007-1.159L378 168.576v-1.21l-38.917-22.47a3.158 3.158 0 00.006-2.33L378 120.105v-1.21l-39.437 22.765a3.263 3.263 0 00-2.019-1.174V37.376L378 61.322V60.09zM277.711 6.466l-52.486 30.241-.392 63.29 52.263-30.125a3.275 3.275 0 011.415-4.02 3.272 3.272 0 014.187.787l52.33-30.214-52.41-29.967a3.245 3.245 0 01-3.8.832 3.251 3.251 0 01-1.107-.824zm1.927 125.797V71.945a3.264 3.264 0 01-2.013-1.167l-33.96 19.608v21.098l35.973 20.779zm-37.02-41.309l-17.266 9.952 17.266 9.973V90.954zM97.027 6.413a3.27 3.27 0 01-2.1 1.272v102.821l89.319-51.397a3.17 3.17 0 01-.059-2.326l-87.16-50.37zm-5.251-.005L2.573 57.764l91.306 52.741V7.685a3.27 3.27 0 01-2.103-1.277zM2.048 58.671v105.461l91.307-52.72L2.048 58.671zm332.103 82.345a3.254 3.254 0 011.345-.531v-38.672l-55.072 31.811h-.524l-36.235-20.93v83.549l89.291-51.353a3.249 3.249 0 01.212-2.813 3.26 3.26 0 01.983-1.061zm-53.466-8.753l54.811-31.66V37.364l-52.269 30.18a3.247 3.247 0 01-.213 2.811 3.264 3.264 0 01-2.329 1.59v60.318z" fill="#fff" fill-opacity=".3"/><path clip-rule="evenodd" d="M378 60.09l-41.66-24.053-.059-.103-53.092-30.357a3.297 3.297 0 00-.285-3.104A3.297 3.297 0 00280.157 1a3.29 3.29 0 00-3.017 4.586L224.442 35.95l-.263.45-.4 64.502.262.457 18.576 10.73v84.15l-27.213-15.809v-32.512l-.789-.451-26.809 15.743V61.088a3.277 3.277 0 002.461-1.85 3.279 3.279 0 00-1.273-4.201 3.282 3.282 0 00-4.311.822L97.51 5.48c.115-.332.177-.68.181-1.032a3.29 3.29 0 00-6.576 0c.004.35.065.696.18 1.027L1.263 57.309 1 57.763v107.672l1.048.512L92.164 218h2.133L2.572 165.04l92.092-53.173 90.143-51.872c.502.583 1.193.97 1.952 1.092v102.738L94.503 218h2.106l117.747-69.167V218h1.047v-36.359L278.052 218h2.089l-35.952-20.849 89.298-51.357a3.264 3.264 0 002.009 1.164V218h1.048v-71.042a3.26 3.26 0 002.007-1.159L378 168.576v-1.21l-38.917-22.47a3.158 3.158 0 00.006-2.33L378 120.105v-1.21l-39.437 22.765a3.263 3.263 0 00-2.019-1.174V37.376L378 61.322V60.09zM277.711 6.466l-52.486 30.241-.392 63.29 52.263-30.125a3.275 3.275 0 011.415-4.02 3.272 3.272 0 014.187.787l52.33-30.214-52.41-29.967a3.245 3.245 0 01-3.8.832 3.251 3.251 0 01-1.107-.824zm1.927 125.797V71.945a3.264 3.264 0 01-2.013-1.167l-33.96 19.608v21.098l35.973 20.779zm-37.02-41.309l-17.266 9.952 17.266 9.973V90.954zM97.027 6.413a3.27 3.27 0 01-2.1 1.272v102.821l89.319-51.397a3.17 3.17 0 01-.059-2.326l-87.16-50.37zm-5.251-.005L2.573 57.764l91.306 52.741V7.685a3.27 3.27 0 01-2.103-1.277zM2.048 58.671v105.461l91.307-52.72L2.048 58.671zm332.103 82.345a3.254 3.254 0 011.345-.531v-38.672l-55.072 31.811h-.524l-36.235-20.93v83.549l89.291-51.353a3.249 3.249 0 01.212-2.813 3.26 3.26 0 01.983-1.061zm-53.466-8.753l54.811-31.66V37.364l-52.269 30.18a3.247 3.247 0 01-.213 2.811 3.264 3.264 0 01-2.329 1.59v60.318z" stroke="#fff" stroke-opacity=".3" stroke-width=".4" mask="url(#a)"/></g></svg>