<svg width="285" height="244" viewBox="0 0 285 244" fill="none" xmlns="http://www.w3.org/2000/svg">
<path fill-rule="evenodd" clip-rule="evenodd" d="M61.203 0L121.42 34.7756L121.752 34.1999L121.759 34.2128L121.42 34.8011L182.069 69.8031L121.768 103.004L61.8645 68.3513H61.1851L0.950195 103.136V104.314L121.42 173.856V173.914L241.89 243.486L242.909 242.896V107.98C243.948 107.811 244.887 107.261 245.543 106.437L285 129.214V127.645L246.218 105.258C246.595 104.285 246.586 103.204 246.194 102.236L285 79.8254V78.2558L245.495 101.072C244.842 100.28 243.923 99.7534 242.91 99.5887L242.91 0H241.551V99.5874C240.537 99.7517 239.618 100.279 238.964 101.071L123.118 34.2128L182.387 0H179.669L121.781 33.4152L63.918 0H61.203ZM241.551 107.981V241.721L123.118 173.326L238.917 106.439C239.573 107.263 240.512 107.812 241.551 107.981ZM121.759 103.785L122.087 104.381L183.443 70.597L238.264 102.236C237.871 103.203 237.863 104.285 238.241 105.258L121.809 172.511L2.64819 103.724L61.524 69.7243L121.42 104.374L121.759 103.785Z" fill="white" fill-opacity="0.1"/>
</svg>
