<svg viewBox="0 0 1711 247" fill="none" xmlns="http://www.w3.org/2000/svg"><g opacity=".2" fill-rule="evenodd" clip-rule="evenodd" fill="#A9ABB0"><path d="M0 247v-54.896l.269-.154v-.311l95.3-55.051 66.365 38.421 29.369-16.7 29.17 16.903v.931l-26.19 15.149c.305.765.306 1.618.004 2.384l91.616 52.573v-108.75l.806-.465L477.038 247h-2.148l-92.611-53.519V247h-1.075v-53.522L287.83 247h-2.779l-91.303-52.393a3.346 3.346 0 0 1-2.072 1.205V247h-1.075v-51.188a3.347 3.347 0 0 1-2.063-1.196l-89.435 51.74c.057.212.092.428.104.644H92.47c.013-.22.047-.439.106-.655L1.075 193.04V247H0zm1.61-54.893l91.393 53.242a3.308 3.308 0 0 1 .988-.998 3.348 3.348 0 0 1 1.31-.506v-105.86L1.61 192.107zm94.765 51.738a3.34 3.34 0 0 1 1.636.749c.26.219.485.477.668.765l89.316-51.671a3.239 3.239 0 0 1-.001-2.393l-91.618-52.892v105.442zm92.161-53.479a3.347 3.347 0 0 1 2.065-1.198v-29.353l-27.59 15.815 25.525 14.736zm30.594-14.69l-27.454-15.858v29.35a3.346 3.346 0 0 1 2.064 1.196l25.39-14.688zm67.848-37.246v107.819l93.686-53.701-93.686-54.118zM1253.44 247l187.45-108.29a3.22 3.22 0 0 1 .01-2.384l-92.43-53.411v-.932l95.3-55.051.27.155.27-.155 129.98 75.067V34.607l.27-.467L1634.38 0l.53.002 59.1 34.14.27.464.04 26.53L1711 70.81v1.242l-16.68-9.673.06 39.935 16.62-9.6v1.265l-16.89 9.774-58.39 33.692 75.28 43.521v1.243l-75.82-43.832v53.889l47.37 27.362.27.466V247h-1.08v-26.594l-46.56-26.895v50.797a3.322 3.322 0 0 1 1.38.542c.41.282.76.654 1.01 1.087.19.33.32.69.39 1.063h-6.63c.07-.373.2-.733.39-1.063.25-.433.59-.804 1.01-1.086a2.881 2.881 0 0 1 .69-.36c.22-.085.45-.147.69-.182v-50.798l-46.56 26.895V247h-1.08v-26.593l-46.59-26.902V247h-1.08v-54.115l-92.15-53.245a3.338 3.338 0 0 1-2.07 1.208v103.466a3.318 3.318 0 0 1 1.38.541c.41.282.75.653 1.01 1.085.12.209.21.43.29.659.04.131.07.265.1.401h-6.63c.04-.19.09-.378.17-.561l-91.62-52.922V247h-1.08v-53.484L1255.59 247h-2.15zm439.77-211.468l-55.42 31.662c.31.774.3 1.635-.01 2.405l55.53 32.747-.1-66.814zm-153.87 47.544l-92.15 53.251c.3.764.3 1.616 0 2.382l139.82 80.765 47.1-27.206v-54.511l-94.77-54.681zm153.4 20.186l-55.51-32.74a3.375 3.375 0 0 1-2.05 1.174v64.819l57.56-33.253zm-57.56-38.21c.82.133 1.56.563 2.08 1.21l55.4-31.657-57.48-33.206v63.653zm-285.37 127.532l91.63 52.927a3.346 3.346 0 0 1 2.06-1.198V140.848a3.359 3.359 0 0 1-2.07-1.207l-91.62 52.943zm91.63-57.187a3.344 3.344 0 0 1 2.06-1.193V28.33l-93.69 54.118 91.63 52.949zm3.14-107.068v105.875a3.35 3.35 0 0 1 2.06 1.188l91.63-52.938-93.69-54.125zm130.78 74.29l58.75 33.896v-64.82a3.37 3.37 0 0 1-2.84-3.322 3.369 3.369 0 0 1 2.84-3.321V1.394l-58.75 33.526v67.699z"/></g></svg>