<?xml version="1.0" ?><svg height="32" viewBox="0 0 32 32" width="32" xmlns="http://www.w3.org/2000/svg"><defs><style>.cls-1{fill:none;stroke:#000;stroke-linejoin:round;stroke-width:2px;}</style></defs><title/><g data-name="12-Seo Tag" id="_12-Seo_Tag"><polygon class="cls-1" points="25 8 1 8 1 24 25 24 31 16 25 8"/><path class="cls-1" d="M5,18v1a1,1,0,0,0,1,1H8a1,1,0,0,0,1-1V17a1,1,0,0,0-1-1H6"/><path class="cls-1" d="M9,14V13a1,1,0,0,0-1-1H6a1,1,0,0,0-1,1v2a1,1,0,0,0,1,1H8"/><polyline class="cls-1" points="16 20 12 20 12 12 16 12"/><line class="cls-1" x1="12" x2="16" y1="16" y2="16"/><rect class="cls-1" height="8" rx="1" ry="1" width="5" x="18" y="12"/><line class="cls-1" x1="28" x2="26" y1="16" y2="16"/></g></svg>