<svg xmlns="http://www.w3.org/2000/svg" width="14.107" height="15.45" viewBox="0 0 14.107 15.45">
  <g id="single-01" transform="translate(-3 -1)">
    <path id="Path_30" data-name="Path 30" d="M16.695,9.061a3.7,3.7,0,0,0,3.695-3.695V4.695a3.695,3.695,0,0,0-7.389,0v.672A3.7,3.7,0,0,0,16.695,9.061Z" transform="translate(-6.641)" fill="#7d8a98"/>
    <path id="Path_31" data-name="Path 31" d="M15.185,29.734a18.307,18.307,0,0,0-10.263,0A2.671,2.671,0,0,0,3,32.31v2.4a.336.336,0,0,0,.336.336H16.771a.336.336,0,0,0,.336-.336v-2.4A2.671,2.671,0,0,0,15.185,29.734Z" transform="translate(0 -18.596)" fill="#7d8a98"/>
  </g>
</svg>
