<svg xmlns="http://www.w3.org/2000/svg" width="41.18" height="41.18" viewBox="0 0 41.18 41.18">
  <path id="Path_93" data-name="Path 93" d="M21.021-33.833h.841q6.887,0,13.293,5.245,6.807,6.907,6.807,14.494v1.962q0,4.4-3.4,10.35A21.41,21.41,0,0,1,27.106,6.506a23.948,23.948,0,0,1-5.605.841h-.12q-8.388,0-14.995-6.566A20.844,20.844,0,0,1,.781-13.233q0-8.128,6.346-14.875Q13.733-33.833,21.021-33.833Zm1.221,17.057v.981q0,.24-.26.24a13.277,13.277,0,0,1-6.566-2.683l-1.7-1.582h-.14a3.034,3.034,0,0,1-.48.981v1.461a5.31,5.31,0,0,0,1.7,2.8v.12a3.472,3.472,0,0,1-1.7-.48v.12q0,2.342,3.043,4.024l-.24.12h-.6l-.621-.12v.24q1.4,2.563,3.543,2.563v.36a9.118,9.118,0,0,1-4.765,1.461h-.721v.24A14.736,14.736,0,0,0,18.7-4.344a11.545,11.545,0,0,0,9.009-4.264,12.25,12.25,0,0,0,2.683-7.067v-.841A12.152,12.152,0,0,0,32.352-18.6v-.12a7.918,7.918,0,0,1-1.962.621l-.12-.26a4.153,4.153,0,0,0,1.7-1.822v-.12h-.12a8.7,8.7,0,0,1-2.182.861h-.36a4.872,4.872,0,0,0-2.442-1.221h-.981a3.7,3.7,0,0,0-3.283,2.3A3.049,3.049,0,0,0,22.242-16.776Z" transform="translate(-0.781 33.833)" fill="#7d8a98"/>
</svg>
