<svg xmlns="http://www.w3.org/2000/svg" width="41.3" height="41.18" viewBox="0 0 41.3 41.18">
  <path id="Path_93" data-name="Path 93" d="M19.779-33.773h2.943q4.725,0,10.75,3.9a21.22,21.22,0,0,1,6.586,8.188A20.208,20.208,0,0,1,41.9-14.214v1.7q0,6.847-5.625,13.573A21.078,21.078,0,0,1,21.121,7.407q-10.771,0-17.6-10.03A22.243,22.243,0,0,1,.6-13.253q0-8.608,7.087-15.515Q14.294-33.773,19.779-33.773ZM10.25-15.936v6.366q0,5.205,3.3,6.947,1.481.841,9.529.621,6.166,0,7.087-1.341Q32.251-5,32.251-8.849v-8.188q0-4.845-3.423-6.346l-1.521-.5L25.765-24H16.856a6.23,6.23,0,0,0-6.366,4.645A20.9,20.9,0,0,0,10.25-15.936Zm6.967-6.106h8.548q4.645,0,4.645,4.885v8.668q-.621,4.524-3.784,4.524H23.083q-2.482,0-5.245.12-4.6,0-5.385-2.923a36.314,36.314,0,0,1-.24-4.885v-2.7q0-6.106.981-6.106Q14.174-22.042,17.217-22.042Zm8.668,3.3q.541,1.221,1.361,1.221t1.341-1.221q-.28-1.481-1.481-1.481A1.488,1.488,0,0,0,25.885-18.738Zm-10.25,5.866q0,3.944,4.524,5.485H22.6q4.384-1.582,4.384-5.605v-.26a5.636,5.636,0,0,0-2.322-4.264,5.67,5.67,0,0,0-3.283-1.1h-.12q-3.784,0-5.265,3.9A5.348,5.348,0,0,0,15.635-12.873Zm5.625-3.8h.12a3.523,3.523,0,0,1,3.543,2.823,1.806,1.806,0,0,1,.12.861q-.581,3.784-3.664,3.784a3.684,3.684,0,0,1-3.543-2.442,3.087,3.087,0,0,1-.26-1.221Q18.018-16.676,21.261-16.676Z" transform="translate(-0.601 33.773)" fill="#7d8a98"/>
</svg>
