<svg xmlns="http://www.w3.org/2000/svg" width="241" height="65.637" viewBox="0 0 241 65.637">
  <g id="Group_42" data-name="Group 42" transform="translate(-185.826 -241.648)">
    <g id="Group_31" data-name="Group 31" transform="translate(264.076 246.636)">
      <g id="Group_30" data-name="Group 30" transform="translate(0 0)">
        <path id="Path_51" data-name="Path 51" d="M329.978,255.674H325.5a.6.6,0,0,1-.6-.6v-3.413a.6.6,0,0,1,.6-.595h13.9a.594.594,0,0,1,.595.595v3.413a.594.594,0,0,1-.595.6h-4.477v16.719a.616.616,0,0,1-.6.595h-3.757a.616.616,0,0,1-.6-.595Z" transform="translate(-324.906 -250.758)" fill="#fff"/>
        <path id="Path_52" data-name="Path 52" d="M361.109,251.666a.594.594,0,0,1,.595-.595h9.362a6.69,6.69,0,0,1,2.192,13.056l4.289,7.953a.593.593,0,0,1-.533.908H372.85a.575.575,0,0,1-.5-.282l-4.165-8.3h-2.16v7.984a.616.616,0,0,1-.6.595H361.7a.594.594,0,0,1-.595-.595Zm9.549,8.767a2.51,2.51,0,0,0,2.379-2.5,2.4,2.4,0,0,0-2.379-2.38h-4.634v4.884Z" transform="translate(-340.74 -250.758)" fill="#fff"/>
        <path id="Path_53" data-name="Path 53" d="M400.317,251.666a.6.6,0,0,1,.6-.595h12.962a.594.594,0,0,1,.594.595v3.413a.594.594,0,0,1-.594.6H405.2v3.882h7.139a.616.616,0,0,1,.6.595v3.413a.594.594,0,0,1-.6.595H405.2v4.227h8.673a.594.594,0,0,1,.594.595v3.413a.594.594,0,0,1-.594.595H400.912a.6.6,0,0,1-.6-.595Z" transform="translate(-357.889 -250.758)" fill="#fff"/>
        <path id="Path_54" data-name="Path 54" d="M434.85,251.078a.589.589,0,0,1,.6-.564h.783l12.493,12.023h.03V251.422a.6.6,0,0,1,.6-.595H453.1a.616.616,0,0,1,.594.595v21.071a.589.589,0,0,1-.594.564h-.5a.928.928,0,0,1-.407-.156l-12.367-12.43H439.8v11.678a.594.594,0,0,1-.595.595h-3.726a.616.616,0,0,1-.595-.595Z" transform="translate(-372.993 -250.514)" fill="#fff"/>
        <path id="Path_55" data-name="Path 55" d="M477.65,251.666a.589.589,0,0,1,.563-.595h7.64a10.958,10.958,0,1,1,0,21.917h-7.64a.589.589,0,0,1-.563-.595Zm7.89,16.688a6.344,6.344,0,0,0,0-12.68h-3.006v12.68Z" transform="translate(-391.712 -250.758)" fill="#fff"/>
        <path id="Path_56" data-name="Path 56" d="M521.143,251.666a.615.615,0,0,1,.594-.595h3.757a.616.616,0,0,1,.595.595v20.727a.616.616,0,0,1-.595.595h-3.757a.615.615,0,0,1-.594-.595Z" transform="translate(-410.735 -250.758)" fill="#fff"/>
        <path id="Path_57" data-name="Path 57" d="M539.192,251.078a.589.589,0,0,1,.594-.564h.783l12.493,12.023h.031V251.422a.594.594,0,0,1,.594-.595h3.758a.616.616,0,0,1,.595.595v21.071a.589.589,0,0,1-.595.564h-.5a.924.924,0,0,1-.407-.156l-12.368-12.43h-.031v11.678a.6.6,0,0,1-.6.595h-3.726a.616.616,0,0,1-.595-.595Z" transform="translate(-418.629 -250.514)" fill="#fff"/>
        <path id="Path_58" data-name="Path 58" d="M591.19,250.57a12.087,12.087,0,0,1,7.64,2.944.549.549,0,0,1,.062.845l-2.473,2.63a.662.662,0,0,1-.845.031,5.759,5.759,0,0,0-4.1-1.5,6.278,6.278,0,0,0,.031,12.555,7.406,7.406,0,0,0,2.786-.5v-1.816h-1.972a.568.568,0,0,1-.595-.564v-3.1a.575.575,0,0,1,.595-.595h6.293a.588.588,0,0,1,.564.595l.031,8.422a.773.773,0,0,1-.251.5,15.818,15.818,0,0,1-7.764,2.035,11.24,11.24,0,1,1,0-22.48Z" transform="translate(-436.455 -250.538)" fill="#fff"/>
      </g>
      <path id="Path_59" data-name="Path 59" d="M324.969,310.218a.553.553,0,0,1,.532-.814h4.164a.613.613,0,0,1,.532.344l5.167,11.428h.188l5.165-11.428a.615.615,0,0,1,.533-.344h4.164a.553.553,0,0,1,.532.814l-9.831,21.071a.6.6,0,0,1-.532.345h-.313a.6.6,0,0,1-.533-.345Z" transform="translate(-324.906 -276.271)" fill="#fff"/>
      <path id="Path_60" data-name="Path 60" d="M368.794,310a.616.616,0,0,1,.6-.6h3.757a.616.616,0,0,1,.595.6v20.726a.616.616,0,0,1-.595.6h-3.757a.616.616,0,0,1-.6-.6Z" transform="translate(-344.101 -276.271)" fill="#fff"/>
      <path id="Path_61" data-name="Path 61" d="M386.844,310a.6.6,0,0,1,.6-.6H400.4a.6.6,0,0,1,.595.6v3.412a.6.6,0,0,1-.595.6h-8.673v3.882h7.139a.616.616,0,0,1,.6.595V321.9a.594.594,0,0,1-.6.595h-7.139v4.226H400.4a.6.6,0,0,1,.595.6v3.412a.6.6,0,0,1-.595.6H387.439a.6.6,0,0,1-.6-.6Z" transform="translate(-351.996 -276.271)" fill="#fff"/>
      <path id="Path_62" data-name="Path 62" d="M418.41,309.912a.546.546,0,0,1,.564-.752h3.663a.643.643,0,0,1,.564.438l2.693,10.614h.125l4.853-11.021a.6.6,0,0,1,.532-.345h.564a.533.533,0,0,1,.532.345l4.853,11.021h.125L440.17,309.6a.643.643,0,0,1,.563-.438H444.4a.546.546,0,0,1,.563.752l-5.918,21.039a.6.6,0,0,1-.563.439h-.5a.636.636,0,0,1-.532-.345l-5.73-12.805h-.094l-5.7,12.805a.637.637,0,0,1-.532.345h-.5a.6.6,0,0,1-.564-.439Z" transform="translate(-365.788 -276.027)" fill="#fff"/>
      <path id="Path_63" data-name="Path 63" d="M471.344,328.1l1.472-2.6a.807.807,0,0,1,1.065-.188c.125.062,2.379,1.722,4.446,1.722a1.963,1.963,0,0,0,2.16-1.879c0-1.314-1.1-2.317-3.225-3.162-2.692-1.064-6.074-3.162-6.074-6.919,0-3.1,2.411-6.231,7.233-6.231a11.643,11.643,0,0,1,6.7,2.348.793.793,0,0,1,.188,1l-1.6,2.411c-.219.344-.783.626-1.064.407-.282-.156-2.568-1.879-4.477-1.879a1.816,1.816,0,0,0-1.973,1.6c0,1.159.939,2.035,3.412,3.038,2.442.97,6.324,2.88,6.324,7.138,0,3.225-2.787,6.481-7.388,6.481-4.071,0-6.325-1.691-7.045-2.411C471.187,328.666,471.093,328.541,471.344,328.1Z" transform="translate(-388.885 -276.027)" fill="#fff"/>
    </g>
    <g id="Group_32" data-name="Group 32" transform="translate(185.826 241.648)">
      <path id="Path_64" data-name="Path 64" d="M252.85,279.527a1.126,1.126,0,0,1,0,1.951l-8.939,5.163-2.878,1.65L225.4,297.318,211.4,305.4a1.126,1.126,0,0,1-1.69-.975V294.82a1.127,1.127,0,0,1,.563-.976l20.184-11.654,1.187-.686a1.126,1.126,0,0,0,0-1.95l-1.187-.686-20.184-11.653a1.128,1.128,0,0,1-.563-.976v-9.67a1.127,1.127,0,0,1,1.69-.976L225.4,263.68l15.69,9.056,2.867,1.656Z" transform="translate(-196.272 -247.681)" fill="#fff"/>
      <path id="Path_65" data-name="Path 65" d="M225.9,293.628l-14.5,8.367a1.127,1.127,0,0,1-1.69-.976V284.285a1.127,1.127,0,0,1,1.69-.976l14.5,8.367A1.126,1.126,0,0,1,225.9,293.628Z" transform="translate(-196.272 -259.803)" fill="#fff"/>
      <path id="Path_66" data-name="Path 66" d="M196.392,247.575v53.783a1.127,1.127,0,0,1-.564.976l-8.312,4.8a1.127,1.127,0,0,1-1.69-.976v-63.38a1.126,1.126,0,0,1,1.69-.976l8.312,4.8A1.126,1.126,0,0,1,196.392,247.575Z" transform="translate(-185.826 -241.648)" fill="#fff"/>
    </g>
  </g>
</svg>
