<?xml version="1.0" standalone="no"?>
<!DOCTYPE svg PUBLIC "-//W3C//DTD SVG 20010904//EN"
 "http://www.w3.org/TR/2001/REC-SVG-20010904/DTD/svg10.dtd">
<svg version="1.0" xmlns="http://www.w3.org/2000/svg"
 width="500.000000pt" height="512.000000pt" viewBox="0 0 500.000000 512.000000"
 preserveAspectRatio="xMidYMid meet">
<metadata>
Created by potrace 1.15, written by Peter Selinger 2001-2017
</metadata>
<g transform="translate(0.000000,512.000000) scale(0.100000,-0.100000)"
fill="#000000" stroke="none">
<path d="M2140 5034 c-187 -118 -369 -205 -561 -268 -308 -103 -547 -138 -929
-137 -225 0 -260 3 -428 31 -100 16 -192 30 -203 30 -20 0 -20 0 -16 -997 4
-1080 4 -1073 62 -1354 173 -835 666 -1481 1521 -1989 213 -127 671 -350 719
-350 26 0 205 80 411 183 855 429 1413 986 1689 1685 133 338 192 657 202
1085 5 208 4 247 -8 247 -8 0 -121 -107 -252 -238 l-237 -237 -10 -85 c-51
-429 -231 -848 -505 -1180 -268 -324 -670 -626 -1176 -884 l-116 -59 -169 88
c-276 143 -510 292 -709 449 -116 92 -367 339 -448 443 -280 355 -439 761
-487 1242 -6 59 -10 381 -10 757 l0 654 215 0 c479 0 895 81 1310 255 22 9 98
46 169 82 l129 64 116 -60 c337 -174 777 -304 1144 -337 l79 -7 224 224 c123
123 224 229 224 235 0 8 -62 13 -192 18 -507 19 -832 92 -1207 272 -157 75
-236 122 -309 181 -34 27 -64 43 -80 43 -16 0 -82 -35 -162 -86z"/>
<path d="M4400 4298 c-140 -138 -674 -666 -1187 -1175 l-931 -924 -334 264
c-183 145 -402 318 -487 385 -84 67 -159 122 -166 122 -13 0 -275 -343 -282
-369 -3 -12 186 -167 648 -531 358 -283 656 -517 662 -519 11 -4 2677 2659
2677 2674 0 17 -314 325 -330 325 -8 -1 -130 -114 -270 -252z"/>
</g>
</svg>
