<?xml version="1.0" standalone="no"?>
<!DOCTYPE svg PUBLIC "-//W3C//DTD SVG 20010904//EN"
 "http://www.w3.org/TR/2001/REC-SVG-20010904/DTD/svg10.dtd">
<svg version="1.0" xmlns="http://www.w3.org/2000/svg"
 width="492.000000pt" height="432.000000pt" viewBox="0 0 492.000000 432.000000"
 preserveAspectRatio="xMidYMid meet">
<metadata>
Created by potrace 1.15, written by Peter Selinger 2001-2017
</metadata>
<g transform="translate(0.000000,432.000000) scale(0.100000,-0.100000)"
fill="#000000" stroke="none">
<path d="M2057 4313 l-2057 -3 0 -1715 0 -1715 950 0 950 0 0 85 0 85 -865 0
-865 0 0 1545 0 1545 1928 0 c1060 0 1957 3 1995 7 l67 6 0 -867 0 -866 85 0
85 0 0 950 0 950 -107 -2 c-60 -2 -1034 -4 -2166 -5z"/>
<path d="M2929 4035 c-60 -19 -133 -85 -167 -149 -20 -40 -26 -65 -26 -116 -1
-88 31 -153 104 -213 137 -113 310 -81 410 75 35 54 40 68 40 121 0 82 -15
126 -66 191 -70 89 -188 125 -295 91z m123 -167 c102 -30 83 -187 -25 -205
-55 -9 -93 11 -112 60 -20 50 -13 96 18 124 38 35 60 39 119 21z"/>
<path d="M3567 4036 c-73 -27 -140 -93 -172 -169 -22 -52 -19 -152 6 -207 47
-104 147 -170 259 -170 253 0 378 314 192 482 -22 20 -56 45 -74 54 -44 23
-161 29 -211 10z m160 -182 c35 -22 48 -82 30 -127 -45 -107 -204 -72 -201 45
1 20 9 49 18 63 28 42 101 52 153 19z"/>
<path d="M460 2380 l0 -1050 720 0 720 0 0 85 0 85 -635 0 -635 0 0 880 0 880
1550 0 1550 0 0 -310 0 -310 85 0 85 0 0 395 0 395 -1720 0 -1720 0 0 -1050z"/>
<path d="M3590 2255 c-110 -22 -123 -25 -185 -47 -121 -42 -345 -171 -345
-199 0 -5 -6 -9 -13 -9 -12 0 -137 -120 -137 -132 0 -3 -13 -20 -30 -38 -16
-18 -30 -38 -30 -46 0 -8 -4 -14 -10 -14 -5 0 -10 -7 -10 -15 0 -8 -4 -15 -8
-15 -12 0 -86 -134 -116 -211 -30 -78 -45 -143 -54 -236 l-7 -68 -242 -3
c-173 -2 -243 -6 -243 -14 0 -16 704 -718 721 -718 14 0 729 709 729 723 0 4
-108 7 -240 7 -271 0 -251 -8 -226 85 16 58 55 158 64 165 9 7 62 78 62 83 0
7 102 107 109 107 3 0 17 10 31 23 44 40 162 88 264 107 60 11 192 9 246 -3
58 -14 84 -23 155 -56 88 -40 86 -38 170 -119 81 -77 132 -158 170 -267 23
-67 25 -78 32 -170 17 -230 -97 -460 -293 -591 -93 -63 -244 -113 -341 -114
l-33 0 0 -85 0 -85 58 0 c63 1 142 15 218 40 55 19 169 76 183 94 7 9 20 16
28 16 18 0 203 185 203 203 0 8 7 21 16 28 18 14 75 128 94 183 12 37 17 59
32 131 10 51 6 270 -6 315 -4 14 -9 35 -12 47 -2 12 -8 33 -13 45 -5 13 -9 26
-10 31 -2 16 -65 134 -94 177 -42 61 -150 169 -215 214 -252 175 -583 199
-858 61 -38 -18 -78 -42 -89 -52 -11 -11 -28 -22 -37 -26 -10 -3 -18 -11 -18
-17 0 -5 -6 -10 -13 -10 -13 0 -117 -100 -117 -112 0 -4 -12 -20 -26 -35 -37
-40 -110 -195 -133 -285 -11 -42 -23 -126 -26 -187 l-7 -111 133 0 134 0 -160
-160 -160 -160 -158 157 -157 158 125 3 125 3 1 102 c1 149 3 164 44 297 5 16
70 146 75 150 11 9 70 98 70 107 0 4 9 14 20 21 11 7 20 16 20 20 0 11 121
132 132 132 4 0 13 9 20 20 7 11 16 20 21 20 8 0 89 51 97 62 5 7 45 22 162
64 214 77 485 63 703 -36 39 -17 72 -31 74 -30 2 1 7 -2 10 -7 8 -10 100 -73
107 -73 4 0 43 -37 88 -83 70 -72 193 -248 203 -290 1 -7 14 -46 28 -87 67
-194 67 -420 1 -608 -8 -23 -13 -42 -11 -42 3 0 -4 -15 -15 -33 -11 -17 -20
-38 -20 -44 0 -7 -25 -49 -55 -94 -30 -45 -55 -84 -55 -88 0 -8 -143 -151
-152 -151 -3 0 -42 -25 -87 -55 -45 -30 -81 -52 -81 -50 0 3 -19 -4 -42 -16
-24 -12 -44 -21 -45 -21 -2 1 -22 -5 -45 -14 -234 -82 -511 -62 -735 55 -77
41 -179 111 -218 150 -12 12 -25 21 -31 21 -5 0 -36 -27 -69 -61 l-60 -60 40
-35 c22 -19 47 -42 56 -50 9 -7 21 -14 27 -14 7 0 12 -5 12 -10 0 -6 8 -14 17
-17 9 -4 25 -14 35 -22 10 -9 21 -14 25 -13 3 2 9 -1 12 -6 5 -8 146 -83 153
-82 2 1 19 -5 38 -13 19 -8 76 -25 125 -38 135 -34 401 -34 535 1 19 5 37 9
40 9 11 0 122 41 148 54 15 8 47 25 72 37 25 13 52 29 61 36 8 8 20 14 26 14
5 0 22 11 37 25 15 14 32 25 37 25 16 0 219 207 219 224 0 8 5 16 11 18 6 2
21 20 33 40 11 20 34 57 50 83 15 26 29 52 30 59 1 6 8 22 15 34 18 33 51 132
44 132 -3 0 -1 6 4 13 6 6 13 28 17 47 3 19 9 53 13 75 5 22 8 112 7 200 0
160 -15 256 -55 350 -7 17 -13 32 -13 35 -5 25 -50 120 -57 120 -5 0 -8 3 -7
8 3 12 -24 62 -34 62 -4 0 -8 5 -8 12 0 30 -211 268 -238 268 -7 0 -12 4 -12
10 0 12 -130 100 -147 100 -7 0 -13 4 -13 9 0 22 -226 105 -343 125 -100 18
-313 18 -397 1z"/>
</g>
</svg>
