<?xml version="1.0" standalone="no"?>
<!DOCTYPE svg PUBLIC "-//W3C//DTD SVG 20010904//EN"
 "http://www.w3.org/TR/2001/REC-SVG-20010904/DTD/svg10.dtd">
<svg version="1.0" xmlns="http://www.w3.org/2000/svg"
 width="420.000000pt" height="420.000000pt" viewBox="0 0 420.000000 420.000000"
 preserveAspectRatio="xMidYMid meet">
<metadata>
Created by potrace 1.15, written by Peter Selinger 2001-2017
</metadata>
<g transform="translate(0.000000,420.000000) scale(0.100000,-0.100000)"
fill="#000000" stroke="none">
<path d="M1157 4006 c-21 -8 -56 -26 -77 -41 -40 -28 -100 -107 -100 -132 0
-11 169 -13 961 -13 l961 0 29 -29 29 -29 0 -156 0 -156 -141 0 -141 0 6 -31
c3 -17 6 -62 6 -100 l0 -69 135 0 135 0 0 -400 0 -400 100 0 100 0 0 668 c0
766 4 730 -84 817 -92 90 -29 85 -1016 85 -702 -1 -872 -3 -903 -14z"/>
<path d="M663 3756 c-91 -29 -166 -98 -212 -195 -25 -54 -26 -62 -26 -246 0
-188 0 -191 29 -252 33 -73 103 -144 174 -176 46 -21 60 -22 458 -25 l411 -3
138 -195 c76 -107 153 -208 173 -224 21 -17 58 -34 91 -42 l56 -12 -53 -7
c-118 -16 -230 -105 -272 -217 -20 -52 -21 -73 -18 -252 3 -189 4 -197 30
-245 62 -118 165 -184 302 -192 l84 -6 4 -178 c4 -197 7 -208 78 -256 28 -19
46 -23 114 -23 143 1 150 7 350 292 l117 167 407 3 407 3 67 33 c77 38 130 92
167 171 25 54 26 61 26 251 0 193 0 196 -28 252 -53 108 -148 178 -268 198
-39 6 -336 10 -764 11 -385 1 -685 4 -668 9 46 11 80 35 100 73 15 26 19 63
21 208 l4 177 86 4 c105 6 166 31 232 98 59 58 89 121 102 212 13 95 4 310
-17 368 -33 97 -136 193 -235 220 -57 16 -1615 12 -1667 -4z m1617 -224 c19
-9 45 -32 57 -51 21 -31 23 -45 23 -165 0 -113 -3 -135 -20 -164 -36 -59 -71
-72 -193 -72 -195 0 -210 -18 -215 -263 l-4 -168 -104 148 c-153 219 -181 253
-219 269 -28 11 -111 14 -441 14 -394 0 -407 1 -444 21 -65 37 -75 66 -75 214
0 148 10 177 74 214 36 20 44 21 781 21 690 0 748 -1 780 -18z m1198 -1392
c57 -35 74 -91 70 -230 -3 -128 -11 -149 -72 -194 -26 -20 -43 -21 -454 -26
-297 -3 -433 -9 -447 -17 -32 -18 -56 -48 -189 -237 l-126 -179 0 162 c0 249
-11 263 -210 271 -111 5 -129 8 -159 29 -51 36 -61 73 -61 213 0 138 11 171
72 208 32 19 52 20 788 20 740 0 756 0 788 -20z"/>
<path d="M959 2738 c0 -13 0 -537 0 -1166 -1 -895 2 -1153 12 -1192 19 -73 95
-151 174 -179 60 -22 64 -22 935 -19 l875 3 42 23 c66 35 110 79 140 140 l28
57 0 490 0 490 -102 3 -103 3 0 -216 0 -215 -899 0 -900 0 0 883 c0 485 0 890
0 900 -1 15 -13 17 -101 17 -97 0 -100 -1 -101 -22z m2001 -2133 c0 -151 -9
-195 -45 -209 -9 -3 -396 -6 -859 -6 l-843 0 -24 26 c-23 25 -24 31 -26 180
l-1 154 899 0 899 0 0 -145z"/>
<path d="M1992 665 c-34 -29 -46 -67 -37 -118 5 -27 16 -39 47 -57 107 -60
214 45 151 150 -32 55 -111 67 -161 25z"/>
</g>
</svg>
