<?xml version="1.0" standalone="no"?>
<!DOCTYPE svg PUBLIC "-//W3C//DTD SVG 20010904//EN"
 "http://www.w3.org/TR/2001/REC-SVG-20010904/DTD/svg10.dtd">
<svg version="1.0" xmlns="http://www.w3.org/2000/svg"
 width="512.000000pt" height="512.000000pt" viewBox="0 0 512.000000 512.000000"
 preserveAspectRatio="xMidYMid meet">
<metadata>
Created by potrace 1.15, written by Peter Selinger 2001-2017
</metadata>
<g transform="translate(0.000000,512.000000) scale(0.100000,-0.100000)"
fill="#000000" stroke="none">
<path d="M2289 5105 c-241 -45 -428 -142 -576 -299 -85 -90 -143 -180 -190
-296 -64 -157 -83 -290 -83 -597 l0 -203 1120 0 1120 0 0 208 c0 114 -5 248
-10 297 -29 260 -129 467 -303 631 -125 118 -260 189 -456 241 -87 24 -117 26
-321 29 -164 2 -245 -1 -301 -11z"/>
<path d="M1906 3539 c-12 -61 42 -133 121 -161 21 -7 74 -13 119 -13 70 0 88
4 138 30 55 29 98 76 83 91 -8 8 -398 83 -433 84 -16 0 -23 -8 -28 -31z"/>
<path d="M3063 3531 c-106 -21 -196 -41 -200 -45 -17 -16 25 -62 82 -91 52
-26 71 -30 140 -29 61 0 92 6 133 23 73 33 102 70 102 132 0 49 0 49 -32 48
-18 -1 -120 -18 -225 -38z"/>
<path d="M2375 3280 c-82 -16 -305 -56 -495 -90 -190 -34 -349 -66 -354 -71
-11 -10 21 -138 80 -317 167 -503 389 -769 721 -864 104 -30 351 -32 453 -5
260 72 461 257 618 572 64 129 202 542 202 604 0 13 -36 22 -188 49 -103 19
-334 60 -514 93 -180 32 -337 59 -350 58 -13 -1 -90 -14 -173 -29z"/>
<path d="M1635 2295 c-16 -8 -120 -56 -230 -106 -300 -136 -636 -305 -731
-368 -100 -66 -210 -163 -281 -246 -208 -245 -372 -687 -390 -1047 -8 -174 -9
-173 206 -249 364 -128 856 -210 1576 -261 245 -18 1307 -17 1550 0 522 37
863 82 1185 153 275 61 536 150 579 197 23 26 24 29 18 157 -18 359 -175 788
-380 1038 -65 80 -182 186 -267 242 -144 95 -558 302 -935 467 l-90 39 -15
-23 c-52 -78 -140 -188 -193 -241 -171 -171 -416 -267 -681 -267 -130 0 -208
13 -329 54 -190 65 -351 192 -488 386 -35 49 -66 90 -69 89 -3 0 -18 -7 -35
-14z"/>
</g>
</svg>
