<?xml version="1.0" standalone="no"?>
<!DOCTYPE svg PUBLIC "-//W3C//DTD SVG 20010904//EN"
 "http://www.w3.org/TR/2001/REC-SVG-20010904/DTD/svg10.dtd">
<svg version="1.0" xmlns="http://www.w3.org/2000/svg"
 width="512.000000pt" height="512.000000pt" viewBox="0 0 512.000000 512.000000"
 preserveAspectRatio="xMidYMid meet">
<metadata>
Created by potrace 1.15, written by Peter Selinger 2001-2017
</metadata>
<g transform="translate(0.000000,512.000000) scale(0.100000,-0.100000)"
fill="#000000" stroke="none">
<path d="M398 4602 l-78 -3 -1 -77 c0 -42 -1 -529 -2 -1082 l-2 -1005 910 1
910 1 88 178 c48 97 85 180 82 185 -3 4 -33 5 -67 3 -35 -3 -103 0 -152 6 -79
9 -112 20 -205 64 -37 18 -161 141 -161 160 0 9 -4 17 -9 17 -15 0 -50 102
-60 175 -12 90 -13 465 -1 576 19 190 148 351 328 411 l67 22 1373 2 c756 2
1376 5 1379 8 7 6 7 346 0 352 -6 6 -4260 11 -4399 6z m614 -743 c100 -25 215
-146 237 -250 15 -69 14 -149 -3 -196 -34 -97 -150 -210 -240 -234 -93 -25
-241 -3 -281 41 -10 11 -23 20 -30 20 -13 0 -62 49 -81 82 -93 159 -80 308 38
433 102 110 210 141 360 104z"/>
<path d="M1835 3750 c-17 -18 -17 -26 -6 -93 7 -39 17 -87 23 -105 5 -18 16
-65 23 -105 11 -57 28 -134 44 -192 0 -3 1 -12 1 -20 0 -9 11 -27 25 -40 21
-22 32 -25 102 -25 49 1 85 6 96 14 16 13 50 100 60 156 12 62 29 110 40 110
13 0 47 -152 47 -208 0 -21 8 -37 28 -52 24 -20 36 -22 110 -18 65 4 87 9 102
24 15 15 137 359 156 439 19 76 17 98 -7 116 -29 22 -87 24 -115 4 -22 -15
-57 -105 -94 -242 -23 -83 -45 -108 -54 -60 -21 115 -27 151 -33 207 -9 91
-30 110 -120 110 -108 0 -110 -3 -163 -242 -26 -116 -43 -127 -60 -40 -6 31
-18 87 -26 124 -7 37 -14 78 -14 92 0 58 -123 93 -165 46z"/>
<path d="M2835 3750 c-18 -19 -18 -24 -1 -108 16 -87 36 -178 74 -346 11 -49
27 -95 35 -103 10 -10 40 -15 101 -15 117 -1 118 0 171 215 21 82 40 90 50 20
2 -16 9 -53 15 -83 6 -30 11 -70 12 -88 2 -48 28 -61 123 -64 102 -2 120 4
138 50 40 101 149 441 150 470 1 25 -5 39 -23 53 -30 22 -88 25 -116 4 -18
-12 -59 -103 -69 -153 -1 -9 -13 -52 -26 -94 -22 -78 -44 -101 -53 -55 -4 22
-30 176 -41 249 -8 52 -35 68 -115 68 -104 0 -104 0 -161 -247 -14 -64 -25
-93 -35 -93 -8 0 -14 2 -14 4 0 2 -11 58 -25 126 -14 68 -25 133 -25 146 0 57
-124 90 -165 44z"/>
<path d="M3853 3760 c-30 -12 -30 -54 -2 -180 11 -52 25 -115 29 -140 26 -135
52 -236 64 -248 9 -9 42 -14 100 -14 117 -1 118 0 171 215 21 82 40 90 50 20
2 -16 9 -53 15 -83 6 -30 11 -70 12 -88 2 -48 28 -61 123 -64 102 -2 120 4
138 50 23 58 144 423 151 459 10 46 -27 83 -82 83 -48 0 -77 -23 -91 -70 -5
-19 -14 -48 -20 -65 -6 -16 -22 -69 -36 -117 -30 -102 -50 -115 -61 -40 -41
285 -45 292 -151 292 -35 0 -73 -4 -83 -10 -20 -10 -36 -61 -72 -213 -12 -53
-25 -102 -29 -108 -12 -20 -27 0 -34 44 -4 23 -9 49 -11 57 -1 8 -11 57 -22
108 -13 62 -26 98 -38 107 -21 16 -87 18 -121 5z"/>
<path d="M2511 2833 c-11 -10 -163 -301 -336 -648 -273 -544 -315 -635 -311
-664 12 -77 73 -92 166 -40 30 17 111 60 180 96 69 36 139 74 156 84 l31 19 0
-523 c-1 -512 0 -523 20 -563 31 -59 122 -94 196 -73 38 10 106 78 108 107 0
9 1 245 2 524 1 278 5 509 8 513 4 3 35 -9 69 -27 34 -18 87 -46 118 -62 31
-15 59 -32 62 -37 3 -4 23 -16 45 -25 21 -9 55 -27 74 -40 75 -51 161 -14 161
68 0 13 -51 124 -114 248 -133 265 -138 276 -159 315 -9 17 -26 50 -38 75 -13
25 -42 83 -66 130 -23 47 -91 181 -150 299 -95 190 -111 215 -140 227 -42 18
-57 18 -82 -3z"/>
<path d="M2838 2802 c-16 -2 -28 -6 -28 -9 0 -3 39 -84 87 -179 l86 -174 56
-1 c288 -4 1753 0 1758 4 8 8 8 345 0 353 -6 6 -1907 12 -1959 6z"/>
</g>
</svg>
