<svg width="1005" height="502" viewBox="0 0 1005 502" fill="none" xmlns="http://www.w3.org/2000/svg"><g clip-path="url(#clip0)"><rect opacity=".6" x="-286.5" y="770.5" width="1106.69" height="266.958" rx="133.479" transform="rotate(-45 -286.5 770.5)" fill="url(#paint0_linear)"/><rect opacity=".3" x="371.757" y="308.75" width="1032.38" height="300.157" rx="150.079" transform="rotate(-45 371.757 308.75)" fill="url(#paint1_linear)"/><rect opacity=".4" x="450" y="316.994" width="1158.24" height="173.948" rx="86.974" transform="rotate(-45 450 316.994)" fill="url(#paint2_linear)"/></g><path d="M580.253 346.061a24.29 24.29 0 0124.277-23.431 24.295 24.295 0 0124.277 23.431l2.59-.091a26.888 26.888 0 00-8.196-18.393 26.888 26.888 0 00-37.342 0 26.888 26.888 0 00-8.196 18.393l2.59.091z" fill="#FFC81A"/><path d="M638.404 347.46a34.6 34.6 0 00-4.466-10.759l8.831-8.83-10.928-10.927-8.831 8.83a34.57 34.57 0 00-10.754-4.464v-12.477h-15.451v12.479a34.553 34.553 0 00-10.759 4.466l-8.83-8.831-10.928 10.927 8.835 8.832a34.558 34.558 0 00-4.467 10.755h-12.478v15.451h12.478c.87 3.812 2.38 7.45 4.466 10.758l-8.83 8.83 10.928 10.927 8.83-8.83a34.54 34.54 0 0010.755 4.464v12.478h15.45v-12.48a34.6 34.6 0 0010.759-4.466l8.83 8.83 10.928-10.927-8.835-8.832a34.526 34.526 0 004.466-10.754h12.479v-15.451l-12.478.001zm-17.068 7.725a16.807 16.807 0 01-33.612 0c0-4.457 1.771-8.732 4.923-11.883a16.803 16.803 0 0123.766 0 16.803 16.803 0 014.923 11.883z" fill="#27252B" stroke="#506AA4" stroke-width="1.549" stroke-miterlimit="10"/><path d="M626.148 344.507a24.103 24.103 0 00-14.638-12.396 24.11 24.11 0 00-28.59 12.396M627.704 348.523c.431 1.506.715 3.05.846 4.611" stroke="#506AA4" stroke-width="1.549" stroke-miterlimit="10"/><path d="M665.304 443.818l5.262 2.766" stroke="#38363F" stroke-width="1.343" stroke-linejoin="bevel"/><path d="M673.105 420.644l2.373 4.074" stroke="#38363F" stroke-width="4.131" stroke-linejoin="bevel"/><path d="M674.821 414.358l-7.946 4.588a2.09 2.09 0 00-.765 2.856l.433.751a2.091 2.091 0 002.856.765l7.947-4.588a2.09 2.09 0 00.765-2.855l-.434-.752a2.09 2.09 0 00-2.856-.765z" fill="#232326" stroke="#38363F" stroke-width="1.343" stroke-miterlimit="10" stroke-linecap="round"/><path d="M673.79 400.799a16.021 16.021 0 019.892-14.806 16.027 16.027 0 0121.85 11.679 16.027 16.027 0 01-15.717 19.152 16.04 16.04 0 01-16.025-16.025zm2.108 0a13.92 13.92 0 008.591 12.858 13.92 13.92 0 0015.167-3.017 13.92 13.92 0 00-2.109-21.413 13.92 13.92 0 00-7.732-2.345 13.933 13.933 0 00-13.917 13.917z" fill="#506AA4"/><path d="M671.396 459.638a18.417 18.417 0 0135.448-7.062 18.437 18.437 0 011.39 7.062h-36.838z" fill="#232326"/><path d="M689.815 441.22a18.41 18.41 0 0113.024 5.395 18.432 18.432 0 013.993 5.975 18.433 18.433 0 011.402 7.049h21.991a40.419 40.419 0 00-24.931-37.393 40.407 40.407 0 00-44.077 8.777 40.413 40.413 0 00-11.813 28.616h21.992a18.414 18.414 0 0111.37-17.017 18.414 18.414 0 017.049-1.402z" fill="url(#paint3_linear)"/><path d="M689.815 425.259a34.38 34.38 0 0134.38 34.38h6.03a40.4 40.4 0 00-11.813-28.616 40.416 40.416 0 00-28.597-11.859 40.407 40.407 0 00-40.41 40.475h6.03a34.38 34.38 0 0134.38-34.38z" fill="#232326"/><path d="M696.04 419.705a40.928 40.928 0 00-12.451 0v-4.155a2.989 2.989 0 012.99-2.989h6.472a2.99 2.99 0 012.989 2.989v4.155z" fill="#232326" stroke="#506AA4" stroke-width="1.343" stroke-linecap="round" stroke-linejoin="round"/><path d="M693.943 459.638a4.187 4.187 0 00-.238-1.406l13.405-14.942-1.055-1.047-14.859 13.496a4.134 4.134 0 00-5.528 3.899h8.275z" fill="#506AA4"/><path d="M665.504 435.329a34.38 34.38 0 0158.691 24.31M689.815 425.584v5.944" stroke="#506AA4" stroke-width="1.343" stroke-linejoin="bevel"/><path d="M672.343 430.14l2.963 5.153" stroke="#709BFF" stroke-width="1.343" stroke-linejoin="bevel"/><path d="M708.071 430.656l-3.285 4.955M720.026 443.163L714.802 446" stroke="#506AA4" stroke-width="1.343" stroke-linejoin="bevel"/><path d="M713.913 421.607l-2.534 3.977" stroke="#506AA4" stroke-width="4.131" stroke-linejoin="bevel"/><path d="M691.628 405.408v6.573h-3.627v-6.572l3.627-.001z" fill="#506AA4"/><path d="M709.811 419.437l7.802 4.828a2.09 2.09 0 002.878-.677l.457-.738a2.091 2.091 0 00-.678-2.878l-7.803-4.828a2.089 2.089 0 00-2.877.678l-.457.737a2.091 2.091 0 00.678 2.878z" fill="#232326" stroke="#506AA4" stroke-width="1.343" stroke-miterlimit="10" stroke-linecap="round"/><path d="M652.462 444.155a40.413 40.413 0 0137.353-24.991 40.407 40.407 0 0140.41 40.475" stroke="#506AA4" stroke-width="1.343" stroke-linejoin="bevel"/><path d="M684.812 402.799h10.004a2.043 2.043 0 012.047 2.046v1.128a2.049 2.049 0 01-2.045 2.045h-10.005a2.044 2.044 0 01-1.447-.6 2.044 2.044 0 01-.6-1.447v-1.126a2.046 2.046 0 012.046-2.046z" fill="#232326"/><path d="M694.817 403.47a1.374 1.374 0 011.375 1.375v1.128a1.379 1.379 0 01-1.375 1.375h-10.005a1.38 1.38 0 01-1.375-1.375v-1.128a1.375 1.375 0 011.375-1.375h10.005zm0-1.343h-10.005a2.71 2.71 0 00-1.921.796 2.707 2.707 0 00-.796 1.922v1.127a2.717 2.717 0 002.717 2.718h10.005a2.71 2.71 0 001.922-.796 2.724 2.724 0 00.796-1.922v-1.127a2.725 2.725 0 00-.796-1.922 2.72 2.72 0 00-1.922-.796z" fill="#506AA4"/><path d="M609.173 357.188h49.273l19.314 19.206-.025 71.365a4.796 4.796 0 01-4.794 4.793h-62.177a6.39 6.39 0 01-6.385-6.387v-84.182a4.794 4.794 0 014.794-4.795z" fill="#2B3340"/><path d="M604.405 375.464v-13.481a4.793 4.793 0 014.793-4.794h49.248l19.314 19.205v71.392a4.793 4.793 0 01-4.794 4.794h-19.685" stroke="#709BFF" stroke-width="1.549" stroke-miterlimit="10"/><path d="M658.446 357.188v16.223a2.986 2.986 0 002.983 2.983h16.331l-19.314-19.206z" fill="#27252B" stroke="#709BFF" stroke-width="1.549" stroke-linecap="round" stroke-linejoin="bevel"/><path d="M652.987 390.872h15.035M652.987 401.566h15.035M652.987 412.26h15.035M668.022 422.953h-15.035M668.022 433.61h-15.035" stroke="#9BFF70" stroke-width="3.098" stroke-miterlimit="10"/><path d="M658.711 459.544c-7.955 0-13.424-6.103-13.424-14.058v-62.007a2.626 2.626 0 00-1.62-2.426 2.64 2.64 0 00-1.004-.199h-53.589l-6.614-7.857H556.1v83.778a2.77 2.77 0 002.768 2.769h99.843z" fill="#26252B"/><path d="M556.1 447.222v-74.225h26.36l6.614 7.857h53.445a2.772 2.772 0 011.958.811 2.765 2.765 0 01.811 1.957v63.6H556.1z" fill="#2B3340"/><path d="M645.288 437.305H556.1v5.249h89.188v-5.249zM645.288 431.033H556.1v2.625h89.188v-2.625z" fill="#26252B"/><path d="M658.711 459.544c-7.955 0-13.423-6.103-13.423-14.058v-61.864a2.771 2.771 0 00-2.769-2.768h-53.445l-6.614-7.857H556.1v83.778a2.773 2.773 0 001.709 2.558c.336.139.696.211 1.06.211h99.842z" stroke="#506AA4" stroke-width="1.549" stroke-miterlimit="10"/><path opacity=".5" d="M688.698 217.546L538.406 367.837c-8.854 8.854-8.854 23.209 0 32.063 8.854 8.854 23.209 8.854 32.063 0l173.687-174.688c.501-.501.974-1.02 1.418-1.554l-56.876-6.112z" fill="url(#paint4_linear)"/><path d="M728.204 206.7a10.326 10.326 0 00-10.127-8.306c-9.491 0-10.21 10.455-10.209 10.514a7.266 7.266 0 00-5.141-1.857 7.622 7.622 0 00-7.775 6.814 6.131 6.131 0 00-2.44.43 6.13 6.13 0 00-3.428 3.434 6.114 6.114 0 00-.427 2.44 6.571 6.571 0 006.612 6.432h43.797c.923 0 1.838-.182 2.692-.535a7.048 7.048 0 003.807-3.808 7.023 7.023 0 00.536-2.692 7.317 7.317 0 00-7.358-7.031 7.342 7.342 0 00-7.336-6.481 7.032 7.032 0 00-5.828 3.094" fill="#2C2931"/><path d="M728.204 206.7a10.326 10.326 0 00-10.127-8.306c-9.491 0-10.21 10.455-10.209 10.514a7.266 7.266 0 00-5.141-1.857 7.622 7.622 0 00-7.775 6.814 6.131 6.131 0 00-2.44.43 6.13 6.13 0 00-3.428 3.434 6.114 6.114 0 00-.427 2.44 6.571 6.571 0 006.612 6.432h43.797c.923 0 1.838-.182 2.692-.535a7.048 7.048 0 003.807-3.808 7.023 7.023 0 00.536-2.692 7.317 7.317 0 00-7.358-7.031 7.342 7.342 0 00-7.336-6.481 7.032 7.032 0 00-5.828 3.094" stroke="#709BFF" stroke-width="1.549" stroke-miterlimit="10"/><path d="M216.835 318.854h162.573v121.775a8.266 8.266 0 01-8.263 8.263H225.097a8.263 8.263 0 01-8.262-8.263V318.854z" fill="#232226" stroke="#506AA4" stroke-width="3.098" stroke-miterlimit="10"/><path d="M383.32 308.14H211.948c-2 0-3.622 1.621-3.622 3.621v39.219c0 2 1.622 3.621 3.622 3.621H383.32c2 0 3.621-1.621 3.621-3.621v-39.219c0-2-1.621-3.621-3.621-3.621zM383.32 360.642H211.948c-2 0-3.622 1.621-3.622 3.621v39.219c0 2 1.622 3.621 3.622 3.621H383.32c2 0 3.621-1.621 3.621-3.621v-39.219c0-2-1.621-3.621-3.621-3.621zM383.32 413.145H211.948c-2 0-3.622 1.621-3.622 3.621v39.219c0 2 1.622 3.621 3.622 3.621H383.32c2 0 3.621-1.621 3.621-3.621v-39.219c0-2-1.621-3.621-3.621-3.621z" fill="#2C3442" stroke="#506AA4" stroke-width="1.549" stroke-linecap="round" stroke-linejoin="round"/><path d="M229.102 336.06a4.685 4.685 0 01-4.334-2.894 4.69 4.69 0 119.023-1.795 4.693 4.693 0 01-4.689 4.689z" fill="#445883"/><path d="M229.102 327.455a3.918 3.918 0 013.84 4.679 3.913 3.913 0 01-5.338 2.853 3.908 3.908 0 01-1.757-1.442 3.905 3.905 0 01-.66-2.175 3.918 3.918 0 013.915-3.915zm0-1.549a5.469 5.469 0 00-5.048 3.373 5.463 5.463 0 009.591 5.127 5.458 5.458 0 00.505-5.127 5.452 5.452 0 00-2.957-2.957 5.478 5.478 0 00-2.091-.416z" fill="#27252B"/><path d="M246.666 336.06a4.683 4.683 0 01-4.334-2.894 4.69 4.69 0 119.022-1.795 4.692 4.692 0 01-4.688 4.689z" fill="#9BFF70"/><path d="M246.666 327.454a3.915 3.915 0 110 7.83 3.915 3.915 0 010-7.83zm0-1.549a5.466 5.466 0 00-1.066 10.824 5.467 5.467 0 006.115-7.451 5.47 5.47 0 00-5.049-3.373z" fill="#27252B"/><path d="M264.23 336.06a4.675 4.675 0 01-2.605-.79 4.683 4.683 0 01-1.995-4.814 4.692 4.692 0 016.395-3.418 4.687 4.687 0 011.52 7.647 4.694 4.694 0 01-3.315 1.375z" fill="#445883"/><path d="M264.23 327.455a3.918 3.918 0 013.617 2.417 3.91 3.91 0 01.222 2.262 3.911 3.911 0 01-5.337 2.853 3.908 3.908 0 01-1.757-1.442 3.905 3.905 0 01-.66-2.175 3.918 3.918 0 013.915-3.915zm0-1.549a5.469 5.469 0 00-5.048 3.373 5.463 5.463 0 009.591 5.127 5.458 5.458 0 00.505-5.127 5.468 5.468 0 00-5.048-3.373z" fill="#27252B"/><path d="M229.102 388.562a4.697 4.697 0 01-4.334-2.895 4.69 4.69 0 119.023-1.795 4.693 4.693 0 01-4.689 4.69z" fill="#9BFF70"/><path d="M229.102 379.957a3.918 3.918 0 013.84 4.679 3.913 3.913 0 01-3.076 3.076 3.917 3.917 0 01-4.019-1.664 3.919 3.919 0 01-.66-2.176 3.918 3.918 0 013.915-3.915zm0-1.549a5.469 5.469 0 00-5.048 3.373 5.463 5.463 0 009.591 5.127 5.458 5.458 0 00.505-5.127 5.452 5.452 0 00-2.957-2.957 5.455 5.455 0 00-2.091-.416z" fill="#27252B"/><path d="M246.666 388.562a4.692 4.692 0 01-4.601-5.605 4.684 4.684 0 013.684-3.685 4.69 4.69 0 11.917 9.29z" fill="#445883"/><path d="M246.666 379.957a3.918 3.918 0 013.84 4.679 3.913 3.913 0 01-3.076 3.076 3.917 3.917 0 01-4.019-1.664 3.919 3.919 0 01-.66-2.176 3.918 3.918 0 013.915-3.915zm0-1.549a5.469 5.469 0 00-5.048 3.373 5.463 5.463 0 009.591 5.127 5.458 5.458 0 00.505-5.127 5.452 5.452 0 00-2.957-2.957 5.474 5.474 0 00-2.091-.416z" fill="#27252B"/><path d="M264.231 388.562a4.692 4.692 0 01-4.601-5.605 4.692 4.692 0 018.5-1.691c.515.771.79 1.678.79 2.606a4.693 4.693 0 01-4.689 4.69z" fill="#445883"/><path d="M264.23 379.957a3.918 3.918 0 013.84 4.679 3.913 3.913 0 01-3.076 3.076 3.917 3.917 0 01-4.019-1.664 3.919 3.919 0 01-.66-2.176 3.918 3.918 0 013.915-3.915zm0-1.549a5.469 5.469 0 00-5.048 3.373 5.463 5.463 0 009.591 5.127 5.458 5.458 0 00.505-5.127 5.452 5.452 0 00-2.957-2.957 5.459 5.459 0 00-2.091-.416z" fill="#27252B"/><path d="M229.102 441.065a4.696 4.696 0 01-4.334-2.894 4.69 4.69 0 119.023-1.796 4.694 4.694 0 01-4.689 4.69z" fill="#445883"/><path d="M229.102 432.461a3.918 3.918 0 013.84 4.679 3.913 3.913 0 01-5.338 2.853 3.913 3.913 0 011.498-7.532zm0-1.549a5.469 5.469 0 00-5.048 3.373 5.46 5.46 0 001.184 5.955 5.467 5.467 0 005.955 1.185 5.46 5.46 0 003.373-5.049 5.459 5.459 0 00-3.373-5.048 5.455 5.455 0 00-2.091-.416z" fill="#27252B"/><path d="M246.666 441.065a4.676 4.676 0 01-2.606-.79 4.683 4.683 0 01-1.995-4.814 4.689 4.689 0 114.601 5.604z" fill="#445883"/><path d="M246.665 432.461a3.919 3.919 0 013.618 2.417 3.91 3.91 0 01.222 2.262 3.911 3.911 0 01-5.338 2.853 3.913 3.913 0 01-1.269-6.384 3.92 3.92 0 012.767-1.148zm0-1.549a5.466 5.466 0 102.092 10.513 5.465 5.465 0 00-2.092-10.513z" fill="#27252B"/><path d="M264.23 441.065a4.691 4.691 0 01-3.316-8.006 4.698 4.698 0 015.111-1.017 4.69 4.69 0 01-1.795 9.023z" fill="#9BFF70"/><path d="M264.23 432.461a3.918 3.918 0 013.84 4.679 3.913 3.913 0 01-5.338 2.853 3.913 3.913 0 011.498-7.532zm0-1.549a5.469 5.469 0 00-5.048 3.373 5.46 5.46 0 001.184 5.955 5.467 5.467 0 005.955 1.185 5.46 5.46 0 003.373-5.049 5.459 5.459 0 00-3.373-5.048 5.459 5.459 0 00-2.091-.416zM284.78 333.758h48.141a2.387 2.387 0 100-4.776H284.78a2.39 2.39 0 00-1.689 4.077 2.389 2.389 0 001.689.699zM332.921 381.484H284.78a2.393 2.393 0 00-2.372 2.389 2.388 2.388 0 002.372 2.388h48.141a2.389 2.389 0 000-4.777zM332.995 433.987H284.78a2.387 2.387 0 100 4.777h48.215a2.388 2.388 0 000-4.777z" fill="#27252B"/><path d="M251 279.312h136.089a4.131 4.131 0 004.131-4.132V169.276a4.13 4.13 0 00-4.131-4.131H251a4.13 4.13 0 00-4.131 4.131V275.18a4.131 4.131 0 004.131 4.132z" fill="#26252B" stroke="#506AA4" stroke-width="2" stroke-miterlimit="10"/><path d="M391.248 191.114H246.896v-21.89a4.131 4.131 0 014.131-4.131h136.089a4.132 4.132 0 014.132 4.131v21.89z" fill="#2B3340" stroke="#506AA4" stroke-width="2" stroke-linecap="round" stroke-linejoin="round"/><path d="M359.763 176.571a2.302 2.302 0 00-2.124 1.419 2.296 2.296 0 001.675 3.134 2.295 2.295 0 002.36-.977 2.295 2.295 0 00-.286-2.903 2.288 2.288 0 00-1.625-.673zM368.557 176.571a2.294 2.294 0 00-2.124 1.419 2.296 2.296 0 001.675 3.134 2.295 2.295 0 002.36-.977 2.295 2.295 0 00-.285-2.903 2.303 2.303 0 00-1.626-.673zM377.352 176.571a2.302 2.302 0 00-2.124 1.419 2.304 2.304 0 00.498 2.505 2.296 2.296 0 003.75-2.505 2.303 2.303 0 00-1.244-1.244 2.291 2.291 0 00-.88-.175v0z" stroke="#506AA4" stroke-width="1.549" stroke-linecap="round" stroke-linejoin="round"/><path opacity=".5" d="M318.179 253.852h55.918a6.339 6.339 0 006.339-6.339v-39.746a6.34 6.34 0 00-6.339-6.339h-55.918a6.34 6.34 0 00-6.339 6.339v39.746a6.339 6.339 0 006.339 6.339z" fill="url(#paint5_linear)"/><path d="M354.098 240.69a3.02 3.02 0 10-6.041 0v3.759a3.02 3.02 0 106.041 0v-3.759z" fill="url(#paint6_linear)"/><path d="M344.215 225.36a3.02 3.02 0 00-6.042 0v19.089a3.02 3.02 0 006.042 0V225.36z" fill="url(#paint7_linear)"/><path d="M334.332 233.26a3.02 3.02 0 00-6.042 0v11.189a3.02 3.02 0 006.042 0V233.26z" fill="url(#paint8_linear)"/><path d="M324.452 218.809a3.02 3.02 0 10-6.041 0v25.64a3.02 3.02 0 006.041 0v-25.64z" fill="url(#paint9_linear)"/><path d="M321.514 206.622h-.167a2.937 2.937 0 000 5.875h.167a2.937 2.937 0 000-5.875z" fill="url(#paint10_linear)"/><path d="M262.208 268.391H377.16a3.599 3.599 0 100-7.197H262.208a3.599 3.599 0 000 7.197z" fill="#29303A"/><path d="M278.682 210.159a20.067 20.067 0 1020.067 20.067h-20.067v-20.067z" fill="url(#paint11_linear)"/><path d="M287.524 207.76a16.833 16.833 0 0113.627 13.638h-13.627V207.76zm-2.856-3.345l-.243.001v20.08h20.067a19.825 19.825 0 00-5.889-14.355 19.827 19.827 0 00-13.935-5.726z" fill="#9BFF70"/><path d="M264.49 244.418a20.063 20.063 0 01-4.353-21.872 20.072 20.072 0 0118.545-12.387v20.067l-14.192 14.192z" fill="url(#paint12_linear)"/><path opacity=".4" d="M311.992 308.906h44.147v150.212h-27.533a16.614 16.614 0 01-16.614-16.614V308.906z" fill="#27252B"/><path opacity=".4" d="M321.535 308.906h34.605v150.212h-17.991a16.614 16.614 0 01-16.614-16.614V308.906z" fill="#27252B"/><path d="M151.053 267.291l17.766 10.255v20.516l-17.766 10.259-17.767-10.259v-20.516l17.767-10.255zm0-1.789l-.775.447-17.766 10.256-.775.447v22.304l.775.447 17.766 10.259.774.448.775-.448 17.766-10.259.775-.447v-22.304l-.775-.447-17.766-10.256-.775-.447h.001z" fill="#709BFF"/><path d="M135.353 296.87v-18.13l15.7-9.064 15.701 9.064v18.129l-15.701 9.067-15.7-9.066z" fill="#2B3340"/><path d="M151.053 272.061l13.635 7.871v15.745l-13.635 7.874-13.635-7.874v-15.745l13.635-7.871zm0-4.77l-17.766 10.256v20.515l17.766 10.259 17.766-10.259v-20.515l-17.766-10.256z" fill="#27252B"/><path d="M143.899 286.968l5.064 5.064 9.243-9.243" stroke="#9BFF70" stroke-width="3.098" stroke-miterlimit="10"/><path d="M749.014 459.639H135.063M127.685 459.639H119" stroke="#709BFF" stroke-width="1.549" stroke-miterlimit="10"/><path opacity=".4" d="M574 459.591h15.303a8.782 8.782 0 008.695-8.971L598 381.5h-9l-7-7.5h-8v85.591z" fill="#27252B"/><path opacity=".4" d="M561.675 459.874h18.303a8.782 8.782 0 008.694-8.97l.046-69.19-6.246-7.431h-20.797v85.591z" fill="#27252B"/><path d="M337.749 442.69a2.822 2.822 0 01-2.82-2.82V276.699a6.204 6.204 0 016.2-6.201h226.086a6.21 6.21 0 016.202 6.201V439.87a2.821 2.821 0 01-2.821 2.82H337.749z" fill="#26252B"/><path d="M567.216 274.63a2.074 2.074 0 012.07 2.07v161.859H339.06V276.7a2.07 2.07 0 012.07-2.07h226.086zm0-8.263H341.13a10.332 10.332 0 00-10.333 10.333v163.17a6.952 6.952 0 006.952 6.952h232.847a6.955 6.955 0 006.952-6.952V276.7a10.334 10.334 0 00-10.332-10.333z" fill="#2C3341"/><path d="M323.78 459.671h260.786a15.542 15.542 0 0015.542-15.542v-3.938H486.243l-6.216 6.632h-47.256l-5.941-6.632H308.238v3.938a15.537 15.537 0 004.552 10.99 15.537 15.537 0 0010.99 4.552z" fill="url(#paint13_linear)"/><path d="M312.199 454.545a15.437 15.437 0 0011.58 5.125h260.787a15.42 15.42 0 0011.459-5.125H312.199z" fill="#26252B"/><path d="M323.78 459.671h260.786a15.542 15.542 0 0015.542-15.542v-3.938H486.243l-6.216 6.632h-47.256l-5.941-6.632H308.238v3.938a15.537 15.537 0 004.552 10.99 15.537 15.537 0 0010.99 4.552v0z" stroke="#709BFF" stroke-width="1.549" stroke-miterlimit="10"/><path d="M564.837 279.076H343.738v154.531h221.099V279.076z" fill="#232226"/><path d="M330.797 440.19V275.505a9.136 9.136 0 019.139-9.138H568.41a9.136 9.136 0 019.138 9.138V440.19" stroke="#709BFF" stroke-width="1.549" stroke-miterlimit="10"/><path d="M177.852 392.444l-.075 15.033-26.096 45.198a4.646 4.646 0 001.7 6.341 4.634 4.634 0 002.321.622h59.375a4.637 4.637 0 004.02-2.321 4.647 4.647 0 000-4.642l-26.063-45.141v-15.09h1.515a2.233 2.233 0 002.236-2.236v-3.75a2.242 2.242 0 00-.655-1.581 2.22 2.22 0 00-1.581-.655h-18.32a2.246 2.246 0 00-1.581.655 2.236 2.236 0 00-.655 1.581v3.75a2.237 2.237 0 002.236 2.236h9.021" fill="#27252B"/><path d="M177.852 392.444l-.075 15.033-26.096 45.198a4.646 4.646 0 001.7 6.341 4.634 4.634 0 002.321.622h59.375a4.637 4.637 0 004.02-2.321 4.647 4.647 0 000-4.642l-26.063-45.141v-15.09h1.515a2.233 2.233 0 002.236-2.236v-3.75a2.242 2.242 0 00-.655-1.581 2.22 2.22 0 00-1.581-.655h-18.32a2.246 2.246 0 00-1.581.655 2.236 2.236 0 00-.655 1.581v3.75a2.237 2.237 0 002.236 2.236h9.021" stroke="#709BFF" stroke-width="1.549" stroke-miterlimit="10"/><path d="M176 421.93l-16.511 27.603a3.271 3.271 0 000 3.277 3.273 3.273 0 002.839 1.639h46.123a3.278 3.278 0 002.839-4.916L195 421.93h-19z" fill="url(#paint14_linear)"/><path d="M175.398 448.825a4.54 4.54 0 10-.001-9.081 4.54 4.54 0 00.001 9.081zM185.872 433.223a2.729 2.729 0 10-.002-5.458 2.729 2.729 0 00.002 5.458zM197.028 448.392a2.725 2.725 0 10-.002-5.45 2.725 2.725 0 00.002 5.45z" fill="#27252B"/><path d="M169.764 345.75v5.721l4.954 2.861 4.956-2.861v-5.721l-4.956-2.861-4.954 2.861z" fill="url(#paint15_linear)"/><path d="M569.286 114.785h-57.709a4 4 0 00-4 4v49.801a4 4 0 004 4h57.709a4 4 0 004-4v-49.801a4 4 0 00-4-4z" fill="#26252B" stroke="#709BFF" stroke-width="1.549" stroke-miterlimit="10"/><path d="M569.286 114.775h-57.709a4 4 0 00-4 4v7.032h65.709v-7.032a4 4 0 00-4-4z" fill="#2B3340" stroke="#709BFF" stroke-width="1.549" stroke-linecap="round" stroke-linejoin="round"/><path d="M544.057 137.681l-7.902 20.267m14.561-18.344l11.331 9.094-11.331 7.753m-20.57-16.847l-11.329 9.094 11.329 7.753" stroke="#9BFF70" stroke-width="3.098" stroke-miterlimit="10"/><path d="M368.925 221.729h174.404a7.343 7.343 0 017.346 7.346v188.371H361.579V229.075a7.35 7.35 0 012.152-5.194 7.345 7.345 0 015.194-2.152z" fill="#27252B"/><path d="M369.368 221.729h173.52a7.788 7.788 0 017.787 7.788v22.073H361.579v-22.072a7.793 7.793 0 017.789-7.789z" fill="#2B3340" stroke="#709BFF" stroke-width="2" stroke-linecap="round" stroke-linejoin="round"/><path d="M550.926 267.615l-94.697 94.632-35.053-34.958-59.534 60.604-.001 29.932 189.285.041V267.615z" fill="url(#paint16_linear)"/><path d="M511.893 233.556a3.102 3.102 0 00-3.044 3.709 3.1 3.1 0 004.232 2.262 3.1 3.1 0 001.68-4.055 3.101 3.101 0 00-2.868-1.916zM523.761 233.556a3.105 3.105 0 100 6.21 3.105 3.105 0 000-6.21zM535.629 233.556a3.107 3.107 0 00-2.868 1.916 3.109 3.109 0 00.673 3.383 3.105 3.105 0 102.195-5.299z" fill="#709BFF"/><path d="M384.216 364.91v52.024m18.487-70.878v70.878m18.488-89.573v89.573m17.527-71.685v71.685m17.409-54.906v54.906m18.606-72.979v72.979m18.487-91.237v91.237m18.488-109.928v109.928m18.487-128.403v128.403" stroke="url(#paint17_linear)" stroke-width="2" stroke-miterlimit="10"/><path d="M375.246 267.291h29.34" stroke="#2C3341" stroke-width="4.131" stroke-linecap="round" stroke-linejoin="bevel"/><path d="M375.246 280.064h50.798" stroke="#9BFF70" stroke-width="4.131" stroke-linecap="round" stroke-linejoin="bevel"/><path d="M416.736 267.291h101.738" stroke="#2C3341" stroke-width="4.131" stroke-linecap="round" stroke-linejoin="bevel"/><path d="M375.246 305.611h26.646" stroke="#9BFF70" stroke-width="4.131" stroke-linecap="round" stroke-linejoin="bevel"/><path d="M391.404 292.838h104.788" stroke="#2C3341" stroke-width="4.131" stroke-linecap="round" stroke-linejoin="bevel"/><path d="M413.485 305.611h60.029" stroke="#9BFF70" stroke-width="4.131" stroke-linecap="round" stroke-linejoin="bevel"/><path d="M391.404 318.384h31.166M375.246 331.157h20.95M375.246 344.012h10.839M435.863 318.384h47.558M446.592 331.157h20.083" stroke="#2C3341" stroke-width="4.131" stroke-linecap="round" stroke-linejoin="bevel"/><path d="M361.579 421.577V228.972a7.236 7.236 0 014.471-6.691 7.246 7.246 0 012.772-.552h174.61a7.246 7.246 0 017.243 7.243v192.605" stroke="url(#paint18_linear)" stroke-width="2" stroke-miterlimit="10"/><path d="M601.232 194.117a2.584 2.584 0 00-2.582 2.582 2.583 2.583 0 002.582 2.582h14.439L456.074 358.545l-34.965-34.965-58.822 59.06v6.81l58.832-59.068 34.951 34.951 162.935-162.595v14.315a2.583 2.583 0 004.408 1.826 2.583 2.583 0 00.756-1.826v-22.936h-22.937z" fill="url(#paint19_linear)"/><path d="M550.5 267.5V426" stroke="url(#paint20_linear)" stroke-width="2" stroke-miterlimit="10"/><path d="M721.789 303.967v28.811a3.32 3.32 0 01-3.322 3.321h-25.633a3.322 3.322 0 01-3.322-3.321v-34.876a3.322 3.322 0 013.322-3.322h19.351l9.604 9.387z" fill="#2C2931" stroke="#709BFF" stroke-width="1.549" stroke-linecap="round" stroke-linejoin="round"/><path d="M721.789 303.967h-9.604v-9.387l9.604 9.387z" fill="#2C2931" stroke="#709BFF" stroke-width="1.549" stroke-linejoin="bevel"/><path d="M694.771 310.951h21.759M694.771 316.248h21.759M694.771 321.545h21.759M694.771 326.842h11.65" stroke="#9BFF70" stroke-width="1.549" stroke-miterlimit="10"/><defs><linearGradient id="paint0_linear" x1="1247.99" y1="978.319" x2="889.546" y2="1476.01" gradientUnits="userSpaceOnUse"><stop offset=".053" stop-color="#709BFF" stop-opacity=".4"/><stop offset=".787" stop-color="#709BFF" stop-opacity="0"/></linearGradient><linearGradient id="paint1_linear" x1="956.014" y1="534.661" x2="176.994" y2="529.043" gradientUnits="userSpaceOnUse"><stop stop-color="#709BFF" stop-opacity="0"/><stop offset=".92" stop-color="#709BFF"/></linearGradient><linearGradient id="paint2_linear" x1="979.158" y1="443.817" x2="231.568" y2="436.886" gradientUnits="userSpaceOnUse"><stop stop-color="#709BFF" stop-opacity="0"/><stop offset=".92" stop-color="#709BFF"/></linearGradient><linearGradient id="paint3_linear" x1="702.5" y1="411" x2="672" y2="485" gradientUnits="userSpaceOnUse"><stop offset=".101" stop-color="#5577C1"/><stop offset=".625" stop-color="#2D2B33" stop-opacity="0"/></linearGradient><linearGradient id="paint4_linear" x1="750.993" y1="196.5" x2="611.813" y2="333.286" gradientUnits="userSpaceOnUse"><stop stop-color="#709BFF"/><stop offset=".962" stop-color="#709BFF" stop-opacity="0"/></linearGradient><linearGradient id="paint5_linear" x1="346.138" y1="254" x2="346.138" y2="183.5" gradientUnits="userSpaceOnUse"><stop offset=".285" stop-color="#26252B"/><stop offset="1" stop-color="#506AA6"/></linearGradient><linearGradient id="paint6_linear" x1="336.254" y1="180" x2="336.254" y2="265.5" gradientUnits="userSpaceOnUse"><stop stop-color="#709BFF"/><stop offset=".775" stop-color="#25292D"/></linearGradient><linearGradient id="paint7_linear" x1="336.254" y1="180" x2="336.254" y2="265.5" gradientUnits="userSpaceOnUse"><stop stop-color="#709BFF"/><stop offset=".775" stop-color="#25292D"/></linearGradient><linearGradient id="paint8_linear" x1="336.254" y1="180" x2="336.254" y2="265.5" gradientUnits="userSpaceOnUse"><stop stop-color="#709BFF"/><stop offset=".775" stop-color="#25292D"/></linearGradient><linearGradient id="paint9_linear" x1="336.254" y1="180" x2="336.254" y2="265.5" gradientUnits="userSpaceOnUse"><stop stop-color="#709BFF"/><stop offset=".775" stop-color="#25292D"/></linearGradient><linearGradient id="paint10_linear" x1="321.386" y1="206.635" x2="321.5" y2="224" gradientUnits="userSpaceOnUse"><stop stop-color="#4C5E90"/><stop offset="1" stop-color="#2D2B33" stop-opacity="0"/></linearGradient><linearGradient id="paint11_linear" x1="278.386" y1="210.245" x2="278.386" y2="281.825" gradientUnits="userSpaceOnUse"><stop stop-color="#5C73B5"/><stop offset=".625" stop-color="#25292D" stop-opacity="0"/></linearGradient><linearGradient id="paint12_linear" x1="268.498" y1="210.233" x2="268.498" y2="271.335" gradientUnits="userSpaceOnUse"><stop stop-color="#4A6CCA"/><stop offset=".625" stop-color="#25292D" stop-opacity="0"/></linearGradient><linearGradient id="paint13_linear" x1="454.173" y1="413.5" x2="454.173" y2="455.5" gradientUnits="userSpaceOnUse"><stop stop-color="#709BFF"/><stop offset="1" stop-color="#26252B"/></linearGradient><linearGradient id="paint14_linear" x1="185" y1="422" x2="185" y2="480" gradientUnits="userSpaceOnUse"><stop stop-color="#9BFF70"/><stop offset=".625" stop-color="#2D2B33" stop-opacity="0"/></linearGradient><linearGradient id="paint15_linear" x1="177.5" y1="344.5" x2="161.5" y2="362" gradientUnits="userSpaceOnUse"><stop stop-color="#4C5E90"/><stop offset=".631" stop-color="#2D2B33" stop-opacity="0"/></linearGradient><linearGradient id="paint16_linear" x1="456.284" y1="180" x2="456.284" y2="417.867" gradientUnits="userSpaceOnUse"><stop stop-color="#9BFF70"/><stop offset=".921" stop-color="#232226"/></linearGradient><linearGradient id="paint17_linear" x1="457.206" y1="288.531" x2="457.206" y2="416.934" gradientUnits="userSpaceOnUse"><stop stop-color="#9BFF70"/><stop offset=".852" stop-color="#232226"/></linearGradient><linearGradient id="paint18_linear" x1="456.127" y1="220.955" x2="456.127" y2="421.577" gradientUnits="userSpaceOnUse"><stop offset=".232" stop-color="#709BFF"/><stop offset="1" stop-color="#232226"/></linearGradient><linearGradient id="paint19_linear" x1="582.5" y1="169.5" x2="360.5" y2="391.5" gradientUnits="userSpaceOnUse"><stop offset=".474" stop-color="#9BFF70"/><stop offset="1" stop-color="#232226"/></linearGradient><linearGradient id="paint20_linear" x1="551" y1="267.5" x2="551" y2="406" gradientUnits="userSpaceOnUse"><stop stop-color="#9BFF70"/><stop offset=".852" stop-color="#232226"/></linearGradient><clipPath id="clip0"><path fill="#fff" d="M0 0h1005v461H0z"/></clipPath></defs></svg>