<?xml version="1.0" ?><!DOCTYPE svg  PUBLIC '-//W3C//DTD SVG 1.0//EN'  'http://www.w3.org/TR/2001/REC-SVG-20010904/DTD/svg10.dtd'><svg enable-background="new 0 0 32 32" height="44px" id="Layer_1" version="1.0" viewBox="0 0 32 32" width="44px" xml:space="preserve" xmlns="http://www.w3.org/2000/svg" xmlns:xlink="http://www.w3.org/1999/xlink"><path d="M16,0C7.164,0,0,7.164,0,16s7.164,16,16,16s16-7.164,16-16S24.836,0,16,0z M23.457,17.465c-0.746,0.746-1.953,0.746-2.699,0  L18,14.672v7.391C18,23.133,17.133,24,16.062,24h-0.125C14.867,24,14,23.133,14,22.062v-7.363l-2.734,2.766  c-0.746,0.746-1.953,0.746-2.699,0c-0.742-0.754-0.746-1.973,0-2.727l6.098-6.156c0.742-0.746,1.953-0.746,2.699,0l6.094,6.156  C24.203,15.492,24.203,16.711,23.457,17.465z"/><g/><g/><g/><g/><g/><g/><g/><g/><g/><g/><g/><g/><g/><g/><g/></svg>