<?xml version="1.0" ?><!DOCTYPE svg  PUBLIC '-//W3C//DTD SVG 1.1//EN'  'http://www.w3.org/Graphics/SVG/1.1/DTD/svg11.dtd'><svg enable-background="new 0 0 80 79.999" height="79.999px" id="Layer_1" version="1.1" viewBox="0 0 80 79.999" width="80px" xml:space="preserve" xmlns="http://www.w3.org/2000/svg" xmlns:xlink="http://www.w3.org/1999/xlink"><g><path d="M62.274,11.203c-12.303-12.307-32.248-12.307-44.551,0c-12.3,12.304-12.3,32.25,0,44.549l22.275,22.274   l22.275-22.274C74.575,43.453,74.575,23.507,62.274,11.203z M39.999,55.294c-12.033,0-21.816-9.784-21.816-21.816   c0-12.023,9.783-21.809,21.816-21.809c12.034,0,21.816,9.786,21.816,21.809C61.815,45.51,52.033,55.294,39.999,55.294z    M46.927,23.551c-0.925,2.943-3.684,5.078-6.928,5.078c-3.243,0-6.002-2.135-6.927-5.078c-3.139,2.194-5.187,5.821-5.187,9.928   c0,6.683,5.433,12.114,12.113,12.114c6.682,0,12.113-5.431,12.113-12.114C52.112,29.372,50.064,25.745,46.927,23.551z" fill="#F5F8FA"/></g></svg>