<?xml version="1.0" ?><!DOCTYPE svg  PUBLIC '-//W3C//DTD SVG 1.1//EN'  'http://www.w3.org/Graphics/SVG/1.1/DTD/svg11.dtd'><svg enable-background="new 0 0 99.953 99.953" height="44px" id="Layer_1" version="1.1" viewBox="0 0 99.953 99.953" width="44px" xml:space="preserve" xmlns="http://www.w3.org/2000/svg" xmlns:xlink="http://www.w3.org/1999/xlink"><g><g><path d="M48.188,53.624l-1.774-1.774c-0.729-0.728-1.907-0.728-2.651,0l-10.96,10.975v-9.321    c0-1.024-0.845-1.872-1.871-1.872h-2.495c-1.031,0-1.872,0.853-1.872,1.872v18.101c0,0.515,0.206,0.977,0.551,1.32    c0.346,0.34,0.816,0.553,1.321,0.553h18.096c1.037,0,1.871-0.854,1.871-1.873v-2.5c0-1.025-0.845-1.859-1.871-1.859h-9.316    l10.972-10.973C48.92,55.529,48.92,54.35,48.188,53.624z" fill="#7DACE8"/><path d="M72.836,27.03c-0.345-0.341-0.815-0.554-1.32-0.554H53.421c-1.038,0-1.872,0.851-1.872,1.873v2.501    c0,1.024,0.846,1.857,1.872,1.857h9.314l-10.98,10.968c-0.728,0.727-0.728,1.919,0,2.65l1.769,1.774    c0.727,0.726,1.918,0.726,2.649,0l10.977-10.972v9.322c0,1.023,0.845,1.871,1.872,1.871h2.494c1.031,0,1.873-0.852,1.873-1.871    V28.354C73.383,27.836,73.165,27.371,72.836,27.03z" fill="#7DACE8"/></g><path d="M85.332,14.621c19.494,19.495,19.494,51.216,0,70.711c-19.495,19.495-51.216,19.495-70.711,0   s-19.494-51.216,0-70.711C34.116-4.874,65.836-4.874,85.332,14.621z M80.582,19.371C63.705,2.494,36.247,2.494,19.371,19.37   c-16.876,16.877-16.877,44.336,0,61.213c16.876,16.876,44.335,16.876,61.211,0C97.459,63.706,97.459,36.247,80.582,19.371z" fill="#7DACE8"/></g></svg>