<?xml version="1.0" encoding="UTF-8" standalone="no"?>
<svg width="18px" height="21px" viewBox="0 0 18 21" version="1.1" xmlns="http://www.w3.org/2000/svg" xmlns:xlink="http://www.w3.org/1999/xlink">
    <!-- Generator: Sketch 50.2 (55047) - http://www.bohemiancoding.com/sketch -->
    <title>cryptotab-icon</title>
    <desc>Created with Sketch.</desc>
    <defs></defs>
    <g id="Page-1" stroke="none" stroke-width="1" fill="none" fill-rule="evenodd">
        <g id="get.cryptobrowser_site-main" transform="translate(-135.000000, -7286.000000)" fill="#FFFFFF">
            <g id="5" transform="translate(115.000000, 6929.000000)">
                <g id="text-btn" transform="translate(0.000000, 100.000000)">
                    <g id="btn-download" transform="translate(0.000000, 237.000000)">
                        <g id="up">
                            <g id="cryptotab-icon" transform="translate(20.000000, 20.000000)">
                                <path d="M15.9643636,16.9809231 C16.1214553,16.9033842 16.3423622,16.8646154 16.6270909,16.8646154 C16.9118196,16.8646154 17.1572717,16.9760758 17.3634545,17.199 C17.5696374,17.4219242 17.6727273,17.6787678 17.6727273,17.9695385 C17.6727273,18.4929257 17.4567294,18.8612297 17.0247273,19.0744615 C16.1018136,19.5784641 15.1150962,20.0049213 14.0645455,20.3538462 C13.0139947,20.702771 11.75728,20.8772308 10.2943636,20.8772308 C8.83144723,20.8772308 7.47164265,20.6397716 6.21490909,20.1648462 C4.95817553,19.6899207 3.86836825,18.9969276 2.94545455,18.0858462 C0.981808364,16.1861443 0,13.6370929 0,10.4386154 C0,7.24013785 0.981808364,4.69108642 2.94545455,2.79138462 C4.85019134,0.930452234 7.30471225,0 10.3090909,0 C11.7621891,0 13.0139947,0.174459794 14.0645455,0.523384615 C15.1150962,0.872309437 15.920179,1.1969985 16.4798182,1.49746154 C17.0394573,1.79792458 17.3781812,2.04022985 17.496,2.22438462 C17.6138188,2.40853938 17.6727273,2.64115244 17.6727273,2.92223077 C17.6727273,3.2033091 17.5696374,3.45530658 17.3634545,3.67823077 C17.1572717,3.90115496 16.9118196,4.01261538 16.6270909,4.01261538 C16.3423622,4.01261538 16.1214553,3.97384654 15.9643636,3.89630769 C15.1789052,3.48922873 14.3738223,3.15969357 13.5490909,2.90769231 C12.7243595,2.65569105 11.6983698,2.52969231 10.4710909,2.52969231 C9.24381205,2.52969231 8.13436859,2.73322873 7.14272727,3.14030769 C6.15108595,3.54738665 5.32145788,4.10953488 4.65381818,4.82676923 C3.33817524,6.24185323 2.68036364,8.11244991 2.68036364,10.4386154 C2.68036364,12.7647809 3.33817524,14.6353775 4.65381818,16.0504615 C6.08727989,17.5818538 8.06071471,18.3475385 10.5741818,18.3475385 C11.7327331,18.3475385 12.7243595,18.2215397 13.5490909,17.9695385 C14.3738223,17.7175372 15.1789052,17.388002 15.9643636,16.9809231 Z" id="C"></path>
                                <path d="M13.5458177,13.7404617 C13.6243635,13.7016923 13.734817,13.6823078 13.8771813,13.6823078 C14.0195457,13.6823078 14.1422717,13.7380381 14.2453632,13.8495002 C14.3484546,13.9609622 14.3999995,14.089384 14.3999995,14.2347694 C14.3999995,14.496463 14.2920006,14.680615 14.0759995,14.7872309 C13.6145427,15.0392322 13.121184,15.2524608 12.5959086,15.4269233 C12.0706332,15.6013857 11.4422759,15.6886156 10.7108176,15.6886156 C9.97935943,15.6886156 9.29945713,15.569886 8.67109034,15.3324233 C8.04272355,15.0949605 7.4978199,14.748464 7.03636304,14.2929232 C6.05453993,13.3430723 5.56363574,12.0685466 5.56363574,10.4693078 C5.56363574,8.87006899 6.05453993,7.59554325 7.03636304,6.64569233 C7.98873145,5.71522613 9.21599193,5.25 10.7181813,5.25 C11.4447304,5.25 12.0706332,5.3372299 12.5959086,5.51169231 C13.121184,5.68615473 13.5237254,5.84849926 13.803545,5.99873078 C14.0833646,6.14896231 14.2527265,6.27011494 14.3116359,6.36219233 C14.3705453,6.45426971 14.3999995,6.57057624 14.3999995,6.71111541 C14.3999995,6.85165458 14.3484546,6.97765332 14.2453632,7.08911542 C14.1422717,7.20057751 14.0195457,7.25630773 13.8771813,7.25630773 C13.734817,7.25630773 13.6243635,7.23692331 13.5458177,7.19815388 C13.1530885,6.9946144 12.750547,6.82984681 12.3381813,6.70384618 C11.9258156,6.57784555 11.4128207,6.51484618 10.7991813,6.51484618 C10.1855418,6.51484618 9.63082011,6.61661439 9.13499944,6.82015387 C8.63917877,7.02369336 8.22436473,7.30476747 7.89054487,7.66338466 C7.23272339,8.37092667 6.90381758,9.30622503 6.90381758,10.4693078 C6.90381758,11.6323905 7.23272339,12.5676889 7.89054487,13.2752309 C8.60727574,14.0409271 9.59399316,14.4237694 10.8507267,14.4237694 C11.4300024,14.4237694 11.9258156,14.36077 12.3381813,14.2347694 C12.750547,14.1087688 13.1530885,13.9440012 13.5458177,13.7404617 Z" id="C" stroke="#FFFFFF" stroke-width="0.8"></path>
                            </g>
                        </g>
                    </g>
                </g>
            </g>
        </g>
    </g>
</svg>