<?xml version="1.0" encoding="UTF-8" standalone="no"?>
<svg width="17px" height="14px" viewBox="0 0 17 14" version="1.1" xmlns="http://www.w3.org/2000/svg" xmlns:xlink="http://www.w3.org/1999/xlink">
    <!-- Generator: Sketch 50.2 (55047) - http://www.bohemiancoding.com/sketch -->
    <title>mail-icon</title>
    <desc>Created with Sketch.</desc>
    <defs></defs>
    <g id="Page-1" stroke="none" stroke-width="1" fill="none" fill-rule="evenodd">
        <g id="cryptobrowser_site-03" transform="translate(-778.000000, -5923.000000)" fill="#FFFFFF" fill-rule="nonzero">
            <g id="footer" transform="translate(0.000000, 5671.000000)">
                <g id="Group" transform="translate(776.000000, 95.000000)">
                    <g id="email" transform="translate(2.000000, 156.000000)">
                        <g id="up">
                            <path d="M17,3.31855556 C16.9907273,2.03988889 15.9568182,1 14.6818182,1 L2.31818182,1 C1.04318182,1 0.00927272727,2.03522222 0,3.31855556 C0,3.32788889 0,3.33333333 0,3.34266667 L0,12.6666667 C0,13.9546667 1.03854545,15 2.31818182,15 L14.6818182,15 C15.9614545,15 17,13.9546667 17,12.6666667 L17,3.34266667 C17,3.33333333 17,3.32322222 17,3.31855556 Z M2.31818182,2.55555556 L14.6818182,2.55555556 C14.9862727,2.55555556 15.2466818,2.73055556 15.3726364,2.988 L8.5,7.82966667 L1.62736364,2.988 C1.75254545,2.73055556 2.01372727,2.55555556 2.31818182,2.55555556 Z M14.6818182,13.4444444 L2.31818182,13.4444444 C1.89318182,13.4444444 1.54545455,13.0944444 1.54545455,12.6666667 L1.54545455,4.82588889 L8.05568182,9.41477778 C8.19090909,9.50733333 8.34545455,9.55555556 8.5,9.55555556 C8.65454545,9.55555556 8.80909091,9.50655556 8.94431818,9.41477778 L15.4545455,4.82588889 L15.4545455,12.6666667 C15.4545455,13.0944444 15.1068182,13.4444444 14.6818182,13.4444444 Z" id="mail-icon"></path>
                        </g>
                    </g>
                </g>
            </g>
        </g>
    </g>
</svg>