<?xml version="1.0" encoding="UTF-8" standalone="no"?>
<svg width="22px" height="22px" viewBox="0 0 22 22" version="1.1" xmlns="http://www.w3.org/2000/svg" xmlns:xlink="http://www.w3.org/1999/xlink">
    <!-- Generator: Sketch 50.2 (55047) - http://www.bohemiancoding.com/sketch -->
    <title>linkedin</title>
    <desc>Created with Sketch.</desc>
    <defs></defs>
    <g id="Page-1" stroke="none" stroke-width="1" fill="none" fill-rule="evenodd">
        <g id="cryptobrowser-tab_main_v2-share--a" transform="translate(-1026.000000, -268.000000)" fill="#FFFFFF">
            <g id="Group">
                <g id="slider" transform="translate(238.000000, 189.000000)">
                    <g id="bottom" transform="translate(5.000000, 0.000000)">
                        <g id="drop" transform="translate(749.000000, 0.000000)">
                            <g id="active">
                                <g id="dropdown">
                                    <g id="linkedin" transform="translate(20.000000, 70.000000)">
                                        <g id="up">
                                            <path d="M32.7452222,27.7476667 L29.4855556,27.7476667 L29.4855556,22.6424444 C29.4855556,21.4238889 29.4611111,19.8582222 27.7891111,19.8582222 C26.0926667,19.8582222 25.8335556,21.1843333 25.8335556,22.5532222 L25.8335556,27.7476667 L22.5738889,27.7476667 L22.5738889,17.2487778 L25.7003333,17.2487778 L25.7003333,18.6824444 L25.7455556,18.6824444 C26.1818889,17.8574444 27.2464444,16.9872222 28.8341111,16.9872222 C32.1353333,16.9872222 32.7452222,19.1615556 32.7452222,21.9897778 L32.7452222,27.7476667 Z M18.8937778,15.8126667 C17.8463333,15.8126667 17.0005556,14.9656667 17.0005556,13.9206667 C17.0005556,12.8768889 17.8463333,12.0298889 18.8937778,12.0298889 C19.9375556,12.0298889 20.7857778,12.8768889 20.7857778,13.9206667 C20.7857778,14.9656667 19.9375556,15.8126667 18.8937778,15.8126667 Z M17.2596667,27.7476667 L20.5266667,27.7476667 L20.5266667,17.2487778 L17.2596667,17.2487778 L17.2596667,27.7476667 Z M34.3707778,9 L15.6218889,9 C14.7284444,9 14,9.71133333 14,10.5852222 L14,29.4135556 C14,30.2911111 14.7284444,31 15.6218889,31 L34.3707778,31 C35.2678889,31 36,30.2911111 36,29.4135556 L36,10.5852222 C36,9.71133333 35.2678889,9 34.3707778,9 Z" id="linkedin"></path>
                                        </g>
                                    </g>
                                </g>
                            </g>
                        </g>
                    </g>
                </g>
            </g>
        </g>
    </g>
</svg>