<?xml version="1.0" encoding="UTF-8" standalone="no"?>
<svg width="22px" height="21px" viewBox="0 0 22 21" version="1.1" xmlns="http://www.w3.org/2000/svg" xmlns:xlink="http://www.w3.org/1999/xlink">
    <!-- Generator: Sketch 50.2 (55047) - http://www.bohemiancoding.com/sketch -->
    <title>icon-linechat</title>
    <desc>Created with Sketch.</desc>
    <defs></defs>
    <g id="Page-1" stroke="none" stroke-width="1" fill="none" fill-rule="evenodd">
        <g id="cryptotab_share-box-upd--b" transform="translate(-901.000000, -448.000000)">
            <g id="center" transform="translate(140.000000, -133.000000)">
                <g id="share" transform="translate(1.000000, 351.000000)">
                    <g id="more" transform="translate(726.000000, 0.000000)">
                        <g id="active">
                            <g id="dropdown">
                                <g id="linechat" transform="translate(20.000000, 220.000000)">
                                    <g id="up">
                                        <g id="icon-linechat" transform="translate(14.000000, 10.000000)">
                                            <path d="M10.9623633,0.584392157 C16.9022081,0.584392157 21.7173757,4.48141176 21.7173757,9.28862745 C21.7173757,10.9677647 21.1294674,12.5355294 20.1117249,13.8651765 C20.0613616,13.9408627 19.9955556,14.0244706 19.9125996,14.1168627 L19.9063139,14.1237647 C19.5586596,14.5441569 19.1671605,14.9388235 18.7367055,15.3031373 C15.7625538,18.0815686 10.8671464,21.3894902 10.221037,20.8791373 C9.65935802,20.4355294 11.1461235,18.2657255 9.43082187,17.9046275 C9.31116049,17.8907451 9.19180952,17.8758431 9.07346737,17.858902 L9.07121693,17.8587451 L9.07121693,17.8585882 C4.03325573,17.1352157 0.207428571,13.5735686 0.207428571,9.28862745 C0.207273369,4.48141176 5.02251852,0.584392157 10.9623633,0.584392157 Z" id="Shape" fill="#FFFFFF"></path>
                                            <path d="M4.72227866,12.0650196 L6.8913933,12.0650196 C7.19993651,12.0650196 7.4522963,11.8098824 7.4522963,11.4980392 L7.4522963,11.4507451 C7.4522963,11.138902 7.19993651,10.8838431 6.8913933,10.8838431 L5.32997531,10.8838431 L5.32997531,7.29333333 C5.32997531,6.9814902 5.07761552,6.72643137 4.76907231,6.72643137 L4.72227866,6.72643137 C4.41373545,6.72643137 4.16137566,6.9814902 4.16137566,7.29333333 L4.16137566,11.4979608 C4.16137566,11.8098824 4.41373545,12.0650196 4.72227866,12.0650196 Z M18.163231,9.4294902 L18.163231,9.38219608 C18.163231,9.07035294 17.9107937,8.81529412 17.6022504,8.81529412 L16.0409101,8.81529412 L16.0409101,7.91764706 L17.6022504,7.91764706 C17.9107937,7.91764706 18.163231,7.66258824 18.163231,7.3507451 L18.163231,7.30345098 C18.163231,6.99160784 17.9107937,6.73654902 17.6022504,6.73654902 L15.4331358,6.73654902 C15.1245926,6.73654902 14.8722328,6.99160784 14.8722328,7.30345098 L14.8722328,11.5080784 C14.8722328,11.8199216 15.1245926,12.0750588 15.4331358,12.0750588 L17.6022504,12.0750588 C17.9107937,12.0750588 18.163231,11.8199216 18.163231,11.5080784 L18.163231,11.4607843 C18.163231,11.1489412 17.9107937,10.8938824 17.6022504,10.8938824 L16.0409101,10.8938824 L16.0409101,9.99623529 L17.6022504,9.99623529 C17.9107937,9.99639216 18.163231,9.7412549 18.163231,9.4294902 Z M13.9917672,11.896 L13.9919224,11.8957647 C14.0957173,11.7899948 14.154004,11.6470885 14.1541093,11.4981176 L14.1541093,7.2934902 C14.1541093,6.98164706 13.9017496,6.72658824 13.5931287,6.72658824 L13.5463351,6.72658824 C13.2377919,6.72658824 12.9854321,6.98164706 12.9854321,7.2934902 L12.9854321,9.76164706 L10.9580176,7.0132549 C10.8611711,6.84235294 10.6788078,6.72658824 10.4709912,6.72658824 L10.4241975,6.72658824 C10.1156543,6.72658824 9.86321693,6.98164706 9.86321693,7.2934902 L9.86321693,11.4981176 C9.86321693,11.8099608 10.1155767,12.065098 10.4241975,12.065098 L10.4709912,12.065098 C10.7795344,12.065098 11.0318942,11.8099608 11.0318942,11.4981176 L11.0318942,8.98376471 L13.0738977,11.8026667 C13.0864691,11.8224314 13.1002046,11.8414118 13.1150265,11.859451 L13.1151041,11.8596078 C13.1712099,11.9369412 13.2479577,11.9899608 13.3334744,12.0223529 C13.3992028,12.0498039 13.4710617,12.0650196 13.5462575,12.0650196 L13.5930511,12.0650196 C13.6844614,12.0650712 13.7744731,12.0423343 13.8551111,11.9988235 C13.9112169,11.9718431 13.9584762,11.9370196 13.9917672,11.896 Z M8.46592593,12.0650196 L8.51271958,12.0650196 C8.82126279,12.0650196 9.07362257,11.8098824 9.07362257,11.4980392 L9.07362257,7.29341176 C9.07362257,6.98156863 8.82126279,6.7265098 8.51271958,6.7265098 L8.46592593,6.7265098 C8.15738272,6.7265098 7.90494533,6.98156863 7.90494533,7.29341176 L7.90494533,11.4980392 C7.90494533,11.8098824 8.15738272,12.0650196 8.46592593,12.0650196 Z" id="Shape" fill="#3ACE01"></path>
                                        </g>
                                    </g>
                                </g>
                            </g>
                        </g>
                    </g>
                </g>
            </g>
        </g>
    </g>
</svg>