<?xml version="1.0" encoding="UTF-8" standalone="no"?>
<svg width="24px" height="22px" viewBox="0 0 24 22" version="1.1" xmlns="http://www.w3.org/2000/svg" xmlns:xlink="http://www.w3.org/1999/xlink">
    <!-- Generator: Sketch 50.2 (55047) - http://www.bohemiancoding.com/sketch -->
    <title>icon-reddit</title>
    <desc>Created with Sketch.</desc>
    <defs></defs>
    <g id="Page-1" stroke="none" stroke-width="1" fill="none" fill-rule="evenodd">
        <g id="cryptobrowser-tab_main_v2-share--a" transform="translate(-930.000000, -572.000000)" fill="#FFFFFF">
            <g id="Group">
                <g id="slider" transform="translate(238.000000, 189.000000)">
                    <g id="bottom" transform="translate(5.000000, 0.000000)">
                        <g id="share-icons" transform="translate(390.000000, 376.000000)">
                            <g id="reddit" transform="translate(285.000000, 0.000000)">
                                <g id="up">
                                    <path d="M24.5437955,14.1535188 C27.3029726,14.2568346 29.7811666,15.1046141 31.5795133,16.4163862 C32.0463951,15.895919 32.7061577,15.5714286 33.4374718,15.5714286 C34.852717,15.5714286 36,16.7866557 36,18.2857143 C36,19.3931367 35.3738766,20.3456596 34.4761422,20.7677758 C34.5165278,21.0317647 34.537246,21.2998953 34.537246,21.5714286 C34.537246,25.6741153 29.8074326,29 23.972912,29 C18.1383914,29 13.4085779,25.6741153 13.4085779,21.5714286 C13.4085779,21.291529 13.4305925,21.015245 13.4734707,20.743386 C12.6027816,20.3097575 12,19.3722983 12,18.2857143 C12,16.7866557 13.147283,15.5714286 14.5625282,15.5714286 C15.2826726,15.5714286 15.9334347,15.8860826 16.3989602,16.3926755 C18.1883374,15.0989273 20.6423413,14.2620578 23.3733694,14.1546191 L24.8469051,7.14328761 L29.608381,8.25333922 C29.9001009,7.51861327 30.6095211,7 31.4383747,7 C32.5274852,7 33.4103837,7.8954305 33.4103837,9 C33.4103837,10.1045695 32.5274852,11 31.4383747,11 C30.4181595,11 29.5788923,10.2142732 29.4767935,9.20693534 L25.7262161,8.32703334 L24.5437955,14.1535188 L24.5437955,14.1535188 Z M19.6622254,25.4186752 C19.8594046,25.596962 20.109161,25.7706432 20.4160318,25.9291431 C21.2511876,26.3605044 22.3716368,26.6136289 23.8135355,26.6136289 C25.2483487,26.6136289 26.4206092,26.3634925 27.3479153,25.941242 C27.6821305,25.7890565 27.9628733,25.6237219 28.1926937,25.4554758 C28.3399639,25.3476627 28.4420325,25.2572403 28.5018212,25.1943652 C28.7178329,24.9672028 28.7113708,24.6054536 28.4873877,24.3863758 C28.2634045,24.1672979 27.9067182,24.1738518 27.6907065,24.4010142 C27.6924952,24.3991331 27.6852734,24.4061179 27.668699,24.4208011 C27.6336851,24.4518199 27.5886257,24.4882091 27.5331614,24.5288132 C27.3645506,24.6522493 27.1500089,24.7785968 26.8863639,24.898648 C26.1054982,25.2542166 25.0906156,25.4707718 23.8135355,25.4707718 C22.5435409,25.4707718 21.5981919,25.2572048 20.9274171,24.9107469 C20.5601247,24.7210389 20.3717264,24.5506916 20.3158203,24.4697742 C20.1372522,24.2113179 19.7859062,24.1486104 19.5310671,24.3297132 C19.2762281,24.5108159 19.2143982,24.8671489 19.3929664,25.1256052 C19.4443276,25.1999446 19.5322795,25.3011798 19.6622254,25.4186752 L19.6622254,25.4186752 Z M19.8019507,22.1428571 C20.8910612,22.1428571 21.7739597,21.2474266 21.7739597,20.1428571 C21.7739597,19.0382876 20.8910612,18.1428571 19.8019507,18.1428571 C18.7128401,18.1428571 17.8299416,19.0382876 17.8299416,20.1428571 C17.8299416,21.2474266 18.7128401,22.1428571 19.8019507,22.1428571 L19.8019507,22.1428571 Z M28.0577878,22.1428571 C29.1468983,22.1428571 30.0297968,21.2474266 30.0297968,20.1428571 C30.0297968,19.0382876 29.1468983,18.1428571 28.0577878,18.1428571 C26.9686773,18.1428571 26.0857788,19.0382876 26.0857788,20.1428571 C26.0857788,21.2474266 26.9686773,22.1428571 28.0577878,22.1428571 L28.0577878,22.1428571 Z" id="icon-reddit"></path>
                                </g>
                            </g>
                        </g>
                    </g>
                </g>
            </g>
        </g>
    </g>
</svg>