<?xml version="1.0" encoding="utf-8"?>
<!-- Generator: Adobe Illustrator 22.0.0, SVG Export Plug-In . SVG Version: 6.00 Build 0)  -->
<svg version="1.1" id="Layer_1" xmlns="http://www.w3.org/2000/svg" xmlns:xlink="http://www.w3.org/1999/xlink" x="0px" y="0px"
	 viewBox="0 0 26 26" style="enable-background:new 0 0 26 26;" xml:space="preserve">
<style type="text/css">
	.st0{fill:none;stroke:#8F8F8F;}
	.st1{fill:none;stroke:#8F8F8F;stroke-linecap:square;}
</style>
<title>Group 8</title>
<desc>Created with Sketch.</desc>
<g id="country-drop-down">
	<g id="Homepage-Mobile" transform="translate(-234.000000, -18.000000)">
		<g id="Group-8" transform="translate(234.000000, 18.000000)">
			<g id="Group-2-Copy-4">
				<path id="Rectangle-2" class="st0" d="M13,0.5L13,0.5c6.9,0,12.5,5.6,12.5,12.5l0,0c0,6.9-5.6,12.5-12.5,12.5l0,0
					C6.1,25.5,0.5,19.9,0.5,13l0,0C0.5,6.1,6.1,0.5,13,0.5z"/>
			</g>
			
				<g id="Book-icon" transform="translate(13.000000, 14.500000) rotate(-91.000000) translate(-13.000000, -14.500000) translate(7.000000, 8.000000)">
				<g id="Group" transform="translate(0.000000, -0.000000)">
				</g>
			</g>
			<g id="Group-6" transform="translate(1.000000, 8.000000)">
				<path id="Line" class="st1" d="M23.5,1.5h-23"/>
				<path id="Line_1_" class="st1" d="M23.5,8.5h-23"/>
			</g>
			<g id="Group-7" transform="translate(8.000000, 1.000000)">
				<path id="Line_2_" class="st1" d="M8,23.5c0,0,5-10,0-23"/>
				<path id="Line_3_" class="st1" d="M2.2,23.5c0,0-5-10,0-23"/>
			</g>
		</g>
	</g>
</g>
</svg>
