<?xml version="1.0" encoding="UTF-8" standalone="no"?>
<svg width="127px" height="25px" viewBox="0 0 127 25" version="1.1" xmlns="http://www.w3.org/2000/svg" xmlns:xlink="http://www.w3.org/1999/xlink">
    <!-- Generator: Sketch 39.1 (31720) - http://www.bohemiancoding.com/sketch -->
    <title>Logo@1x</title>
    <desc>Created with Sketch.</desc>
    <defs>
        <path d="M66.0609053,0.104166667 L66.0609053,18.2291667 L69.0921811,18.2291667 L69.0921811,11.6145833 C69.0921811,11.1979167 69.1444444,10.78125 69.2489712,10.4166667 C69.3534979,10.0520833 69.5625514,9.6875 69.7716049,9.375 C70.0329218,9.0625 70.2942387,8.85416667 70.6600823,8.64583333 C71.0259259,8.49010417 71.4440329,8.3859375 71.9144033,8.3859375 C72.3847737,8.3859375 72.7506173,8.49010417 73.0641975,8.69791667 C73.3777778,8.90677083 73.5868313,9.16666667 73.7436214,9.47916667 C73.9004115,9.79166667 74.0049383,10.15625 74.0572016,10.5208333 C74.109465,10.8854167 74.109465,11.2505208 74.109465,11.6145833 L74.109465,18.2291667 L77.1407407,18.2291667 L77.1407407,10.78125 C77.1407407,10.15625 77.036214,9.53125 76.8794239,8.95833333 C76.7226337,8.3859375 76.4613169,7.86458333 76.0954733,7.39583333 C75.781893,6.92708333 75.3115226,6.56302083 74.7366255,6.30208333 C74.1617284,5.98958333 73.4823045,5.88541667 72.7506173,5.9375 C72.2802469,5.9375 71.8621399,5.98958333 71.4962963,6.09375 C71.0781893,6.19791667 70.7646091,6.40625 70.4510288,6.56302083 C70.1374486,6.71875 69.8761317,6.92708333 69.6670782,7.1875 C69.4580247,7.39583333 69.2489712,7.65625 69.1444444,7.91666667 L69.0921811,7.91666667 L69.0921811,0.104166667 L66.0609053,0.104166667 L66.0609053,0.104166667 Z M44.7897119,0.104166667 L44.7897119,7.8125 L44.7374486,7.8125 C44.5806584,7.60416667 44.3716049,7.44791667 44.1625514,7.1875 C43.9534979,6.92708333 43.6399177,6.77083333 43.3263374,6.56302083 C43.0127572,6.35416667 42.5946502,6.19791667 42.1765432,6.09375 C41.7584362,5.9375 41.2880658,5.88541667 40.7131687,5.88541667 C39.8769547,5.88541667 39.0930041,6.0421875 38.3613169,6.35416667 C37.6296296,6.71875 37.0024691,7.13541667 36.4798354,7.70833333 C35.9572016,8.22916667 35.5390947,8.90677083 35.2777778,9.6875 C35.0164609,10.46875 34.8596708,11.3020833 34.8596708,12.1875 C34.8596708,13.0734375 34.9641975,13.90625 35.2777778,14.6875 C35.591358,15.46875 35.9572016,16.1458333 36.4798354,16.71875 C37.0024691,17.2916667 37.6296296,17.7083333 38.3613169,18.0729167 C39.0930041,18.4375 39.8769547,18.59375 40.8176955,18.59375 C41.6539095,18.59375 42.4901235,18.3854167 43.2218107,18.0208333 C43.9534979,17.65625 44.5283951,17.0833333 44.9465021,16.40625 L44.9987654,16.40625 L44.9987654,18.2291667 L47.873251,18.2291667 L47.8209877,18.2291667 L47.8209877,0.104166667 L44.7897119,0.104166667 L44.7897119,0.104166667 Z M39.8769547,15.7291667 C39.4065844,15.5213542 39.0407407,15.2083333 38.7794239,14.84375 C38.518107,14.4791667 38.3090535,14.0625 38.1522634,13.5942708 C37.9954733,13.125 37.9432099,12.6567708 37.9432099,12.1875 C37.9432099,11.71875 38.0477366,11.2505208 38.1522634,10.78125 C38.2567901,10.3130208 38.518107,9.89583333 38.7794239,9.53125 C39.0930041,9.16666667 39.4588477,8.85416667 39.8769547,8.64583333 C40.2950617,8.4375 40.8176955,8.33333333 41.3925926,8.33333333 C41.9152263,8.33333333 42.4378601,8.49010417 42.8559671,8.69791667 C43.2740741,8.90677083 43.6399177,9.21875 43.9534979,9.58333333 C44.2148148,9.94791667 44.4761317,10.3645833 44.6329218,10.8338542 C44.7897119,11.3020833 44.8942387,11.7708333 44.8942387,12.2395833 C44.8942387,12.7083333 44.7897119,13.1776042 44.6329218,13.6458333 C44.4761317,14.1145833 44.2670782,14.53125 43.9534979,14.8958333 C43.6399177,15.2604167 43.2740741,15.5729167 42.8559671,15.78125 C42.4378601,15.9895833 41.9674897,16.09375 41.3925926,16.09375 C40.8176955,16.09375 40.2950617,15.9380208 39.8769547,15.7291667 L39.8769547,15.7291667 Z M29.2152263,0.104166667 L29.2152263,7.8125 L29.162963,7.8125 C29.0061728,7.60416667 28.7971193,7.39583333 28.5880658,7.1875 C28.3790123,6.92708333 28.0654321,6.77083333 27.7518519,6.56302083 C27.4382716,6.35416667 27.0201646,6.19791667 26.6020576,6.09375 C26.1839506,5.9375 25.7135802,5.88541667 25.1386831,5.88541667 C24.3024691,5.88541667 23.5185185,6.0421875 22.7868313,6.35416667 C22.055144,6.71875 21.4279835,7.13541667 20.9053498,7.70833333 C20.382716,8.22916667 19.9646091,8.90677083 19.7032922,9.6875 C19.4419753,10.46875 19.2851852,11.3020833 19.2851852,12.1875 C19.2851852,13.0734375 19.3897119,13.90625 19.7032922,14.6875 C20.0168724,15.46875 20.382716,16.1458333 20.9053498,16.71875 C21.4279835,17.2916667 22.055144,17.7083333 22.7868313,18.0729167 C23.5185185,18.4375 24.3024691,18.59375 25.2432099,18.59375 C26.0794239,18.59375 26.9156379,18.3854167 27.6473251,18.0208333 C28.3790123,17.65625 28.9539095,17.0833333 29.3720165,16.40625 L29.4242798,16.40625 L29.4242798,18.2291667 L32.2987654,18.2291667 L32.2465021,18.2291667 L32.2465021,0.104166667 L29.2152263,0.104166667 L29.2152263,0.104166667 Z M24.3547325,15.7291667 C23.8843621,15.5213542 23.5185185,15.2083333 23.2572016,14.84375 C22.9958848,14.4791667 22.7868313,14.0625 22.6300412,13.5942708 C22.473251,13.125 22.4209877,12.6567708 22.4209877,12.1875 C22.4209877,11.71875 22.473251,11.2505208 22.6300412,10.78125 C22.7345679,10.3130208 22.9958848,9.89583333 23.2572016,9.53125 C23.5707819,9.16666667 23.9366255,8.85416667 24.3547325,8.64583333 C24.7728395,8.4375 25.2954733,8.33333333 25.8703704,8.33333333 C26.3930041,8.33333333 26.9156379,8.4375 27.3337449,8.69791667 C27.7518519,8.90677083 28.1176955,9.21875 28.4312757,9.58333333 C28.6925926,9.94791667 28.9539095,10.3645833 29.1106996,10.8338542 C29.2674897,11.3020833 29.3720165,11.7708333 29.3720165,12.2395833 C29.3720165,12.7083333 29.2674897,13.1776042 29.1106996,13.6458333 C28.9539095,14.1145833 28.744856,14.53125 28.4312757,14.8958333 C28.1176955,15.2604167 27.7518519,15.5729167 27.3337449,15.78125 C26.9156379,15.9895833 26.4452675,16.09375 25.8703704,16.09375 C25.2954733,16.09375 24.7728395,15.9380208 24.3547325,15.7291667 L24.3547325,15.7291667 Z M80.4855967,0.885416667 C80.1197531,1.25 79.962963,1.66666667 79.962963,2.13541667 C79.962963,2.65625 80.1197531,3.07291667 80.4855967,3.48958333 C80.8514403,3.85416667 81.2695473,4.01041667 81.8444444,4.01041667 C82.4193416,4.01041667 82.8897119,3.85416667 83.2555556,3.48958333 C83.6213992,3.125 83.8304527,2.70833333 83.8304527,2.1875 C83.8304527,1.66666667 83.6213992,1.25 83.2555556,0.885416667 C82.8374486,0.520833333 82.3670782,0.364583333 81.8444444,0.364583333 C81.3218107,0.364583333 80.8514403,0.520833333 80.4855967,0.885416667 L80.4855967,0.885416667 Z M50.1728395,0.520833333 L50.1728395,3.28177083 L55.6082305,3.28177083 L55.6604938,3.28177083 L55.6604938,18.2291667 L58.7962963,18.2291667 L58.7962963,3.28177083 L64.2316872,3.28177083 L64.2316872,0.520833333 L50.1728395,0.520833333 L50.1728395,0.520833333 Z M8.04855967,0.520833333 L0.313580247,18.2291667 L3.86748971,18.2291667 L5.48765432,14.1666667 L13.118107,14.1666667 L14.790535,18.2291667 L18.3967078,18.2291667 L10.7662551,0.520833333 L8.04855967,0.520833333 L8.04855967,0.520833333 Z M9.35514403,4.27083333 L12.0728395,11.4583333 L6.58518519,11.4583333 L9.35514403,4.27083333 L9.35514403,4.27083333 Z M89.736214,6.25 C89.1613169,6.40625 88.6909465,6.61458333 88.2205761,6.92708333 C87.7502058,7.23958333 87.3843621,7.65625 87.1230453,8.125 C86.8617284,8.59375 86.7049383,9.16666667 86.7049383,9.84375 C86.7049383,10.4166667 86.8617284,10.8854167 87.0185185,11.2505208 C87.1753086,11.6145833 87.4888889,11.9270833 87.8024691,12.1875 C88.1683128,12.4479167 88.5341564,12.6567708 88.9522634,12.8125 C89.3703704,12.96875 89.7884774,13.0734375 90.2588477,13.1776042 C91.1995885,13.3854167 91.8790123,13.5416667 92.3493827,13.8020833 C92.8197531,14.0625 93.0288066,14.375 93.0288066,14.8958333 C93.0288066,15.15625 92.9765432,15.3645833 92.8720165,15.5729167 C92.7674897,15.7291667 92.6106996,15.8333333 92.4016461,15.9895833 C92.1925926,16.1458333 91.9835391,16.1979167 91.7744856,16.25 C91.5131687,16.3020833 91.3035926,16.3020833 91.0950617,16.3020833 C90.4679012,16.3020833 89.8407407,16.1458333 89.318107,15.8854167 C88.7954733,15.5729167 88.3251029,15.2083333 88.0115226,14.7916667 L86.0255144,16.6666667 C86.5998889,17.2916667 87.3320988,17.7609375 88.2205761,18.125 C89.1090535,18.4895833 89.9975309,18.6458333 90.9382716,18.6458333 C91.5654321,18.6458333 92.1925926,18.59375 92.8197531,18.4375 C93.4469136,18.2817708 93.9695473,18.0729167 94.4399177,17.7609375 C94.9102881,17.4479167 95.2761317,17.03125 95.5374486,16.5104167 C95.7987654,15.9895833 95.9555556,15.3645833 95.9555556,14.6354167 C95.9555556,14.0104167 95.8510288,13.5416667 95.5897119,13.125 C95.3283951,12.7083333 95.0148148,12.3958333 94.6489712,12.0833333 C94.2831276,11.7708333 93.8650206,11.6145833 93.3946502,11.40625 C92.9242798,11.1979167 92.5061728,11.09375 92.0358025,10.9895833 C91.1995885,10.78125 90.5201646,10.625 90.1020576,10.4166667 C89.6316872,10.2083333 89.4226337,9.89583333 89.4226337,9.42708333 C89.4226337,8.95833333 89.6316872,8.64583333 90.0497942,8.4375 C90.4156379,8.22916667 90.8860082,8.125 91.3563786,8.125 C91.8790123,8.125 92.4016461,8.22916667 92.8720165,8.49010417 C93.3423868,8.75 93.7082305,9.0625 93.9695473,9.42708333 L96.0600823,7.86458333 C95.5369259,7.29166667 94.9102881,6.82291667 94.0740741,6.51041667 C93.2378601,6.19791667 92.4016461,6.0421875 91.5131687,6.0421875 C90.8860082,6.0421875 90.3111111,6.09375 89.736214,6.25 L89.736214,6.25 Z M80.38107,18.2291667 L83.4128683,18.2291667 L83.4128683,6.25 L80.38107,6.25 L80.38107,18.2291667 L80.38107,18.2291667 Z" id="path-1"></path>
    </defs>
    <g id="Page-1" stroke="none" stroke-width="1" fill="none" fill-rule="evenodd">
        <g id="Desktop-HD-Copy-24" transform="translate(-656.000000, -38.000000)">
            <g id="Logo" transform="translate(656.000000, 38.000000)">
                <g id="Group-5" transform="translate(30.835391, 3.645833)" fill="#FFFFFF">
                    <path d="M8.04855967,0.520833333 L10.7662551,0.520833333 L18.3967078,18.2291667 L14.790535,18.2291667 L13.118107,14.1666667 L5.48765432,14.1666667 L3.86748971,18.2291667 L0.313580247,18.2291667 L8.04855967,0.520833333 Z M12.0728395,11.4583333 L9.35514403,4.27083333 L6.58518519,11.4583333 L12.0728395,11.4583333 Z M32.2987654,18.2291667 L29.4242798,18.2291667 L29.4242798,16.40625 L29.3720165,16.40625 C28.9539095,17.0833333 28.3790123,17.65625 27.6473251,18.0208333 C26.9156379,18.3854167 26.0794239,18.59375 25.2432099,18.59375 C24.3024691,18.59375 23.5185185,18.4375 22.7868313,18.0729167 C22.055144,17.7083333 21.4279835,17.2916667 20.9053498,16.71875 C20.382716,16.1458333 20.0168724,15.46875 19.7032922,14.6875 C19.3897119,13.90625 19.2851852,13.0729167 19.2851852,12.1875 C19.2851852,11.3020833 19.4419753,10.46875 19.7032922,9.6875 C19.9646091,8.90625 20.382716,8.22916667 20.9053498,7.70833333 C21.4279835,7.13541667 22.055144,6.71875 22.7868313,6.35416667 C23.5185185,6.04166667 24.3024691,5.88541667 25.1386831,5.88541667 C25.7135802,5.88541667 26.1839506,5.9375 26.6020576,6.09375 C27.0201646,6.19791667 27.4382716,6.35416667 27.7518519,6.5625 C28.0654321,6.77083333 28.3790123,6.92708333 28.5880658,7.1875 C28.7971193,7.39583333 29.0061728,7.60416667 29.162963,7.8125 L29.2152263,7.8125 L29.2152263,0.104166667 L32.2465021,0.104166667 L32.2465021,18.2291667 L32.2987654,18.2291667 Z M22.4209877,12.1875 C22.4209877,12.65625 22.473251,13.125 22.6300412,13.59375 C22.7868313,14.0625 22.9958848,14.4791667 23.2572016,14.84375 C23.5185185,15.2083333 23.8843621,15.5208333 24.3547325,15.7291667 C24.7728395,15.9375 25.2954733,16.09375 25.8703704,16.09375 C26.4452675,16.09375 26.9156379,15.9895833 27.3337449,15.78125 C27.7518519,15.5729167 28.1176955,15.2604167 28.4312757,14.8958333 C28.744856,14.53125 28.9539095,14.1145833 29.1106996,13.6458333 C29.2674897,13.1770833 29.3720165,12.7083333 29.3720165,12.2395833 C29.3720165,11.7708333 29.2674897,11.3020833 29.1106996,10.8333333 C28.9539095,10.3645833 28.6925926,9.94791667 28.4312757,9.58333333 C28.1176955,9.21875 27.7518519,8.90625 27.3337449,8.69791667 C26.9156379,8.4375 26.3930041,8.33333333 25.8703704,8.33333333 C25.2954733,8.33333333 24.7728395,8.4375 24.3547325,8.64583333 C23.9366255,8.85416667 23.5707819,9.16666667 23.2572016,9.53125 C22.9958848,9.89583333 22.7345679,10.3125 22.6300412,10.78125 C22.473251,11.25 22.4209877,11.71875 22.4209877,12.1875 L22.4209877,12.1875 Z M47.873251,18.2291667 L44.9987654,18.2291667 L44.9987654,16.40625 L44.9465021,16.40625 C44.5283951,17.0833333 43.9534979,17.65625 43.2218107,18.0208333 C42.4901235,18.3854167 41.6539095,18.59375 40.8176955,18.59375 C39.8769547,18.59375 39.0930041,18.4375 38.3613169,18.0729167 C37.6296296,17.7083333 37.0024691,17.2916667 36.4798354,16.71875 C35.9572016,16.1458333 35.591358,15.46875 35.2777778,14.6875 C34.9641975,13.90625 34.8596708,13.0729167 34.8596708,12.1875 C34.8596708,11.3020833 35.0164609,10.46875 35.2777778,9.6875 C35.5390947,8.90625 35.9572016,8.22916667 36.4798354,7.70833333 C37.0024691,7.13541667 37.6296296,6.71875 38.3613169,6.35416667 C39.0930041,6.04166667 39.8769547,5.88541667 40.7131687,5.88541667 C41.2880658,5.88541667 41.7584362,5.9375 42.1765432,6.09375 C42.5946502,6.19791667 43.0127572,6.35416667 43.3263374,6.5625 C43.6399177,6.77083333 43.9534979,6.92708333 44.1625514,7.1875 C44.3716049,7.44791667 44.5806584,7.60416667 44.7374486,7.8125 L44.7897119,7.8125 L44.7897119,0.104166667 L47.8209877,0.104166667 L47.8209877,18.2291667 L47.873251,18.2291667 Z M37.9432099,12.1875 C37.9432099,12.65625 37.9954733,13.125 38.1522634,13.59375 C38.3090535,14.0625 38.518107,14.4791667 38.7794239,14.84375 C39.0407407,15.2083333 39.4065844,15.5208333 39.8769547,15.7291667 C40.2950617,15.9375 40.8176955,16.09375 41.3925926,16.09375 C41.9674897,16.09375 42.4378601,15.9895833 42.8559671,15.78125 C43.2740741,15.5729167 43.6399177,15.2604167 43.9534979,14.8958333 C44.2670782,14.53125 44.4761317,14.1145833 44.6329218,13.6458333 C44.7897119,13.1770833 44.8942387,12.7083333 44.8942387,12.2395833 C44.8942387,11.7708333 44.7897119,11.3020833 44.6329218,10.8333333 C44.4761317,10.3645833 44.2148148,9.94791667 43.9534979,9.58333333 C43.6399177,9.21875 43.2740741,8.90625 42.8559671,8.69791667 C42.4378601,8.48958333 41.9152263,8.33333333 41.3925926,8.33333333 C40.8176955,8.33333333 40.2950617,8.4375 39.8769547,8.64583333 C39.4588477,8.85416667 39.0930041,9.16666667 38.7794239,9.53125 C38.518107,9.89583333 38.2567901,10.3125 38.1522634,10.78125 C38.0477366,11.25 37.9432099,11.71875 37.9432099,12.1875 L37.9432099,12.1875 Z M55.6082305,3.28125 L50.1728395,3.28125 L50.1728395,0.520833333 L64.2316872,0.520833333 L64.2316872,3.28125 L58.7962963,3.28125 L58.7962963,18.2291667 L55.6604938,18.2291667 L55.6604938,3.28125 L55.6082305,3.28125 Z M74.7366255,6.30208333 C75.3115226,6.5625 75.781893,6.92708333 76.0954733,7.39583333 C76.4613169,7.86458333 76.7226337,8.38541667 76.8794239,8.95833333 C77.036214,9.53125 77.1407407,10.15625 77.1407407,10.78125 L77.1407407,18.2291667 L74.109465,18.2291667 L74.109465,11.6145833 C74.109465,11.25 74.109465,10.8854167 74.0572016,10.5208333 C74.0049383,10.15625 73.9004115,9.79166667 73.7436214,9.47916667 C73.5868313,9.16666667 73.3777778,8.90625 73.0641975,8.69791667 C72.7506173,8.48958333 72.3847737,8.38541667 71.9144033,8.38541667 C71.4440329,8.38541667 71.0259259,8.48958333 70.6600823,8.64583333 C70.2942387,8.85416667 70.0329218,9.0625 69.7716049,9.375 C69.5625514,9.6875 69.3534979,10.0520833 69.2489712,10.4166667 C69.1444444,10.78125 69.0921811,11.1979167 69.0921811,11.6145833 L69.0921811,18.2291667 L66.0609053,18.2291667 L66.0609053,0.104166667 L69.0921811,0.104166667 L69.0921811,7.91666667 L69.1444444,7.91666667 C69.2489712,7.65625 69.4580247,7.39583333 69.6670782,7.1875 C69.8761317,6.92708333 70.1374486,6.71875 70.4510288,6.5625 C70.7646091,6.40625 71.0781893,6.19791667 71.4962963,6.09375 C71.8621399,5.98958333 72.2802469,5.9375 72.7506173,5.9375 C73.4823045,5.88541667 74.1617284,5.98958333 74.7366255,6.30208333 L74.7366255,6.30208333 Z M80.38107,18.2291667 L83.4123457,18.2291667 L83.4123457,6.25 L80.38107,6.25 L80.38107,18.2291667 Z M79.962963,2.13541667 C79.962963,1.66666667 80.1197531,1.25 80.4855967,0.885416667 C80.8514403,0.520833333 81.3218107,0.364583333 81.8444444,0.364583333 C82.3670782,0.364583333 82.8374486,0.520833333 83.2555556,0.885416667 C83.6213992,1.25 83.8304527,1.66666667 83.8304527,2.1875 C83.8304527,2.70833333 83.6213992,3.125 83.2555556,3.48958333 C82.8897119,3.85416667 82.4193416,4.01041667 81.8444444,4.01041667 C81.2695473,4.01041667 80.8514403,3.85416667 80.4855967,3.48958333 C80.1197531,3.07291667 79.962963,2.65625 79.962963,2.13541667 L79.962963,2.13541667 Z M93.9695473,9.42708333 C93.7082305,9.0625 93.3423868,8.75 92.8720165,8.48958333 C92.4016461,8.22916667 91.8790123,8.125 91.3563786,8.125 C90.8860082,8.125 90.4156379,8.22916667 90.0497942,8.4375 C89.6316872,8.64583333 89.4226337,8.95833333 89.4226337,9.42708333 C89.4226337,9.89583333 89.6316872,10.2083333 90.1020576,10.4166667 C90.5201646,10.625 91.1995885,10.78125 92.0358025,10.9895833 C92.5061728,11.09375 92.9242798,11.1979167 93.3946502,11.40625 C93.8650206,11.6145833 94.2831276,11.7708333 94.6489712,12.0833333 C95.0148148,12.3958333 95.3283951,12.7083333 95.5897119,13.125 C95.8510288,13.5416667 95.9555556,14.0104167 95.9555556,14.6354167 C95.9555556,15.3645833 95.7987654,15.9895833 95.5374486,16.5104167 C95.2761317,17.03125 94.9102881,17.4479167 94.4399177,17.7604167 C93.9695473,18.0729167 93.4469136,18.28125 92.8197531,18.4375 C92.1925926,18.59375 91.5654321,18.6458333 90.9382716,18.6458333 C89.9975309,18.6458333 89.1090535,18.4895833 88.2205761,18.125 C87.3320988,17.7604167 86.6004115,17.2916667 86.0255144,16.6666667 L88.0115226,14.7916667 C88.3251029,15.2083333 88.7954733,15.5729167 89.318107,15.8854167 C89.8407407,16.1458333 90.4679012,16.3020833 91.0950617,16.3020833 C91.3041152,16.3020833 91.5131687,16.3020833 91.7744856,16.25 C91.9835391,16.1979167 92.1925926,16.1458333 92.4016461,15.9895833 C92.6106996,15.8333333 92.7674897,15.7291667 92.8720165,15.5729167 C92.9765432,15.3645833 93.0288066,15.15625 93.0288066,14.8958333 C93.0288066,14.375 92.8197531,14.0625 92.3493827,13.8020833 C91.8790123,13.5416667 91.1995885,13.3854167 90.2588477,13.1770833 C89.7884774,13.0729167 89.3703704,12.96875 88.9522634,12.8125 C88.5341564,12.65625 88.1683128,12.4479167 87.8024691,12.1875 C87.4888889,11.9270833 87.1753086,11.6145833 87.0185185,11.25 C86.8617284,10.8854167 86.7049383,10.4166667 86.7049383,9.84375 C86.7049383,9.16666667 86.8617284,8.59375 87.1230453,8.125 C87.3843621,7.65625 87.7502058,7.23958333 88.2205761,6.92708333 C88.6909465,6.61458333 89.1613169,6.40625 89.736214,6.25 C90.3111111,6.09375 90.8860082,6.04166667 91.5131687,6.04166667 C92.4016461,6.04166667 93.2378601,6.19791667 94.0740741,6.51041667 C94.9102881,6.82291667 95.5374486,7.29166667 96.0600823,7.86458333 L93.9695473,9.42708333 Z" id="Fill-1"></path>
                    <path d="M8.04855967,0.520833333 L10.7662551,0.520833333 L18.3967078,18.2291667 L14.790535,18.2291667 L13.118107,14.1666667 L5.48765432,14.1666667 L3.86748971,18.2291667 L0.313580247,18.2291667 L8.04855967,0.520833333 Z M12.0728395,11.4583333 L9.35514403,4.27083333 L6.58518519,11.4583333 L12.0728395,11.4583333 Z M32.2987654,18.2291667 L29.4242798,18.2291667 L29.4242798,16.40625 L29.3720165,16.40625 C28.9539095,17.0833333 28.3790123,17.65625 27.6473251,18.0208333 C26.9156379,18.3854167 26.0794239,18.59375 25.2432099,18.59375 C24.3024691,18.59375 23.5185185,18.4375 22.7868313,18.0729167 C22.055144,17.7083333 21.4279835,17.2916667 20.9053498,16.71875 C20.382716,16.1458333 20.0168724,15.46875 19.7032922,14.6875 C19.3897119,13.90625 19.2851852,13.0729167 19.2851852,12.1875 C19.2851852,11.3020833 19.4419753,10.46875 19.7032922,9.6875 C19.9646091,8.90625 20.382716,8.22916667 20.9053498,7.70833333 C21.4279835,7.13541667 22.055144,6.71875 22.7868313,6.35416667 C23.5185185,6.04166667 24.3024691,5.88541667 25.1386831,5.88541667 C25.7135802,5.88541667 26.1839506,5.9375 26.6020576,6.09375 C27.0201646,6.19791667 27.4382716,6.35416667 27.7518519,6.5625 C28.0654321,6.77083333 28.3790123,6.92708333 28.5880658,7.1875 C28.7971193,7.39583333 29.0061728,7.60416667 29.162963,7.8125 L29.2152263,7.8125 L29.2152263,0.104166667 L32.2465021,0.104166667 L32.2465021,18.2291667 L32.2987654,18.2291667 Z M22.4209877,12.1875 C22.4209877,12.65625 22.473251,13.125 22.6300412,13.59375 C22.7868313,14.0625 22.9958848,14.4791667 23.2572016,14.84375 C23.5185185,15.2083333 23.8843621,15.5208333 24.3547325,15.7291667 C24.7728395,15.9375 25.2954733,16.09375 25.8703704,16.09375 C26.4452675,16.09375 26.9156379,15.9895833 27.3337449,15.78125 C27.7518519,15.5729167 28.1176955,15.2604167 28.4312757,14.8958333 C28.744856,14.53125 28.9539095,14.1145833 29.1106996,13.6458333 C29.2674897,13.1770833 29.3720165,12.7083333 29.3720165,12.2395833 C29.3720165,11.7708333 29.2674897,11.3020833 29.1106996,10.8333333 C28.9539095,10.3645833 28.6925926,9.94791667 28.4312757,9.58333333 C28.1176955,9.21875 27.7518519,8.90625 27.3337449,8.69791667 C26.9156379,8.4375 26.3930041,8.33333333 25.8703704,8.33333333 C25.2954733,8.33333333 24.7728395,8.4375 24.3547325,8.64583333 C23.9366255,8.85416667 23.5707819,9.16666667 23.2572016,9.53125 C22.9958848,9.89583333 22.7345679,10.3125 22.6300412,10.78125 C22.473251,11.25 22.4209877,11.71875 22.4209877,12.1875 L22.4209877,12.1875 Z M47.873251,18.2291667 L44.9987654,18.2291667 L44.9987654,16.40625 L44.9465021,16.40625 C44.5283951,17.0833333 43.9534979,17.65625 43.2218107,18.0208333 C42.4901235,18.3854167 41.6539095,18.59375 40.8176955,18.59375 C39.8769547,18.59375 39.0930041,18.4375 38.3613169,18.0729167 C37.6296296,17.7083333 37.0024691,17.2916667 36.4798354,16.71875 C35.9572016,16.1458333 35.591358,15.46875 35.2777778,14.6875 C34.9641975,13.90625 34.8596708,13.0729167 34.8596708,12.1875 C34.8596708,11.3020833 35.0164609,10.46875 35.2777778,9.6875 C35.5390947,8.90625 35.9572016,8.22916667 36.4798354,7.70833333 C37.0024691,7.13541667 37.6296296,6.71875 38.3613169,6.35416667 C39.0930041,6.04166667 39.8769547,5.88541667 40.7131687,5.88541667 C41.2880658,5.88541667 41.7584362,5.9375 42.1765432,6.09375 C42.5946502,6.19791667 43.0127572,6.35416667 43.3263374,6.5625 C43.6399177,6.77083333 43.9534979,6.92708333 44.1625514,7.1875 C44.3716049,7.44791667 44.5806584,7.60416667 44.7374486,7.8125 L44.7897119,7.8125 L44.7897119,0.104166667 L47.8209877,0.104166667 L47.8209877,18.2291667 L47.873251,18.2291667 Z M37.9432099,12.1875 C37.9432099,12.65625 37.9954733,13.125 38.1522634,13.59375 C38.3090535,14.0625 38.518107,14.4791667 38.7794239,14.84375 C39.0407407,15.2083333 39.4065844,15.5208333 39.8769547,15.7291667 C40.2950617,15.9375 40.8176955,16.09375 41.3925926,16.09375 C41.9674897,16.09375 42.4378601,15.9895833 42.8559671,15.78125 C43.2740741,15.5729167 43.6399177,15.2604167 43.9534979,14.8958333 C44.2670782,14.53125 44.4761317,14.1145833 44.6329218,13.6458333 C44.7897119,13.1770833 44.8942387,12.7083333 44.8942387,12.2395833 C44.8942387,11.7708333 44.7897119,11.3020833 44.6329218,10.8333333 C44.4761317,10.3645833 44.2148148,9.94791667 43.9534979,9.58333333 C43.6399177,9.21875 43.2740741,8.90625 42.8559671,8.69791667 C42.4378601,8.48958333 41.9152263,8.33333333 41.3925926,8.33333333 C40.8176955,8.33333333 40.2950617,8.4375 39.8769547,8.64583333 C39.4588477,8.85416667 39.0930041,9.16666667 38.7794239,9.53125 C38.518107,9.89583333 38.2567901,10.3125 38.1522634,10.78125 C38.0477366,11.25 37.9432099,11.71875 37.9432099,12.1875 L37.9432099,12.1875 Z M55.6082305,3.28125 L50.1728395,3.28125 L50.1728395,0.520833333 L64.2316872,0.520833333 L64.2316872,3.28125 L58.7962963,3.28125 L58.7962963,18.2291667 L55.6604938,18.2291667 L55.6604938,3.28125 L55.6082305,3.28125 Z M74.7366255,6.30208333 C75.3115226,6.5625 75.781893,6.92708333 76.0954733,7.39583333 C76.4613169,7.86458333 76.7226337,8.38541667 76.8794239,8.95833333 C77.036214,9.53125 77.1407407,10.15625 77.1407407,10.78125 L77.1407407,18.2291667 L74.109465,18.2291667 L74.109465,11.6145833 C74.109465,11.25 74.109465,10.8854167 74.0572016,10.5208333 C74.0049383,10.15625 73.9004115,9.79166667 73.7436214,9.47916667 C73.5868313,9.16666667 73.3777778,8.90625 73.0641975,8.69791667 C72.7506173,8.48958333 72.3847737,8.38541667 71.9144033,8.38541667 C71.4440329,8.38541667 71.0259259,8.48958333 70.6600823,8.64583333 C70.2942387,8.85416667 70.0329218,9.0625 69.7716049,9.375 C69.5625514,9.6875 69.3534979,10.0520833 69.2489712,10.4166667 C69.1444444,10.78125 69.0921811,11.1979167 69.0921811,11.6145833 L69.0921811,18.2291667 L66.0609053,18.2291667 L66.0609053,0.104166667 L69.0921811,0.104166667 L69.0921811,7.91666667 L69.1444444,7.91666667 C69.2489712,7.65625 69.4580247,7.39583333 69.6670782,7.1875 C69.8761317,6.92708333 70.1374486,6.71875 70.4510288,6.5625 C70.7646091,6.40625 71.0781893,6.19791667 71.4962963,6.09375 C71.8621399,5.98958333 72.2802469,5.9375 72.7506173,5.9375 C73.4823045,5.88541667 74.1617284,5.98958333 74.7366255,6.30208333 L74.7366255,6.30208333 Z M80.38107,18.2291667 L83.4123457,18.2291667 L83.4123457,6.25 L80.38107,6.25 L80.38107,18.2291667 Z M79.962963,2.13541667 C79.962963,1.66666667 80.1197531,1.25 80.4855967,0.885416667 C80.8514403,0.520833333 81.3218107,0.364583333 81.8444444,0.364583333 C82.3670782,0.364583333 82.8374486,0.520833333 83.2555556,0.885416667 C83.6213992,1.25 83.8304527,1.66666667 83.8304527,2.1875 C83.8304527,2.70833333 83.6213992,3.125 83.2555556,3.48958333 C82.8897119,3.85416667 82.4193416,4.01041667 81.8444444,4.01041667 C81.2695473,4.01041667 80.8514403,3.85416667 80.4855967,3.48958333 C80.1197531,3.07291667 79.962963,2.65625 79.962963,2.13541667 L79.962963,2.13541667 Z M93.9695473,9.42708333 C93.7082305,9.0625 93.3423868,8.75 92.8720165,8.48958333 C92.4016461,8.22916667 91.8790123,8.125 91.3563786,8.125 C90.8860082,8.125 90.4156379,8.22916667 90.0497942,8.4375 C89.6316872,8.64583333 89.4226337,8.95833333 89.4226337,9.42708333 C89.4226337,9.89583333 89.6316872,10.2083333 90.1020576,10.4166667 C90.5201646,10.625 91.1995885,10.78125 92.0358025,10.9895833 C92.5061728,11.09375 92.9242798,11.1979167 93.3946502,11.40625 C93.8650206,11.6145833 94.2831276,11.7708333 94.6489712,12.0833333 C95.0148148,12.3958333 95.3283951,12.7083333 95.5897119,13.125 C95.8510288,13.5416667 95.9555556,14.0104167 95.9555556,14.6354167 C95.9555556,15.3645833 95.7987654,15.9895833 95.5374486,16.5104167 C95.2761317,17.03125 94.9102881,17.4479167 94.4399177,17.7604167 C93.9695473,18.0729167 93.4469136,18.28125 92.8197531,18.4375 C92.1925926,18.59375 91.5654321,18.6458333 90.9382716,18.6458333 C89.9975309,18.6458333 89.1090535,18.4895833 88.2205761,18.125 C87.3320988,17.7604167 86.6004115,17.2916667 86.0255144,16.6666667 L88.0115226,14.7916667 C88.3251029,15.2083333 88.7954733,15.5729167 89.318107,15.8854167 C89.8407407,16.1458333 90.4679012,16.3020833 91.0950617,16.3020833 C91.3041152,16.3020833 91.5131687,16.3020833 91.7744856,16.25 C91.9835391,16.1979167 92.1925926,16.1458333 92.4016461,15.9895833 C92.6106996,15.8333333 92.7674897,15.7291667 92.8720165,15.5729167 C92.9765432,15.3645833 93.0288066,15.15625 93.0288066,14.8958333 C93.0288066,14.375 92.8197531,14.0625 92.3493827,13.8020833 C91.8790123,13.5416667 91.1995885,13.3854167 90.2588477,13.1770833 C89.7884774,13.0729167 89.3703704,12.96875 88.9522634,12.8125 C88.5341564,12.65625 88.1683128,12.4479167 87.8024691,12.1875 C87.4888889,11.9270833 87.1753086,11.6145833 87.0185185,11.25 C86.8617284,10.8854167 86.7049383,10.4166667 86.7049383,9.84375 C86.7049383,9.16666667 86.8617284,8.59375 87.1230453,8.125 C87.3843621,7.65625 87.7502058,7.23958333 88.2205761,6.92708333 C88.6909465,6.61458333 89.1613169,6.40625 89.736214,6.25 C90.3111111,6.09375 90.8860082,6.04166667 91.5131687,6.04166667 C92.4016461,6.04166667 93.2378601,6.19791667 94.0740741,6.51041667 C94.9102881,6.82291667 95.5374486,7.29166667 96.0600823,7.86458333 L93.9695473,9.42708333 Z" id="Fill-3"></path>
                </g>
                <g id="Group-8" transform="translate(30.835391, 3.645833)">
                    <mask id="mask-2" fill="white">
                        <use xlink:href="#path-1"></use>
                    </mask>
                    <g id="Clip-7"></g>
                    <polygon id="Fill-6" fill="#FFFFFF" mask="url(#mask-2)" points="-124.386831 1727.60417 502.773663 1727.60417 502.773663 -95.3125 -124.386831 -95.3125"></polygon>
                </g>
                <path d="M18.8148148,14.0625 L14.1111111,14.0625 L14.1111111,18.75 L10.9753086,18.75 L10.9753086,14.0625 L6.27160494,14.0625 L6.27160494,10.9375 L10.9753086,10.9375 L10.9753086,6.25 L14.1111111,6.25 L14.1111111,10.9375 L18.8148148,10.9375 L18.8148148,14.0625 Z M21.9506173,0 L3.13580247,0 C1.41111111,0 0,1.40625 0,3.125 L0,21.875 C0,23.59375 1.41111111,25 3.13580247,25 L21.9506173,25 C23.6753086,25 25.0864198,23.59375 25.0864198,21.875 L25.0864198,3.125 C25.0864198,1.40625 23.6753086,0 21.9506173,0 L21.9506173,0 Z" id="Fill-9" fill="#FFFFFF"></path>
            </g>
        </g>
    </g>
</svg>