<?xml version="1.0" encoding="UTF-8"?>
<svg width="21px" height="24px" viewBox="0 0 21 24" version="1.1" xmlns="http://www.w3.org/2000/svg" xmlns:xlink="http://www.w3.org/1999/xlink">
    <!-- Generator: Sketch 59.1 (86144) - https://sketch.com -->
    <title>icon-apple</title>
    <desc>Created with Sketch.</desc>
    <g id="Page-1" stroke="none" stroke-width="1" fill="none" fill-rule="evenodd">
        <g id="get.cryptobrowser_site-download-btn-first-block" transform="translate(-756.000000, -608.000000)" fill="#FFFFFF" fill-rule="nonzero">
            <g id="first" transform="translate(30.000000, 150.000000)">
                <g id="btn-desktop" transform="translate(630.000000, 441.000000)">
                    <g id="up-mac">
                        <path d="M113.540933,29.752548 C113.576192,33.3831693 116.960991,34.5891266 117,34.607126 C116.969243,34.6888731 116.457622,36.328315 115.213828,38.021005 C114.138074,39.4827032 113.024811,40.9384016 111.267897,40.9676505 C109.540239,40.9983994 108.985108,40.0144343 107.009891,40.0144343 C105.035425,40.0144343 104.418779,40.9384016 102.784894,40.9983994 C101.090243,41.0583973 99.7984385,39.4204554 98.7136824,37.962507 C96.4976591,34.9821127 94.8052595,29.5410555 97.0797966,25.8691857 C98.2073128,24.0452503 100.224539,22.8902912 102.415056,22.8595423 C104.08045,22.8317933 105.653571,23.9050053 106.670061,23.9050053 C107.689552,23.9050053 109.600253,22.615801 111.607727,22.8047943 C112.448675,22.8370431 114.809483,23.1197831 116.32409,25.18146 C116.204812,25.2542075 113.507175,26.7121558 113.540933,29.752548 Z M106.467513,22.531054 C106.271717,21.1518528 107.001639,19.7179037 107.835836,18.8171856 C108.766806,17.8024716 110.337677,17.0479983 111.634733,17 C111.800522,18.4054502 111.192129,19.8161502 110.292666,20.8316142 C109.391704,21.8455783 107.914605,22.6353003 106.467513,22.531054 Z" id="icon-apple"></path>
                    </g>
                </g>
            </g>
        </g>
    </g>
</svg>