<svg xmlns="http://www.w3.org/2000/svg" viewBox="0 0 1035.53 296.95"><defs><style>.cls-1{fill:#333;}</style></defs><title>Asset 16</title><g id="Layer_2" data-name="Layer 2"><g id="Layer_4" data-name="Layer 4"><g id="Layer_2-2" data-name="Layer 2"><g id="Layer_1-2" data-name="Layer 1-2"><path class="cls-1" d="M128.4,9.54l-28.53-8a44.14,44.14,0,0,0-54.2,30.87l-.06.21L38.05,61.46A141.72,141.72,0,0,1,128.4,9.54"/><path class="cls-1" d="M288,128.65l7.8-28.95a44,44,0,0,0-31.53-53.62l-28.86-7.59a141.31,141.31,0,0,1,52.31,90.16"/><path class="cls-1" d="M9.52,168.75l-8,28.81a44,44,0,0,0,31.1,54h0l28.86,7.74A141.31,141.31,0,0,1,9.24,169.13"/><path class="cls-1" d="M168.72,287.72l28.86,7.74a44.14,44.14,0,0,0,54-31.08l7.75-28.81A141.71,141.71,0,0,1,169,287.77"/></g></g><path class="cls-1" d="M182.23,23.8l-.1,0c-69.06-18.44-140,22.49-158.48,91.4s22.53,139.73,91.59,158.17,139.87-22.4,158.43-91.21S251.29,42.33,182.23,23.8ZM132.36,88.07l4.59-15.67a26.19,26.19,0,0,1,32.47-17.75l16.33,4.76a26.12,26.12,0,0,1,17.79,32.41L199,107.49a6.23,6.23,0,0,1-3.67,4l-35.1,18.62A6.24,6.24,0,0,1,152.8,128L133.28,93.43A6.21,6.21,0,0,1,132.36,88.07ZM91,166.51l-15.7-4.58a26.12,26.12,0,0,1-17.79-32.41l4.77-16.3A26.19,26.19,0,0,1,94.8,95.47L110.5,100a6.23,6.23,0,0,1,4,3.66l18.66,35a6.22,6.22,0,0,1-2.16,7.37L96.42,165.59A6.25,6.25,0,0,1,91,166.51Zm78.6,41.24-4.59,15.67a26.19,26.19,0,0,1-32.47,17.75l-16.33-4.76A26.12,26.12,0,0,1,98.46,204L103,188.32a6.23,6.23,0,0,1,3.67-4l35.1-18.62a6.24,6.24,0,0,1,7.39,2.15l19.52,34.56A6.21,6.21,0,0,1,169.64,207.74Zm74.8-41.45-4.77,16.3a26.19,26.19,0,0,1-32.47,17.75l-15.7-4.58a6.23,6.23,0,0,1-4-3.66l-18.66-35A6.22,6.22,0,0,1,171,149.7l34.63-19.49a6.24,6.24,0,0,1,5.38-.91l15.7,4.58A26.12,26.12,0,0,1,244.44,166.29Z"/><path class="cls-1" d="M831.73,102.11H696.31v71.4h0v40.94l47.37,43.06v-107c0-16.08,28.48-16.59,28.48,0V257.57h41l-.92-106.71c0-17.49,25.79-19.4,25.79,0l1,106.65h41V167.07C880.07,115.83,846.88,104,831.73,102.11Z"/><path class="cls-1" d="M1035.53,156.61q0-22.75-12.2-37.45-14-17.33-39.24-17.33H893.88v26.56h0V205h0c.13,12.19,8.89,52.73,65.76,52.73h71l-39.55-41.36H964.56c-15.88,0-26-1.55-29.92-16.52h100.89Zm-97.24,9V139.82h36.29c7.61.36,20.11,7.15,20.11,25.74Z"/><path class="cls-1" d="M540.88,202.95q0,22.75,12.2,37.45,14,17.33,39.24,17.33h90.21V231.17h0V154.56h0c-.13-12.19-8.89-52.73-65.76-52.73h-71l39.55,41.36h26.51c15.88,0,26,1.55,29.92,16.52H540.88Zm97.24-9v25.74H601.84c-7.61-.36-20.11-7.15-20.11-25.74Z"/><path class="cls-1" d="M479.22,187.52"/><path class="cls-1" d="M456.21,179.66l27.32-33.49,43.1,41.21v69.41H432.11c-41.81,0-57.38-27.58-57.38-66.74V143.23q0-30.89,21.21-48s11.06-9.48,39.56-9.48h28.55v.05l23.79-.05,40.39,43H441.68c-17,2-21.73,6.27-21.73,20.41v64.73l57.69-.23h3.21V200.5Z"/></g></g></svg>