<svg width="449" height="400" viewBox="0 0 449 400" fill="none" xmlns="http://www.w3.org/2000/svg">
<path d="M367.256 282.715C347.21 283.955 325.645 284.902 303.269 285.555C305.763 278.23 307.882 270.783 309.618 263.242C314.32 242.571 316.668 221.435 316.618 200.236L388.218 200.285C388.17 230.061 380.944 258.22 367.256 282.715Z" fill="white"/>
<path d="M316.616 200.236L224.5 200.172C224.52 170.791 224.54 141.409 224.559 113.715C251.189 113.733 277.818 114.134 303.388 114.915C311.726 139.348 316.646 168.751 316.616 200.236Z" fill="white"/>
<path d="M303.269 285.555C277.699 286.301 251.069 286.666 224.44 286.648C224.459 258.948 224.48 229.561 224.5 200.172L316.616 200.236C316.666 221.435 314.318 242.571 309.616 263.242C307.881 270.783 305.762 278.23 303.269 285.555Z" fill="#E2F5FA"/>
<path d="M316.616 200.236C316.646 168.752 311.726 139.348 303.388 114.916C325.763 115.6 347.326 116.577 367.367 117.845C381.018 142.361 388.207 170.51 388.213 200.285L316.616 200.236Z" fill="#E2F5FA"/>
<path d="M367.256 282.715C339.462 333.158 284.12 363.455 224.386 362.978C256.13 363.06 285.999 335.632 303.269 285.555C325.645 284.9 347.21 283.955 367.256 282.715Z" fill="#E2F5FA"/>
<path d="M224.61 37.3682C256.355 37.3232 286.189 64.8112 303.388 114.916C277.818 114.134 251.188 113.733 224.559 113.716C224.578 86.0152 224.6 60.0002 224.61 37.3682Z" fill="#E2F5FA"/>
<path d="M303.388 114.916C286.188 64.8158 256.355 37.3228 224.61 37.3678C284.365 36.9608 339.667 67.3628 367.367 117.845C347.326 116.577 325.763 115.6 303.388 114.916Z" fill="white"/>
<path d="M303.269 285.555C286 335.634 256.13 363.06 224.386 362.978C224.402 340.347 224.42 314.341 224.44 286.648C251.07 286.666 277.7 286.3 303.269 285.555Z" fill="white"/>
<path d="M224.559 113.715C224.54 141.409 224.52 170.791 224.5 200.172L132.38 200.109C132.393 168.623 137.355 139.227 145.709 114.809C171.286 114.06 197.923 113.7 224.559 113.715Z" fill="#E2F5FA"/>
<path d="M224.61 37.3679C224.595 60.0029 224.578 86.0149 224.559 113.715C197.923 113.697 171.286 114.06 145.709 114.807C163 64.7259 192.848 37.2839 224.61 37.3679Z" fill="white"/>
<path d="M224.61 37.3679C192.848 37.2839 162.996 64.7269 145.71 114.807C123.339 115.459 101.778 116.407 81.736 117.644C109.515 67.1999 164.858 36.8899 224.61 37.3679Z" fill="#E2F5FA"/>
<path d="M224.386 362.978C192.641 363.024 162.809 335.553 145.609 285.448C171.18 286.23 197.809 286.63 224.44 286.648C224.42 314.341 224.4 340.347 224.386 362.978Z" fill="#E2F5FA"/>
<path d="M145.709 114.807C137.355 139.227 132.393 168.623 132.38 200.107L60.774 200.058C60.818 170.28 68.045 142.138 81.735 117.642C101.777 116.405 123.338 115.46 145.709 114.807Z" fill="white"/>
<path d="M145.609 285.448C137.271 261.017 132.35 231.594 132.38 200.109L224.5 200.172C224.48 229.56 224.459 258.948 224.44 286.648C197.81 286.63 171.18 286.23 145.609 285.448Z" fill="white"/>
<path d="M145.609 285.448C162.809 335.548 192.641 363.024 224.386 362.978C164.63 363.385 109.345 333 81.624 282.52C101.668 283.788 123.233 284.764 145.609 285.448Z" fill="white"/>
<path d="M81.624 282.52C67.971 258 60.78 229.837 60.774 200.06L132.38 200.109C132.35 231.594 137.271 261.016 145.609 285.448C123.233 284.764 101.668 283.788 81.624 282.52Z" fill="#E2F5FA"/>
<path d="M225.8 363.484C225.326 363.484 224.862 363.484 224.387 363.478C163.666 363.878 108.757 332.963 81.187 282.761C67.512 258.206 60.281 229.607 60.276 200.061C60.319 170.519 67.588 141.936 81.299 117.401C108.923 67.242 163.872 36.401 224.615 36.869C285.339 36.469 340.254 67.392 367.806 117.606C381.477 142.156 388.706 170.748 388.714 200.286C388.671 229.838 381.403 258.426 367.693 282.959C340.276 332.718 285.993 363.484 225.8 363.484ZM224.388 362.478C224.856 362.478 225.326 362.484 225.793 362.484C285.638 362.484 339.58 331.919 366.823 282.474C380.451 258.087 387.676 229.667 387.723 200.285C387.716 170.917 380.53 142.494 366.94 118.085C339.746 68.523 285.749 37.86 225.821 37.86C225.421 37.86 225.021 37.86 224.621 37.86C164.244 37.397 109.628 68.038 82.18 117.877C68.551 142.266 61.325 170.677 61.28 200.052C61.285 229.429 68.472 257.86 82.066 282.269C109.452 332.159 163.977 362.881 224.383 362.478H224.388Z" fill="#0055DC"/>
<path d="M225.8 363.984C225.325 363.984 224.859 363.984 224.383 363.978C223.983 363.978 223.577 363.978 223.175 363.978C162.721 363.978 108.225 333.029 80.752 282.997C67.033 258.375 59.78 229.692 59.775 200.06C59.818 170.432 67.11 141.76 80.862 117.16C108.356 67.2318 162.807 36.3628 223.2 36.3628C223.675 36.3628 224.143 36.3628 224.619 36.3678C285.604 35.9678 340.604 66.9888 368.244 117.368C381.955 141.99 389.207 170.668 389.214 200.289C389.171 229.926 381.88 258.598 368.129 283.205C340.625 333.119 286.175 363.984 225.8 363.984ZM224.384 361.978C284.64 362.448 339.017 331.902 366.384 282.233C379.973 257.917 387.176 229.581 387.218 200.284C387.211 171.002 380.046 142.663 366.498 118.332C339.39 68.9318 285.561 38.3638 225.816 38.3638C225.416 38.3638 225.022 38.3638 224.622 38.3638C164.369 37.8808 109.973 68.4438 82.616 118.122C69.026 142.44 61.822 170.771 61.78 200.057C61.785 229.348 68.951 257.695 82.503 282.03C109.625 331.422 163.456 361.978 223.19 361.978C223.585 361.982 223.979 361.981 224.379 361.978H224.384Z" fill="#0055DC"/>
<path d="M293.39 105.086L291.757 103.931C305.581 84.3958 364.467 57.5098 382.127 57.5098H382.216C384.955 57.5238 386.716 58.1528 387.604 59.4318C390.837 64.1018 387.535 72.5318 377.791 84.4838C370.381 93.5748 361.579 101.722 359.454 103.197L358.314 101.555C363.201 98.1548 392.155 69.5178 385.959 60.5708C385.493 59.8968 384.159 59.5198 382.205 59.5098H382.118C364.783 59.5098 306.963 85.9048 293.39 105.086Z" fill="url(#paint0_linear)"/>
<path d="M307.344 90.549C307.189 87.2196 307.026 83.9219 306.855 80.6559C309.737 79.1379 312.598 77.6353 315.437 76.1479C318.468 77.8919 321.488 79.6496 324.496 81.4209C324.689 84.6829 324.874 87.9749 325.05 91.2969C322.219 92.8209 319.365 94.3599 316.488 95.9139C313.452 94.1146 310.404 92.3263 307.344 90.549Z" fill="#FBAD40"/>
<path d="M317.035 96.928L315.9 96.906C312.867 95.106 309.822 93.3193 306.765 91.546L306.193 90.603C306.037 87.2763 305.874 83.9806 305.704 80.716L306.318 79.636C309.201 78.118 312.063 76.615 314.902 75.127L316.011 75.149C319.046 76.895 322.069 78.6546 325.08 80.428L325.646 81.352C325.839 84.6186 326.024 87.9133 326.201 91.236L325.596 92.312C322.766 93.8373 319.912 95.376 317.035 96.928ZM308.466 89.868C311.157 91.434 313.839 93.0083 316.514 94.591C318.981 93.2576 321.43 91.937 323.861 90.629C323.707 87.7623 323.547 84.92 323.381 82.102C320.735 80.5453 318.078 78.999 315.41 77.463C312.971 78.741 310.515 80.0306 308.044 81.332C308.191 84.154 308.332 86.9993 308.466 89.868Z" fill="#F6821F"/>
<path d="M380.39 343.207C368.598 343.207 338.916 327.007 304.568 307.537C295.949 302.65 288.503 298.43 283.45 295.819L284.368 294.042C289.456 296.671 296.916 300.9 305.554 305.797C320.414 314.22 338.909 324.704 354.244 332.064C376.923 342.948 382.251 341.876 383.41 340.264L383.51 340.149C383.886 339.712 384.161 339.198 384.315 338.642C384.468 338.087 384.497 337.504 384.398 336.936C383.498 326.022 359.617 301.347 357.559 299.836L358.741 298.222C361.022 299.893 385.405 324.771 386.391 336.769C386.514 337.611 386.453 338.469 386.211 339.284C385.969 340.1 385.553 340.853 384.991 341.491C384.109 342.664 382.549 343.207 380.39 343.207Z" fill="url(#paint1_linear)"/>
<path d="M327.813 309.057C327.63 312.376 327.438 315.666 327.236 318.929C324.236 320.7 321.223 322.458 318.196 324.201C315.37 322.713 312.522 321.211 309.653 319.694C309.833 316.427 310.005 313.131 310.169 309.805C313.223 308.029 316.265 306.242 319.295 304.443C322.158 305.997 324.998 307.535 327.813 309.057Z" fill="#FBAD40"/>
<path d="M317.659 325.22C314.833 323.732 311.985 322.23 309.115 320.713L308.502 319.631C308.683 316.369 308.855 313.075 309.018 309.748L309.59 308.809C312.641 307.035 315.68 305.25 318.707 303.452L319.845 303.43C322.706 304.984 325.544 306.522 328.361 308.044L328.961 309.121C328.779 312.443 328.587 315.736 328.385 319L327.821 319.922C324.816 321.694 321.799 323.453 318.769 325.199L317.659 325.22ZM310.844 319.02C313.302 320.32 315.744 321.609 318.17 322.885C320.83 321.352 323.481 319.806 326.124 318.247C326.297 315.429 326.464 312.587 326.624 309.723C324.207 308.416 321.773 307.098 319.324 305.768C316.657 307.35 313.98 308.923 311.292 310.487C311.148 313.354 310.999 316.198 310.844 319.02Z" fill="#F6821F"/>
<path d="M251.523 101.55C251.511 100.904 251.479 99.711 251.435 98.064C249.828 38.433 251.414 5.728 256.15 0.864C256.383 0.599738 256.668 0.386544 256.987 0.237846C257.306 0.0891471 257.653 0.00816521 258.005 0V0C258.754 0.0348063 259.486 0.243253 260.141 0.6089C260.796 0.974547 261.357 1.4874 261.78 2.107C265.18 6.353 266.639 16.386 267.204 21.989C267.984 29.709 267.988 37.811 267.215 41.255L265.264 40.817C266.67 34.55 265.384 9.803 260.22 3.358C259.98 2.97763 259.656 2.65741 259.272 2.42198C258.889 2.18656 258.457 2.04219 258.009 2C257.842 2.03281 257.692 2.12304 257.585 2.255C255.14 4.769 251.35 20.555 253.436 98.01C253.481 99.665 253.513 100.864 253.525 101.51L251.523 101.55Z" fill="url(#paint2_linear)"/>
<path d="M239.651 78.7128C239.6 74.3021 239.545 69.9631 239.488 65.6958C243.574 63.5891 247.632 61.5128 251.662 59.4668C255.795 61.6068 259.944 63.7785 264.107 65.9818C264.251 70.2485 264.388 74.5875 264.517 78.9988C260.455 81.1321 256.363 83.2958 252.241 85.4898C248.033 83.2031 243.836 80.9441 239.651 78.7128Z" fill="#FBAD40"/>
<path d="M252.971 86.863L251.498 86.856C247.294 84.572 243.101 82.3153 238.919 80.086L238.096 78.732C238.044 74.3207 237.989 69.9823 237.932 65.717L238.775 64.317C242.864 62.2083 246.925 60.1307 250.958 58.084H252.377C256.541 60.238 260.733 62.432 264.835 64.605L265.662 65.927C265.806 70.1937 265.943 74.5353 266.072 78.952L265.241 80.374C261.181 82.5087 257.091 84.6716 252.971 86.863ZM241.2 77.774C244.872 79.736 248.556 81.7193 252.251 83.724C255.835 81.8187 259.397 79.9353 262.937 78.074C262.826 74.3093 262.709 70.5963 262.586 66.935C258.98 65.028 255.312 63.108 251.659 61.216C248.148 62.9993 244.614 64.8067 241.059 66.638C241.106 70.2953 241.153 74.0073 241.2 77.774Z" fill="#F6821F"/>
<path d="M258.213 400C258.073 400 257.933 399.992 257.794 399.976C257.132 399.957 256.503 399.681 256.04 399.207C252.865 396.186 251.026 381.999 250.576 357.041C250.27 338.407 250.896 315.288 251.232 302.868C251.324 299.454 251.397 296.759 251.427 295.056L253.427 295.091C253.397 296.799 253.327 299.5 253.227 302.922C252.891 315.327 252.267 338.422 252.572 357.006C253.172 390.198 256.157 396.562 257.415 397.758C257.521 397.872 257.662 397.948 257.815 397.976L257.984 397.985C258.225 398.018 258.954 398.12 259.906 397.074C262.154 394.609 264.011 387.722 265 378.18C265.867 369.812 265.783 361.97 265.207 359.504L267.154 359.05C267.869 362.108 267.796 370.602 266.989 378.386C266.383 384.238 264.849 394.623 261.384 398.422C261 398.898 260.518 399.285 259.971 399.557C259.424 399.83 258.824 399.981 258.213 400Z" fill="url(#paint3_linear)"/>
<path d="M239.5 321.26C239.448 325.672 239.393 330.011 239.336 334.277C243.422 336.384 247.48 338.461 251.51 340.506C255.643 338.367 259.792 336.196 263.956 333.992C264.1 329.725 264.237 325.386 264.366 320.974C260.304 318.841 256.212 316.677 252.089 314.484C247.883 316.77 243.687 319.029 239.5 321.26Z" fill="#FBAD40"/>
<path d="M250.808 341.893C246.777 339.847 242.716 337.769 238.625 335.66L237.783 334.26C237.84 329.998 237.895 325.659 237.947 321.245L238.771 319.891C242.951 317.662 247.143 315.405 251.348 313.12L252.822 313.114C256.941 315.305 261.03 317.467 265.091 319.6L265.922 321.022C265.793 325.436 265.656 329.777 265.512 334.047L264.686 335.369C260.609 337.529 256.416 339.723 252.227 341.891L250.808 341.893ZM240.908 333.336C244.461 335.166 247.994 336.974 251.508 338.758C255.181 336.858 258.85 334.935 262.436 333.039C262.559 329.379 262.676 325.666 262.787 321.899C259.248 320.039 255.687 318.156 252.102 316.25C248.41 318.254 244.726 320.237 241.05 322.199C241.003 325.965 240.956 329.678 240.907 333.336H240.908Z" fill="#F6821F"/>
<path d="M388.1 179.55L387.883 177.562C406.796 175.498 427.044 171.83 429.646 168.285C429.846 168.011 429.819 167.871 429.809 167.818L429.799 167.674C428.899 166.336 418.782 163.736 386.325 162.333C366.189 161.375 341.695 161.166 328.536 161.054C325.393 161.027 322.955 161.007 321.458 160.982L321.49 158.982C322.984 159.006 325.416 159.027 328.553 159.053C341.726 159.165 366.246 159.374 386.415 160.334C401.755 160.997 427.99 162.658 431.278 166.334C431.592 166.663 431.774 167.095 431.79 167.55C431.835 167.889 431.811 168.234 431.719 168.564C431.628 168.895 431.471 169.203 431.258 169.471C427.277 174.888 397.215 178.555 388.1 179.55ZM429.791 167.557C429.789 167.586 429.791 167.615 429.797 167.643L429.791 167.557Z" fill="url(#paint4_linear)"/>
<path d="M321.379 244.294L321.348 242.294C322.802 242.271 325.148 242.251 328.16 242.225C341.36 242.112 365.929 241.902 386.213 240.911C418.773 239.469 428.904 236.745 429.76 235.48L429.769 235.337C429.779 235.289 429.804 235.161 429.624 234.91C426.6 230.693 399.364 227.097 390.413 225.91C389.221 225.753 388.23 225.622 387.498 225.519L387.776 223.538C388.504 223.638 389.49 223.771 390.676 223.927C408.994 226.346 428.141 229.403 431.25 233.74C431.452 234.002 431.6 234.302 431.686 234.622C431.772 234.941 431.793 235.275 431.75 235.603C431.734 236.058 431.551 236.49 431.237 236.819C427.914 240.529 401.659 242.224 386.305 242.904C365.986 243.897 341.39 244.104 328.176 244.22C325.169 244.251 322.83 244.271 321.379 244.294ZM429.758 235.511C429.752 235.539 429.75 235.568 429.752 235.597L429.758 235.511Z" fill="url(#paint5_linear)"/>
<path d="M364.984 168.2C364.912 163.474 364.823 158.762 364.716 154.063C360.983 151.575 357.19 149.078 353.339 146.574C349.615 148.786 345.838 151.026 342.008 153.294C342.113 158.061 342.202 162.846 342.273 167.649C346.194 170.133 350.063 172.606 353.88 175.068C357.639 172.752 361.341 170.463 364.984 168.2Z" fill="#FBAD40"/>
<path d="M354.7 176.392L353.041 176.375C349.229 173.917 345.364 171.446 341.446 168.963L340.722 167.673C340.65 162.873 340.562 158.091 340.457 153.328L341.219 151.956C345.048 149.689 348.824 147.449 352.549 145.237L354.191 145.27C358.012 147.755 361.845 150.278 365.582 152.77L366.275 154.029C366.382 158.73 366.471 163.446 366.544 168.176L365.809 169.522C362.162 171.785 358.459 174.075 354.7 176.392ZM343.821 166.785C347.221 168.941 350.582 171.089 353.903 173.229C357.118 171.247 360.29 169.285 363.419 167.343C363.352 163.187 363.274 159.042 363.183 154.909C359.934 152.747 356.619 150.564 353.305 148.409C350.105 150.31 346.866 152.231 343.587 154.173C343.674 158.361 343.751 162.565 343.817 166.785H343.821Z" fill="#F6821F"/>
<path d="M364.58 249.466C364.7 244.777 364.803 240.071 364.889 235.349C361.252 233.093 357.557 230.809 353.804 228.498C349.982 230.959 346.106 233.432 342.177 235.916C342.091 240.71 341.989 245.487 341.871 250.248C345.692 252.51 349.462 254.743 353.181 256.948C357.036 254.449 360.836 251.955 364.58 249.466Z" fill="#FBAD40"/>
<path d="M352.387 258.288C348.67 256.082 344.901 253.848 341.078 251.588L340.316 250.21C340.435 245.456 340.537 240.682 340.621 235.889L341.346 234.602C345.269 232.122 349.141 229.651 352.962 227.191L354.619 227.174C358.373 229.486 362.07 231.77 365.709 234.028L366.445 235.378C366.358 240.102 366.255 244.812 366.135 249.507L365.442 250.763C361.7 253.25 357.86 255.771 354.027 258.256L352.387 258.288ZM343.449 249.374C346.716 251.307 349.947 253.222 353.144 255.119C356.468 252.961 359.791 250.779 363.044 248.619C363.148 244.494 363.239 240.356 363.316 236.206C360.194 234.268 357.027 232.312 353.816 230.337C350.487 232.477 347.119 234.626 343.71 236.783C343.637 240.994 343.55 245.191 343.449 249.374Z" fill="#F6821F"/>
<path d="M155.61 105.086C142.039 85.9078 84.222 59.5098 66.881 59.5098H66.8C64.845 59.5198 63.512 59.8968 63.045 60.5708C56.845 69.5178 85.8 98.1598 90.686 101.555L89.545 103.2C87.42 101.725 78.618 93.5778 71.208 84.4868C61.464 72.5298 58.162 64.0998 61.4 59.4318C62.286 58.1528 64.048 57.5238 66.789 57.5098H66.876C84.534 57.5098 143.423 84.3958 157.247 103.931L155.61 105.086Z" fill="url(#paint6_linear)"/>
<path d="M141.656 90.549C141.811 87.2196 141.974 83.9219 142.145 80.6559C139.263 79.1379 136.402 77.6353 133.563 76.1479C130.532 77.8919 127.513 79.6496 124.504 81.4209C124.311 84.6829 124.127 87.9749 123.95 91.2969C126.781 92.8209 129.635 94.3599 132.512 95.9139C135.548 94.1146 138.596 92.3263 141.656 90.549Z" fill="#FBAD40"/>
<path d="M131.964 96.928C129.088 95.374 126.235 93.8353 123.405 92.312L122.8 91.237C122.976 87.913 123.161 84.618 123.354 81.352L123.919 80.428C126.931 78.6553 129.954 76.8956 132.989 75.149L134.098 75.127C136.937 76.615 139.798 78.118 142.683 79.636L143.296 80.716C143.125 83.9793 142.962 87.275 142.807 90.603L142.235 91.546C139.179 93.3206 136.134 95.1073 133.1 96.906L131.964 96.928ZM125.14 90.628C127.572 91.9366 130.021 93.2573 132.486 94.59C135.159 93.0073 137.842 91.433 140.534 89.867C140.667 87.0003 140.808 84.155 140.956 81.331C138.485 80.0303 136.03 78.7406 133.589 77.462C130.922 78.9953 128.265 80.5416 125.618 82.101C125.452 84.9216 125.293 87.7643 125.14 90.629V90.628Z" fill="#F6821F"/>
<path d="M68.609 343.207C66.45 343.207 64.891 342.664 64.009 341.499C63.4467 340.86 63.0301 340.107 62.7883 339.292C62.5466 338.476 62.4854 337.618 62.609 336.776C63.597 324.776 87.979 299.901 90.26 298.23L91.442 299.844C89.384 301.35 65.5 326.021 64.602 336.944C64.5034 337.512 64.5319 338.094 64.6854 338.65C64.839 339.206 65.1138 339.72 65.49 340.157L65.59 340.272C66.749 341.88 72.077 342.953 94.754 332.072C110.09 324.712 128.583 314.229 143.444 305.805C152.083 300.905 159.544 296.678 164.634 294.049L165.552 295.826C160.497 298.437 153.052 302.658 144.43 307.545C110.084 327.007 80.4 343.207 68.609 343.207Z" fill="url(#paint7_linear)"/>
<path d="M121.187 309.057C121.37 312.376 121.563 315.666 121.764 318.929C124.764 320.7 127.777 322.458 130.804 324.201C133.63 322.713 136.478 321.211 139.347 319.694C139.167 316.427 138.995 313.131 138.831 309.805C135.777 308.029 132.735 306.242 129.705 304.443C126.842 305.997 124.002 307.535 121.187 309.057Z" fill="#FBAD40"/>
<path d="M131.341 325.22L130.229 325.199C127.2 323.454 124.183 321.695 121.178 319.922L120.614 319C120.414 315.738 120.221 312.445 120.036 309.121L120.636 308.044C123.451 306.522 126.29 304.984 129.153 303.43L130.29 303.452C133.316 305.248 136.355 307.034 139.406 308.809L139.979 309.748C140.142 313.074 140.314 316.368 140.494 319.631L139.883 320.713C137.015 322.231 134.168 323.733 131.341 325.22ZM122.876 318.247C125.517 319.804 128.168 321.35 130.829 322.885C133.255 321.609 135.697 320.32 138.156 319.02C138.002 316.2 137.853 313.355 137.71 310.487C135.024 308.922 132.347 307.349 129.68 305.768C127.229 307.102 124.795 308.42 122.38 309.723C122.538 312.587 122.703 315.428 122.876 318.247Z" fill="#F6821F"/>
<path d="M197.478 101.55L195.478 101.514C195.49 100.861 195.523 99.654 195.568 97.987C197.651 20.547 193.861 4.768 191.416 2.255C191.31 2.12272 191.16 2.03238 190.993 2C190.544 2.0416 190.111 2.18569 189.727 2.42114C189.343 2.6566 189.019 2.97712 188.778 3.358C183.614 9.803 182.328 34.55 183.734 40.817L181.783 41.255C181.01 37.811 181.014 29.709 181.793 21.989C182.359 16.389 183.815 6.353 187.217 2.107C187.64 1.48764 188.201 0.974951 188.856 0.609323C189.511 0.243695 190.242 0.0351116 190.991 0V0C191.343 0.00776427 191.689 0.0881629 192.009 0.236153C192.328 0.384144 192.614 0.596533 192.847 0.86C197.58 5.727 199.167 38.423 197.564 98.041C197.522 99.7 197.49 100.9 197.478 101.55Z" fill="url(#paint8_linear)"/>
<path d="M209.349 78.7128C209.4 74.3021 209.455 69.9631 209.512 65.6958C205.426 63.5891 201.368 61.5128 197.338 59.4668C193.205 61.6068 189.056 63.7785 184.893 65.9818C184.749 70.2485 184.612 74.5875 184.483 78.9988C188.545 81.1321 192.637 83.2958 196.759 85.4898C200.967 83.2031 205.164 80.9441 209.349 78.7128Z" fill="#FBAD40"/>
<path d="M196.029 86.8629C191.909 84.6716 187.819 82.5093 183.759 80.3759L182.928 78.9539C183.057 74.5406 183.193 70.1989 183.338 65.9289L184.164 64.6069C188.264 62.4339 192.464 60.2399 196.623 58.0859H198.042C202.074 60.1319 206.135 62.2096 210.225 64.3189L211.068 65.7189C211.011 69.9823 210.956 74.3206 210.905 78.7339L210.08 80.0879C205.901 82.3166 201.708 84.5733 197.501 86.8579L196.029 86.8629ZM186.066 78.0739C189.605 79.9346 193.166 81.8179 196.751 83.7239C200.445 81.7199 204.129 79.7366 207.804 77.7739C207.849 74.0086 207.895 70.2966 207.944 66.6379C204.389 64.8066 200.856 62.9993 197.344 61.2159C193.691 63.1079 190.022 65.0279 186.416 66.9349C186.294 70.5936 186.177 74.3066 186.066 78.0739Z" fill="#F6821F"/>
<path d="M190.785 400C190.169 399.981 189.565 399.829 189.014 399.554C188.463 399.279 187.978 398.888 187.592 398.408C181.707 391.932 180.519 364.595 181.831 359.063L183.777 359.525C183.192 361.99 183.1 369.825 183.971 378.191C184.961 387.707 186.821 394.586 189.071 397.063C190.033 398.12 190.771 398.018 191.009 397.985L191.178 397.976C191.208 397.976 191.331 397.976 191.534 397.788C194.958 394.532 195.428 368.427 195.629 357.28C196.015 333.758 195.723 303.465 195.573 295.091L197.573 295.056C197.723 303.438 198.015 333.765 197.629 357.314C197.135 384.725 195.813 396.479 192.912 399.238C192.46 399.697 191.848 399.962 191.204 399.976C191.065 399.992 190.925 400 190.785 400Z" fill="url(#paint9_linear)"/>
<path d="M209.5 321.26C209.552 325.672 209.607 330.011 209.664 334.277C205.578 336.384 201.52 338.461 197.49 340.506C193.357 338.367 189.208 336.196 185.044 333.992C184.9 329.725 184.763 325.386 184.634 320.974C188.696 318.841 192.788 316.677 196.911 314.484C201.117 316.77 205.313 319.029 209.5 321.26Z" fill="#FBAD40"/>
<path d="M198.192 341.893H196.773C192.542 339.704 188.35 337.51 184.314 335.371L183.488 334.049C183.344 329.783 183.207 325.441 183.077 321.025L183.909 319.602C187.968 317.469 192.058 315.307 196.178 313.116L197.652 313.122C201.852 315.407 206.045 317.664 210.23 319.893L211.053 321.247C211.106 325.659 211.161 329.997 211.218 334.262L210.375 335.662C206.285 337.769 202.224 339.846 198.192 341.893ZM186.567 333.039C190.121 334.919 193.79 336.839 197.494 338.758C201.005 336.974 204.538 335.167 208.094 333.336C208.045 329.679 207.998 325.967 207.953 322.199C204.28 320.238 200.596 318.255 196.901 316.25C193.317 318.154 189.755 320.037 186.216 321.899C186.327 325.665 186.444 329.378 186.567 333.039Z" fill="#F6821F"/>
<path d="M60.905 179.55C51.785 178.556 21.723 174.888 17.745 169.468C17.5325 169.2 17.3759 168.891 17.2845 168.561C17.1931 168.231 17.1688 167.886 17.213 167.547C17.2295 167.093 17.412 166.66 17.726 166.331C21.014 162.659 47.248 160.998 62.594 160.331C82.759 159.371 107.279 159.162 120.451 159.05C123.587 159.024 126.02 159.003 127.513 158.979L127.546 160.979C126.046 161.004 123.611 161.024 120.468 161.051C107.309 161.163 82.816 161.372 62.685 162.33C30.222 163.73 20.103 166.33 19.204 167.671L19.195 167.815C19.185 167.868 19.157 168.008 19.358 168.282C21.958 171.827 42.208 175.496 61.121 177.559L60.905 179.55ZM19.212 167.557L19.206 167.643C19.2118 167.615 19.2138 167.586 19.212 167.557Z" fill="url(#paint10_linear)"/>
<path d="M127.621 244.294C126.17 244.271 123.831 244.251 120.821 244.225C107.607 244.112 83.011 243.902 62.686 242.908C47.336 242.229 21.086 240.534 17.759 236.824C17.4448 236.495 17.262 236.062 17.245 235.608C17.1582 234.945 17.338 234.275 17.745 233.745C20.855 229.408 40.001 226.351 58.32 223.932C59.505 223.776 60.49 223.645 61.22 223.543L61.497 225.524C60.766 225.624 59.775 225.758 58.582 225.915C49.632 227.097 22.396 230.693 19.371 234.915C19.192 235.166 19.217 235.294 19.227 235.342L19.236 235.485C20.092 236.75 30.223 239.474 62.778 240.916C83.068 241.907 107.637 242.116 120.836 242.23C123.851 242.256 126.195 242.276 127.649 242.299L127.621 244.294ZM19.242 235.511V235.597C19.2453 235.568 19.2453 235.54 19.242 235.511Z" fill="url(#paint11_linear)"/>
<path d="M84.016 168.2C84.088 163.474 84.1773 158.762 84.284 154.063C88.0173 151.575 91.8097 149.078 95.661 146.574C99.385 148.786 103.162 151.026 106.992 153.294C106.887 158.061 106.798 162.846 106.727 167.649C102.806 170.133 98.9367 172.606 95.12 175.068C91.3613 172.752 87.66 170.463 84.016 168.2Z" fill="#FBAD40"/>
<path d="M94.3 176.392C90.5393 174.075 86.8367 171.784 83.192 169.521L82.456 168.176C82.5293 163.446 82.6193 158.73 82.726 154.028L83.418 152.769C87.195 150.252 91.027 147.729 94.81 145.269L96.451 145.236C100.175 147.447 103.952 149.687 107.781 151.955L108.543 153.327C108.439 158.091 108.351 162.872 108.279 167.671L107.555 168.962C103.638 171.443 99.771 173.913 95.955 176.374L94.3 176.392ZM85.581 167.343C88.7103 169.285 91.8823 171.247 95.097 173.229C98.417 171.09 101.778 168.942 105.18 166.785C105.247 162.568 105.324 158.363 105.413 154.169C102.136 152.227 98.8963 150.306 95.695 148.405C92.411 150.544 89.095 152.727 85.818 154.905C85.7287 159.041 85.651 163.187 85.585 167.343H85.581Z" fill="#F6821F"/>
<path d="M84.42 249.466C84.3 244.777 84.197 240.071 84.111 235.349C87.7484 233.093 91.4434 230.809 95.196 228.498C99.018 230.959 102.894 233.432 106.823 235.916C106.909 240.71 107.011 245.487 107.129 250.248C103.308 252.51 99.5384 254.743 95.819 256.948C91.9637 254.449 88.164 251.955 84.42 249.466Z" fill="#FBAD40"/>
<path d="M96.614 258.287L94.974 258.255C91.116 255.755 87.274 253.233 83.558 250.762L82.865 249.506C82.745 244.812 82.6417 240.102 82.555 235.377L83.29 234.027C86.9293 231.77 90.626 229.486 94.38 227.173L96.037 227.19C99.857 229.649 103.729 232.12 107.654 234.601L108.378 235.888C108.464 240.679 108.566 245.452 108.684 250.209L107.921 251.587C104.101 253.848 100.332 256.082 96.614 258.287ZM85.953 248.619C89.189 250.766 92.513 252.948 95.853 255.119C99.045 253.225 102.278 251.31 105.553 249.374C105.451 245.192 105.361 240.995 105.284 236.782C101.876 234.626 98.5073 232.477 95.178 230.336C91.972 232.311 88.8053 234.267 85.678 236.205C85.7593 240.354 85.851 244.492 85.953 248.619Z" fill="#F6821F"/>
<path d="M281.579 295.056C243.992 295.882 204.863 295.856 167.279 294.979C156.911 294.703 147.043 290.466 139.704 283.137C132.365 275.809 128.112 265.946 127.822 255.579C126.939 217.971 126.994 178.75 127.986 141.244C128.319 130.895 132.598 121.065 139.947 113.77C147.296 106.475 157.158 102.269 167.509 102.013C205.042 101.17 244.089 101.197 281.62 102.091C291.971 102.362 301.827 106.582 309.165 113.888C316.504 121.193 320.769 131.029 321.087 141.379C322.027 178.885 322.029 218.105 321.094 255.711C320.789 266.079 316.523 275.935 309.173 283.254C301.823 290.572 291.948 294.796 281.579 295.056Z" fill="white"/>
<path d="M226.186 296.653C206.36 296.653 186.521 296.428 167.251 295.978C156.613 295.736 146.477 291.406 138.948 283.887C131.419 276.368 127.075 266.237 126.819 255.6C125.939 218.127 125.994 178.574 126.982 141.215C127.285 130.597 131.659 120.503 139.197 113.02C146.736 105.537 156.863 101.239 167.482 101.015C204.829 100.176 244.303 100.204 281.64 101.094C292.26 101.333 302.381 105.646 309.909 113.14C317.437 120.634 321.796 130.736 322.083 141.355C323.019 178.719 323.021 218.272 322.089 255.738C321.817 266.374 317.459 276.498 309.919 284.005C302.379 291.513 292.238 295.828 281.6 296.055C263.467 296.454 244.832 296.653 226.186 296.653ZM222.8 102.4C204.2 102.4 185.619 102.6 167.533 103.009C157.426 103.222 147.788 107.312 140.613 114.434C133.438 121.556 129.275 131.164 128.987 141.269C127.999 178.594 127.944 218.113 128.824 255.552C129.068 265.676 133.202 275.317 140.367 282.473C147.533 289.629 157.18 293.75 167.304 293.98C204.665 294.852 244.177 294.88 281.562 294.057C291.687 293.84 301.339 289.733 308.514 282.587C315.689 275.441 319.836 265.805 320.094 255.682C321.026 218.25 321.024 178.732 320.088 141.401C319.814 131.295 315.665 121.682 308.501 114.551C301.336 107.419 291.703 103.315 281.597 103.088C262.367 102.629 242.572 102.4 222.8 102.4Z" fill="#FF6633"/>
<path d="M272.3 226.049C272.422 207.703 272.427 189.167 272.315 170.849C256.495 161.574 240.452 152.313 224.538 143.261C208.611 152.291 192.555 161.529 176.722 170.782C176.584 189.103 176.564 207.639 176.661 225.982C192.481 235.258 208.532 244.533 224.461 253.612C240.4 244.557 256.462 235.3 272.3 226.049Z" fill="#FBAD40"/>
<path d="M226.563 257.321H222.345C206.26 248.154 190.162 238.849 174.498 229.664L172.391 226.008C172.291 207.676 172.315 189.085 172.452 170.751L174.565 167.101C190.243 157.939 206.346 148.67 222.429 139.552H226.641C242.725 148.7 258.816 157.992 274.466 167.167L276.575 170.819C276.687 189.168 276.681 207.759 276.558 226.077L274.447 229.73C258.779 238.889 242.668 248.172 226.563 257.321ZM180.908 223.533C195.195 231.899 209.825 240.355 224.459 248.707C239.114 240.371 253.759 231.935 268.045 223.592C268.145 206.906 268.153 190.011 268.06 173.299C253.785 164.942 239.16 156.499 224.53 148.164C209.895 156.472 195.26 164.895 180.963 173.238C180.848 189.939 180.829 206.834 180.908 223.533Z" fill="#F6821F"/>
<path d="M214.1 198.01C209.868 195.588 205.643 193.168 201.425 190.751C205.649 188.333 209.88 185.915 214.117 183.498L214.123 179.598C208.604 182.745 203.092 185.895 197.587 189.05C197.587 190.183 197.585 191.319 197.58 192.456C203.07 195.604 208.576 198.759 214.097 201.921L214.1 198.01Z" fill="#0055DC"/>
<path d="M234.477 194.871C234.477 196.175 234.477 197.479 234.477 198.782C238.71 201.205 242.937 203.627 247.156 206.046C242.932 208.463 238.701 210.88 234.463 213.299L234.457 217.204C240.115 213.976 245.765 210.746 251.407 207.514C251.407 206.535 251.407 205.556 251.407 204.578C245.781 201.348 240.138 198.112 234.477 194.871Z" fill="#0055DC"/>
<path d="M233.114 175.517C226.002 190.717 218.825 206.068 211.714 221.282L215.455 221.289C222.572 206.069 229.748 190.719 236.855 175.524L233.114 175.517Z" fill="#0055DC"/>
<defs>
<linearGradient id="paint0_linear" x1="291.814" y1="81.3033" x2="388.807" y2="81.2137" gradientUnits="userSpaceOnUse">
<stop stop-color="#FF6633"/>
<stop offset="1" stop-color="#FBAD40"/>
</linearGradient>
<linearGradient id="paint1_linear" x1="283.51" y1="318.63" x2="386.455" y2="318.533" gradientUnits="userSpaceOnUse">
<stop stop-color="#FF6633"/>
<stop offset="1" stop-color="#FBAD40"/>
</linearGradient>
<linearGradient id="paint2_linear" x1="267.792" y1="96.3327" x2="268.385" y2="3.24574" gradientUnits="userSpaceOnUse">
<stop offset="0.0307451" stop-color="#FF6633"/>
<stop offset="1" stop-color="#FBAD40"/>
</linearGradient>
<linearGradient id="paint3_linear" x1="250.504" y1="347.54" x2="267.646" y2="347.539" gradientUnits="userSpaceOnUse">
<stop stop-color="#FF6633"/>
<stop offset="1" stop-color="#FBAD40"/>
</linearGradient>
<linearGradient id="paint4_linear" x1="321.523" y1="169.268" x2="431.813" y2="169" gradientUnits="userSpaceOnUse">
<stop stop-color="#FF6633"/>
<stop offset="1" stop-color="#FBAD40"/>
</linearGradient>
<linearGradient id="paint5_linear" x1="321.413" y1="233.919" x2="431.773" y2="233.652" gradientUnits="userSpaceOnUse">
<stop stop-color="#FF6633"/>
<stop offset="1" stop-color="#FBAD40"/>
</linearGradient>
<linearGradient id="paint6_linear" x1="60.2529" y1="81.3033" x2="157.249" y2="81.2137" gradientUnits="userSpaceOnUse">
<stop stop-color="#FBAD40"/>
<stop offset="1" stop-color="#FF6633"/>
</linearGradient>
<linearGradient id="paint7_linear" x1="62.9901" y1="349.972" x2="138.682" y2="275.328" gradientUnits="userSpaceOnUse">
<stop offset="0.0506936" stop-color="#FBAD40"/>
<stop offset="1" stop-color="#FF6633"/>
</linearGradient>
<linearGradient id="paint8_linear" x1="198.521" y1="1.44372e-07" x2="197.892" y2="98.6444" gradientUnits="userSpaceOnUse">
<stop stop-color="#FBAD40"/>
<stop offset="1" stop-color="#FF6633"/>
</linearGradient>
<linearGradient id="paint9_linear" x1="181.358" y1="347.54" x2="197.821" y2="347.539" gradientUnits="userSpaceOnUse">
<stop stop-color="#FBAD40"/>
<stop offset="1" stop-color="#FF6633"/>
</linearGradient>
<linearGradient id="paint10_linear" x1="17.2561" y1="169.267" x2="127.548" y2="168.999" gradientUnits="userSpaceOnUse">
<stop stop-color="#FBAD40"/>
<stop offset="1" stop-color="#FF6633"/>
</linearGradient>
<linearGradient id="paint11_linear" x1="17.2882" y1="233.921" x2="127.651" y2="233.655" gradientUnits="userSpaceOnUse">
<stop stop-color="#FBAD40"/>
<stop offset="1" stop-color="#FF6633"/>
</linearGradient>
</defs>
</svg>
