<?xml version="1.0" encoding="UTF-8"?>
<svg width="47px" height="28px" viewBox="0 0 47 28" version="1.1" xmlns="http://www.w3.org/2000/svg" xmlns:xlink="http://www.w3.org/1999/xlink">
    <!-- Generator: Sketch 52.3 (67297) - http://www.bohemiancoding.com/sketch -->
    <title>Untitled</title>
    <desc>Created with Sketch.</desc>
    <g id="Page-1" stroke="none" stroke-width="1" fill="none" fill-rule="evenodd">
        <path d="M23.8852066,17.2625483 C24.3716955,17.2625483 24.7799926,17.1061792 25.1101101,16.7934363 C25.4402275,16.4806934 25.6052838,16.1158322 25.6052838,15.6988417 L25.6052838,10.0694981 L6.16319887,7.61969112 L6.16319887,15.6988417 C6.16319887,16.1158322 6.32825513,16.4806934 6.65837261,16.7934363 C6.98849009,17.1061792 7.39678717,17.2625483 7.88327609,17.2625483 L23.8852066,17.2625483 Z M24.771307,24.976834 C24.771307,24.5598435 24.6062507,24.2036694 24.2761332,23.9083012 C23.9460158,23.6129329 23.555093,23.465251 23.1033533,23.465251 C22.6516136,23.465251 22.269378,23.6129329 21.9566352,23.9083012 C21.6438923,24.2036694 21.4875232,24.5598435 21.4875232,24.976834 C21.4875232,25.3938245 21.6438923,25.7499985 21.9566352,26.0453668 C22.269378,26.3407351 22.6516136,26.488417 23.1033533,26.488417 C23.555093,26.488417 23.9460158,26.3407351 24.2761332,26.0453668 C24.6062507,25.7499985 24.771307,25.3938245 24.771307,24.976834 Z M11.8967896,24.976834 C11.8967896,24.5598435 11.7317333,24.2036694 11.4016159,23.9083012 C11.0714984,23.6129329 10.6805756,23.465251 10.2288359,23.465251 C9.77709622,23.465251 9.39486066,23.6129329 9.08211779,23.9083012 C8.76937491,24.2036694 8.61300582,24.5598435 8.61300582,24.976834 C8.61300582,25.3938245 8.76937491,25.7499985 9.08211779,26.0453668 C9.39486066,26.3407351 9.77709622,26.488417 10.2288359,26.488417 C10.6805756,26.488417 11.0714984,26.3407351 11.4016159,26.0453668 C11.7317333,25.7499985 11.8967896,25.3938245 11.8967896,24.976834 Z M23.8852066,18.7741313 L7.88327609,18.7741313 C7.25779034,18.7741313 6.684437,18.6351365 6.16319887,18.3571429 L6.16319887,20.3899614 C6.16319887,20.8069519 6.32825513,21.1718131 6.65837261,21.484556 C6.98849009,21.7972989 7.39678717,21.953668 7.88327609,21.953668 L23.1033533,21.953668 C24.0068327,21.953668 24.779991,22.2490318 25.4228514,22.8397683 C26.0657117,23.4305049 26.3871371,24.142853 26.3871371,24.976834 C26.3871371,25.810815 26.0657117,26.5231631 25.4228514,27.1138996 C24.779991,27.7046362 24.0068327,28 23.1033533,28 C22.1998739,28 21.4354028,27.7046362 20.809917,27.1138996 C20.1844313,26.5231631 19.8716931,25.810815 19.8716931,24.976834 C19.8716931,24.4208466 20.0106878,23.9169907 20.2886815,23.465251 L13.0435077,23.465251 C13.3562506,23.9169907 13.5126197,24.4208466 13.5126197,24.976834 C13.5126197,25.810815 13.1911944,26.5231631 12.548334,27.1138996 C11.9054736,27.7046362 11.1323154,28 10.2288359,28 C9.32535651,28 8.56088539,27.7046362 7.93539964,27.1138996 C7.30991389,26.5231631 6.9971757,25.810815 6.9971757,24.976834 C6.9971757,24.4208466 7.15354479,23.8996163 7.46628767,23.4131274 C6.63230667,23.3088798 5.93733292,22.9700801 5.38134559,22.3967181 C4.82535825,21.8233562 4.54736875,21.154444 4.54736875,20.3899614 L4.54736875,3.97104247 L0.638102343,2.40733591 C0.4643563,2.33783749 0.334048723,2.20752991 0.247175702,2.01640927 C0.160302681,1.82528862 0.160302681,1.63417084 0.247175702,1.44305019 C0.334048723,1.25192955 0.481730644,1.1129348 0.690225895,1.02606178 C0.898721146,0.939188755 1.10721327,0.947875927 1.31570852,1.05212355 L5.798334,2.82432432 L6.05895176,3.03281853 L6.16319887,3.34555985 L6.21532242,6.10810811 L26.6477549,8.71428571 L26.9604962,8.92277992 L27.1689904,9.18339768 L27.1689904,15.6988417 C27.1689904,16.5328227 26.847565,17.253858 26.2047047,17.8619691 C25.5618443,18.4700803 24.788686,18.7741313 23.8852066,18.7741313 Z M45.704236,14.1660232 C45.8432328,14.1660232 45.9822275,14.2355205 46.1212244,14.3745174 C46.2756653,14.5444024 46.3528846,14.7528945 46.3528846,15 C46.3528846,15.2471055 46.2756653,15.4555976 46.1212244,15.6254826 C45.9822275,15.7644795 45.8432328,15.8339768 45.704236,15.8339768 L41.1868614,15.8339768 L41.1868614,20.3513514 C41.1868614,20.4749041 41.1173641,20.6061769 40.9783672,20.7451737 C40.8084822,20.9150588 40.5999901,21 40.3528846,21 C40.1057791,21 39.897287,20.9150588 39.727402,20.7451737 C39.5884051,20.6061769 39.5189078,20.4749041 39.5189078,20.3513514 L39.5189078,15.8339768 L35.0015333,15.8339768 C34.8779805,15.8339768 34.7467077,15.7644795 34.6077109,15.6254826 C34.4378258,15.4555976 34.3528846,15.2471055 34.3528846,15 C34.3528846,14.7528945 34.4378258,14.5444024 34.6077109,14.3745174 C34.7467077,14.2355205 34.8779805,14.1660232 35.0015333,14.1660232 L39.5189078,14.1660232 L39.5189078,9.64864865 C39.5189078,9.50965181 39.5884051,9.37065707 39.727402,9.23166023 C39.897287,9.07721931 40.1057791,9 40.3528846,9 C40.5999901,9 40.8084822,9.07721931 40.9783672,9.23166023 C41.1173641,9.37065707 41.1868614,9.50965181 41.1868614,9.64864865 L41.1868614,14.1660232 L45.704236,14.1660232 Z" id="Combined-Shape" fill="#FFFFFF"></path>
    </g>
</svg>