<svg width="36px" height="24px" viewBox="0 0 36 24" version="1.1" xmlns="http://www.w3.org/2000/svg" xmlns:xlink="http://www.w3.org/1999/xlink">
    <g id="Page-1" stroke="none" stroke-width="1" fill="none" fill-rule="evenodd">
        <g id="menu-options" fill="#929292">
            <path d="M1.54285585,4 C0.694285131,4 0,3.1 0,2 C0,0.9 0.694285131,0 1.54285585,0 L34.4571442,0 C35.3057149,0 36,0.9 36,2 C36,3.1 35.3057149,4 34.4571442,4 L1.54285585,4 Z M1.54285585,14 C0.694285131,14 0,13.1 0,12 C0,10.9 0.694285131,10 1.54285585,10 L34.4571442,10 C35.3057149,10 36,10.9 36,12 C36,13.1 35.3057149,14 34.4571442,14 L1.54285585,14 Z M1.54285585,24 C0.694285131,24 0,23.1 0,22 C0,20.9 0.694285131,20 1.54285585,20 L34.4571442,20 C35.3057149,20 36,20.9 36,22 C36,23.1 35.3057149,24 34.4571442,24 L1.54285585,24 Z" id="Combined-Shape"></path>
        </g>
    </g>
</svg>