<?xml version="1.0" encoding="UTF-8"?>
<svg width="21px" height="22px" viewBox="0 0 21 22" version="1.1" xmlns="http://www.w3.org/2000/svg" xmlns:xlink="http://www.w3.org/1999/xlink">
    <!-- Generator: Sketch 52.3 (67297) - http://www.bohemiancoding.com/sketch -->
    <title>Untitled</title>
    <desc>Created with Sketch.</desc>
    <g id="Page-1" stroke="none" stroke-width="1" fill="none" fill-rule="evenodd">
        <path d="M10.8684135,1 C12.6702243,1 14.3368743,1.45044595 15.8684135,2.35135135 C17.3999527,3.25225676 18.6161567,4.46846081 19.5170621,6 C20.4179675,7.53153919 20.8684135,9.19818919 20.8684135,11 C20.8684135,12.8018108 20.4179675,14.4684608 19.5170621,16 C18.6161567,17.5315392 17.3999527,18.7477432 15.8684135,19.6486486 C14.3368743,20.5495541 12.6702243,21 10.8684135,21 C9.06660267,21 7.39995267,20.5495541 5.86841348,19.6486486 C4.33687429,18.7477432 3.12067023,17.5315392 2.21976483,16 C1.31885942,14.4684608 0.868413478,12.8018108 0.868413478,11 C0.868413478,9.19818919 1.31885942,7.53153919 2.21976483,6 C3.12067023,4.46846081 4.33687429,3.25225676 5.86841348,2.35135135 C7.39995267,1.45044595 9.06660267,1 10.8684135,1 Z M10.8684135,19.996139 C12.5157834,19.996139 14.0279948,19.5907376 15.405093,18.7799228 C16.7821913,17.9691079 17.8761314,16.8751678 18.6869463,15.4980695 C19.4977612,14.1209712 19.9031625,12.6151948 19.9031625,10.980695 C19.9031625,9.34619517 19.4977612,7.84041873 18.6869463,6.46332046 C17.8761314,5.0862222 16.7821913,3.99228205 15.405093,3.18146718 C14.0279948,2.37065232 12.5222183,1.96525097 10.8877185,1.96525097 C9.25321869,1.96525097 7.74744224,2.37065232 6.37034398,3.18146718 C4.99324572,3.99228205 3.89930556,5.0862222 3.0884907,6.46332046 C2.27767583,7.84041873 1.87227448,9.34619517 1.87227448,10.980695 C1.87227448,12.6151948 2.27767583,14.1209712 3.0884907,15.4980695 C3.89930556,16.8751678 4.99324572,17.9691079 6.37034398,18.7799228 C7.74744224,19.5907376 9.24678375,19.996139 10.8684135,19.996139 Z M11.370344,3.93436293 L11.370344,11.1930502 L8.04988066,14.5907336 C7.94692004,14.6936942 7.8182212,14.7451737 7.66378027,14.7451737 C7.50933935,14.7451737 7.38707545,14.6936942 7.29698491,14.5907336 C7.20689437,14.487773 7.16184977,14.371944 7.16184977,14.2432432 C7.16184977,14.1145425 7.21332931,13.9987135 7.31628993,13.8957529 L10.366483,10.8069498 L10.366483,3.93436293 C10.366483,3.77992201 10.4179625,3.65765811 10.5209231,3.56756757 C10.6238837,3.47747703 10.7397127,3.43243243 10.8684135,3.43243243 C10.9971143,3.43243243 11.1129432,3.47747703 11.2159038,3.56756757 C11.3188644,3.65765811 11.370344,3.77992201 11.370344,3.93436293 Z" id="" fill="#FB3449"></path>
    </g>
</svg>