<?xml version="1.0" encoding="UTF-8"?>
<svg width="53px" height="39px" viewBox="0 0 53 39" version="1.1" xmlns="http://www.w3.org/2000/svg" xmlns:xlink="http://www.w3.org/1999/xlink">
    <!-- Generator: Sketch 52.3 (67297) - http://www.bohemiancoding.com/sketch -->
    <title>Untitled</title>
    <desc>Created with Sketch.</desc>
    <g id="Page-1" stroke="none" stroke-width="1" fill="none" fill-rule="evenodd">
        <path d="M10.6734196,9.26061776 C12.5305717,9.26061776 14.2371184,9.71235069 15.7931107,10.6158301 C17.349103,11.5193095 18.5913686,12.7615751 19.5199447,14.3426641 C20.4485207,15.9237531 20.9128018,17.6428479 20.9128018,19.5 C20.9128018,21.3571521 20.4610689,23.0636988 19.5575895,24.6196911 C18.65411,26.1756835 17.4118445,27.417949 15.8307555,28.3465251 C14.2496665,29.2751012 12.5305717,29.7393822 10.6734196,29.7393822 C8.81626743,29.7393822 7.10972079,29.2751012 5.55372845,28.3465251 C3.99773612,27.417949 2.75547055,26.1756835 1.82689448,24.6196911 C0.898318406,23.0636988 0.434037335,21.3571521 0.434037335,19.5 C0.434037335,17.6428479 0.898318406,15.9237531 1.82689448,14.3426641 C2.75547055,12.7615751 3.99773612,11.5193095 5.55372845,10.6158301 C7.10972079,9.71235069 8.81626743,9.26061776 10.6734196,9.26061776 Z M10.6734196,27.6312741 C12.1290253,27.6312741 13.4842241,27.2673782 14.7390566,26.5395753 C15.9938892,25.8117724 16.985192,24.8204696 17.7129949,23.5656371 C18.4407977,22.3108045 18.8046937,20.9430576 18.8046937,19.4623552 C18.8046937,17.9816528 18.4407977,16.626454 17.7129949,15.3967181 C16.985192,14.1669823 15.9938892,13.1882276 14.7390566,12.4604247 C13.4842241,11.7326218 12.1290253,11.3687259 10.6734196,11.3687259 C9.21781384,11.3687259 7.86261504,11.7326218 6.60778251,12.4604247 C5.35294998,13.1882276 4.36164715,14.1669823 3.63384428,15.3967181 C2.90604142,16.626454 2.54214544,17.9816528 2.54214544,19.4623552 C2.54214544,20.9430576 2.90604142,22.3108045 3.63384428,23.5656371 C4.36164715,24.8204696 5.35294998,25.8117724 6.60778251,26.5395753 C7.86261504,27.2673782 9.21781384,27.6312741 10.6734196,27.6312741 Z M42.3703308,29.6640927 C39.6598925,29.6640927 37.2506502,28.685338 35.1425315,26.7277992 C33.8375057,25.4227734 32.946588,23.8793525 32.4697516,22.0974903 C31.9929153,20.3156282 31.9929153,18.5463408 32.4697516,16.7895753 C32.946588,15.0328097 33.8375057,13.501937 35.1425315,12.1969112 C36.0962043,11.2432385 37.2004403,10.5154465 38.4552729,10.0135135 C39.7101054,9.5115805 41.0151116,9.26061776 42.3703308,9.26061776 C45.1811556,9.26061776 47.590398,10.2393725 49.59813,12.1969112 C50.5518027,13.1505839 51.2795947,14.25482 51.7815277,15.5096525 C52.2834607,16.764485 52.5344234,18.0694913 52.5344234,19.4247104 C52.5344234,22.2857286 51.5556687,24.6949709 49.59813,26.6525097 C48.6444573,27.6061824 47.5402212,28.3465225 46.2853887,28.8735521 C45.0305562,29.4005818 43.7255499,29.6640927 42.3703308,29.6640927 Z M34.4649254,21.0810811 C34.565312,21.6834007 34.7409859,22.2355187 34.9919524,22.7374517 L45.6830721,11.9710425 C45.0807525,11.720076 44.5286344,11.544402 44.0267014,11.4440154 L34.4649254,21.0810811 Z M36.0460064,24.5444015 L36.5730335,25.1467181 C36.824,25.3976847 37.0247702,25.5733586 37.1753501,25.6737452 L48.6946551,14.2297297 L48.1676281,13.6274131 C47.9166616,13.3764466 47.7158914,13.2007727 47.5653115,13.1003861 L36.0460064,24.5444015 Z M50.3510258,17.6930502 C50.3008325,17.3918904 50.1502548,16.9150612 49.8992883,16.2625483 L49.8992883,16.0366795 L39.0575895,26.8030888 C39.6599091,27.0540553 40.2120271,27.2297292 40.7139601,27.3301158 L50.3510258,17.6930502 Z M48.1676281,25.1467181 C49.3722673,23.8918856 50.1251555,22.3861092 50.4263153,20.6293436 L43.6502536,27.4054054 C45.3568258,27.1544389 46.8626022,26.4015507 48.1676281,25.1467181 Z M36.648323,13.6274131 C35.3934905,14.8822457 34.6406023,16.3880221 34.3896358,18.1447876 L41.1656976,11.3687259 C39.408932,11.6196924 37.9031556,12.3725806 36.648323,13.6274131 Z M26.55952,0 C26.9108731,0 27.2120284,0.125481371 27.4629949,0.376447876 C27.7139614,0.627414382 27.8394427,0.903473398 27.8394427,1.2046332 L27.8394427,7.15250965 C27.8394427,7.50386276 27.7139614,7.80501805 27.4629949,8.05598456 C27.2120284,8.30695106 26.9108731,8.43243243 26.55952,8.43243243 C26.2583602,8.43243243 25.9823011,8.30695106 25.7313346,8.05598456 C25.4803681,7.80501805 25.3548868,7.50386276 25.3548868,7.15250965 L25.3548868,1.2046332 C25.3548868,0.903473398 25.4803681,0.627414382 25.7313346,0.376447876 C25.9823011,0.125481371 26.2583602,0 26.55952,0 Z M26.55952,10.1640927 C26.9108731,10.1640927 27.2120284,10.289574 27.4629949,10.5405405 C27.7139614,10.791507 27.8394427,11.0926623 27.8394427,11.4440154 L27.8394427,17.3918919 C27.8394427,17.743245 27.7139614,18.0444003 27.4629949,18.2953668 C27.2120284,18.5463333 26.9108731,18.6718147 26.55952,18.6718147 C26.2583602,18.6718147 25.9823011,18.5463333 25.7313346,18.2953668 C25.4803681,18.0444003 25.3548868,17.743245 25.3548868,17.3918919 L25.3548868,11.4440154 C25.3548868,11.0926623 25.46782,10.791507 25.6936898,10.5405405 C25.9195597,10.289574 26.2081669,10.1640927 26.55952,10.1640927 Z M26.55952,20.3281853 C26.9108731,20.3281853 27.2120284,20.4536667 27.4629949,20.7046332 C27.7139614,20.9555997 27.8394427,21.256755 27.8394427,21.6081081 L27.8394427,27.5559846 C27.8394427,27.9073377 27.7139614,28.208493 27.4629949,28.4594595 C27.2120284,28.710426 26.9108731,28.8359073 26.55952,28.8359073 C26.2081669,28.8359073 25.9195597,28.710426 25.6936898,28.4594595 C25.46782,28.208493 25.3548868,27.9073377 25.3548868,27.5559846 L25.3548868,21.6081081 C25.3548868,21.256755 25.4803681,20.9555997 25.7313346,20.7046332 C25.9823011,20.4536667 26.2583602,20.3281853 26.55952,20.3281853 Z M26.55952,30.492278 C26.9108731,30.492278 27.2120284,30.6177594 27.4629949,30.8687259 C27.7139614,31.1196924 27.8394427,31.4208477 27.8394427,31.7722008 L27.8394427,37.7200772 C27.8394427,38.0714303 27.7139614,38.3725856 27.4629949,38.6235521 C27.2120284,38.8745186 26.9108731,39 26.55952,39 C26.2583602,39 25.9823011,38.8745186 25.7313346,38.6235521 C25.4803681,38.3725856 25.3548868,38.0714303 25.3548868,37.7200772 L25.3548868,31.7722008 C25.3548868,31.4208477 25.4803681,31.1196924 25.7313346,30.8687259 C25.9823011,30.6177594 26.2583602,30.492278 26.55952,30.492278 Z" id="" fill="#565656"></path>
    </g>
</svg>