<?xml version="1.0" encoding="UTF-8"?>
<svg width="43px" height="40px" viewBox="0 0 43 40" version="1.1" xmlns="http://www.w3.org/2000/svg" xmlns:xlink="http://www.w3.org/1999/xlink">
    <!-- Generator: Sketch 52.3 (67297) - http://www.bohemiancoding.com/sketch -->
    <title>Untitled</title>
    <desc>Created with Sketch.</desc>
    <g id="Page-1" stroke="none" stroke-width="1" fill="none" fill-rule="evenodd">
        <path d="M42.7911802,11.5945946 C42.7911802,12.6988472 42.6406025,13.777987 42.3394427,14.8320463 C42.0884762,16.8899717 40.9089514,19.2239252 38.8008327,21.8339768 C37.5460002,23.4401625 35.1869504,25.9246936 31.7236126,29.2876448 C27.8085351,33.152529 24.9977524,36.1138893 23.2911802,38.1718147 C23.090407,38.5231678 22.8394442,38.7615824 22.5382844,38.8870656 C22.2371246,39.0125489 21.9234212,39.0376452 21.5971647,38.9623552 C21.2709083,38.8870653 21.0073974,38.7239395 20.8066242,38.472973 C19.601985,37.2181404 17.5691868,35.2355348 14.7081686,32.5250965 C10.441738,28.5096324 7.45528139,25.4980795 5.74870915,23.4903475 C2.88769098,20.1775896 1.23133689,17.3166144 0.779597181,14.9073359 C0.478437374,13.8532766 0.327859729,12.7490405 0.327859729,11.5945946 C0.327859729,9.48647595 0.842333349,7.5415147 1.87129602,5.75965251 C2.9002587,3.97779032 4.30565005,2.57239897 6.08751224,1.54343629 C7.86937443,0.51447362 9.81433567,2.22044605e-16 11.9224543,2.22044605e-16 C13.8297998,2.22044605e-16 15.6367315,0.464281071 17.3433037,1.39285714 C19.049876,2.32143321 20.4552673,3.58879506 21.55952,5.19498069 C22.6135793,3.53860176 23.9938744,2.24614364 25.7004466,1.31756757 C27.4070188,0.388991496 29.2390469,-0.0501933012 31.1965856,2.22044605e-16 C33.3047042,2.22044605e-16 35.2371174,0.51447362 36.9938829,1.54343629 C38.7506484,2.57239897 40.1560398,3.97779032 41.2100991,5.75965251 C42.2641584,7.5415147 42.7911802,9.48647595 42.7911802,11.5945946 Z M39.2525702,14.003861 C39.5035367,13.2509615 39.629018,12.4478807 39.629018,11.5945946 C39.629018,10.0887956 39.2400258,8.68340421 38.4620296,7.37837838 C37.6840334,6.07335255 36.6550862,5.04440531 35.375157,4.29150579 C34.0952278,3.53860627 32.7023846,3.16216216 31.1965856,3.16216216 C29.3394335,3.16216216 27.6705312,3.71428019 26.1898288,4.81853282 C24.7091265,5.92278544 23.6927274,7.35327307 23.140601,9.11003861 C23.0402144,9.46139172 22.8645405,9.73745073 22.613574,9.93822394 C22.3626075,10.1389971 22.0614522,10.2519304 21.7100991,10.277027 C21.358746,10.3021237 21.0450426,10.2268349 20.7689794,10.0511583 C20.4929163,9.87548175 20.2921461,9.62451901 20.1666628,9.29826255 C20.0411796,8.97200609 19.8529575,8.63320639 19.601991,8.28185328 L19.5267014,8.05598456 C18.8239952,6.55018552 17.7824998,5.3581125 16.4021841,4.47972973 C15.0218683,3.60134696 13.5411881,3.16216216 11.9600991,3.16216216 C10.3790101,3.16216216 8.9485225,3.53860627 7.66859332,4.29150579 C6.38866414,5.04440531 5.37226504,6.07335255 4.61936552,7.37837838 C3.866466,8.68340421 3.49002189,10.0887956 3.49002189,11.5945946 C3.49002189,12.4478807 3.61550326,13.2760578 3.86646977,14.0791506 L3.86646977,14.2297297 C4.21782288,16.1872685 5.77379187,18.7219922 8.53442344,21.8339768 C10.1406091,23.691129 12.9011992,26.4768154 16.8162767,30.1911197 L17.0421454,30.4169884 C19.2506507,32.5251071 20.831716,34.0559798 21.7853887,35.0096525 C23.4417676,33.1023071 26.0266839,30.442102 29.5402149,27.0289575 C32.7023929,23.9169729 34.8606725,21.6583082 36.0151184,20.2528958 C37.9726572,17.8938106 39.0267007,15.9112049 39.1772806,14.3050193 C39.1772806,14.2046327 39.2023769,14.1042476 39.2525702,14.003861 Z" id="like" fill="#565656"></path>
    </g>
</svg>