<?xml version="1.0" encoding="UTF-8"?>
<svg width="32px" height="7px" viewBox="0 0 32 7" version="1.1" xmlns="http://www.w3.org/2000/svg" xmlns:xlink="http://www.w3.org/1999/xlink">
    <!-- Generator: Sketch 52.3 (67297) - http://www.bohemiancoding.com/sketch -->
    <title></title>
    <desc>Created with Sketch.</desc>
    <g id="Page-1" stroke="none" stroke-width="1" fill="none" fill-rule="evenodd">
        <path d="M24.381927,3.5 C24.381927,2.86035716 24.5373308,2.2725252 24.8481432,1.73648649 C25.1589556,1.20044777 25.5823748,0.777028581 26.1184135,0.466216216 C26.6544522,0.155403851 27.2400319,0 27.8751702,0 C28.5103085,0 29.0958883,0.155403851 29.631927,0.466216216 C30.1679657,0.777028581 30.5936371,1.20044777 30.908954,1.73648649 C31.2242709,2.2725252 31.381927,2.85810493 31.381927,3.49324324 C31.381927,4.12838155 31.2242709,4.71396128 30.908954,5.25 C30.5936371,5.78603872 30.1679657,6.21171014 29.631927,6.52702703 C29.0958883,6.84234392 28.5103085,7 27.8751702,7 C27.2400319,7 26.6544522,6.84234392 26.1184135,6.52702703 C25.5823748,6.21171014 25.1589556,5.78603872 24.8481432,5.25 C24.5373308,4.71396128 24.381927,4.13063378 24.381927,3.5 Z M12.3684135,3.5 C12.3684135,2.86035716 12.5260696,2.2725252 12.8413865,1.73648649 C13.1567033,1.20044777 13.5823748,0.777028581 14.1184135,0.466216216 C14.6544522,0.155403851 15.2377797,0 15.8684135,0 C16.4990473,0 17.084627,0.155403851 17.6251702,0.466216216 C18.1657135,0.777028581 18.5913849,1.20044777 18.9021973,1.73648649 C19.2130096,2.2725252 19.3684135,2.85810493 19.3684135,3.49324324 C19.3684135,4.12838155 19.2130096,4.71396128 18.9021973,5.25 C18.5913849,5.78603872 18.1657135,6.21171014 17.6251702,6.52702703 C17.084627,6.84234392 16.4990473,7 15.8684135,7 C15.2377797,7 14.6544522,6.84234392 14.1184135,6.52702703 C13.5823748,6.21171014 13.1567033,5.78603872 12.8413865,5.25 C12.5260696,4.71396128 12.3684135,4.13063378 12.3684135,3.5 Z M0.354899965,3.5 C0.354899965,2.86035716 0.512556046,2.2725252 0.827872938,1.73648649 C1.14318983,1.20044777 1.56886125,0.777028581 2.10489996,0.466216216 C2.64093868,0.155403851 3.22651841,0 3.86165672,0 C4.49679503,0 5.08237476,0.155403851 5.61841348,0.466216216 C6.15445219,0.777028581 6.57787138,1.20044777 6.88868375,1.73648649 C7.19949611,2.2725252 7.35489996,2.85810493 7.35489996,3.49324324 C7.35489996,4.12838155 7.19949611,4.71396128 6.88868375,5.25 C6.57787138,5.78603872 6.15445219,6.21171014 5.61841348,6.52702703 C5.08237476,6.84234392 4.49679503,7 3.86165672,7 C3.22651841,7 2.64093868,6.84234392 2.10489996,6.52702703 C1.56886125,6.21171014 1.14318983,5.78603872 0.827872938,5.25 C0.512556046,4.71396128 0.354899965,4.13063378 0.354899965,3.5 Z" id="" fill="#777777"></path>
    </g>
</svg>