<?xml version="1.0" encoding="UTF-8"?>
<svg width="31px" height="24px" viewBox="0 0 31 24" version="1.1" xmlns="http://www.w3.org/2000/svg" xmlns:xlink="http://www.w3.org/1999/xlink">
    <!-- Generator: Sketch 52.3 (67297) - http://www.bohemiancoding.com/sketch -->
    <title>Untitled</title>
    <desc>Created with Sketch.</desc>
    <g id="Page-1" stroke="none" stroke-width="1" fill="none" fill-rule="evenodd">
        <path d="M10.2468905,15.4073359 L9.14671815,15.4073359 L5.77220077,18.6042471 C5.68339724,18.7226518 5.56499431,18.7818533 5.41698842,18.7818533 C5.29858371,18.7818533 5.18758096,18.730052 5.08397683,18.6264479 C4.98037271,18.5228438 4.92857143,18.411841 4.92857143,18.2934363 L4.7953668,15.4073359 L4.48455598,15.4073359 C3.24130653,15.4073359 2.1830803,14.9707251 1.30984556,14.0974903 C0.43661082,13.2242556 0,12.1808297 0,10.9671815 L0,4.92857143 C0,3.68532197 0.43661082,2.62709574 1.30984556,1.753861 C2.1830803,0.880626264 3.24130653,0.444015444 4.48455598,0.444015444 L14.030888,0.444015444 C15.0669292,0.444015444 15.984552,0.754823147 16.7837838,1.37644788 C17.4839047,1.92098637 17.979586,2.60180468 18.2708383,3.41891892 L25.530888,3.41891892 C26.4189234,3.41891892 27.2329435,3.63352424 27.972973,4.06274131 C28.7130024,4.49195839 29.3050171,5.07657288 29.7490347,5.81660232 C30.1930524,6.55663176 30.4150579,7.37065193 30.4150579,8.25868726 L30.4150579,14.8301158 C30.4150579,15.68855 30.1930524,16.4877698 29.7490347,17.2277992 C29.3050171,17.9678287 28.7130024,18.5598433 27.972973,19.003861 C27.2329435,19.4478787 26.4189234,19.6698842 25.530888,19.6698842 L25.1312741,19.6698842 L25.042471,22.8223938 C25.0128699,22.9407985 24.9536684,23.0592015 24.8648649,23.1776062 C24.7760613,23.2664097 24.6872591,23.3108108 24.5984556,23.3108108 C24.4504497,23.3108108 24.0952409,23.0592046 23.5328185,22.5559846 C23.1331501,22.2134116 22.1277968,21.2513873 20.51673,19.6698842 L15.0965251,19.6698842 C14.2084898,19.6698842 13.3944696,19.4478787 12.6544402,19.003861 C11.9144107,18.5598433 11.322396,17.9678287 10.8783784,17.2277992 C10.5354695,16.6562845 10.3249746,16.0494671 10.2468905,15.4073359 Z M10.2123552,14.3861004 L10.2123552,8.25868726 C10.2123552,7.37065193 10.4343607,6.55663176 10.8783784,5.81660232 C11.322396,5.07657288 11.9144107,4.49195839 12.6544402,4.06274131 C13.3944696,3.63352424 14.2084898,3.41891892 15.0965251,3.41891892 L17.1681571,3.41891892 C16.9358803,2.94933613 16.6005501,2.54232413 16.1621622,2.19787645 C15.5405374,1.70945702 14.8301198,1.46525097 14.030888,1.46525097 L4.48455598,1.46525097 C3.5373183,1.46525097 2.72329813,1.8056594 2.04247104,2.48648649 C1.36164396,3.16731357 1.02123552,3.98133375 1.02123552,4.92857143 L1.02123552,10.9671815 C1.02123552,11.9144192 1.36164396,12.7210391 2.04247104,13.3870656 C2.72329813,14.0530921 3.5373183,14.3861004 4.48455598,14.3861004 L5.28378378,14.3861004 C5.43178967,14.3861004 5.55019261,14.4379017 5.63899614,14.5415058 C5.72779967,14.6451099 5.78700114,14.7561127 5.81660232,14.8745174 L5.90540541,17.0945946 L8.56949807,14.519305 C8.68790278,14.4305015 8.80630571,14.3861004 8.92471042,14.3861004 L10.2123552,14.3861004 Z M17.9493254,4.44015444 C17.9160232,4.44385482 17.8827211,4.44385483 17.849419,4.44015445 L15.0965251,4.44015444 C14.0308827,4.44015444 13.1206601,4.81016361 12.3658301,5.55019305 C11.6110001,6.29022249 11.2335907,7.19304486 11.2335907,8.25868726 L11.2335907,14.8301158 C11.2335907,15.866157 11.6110001,16.7615792 12.3658301,17.5164093 C13.1206601,18.2712393 14.0308827,18.6486486 15.0965251,18.6486486 L20.6911197,18.6486486 C20.8391256,18.6486486 20.9575285,18.6930497 21.046332,18.7818533 L24.0656371,21.6679537 L24.1544402,19.1370656 C24.1544402,18.9890597 24.2062414,18.8706568 24.3098456,18.7818533 C24.4134497,18.6930497 24.5244524,18.6486486 24.6428571,18.6486486 L25.530888,18.6486486 C26.5965304,18.6486486 27.506753,18.2712393 28.261583,17.5164093 C29.016413,16.7615792 29.3938224,15.866157 29.3938224,14.8301158 L29.3938224,8.25868726 C29.3938224,7.19304486 29.016413,6.29022249 28.261583,5.55019305 C27.506753,4.81016361 26.5965304,4.44015444 25.530888,4.44015444 L17.9493254,4.44015444 Z M14.7857143,11.2779923 C14.7857143,11.0115817 14.8745165,10.7969764 15.0521236,10.6341699 C15.2297306,10.4713634 15.4369358,10.3899614 15.6737452,10.3899614 C15.9105546,10.3899614 16.1177597,10.4713634 16.2953668,10.6341699 C16.4729739,10.7969764 16.5617761,11.0041815 16.5617761,11.2557915 C16.5617761,11.5074015 16.4729739,11.7220068 16.2953668,11.8996139 C16.1177597,12.077221 15.9105546,12.1660232 15.6737452,12.1660232 C15.4369358,12.1660232 15.2297306,12.077221 15.0521236,11.8996139 C14.8745165,11.7220068 14.7857143,11.5148017 14.7857143,11.2779923 Z M19.4034749,11.2779923 C19.4034749,11.0115817 19.4922771,10.7969764 19.6698842,10.6341699 C19.8474912,10.4713634 20.0620966,10.3899614 20.3137066,10.3899614 C20.5653166,10.3899614 20.7799219,10.4713634 20.957529,10.6341699 C21.135136,10.7969764 21.2239382,11.0041815 21.2239382,11.2557915 C21.2239382,11.5074015 21.135136,11.7220068 20.957529,11.8996139 C20.7799219,12.077221 20.5653166,12.1660232 20.3137066,12.1660232 C20.0620966,12.1660232 19.8474912,12.077221 19.6698842,11.8996139 C19.4922771,11.7220068 19.4034749,11.5148017 19.4034749,11.2779923 Z M24.0656371,11.2779923 C24.0656371,11.0115817 24.1470391,10.7969764 24.3098456,10.6341699 C24.472652,10.4713634 24.6798572,10.3899614 24.9314672,10.3899614 C25.1830772,10.3899614 25.3976825,10.4713634 25.5752896,10.6341699 C25.7528966,10.7969764 25.8416988,11.0041815 25.8416988,11.2557915 C25.8416988,11.5074015 25.7528966,11.7220068 25.5752896,11.8996139 C25.3976825,12.077221 25.1830772,12.1660232 24.9314672,12.1660232 C24.6798572,12.1660232 24.472652,12.077221 24.3098456,11.8996139 C24.1470391,11.7220068 24.0656371,11.5148017 24.0656371,11.2779923 Z" id="" fill="#C3C3C3"></path>
    </g>
</svg>