<?xml version="1.0" encoding="UTF-8"?>
<svg width="34px" height="24px" viewBox="0 0 34 24" version="1.1" xmlns="http://www.w3.org/2000/svg" xmlns:xlink="http://www.w3.org/1999/xlink">
    <!-- Generator: Sketch 52.3 (67297) - http://www.bohemiancoding.com/sketch -->
    <title>Untitled</title>
    <desc>Created with Sketch.</desc>
    <g id="Page-1" stroke="none" stroke-width="1" fill="none" fill-rule="evenodd">
        <path d="M6.53945741,12.7220077 C5.62182091,12.7220077 4.79300037,12.973614 4.05297093,13.476834 C3.31294149,13.980054 2.75052755,14.6312701 2.36571224,15.4305019 L2.27690915,15.6525097 C2.09930209,16.2445332 2.01049989,16.7921468 2.01049989,17.2953668 C2.01049989,18.5386163 2.45451089,19.6042427 3.34254622,20.492278 C4.23058155,21.3803133 5.29620796,21.8243243 6.53945741,21.8243243 C7.78270687,21.8243243 8.85573347,21.3803133 9.75856938,20.492278 C10.6614053,19.6042427 11.1128165,18.5386163 11.1128165,17.2953668 C11.1128165,16.0521173 10.6688055,14.9790907 9.78077016,14.0762548 C8.89273483,13.1734189 7.81230805,12.7220077 6.53945741,12.7220077 Z M27.6745925,12.7220077 C26.4017419,12.7220077 25.3213151,13.1660187 24.4332798,14.0540541 C23.5452445,14.9420894 23.1012335,16.0225162 23.1012335,17.2953668 C23.1012335,18.0945986 23.3084386,18.8494173 23.7228551,19.5598456 C24.1372716,20.2702738 24.6922853,20.8252876 25.387913,21.2249035 C26.0835407,21.6245194 26.8457596,21.8243243 27.6745925,21.8243243 C28.917842,21.8243243 29.9834684,21.3803133 30.8715037,20.492278 C31.7595391,19.6042427 32.2035501,18.5386163 32.2035501,17.2953668 C32.2035501,16.0521173 31.7595391,14.9790907 30.8715037,14.0762548 C29.9834684,13.1734189 28.917842,12.7220077 27.6745925,12.7220077 Z M6.53945741,23.5559846 C5.41461267,23.5559846 4.37118681,23.2747776 3.40914853,22.7123552 C2.44711026,22.1499328 1.67749119,21.3877139 1.10026823,20.4256757 C0.523045262,19.4636374 0.23443811,18.4054112 0.23443811,17.2509653 C0.23443811,16.5701382 0.382441778,15.8449202 0.678453554,15.0752896 L0.678453554,15.030888 L0.722855098,14.9864865 L5.96223734,2.06563707 L6.05104043,1.88803089 C6.05104043,1.85842971 6.06584079,1.82882898 6.09544197,1.7992278 L6.31744969,1.62162162 C6.64306265,1.44401456 7.05747292,1.29601089 7.56069294,1.17760618 C8.38952591,0.970397934 9.08514315,0.999998668 9.64756552,1.26640927 C9.88437494,1.38481398 10.1063804,1.56981856 10.3135887,1.82142857 C10.5207969,2.07303858 10.683601,2.40604683 10.8020057,2.82046332 C10.861208,3.05727274 10.8242071,3.27927824 10.6910018,3.48648649 C10.5577965,3.69369473 10.3727919,3.81949785 10.1359825,3.86389961 C9.89917309,3.90830138 9.68456777,3.87130046 9.49216012,3.75289575 C9.29975246,3.63449104 9.17394935,3.45688664 9.11474699,3.22007722 C9.08514581,3.04247015 9.02594435,2.92406722 8.93714081,2.86486486 L8.89273927,2.82046332 C8.77433456,2.73165979 8.56712942,2.70945924 8.27111765,2.753861 C7.97510587,2.79826277 7.67909853,2.87966479 7.38308676,2.9980695 L3.9197663,11.523166 C4.80780162,11.1679519 5.68102326,10.9903475 6.53945741,10.9903475 C8.04911747,10.9903475 9.3737503,11.456559 10.5133956,12.3889961 C11.653041,13.3214332 12.3708588,14.4980624 12.6668705,15.9189189 L17.5066389,13.965251 L21.5471794,15.8745174 C21.8727924,14.4536608 22.6054105,13.2844319 23.7450559,12.3667954 C24.8847012,11.4491589 26.1945337,10.9903475 27.6745925,10.9903475 C28.6218302,10.9903475 29.4950519,11.1679519 30.2942837,11.523166 L26.7421601,2.90926641 C26.0021307,2.64285581 25.5137186,2.58365434 25.2769092,2.73166023 L25.2325076,2.77606178 C25.1437041,2.83526413 25.0845026,2.95366707 25.0549014,3.13127413 C24.9956991,3.33848237 24.8624958,3.50868659 24.6552875,3.64189189 C24.4480793,3.77509719 24.233474,3.81209811 24.0114651,3.75289575 C23.7894563,3.6936934 23.6192521,3.56789028 23.5008474,3.37548263 C23.3824427,3.18307497 23.3380416,2.96846965 23.3676427,2.73166023 C23.5452498,1.99163079 23.9300593,1.47361795 24.5220829,1.17760618 C25.3509159,0.822392046 26.4313426,0.925994614 27.7633956,1.48841699 L28.0298049,1.71042471 L28.1630095,1.84362934 C28.1926107,1.9028317 28.2074111,1.9472328 28.2074111,1.97683398 L33.4911949,14.9420849 C33.520796,14.9716861 33.5355964,15.0160872 33.5355964,15.0752896 C33.8316082,15.7265155 33.9796119,16.4665338 33.9796119,17.2953668 C33.9796119,18.4202115 33.6984049,19.4636374 33.1359825,20.4256757 C32.5735601,21.3877139 31.8113412,22.1499328 30.849303,22.7123552 C29.8872647,23.2747776 28.851239,23.5559846 27.7411949,23.5559846 C26.6311507,23.5559846 25.6099254,23.2969781 24.6774883,22.7789575 C23.7450512,22.2609369 22.9902325,21.5579195 22.4130095,20.6698842 C21.8357866,19.7818488 21.5175787,18.8050246 21.4583763,17.7393822 L17.4622373,15.8745174 L12.8000752,17.7393822 C12.7112716,18.8050246 12.3782634,19.7818488 11.8010404,20.6698842 C11.2238175,21.5579195 10.4763989,22.2609369 9.55876243,22.7789575 C8.64112593,23.2969781 7.63470099,23.5559846 6.53945741,23.5559846 Z" id="" fill="#C3C3C3"></path>
    </g>
</svg>