<?xml version="1.0" encoding="UTF-8"?>
<svg width="22px" height="23px" viewBox="0 0 22 23" version="1.1" xmlns="http://www.w3.org/2000/svg" xmlns:xlink="http://www.w3.org/1999/xlink">
    <!-- Generator: Sketch 52.3 (67297) - http://www.bohemiancoding.com/sketch -->
    <title>Untitled</title>
    <desc>Created with Sketch.</desc>
    <g id="Page-1" stroke="none" stroke-width="1" fill="none" fill-rule="evenodd">
        <path d="M3.15914853,2.93050193 L4.18038406,3.90733591 L5.86764274,2.22007722 C5.36442272,1.7168572 4.76500787,1.46525097 4.06938019,1.46525097 C3.37375252,1.46525097 2.78913803,1.70945702 2.31551919,2.19787645 C1.84190035,2.68629588 1.60509448,3.26351018 1.60509448,3.92953668 C1.60509448,4.59556318 1.84190035,5.17277748 2.31551919,5.66119691 C2.78913803,6.14961634 3.3811527,6.39382239 4.09158097,6.39382239 C4.62440216,6.39382239 5.11281427,6.23101836 5.55683193,5.90540541 C6.0008496,5.57979245 6.29685693,5.15058181 6.44486282,4.61776062 C6.50406518,4.46975473 6.60766774,4.35875198 6.75567363,4.28474903 C6.90367952,4.21074609 7.05168319,4.19594572 7.19968908,4.24034749 C7.34769496,4.28474926 7.45869771,4.38095164 7.53270066,4.52895753 C7.6067036,4.67696342 7.62890415,4.82496708 7.59930297,4.97297297 C7.36249355,5.74260359 6.91848255,6.364219 6.26725664,6.83783784 C5.61603074,7.31145668 4.89081276,7.54826255 4.09158097,7.54826255 C3.05553975,7.54826255 2.18231811,7.19305375 1.47188985,6.48262548 C0.761461585,5.77219722 0.406252782,4.92117613 0.406252782,3.92953668 C0.406252782,2.93789723 0.761461585,2.08687614 1.47188985,1.37644788 C2.18231811,0.666019614 3.04813957,0.310810811 4.06938019,0.310810811 C5.09062082,0.310810811 5.97124265,0.680819981 6.71127209,1.42084942 L7.99891687,0.133204633 C8.11732158,0.0444011004 8.25052489,0 8.39853077,0 C8.54653666,0 8.67973996,0.0518012838 8.79814467,0.155405405 C8.91654938,0.259009527 8.97575085,0.392212828 8.97575085,0.555019305 C8.97575085,0.717825782 8.91654938,0.858429266 8.79814467,0.976833977 L4.57999796,5.15057915 C4.46159324,5.23938268 4.32098976,5.28378378 4.15818328,5.28378378 C3.99537681,5.28378378 3.85477332,5.23938268 3.73636861,5.15057915 L2.35992074,3.72972973 C2.24151602,3.6409262 2.18231456,3.51512308 2.18231456,3.3523166 C2.18231456,3.18951013 2.24151602,3.04890664 2.35992074,2.93050193 C2.47832545,2.81209722 2.61892893,2.75289575 2.78173541,2.75289575 C2.94454188,2.75289575 3.070345,2.81209722 3.15914853,2.93050193 Z M4.09158097,14.1196911 C4.77240805,14.1196911 5.35702254,13.8754851 5.84544197,13.3870656 C6.3338614,12.8986462 6.57806745,12.3140317 6.57806745,11.6332046 C6.57806745,10.9523775 6.3338614,10.3751632 5.84544197,9.9015444 C5.35702254,9.42792556 4.76500787,9.19111969 4.06938019,9.19111969 C3.37375252,9.19111969 2.78913803,9.42792556 2.31551919,9.9015444 C1.84190035,10.3751632 1.60509448,10.9523775 1.60509448,11.6332046 C1.60509448,12.3140317 1.84190035,12.8986462 2.31551919,13.3870656 C2.78913803,13.8754851 3.3811527,14.1196911 4.09158097,14.1196911 Z M4.09158097,8.03667954 C5.09802101,8.03667954 5.95644228,8.39188834 6.66687054,9.1023166 C7.3772988,9.81274486 7.73250761,10.663766 7.73250761,11.6554054 C7.73250761,12.6470449 7.3772988,13.4980659 6.66687054,14.2084942 C5.95644228,14.9189225 5.09802101,15.2741313 4.09158097,15.2741313 C3.08514093,15.2741313 2.21931947,14.9189225 1.49409062,14.2084942 C0.768861768,13.4980659 0.406252782,12.6470449 0.406252782,11.6554054 C0.406252782,10.663766 0.761461585,9.81274486 1.47188985,9.1023166 C2.18231811,8.39188834 3.05553975,8.03667954 4.09158097,8.03667954 Z M4.09158097,21.8455598 C4.77240805,21.8455598 5.35702254,21.6013538 5.84544197,21.1129344 C6.3338614,20.6245149 6.57806745,20.0399004 6.57806745,19.3590734 C6.57806745,18.6782463 6.3338614,18.101032 5.84544197,17.6274131 C5.35702254,17.1537943 4.76500787,16.9169884 4.06938019,16.9169884 C3.37375252,16.9169884 2.78913803,17.1537943 2.31551919,17.6274131 C1.84190035,18.101032 1.60509448,18.6782463 1.60509448,19.3590734 C1.60509448,20.0399004 1.84190035,20.6245149 2.31551919,21.1129344 C2.78913803,21.6013538 3.3811527,21.8455598 4.09158097,21.8455598 Z M7.73250761,19.3590734 C7.73250761,20.3655134 7.3772988,21.2239347 6.66687054,21.9343629 C5.95644228,22.6447912 5.09802101,23 4.09158097,23 C3.08514093,23 2.21931947,22.6447912 1.49409062,21.9343629 C0.768861768,21.2239347 0.406252782,20.3655134 0.406252782,19.3590734 C0.406252782,18.3526333 0.761461585,17.5016122 1.47188985,16.8059846 C2.18231811,16.1103569 3.04813957,15.7625483 4.06938019,15.7625483 C5.09062082,15.7625483 5.95644228,16.1103569 6.66687054,16.8059846 C7.3772988,17.5016122 7.73250761,18.3526333 7.73250761,19.3590734 Z M20.9641678,11.0559846 C21.1121737,11.0559846 21.245377,11.115186 21.3637817,11.2335907 C21.4821864,11.3519954 21.5413879,11.4925989 21.5413879,11.6554054 C21.5413879,11.8182119 21.4821864,11.9514152 21.3637817,12.0550193 C21.245377,12.1586234 21.1121737,12.2104247 20.9641678,12.2104247 L9.59737247,12.2104247 C9.41976541,12.2104247 9.27916192,12.1586234 9.1755578,12.0550193 C9.07195368,11.9514152 9.0201524,11.8182119 9.0201524,11.6554054 C9.0201524,11.4925989 9.07935386,11.3519954 9.19775857,11.2335907 C9.31616328,11.115186 9.44936658,11.0559846 9.59737247,11.0559846 L20.9641678,11.0559846 Z M20.9641678,3.37451737 C21.1121737,3.3449162 21.245377,3.3893173 21.3637817,3.50772201 C21.4821864,3.62612672 21.5413879,3.7667302 21.5413879,3.92953668 C21.5413879,4.09234316 21.4821864,4.23294664 21.3637817,4.35135135 C21.245377,4.46975606 21.1121737,4.52895753 20.9641678,4.52895753 L9.59737247,4.52895753 C9.44936658,4.52895753 9.31616328,4.46975606 9.19775857,4.35135135 C9.07935386,4.23294664 9.0201524,4.09234316 9.0201524,3.92953668 C9.0201524,3.7667302 9.07935386,3.62612672 9.19775857,3.50772201 C9.31616328,3.3893173 9.44936658,3.3449162 9.59737247,3.37451737 L20.9641678,3.37451737 Z M20.9641678,18.7818533 C21.1121737,18.7818533 21.245377,18.8410547 21.3637817,18.9594595 C21.4821864,19.0778642 21.5413879,19.2184677 21.5413879,19.3812741 C21.5413879,19.5440806 21.4821864,19.6772839 21.3637817,19.780888 C21.245377,19.8844922 21.1121737,19.9362934 20.9641678,19.9362934 L9.59737247,19.9362934 C9.41976541,19.9362934 9.27916192,19.8844922 9.1755578,19.780888 C9.07195368,19.6772839 9.0201524,19.5440806 9.0201524,19.3812741 C9.0201524,19.2184677 9.07935386,19.0778642 9.19775857,18.9594595 C9.31616328,18.8410547 9.44936658,18.7818533 9.59737247,18.7818533 L20.9641678,18.7818533 Z" id="î¬" fill="#C3C3C3"></path>
    </g>
</svg>