<?xml version="1.0" encoding="UTF-8"?>
<svg width="33px" height="39px" viewBox="0 0 33 39" version="1.1" xmlns="http://www.w3.org/2000/svg" xmlns:xlink="http://www.w3.org/1999/xlink">
    <!-- Generator: Sketch 52.3 (67297) - http://www.bohemiancoding.com/sketch -->
    <title>Untitled</title>
    <desc>Created with Sketch.</desc>
    <g id="Page-1" stroke="none" stroke-width="1" fill="none" fill-rule="evenodd">
        <path d="M25.5730335,0.0752895753 C27.329799,0.0752895753 28.8481236,0.690148292 30.1280528,1.91988417 C31.407982,3.14962005 32.0479369,4.64284836 32.0479369,6.3996139 C32.0479369,8.15637944 31.407982,9.64960775 30.1280528,10.8793436 C28.8481236,12.1090795 27.329799,12.7239382 25.5730335,12.7239382 C24.6193608,12.7239382 23.7033467,12.523168 22.824964,12.1216216 C21.9465812,11.7200752 21.2062411,11.1679572 20.6039215,10.465251 C19.5498622,11.0675706 18.157019,11.9961327 16.4253501,13.2509653 C14.6936812,14.5057978 13.3259342,15.4594562 12.3220682,16.1119691 C12.8741945,17.0656418 13.1502536,18.0694928 13.1502536,19.1235521 C13.1502536,20.1776114 12.8741945,21.1814624 12.3220682,22.1351351 L20.6039215,27.7818533 C21.2062411,27.0289538 21.9465812,26.4517395 22.824964,26.0501931 C23.7033467,25.6486466 24.6193608,25.4478764 25.5730335,25.4478764 C27.329799,25.4478764 28.8481236,26.0752833 30.1280528,27.3301158 C31.407982,28.5849484 32.0479369,30.0781767 32.0479369,31.8098456 C32.0479369,33.5415144 31.407982,35.0347428 30.1280528,36.2895753 C28.8481236,37.5444078 27.329799,38.1718147 25.5730335,38.1718147 C23.8162679,38.1718147 22.2979433,37.5444078 21.0180142,36.2895753 C19.738085,35.0347428 19.09813,33.5289663 19.09813,31.7722008 C19.1483233,31.1698812 19.2487084,30.5926669 19.3992883,30.0405405 L10.6656976,24.0926641 C9.51125164,24.9961435 8.18114911,25.4478764 6.67535008,25.4478764 C4.91858454,25.4478764 3.40025995,24.8204696 2.12033077,23.5656371 C0.840401592,22.3108045 0.200446601,20.8175762 0.200446601,19.0859073 C0.200446601,17.3542384 0.840401592,15.8610101 2.12033077,14.6061776 C3.40025995,13.3513451 4.91858454,12.7239382 6.67535008,12.7239382 C8.18114911,12.7239382 9.51125164,13.2007674 10.6656976,14.1544402 L19.3992883,8.20656371 C19.1985151,7.60424409 19.09813,7.00193351 19.09813,6.3996139 C19.09813,4.64284836 19.738085,3.14962005 21.0180142,1.91988417 C22.2979433,0.690148292 23.8162679,0.0752895753 25.5730335,0.0752895753 Z M25.5730335,2.55984556 C24.5189741,2.55984556 23.6155083,2.93628967 22.8626088,3.68918919 C22.1097092,4.44208871 21.7332651,5.34555458 21.7332651,6.3996139 C21.7332651,7.45367322 22.1097092,8.35713909 22.8626088,9.11003861 C23.6155083,9.86293813 24.5315223,10.2393822 25.6106783,10.2393822 C26.6898342,10.2393822 27.5933001,9.86293813 28.321103,9.11003861 C29.0489058,8.35713909 29.4128018,7.45367322 29.4128018,6.3996139 C29.4128018,5.34555458 29.0489058,4.44208871 28.321103,3.68918919 C27.5933001,2.93628967 26.6772861,2.55984556 25.5730335,2.55984556 Z M6.67535008,15.2837838 C5.57109745,15.2837838 4.65508345,15.6602279 3.92728058,16.4131274 C3.19947771,17.1660269 2.83558174,18.0694928 2.83558174,19.1235521 C2.83558174,20.1776114 3.19947771,21.0685292 3.92728058,21.796332 C4.65508345,22.5241349 5.55854931,22.8880309 6.63770529,22.8880309 C7.71686126,22.8880309 8.63287527,22.5241349 9.38577479,21.796332 C10.1386743,21.0685292 10.5151184,20.1776114 10.5151184,19.1235521 C10.5151184,18.0694928 10.1386743,17.1660269 9.38577479,16.4131274 C8.63287527,15.6602279 7.7294094,15.2837838 6.67535008,15.2837838 Z M25.5730335,28.007722 C24.5189741,28.007722 23.6155083,28.371618 22.8626088,29.0994208 C22.1097092,29.8272237 21.7332651,30.7181414 21.7332651,31.7722008 C21.7332651,32.8262601 22.1097092,33.729726 22.8626088,34.4826255 C23.6155083,35.235525 24.5315223,35.6119691 25.6106783,35.6119691 C26.6898342,35.6119691 27.5933001,35.235525 28.321103,34.4826255 C29.0489058,33.729726 29.4128018,32.8262601 29.4128018,31.7722008 C29.4128018,30.7181414 29.0489058,29.8272237 28.321103,29.0994208 C27.5933001,28.371618 26.6772861,28.007722 25.5730335,28.007722 Z" id="share" fill="#565656"></path>
    </g>
</svg>