<?xml version="1.0" encoding="UTF-8"?>
<svg width="21px" height="23px" viewBox="0 0 21 23" version="1.1" xmlns="http://www.w3.org/2000/svg" xmlns:xlink="http://www.w3.org/1999/xlink">
    <!-- Generator: Sketch 52.3 (67297) - http://www.bohemiancoding.com/sketch -->
    <title>Untitled</title>
    <desc>Created with Sketch.</desc>
    <g id="Page-1" stroke="none" stroke-width="1" fill="none" fill-rule="evenodd">
        <path d="M0.760499886,12.3436293 L0.760499886,3.996139 C0.760499886,3.67052604 0.804900986,3.46332091 0.893704519,3.37451737 C0.982508052,3.28571384 1.18971319,3.22651237 1.51532614,3.1969112 C3.11378973,3.1969112 4.65302788,2.90090386 6.13308676,2.30888031 C7.52434211,1.77605911 8.84157475,1.09524224 10.0848242,0.266409266 C10.2920325,0.118403378 10.4474363,0.0444015444 10.5510404,0.0444015444 C10.6546445,0.0444015444 10.8248488,0.118403378 11.0616582,0.266409266 C13.0745383,1.5392599 14.9837856,2.39768118 16.7894574,2.84169884 C17.884701,3.07850826 18.8171241,3.1969112 19.5867547,3.1969112 C19.6755582,3.1969112 19.8235619,3.21911175 20.0307702,3.26351351 C20.2379784,3.30791528 20.3563813,3.4337184 20.3859825,3.64092664 L20.3859825,6.26061776 C20.3563813,8.83592021 20.3711817,10.7599679 20.4303841,12.0328185 C20.4599852,13.8680915 19.9123717,15.5553334 18.7875269,17.0945946 C17.307468,19.1962782 15.4426218,20.7947178 13.1929323,21.8899614 C12.2160935,22.3339791 11.3576722,22.5559846 10.6176427,22.5559846 C9.72960741,22.5559846 8.69358174,22.2599772 7.50953463,21.6679537 C5.1710416,20.395103 3.33579612,18.7078612 2.00374313,16.6061776 C1.14530898,15.2149223 0.730898708,13.794087 0.760499886,12.3436293 Z M3.02497865,9.19111969 C3.02497865,9.42792911 3.03977902,9.78313792 3.06938019,10.2567568 L3.02497865,12.4324324 C3.02497865,13.2316642 3.21738342,13.9716826 3.60219873,14.6525097 C4.75664465,16.8429968 6.53268867,18.5302386 8.93038406,19.7142857 C9.96642527,20.2471069 11.0172513,20.2619073 12.0828937,19.7586873 C14.2733809,18.7522472 15.9902234,17.2574102 17.2334729,15.2741313 C17.8550976,14.2676912 18.1363046,13.2168652 18.0771022,12.1216216 L18.0771022,5.55019305 C18.0771022,5.43178834 18.0623018,5.35038632 18.0327007,5.30598456 C18.0030995,5.26158279 17.9290976,5.23938224 17.8106929,5.23938224 C17.2482706,5.20978106 16.5526533,5.09137813 15.7238203,4.88416988 C14.1845591,4.49935458 12.5565188,3.78893697 10.8396505,2.75289575 C10.6620434,2.6936934 10.5140397,2.6936934 10.395635,2.75289575 C9.53720087,3.28571695 8.5899774,3.75932869 7.55393618,4.17374517 C6.3402879,4.70656637 5.00825489,5.06177517 3.55779718,5.23938224 C3.32098776,5.26898342 3.18778446,5.29858415 3.15818328,5.32818533 C3.12858211,5.35778651 3.11378174,5.44658871 3.11378174,5.59459459 L3.11378174,5.72779923 C3.05457938,6.52703102 3.02497865,7.68145963 3.02497865,9.19111969 Z M14.9245925,8.83590734 C14.9245925,9.10231793 14.8357903,9.30952307 14.6581833,9.45752896 L9.81841494,14.2528958 C9.64080788,14.4305028 9.44840311,14.519305 9.24119487,14.519305 C9.03398662,14.519305 8.85638222,14.4305028 8.70837633,14.2528958 C7.93874572,13.5424675 7.19872738,12.8024492 6.48829911,12.0328185 C6.31069205,11.8848126 6.22188985,11.7072082 6.22188985,11.5 C6.22188985,11.2927918 6.30329186,11.1151874 6.46609834,10.9671815 C6.62890482,10.8191756 6.80650922,10.7451737 6.99891687,10.7451737 C7.19132453,10.7451737 7.37632911,10.8191756 7.55393618,10.9671815 C8.20516209,11.5888062 8.69357419,12.0772183 9.01918714,12.4324324 C9.10799068,12.521236 9.18199251,12.5656371 9.24119487,12.5656371 C9.30039722,12.5656371 9.37439906,12.521236 9.46320259,12.4324324 L13.5037431,8.39189189 C13.7405525,8.15508247 13.999559,8.06628027 14.2807702,8.12548263 C14.5619813,8.18468498 14.7617863,8.36228938 14.880191,8.65830116 L14.9245925,8.83590734 Z" id="î‹" fill="#D5D5D5"></path>
    </g>
</svg>