<svg xmlns="http://www.w3.org/2000/svg" viewBox="0 0 32 32"><g fill="#5c2e0e"><path d="M28.6 4.1s0 2.1-1.3 2.6l1.4-.3s1.3 3.7.1 5.5l1.9-2.3-1-2.6-1.1-2.9zM.5 24.9l3.2 4.6 3.8-1.2-2.7-1.1z"/><path d="M24.7 6.2l4-4.2.8 2.2-.4 1.3 1.1.4 1.3 3.4-14 13.2z"/><path d="M31.5 9.3c-1.3.9-3.2 1.1-3.2 1.1 1.9-1.2 2.1-3.3 2.1-3.3-1 1.2-2.4 1.4-3.6 1.7-1.1-1.3-2.9-1.9-5.4-1.2-6 1.5-5.3 7.9-5.3 7.9-6.2.4-10.5-5.1-10.5-5.1-2.5 4.4 1.2 7.2 1.2 7.2-1.3.1-2.2-.7-2.2-.7-.7 4.4 3.9 5.3 3.9 5.3-1 .8-2.3.4-2.3.4.7 3.9 4.8 3.8 4.8 3.8-3.6 3.2-7.6 2.3-7.6 2.3s.4 2.4 7.3 2.8c8.1.5 14.7-5.3 16.7-11.7.7-2.3 1.1-4.8.9-6.9 1.7-.9 3.2-3.6 3.2-3.6z"/><path d="M29.7 5.9c-1.3 1-3.4 1.1-3.4 1.1 1.9-1.2 2.3-5 2.3-5-1 1.2-3 2.8-4.2 3.1-1.1-1.4-2.6-1.7-5.3-1.2-7.7 1.4-6.6 6.6-6.6 6.6-6.4.5-9.3-4.7-9.3-4.7-3.2 5.5-.8 7.3-.8 7.3-.6 0-1-.3-1-.3C.7 17.3 4 18.7 4 18.7c-.8.2-1.7.3-1.7.3.8 4 3.2 5.1 3.2 5.1-2.1 1-5 .8-5 .8S1 28.6 8.1 29c8.4.5 15.2-5.5 17.2-12.2.7-2.4 1.1-5 .9-7.2 2-1 3.5-3.7 3.5-3.7z"/></g><g fill="#1b5e80"><path d="M1.3 25.4l3 3.2 3.5-1.1-2.5-1zM23.8 7l3.9-2.9.3.8-.3 1.1.9.3 1.3 3.2-12.8 12.6zm-8.3 8.5c-5.7.3-9.5-4.7-9.5-4.7-2.3 4.1 1 6.7 1 6.7-1.2.1-2-.7-2-.7-.6 4.1 3.6 4.9 3.6 4.9-.9.7-2.2.4-2.2.4.5 2.6 2.6 3.3 3.7 3.5 3.4-2.2 6.4-6.4 5.4-10.1z"/><path d="M29.9 9.5c-1.2.9-2.8 1.4-2.8 1.4C28.8 9.8 29 7.8 29 7.8c-.9 1.1-2.2 1.3-3.3 1.5-1-1.2-2.6-1.7-5-1.1-5.6 1.4-4.9 7.3-4.9 7.3h-.2c1 3.7-2 7.9-5.4 10.1.4.1.7.1.7.1-3.4 2.9-7 2.2-7 2.2s.4 2.2 6.8 2.6c7.5.4 13.6-4.9 15.5-10.9.7-2.1 1-5.1.8-7.1 1.7-.8 2.9-3 2.9-3z"/></g><path d="M28.4 6.6c-1.2.9-3.1 1-3.1 1C27.1 6.5 27.7 4 27.7 4c-1 1.1-2.7 1.7-3.8 2-1.1-1.3-2.8-1.8-5.2-1.2-5.8 1.4-5 7.6-5 7.6-6 .4-10.2-4.9-10.2-4.9-2.4 4.2 1.2 7 1.2 7-1.3.1-2.1-.7-2.1-.7C2 18 6.4 19 6.4 19c-1 .8-2.2.4-2.2.4.7 3.7 4.6 3.7 4.6 3.7-3.5 3-7.3 2.2-7.3 2.2s.4 2.3 7.1 2.7c7.8.4 14.1-5.1 16-11.4.7-2.2 1-4.6.9-6.7 1.6-.7 2.9-3.3 2.9-3.3z" fill="#1da1f2"/><g fill="#73d7ef"><path d="M13.7 13.4v.2c-4.7.7-8.4-3.3-8.4-3.3-1.6 3.5 1.3 5.5 1.3 5.5-1 .1-1.7-.4-1.7-.4-.2 3.4 3.3 3.9 3.3 3.9-.7.7-1.8.4-1.8.4.8 2.9 3.9 2.7 3.9 2.7s-.1 0-.1.1c3.7-.1 7.3-.7 10.6-2.2.7-1.2 1.3-2.5 1.6-3.8l.3-1.6c-2.4 1.9-6.8.3-9-1.5zm12.6-5.2c-.9.8-2.7.6-2.7.6 1.4-1 1.8-2.7 1.8-2.7-.7 1-2.2.9-3.1.7-.9-.9-2.3-1.3-4.2-.7-4 1.3-3.7 5.2-3.6 6.1 2.2 1.7 6.6 3.3 9.1 1.3.2-1.3.1-2.1-.1-3.2 1.5-.7 2.8-2.1 2.8-2.1zM3.6 26.1s1.4 1.1 6.7 1.1c4.6-.1 8.3-2.7 10.5-6.1-3.3 1.5-7 2.2-10.6 2.2-2.6 2.5-6.6 2.8-6.6 2.8z"/><path d="M12.5 14.8l1-1.2 1-1.3 9 .8s0 7.4-5.4 11-9.5.6-9.5.6 1.6-1.1 1.9-3c.4-2.1 2-6.9 2-6.9z"/></g><g fill="#bbf5ff"><path d="M14.7 15.1v.1c-3.5.8-6.4-2-6.4-2-1 2.7 1.3 4 1.3 4-.7.2-1.3-.2-1.3-.2 0 2.5 2.7 2.7 2.7 2.7-.5.5-1.3.4-1.3.4.8 2.1 3 1.8 3 1.8l-.1.1c2.7-.3 5.4-1 7.7-2.3.5-.9.8-1.9.9-2.9.1-.4.1-.8.1-1.2-1.5 1.6-4.8.7-6.6-.5zm7.8-5.2c.9-.9-.9-1.6-1.5-1.7-.7-.6-2-.3-3.4.3-2.8 1.2-2.4 4.1-2.3 4.7 1.7 1.2 5.1 2.1 6.8.4 0-1 0-1.6-.2-2.4.9-.6.6-1.3.6-1.3z"/><path d="M8.2 25.8s1.2.6 5-.4c3.3-.9 5.5-3.4 6.4-6.3-2.1 1.6-4.6 2.8-7.2 3.5-1.5 2.3-4.2 3.2-4.2 3.2z"/><path d="M13.9 16.2l.7-1 .8-2.8 6.6.6s.4 6.6-3.3 9.6-6.9 1-6.9 1 1.1-.9 1.2-2.4c.1-1.3.9-5 .9-5z"/></g></svg>