<svg width="113" height="32" viewBox="0 0 113 32" fill="none" xmlns="http://www.w3.org/2000/svg">
<path d="M24.1332 6.02037C24.1147 5.85419 23.967 5.78033 23.8562 5.76186C23.7454 5.7434 21.5297 5.72494 21.5297 5.72494C21.5297 5.72494 19.6648 3.91541 19.4801 3.73076C19.2955 3.54612 18.9446 3.60151 18.7969 3.63844C18.7969 3.63844 18.4461 3.74923 17.8552 3.93387C17.7629 3.61998 17.6152 3.23222 17.4121 2.84446C16.7474 1.57041 15.7872 0.905686 14.6055 0.905686C14.5316 0.905686 14.4393 0.905686 14.3654 0.92415C14.3285 0.887221 14.2916 0.850292 14.2546 0.794898C13.7376 0.240962 13.0914 -0.017542 12.3159 0.000922545C10.8018 0.0378517 9.30614 1.12726 8.06901 3.0845C7.20118 4.45088 6.55492 6.16809 6.37027 7.49753C4.6346 8.03301 3.41594 8.4023 3.39748 8.42076C2.52964 8.69773 2.49272 8.71619 2.38193 9.5471C2.28961 10.1564 0 27.9009 0 27.9009L19.2216 31.2245L27.5491 29.1565C27.5491 29.1565 24.1516 6.16809 24.1332 6.02037ZM16.8951 4.22931C16.4519 4.35856 15.9534 4.52474 15.3994 4.69092C15.381 3.93387 15.2887 2.86293 14.9378 1.9397C16.1011 2.16128 16.655 3.45379 16.8951 4.22931ZM14.4024 5.00482C13.3868 5.31872 12.2974 5.65108 11.1895 6.0019C11.5034 4.82017 12.0943 3.63844 12.8144 2.86293C13.0914 2.5675 13.4607 2.2536 13.9038 2.06895C14.3285 2.93679 14.4024 4.17391 14.4024 5.00482V5.00482ZM12.3343 1.01647C12.6852 1.01647 12.9806 1.09033 13.2391 1.25651C12.8329 1.45962 12.4266 1.77352 12.0574 2.17974C11.0972 3.21376 10.3586 4.80171 10.0632 6.35273C9.13996 6.6297 8.25366 6.90667 7.42275 7.16517C7.97669 4.72785 10.0078 1.09033 12.3343 1.01647V1.01647Z" fill="#92979B"/>
<path d="M23.8563 5.76188C23.7455 5.74342 21.5297 5.72495 21.5297 5.72495C21.5297 5.72495 19.6648 3.91543 19.4802 3.73078C19.4063 3.65692 19.314 3.62 19.2217 3.62V31.2245L27.5492 29.1565C27.5492 29.1565 24.1517 6.18657 24.1333 6.02039C24.0963 5.85421 23.9671 5.78035 23.8563 5.76188Z" fill="#62676A"/>
<path d="M14.6054 10.0456L13.6452 13.6647C13.6452 13.6647 12.5743 13.1661 11.2818 13.2584C9.3984 13.3692 9.37994 14.551 9.3984 14.8649C9.50919 16.4897 13.756 16.8406 13.9961 20.6258C14.1807 23.617 12.4081 25.6482 9.86002 25.8143C6.7949 25.999 5.11462 24.2079 5.11462 24.2079L5.76088 21.4567C5.76088 21.4567 7.45962 22.7308 8.80754 22.6569C9.69383 22.6015 10.0077 21.8814 9.9708 21.3644C9.84155 19.2594 6.37021 19.3702 6.14864 15.9173C5.96399 12.9999 7.88431 10.0456 12.1127 9.76863C13.7745 9.62092 14.6054 10.0456 14.6054 10.0456V10.0456Z" fill="white"/>
<path d="M38.8309 17.7639C37.8708 17.2469 37.3722 16.8037 37.3722 16.1944C37.3722 15.4189 38.0554 14.9203 39.1448 14.9203C40.4004 14.9203 41.5083 15.4373 41.5083 15.4373L42.3946 12.7415C42.3946 12.7415 41.5821 12.1137 39.2002 12.1137C35.8766 12.1137 33.5685 14.0156 33.5685 16.6929C33.5685 18.207 34.6395 19.3703 36.0797 20.2012C37.243 20.8659 37.6492 21.3275 37.6492 22.0292C37.6492 22.7493 37.0768 23.3217 35.9874 23.3217C34.381 23.3217 32.8669 22.4908 32.8669 22.4908L31.9252 25.1866C31.9252 25.1866 33.3285 26.1283 35.6735 26.1283C39.0894 26.1283 41.5452 24.448 41.5452 21.4198C41.5637 19.7765 40.3265 18.6132 38.8309 17.7639V17.7639ZM52.4578 12.0768C50.7775 12.0768 49.448 12.8708 48.4325 14.0894L48.3771 14.071L49.8358 6.42663H46.0321L42.3392 25.8698H46.1429L47.4169 19.2226C47.9155 16.7114 49.208 15.1604 50.4267 15.1604C51.276 15.1604 51.6084 15.7328 51.6084 16.5637C51.6084 17.0807 51.553 17.7269 51.4422 18.2439L50.002 25.8513H53.8057L55.3013 17.9854C55.4675 17.1545 55.5783 16.1574 55.5783 15.5112C55.5783 13.3878 54.4335 12.0768 52.4578 12.0768V12.0768ZM64.1828 12.0768C59.6035 12.0768 56.5754 16.2128 56.5754 20.829C56.5754 23.7833 58.4033 26.1468 61.8193 26.1468C66.3062 26.1468 69.3528 22.1215 69.3528 17.3946C69.3344 14.6803 67.728 12.0768 64.1828 12.0768ZM62.2994 23.2294C61.0068 23.2294 60.4529 22.1215 60.4529 20.7551C60.4529 18.5763 61.5793 15.0126 63.6473 15.0126C64.9952 15.0126 65.4383 16.1759 65.4383 17.3023C65.4383 19.6473 64.312 23.2294 62.2994 23.2294ZM79.0652 12.0768C76.4986 12.0768 75.0399 14.3295 75.0399 14.3295H74.9845L75.2061 12.2799H71.8455C71.6794 13.6647 71.3839 15.7512 71.07 17.3207L68.4296 31.243H72.2333L73.2858 25.6113H73.3596C73.3596 25.6113 74.1352 26.1098 75.5939 26.1098C80.0623 26.1098 82.9797 21.5306 82.9797 16.896C82.9981 14.3664 81.8533 12.0768 79.0652 12.0768V12.0768ZM75.4277 23.2848C74.4306 23.2848 73.8582 22.7308 73.8582 22.7308L74.486 19.1672C74.9291 16.8037 76.1663 15.2158 77.4957 15.2158C78.659 15.2158 79.0098 16.2867 79.0098 17.3207C79.0098 19.7765 77.5511 23.2848 75.4277 23.2848V23.2848ZM88.4267 6.62974C87.2081 6.62974 86.2479 7.58989 86.2479 8.84548C86.2479 9.97182 86.968 10.7473 88.039 10.7473H88.0944C89.2761 10.7473 90.3101 9.95336 90.3286 8.53159C90.3286 7.42371 89.59 6.62974 88.4267 6.62974ZM83.1089 25.8698H86.9126L89.4977 12.3907H85.657L83.1089 25.8698ZM99.1731 12.3537H96.5327L96.6619 11.726C96.8835 10.4334 97.659 9.27017 98.9146 9.27017C99.5978 9.27017 100.133 9.45481 100.133 9.45481L100.872 6.48202C100.872 6.48202 100.207 6.14966 98.8038 6.14966C97.4559 6.14966 96.108 6.53741 95.074 7.42371C93.7814 8.53159 93.1721 10.1195 92.8582 11.726L92.7474 12.3537H90.9748L90.4209 15.2158H92.1935L90.1809 25.8698H93.9846L95.9972 15.2158H98.6192L99.1731 12.3537ZM108.332 12.3907C108.332 12.3907 105.95 18.3917 104.879 21.6599H104.823C104.749 20.6074 103.882 12.3907 103.882 12.3907H99.8932L102.183 24.7804C102.238 25.0574 102.201 25.2235 102.109 25.4082C101.666 26.2576 100.927 27.0885 100.041 27.6978C99.3208 28.2148 98.5268 28.5472 97.8806 28.7687L98.9331 32C99.7086 31.8339 101.297 31.2061 102.663 29.932C104.399 28.3071 106.005 25.7959 107.648 22.38L112.301 12.3907H108.332V12.3907Z" fill="#404242"/>
</svg>
