<svg width="80" height="32" viewBox="0 0 80 32" fill="none" xmlns="http://www.w3.org/2000/svg">
<path fill-rule="evenodd" clip-rule="evenodd" d="M0 0V2.16H15.6V0H0ZM17.76 0V2.16H40C38.532 0.868374 36.6724 0.107645 34.72 0H17.76ZM44.32 2.16V0H56.96L57.76 2.16H44.32ZM67.36 0L66.56 2.16H79.84V0H67.36ZM0 6.48V4.24H15.6V6.48H0ZM17.76 4.24V6.48H42.56C42.4254 5.69255 42.1547 4.93456 41.76 4.24H17.76ZM44.32 6.48V4.24H58.48L59.2 6.48H44.32ZM65.76 4.24L65.04 6.48H79.84V4.24H65.76ZM4.48 10.72V8.48H11.2V10.72H4.48ZM22.24 8.48V10.72H28.96V8.48H22.24ZM35.52 10.72V8.48H42.72C42.6889 9.24135 42.5543 9.99493 42.32 10.72H35.52ZM48.8 8.48V10.72H60.72L59.92 8.48H48.8ZM63.52 10.72L64.32 8.48H75.52V10.72H63.52ZM4.48 12.8V14.96H11.2V12.8H4.48ZM22.24 14.96V12.8H41.36C40.8609 13.6339 40.2096 14.3666 39.44 14.96H22.24ZM48.8 12.8V14.96H55.52V13.76L56 14.96H68.32L68.8 13.76V14.96H75.52V12.8H62.88L62.16 14.64L61.52 12.8H48.8ZM4.48 19.2V17.04H11.2V19.2H4.48ZM22.24 17.04V19.2H41.36C40.8609 18.3661 40.2096 17.6334 39.44 17.04H22.24ZM48.8 19.2V17.04H55.52V19.2H48.8ZM56.8 17.04L57.6 19.2H66.88L67.6 17.04H56.8ZM68.8 19.2V17.04H75.52V19.2H68.8ZM4.48 21.28V23.52H11.2V21.28H4.48ZM22.24 23.52V21.28H28.96V23.52H22.24ZM35.52 21.28V23.52H42.72C42.6889 22.7586 42.5543 22.0051 42.32 21.28H35.52ZM48.8 23.52V21.28H55.52V23.52H48.8ZM58.32 21.28L59.12 23.52H65.28L66.08 21.28H58.32ZM68.8 23.52V21.28H75.52V23.52H68.8ZM0.16 25.52V27.76H15.68V25.52H0.16ZM17.76 27.76V25.52H42.56C42.4375 26.3106 42.166 27.0707 41.76 27.76H17.76ZM44.48 25.52V27.76H55.52V25.52H44.48ZM60.64 27.76L59.84 25.52H64.56L63.84 27.76H60.64ZM68.8 25.52V27.76H80V25.52H68.8ZM0.16 32V29.84H15.68V32H0.16ZM17.76 29.84V32H34.72C36.6724 31.8924 38.532 31.1316 40 29.84H17.76ZM44.48 32V29.84H55.52V32H44.48ZM61.36 29.84L62.16 32H62.32L63.12 29.84H61.36ZM68.8 32V29.84H80V32H68.8Z" fill="#404242"/>
</svg>
