<svg width="106" height="32" viewBox="0 0 106 32" fill="none" xmlns="http://www.w3.org/2000/svg">
<path fill-rule="evenodd" clip-rule="evenodd" d="M89.6025 16.3655C89.6025 15.8056 89.9198 15.5256 90.5731 15.5256H91.9729C92.6448 15.5256 93.2048 15.8429 93.6527 16.3282L102.164 25.2686C102.444 25.5485 102.798 25.6045 102.798 25.2686V16.2349C102.798 15.7869 103.022 15.5256 103.582 15.5256H104.963C105.393 15.5256 105.747 15.7123 105.747 16.2162V29.9534C105.747 30.7373 105.673 30.9052 104.982 30.9052H103.694C103.153 30.9052 102.854 30.7933 102.481 30.4013L93.3914 20.8264C92.9995 20.3971 92.6075 20.3971 92.5888 20.9384V30.2147C92.5888 30.6439 92.3835 30.8866 91.8796 30.8866H90.3118C89.8451 30.8866 89.6212 30.6813 89.6025 30.252V16.3655ZM81.5581 15.5256H83.7232C84.0031 15.5256 84.2271 15.7496 84.2271 16.0483V30.3826C84.2271 30.6626 84.0031 30.9052 83.7232 30.9052H81.5581C81.2781 30.9052 81.0541 30.6626 81.0541 30.3826V16.0483C81.0355 15.7683 81.2781 15.5256 81.5581 15.5256ZM57.8354 16.5895C57.8354 15.8803 58.19 15.5256 58.8993 15.5256H60.7471C61.7363 15.5256 61.8856 15.8056 62.4455 16.8135L66.4771 24.2793C66.6824 24.6526 66.9437 24.6526 67.1677 24.2793L71.5352 16.5709C71.8525 15.9923 72.2071 15.5256 72.6551 15.5256H74.8388C75.4734 15.5256 75.772 15.619 75.7907 16.4775V30.0653C75.7907 30.7186 75.5854 30.8866 75.0068 30.9052H73.439C72.8417 30.9052 72.6551 30.6066 72.6551 30.0653V20.1171L67.2797 30.0653C66.9064 30.7559 66.5891 30.7373 66.2158 30.0653L60.7471 19.9678V30.0653C60.7284 30.6253 60.5044 30.8866 60.0191 30.9052H58.6566C58.134 30.9052 57.8167 30.6813 57.8167 30.0653V16.5895H57.8354ZM41.9332 18.8853C41.9332 18.288 42.3251 18.008 43.0344 18.008H47.1966C48.9324 18.008 50.6682 18.68 50.6682 20.2664C50.6682 21.6103 49.5296 22.3942 47.4019 22.3942H43.053C42.3998 22.3942 41.9332 22.1142 41.9332 21.517V18.8853ZM38.6855 16.4775C38.6855 15.8803 39.0775 15.507 39.7867 15.5256H47.7565C51.2655 15.5256 54.0278 16.6455 54.0465 20.0985C54.0278 22.3755 52.9826 23.5141 50.6869 24.2233C50.1083 24.3913 50.0149 24.7459 50.3696 25.2872L53.8785 30.308C54.1771 30.7373 54.0278 30.9053 53.5425 30.9239H51.3961C50.7988 30.9239 50.5749 30.8679 50.2762 30.4573L46.6926 25.4925C46.282 24.8953 45.7034 24.6526 44.9195 24.6526H42.0078L41.9518 30.0653C41.9518 30.6253 41.7092 30.8866 41.2426 30.9052H39.4508C38.8722 30.9052 38.6855 30.588 38.6855 30.0653V16.4775ZM27.1508 20.1731C27.2815 19.8745 27.4681 19.8558 27.6174 20.1731L30.3798 25.8845C30.5851 26.3138 30.4358 26.5377 29.8758 26.5377H24.8364C24.4258 26.5377 24.2578 26.2764 24.4445 25.9218L27.1508 20.1731ZM25.8256 16.7762C26.1989 16.0296 26.4229 15.5256 27.6174 15.5443C28.756 15.5443 28.9799 15.9736 29.3719 16.7388L36.1471 29.9347C36.5578 30.7559 36.3525 30.9239 35.6059 30.9239H33.5901C32.9742 30.9239 32.8062 30.8493 32.5822 30.3826L32.0223 29.2254C31.8356 28.8335 31.6677 28.7588 30.8464 28.7588H23.8659C23.3246 28.7588 23.0819 28.8895 22.914 29.2441L22.4287 30.2707C22.1674 30.8306 21.9994 30.9239 21.3835 30.9239H19.853C19.3117 30.9239 19.1251 30.6813 19.3864 30.14L25.8256 16.7762ZM14.7015 19.2026C15.2615 19.4825 15.6348 19.5199 15.8401 19.1466L16.5493 17.8027C16.792 17.3921 16.6613 17.0748 16.3067 16.8695C13.0964 15.0777 7.17972 14.5551 3.70811 16.6268C-0.622073 19.2772 -1.16335 25.6605 2.10296 28.6095C5.48124 31.9131 11.5472 31.5212 16.2694 29.916C17.1279 29.5801 17.2213 29.2254 17.2213 27.9749V23.4767C17.2213 22.8235 16.8106 22.3942 16.1387 22.3755H9.96074C9.49413 22.3755 9.27015 22.6182 9.27015 23.0661V23.9994C9.27015 24.4286 9.53146 24.6526 10.0354 24.6526H13.619C14.1603 24.6526 14.3842 24.8766 14.3842 25.2872V27.7136C10.4834 29.1881 6.30249 28.7588 4.58535 26.6124C2.36426 23.5701 3.83876 19.0906 6.93708 18.4186C9.68077 17.7467 12.2752 18.008 14.7015 19.2026Z" fill="#404242"/>
<path fill-rule="evenodd" clip-rule="evenodd" d="M96.8257 1.52727L92.0289 9.90767C91.4316 10.8036 91.6929 11.7368 92.7755 11.7368L102.5 11.7181C103.825 11.7181 104.03 10.9902 103.284 9.75835L98.5615 1.50861C98.1136 0.836686 97.2363 0.818019 96.8257 1.52727Z" fill="#404242"/>
</svg>
