<svg width="535" height="185" viewBox="0 0 535 185" fill="none" xmlns="http://www.w3.org/2000/svg">
<path fill-rule="evenodd" clip-rule="evenodd" d="M457.004 182.421C460.78 180.97 464.437 179.26 468.065 177.483C478.173 172.538 487.998 167.083 497.682 161.367C505.218 156.921 512.649 152.315 519.821 147.303C522.345 145.537 524.858 143.744 527.153 141.688C528.11 140.83 528.989 139.877 529.848 138.918C530.638 138.037 531.144 136.981 531.392 135.826C532.167 132.202 532.658 128.543 532.614 124.83C532.566 120.536 531.991 116.307 530.841 112.164C528.533 103.833 524.485 96.4044 519.057 89.6973C518.959 89.572 518.828 89.4714 518.5 89.154C518.637 89.8364 518.75 90.234 518.792 90.6412C518.848 91.22 518.92 91.8067 518.857 92.3771C518.607 94.6028 517.636 96.5231 516.065 98.0898C514.89 99.2619 513.624 100.358 512.3 101.364C510.016 103.102 507.691 104.794 505.322 106.418C496.421 112.514 487.214 118.132 477.923 123.61C467.266 129.89 438.97 144.958 438.97 144.958C441.691 146.457 449.498 151.214 454.154 161.126C458.631 170.662 457.543 179.328 457.004 182.421Z" fill="#E77D44"/>
<path fill-rule="evenodd" clip-rule="evenodd" d="M422.764 161.814L407.425 180.321C406.206 181.791 407.255 184.01 409.169 184.01H433.036C433.307 182.013 435.331 169.691 422.764 161.814Z" fill="#E77D44"/>
<path fill-rule="evenodd" clip-rule="evenodd" d="M519.057 89.6964C518.955 89.5718 518.827 89.4712 518.499 89.1537C518.637 89.8356 518.75 90.2361 518.792 90.6403C518.848 91.2186 518.923 91.8065 518.857 92.3763C518.607 94.6025 517.635 96.5228 516.067 98.0895C514.89 99.2617 513.623 100.36 512.299 101.366C510.017 103.102 507.691 104.794 505.325 106.418C498.791 110.892 492.093 115.107 485.317 119.197C518.386 113.261 528.336 127.189 531.329 136.081C531.349 135.998 531.374 135.912 531.391 135.825C532.166 132.202 532.658 128.542 532.614 124.829C532.563 120.535 531.991 116.306 530.843 112.163C528.533 103.832 524.485 96.4042 519.057 89.6964Z" fill="#E46E38"/>
<path fill-rule="evenodd" clip-rule="evenodd" d="M533.879 122.831C533.463 122.561 533.507 122.208 533.495 121.888C533.414 119.765 533.102 117.673 532.681 115.596C530.786 106.298 527.143 97.7888 521.128 90.3546C518.469 87.0664 515.404 84.1932 511.929 81.7893C507.616 78.8064 503.288 75.8357 498.889 72.9836C488.161 66.0271 477.152 59.5338 466.01 53.2567C456.978 48.1669 447.864 43.2337 438.543 38.6818C434.954 36.9247 431.347 35.2008 427.606 33.7757C426.247 33.2564 424.867 32.7728 423.462 32.3927C421.662 31.903 419.835 31.9475 418.032 32.4879C417.018 32.7932 416.118 33.298 415.322 33.9895C415.114 34.1708 414.896 34.3365 414.559 34.6069C414.607 34.2955 414.604 34.1286 414.66 33.9835C418.708 23.6912 424.715 14.8084 433.586 8.00309C438.09 4.54864 443.103 2.06155 448.513 0.34306C450.087 -0.158694 451.631 -0.0514766 453.199 0.290054C455.285 0.746632 457.268 1.50077 459.235 2.30791C464.168 4.3324 468.959 6.6707 473.695 9.11322C488.327 16.657 502.563 24.8814 516.299 33.954C519.599 36.1351 522.839 38.3999 525.948 40.8508C527.358 41.9609 528.678 43.1626 529.927 44.448C530.877 45.4214 531.519 46.5701 531.901 47.8669C532.717 50.6245 533.14 53.4555 533.447 56.3046C534.598 66.971 534.917 77.6728 534.985 88.3898C535.033 95.9902 534.976 103.588 534.642 111.183C534.476 114.913 534.193 118.641 533.96 122.368C533.954 122.49 533.918 122.612 533.879 122.831Z" fill="#ED9847"/>
<path fill-rule="evenodd" clip-rule="evenodd" d="M406.913 129.764C408.174 131.283 410.651 130.345 410.553 128.378C410.174 120.783 409.571 108.518 409.503 105.674C409.206 93.6632 409.334 81.6584 409.695 69.6507C409.924 62.0858 410.448 54.533 411.003 46.982C411.146 45.0268 411.322 43.0589 411.632 41.1151C412.469 35.9066 414.174 30.977 416.69 26.3384C421.224 17.9748 427.382 11.0394 435.248 5.62853C435.546 5.42373 435.937 5.30266 436.092 4.77681C435.919 4.80693 435.839 4.8009 435.773 4.83042C434.569 5.40325 433.361 5.96765 432.169 6.55795C417.725 13.7397 403.748 21.7383 390.143 30.3868C385.538 33.3123 381.004 36.3427 376.667 39.6581C374.927 40.9874 373.258 42.403 371.74 43.9913C370.899 44.8665 369.996 46.5844 369.686 47.7572C369.332 49.0986 369.013 50.4545 368.768 51.82C368.13 55.3787 367.838 58.9813 367.567 62.5815C367.165 67.8822 366.914 73.1913 366.801 78.5033C366.604 87.8969 366.959 116.546 367.126 128.835C367.153 130.753 369.582 131.577 370.789 130.076L387.124 109.761C387.937 108.745 389.482 108.737 390.313 109.737L406.913 129.764Z" fill="#F5BD44"/>
<path fill-rule="evenodd" clip-rule="evenodd" d="M438.774 144.949L422.764 161.814C430.127 166.302 434.181 174.659 433.135 183.192L433.036 184.008L457.004 182.42C458.42 174.754 457.172 167.531 453.753 160.372C450.337 153.217 445.344 148.073 438.774 144.949Z" fill="#FFFFFE"/>
<path fill-rule="evenodd" clip-rule="evenodd" d="M235.576 153.346C235.576 153.993 235.551 154.638 235.502 155.28C235.795 156.421 236.223 157.525 236.779 158.569C239.307 162.995 244.244 165.365 249.188 164.526C254.133 163.689 258.057 159.815 259.052 154.792C259.171 154.164 259.23 153.528 259.23 152.888V143.07C259.23 142.013 259.732 141.529 260.678 141.65C263.077 141.874 265.428 142.475 267.649 143.432C268.581 143.919 269.488 144.453 270.366 145.033C271.252 145.542 271.762 146.537 271.667 147.571V152.526C271.584 155.633 272.773 158.633 274.945 160.804C277.979 164.232 282.685 165.542 286.998 164.158C291.428 163.108 294.82 159.46 295.624 154.883C296.368 151.454 295.639 147.865 293.622 145.023C291.606 142.181 288.496 140.358 285.078 140.018H283.306H260.943C259.407 140.018 259.112 139.716 259.29 138.175C259.515 135.755 260.124 133.387 261.091 131.166C261.566 130.216 262.098 129.298 262.686 128.416C263.169 127.672 264.001 127.247 264.872 127.299H283.808C287.365 127.273 290.882 128.078 294.088 129.655C301.58 133.155 306.813 140.318 307.972 148.659C308.164 149.948 308.254 151.252 308.238 152.556C308.445 158.688 306.206 164.643 302.034 169.052C297.364 174.324 290.734 177.33 283.778 177.33C276.824 177.33 270.192 174.324 265.522 169.052C260.853 174.303 254.235 177.297 247.296 177.297C240.634 177.297 234.27 174.539 229.641 169.673C228.939 170.507 228.18 171.299 227.368 172.041C223.054 176.412 217.103 178.71 211.012 178.359H210.922H188.776C187.851 178.359 187.403 177.905 187.493 177.029C187.696 173.426 188.84 169.942 190.806 166.933C191.381 166.093 192.335 165.605 193.343 165.633H210.773C217.177 165.72 222.559 160.78 223.1 154.316C223.642 147.853 219.159 142.065 212.832 141.058C212.409 140.897 202.64 141.022 200.27 141.052H200.269C199.968 141.055 199.787 141.058 199.76 141.058C198.715 141.058 198.298 140.605 198.387 139.547C198.613 136.684 199.383 133.891 200.655 131.324C201.051 130.622 201.49 129.946 201.969 129.299C202.372 128.718 203.028 128.369 203.729 128.362H210.893C216.974 128.256 222.867 130.505 227.368 134.649C232.593 139.424 235.576 146.217 235.576 153.346ZM8.61985 171.059C3.41817 166.288 0.449677 159.505 0.449677 152.388C0.449677 145.272 3.41817 138.488 8.61985 133.716C12.7361 129.363 18.5183 127.045 24.4553 127.371H37.6802C37.9535 127.273 38.3429 127.276 38.892 127.341C41.277 127.576 43.6081 128.198 45.7977 129.184C46.7338 129.669 47.6385 130.215 48.5074 130.816C49.2397 131.309 49.6594 132.161 49.6086 133.052V136.707V152.328C49.6177 153.408 49.556 154.486 49.4223 155.553C49.8051 161.044 55.597 165.199 61.3882 166.064L62.2572 166.255L133 166.035C134.318 165.83 135.596 165.393 136.774 164.735C140.379 163.08 142.938 159.762 143.616 155.861C143.646 155.491 143.646 155.118 143.616 154.748V145.724C143.616 144.671 144.068 144.249 145.124 144.34C148.046 144.568 150.899 145.343 153.533 146.626C154.234 147.022 154.91 147.464 155.552 147.949C156.135 148.353 156.484 149.016 156.486 149.724V150.747V153.965C156.556 160.129 154.272 166.088 150.097 170.631C150.037 170.696 149.976 170.761 149.916 170.826C149.75 171.401 149.449 171.906 148.982 172.314C146.723 174.295 144.113 175.828 141.3 176.86C139.772 177.504 138.176 177.999 136.533 178.331C135.899 178.443 135.416 178.396 135.05 178.279C134.135 178.366 133.213 178.404 132.286 178.392H62.2149L61.6622 177.882L61.6283 178.394C52.2929 178.394 46.4085 174.368 42.7264 169.701C39.0093 173.622 34.0562 176.243 28.5933 177.012C27.3228 177.218 26.039 177.318 24.7528 177.314C18.7081 177.547 12.8328 175.254 8.50012 170.969L8.61985 171.059ZM37.0531 153.879C36.9037 154.321 36.813 154.815 36.7919 155.363C36.1188 158.175 34.4825 160.675 32.1459 162.395C29.3455 164.458 25.8086 165.203 22.4307 164.443C17.9698 163.629 14.3924 160.235 13.293 155.772C11.8986 151.367 13.1805 146.542 16.5669 143.445C18.7178 141.22 21.6839 140.006 24.7528 140.091H36.66C36.7997 140.105 36.9394 140.107 37.0767 140.097V151.814V153.657C37.0688 153.731 37.0616 153.805 37.0531 153.879ZM156.421 172.452C158.868 172.759 161.35 172.276 163.5 171.076C167.103 169.43 169.659 166.13 170.337 162.249C170.368 161.871 170.368 161.491 170.337 161.113V137.177C170.337 136.13 170.759 135.711 171.844 135.831C174.767 136.042 177.621 136.815 180.248 138.104C180.952 138.494 181.627 138.934 182.266 139.421C182.845 139.813 183.194 140.461 183.201 141.157V160.364C183.345 166.527 181.09 172.507 176.905 177.059C173.319 180.976 168.571 183.658 163.349 184.719C161.301 185.078 160.819 183.791 160.819 183.791L155.638 173.948C155.638 173.948 154.794 172.601 156.421 172.601V172.452Z" fill="#E77D44"/>
<path fill-rule="evenodd" clip-rule="evenodd" d="M282.157 21.3902C287.023 21.3902 290.982 17.4243 290.959 12.5676C290.935 7.73981 286.996 3.82456 282.16 3.82155C277.296 3.82155 273.337 7.79041 273.36 12.6471C273.385 17.4719 277.323 21.3902 282.157 21.3902ZM223.295 108.855C227.65 108.13 230.744 104.455 230.705 100.119C230.667 95.8196 227.511 92.1724 223.22 91.5243C219.303 90.9358 214.451 92.9663 213.071 98.6706C211.558 92.6272 206.441 90.9358 202.843 91.5394C198.487 92.2676 195.391 95.9389 195.429 100.279C195.465 104.577 198.624 108.225 202.914 108.869C206.867 109.465 211.696 107.399 213.062 101.723C214.577 107.764 219.685 109.459 223.295 108.855ZM136.007 94.527C134.976 93.3404 133.725 92.473 132.235 91.9436C130.718 91.4051 129.166 91.2834 127.593 91.596C123.264 92.4604 120.305 96.1196 120.418 100.434C120.529 104.693 123.75 108.308 127.972 108.882C132.039 109.437 136.714 107.264 138.072 101.602C138.449 103.251 139.057 104.669 140.102 105.87C141.133 107.057 142.383 107.924 143.873 108.454C145.39 108.992 146.942 109.114 148.516 108.798C152.845 107.936 155.807 104.275 155.69 99.9608C155.577 95.701 152.356 92.0893 148.137 91.5123C144.085 90.9593 139.398 93.1205 138.037 98.7928C137.657 97.146 137.051 95.7275 136.007 94.527ZM227.842 74.693C217.818 85.6147 200.672 85.4394 190.915 74.5978C185.923 79.9069 179.811 82.7849 172.464 82.7963C165.14 82.8084 159.037 79.9605 153.974 74.6424C148.979 79.9159 142.888 82.7849 135.571 82.7963C128.246 82.8114 122.144 79.9695 117.068 74.6424C112.082 79.9129 105.991 82.7789 98.68 82.7963C91.3564 82.8144 85.2501 79.9786 80.1657 74.6454C75.183 79.9045 69.0978 82.7758 61.7893 82.7963C54.4688 82.8168 48.3595 79.9876 43.3168 74.705C42.983 75.0375 42.6631 75.3531 42.3438 75.6682C35.0021 82.9806 27.6543 90.2877 20.3217 97.6092C19.596 98.3375 18.7984 98.641 17.7777 98.4953C16.3476 98.2929 14.9864 97.8887 13.6844 97.2821C11.8129 96.4051 10.0774 95.3089 8.46523 94.021C7.50436 93.2518 7.48077 92.7049 8.34913 91.8393C16.4195 83.801 24.4712 75.7483 32.5803 67.7491C33.835 66.5125 34.9991 65.2578 35.7568 63.6676C39.3016 56.2413 34.5177 47.4187 26.3373 46.3966C18.8553 45.4599 13.3144 50.9419 12.6159 56.8635C12.1769 60.5939 13.1952 63.855 15.6939 66.6372C16.5894 67.6329 17.6253 68.4948 18.5807 69.4345C20.1868 71.0193 21.7845 72.6089 23.3761 74.2087C24.1253 74.961 24.1162 75.579 23.3071 76.2211C21.1483 77.933 18.8408 79.4105 16.1897 80.252C15.3232 80.5285 14.4155 80.6857 13.5139 80.8345C12.8336 80.9477 12.189 80.7339 11.7052 80.24C9.56761 78.0583 7.28303 75.9983 5.36068 73.6407C1.29403 68.6526 -0.399142 62.8496 0.0785755 56.4383C0.861064 45.9532 8.44165 37.059 18.7694 34.4876C32.5718 31.0512 46.6457 40.1267 49.0434 54.0626C49.2611 55.3233 49.3306 56.6075 49.4255 57.8827C49.6021 60.1716 50.0163 62.3834 51.2143 64.4013C53.7788 68.7147 58.7646 71.0668 63.7057 70.2549C68.7072 69.4345 72.7224 65.6144 73.7202 60.6914C73.8454 60.0855 73.8871 59.4518 73.8931 58.8278C73.9288 55.6088 73.9349 52.3923 73.9584 49.1728C73.9675 48.1319 74.4543 47.6476 75.4309 47.7633C77.8521 48.0488 80.2377 48.5216 82.4703 49.5233C83.4257 49.9546 84.3098 50.5461 85.2174 51.084C86.1638 51.6484 86.5581 52.4845 86.5278 53.5934C86.4831 55.2131 86.5369 56.8394 86.5133 58.4622C86.4686 61.6552 87.6357 64.3838 89.8392 66.6257C93.228 70.0676 97.3781 71.2271 102.02 69.9043C106.633 68.59 109.592 65.4506 110.584 60.7752C112.231 53.0163 106.493 46.7381 99.919 46.158C99.3246 46.105 98.7247 46.0695 98.1243 46.0695C90.6277 46.0635 83.1336 46.0635 75.6395 46.0635C74.0776 46.0635 73.7825 45.778 73.9524 44.2588C74.2185 41.8717 74.747 39.5352 75.7768 37.3566C76.2249 36.4109 76.8278 35.5339 77.3986 34.6514C77.9029 33.8696 78.6697 33.5485 79.5955 33.557C80.7989 33.569 81.9992 33.56 83.202 33.56C88.3492 33.56 93.5001 33.5425 98.6498 33.566C102.271 33.5811 105.765 34.2792 109.025 35.87C116.895 39.7135 121.616 45.9418 123.052 54.571C123.264 55.8287 123.335 57.1213 123.35 58.3971C123.415 64.5356 128.145 69.711 134.29 70.3199C140.87 70.9741 146.692 66.477 147.642 60.0024C147.695 59.6391 147.704 59.2651 147.704 58.8964C147.707 51.1491 147.707 43.4029 147.707 35.6531C147.707 33.9973 147.988 33.7148 149.612 33.9015C151.923 34.1695 154.183 34.6803 156.306 35.6411C157.234 36.0657 158.094 36.6428 158.972 37.1746C159.912 37.7457 160.303 38.5956 160.276 39.6931C160.241 41.0869 160.268 42.4843 160.268 43.8782C160.268 48.6644 160.262 53.4506 160.268 58.2363C160.276 64.232 164.585 69.3212 170.52 70.2489C178.265 71.459 184.684 65.4361 184.678 58.2929C184.666 40.8911 184.675 23.4887 184.675 6.08396C184.675 5.79845 184.669 5.51294 184.678 5.22742C184.708 4.31487 185.117 3.86311 186.001 3.95226C189.566 4.31186 192.981 5.12081 195.967 7.25191C196.868 7.89401 197.251 8.68489 197.248 9.78176C197.224 16.9015 197.235 24.0206 197.235 31.1434C197.235 40.1448 197.227 49.1427 197.238 58.1441C197.248 63.5845 200.687 68.2515 205.84 69.8597C212.907 72.0589 220.392 67.4425 221.53 60.1716C221.587 59.809 221.577 59.4313 221.577 59.0627C221.581 51.3454 221.581 43.6258 221.581 35.9055C221.581 35.6796 221.578 35.4507 221.581 35.2218C221.604 34.1756 222.02 33.7593 223.08 33.8666C225.916 34.1491 228.663 34.7906 231.204 36.123C231.908 36.491 232.556 36.9699 233.207 37.4306C233.801 37.8529 234.106 38.4498 234.132 39.1787C234.142 39.5208 234.142 39.8623 234.142 40.2038C234.142 46.2147 234.126 52.2285 234.147 58.2393C234.165 63.614 237.632 68.269 242.752 69.8628C243.907 70.2187 245.093 70.4067 246.299 70.4067C258.43 70.4097 270.557 70.3922 282.688 70.4097C284.718 70.4127 286.698 70.2187 288.534 69.3273C293.14 67.089 295.592 63.4152 295.721 58.2929C295.762 56.7057 295.762 55.0914 295.538 53.5247C294.828 48.5451 290.618 44.4016 285.617 43.6113C279.064 42.5735 273.083 46.5478 271.62 52.9507C271.432 53.7747 271.355 54.6391 271.342 55.4866C271.307 58.0785 271.307 60.671 271.336 63.2635C271.352 64.3573 270.945 65.1506 270.062 65.8017C268.134 67.2197 265.947 68.0226 263.648 68.5454C262.508 68.8074 261.344 68.9797 260.182 69.1074C259.197 69.217 258.776 68.8219 258.776 67.8588C258.773 63.3586 258.684 58.8543 258.827 54.3566C259.012 48.5662 261.164 43.489 265.037 39.175C269.357 34.3569 274.8 31.5897 281.255 31.0307C294.822 29.8622 305.609 39.3003 307.744 50.8762C308.036 52.4634 308.155 54.0957 308.215 55.71C308.29 57.755 308.269 59.8024 307.949 61.8419C307.089 67.3178 304.689 72.0029 300.704 75.8615C296.532 79.8984 291.511 82.1542 285.73 82.7192C284.482 82.8415 283.217 82.8054 281.959 82.8054C270.202 82.8114 258.444 82.8023 246.687 82.8114C239.438 82.8204 233.312 80.2285 228.286 75.0321C228.209 74.952 228.131 74.8652 228.045 74.7912C228.003 74.7586 227.947 74.7406 227.842 74.693Z" fill="#FFFFFE"/>
</svg>
