<?xml version="1.0" encoding="UTF-8" standalone="no"?>
<svg width="26px" height="22px" viewBox="0 0 26 22" version="1.1" xmlns="http://www.w3.org/2000/svg" xmlns:xlink="http://www.w3.org/1999/xlink">
    <!-- Generator: Sketch 50.2 (55047) - http://www.bohemiancoding.com/sketch -->
    <title>icon-telegram</title>
    <desc>Created with Sketch.</desc>
    <defs></defs>
    <g id="Page-1" stroke="none" stroke-width="1" fill="none" fill-rule="evenodd">
        <g id="cryptotab_share-box-upd--b" transform="translate(-748.000000, -513.000000)" fill="#FFFFFF">
            <g id="center" transform="translate(140.000000, -133.000000)">
                <g id="share" transform="translate(1.000000, 351.000000)">
                    <g id="share-icons" transform="translate(200.000000, 276.000000)">
                        <g id="@" transform="translate(380.000000, 0.000000)">
                            <g id="up">
                                <path d="M48.9802229,39.6172203 L52.904291,21.0504028 C53.095709,20.2807938 53,19.703587 52.6171641,19.3187825 C52.2343282,18.933978 51.8514923,18.933978 51.2772384,19.1263802 L28.2113746,28.073085 C27.7328297,28.2654873 27.3499938,28.4578895 27.1585758,28.7464929 C26.9671579,29.0350963 26.9671579,29.2274986 27.0628668,29.4199008 C27.1585758,29.6123031 27.4457028,29.8047053 27.9242477,29.9009064 L33.8582043,31.7287279 L47.5445882,23.0706264 C47.9274241,22.7820231 48.2145511,22.7820231 48.405969,22.8782242 C48.501678,22.9744253 48.501678,23.0706264 48.3102601,23.2630287 L37.2080186,33.4603481 L36.7294737,39.6172203 C37.1123096,39.6172203 37.4951455,39.424818 37.9736904,39.0400135 L40.8449597,36.2501808 L46.7789164,40.6754326 C48.0231331,41.3488405 48.693096,40.964036 48.9802229,39.6172203 Z" id="icon-telegram"></path>
                            </g>
                        </g>
                    </g>
                </g>
            </g>
        </g>
    </g>
</svg>