<?xml version="1.0" encoding="UTF-8" standalone="no"?>
<svg width="16px" height="22px" viewBox="0 0 16 22" version="1.1" xmlns="http://www.w3.org/2000/svg" xmlns:xlink="http://www.w3.org/1999/xlink">
    <!-- Generator: Sketch 50.2 (55047) - http://www.bohemiancoding.com/sketch -->
    <title>icon-tumblr</title>
    <desc>Created with Sketch.</desc>
    <defs></defs>
    <g id="Page-1" stroke="none" stroke-width="1" fill="none" fill-rule="evenodd">
        <g id="cryptotab_share-box-upd--b" transform="translate(-904.000000, -247.000000)">
            <g id="center" transform="translate(140.000000, -133.000000)">
                <g id="share" transform="translate(1.000000, 351.000000)">
                    <g id="more" transform="translate(726.000000, 0.000000)">
                        <g id="active">
                            <g id="dropdown">
                                <g id="tumblr" transform="translate(20.000000, 20.000000)">
                                    <g id="up">
                                        <g id="icon-tumblr" transform="translate(17.000000, 9.000000)">
                                            <path d="M3.7512605,0.998001306 C3.7512605,0.998001306 3.7512605,0 4.94827563,0 L10.8907563,0 L10.8907563,5.02747844 L14.2789916,5.02747844 L14.2789916,10.2305153 L11.0117647,10.2305153 L11.0117647,15.4637127 L13.9159664,15.4637127 L15.2180168,19.7104197 C15.2180168,19.7104197 13.8886315,21.09998 11.1327731,21.4592488 C9.149462,21.717804 5.80840336,21.3344851 4.11428571,19.710419 C4.11428571,19.710419 2.42016807,18.2153924 2.42016807,15.844882 L2.42016807,10.2305153 L-1.34346316e-17,10.2305153 L-1.34346316e-17,5.61425822 C-1.34346316e-17,5.61425822 3.23407059,5.60677257 3.7512605,0.998001306 Z" id="White" fill="#FFFFFF"></path>
                                            <path d="M3.14621849,6.23805199 C3.14621849,6.23805199 6.84931765,5.34013611 6.89747899,0.998109641 L9.90841008,0.998109641 L9.9072002,5.98852458 L13.3109244,5.98852458 L13.3109244,9.22103556 L9.9072002,9.22103556 L9.9072002,15.4705662 C9.9072002,15.4705662 10.0436975,17.7163129 13.3109244,16.4686758 L14.2789916,19.4630047 C14.2789916,19.4630047 10.3892975,22.1122372 7.38151261,19.4630047 C7.38151261,19.4630047 5.80840336,18.2153677 5.56493456,15.8448573 L5.56493456,9.22103556 L3.14621849,9.22103556 L3.14621849,6.33250662 L3.14621849,6.23805199 Z" id="Blue" fill="#36465D"></path>
                                        </g>
                                    </g>
                                </g>
                            </g>
                        </g>
                    </g>
                </g>
            </g>
        </g>
    </g>
</svg>