<?xml version="1.0" encoding="UTF-8" standalone="no"?>
<svg width="14px" height="24px" viewBox="0 0 14 24" version="1.1" xmlns="http://www.w3.org/2000/svg" xmlns:xlink="http://www.w3.org/1999/xlink">
    <!-- Generator: Sketch 50.2 (55047) - http://www.bohemiancoding.com/sketch -->
    <title>icon-ok</title>
    <desc>Created with Sketch.</desc>
    <defs></defs>
    <g id="Page-1" stroke="none" stroke-width="1" fill="none" fill-rule="evenodd">
        <g id="cryptobrowser-tab_main_v2-share--c" transform="translate(-1076.000000, -519.000000)" fill="#FFFFFF" fill-rule="nonzero">
            <g id="Group">
                <g id="slider" transform="translate(238.000000, 391.000000)">
                    <g id="bottom" transform="translate(5.000000, 0.000000)">
                        <g id="drop" transform="translate(750.000000, 0.000000)">
                            <g id="active">
                                <g id="dropdown">
                                    <g id="ok" transform="translate(70.000000, 120.000000)">
                                        <g id="up">
                                            <path d="M22.5249005,25.4400573 C23.7960089,25.1525666 25.0199226,24.6525829 26.1463323,23.9494808 C26.9989817,23.4151232 27.2569789,22.2964409 26.7189288,21.4464373 C26.1809102,20.596465 25.0545635,20.3402233 24.1987363,20.8745809 C21.6439343,22.4714039 18.3560427,22.468279 15.8012407,20.8745809 C14.9454765,20.3402233 13.8190668,20.596465 13.2810482,21.4464373 C12.7430296,22.2932847 13.0010268,23.4151232 13.8536762,23.9494808 C14.9800544,24.6525829 16.2039681,25.1525666 17.4750765,25.4400573 L13.9921138,28.9024446 C13.2779333,29.6117652 13.2779333,30.7586029 13.9921138,31.4679861 C14.3507928,31.8210996 14.8164464,31.9992188 15.2821,31.9992188 C15.7508998,31.9992188 16.2165534,31.8210996 16.5752639,31.4679861 L20.0015617,28.0649718 L23.4278909,31.4679861 C24.1421027,32.177338 25.2967977,32.177338 26.0110096,31.4679861 C26.7252214,30.7586342 26.7252214,29.6086716 26.0110096,28.9024446 L22.5249005,25.4400573 Z M20.0015617,11.6311318 C21.4268706,11.6311318 22.5847118,12.7810944 22.5847118,14.1966733 C22.5847118,15.6091273 21.4268706,16.7590899 20.0015617,16.7590899 C18.579462,16.7590899 17.418443,15.6091273 17.418443,14.1966733 C17.418443,12.7810944 18.579462,11.6311318 20.0015617,11.6311318 Z M20.0015617,20.3870968 C23.4405076,20.3870968 26.2375437,17.6090622 26.2375437,14.196642 C26.2375437,10.7780346 23.4405076,8 20.0015617,8 C16.5626472,8 13.7656111,10.7780346 13.7656111,14.1935484 C13.7656111,17.6090622 16.5626472,20.3870968 20.0015617,20.3870968 Z" id="icon-ok"></path>
                                        </g>
                                    </g>
                                </g>
                            </g>
                        </g>
                    </g>
                </g>
            </g>
        </g>
    </g>
</svg>