<?xml version="1.0" encoding="UTF-8" standalone="no"?>
<svg width="21px" height="22px" viewBox="0 0 21 22" version="1.1" xmlns="http://www.w3.org/2000/svg" xmlns:xlink="http://www.w3.org/1999/xlink">
    <!-- Generator: Sketch 50.2 (55047) - http://www.bohemiancoding.com/sketch -->
    <title>icon-viber</title>
    <desc>Created with Sketch.</desc>
    <defs></defs>
    <g id="Page-1" stroke="none" stroke-width="1" fill="none" fill-rule="evenodd">
        <g id="cryptotab_share-box-upd--b" transform="translate(-902.000000, -298.000000)">
            <g id="center" transform="translate(140.000000, -133.000000)">
                <g id="share" transform="translate(1.000000, 351.000000)">
                    <g id="more" transform="translate(726.000000, 0.000000)">
                        <g id="active">
                            <g id="dropdown">
                                <g id="viber" transform="translate(20.000000, 70.000000)">
                                    <g id="up">
                                        <g id="icon-viber" transform="translate(15.000000, 10.000000)">
                                            <path d="M18.6300353,2.14526008 C18.0783791,1.64343186 15.8551384,0.0389021774 10.9035259,0.0157916675 C10.9035259,0.0157916675 5.06128789,-0.334167482 2.21327993,2.26081263 C0.628099297,3.8356288 0.0697966849,6.14007679 0.0133017777,8.99917702 C-0.0465163593,11.8582772 -0.122950645,17.210011 5.07458081,18.6626717 C5.07458081,18.6626717 5.07790404,18.6626717 5.07790404,18.6626717 L5.07458081,20.8779791 C5.07458081,20.8779791 5.04134851,21.7759875 5.63620665,21.9575701 C6.3540243,22.1787707 6.77607449,21.4986614 7.46398306,20.7624266 C7.83950803,20.3596434 8.36125512,19.7653731 8.75339624,19.3130674 C12.3059289,19.6102026 15.0409471,18.9300933 15.3500075,18.8310482 C16.0678251,18.5999431 20.128812,18.0816074 20.7868115,12.7298736 C21.4680736,7.21306475 20.4544885,3.72007625 18.6300353,2.14526008 Z M19.2315399,12.3336934 C18.6732373,16.8039264 15.3799165,17.0878555 14.7750887,17.2793426 C14.5158768,17.3618801 12.1165048,17.9561504 9.09901214,17.7580603 C9.09901214,17.7580603 6.84918554,20.4520854 6.14798405,21.1553052 C6.03831746,21.2642548 5.9087115,21.3104758 5.82230752,21.2873653 C5.70267125,21.2576518 5.66943895,21.1156872 5.66943895,20.9076926 C5.67276218,20.6105575 5.68937833,17.2265185 5.68937833,17.2265185 C5.6860551,17.2265185 5.6860551,17.2265185 5.68937833,17.2265185 C1.29606849,16.0148675 1.55195719,11.4554941 1.60180564,9.06850855 C1.65165408,6.68152302 2.10361334,4.72703419 3.44287496,3.41303662 C5.85221659,1.2472517 10.8137987,1.57079883 10.8137987,1.57079883 C15.0043915,1.59060784 17.0116224,2.84187688 17.4768745,3.26116756 C19.0188532,4.57846662 19.8064587,7.72479747 19.2315399,12.3336934 Z" id="Shape" fill="#FFFFFF" fill-rule="nonzero"></path>
                                            <path d="M13,9 C12.9365079,7.7293666 12.2698413,7.06525912 11,7" id="Shape" stroke="#FFFFFF" stroke-width="0.555144311" stroke-linecap="round" stroke-linejoin="round"></path>
                                            <path d="M14.9985922,10 C15.024874,8.8980322 14.6832103,7.97853309 13.9698464,7.23792487 C13.2564826,6.49731664 12.2690368,6.08586762 11,6" id="Shape" stroke="#FFFFFF" stroke-width="0.555144311" stroke-linecap="round" stroke-linejoin="round"></path>
                                            <path d="M15,10 C14.9879227,8.14343551 14.5048309,6.68594563 13.553744,5.61711972 C12.602657,4.55176403 11.4160628,4.01041064 10,4" id="Shape" stroke="#FFFFFF" stroke-width="0.555144311" stroke-linecap="round" stroke-linejoin="round"></path>
                                            <path d="M11.6161671,12.9883676 C11.6161671,12.9883676 12.0068225,13.0211958 12.21364,12.7618531 L12.6207095,12.2497334 C12.8176786,11.9936736 13.2936873,11.8328155 13.7598475,12.0921582 C14.0191902,12.239885 14.4853504,12.5254902 14.7742385,12.7388734 C15.0828234,12.9653879 15.7164074,13.4939216 15.7164074,13.4939216 C16.0184267,13.7466987 16.0873658,14.12094 15.8838311,14.5148782 C15.8838311,14.518161 15.8805483,14.5214438 15.8805483,14.5214438 C15.6704479,14.8924023 15.3881255,15.2436639 15.0302983,15.5686629 C15.0270155,15.5719457 15.0270155,15.5719457 15.0237327,15.5752286 C14.7315618,15.8181571 14.4426738,15.9593183 14.1603514,15.9921465 C14.1275232,15.9987121 14.0848466,16.001995 14.0356043,15.9987121 C13.9108572,15.9987121 13.7893929,15.982298 13.6679286,15.9429042 L13.6580802,15.9297729 C13.2214653,15.8083087 12.4959624,15.4997237 11.2846024,14.8333116 C10.496726,14.3999795 9.84344511,13.956799 9.29193161,13.5169014 C8.99976076,13.2871041 8.70102428,13.0244786 8.39572217,12.7224593 C8.38587371,12.7126108 8.37602526,12.7027624 8.3661768,12.6929139 C8.35632834,12.6830655 8.34647989,12.673217 8.33663143,12.6633686 C8.33663143,12.6633686 8.33663143,12.6633686 8.33663143,12.6633686 C8.32678298,12.6535201 8.31693452,12.6436717 8.30708607,12.6338232 C8.29723761,12.6239747 8.28738916,12.6141263 8.2775407,12.6042778 C7.9755214,12.2989757 7.71289592,12.0002392 7.48309863,11.7080684 C7.04320096,11.1565549 6.60002046,10.4999912 6.16668842,9.71539758 C5.50027627,8.50403756 5.19169134,7.77853468 5.07022705,7.34191982 L5.05709578,7.33207137 C5.01770196,7.21060708 4.99800505,7.0891428 5.00128787,6.9643957 C4.99800505,6.91515342 5.00128787,6.87247678 5.0078535,6.8396486 C5.04068169,6.55732621 5.18184288,6.26843818 5.42477145,5.97626734 C5.42805427,5.97298452 5.42805427,5.97298452 5.43133709,5.9697017 C5.75633611,5.61187449 6.10431487,5.3295521 6.47855618,5.11945172 C6.481839,5.11945172 6.48512182,5.1161689 6.48512182,5.1161689 C6.87906003,4.91263415 7.25330134,4.98157334 7.50607836,5.28359264 C7.50936118,5.28687546 8.03461213,5.91717661 8.26112661,6.22576154 C8.47450981,6.51793239 8.76339783,6.98080979 8.90784185,7.24015245 C9.16718451,7.70631267 9.0063264,8.18232135 8.75026656,8.37929046 L8.23814688,8.78635995 C7.97880422,8.99646033 8.0116324,9.38383291 8.0116324,9.38383291 C8.0116324,9.38383291 8.77324629,12.2628647 11.6161671,12.9883676 Z" id="Shape" fill="#FFFFFF" fill-rule="nonzero"></path>
                                        </g>
                                    </g>
                                </g>
                            </g>
                        </g>
                    </g>
                </g>
            </g>
        </g>
    </g>
</svg>