<svg xmlns="http://www.w3.org/2000/svg" width="14.206" height="14.117" viewBox="0 0 14.206 14.117">
  <g id="Group_44" data-name="Group 44" transform="translate(-913.407 -924.683)">
    <path id="Path_42" data-name="Path 42" d="M8.879,5.238H5.771V3.463A3.552,3.552,0,0,0,3.374.044a.861.861,0,0,0-.8.133.863.863,0,0,0-.355.71V3.329L0,6.171v6.881l.843.444a6.364,6.364,0,0,0,2.708.621H7.991a2.041,2.041,0,0,0,2-1.731l.666-5.327V7.014A1.781,1.781,0,0,0,8.879,5.238Z" transform="translate(924.061 938.8) rotate(180)" fill="#ff7f11"/>
    <path id="Path_43" data-name="Path 43" d="M2.22,0H.444A.419.419,0,0,0,0,.444V7.991a.419.419,0,0,0,.444.444H2.22a.419.419,0,0,0,.444-.444V.444A.419.419,0,0,0,2.22,0Z" transform="translate(927.612 933.118) rotate(180)" fill="#ff7f11"/>
  </g>
</svg>
