<svg xmlns="http://www.w3.org/2000/svg" width="14.206" height="14.117" viewBox="0 0 14.206 14.117">
  <g id="Group_43" data-name="Group 43" transform="translate(-819.407 -921.356)">
    <path id="Path_42" data-name="Path 42" d="M16.879,5.438H13.771V3.663a3.552,3.552,0,0,0-2.4-3.418.861.861,0,0,0-.8.133.863.863,0,0,0-.355.71V3.529L8,6.371v6.881l.843.444a6.364,6.364,0,0,0,2.708.621h4.439a2.041,2.041,0,0,0,2-1.731l.666-5.327V7.214A1.781,1.781,0,0,0,16.879,5.438Z" transform="translate(814.958 921.156)" fill="#ff7f11"/>
    <path id="Path_43" data-name="Path 43" d="M2.22,13H.444A.419.419,0,0,0,0,13.444v7.547a.419.419,0,0,0,.444.444H2.22a.419.419,0,0,0,.444-.444V13.444A.419.419,0,0,0,2.22,13Z" transform="translate(819.407 914.038)" fill="#ff7f11"/>
  </g>
</svg>
