<svg xmlns="http://www.w3.org/2000/svg" width="14.084" height="19.055" viewBox="0 0 14.084 19.055">
  <g id="lock-open" transform="translate(-7 -1)">
    <path id="Path_32" data-name="Path 32" d="M13.828,8.456v-2.9a3.728,3.728,0,0,1,7.456,0h.828a4.557,4.557,0,0,0-9.113,0v2.9Z" transform="translate(-3.515)" fill="#bdcddf"/>
    <path id="Path_33" data-name="Path 33" d="M20.256,21H7.828A.828.828,0,0,0,7,21.828v9.113a.828.828,0,0,0,.828.828H20.256a.828.828,0,0,0,.828-.828V21.828A.828.828,0,0,0,20.256,21Zm-5.8,6.586v1.7h-.828v-1.7a2.071,2.071,0,1,1,.828,0Z" transform="translate(0 -11.715)" fill="#bdcddf"/>
  </g>
</svg>
