<svg xmlns="http://www.w3.org/2000/svg" width="41.32" height="41.32" viewBox="0 0 41.32 41.32">
  <path id="Path_93" data-name="Path 93" d="M20.64-33.813h1.241q7.607,0,14.414,6.466,4.785,5.806,5.265,10.51a24.393,24.393,0,0,1,.36,2.823v1.7a21.393,21.393,0,0,1-2.8,9.549A21.367,21.367,0,0,1,27.487,6.526a25.819,25.819,0,0,1-5.986.981h-.48q-7.908,0-14.674-6.366A21.4,21.4,0,0,1,.6-13.653v-.24a.917.917,0,0,1,.12-.48q0-.14-.12-.14a23.026,23.026,0,0,1,3.183-9.649,20.841,20.841,0,0,1,11.731-8.809A19.2,19.2,0,0,1,20.64-33.813Zm-2.8,13.193.12,3.784q0,.18-.36.38H15.515v4.264H17.6q.18,0,.36.38V-1.3l.06.741h4.344V-11.932q.04-.26.24-.26h3.543q.24,0,.621-4.024v-.24H22.6a.212.212,0,0,1-.24-.24v-2.943q0-1.882,2.2-2.082h2.442v-3.664q0-.36-2.562-.36h-.621q-4.224,0-5.505,3.163A13.089,13.089,0,0,0,17.837-20.62Z" transform="translate(-0.601 33.813)" fill="#7d8a98"/>
</svg>
