<svg id="grid-45" xmlns="http://www.w3.org/2000/svg" width="16.215" height="16.216" viewBox="0 0 16.215 16.216">
  <path id="Path_34" data-name="Path 34" d="M7.486,1H1.541A.54.54,0,0,0,1,1.541V7.486a.54.54,0,0,0,.541.541H7.486a.54.54,0,0,0,.541-.541V1.541A.54.54,0,0,0,7.486,1Z" transform="translate(-1 -1)" fill="#fff"/>
  <path id="Path_35" data-name="Path 35" d="M24.486,1H18.541A.54.54,0,0,0,18,1.541V7.486a.54.54,0,0,0,.541.541h5.946a.54.54,0,0,0,.541-.541V1.541A.54.54,0,0,0,24.486,1Z" transform="translate(-8.811 -1)" fill="#fff"/>
  <path id="Path_36" data-name="Path 36" d="M7.486,18H1.541A.54.54,0,0,0,1,18.541v5.946a.54.54,0,0,0,.541.541H7.486a.54.54,0,0,0,.541-.541V18.541A.54.54,0,0,0,7.486,18Z" transform="translate(-1 -8.811)" fill="#fff"/>
  <path id="Path_37" data-name="Path 37" d="M24.486,18H18.541a.54.54,0,0,0-.541.541v5.946a.54.54,0,0,0,.541.541h5.946a.54.54,0,0,0,.541-.541V18.541A.54.54,0,0,0,24.486,18Z" transform="translate(-8.811 -8.811)" fill="#fff"/>
</svg>
