<?xml version="1.0" encoding="UTF-8" standalone="no"?>
<svg
   xmlns:dc="http://purl.org/dc/elements/1.1/"
   xmlns:cc="http://creativecommons.org/ns#"
   xmlns:rdf="http://www.w3.org/1999/02/22-rdf-syntax-ns#"
   xmlns:svg="http://www.w3.org/2000/svg"
   xmlns="http://www.w3.org/2000/svg"
   xmlns:xlink="http://www.w3.org/1999/xlink"
   xmlns:sodipodi="http://sodipodi.sourceforge.net/DTD/sodipodi-0.dtd"
   xmlns:inkscape="http://www.inkscape.org/namespaces/inkscape"
   width="46.210999mm"
   height="14.285mm"
   viewBox="0 0 46.210998 14.285"
   version="1.1"
   id="svg8"
   inkscape:version="1.0.1 (3bc2e813f5, 2020-09-07)"
   sodipodi:docname="Orange + Dark Blue logo.svg"
   inkscape:export-filename="D:\Work\Trending Views\01_TRENDING VIEWS\02_LOGO 3\Logo for website\Black logo.png"
   inkscape:export-xdpi="96"
   inkscape:export-ydpi="96">
  <defs
     id="defs2">
    <linearGradient
       inkscape:collect="always"
       xlink:href="#linearGradient3699"
       id="linearGradient5025-5-5-7-8"
       x1="97.690231"
       y1="120.34615"
       x2="116.00713"
       y2="90.768158"
       gradientUnits="userSpaceOnUse"
       gradientTransform="translate(0,811.30564)" />
    <linearGradient
       inkscape:collect="always"
       id="linearGradient3699">
      <stop
         style="stop-color:#ff3f00;stop-opacity:1"
         offset="0"
         id="stop3695" />
      <stop
         style="stop-color:#ff7f11;stop-opacity:1"
         offset="1"
         id="stop3697" />
    </linearGradient>
  </defs>
  <sodipodi:namedview
     id="base"
     pagecolor="#ffffff"
     bordercolor="#666666"
     borderopacity="1.0"
     inkscape:pageopacity="0.0"
     inkscape:pageshadow="2"
     inkscape:zoom="2"
     inkscape:cx="153.98831"
     inkscape:cy="73.524753"
     inkscape:document-units="mm"
     inkscape:current-layer="layer1"
     inkscape:document-rotation="0"
     showgrid="false"
     showguides="true"
     inkscape:guide-bbox="true"
     inkscape:snap-bbox="true"
     inkscape:bbox-paths="true"
     inkscape:bbox-nodes="true"
     inkscape:snap-bbox-edge-midpoints="true"
     inkscape:snap-bbox-midpoints="true"
     inkscape:window-width="1920"
     inkscape:window-height="1001"
     inkscape:window-x="-9"
     inkscape:window-y="-9"
     inkscape:window-maximized="1">
    <sodipodi:guide
       position="26.229999,-0.00016593933"
       orientation="0,-1"
       id="guide60" />
    <sodipodi:guide
       position="26.229999,14.285166"
       orientation="0,-1"
       id="guide62" />
    <sodipodi:guide
       position="46.210982,12.779072"
       orientation="1,0"
       id="guide64" />
    <sodipodi:guide
       position="0.0001335144,-0.00016593933"
       orientation="1,0"
       id="guide66" />
  </sodipodi:namedview>
  <metadata
     id="metadata5">
    <rdf:RDF>
      <cc:Work
         rdf:about="">
        <dc:format>image/svg+xml</dc:format>
        <dc:type
           rdf:resource="http://purl.org/dc/dcmitype/StillImage" />
        <dc:title></dc:title>
      </cc:Work>
    </rdf:RDF>
  </metadata>
  <g
     inkscape:label="Layer 1"
     inkscape:groupmode="layer"
     id="layer1">
    <g
       id="g3717"
       transform="matrix(0.3772612,0,0,0.3772612,-36.854601,-337.19091)">
      <g
         id="g4226-0-5-2-4"
         transform="translate(0.2340275,811.50687)"
         style="fill:#2b2d42;fill-opacity:1">
        <path
           d="m 142.11585,97.359857 c 0,0.159219 0.1433,0.302516 0.30252,0.302516 h 1.91063 c 0.15921,0 0.30251,-0.143297 0.30251,-0.302516 v -8.502295 h 2.27683 c 0.17514,0 0.30252,-0.143297 0.30252,-0.302516 v -1.735487 c 0,-0.159219 -0.12738,-0.302516 -0.30252,-0.302516 h -7.06932 c -0.17514,0 -0.30252,0.143297 -0.30252,0.302516 v 1.735487 c 0,0.159219 0.12738,0.302516 0.30252,0.302516 h 2.27683 z"
           style="font-style:normal;font-variant:normal;font-weight:500;font-stretch:normal;font-size:15.9219px;line-height:1.25;font-family:'Brandon Grotesque';-inkscape-font-specification:'Brandon Grotesque Medium';fill:#2b2d42;fill-opacity:1;stroke:none;stroke-width:0.39805"
           id="path3362-82-7-4-1" />
        <path
           d="m 148.80302,97.359857 c 0,0.159219 0.12738,0.302516 0.30252,0.302516 h 1.8947 c 0.15922,0 0.30252,-0.143297 0.30252,-0.302516 v -4.060085 h 1.09861 l 2.11761,4.219304 c 0.0318,0.06369 0.12738,0.143297 0.25475,0.143297 h 2.11762 c 0.27067,0 0.38212,-0.254751 0.27067,-0.461735 l -2.1813,-4.044163 c 1.3852,-0.557266 2.35644,-1.735487 2.35644,-3.200302 0,-1.894706 -1.56035,-3.43913 -3.47097,-3.43913 h -4.76065 c -0.17514,0 -0.30252,0.143297 -0.30252,0.302516 z m 2.49974,-6.082166 v -2.483817 h 2.35644 c 0.6528,0 1.21007,0.541345 1.21007,1.210065 0,0.66872 -0.55727,1.273752 -1.21007,1.273752 z"
           style="font-style:normal;font-variant:normal;font-weight:500;font-stretch:normal;font-size:15.9219px;line-height:1.25;font-family:'Brandon Grotesque';-inkscape-font-specification:'Brandon Grotesque Medium';fill:#2b2d42;fill-opacity:1;stroke:none;stroke-width:0.39805"
           id="path3364-06-9-2-5" />
        <path
           d="m 159.47066,97.359857 c 0,0.159219 0.12738,0.302516 0.30252,0.302516 h 6.59167 c 0.17514,0 0.30251,-0.143297 0.30251,-0.302516 v -1.735488 c 0,-0.159219 -0.12737,-0.302516 -0.30251,-0.302516 h -4.41037 v -2.149456 h 3.63019 c 0.15922,0 0.30252,-0.127375 0.30252,-0.302516 v -1.735487 c 0,-0.159219 -0.1433,-0.302516 -0.30252,-0.302516 h -3.63019 v -1.974316 h 4.41037 c 0.17514,0 0.30251,-0.143297 0.30251,-0.302516 v -1.735487 c 0,-0.159219 -0.12737,-0.302516 -0.30251,-0.302516 h -6.59167 c -0.17514,0 -0.30252,0.143297 -0.30252,0.302516 z"
           style="font-style:normal;font-variant:normal;font-weight:500;font-stretch:normal;font-size:15.9219px;line-height:1.25;font-family:'Brandon Grotesque';-inkscape-font-specification:'Brandon Grotesque Medium';fill:#2b2d42;fill-opacity:1;stroke:none;stroke-width:0.39805"
           id="path3366-4-8-2-8" />
        <path
           d="m 168.8168,97.359856 c 0,0.159219 0.14329,0.302516 0.30251,0.302516 h 1.89471 c 0.17514,0 0.30251,-0.143297 0.30251,-0.302516 v -5.938869 c 0,0 0.0159,0 0.0159,0 l 6.28915,6.320994 c 0.0318,0.03184 0.15922,0.07961 0.20698,0.07961 h 0.25475 c 0.15922,0 0.30252,-0.127376 0.30252,-0.286595 V 86.819558 c 0,-0.159219 -0.1433,-0.302516 -0.30252,-0.302516 h -1.91063 c -0.17514,0 -0.30251,0.143297 -0.30251,0.302516 v 5.652274 c 0,0 -0.0159,0 -0.0159,0 l -6.35284,-6.114009 h -0.39805 c -0.15922,0 -0.30252,0.127375 -0.30252,0.286594 z"
           style="font-style:normal;font-variant:normal;font-weight:500;font-stretch:normal;font-size:15.9219px;line-height:1.25;font-family:'Brandon Grotesque';-inkscape-font-specification:'Brandon Grotesque Medium';fill:#2b2d42;fill-opacity:1;stroke:none;stroke-width:0.39805"
           id="path3368-43-0-4-8" />
        <path
           d="m 181.10849,97.359855 c 0,0.159219 0.12737,0.302516 0.28659,0.302516 h 3.88494 c 3.07293,0 5.58859,-2.499739 5.58859,-5.588587 0,-3.057005 -2.51566,-5.556743 -5.58859,-5.556743 h -3.88494 c -0.15922,0 -0.28659,0.143297 -0.28659,0.302516 z m 2.48381,-2.053926 V 88.85756 h 1.5285 c 1.79918,0 3.10478,1.417049 3.10478,3.216224 0,1.815096 -1.3056,3.232145 -3.10478,3.232145 z"
           style="font-style:normal;font-variant:normal;font-weight:500;font-stretch:normal;font-size:15.9219px;line-height:1.25;font-family:'Brandon Grotesque';-inkscape-font-specification:'Brandon Grotesque Medium';fill:#2b2d42;fill-opacity:1;stroke:none;stroke-width:0.39805"
           id="path3370-91-9-6-8" />
        <path
           d="m 193.00211,97.359858 c 0,0.159219 0.1433,0.302516 0.30252,0.302516 h 1.91063 c 0.15921,0 0.30251,-0.143297 0.30251,-0.302516 V 86.81956 c 0,-0.159219 -0.1433,-0.302516 -0.30251,-0.302516 h -1.91063 c -0.15922,0 -0.30252,0.143297 -0.30252,0.302516 z"
           style="font-style:normal;font-variant:normal;font-weight:500;font-stretch:normal;font-size:15.9219px;line-height:1.25;font-family:'Brandon Grotesque';-inkscape-font-specification:'Brandon Grotesque Medium';fill:#2b2d42;fill-opacity:1;stroke:none;stroke-width:0.39805"
           id="path3372-46-4-0-5" />
        <path
           d="m 198.27227,97.359857 c 0,0.159219 0.1433,0.302516 0.30251,0.302516 h 1.89471 c 0.17514,0 0.30252,-0.143297 0.30252,-0.302516 v -5.938869 c 0,0 0.0159,0 0.0159,0 l 6.28915,6.320994 c 0.0318,0.03184 0.15922,0.07961 0.20698,0.07961 h 0.25475 c 0.15922,0 0.30252,-0.127376 0.30252,-0.286595 V 86.819559 c 0,-0.159219 -0.1433,-0.302516 -0.30252,-0.302516 h -1.91062 c -0.17514,0 -0.30252,0.143297 -0.30252,0.302516 v 5.652274 c 0,0 -0.0159,0 -0.0159,0 l -6.35284,-6.114009 h -0.39805 c -0.15922,0 -0.30251,0.127375 -0.30251,0.286594 z"
           style="font-style:normal;font-variant:normal;font-weight:500;font-stretch:normal;font-size:15.9219px;line-height:1.25;font-family:'Brandon Grotesque';-inkscape-font-specification:'Brandon Grotesque Medium';fill:#2b2d42;fill-opacity:1;stroke:none;stroke-width:0.39805"
           id="path3374-0-1-1-2" />
        <path
           d="m 209.78377,92.10563 c 0,3.18438 2.54751,5.70004 5.71596,5.70004 2.30868,0 3.94864,-1.034924 3.94864,-1.034924 0.0637,-0.04776 0.12737,-0.175141 0.12737,-0.25475 l -0.0159,-4.282991 c 0,-0.159219 -0.12738,-0.302516 -0.28659,-0.302516 h -3.20031 c -0.17514,0 -0.30251,0.127375 -0.30251,0.302516 v 1.576268 c 0,0.159219 0.12737,0.286594 0.30251,0.286594 h 1.00308 v 0.92347 c -0.47765,0.191063 -0.95531,0.254751 -1.41705,0.254751 -1.73548,0 -3.15253,-1.432971 -3.15253,-3.168458 0,-1.751409 1.40112,-3.216224 3.13661,-3.216224 0.78018,0 1.48074,0.206985 2.08577,0.764251 0.12738,0.09553 0.30252,0.09553 0.42989,-0.01592 l 1.25783,-1.337439 c 0.12738,-0.127376 0.11146,-0.318438 -0.0318,-0.429892 -1.08269,-0.939392 -2.54751,-1.496658 -3.88495,-1.496658 -3.16845,0 -5.71596,2.547504 -5.71596,5.731884 z"
           style="font-style:normal;font-variant:normal;font-weight:500;font-stretch:normal;font-size:15.9219px;line-height:1.25;font-family:'Brandon Grotesque';-inkscape-font-specification:'Brandon Grotesque Medium';fill:#2b2d42;fill-opacity:1;stroke:none;stroke-width:0.39805"
           id="path3376-74-2-6-0" />
        <g
           id="g4122-9-5-7-8"
           transform="translate(20.949403,1.3229178)"
           style="fill:#2b2d42;fill-opacity:1">
          <path
             d="m 124.03338,114.40887 c 0.0478,0.0955 0.1433,0.17514 0.27067,0.17514 h 0.15922 c 0.12738,0 0.22291,-0.0796 0.27068,-0.17514 l 4.99947,-10.71544 c 0.0955,-0.20698 -0.0318,-0.41397 -0.27067,-0.41397 h -2.11761 c -0.12738,0 -0.23883,0.0955 -0.27068,0.17514 l -2.62711,5.8115 h -0.0955 l -2.62711,-5.8115 c -0.0318,-0.0796 -0.1433,-0.17514 -0.27068,-0.17514 h -2.11761 c -0.23883,0 -0.3662,0.20699 -0.27067,0.41397 z"
             style="font-style:normal;font-variant:normal;font-weight:500;font-stretch:normal;font-size:15.9219px;line-height:1.25;font-family:'Brandon Grotesque';-inkscape-font-specification:'Brandon Grotesque Medium';fill:#2b2d42;fill-opacity:1;stroke:none;stroke-width:0.39805"
             id="path3378-7-3-6-9" />
          <path
             d="m 131.35748,114.12229 c 0,0.15922 0.14329,0.30251 0.30251,0.30251 h 1.91063 c 0.15922,0 0.30252,-0.14329 0.30252,-0.30251 v -10.5403 c 0,-0.15922 -0.1433,-0.30252 -0.30252,-0.30252 h -1.91063 c -0.15922,0 -0.30251,0.1433 -0.30251,0.30252 z"
             style="font-style:normal;font-variant:normal;font-weight:500;font-stretch:normal;font-size:15.9219px;line-height:1.25;font-family:'Brandon Grotesque';-inkscape-font-specification:'Brandon Grotesque Medium';fill:#2b2d42;fill-opacity:1;stroke:none;stroke-width:0.39805"
             id="path3380-97-6-5-9" />
          <path
             d="m 136.61171,114.12229 c 0,0.15922 0.12738,0.30251 0.30252,0.30251 h 6.59167 c 0.17514,0 0.30251,-0.14329 0.30251,-0.30251 v -1.73549 c 0,-0.15922 -0.12737,-0.30252 -0.30251,-0.30252 h -4.41037 v -2.14945 h 3.63019 c 0.15922,0 0.30252,-0.12738 0.30252,-0.30252 v -1.73548 c 0,-0.15922 -0.1433,-0.30252 -0.30252,-0.30252 h -3.63019 v -1.97432 h 4.41037 c 0.17514,0 0.30251,-0.14329 0.30251,-0.30251 v -1.73549 c 0,-0.15922 -0.12737,-0.30252 -0.30251,-0.30252 h -6.59167 c -0.17514,0 -0.30252,0.1433 -0.30252,0.30252 z"
             style="font-style:normal;font-variant:normal;font-weight:500;font-stretch:normal;font-size:15.9219px;line-height:1.25;font-family:'Brandon Grotesque';-inkscape-font-specification:'Brandon Grotesque Medium';fill:#2b2d42;fill-opacity:1;stroke:none;stroke-width:0.39805"
             id="path3382-696-2-9-6" />
          <path
             d="m 147.96401,114.36111 c 0.0318,0.12737 0.15921,0.2229 0.28659,0.2229 h 0.25475 c 0.11145,0 0.22291,-0.0796 0.27067,-0.17514 l 2.89779,-6.51205 h 0.0478 l 2.91371,6.51205 c 0.0478,0.0955 0.15922,0.17514 0.27067,0.17514 h 0.25475 c 0.12738,0 0.25475,-0.0955 0.2866,-0.2229 l 3.00924,-10.69952 c 0.0637,-0.22291 -0.0637,-0.38213 -0.2866,-0.38213 h -1.86286 c -0.12737,0 -0.25475,0.11146 -0.28659,0.22291 l -1.36929,5.39752 h -0.0637 l -2.4679,-5.6045 c -0.0318,-0.0955 -0.12737,-0.17514 -0.27067,-0.17514 h -0.2866 c -0.12737,0 -0.2229,0.0796 -0.27067,0.17514 l -2.46789,5.6045 h -0.0637 l -1.36928,-5.39752 c -0.0318,-0.11145 -0.15922,-0.22291 -0.2866,-0.22291 h -1.86286 c -0.22291,0 -0.35028,0.15922 -0.28659,0.38213 z"
             style="font-style:normal;font-variant:normal;font-weight:500;font-stretch:normal;font-size:15.9219px;line-height:1.25;font-family:'Brandon Grotesque';-inkscape-font-specification:'Brandon Grotesque Medium';fill:#2b2d42;fill-opacity:1;stroke:none;stroke-width:0.39805"
             id="path3384-5-8-6-6" />
          <path
             d="m 159.76214,113.35803 c 0.3662,0.3662 1.51258,1.22598 3.58242,1.22598 2.34052,0 3.75757,-1.65587 3.75757,-3.29583 0,-2.16538 -1.97431,-3.13661 -3.21622,-3.63019 -1.25783,-0.5095 -1.73549,-0.95532 -1.73549,-1.54443 0,-0.42989 0.42989,-0.81201 1.00308,-0.81201 0.97124,0 2.13353,0.8757 2.27683,0.95531 0.1433,0.11145 0.42989,-0.0318 0.54135,-0.20699 l 0.81201,-1.22598 c 0.0637,-0.11145 0.0955,-0.39805 -0.0955,-0.5095 -0.47766,-0.35028 -1.75141,-1.19414 -3.40728,-1.19414 -2.45198,0 -3.67796,1.59219 -3.67796,3.16845 0,1.91063 1.71956,2.9774 3.08885,3.51874 1.08268,0.42989 1.63995,0.9394 1.63995,1.60811 0,0.55727 -0.46173,0.95532 -1.09861,0.95532 -1.05085,0 -2.19722,-0.84386 -2.26091,-0.87571 -0.11145,-0.0796 -0.41397,-0.11145 -0.54134,0.0955 l -0.74833,1.32151 c -0.12738,0.22291 -0.0796,0.2866 0.0796,0.44582 z"
             style="font-style:normal;font-variant:normal;font-weight:500;font-stretch:normal;font-size:15.9219px;line-height:1.25;font-family:'Brandon Grotesque';-inkscape-font-specification:'Brandon Grotesque Medium';fill:#2b2d42;fill-opacity:1;stroke:none;stroke-width:0.39805"
             id="path3386-26-6-6-8" />
        </g>
      </g>
      <path
         id="path1433-0-7-1-8-2-4-2-06-1-1-4"
         style="display:inline;fill:url(#linearGradient5025-5-5-7-8);fill-opacity:1;stroke-width:0.0317718;paint-order:markers fill stroke"
         inkscape:transform-center-x="-12.125095"
         inkscape:transform-center-y="-5.7289513e-06"
         d="m 100.68296,893.78611 a 3.0280983,3.0280983 0 0 0 -2.992727,3.02806 v 11.30044 h 3.896227 6.8787 1.19288 1.27075 0.79031 c 0.12394,0 0.23224,0.0931 0.26327,0.17056 l 2.55634,5.6551 h 0.0933 l 2.55633,-5.6551 c 0.031,-0.0775 0.13933,-0.17056 0.26327,-0.17056 h 2.06054 c 0.23237,0 0.35624,0.20168 0.26327,0.40309 l -4.8648,10.42717 c -0.0465,0.0929 -0.13932,0.17056 -0.26327,0.17056 h -0.1552 c -0.12395,0 -0.21676,-0.0777 -0.26325,-0.17056 l -3.96487,-8.55255 h -1.7988 -2.21523 v 8.2734 c 0,0.15493 -0.13958,0.29451 -0.29451,0.29451 h -1.85924 c -0.15491,0 -0.29449,-0.13958 -0.29449,-0.29451 v -8.2734 h -2.21523 -3.896228 v 18.23139 a 3.0280983,3.0280983 0 0 0 4.542098,2.62242 l 27.5481,-15.90451 a 3.0280983,3.0280983 0 0 0 0,-5.24483 l -27.54818,-15.90503 a 3.0280983,3.0280983 0 0 0 -1.54936,-0.40565 z" />
    </g>
  </g>
</svg>
