<?xml version="1.0" encoding="utf-8"?>
<!-- Generator: Adobe Illustrator 23.0.2, SVG Export Plug-In . SVG Version: 6.00 Build 0)  -->
<svg version="1.1" id="图层_1" xmlns="http://www.w3.org/2000/svg" xmlns:xlink="http://www.w3.org/1999/xlink" x="0px" y="0px"
	 viewBox="0 0 79 79" style="enable-background:new 0 0 79 79;" xml:space="preserve">
<style type="text/css">
	.st0{fill-rule:evenodd;clip-rule:evenodd;fill:url(#Oval_1_);}
	.st1{filter:url(#Adobe_OpacityMaskFilter);}
	.st2{fill-rule:evenodd;clip-rule:evenodd;fill:#FFFFFF;}
	.st3{mask:url(#mask-2_1_);fill-rule:evenodd;clip-rule:evenodd;fill:#FFFFFF;}
	.st4{fill-rule:evenodd;clip-rule:evenodd;fill:#31302E;}
</style>
<title>iPhone 8 Copy 3</title>
<desc>Created with Sketch.</desc>
<linearGradient id="Oval_1_" gradientUnits="userSpaceOnUse" x1="93.0411" y1="-4.3279" x2="6.6821" y2="64.185">
	<stop  offset="1.385225e-07" style="stop-color:#F8A538"/>
	<stop  offset="1" style="stop-color:#DF7331"/>
</linearGradient>
<circle id="Oval" class="st0" cx="39.1" cy="38.5" r="38"/>
<g id="Group-3" transform="translate(0.000000, 0.054913)">
	<g id="Clip-2">
	</g>
	<defs>
		<filter id="Adobe_OpacityMaskFilter" filterUnits="userSpaceOnUse" x="22.4" y="14.1" width="36.1" height="46.7">
			<feColorMatrix  type="matrix" values="1 0 0 0 0  0 1 0 0 0  0 0 1 0 0  0 0 0 1 0"/>
		</filter>
	</defs>
	<mask maskUnits="userSpaceOnUse" x="22.4" y="14.1" width="36.1" height="46.7" id="mask-2_1_">
		<g class="st1">
			<path id="path-1_1_" class="st2" d="M22.8,14.2c-0.2,0-0.5,0.4-0.5,0.6l0,0v18.3v6.8v8.3c0,1.8,1,3.4,2.5,4.3l0,0l13,7.5
				c0.8,0.4,1.6,0.7,2.5,0.7l0,0c0.9,0,1.7-0.2,2.5-0.7l0,0l13-7.5c1.6-0.9,2.5-2.6,2.5-4.3l0,0V33.2c0-1.8-1-3.4-2.5-4.3l0,0
				l-13-7.5c-0.8-0.4-1.6-0.7-2.5-0.7l0,0c-0.9,0-1.7,0.2-2.5,0.7l0,0l-6,3.5v-3.4c0-4.7-2.5-7.3-7.1-7.3l0,0
				C24.2,14.1,23.5,14.1,22.8,14.2 M29.6,40.8c0-6.5,5.2-11.7,11.7-11.7l0,0c3,0,5.8,1.1,7.9,3l0,0c0.1,0.1,0.2,0.3,0,0.5l0,0
				C49,32.8,43,39,41.6,40.5l0,0c-0.2,0.2-0.2,0.4,0,0.6l0,0c0.2,0.2,6.4,6.4,7.7,7.7l0,0c0.2,0.2,0.1,0.5,0,0.6l0,0
				c-2.1,1.9-4.9,3.1-8,3.1l0,0C34.8,52.4,29.6,47.2,29.6,40.8"/>
		</g>
	</mask>
	<path id="Fill-1" class="st3" d="M22.8,14.2c-0.2,0-0.5,0.4-0.5,0.6l0,0v18.3v6.8v8.3c0,1.8,1,3.4,2.5,4.3l0,0l13,7.5
		c0.8,0.4,1.6,0.7,2.5,0.7l0,0c0.9,0,1.7-0.2,2.5-0.7l0,0l13-7.5c1.6-0.9,2.5-2.6,2.5-4.3l0,0V33.2c0-1.8-1-3.4-2.5-4.3l0,0l-13-7.5
		c-0.8-0.4-1.6-0.7-2.5-0.7l0,0c-0.9,0-1.7,0.2-2.5,0.7l0,0l-6,3.5v-3.4c0-4.7-2.5-7.3-7.1-7.3l0,0C24.2,14.1,23.5,14.1,22.8,14.2
		 M29.6,40.8c0-6.5,5.2-11.7,11.7-11.7l0,0c3,0,5.8,1.1,7.9,3l0,0c0.1,0.1,0.2,0.3,0,0.5l0,0C49,32.8,43,39,41.6,40.5l0,0
		c-0.2,0.2-0.2,0.4,0,0.6l0,0c0.2,0.2,6.4,6.4,7.7,7.7l0,0c0.2,0.2,0.1,0.5,0,0.6l0,0c-2.1,1.9-4.9,3.1-8,3.1l0,0
		C34.8,52.4,29.6,47.2,29.6,40.8"/>
</g>
<path id="Fill-4" class="st4" d="M39,37.4c0,1.1-0.9,2-2,2c-1.1,0-2-0.9-2-2s0.9-2,2-2C38.2,35.4,39,36.3,39,37.4"/>
</svg>
