<?xml version="1.0" encoding="utf-8"?>
<!-- Generator: Adobe Illustrator 24.1.2, SVG Export Plug-In . SVG Version: 6.00 Build 0)  -->
<svg version="1.1" id="Ebene_1" xmlns="http://www.w3.org/2000/svg" xmlns:xlink="http://www.w3.org/1999/xlink" x="0px" y="0px"
	 viewBox="0 0 566.93 566.93" style="enable-background:new 0 0 566.93 566.93;" xml:space="preserve">
<style type="text/css">
	.st0{fill:none;}
	.st1{fill:#030304;}
	.st2{fill:#FFFFFF;}
</style>
<g>
	<path class="st0" d="M277.47,65.76c1.36-1.09,3.02-1.8,4.84-1.99C280.49,63.95,278.83,64.67,277.47,65.76z"/>
	<path class="st0" d="M276.95,66.21c0.13-0.13,0.27-0.25,0.41-0.37C277.22,65.96,277.09,66.08,276.95,66.21z"/>
	<path class="st0" d="M317.85,49.41h-0.02c13.02,0,23.58,10.56,23.61,23.58C341.44,60,330.85,49.41,317.85,49.41z"/>
	<path class="st0" d="M317.85,63.72h-0.02c5.13,0,9.28,4.15,9.3,9.28C327.13,67.87,322.96,63.72,317.85,63.72z"/>
	<path class="st0" d="M276.47,66.69c0.08-0.08,0.15-0.17,0.23-0.25C276.62,66.52,276.55,66.61,276.47,66.69z"/>
	<path class="st0" d="M276.02,153.22c-1.09-1.36-1.8-3.02-1.99-4.84C274.21,150.2,274.93,151.87,276.02,153.22z"/>
	<path class="st0" d="M276.95,154.22c-0.08-0.08-0.17-0.15-0.25-0.22C276.78,154.07,276.87,154.14,276.95,154.22z"/>
	<path class="st0" d="M276.02,67.21c0.03-0.04,0.05-0.07,0.08-0.11C276.07,67.14,276.05,67.18,276.02,67.21z"/>
	<path class="st0" d="M276.47,153.74c-0.13-0.13-0.25-0.27-0.37-0.41C276.22,153.47,276.35,153.6,276.47,153.74z"/>
	<path class="st0" d="M283.26,156.71c-0.32,0-0.63-0.02-0.95-0.05C282.62,156.7,282.94,156.71,283.26,156.71z"/>
	<path class="st0" d="M273.98,73c0-0.32,0.02-0.63,0.05-0.95C274,72.36,273.98,72.68,273.98,73z"/>
	<polygon class="st0" points="492.17,-0.65 492.15,-0.66 293.19,333.75 293.2,333.75 	"/>
	<polygon class="st0" points="143.67,244.82 125.63,275.15 143.68,244.82 	"/>
	<path class="st0" d="M377.61,145.27l-14.28,23.99v0.02l14.31-24.03V32.72c-0.01,0-0.02,0-0.02,0V145.27z"/>
	<path class="st0" d="M109.7,32.72c-28.18,0-54.94,0-78.26,0v0C54.78,32.72,81.51,32.72,109.7,32.72l0,171.68h232.72l0,0H109.7
		V32.72z"/>
	<polygon class="st0" points="99.22,319.55 99.2,319.57 248.71,408.53 323.46,453 248.71,408.51 	"/>
	<polygon class="st0" points="98.07,478.54 95.82,478.56 95.82,478.56 	"/>
	<path class="st0" d="M277.45,154.66c-0.03-0.02-0.06-0.04-0.09-0.07C277.39,154.62,277.42,154.64,277.45,154.66z"/>
	<polygon class="st0" points="252.46,281.78 228.84,267.71 228.8,267.71 	"/>
	<path class="st1" d="M477.32,478.61h-71.53V352.38l-14.31,23.34v100.57v0l-293.42,2.25l-2.25,0.02l0,0h0V345.3L87,340.05
		l-5.48-3.27v141.82v0H31.44v0V32.72v0c23.32,0,50.07,0,78.26,0V204.4h232.72l8.51-14.31H124V32.72h239.3h0.02v136.54l14.28-23.99
		V32.72c0.01,0,0.02,0,0.02,0c12.03,0,18.91,0,18.98,0c0,0,0.02,0,0.02,0c0.14,0,13.75,14.01,29.74,30.58l16.42-27.6
		c-4.05-4.2-7.84-8.11-11.16-11.54c-3.84-3.96-7.03-7.25-9.28-9.56c-5.63-5.75-12.64-12.92-25.73-12.92H31.44h-31v31v445.88v31h31
		h445.88h31v-31V185.09l-31,50.57C477.32,315.47,477.32,391.05,477.32,478.61z"/>
	<polygon class="st1" points="252.52,281.82 296.54,281.49 305.1,267.11 228.84,267.71 252.46,281.78 	"/>
	<polygon class="st1" points="81.51,268.83 81.51,302.64 101.73,268.66 	"/>
	<path class="st2" d="M317.83,63.72h-34.57c-0.32,0-0.63,0.02-0.95,0.05c-1.82,0.19-3.48,0.9-4.84,1.99
		c-0.04,0.03-0.07,0.05-0.11,0.08c-0.14,0.12-0.27,0.25-0.41,0.37c-0.08,0.08-0.17,0.15-0.25,0.23c-0.08,0.08-0.15,0.17-0.23,0.25
		c-0.13,0.13-0.25,0.27-0.37,0.41c-0.03,0.04-0.05,0.07-0.08,0.11c-1.09,1.36-1.8,3.02-1.99,4.84c-0.03,0.31-0.05,0.63-0.05,0.95
		v74.44c0,0.32,0.02,0.63,0.05,0.95c0.19,1.82,0.9,3.48,1.99,4.84c0.03,0.04,0.05,0.07,0.08,0.11c0.12,0.14,0.25,0.27,0.37,0.41
		c0.08,0.08,0.15,0.17,0.23,0.25c0.08,0.08,0.16,0.15,0.25,0.22c0.14,0.13,0.27,0.26,0.42,0.38c0.03,0.02,0.06,0.04,0.09,0.07
		c1.36,1.1,3.03,1.82,4.86,2c0.31,0.03,0.63,0.05,0.95,0.05h34.57c5.13,0,9.28-4.17,9.28-9.28h0.02V73
		C327.11,67.87,322.96,63.72,317.83,63.72z"/>
	<path class="st1" d="M317.83,49.41h-34.57c-12.99,0-23.58,10.59-23.58,23.58v74.44c0,13,10.59,23.58,23.58,23.58h34.57
		c12.99,0,23.58-10.59,23.58-23.58h0.02V73C341.41,59.98,330.85,49.41,317.83,49.41z M327.13,147.44c0,5.13-4.17,9.28-9.28,9.28
		h-0.02h-34.57c-0.32,0-0.63-0.02-0.95-0.05c-1.83-0.19-3.5-0.91-4.86-2c-0.03-0.02-0.06-0.04-0.09-0.07
		c-0.14-0.12-0.28-0.25-0.42-0.38c-0.08-0.08-0.17-0.15-0.25-0.22c-0.08-0.08-0.15-0.17-0.23-0.25c-0.13-0.13-0.25-0.27-0.37-0.41
		c-0.03-0.04-0.05-0.07-0.08-0.11c-1.09-1.35-1.8-3.02-1.99-4.84c-0.03-0.31-0.05-0.63-0.05-0.95V73c0-0.32,0.02-0.63,0.05-0.95
		c0.19-1.82,0.9-3.48,1.99-4.84c0.03-0.04,0.05-0.07,0.08-0.11c0.12-0.14,0.25-0.27,0.37-0.41c0.08-0.08,0.15-0.17,0.23-0.25
		c0.08-0.08,0.17-0.15,0.25-0.23c0.13-0.13,0.27-0.25,0.41-0.37c0.04-0.03,0.07-0.05,0.11-0.08c1.35-1.09,3.02-1.8,4.84-1.99
		c0.31-0.03,0.63-0.05,0.95-0.05h34.57h0.02c5.1,0,9.28,4.15,9.28,9.28V147.44z"/>
	<path class="st1" d="M277.36,154.59c-0.14-0.12-0.28-0.25-0.42-0.38C277.08,154.34,277.22,154.48,277.36,154.59z"/>
	<path class="st1" d="M276.1,153.33c-0.03-0.04-0.05-0.07-0.08-0.11C276.05,153.26,276.07,153.3,276.1,153.33z"/>
	<path class="st1" d="M274.03,148.38c-0.03-0.31-0.05-0.63-0.05-0.95C273.98,147.76,274,148.07,274.03,148.38z"/>
	<path class="st1" d="M282.31,156.66c-1.83-0.19-3.5-0.91-4.86-2C278.81,155.75,280.48,156.48,282.31,156.66z"/>
	<path class="st1" d="M276.7,153.99c-0.08-0.08-0.15-0.17-0.23-0.25C276.55,153.82,276.62,153.91,276.7,153.99z"/>
	<path class="st1" d="M274.03,72.05c0.19-1.82,0.9-3.48,1.99-4.84C274.93,68.57,274.21,70.23,274.03,72.05z"/>
	<path class="st1" d="M317.83,156.71h0.02c5.1,0,9.28-4.15,9.28-9.28h-0.02C327.11,152.54,322.96,156.71,317.83,156.71z"/>
	<path class="st1" d="M277.36,65.84c0.04-0.03,0.07-0.05,0.11-0.08C277.44,65.79,277.4,65.81,277.36,65.84z"/>
	<path class="st1" d="M282.31,63.77c0.31-0.03,0.63-0.05,0.95-0.05C282.94,63.72,282.62,63.74,282.31,63.77z"/>
	<path class="st1" d="M276.7,66.44c0.08-0.08,0.17-0.15,0.25-0.23C276.87,66.29,276.78,66.36,276.7,66.44z"/>
	<path class="st1" d="M276.1,67.1c0.12-0.14,0.25-0.27,0.37-0.41C276.35,66.83,276.22,66.96,276.1,67.1z"/>
	<polygon class="st1" points="119.66,380.85 155.57,380.85 119.66,359.48 	"/>
	<polygon class="st1" points="492.17,-0.65 293.2,333.75 293.19,333.75 293.18,333.78 143.68,244.82 125.63,275.15 99.22,319.55 
		248.71,408.51 323.46,453 566.91,43.81 	"/>
	<path class="st2" d="M396.64,32.72c0,0-0.02,0-0.02,0c0.14,0,13.76,14.04,29.76,30.59l0.01-0.02
		C410.38,46.74,396.78,32.72,396.64,32.72z"/>
	<polygon class="st2" points="363.3,32.72 363.3,169.3 363.32,169.26 363.32,32.72 	"/>
	<polygon class="st2" points="95.82,478.56 95.82,478.56 95.82,345.3 87,340.05 95.82,345.3 	"/>
	<rect x="31.44" y="478.61" class="st2" width="50.07" height="0"/>
	<polygon class="st2" points="81.51,336.78 81.51,336.78 87,340.05 	"/>
	<polygon class="st2" points="342.41,204.4 350.93,190.09 342.41,204.4 	"/>
	<polygon class="st2" points="391.48,476.29 98.07,478.54 391.48,476.29 	"/>
	<path class="st2" d="M477.32,235.61c0,0.02,0,0.03,0,0.05l31-50.57v-0.05L477.32,235.61z"/>
	<polygon class="st2" points="252.52,281.82 252.46,281.78 252.52,281.82 296.56,281.49 305.1,267.11 296.54,281.49 	"/>
	<polygon class="st2" points="228.8,267.68 228.84,267.71 305.1,267.11 	"/>
	<path class="st2" d="M317.83,171.02h0.02c12.99,0,23.58-10.59,23.58-23.58h-0.02C341.41,160.43,330.83,171.02,317.83,171.02z"/>
	
		<rect x="218.42" y="202.31" transform="matrix(0.5114 -0.8594 0.8594 0.5114 -141.8657 329.0702)" class="st2" width="0.03" height="173.96"/>
	<polygon class="st2" points="99.2,319.54 99.22,319.55 125.63,275.15 	"/>
	<polygon class="st2" points="492.17,-0.65 566.91,43.81 323.46,453 566.93,43.81 492.18,-0.66 	"/>
</g>
</svg>
