<?xml version="1.0" encoding="utf-8"?>
<!-- Generator: Adobe Illustrator 24.1.2, SVG Export Plug-In . SVG Version: 6.00 Build 0)  -->
<svg version="1.1" id="Ebene_1" xmlns="http://www.w3.org/2000/svg" xmlns:xlink="http://www.w3.org/1999/xlink" x="0px" y="0px"
	 viewBox="0 0 566.93 566.93" style="enable-background:new 0 0 566.93 566.93;" xml:space="preserve">
<style type="text/css">
	.st0{fill:#FFFFFF;}
	.st1{fill:#030304;}
</style>
<g>
	<path class="st0" d="M434.82,17.62v211.5H104.74V17.62H17.17V549.3h52.87v-258.5h399.49v258.5h79.31V115.18
		c-34.4-35.72-82.98-86.1-94.26-97.55C454.59,17.62,434.82,17.62,434.82,17.62z"/>
	<path class="st1" d="M564.01,105.51c0,0-24.76-25.7-49.55-51.41c-12.4-12.87-24.82-25.7-34.16-35.37C462.11,0,462.11,0,458.23,0
		h-23.41H104.74H-0.45v566.93h70.5h399.49h96.94V108.07L564.01,105.51z M548.85,549.3h-79.31v-258.5H70.05v258.5H17.17V17.62h87.59
		v211.5h330.05V17.62h19.77c11.25,11.46,59.87,61.83,94.26,97.55L548.85,549.3L548.85,549.3z M87.67,549.3V308.43h364.24V549.3
		H87.67z M417.2,17.62V211.5H122.36V17.62C122.36,17.62,417.2,17.62,417.2,17.62z"/>
	<path class="st0" d="M87.67,308.43V549.3h364.24V308.43H87.67z M117.05,340.74h111.62v20.56H117.05V340.74z M258.04,437.68h-141
		v-58.75h141V437.68z"/>
	<path class="st0" d="M417.2,211.5V17.62H122.36V211.5H417.2z M289.5,70.18c0-16.01,13.04-29.05,29.05-29.05h42.62
		c16.01,0,29.05,13.04,29.05,29.05v91.71c0,16.01-13.04,29.05-29.05,29.05h-42.62c-16.01,0-29.05-13.04-29.05-29.05V70.18z"/>
	<path class="st0" d="M318.56,173.31h42.62c6.29,0,11.43-5.11,11.43-11.43V70.18c0-6.29-5.14-11.43-11.43-11.43h-42.62
		c-6.29,0-11.43,5.11-11.43,11.43v91.71C307.13,168.2,312.27,173.31,318.56,173.31z"/>
	<path class="st1" d="M318.56,190.93h42.62c16.01,0,29.05-13.04,29.05-29.05V70.18c0-16.01-13.04-29.05-29.05-29.05h-42.62
		c-16.01,0-29.05,13.04-29.05,29.05v91.71C289.5,177.92,302.55,190.93,318.56,190.93z M307.13,70.18c0-6.29,5.11-11.43,11.43-11.43
		h42.62c6.29,0,11.43,5.11,11.43,11.43v91.71c0,6.29-5.14,11.43-11.43,11.43h-42.62c-6.29,0-11.43-5.11-11.43-11.43V70.18z"/>
	<rect x="117.05" y="340.74" class="st1" width="111.62" height="20.56"/>
	<rect x="134.67" y="396.56" class="st0" width="105.75" height="23.5"/>
	<path class="st1" d="M117.05,437.68h141v-58.75h-141V437.68z M134.67,396.56h105.75v23.5H134.67V396.56z"/>
</g>
</svg>
