<svg id="Layer_1" data-name="Layer 1" xmlns="http://www.w3.org/2000/svg" xmlns:xlink="http://www.w3.org/1999/xlink" viewBox="0 0 150 150"><defs><style>.cls-1{fill:url(#linear-gradient);}.cls-2{fill:#00ccf6;}.cls-3,.cls-4{fill:none;stroke-linecap:round;stroke-miterlimit:10;stroke-width:3px;}.cls-3{stroke:#303297;}.cls-4{stroke:#57c8ed;}</style><linearGradient id="linear-gradient" x1="27.24" y1="100.35" x2="92.53" y2="100.35" gradientUnits="userSpaceOnUse"><stop offset="0" stop-color="#dedeff"/><stop offset="1" stop-color="#dedeff" stop-opacity="0"/></linearGradient></defs><title>ekhtesasi</title><path class="cls-1" d="M91.12,73.57H28.65a1.53,1.53,0,0,0-1.41,1.63v47.86H51.29a2.73,2.73,0,0,1,2.59,1.85A3.27,3.27,0,0,0,57,127.12H62.8a3.26,3.26,0,0,0,3.09-2.21,2.74,2.74,0,0,1,2.6-1.85h24V75.2A1.53,1.53,0,0,0,91.12,73.57Zm-31.24,35A10.47,10.47,0,1,1,70.36,98.13,10.47,10.47,0,0,1,59.88,108.6Z"/><circle class="cls-2" cx="126.58" cy="46.1" r="2.42"/><circle class="cls-2" cx="126.58" cy="60.41" r="2.42"/><circle class="cls-2" cx="126.58" cy="75" r="2.42"/><circle class="cls-2" cx="126.58" cy="88.59" r="2.42"/><circle class="cls-2" cx="126.58" cy="103.17" r="2.42"/><circle class="cls-2" cx="126.58" cy="117.76" r="2.42"/><line class="cls-3" x1="108.9" y1="46.2" x2="115.5" y2="46.2"/><line class="cls-3" x1="95.81" y1="46.2" x2="102.42" y2="46.2"/><line class="cls-3" x1="82.73" y1="46.2" x2="89.34" y2="46.2"/><line class="cls-3" x1="69.65" y1="46.2" x2="76.26" y2="46.2"/><line class="cls-3" x1="108.9" y1="60.41" x2="115.5" y2="60.41"/><line class="cls-3" x1="95.81" y1="60.41" x2="102.42" y2="60.41"/><line class="cls-3" x1="82.73" y1="60.41" x2="89.34" y2="60.41"/><line class="cls-3" x1="69.65" y1="60.41" x2="76.26" y2="60.41"/><line class="cls-3" x1="108.9" y1="74.61" x2="115.5" y2="74.61"/><line class="cls-3" x1="98.53" y1="74.61" x2="102.42" y2="74.61"/><line class="cls-3" x1="108.9" y1="88.82" x2="115.5" y2="88.82"/><line class="cls-3" x1="98.53" y1="88.82" x2="102.42" y2="88.82"/><line class="cls-3" x1="108.9" y1="103.03" x2="115.5" y2="103.03"/><line class="cls-3" x1="98.53" y1="103.03" x2="102.42" y2="103.03"/><line class="cls-3" x1="108.9" y1="117.24" x2="115.5" y2="117.24"/><line class="cls-3" x1="98.53" y1="117.24" x2="102.42" y2="117.24"/><path class="cls-3" d="M82.52,53.26h47.72A3.76,3.76,0,0,0,134,49.49V42.71a3.76,3.76,0,0,0-3.76-3.77H69.53"/><rect class="cls-3" x="61.06" y="15.06" width="72.94" height="23.88" rx="3.76"/><path class="cls-3" d="M89.15,53.26h41.09A3.76,3.76,0,0,1,134,57V63.8a3.76,3.76,0,0,1-3.76,3.77H99.53"/><path class="cls-3" d="M95.53,67.57h34.71A3.76,3.76,0,0,1,134,71.33v6.79a3.76,3.76,0,0,1-3.76,3.76H106.07"/><path class="cls-3" d="M112.54,53.27H64.82a3.76,3.76,0,0,1-3.76-3.77V42.71a3.76,3.76,0,0,1,3.76-3.77h60.71"/><path class="cls-3" d="M105.91,53.27H64.82A3.76,3.76,0,0,0,61.06,57V63.8a3.76,3.76,0,0,0,3.76,3.77H95.53"/><path class="cls-3" d="M99,81.88h31.2A3.76,3.76,0,0,1,134,85.64v6.79a3.76,3.76,0,0,1-3.76,3.76H107.09"/><path class="cls-3" d="M99,96.19h31.2A3.76,3.76,0,0,1,134,100v6.79a3.76,3.76,0,0,1-3.76,3.76H99"/><path class="cls-3" d="M103,110.5h27.2a3.76,3.76,0,0,1,3.76,3.77v6.78a3.76,3.76,0,0,1-3.76,3.76H103.76"/><line class="cls-3" x1="119.87" y1="134.88" x2="133.28" y2="134.88"/><line class="cls-3" x1="126.58" y1="125.88" x2="126.58" y2="134.88"/><line class="cls-3" x1="62.12" y1="27" x2="69.53" y2="27"/><line class="cls-3" x1="125.29" y1="27" x2="132.71" y2="27"/><line class="cls-3" x1="75.88" y1="26.94" x2="119.29" y2="26.94"/><path class="cls-3" d="M103.76,124.05v6.89a3.26,3.26,0,0,1-3.27,3.27H19.28A3.26,3.26,0,0,1,16,130.94v-6.89a1,1,0,0,1,1-1H51.29a2.73,2.73,0,0,1,2.59,1.85A3.27,3.27,0,0,0,57,127.12H62.8a3.26,3.26,0,0,0,3.09-2.21,2.74,2.74,0,0,1,2.6-1.85h34.28A1,1,0,0,1,103.76,124.05Z"/><path class="cls-3" d="M27.24,122.69V75a1.41,1.41,0,0,1,1.41-1.41H91.12A1.41,1.41,0,0,1,92.53,75v47.71"/><path class="cls-3" d="M21.24,79.35v-6A5.77,5.77,0,0,1,27,67.57H92.48a6,6,0,0,1,6,6v49.08"/><line class="cls-3" x1="21.24" y1="86.94" x2="21.24" y2="84.12"/><line class="cls-3" x1="21.24" y1="122.69" x2="21.24" y2="92.12"/><polyline class="cls-4" points="63.92 96.98 59.79 101.09 55.67 96.98"/><circle class="cls-3" cx="59.88" cy="98.13" r="10.47"/></svg>