<svg id="Layer_1" data-name="Layer 1" xmlns="http://www.w3.org/2000/svg" xmlns:xlink="http://www.w3.org/1999/xlink" viewBox="0 0 150 150"><defs><style>.cls-1{fill:url(#linear-gradient);}.cls-2{fill:#00ccf6;}.cls-3,.cls-4{fill:none;stroke:#303297;stroke-linecap:round;stroke-width:3px;}.cls-3{stroke-miterlimit:10;}.cls-4{stroke-linejoin:round;}</style><linearGradient id="linear-gradient" x1="69.69" y1="102.36" x2="86.28" y2="71.42" gradientUnits="userSpaceOnUse"><stop offset="0" stop-color="#dedeff"/><stop offset="1" stop-color="#dedeff" stop-opacity="0"/></linearGradient></defs><title>email</title><path class="cls-1" d="M101.89,61.36l-39.44.06L48.12,75.75V101.6l15.27,11.22-9.51,7.1,5,0,16.22-12.1,16.07,12,5,0-9.3-6.94,15-11ZM61,65.05v9.2H51.74Z"/><circle class="cls-2" cx="26.73" cy="25.8" r="2.96"/><circle class="cls-2" cx="36.89" cy="25.8" r="2.96"/><circle class="cls-2" cx="47.05" cy="25.8" r="2.96"/><path class="cls-3" d="M33.93,109h-7.8a9.82,9.82,0,0,1-9.82-9.82V25.8A9.74,9.74,0,0,1,26,16.06H123.6a9.75,9.75,0,0,1,9.74,9.74V99.31a9.79,9.79,0,0,1-9.79,9.79h-8.4"/><line class="cls-3" x1="123.7" y1="33.11" x2="25.4" y2="33.11"/><circle class="cls-2" cx="78.09" cy="77.44" r="2.03"/><circle class="cls-2" cx="85.07" cy="77.44" r="2.03"/><circle class="cls-2" cx="92.05" cy="77.44" r="2.03"/><line class="cls-3" x1="94.58" y1="84.63" x2="55.07" y2="84.63"/><line class="cls-3" x1="94.58" y1="90.82" x2="55.07" y2="90.82"/><line class="cls-3" x1="94.58" y1="96.82" x2="55.07" y2="96.82"/><polyline class="cls-3" points="48.12 75.75 48.12 84.69 48.12 86.58 48.12 93.31 48.12 99.94"/><polyline class="cls-3" points="101.88 99.74 101.88 93.31 101.88 86.78 101.88 84.69 101.88 61.37 62.44 61.43"/><polyline class="cls-4" points="48.12 75.75 62.44 61.43 62.44 75.75 48.12 75.75"/><polyline class="cls-3" points="39.19 132.74 48.12 126.08 65.91 112.82 75.14 105.93 84.38 112.82 101.88 125.88 110.81 132.53"/><polyline class="cls-3" points="39.19 93.35 39.25 93.31 39.3 93.26 39.31 93.26 48.12 86.78"/><line class="cls-3" x1="110.81" y1="93.38" x2="101.88" y2="86.57"/><polyline class="cls-3" points="110.81 93.38 101.88 99.94 99.31 101.83 84.38 112.82"/><polyline class="cls-3" points="39.19 93.35 48.12 99.74 65.91 112.82"/><polyline class="cls-4" points="71.06 132.76 110.81 132.76 110.81 93.31"/><line class="cls-3" x1="62.88" y1="132.76" x2="66.06" y2="132.76"/><polyline class="cls-4" points="39.19 93.31 39.19 132.76 54.34 132.76"/></svg>