<svg id="Layer_1" data-name="Layer 1" xmlns="http://www.w3.org/2000/svg" xmlns:xlink="http://www.w3.org/1999/xlink" viewBox="0 0 150 150"><defs><style>.cls-1,.cls-3{fill:none;stroke-miterlimit:10;}.cls-1{stroke:#4b4b4b;stroke-width:0.6px;}.cls-2{fill:#00ccf6;}.cls-3{stroke:#303297;stroke-linecap:round;stroke-width:3px;}.cls-4{fill:url(#linear-gradient);}.cls-5{fill:#4237a5;}</style><linearGradient id="linear-gradient" x1="54.85" y1="85.17" x2="20.02" y2="96.94" gradientUnits="userSpaceOnUse"><stop offset="0" stop-color="#dedeff" stop-opacity="0"/><stop offset="1" stop-color="#dedeff"/></linearGradient></defs><title>host linux</title><path class="cls-1" d="M65.84,107.27c0-.31,0-.63-.1-1"/><circle class="cls-2" cx="126.16" cy="46.1" r="2.42"/><circle class="cls-2" cx="126.16" cy="60.41" r="2.42"/><circle class="cls-2" cx="126.16" cy="75" r="2.42"/><circle class="cls-2" cx="126.16" cy="88.59" r="2.42"/><circle class="cls-2" cx="126.16" cy="103.17" r="2.42"/><circle class="cls-2" cx="126.16" cy="117.76" r="2.42"/><line class="cls-3" x1="108.47" y1="46.2" x2="115.08" y2="46.2"/><line class="cls-3" x1="95.41" y1="46.2" x2="102.02" y2="46.2"/><line class="cls-3" x1="82.23" y1="46.2" x2="88.84" y2="46.2"/><line class="cls-3" x1="69.11" y1="46.2" x2="75.72" y2="46.2"/><line class="cls-3" x1="108.47" y1="60.41" x2="115.08" y2="60.41"/><line class="cls-3" x1="95.41" y1="60.41" x2="102.02" y2="60.41"/><line class="cls-3" x1="82.23" y1="60.41" x2="88.84" y2="60.41"/><line class="cls-3" x1="69.11" y1="60.41" x2="75.72" y2="60.41"/><line class="cls-3" x1="108.47" y1="74.63" x2="115.08" y2="74.63"/><line class="cls-3" x1="95.41" y1="74.63" x2="102.02" y2="74.63"/><line class="cls-3" x1="82.43" y1="74.63" x2="89.04" y2="74.63"/><line class="cls-3" x1="69.37" y1="74.63" x2="75.98" y2="74.63"/><line class="cls-3" x1="82.17" y1="89.04" x2="88.78" y2="89.04"/><line class="cls-3" x1="82.17" y1="103.17" x2="88.78" y2="103.17"/><line class="cls-3" x1="82.17" y1="117.65" x2="88.78" y2="117.65"/><line class="cls-3" x1="69.11" y1="89.04" x2="75.72" y2="89.04"/><line class="cls-3" x1="69.11" y1="103.17" x2="75.72" y2="103.17"/><line class="cls-3" x1="69.11" y1="117.76" x2="75.72" y2="117.76"/><line class="cls-3" x1="108.47" y1="89.04" x2="115.08" y2="89.04"/><line class="cls-3" x1="95.41" y1="89.04" x2="102.02" y2="89.04"/><line class="cls-3" x1="108.47" y1="103.35" x2="115.08" y2="103.35"/><line class="cls-3" x1="95.41" y1="103.35" x2="102.02" y2="103.35"/><line class="cls-3" x1="108.47" y1="117.65" x2="115.08" y2="117.65"/><line class="cls-3" x1="95.41" y1="117.65" x2="102.02" y2="117.65"/><path class="cls-3" d="M60.63,46.52V42.71a3.77,3.77,0,0,1,3.77-3.77h65.41a3.76,3.76,0,0,1,3.76,3.77v6.78a3.76,3.76,0,0,1-3.76,3.77H64.4a3.57,3.57,0,0,1-.8-.09"/><rect class="cls-3" x="60.63" y="15.06" width="72.94" height="23.88" rx="3.76"/><path class="cls-3" d="M64.4,67.57h65.41a3.76,3.76,0,0,0,3.76-3.77V57a3.76,3.76,0,0,0-3.76-3.76H64.4"/><line class="cls-3" x1="63.39" y1="53.4" x2="63.38" y2="53.4"/><path class="cls-3" d="M64.4,67.57h65.41a3.76,3.76,0,0,1,3.76,3.76v6.79a3.76,3.76,0,0,1-3.76,3.76H89.36"/><path class="cls-3" d="M65,81.88h64.83a3.76,3.76,0,0,1,3.76,3.76v6.79a3.76,3.76,0,0,1-3.76,3.76H89.36"/><path class="cls-3" d="M67.22,96.19h62.59a3.76,3.76,0,0,1,3.76,3.76v6.79a3.76,3.76,0,0,1-3.76,3.76H89.36"/><path class="cls-3" d="M69.11,110.5h60.7a3.76,3.76,0,0,1,3.76,3.77v6.78a3.76,3.76,0,0,1-3.76,3.76H63.54"/><line class="cls-3" x1="119.45" y1="134.82" x2="132.86" y2="134.82"/><line class="cls-3" x1="126.16" y1="125.88" x2="126.16" y2="134.13"/><line class="cls-3" x1="64.02" y1="134.82" x2="77.43" y2="134.82"/><line class="cls-3" x1="70.72" y1="125.88" x2="70.72" y2="133.51"/><line class="cls-3" x1="61.7" y1="27" x2="69.11" y2="27"/><line class="cls-3" x1="124.87" y1="27" x2="132.28" y2="27"/><line class="cls-3" x1="75.46" y1="26.94" x2="118.87" y2="26.94"/><path class="cls-4" d="M60.63,58.51a10,10,0,0,1,2.27-4.93,4.81,4.81,0,0,1,.42-.48,10.25,10.25,0,0,1,3.11-2.21,1,1,0,0,0,.23-1.55,10.07,10.07,0,0,0-6-2.82l-.39,0H59.6a10,10,0,0,0-5.78,1.83.91.91,0,0,0-.16.11l-.37-.27a17.19,17.19,0,0,0-2.88-1.85l0,0c-9.91-5-24.17-.55-26.39,13.24l-7.21,44.72a25.91,25.91,0,0,0,11.81,26.09l.25.16a25.87,25.87,0,0,0,28.75-1.12l.34.56a25.93,25.93,0,0,0,10.5-25.85l-6.89-37.5-.08-.46h0l-.71-3.84-.09-.49Z"/><path class="cls-3" d="M59.32,134.82H43.2a25.82,25.82,0,0,1-19.62-9A2.49,2.49,0,0,1,26.46,122h0a11.39,11.39,0,0,0,15.87-10.48V80.38a9.87,9.87,0,0,1,9.87-9.87h1.64"/><path class="cls-3" d="M35.56,92.51v1.42A16.86,16.86,0,0,1,18.7,110.79,1.79,1.79,0,0,1,16.91,109a2.65,2.65,0,0,1,0-.27l.64-4,7.22-44.78C27.23,44.79,44.18,40.87,54,48.41h0a10.14,10.14,0,0,1,13,.94,1,1,0,0,1-.23,1.55,10.16,10.16,0,0,0-5.95,9.25,11,11,0,0,0,.12,1.53h0l.11.6-.11-.61h0l.11.6.8,4.31,6.9,37.56A26,26,0,0,1,58.23,130"/><circle class="cls-5" cx="42.67" cy="58.9" r="1.67"/></svg>