<svg id="Layer_1" data-name="Layer 1" xmlns="http://www.w3.org/2000/svg" xmlns:xlink="http://www.w3.org/1999/xlink" viewBox="0 0 150 150"><defs><style>.cls-1,.cls-3,.cls-6{fill:none;stroke-miterlimit:10;}.cls-1{stroke:#4b4b4b;stroke-width:0.6px;}.cls-2{fill:#00ccf6;}.cls-3{stroke:#303297;}.cls-3,.cls-6{stroke-linecap:round;stroke-width:3px;}.cls-4{fill:url(#linear-gradient);}.cls-5{fill:#4237a5;}.cls-6{stroke:#57c8ed;}.cls-7{fill:#303297;}.cls-8{fill:#f15f61;}</style><linearGradient id="linear-gradient" x1="64.68" y1="95.93" x2="15.26" y2="78.52" gradientUnits="userSpaceOnUse"><stop offset="0" stop-color="#dedeff" stop-opacity="0"/><stop offset="1" stop-color="#dedeff"/></linearGradient></defs><title>linux vije copy</title><path class="cls-1" d="M65.15,107.27c0-.31-.06-.63-.1-1"/><circle class="cls-2" cx="125.46" cy="46.1" r="2.42"/><circle class="cls-2" cx="125.46" cy="60.41" r="2.42"/><circle class="cls-2" cx="125.46" cy="75" r="2.42"/><circle class="cls-2" cx="125.46" cy="88.59" r="2.42"/><circle class="cls-2" cx="125.46" cy="103.17" r="2.42"/><circle class="cls-2" cx="125.46" cy="117.76" r="2.42"/><line class="cls-3" x1="107.78" y1="46.2" x2="114.39" y2="46.2"/><line class="cls-3" x1="94.72" y1="46.2" x2="101.33" y2="46.2"/><line class="cls-3" x1="81.54" y1="46.2" x2="88.14" y2="46.2"/><line class="cls-3" x1="68.41" y1="46.2" x2="75.02" y2="46.2"/><line class="cls-3" x1="107.78" y1="60.41" x2="114.39" y2="60.41"/><line class="cls-3" x1="94.72" y1="60.41" x2="101.33" y2="60.41"/><line class="cls-3" x1="81.54" y1="60.41" x2="88.14" y2="60.41"/><line class="cls-3" x1="68.41" y1="60.41" x2="75.02" y2="60.41"/><line class="cls-3" x1="107.78" y1="74.63" x2="114.39" y2="74.63"/><line class="cls-3" x1="94.72" y1="74.63" x2="101.33" y2="74.63"/><line class="cls-3" x1="81.73" y1="74.63" x2="88.34" y2="74.63"/><line class="cls-3" x1="68.67" y1="74.63" x2="75.28" y2="74.63"/><line class="cls-3" x1="81.47" y1="89.03" x2="88.08" y2="89.03"/><line class="cls-3" x1="81.47" y1="103.17" x2="88.08" y2="103.17"/><line class="cls-3" x1="81.47" y1="117.65" x2="88.08" y2="117.65"/><line class="cls-3" x1="68.41" y1="89.03" x2="75.02" y2="89.03"/><line class="cls-3" x1="68.41" y1="103.17" x2="75.02" y2="103.17"/><line class="cls-3" x1="68.41" y1="117.76" x2="75.02" y2="117.76"/><line class="cls-3" x1="107.78" y1="89.03" x2="114.39" y2="89.03"/><line class="cls-3" x1="94.72" y1="89.03" x2="101.33" y2="89.03"/><line class="cls-3" x1="107.78" y1="103.34" x2="114.39" y2="103.34"/><line class="cls-3" x1="94.72" y1="103.34" x2="101.33" y2="103.34"/><line class="cls-3" x1="107.78" y1="117.65" x2="114.39" y2="117.65"/><line class="cls-3" x1="94.72" y1="117.65" x2="101.33" y2="117.65"/><path class="cls-3" d="M63.7,53.26h65.41a3.77,3.77,0,0,0,3.77-3.77V42.71a3.77,3.77,0,0,0-3.77-3.77H63.7a3.76,3.76,0,0,0-3.76,3.77v3.8"/><rect class="cls-3" x="59.88" y="15.06" width="72.94" height="23.88" rx="3.76"/><line class="cls-3" x1="62.69" y1="53.4" x2="62.68" y2="53.4"/><path class="cls-3" d="M63.7,53.26h65.41A3.76,3.76,0,0,1,132.88,57V63.8a3.77,3.77,0,0,1-3.77,3.77H63.7a3.68,3.68,0,0,1-2.56-1"/><path class="cls-3" d="M63.71,67.57h65.41a3.76,3.76,0,0,1,3.76,3.76v6.79a3.76,3.76,0,0,1-3.76,3.76H88.67"/><path class="cls-3" d="M64.29,81.88h64.83a3.76,3.76,0,0,1,3.76,3.76v6.79a3.76,3.76,0,0,1-3.76,3.76H88.67"/><path class="cls-3" d="M66.53,96.19h62.59a3.76,3.76,0,0,1,3.76,3.76v6.79a3.76,3.76,0,0,1-3.76,3.76H88.67"/><path class="cls-3" d="M68.41,110.5h60.71a3.76,3.76,0,0,1,3.76,3.77v6.78a3.76,3.76,0,0,1-3.76,3.76H62.85"/><line class="cls-3" x1="118.76" y1="134.82" x2="132.17" y2="134.82"/><line class="cls-3" x1="125.46" y1="125.88" x2="125.46" y2="134.13"/><line class="cls-3" x1="63.32" y1="134.82" x2="76.74" y2="134.82"/><line class="cls-3" x1="70.03" y1="125.88" x2="70.03" y2="133.51"/><line class="cls-3" x1="61" y1="27" x2="78.51" y2="27"/><line class="cls-3" x1="112.73" y1="27" x2="131.59" y2="27"/><path class="cls-4" d="M67.71,104.07l-6.89-37.5L60,62.26l-.11-.6a9.8,9.8,0,0,1-.12-1.54,10.15,10.15,0,0,1,5.94-9.23A1,1,0,0,0,66,49.34a10.09,10.09,0,0,0-13-.93h0l-.36-.27c-9.76-7.71-26.87-3.85-29.32,11.37l-7.21,44.72a25.92,25.92,0,0,0,40.81,25.13l.33.56A25.9,25.9,0,0,0,67.71,104.07Z"/><path class="cls-3" d="M58.62,134.82H42.51a25.82,25.82,0,0,1-19.62-9A2.49,2.49,0,0,1,25.77,122h0a11.39,11.39,0,0,0,15.87-10.48V80.38a9.86,9.86,0,0,1,9.86-9.87h1.64"/><path class="cls-3" d="M17.89,94.2,24.1,59.94c2.44-15.15,19.38-19.07,29.18-11.53h0a10.14,10.14,0,0,1,13,.94,1,1,0,0,1-.24,1.55,10.17,10.17,0,0,0-5.94,9.25,9.67,9.67,0,0,0,.12,1.53h0l.1.6-.1-.61h0l.1.6.8,4.31,6.9,37.56A25.93,25.93,0,0,1,57.54,130"/><circle class="cls-5" cx="41.97" cy="58.9" r="1.67"/><line class="cls-6" x1="23.81" y1="107.27" x2="30.06" y2="107.27"/><line class="cls-6" x1="26.94" y1="104.14" x2="26.94" y2="110.39"/><circle class="cls-6" cx="26.94" cy="107.27" r="9.3"/><line class="cls-3" x1="85.25" y1="27.2" x2="106.77" y2="27.2"/><polygon class="cls-7" points="79.05 31.23 79.05 34.65 84.36 31.23 79.05 31.23"/><polygon class="cls-7" points="79.05 19.17 79.05 22.6 84.36 22.6 79.05 19.17"/><polygon class="cls-7" points="83.76 16.15 91.43 21.1 91.43 16.15 83.76 16.15"/><polygon class="cls-7" points="91.43 37.86 91.43 32.73 83.48 37.86 91.43 37.86"/><polygon class="cls-7" points="100.06 16.15 100.06 21.1 107.73 16.15 100.06 16.15"/><polygon class="cls-7" points="108.01 37.86 100.06 32.73 100.06 37.86 108.01 37.86"/><polygon class="cls-7" points="112.39 19.2 107.13 22.6 112.39 22.6 112.39 19.2"/><polygon class="cls-7" points="112.39 31.23 107.13 31.23 112.39 34.62 112.39 31.23"/><rect class="cls-8" x="92.88" y="16.15" width="5.74" height="21.71"/><rect class="cls-8" x="79.05" y="24.04" width="33.34" height="5.74"/><polygon class="cls-8" points="87.03 31.23 91.1 31.23 80.81 37.86 79.05 37.86 79.05 36.37 87.03 31.23"/><polygon class="cls-8" points="112.39 16.15 112.39 17.49 104.47 22.6 100.39 22.6 110.4 16.15 112.39 16.15"/><polygon class="cls-8" points="91.1 22.6 87.03 22.6 79.05 17.45 79.05 16.15 81.09 16.15 91.1 22.6"/><polygon class="cls-8" points="112.39 36.34 112.39 37.86 110.68 37.86 100.39 31.23 104.47 31.23 112.39 36.34"/></svg>