<svg id="Layer_1" data-name="Layer 1" xmlns="http://www.w3.org/2000/svg" xmlns:xlink="http://www.w3.org/1999/xlink" viewBox="0 0 150 150"><defs><style>.cls-1{fill:url(#linear-gradient);}.cls-2{fill:url(#linear-gradient-2);}.cls-3{fill:#00ccf6;}.cls-4,.cls-5,.cls-7{fill:none;}.cls-4,.cls-5{stroke:#303297;stroke-linecap:round;stroke-width:3px;}.cls-4{stroke-miterlimit:10;}.cls-5{stroke-linejoin:round;}.cls-6{fill:#4237a5;}</style><linearGradient id="linear-gradient" x1="-9.42" y1="156.64" x2="58" y2="104.4" gradientUnits="userSpaceOnUse"><stop offset="0" stop-color="#dedeff"/><stop offset="1" stop-color="#dedeff" stop-opacity="0"/></linearGradient><linearGradient id="linear-gradient-2" x1="7.1" y1="102.1" x2="91.79" y2="102.1" xlink:href="#linear-gradient"/></defs><title>mizbani file</title><path class="cls-1" d="M85.13,134.21a6.65,6.65,0,0,1-6.65-6.65V86.79H15.12v40.77a6.66,6.66,0,0,0,6.66,6.65H42.13"/><path class="cls-2" d="M53.48,74.06l-5.62-4.72H31.31a2.88,2.88,0,0,0-2.88,2.88v8.56l-6.63,1.1v5.58l13.6,0H77.88v0h.6v40.77c0,.06,0,.11,0,.16l6.82,6.49a6.66,6.66,0,0,0,6.48-6.65V74.06Z"/><circle class="cls-3" cx="128.58" cy="46.1" r="2.42"/><circle class="cls-3" cx="128.58" cy="60.41" r="2.42"/><circle class="cls-3" cx="128.58" cy="75" r="2.42"/><circle class="cls-3" cx="128.58" cy="88.59" r="2.42"/><circle class="cls-3" cx="128.58" cy="103.17" r="2.42"/><circle class="cls-3" cx="128.58" cy="117.76" r="2.42"/><line class="cls-4" x1="110.9" y1="46.2" x2="117.5" y2="46.2"/><line class="cls-4" x1="97.84" y1="46.2" x2="104.44" y2="46.2"/><line class="cls-4" x1="84.65" y1="46.2" x2="91.26" y2="46.2"/><line class="cls-4" x1="71.53" y1="46.2" x2="78.14" y2="46.2"/><line class="cls-4" x1="110.9" y1="60.41" x2="117.5" y2="60.41"/><line class="cls-4" x1="97.84" y1="60.41" x2="104.44" y2="60.41"/><line class="cls-4" x1="84.65" y1="60.41" x2="91.26" y2="60.41"/><line class="cls-4" x1="71.53" y1="60.41" x2="78.14" y2="60.41"/><line class="cls-4" x1="110.9" y1="74.63" x2="117.5" y2="74.63"/><line class="cls-4" x1="97.84" y1="74.63" x2="104.44" y2="74.63"/><line class="cls-4" x1="110.9" y1="89.04" x2="117.5" y2="89.04"/><line class="cls-4" x1="97.84" y1="89.04" x2="104.44" y2="89.04"/><line class="cls-4" x1="110.9" y1="103.35" x2="117.5" y2="103.35"/><line class="cls-4" x1="97.84" y1="103.35" x2="104.44" y2="103.35"/><line class="cls-4" x1="110.9" y1="117.65" x2="117.5" y2="117.65"/><line class="cls-4" x1="97.84" y1="117.65" x2="104.44" y2="117.65"/><polyline class="cls-5" points="78.48 128.21 85.15 128.21 85.15 121.48 85.15 80.78 28.43 80.78 21.8 80.78 21.8 87.45"/><line class="cls-4" x1="65.65" y1="134.88" x2="67.82" y2="134.88"/><path class="cls-5" d="M28.43,80.78V72.22a2.88,2.88,0,0,1,2.88-2.88H47.86l5.62,4.72H91.79v54.16a6.66,6.66,0,0,1-6.66,6.66h0a6.66,6.66,0,0,1-6.65-6.66V87.45H15.12v40.77a6.66,6.66,0,0,0,6.66,6.66H61.29"/><rect class="cls-3" x="32.57" y="72.61" width="2.56" height="2.56" rx="1.28"/><rect class="cls-6" x="20.52" y="90.92" width="2.56" height="2.56"/><rect class="cls-6" x="20.52" y="96.81" width="2.56" height="10.85"/><rect class="cls-3" x="37.85" y="72.61" width="2.56" height="2.56" rx="1.28"/><rect class="cls-3" x="43.13" y="72.61" width="2.56" height="2.56" rx="1.28"/><rect class="cls-4" x="63.06" y="38.94" width="72.94" height="14.31" rx="3.76"/><rect class="cls-4" x="63.06" y="15.06" width="72.94" height="23.88" rx="3.76"/><rect class="cls-4" x="63.06" y="53.26" width="72.94" height="14.31" rx="3.76"/><path class="cls-4" d="M63.05,74.06V71.33a3.76,3.76,0,0,1,3.77-3.76h65.41A3.76,3.76,0,0,1,136,71.33v6.79a3.76,3.76,0,0,1-3.76,3.76H91.78"/><path class="cls-4" d="M91.78,81.88h40.45A3.76,3.76,0,0,1,136,85.64v6.79a3.76,3.76,0,0,1-3.76,3.76H91.78"/><path class="cls-4" d="M91.78,96.19h40.45A3.76,3.76,0,0,1,136,100v6.79a3.76,3.76,0,0,1-3.76,3.76H91.78"/><path class="cls-4" d="M91.78,110.5h40.45a3.76,3.76,0,0,1,3.76,3.77v6.78a3.76,3.76,0,0,1-3.76,3.76H91.78"/><line class="cls-4" x1="121.87" y1="134.88" x2="135.29" y2="134.88"/><rect class="cls-7" y="134.88" width="15.12" height="15.12"/><line class="cls-4" x1="128.58" y1="125.88" x2="128.58" y2="134.88"/><line class="cls-4" x1="64.12" y1="27" x2="71.53" y2="27"/><line class="cls-4" x1="127.29" y1="27" x2="134.71" y2="27"/><line class="cls-4" x1="77.88" y1="26.94" x2="121.29" y2="26.94"/></svg>