<svg id="Layer_1" data-name="Layer 1" xmlns="http://www.w3.org/2000/svg" xmlns:xlink="http://www.w3.org/1999/xlink" viewBox="0 0 150 150"><defs><style>.cls-1{fill:#00ccf6;}.cls-2,.cls-4,.cls-5{fill:none;stroke-linecap:round;stroke-width:3px;}.cls-2,.cls-4{stroke:#303297;}.cls-2,.cls-5{stroke-miterlimit:10;}.cls-3{fill:url(#linear-gradient);}.cls-4{stroke-linejoin:round;}.cls-5{stroke:#57c8ed;}</style><linearGradient id="linear-gradient" x1="33.34" y1="98.28" x2="85.85" y2="73.14" gradientUnits="userSpaceOnUse"><stop offset="0" stop-color="#dedeff"/><stop offset="1" stop-color="#dedeff" stop-opacity="0"/></linearGradient></defs><title>namayandegi frosh</title><circle class="cls-1" cx="26.7" cy="25.8" r="2.96"/><circle class="cls-1" cx="36.86" cy="25.8" r="2.96"/><circle class="cls-1" cx="47.02" cy="25.8" r="2.96"/><path class="cls-2" d="M133.51,73.53V99.24a9.72,9.72,0,0,1-9.73,9.73H99.17"/><line class="cls-2" x1="133.51" y1="62.97" x2="133.51" y2="66.06"/><path class="cls-2" d="M16.49,52.37V25.8a9.74,9.74,0,0,1,9.73-9.74h97.56a9.73,9.73,0,0,1,9.73,9.74v32"/><line class="cls-2" x1="123.87" y1="33.11" x2="24.94" y2="33.11"/><path class="cls-3" d="M23.07,64.7,26.32,68v39.34a4.78,4.78,0,0,0,4.77,4.77H83.91a4.77,4.77,0,0,0,4.76-4.77V83.07L27.05,74.89Z"/><path class="cls-4" d="M23.07,65.75,26.32,69v39.33a4.78,4.78,0,0,0,4.77,4.77H83.91a4.77,4.77,0,0,0,4.76-4.77V84.12L27.05,75.94"/><path class="cls-2" d="M26.32,101v16.49a4.77,4.77,0,0,0,4.77,4.76H83.91"/><line class="cls-2" x1="34.23" y1="77.95" x2="34.23" y2="112.06"/><line class="cls-2" x1="42.13" y1="78.94" x2="42.13" y2="112.06"/><line class="cls-2" x1="50.04" y1="79.94" x2="50.04" y2="112.06"/><line class="cls-2" x1="57.94" y1="81.99" x2="57.94" y2="112.06"/><line class="cls-2" x1="65.85" y1="82.99" x2="65.85" y2="112.06"/><line class="cls-2" x1="73.75" y1="83.99" x2="73.75" y2="112.06"/><line class="cls-2" x1="81.66" y1="84.98" x2="81.66" y2="112.06"/><line class="cls-2" x1="88.55" y1="98.52" x2="26.79" y2="98.52"/><circle class="cls-5" cx="84.29" cy="127.87" r="5.59"/><circle class="cls-5" cx="36.86" cy="127.87" r="5.59"/><circle class="cls-2" cx="20.09" cy="62" r="3.87"/></svg>