<svg id="Layer_1" data-name="Layer 1" xmlns="http://www.w3.org/2000/svg" xmlns:xlink="http://www.w3.org/1999/xlink" viewBox="0 0 150 150"><defs><style>.cls-1,.cls-5{fill:#00ccf6;}.cls-2,.cls-4{fill:none;stroke-width:3px;}.cls-2{stroke:#303297;stroke-linecap:round;stroke-miterlimit:10;}.cls-3{fill:url(#linear-gradient);}.cls-4{stroke:#57c8ed;stroke-linejoin:round;}.cls-5{font-size:21.73px;font-family:Gotham-Bold, Gotham;font-weight:700;}</style><linearGradient id="linear-gradient" x1="77.37" y1="82.58" x2="119.8" y2="82.58" gradientUnits="userSpaceOnUse"><stop offset="0" stop-color="#dedeff"/><stop offset="1" stop-color="#dedeff" stop-opacity="0"/></linearGradient></defs><title>ssl</title><circle class="cls-1" cx="28.29" cy="25.8" r="2.96"/><circle class="cls-1" cx="38.45" cy="25.8" r="2.96"/><circle class="cls-1" cx="48.61" cy="25.8" r="2.96"/><line class="cls-2" x1="61.15" y1="108.97" x2="57.32" y2="108.97"/><path class="cls-2" d="M78.08,109H27.68a9.82,9.82,0,0,1-9.82-9.82V25.8a9.74,9.74,0,0,1,9.74-9.74h97.56a9.74,9.74,0,0,1,9.73,9.74V99.31a9.79,9.79,0,0,1-9.79,9.79h-8.39"/><line class="cls-2" x1="125.25" y1="33.11" x2="26.95" y2="33.11"/><text/><path class="cls-3" d="M119.16,85.28,118.54,84a6.13,6.13,0,0,1-.24-4.84l.5-1.32a6.11,6.11,0,0,0-3.75-7.93l-1.33-.45a6.11,6.11,0,0,1-3.6-3.25L109.54,65a6.1,6.1,0,0,0-8.26-3l-1.26.62a6.13,6.13,0,0,1-4.84.24l-1.32-.5a6.11,6.11,0,0,0-7.93,3.75l-.45,1.33A6.11,6.11,0,0,1,82.23,71L81,71.62a6.1,6.1,0,0,0-3,8.26l.62,1.26A6.13,6.13,0,0,1,78.86,86l-.5,1.32a6.11,6.11,0,0,0,3.75,7.93l1.33.45A6.11,6.11,0,0,1,87,98.93l.58,1.28a6.1,6.1,0,0,0,8.26,3l1.26-.62a6.13,6.13,0,0,1,4.84-.24l1.32.5a6.11,6.11,0,0,0,7.93-3.75l.45-1.33a6.11,6.11,0,0,1,3.25-3.6l1.28-.58A6.1,6.1,0,0,0,119.16,85.28Zm-21.3,8.83a11.53,11.53,0,1,1,11.53-11.53A11.53,11.53,0,0,1,97.86,94.11Z"/><path class="cls-2" d="M103.3,102.8l-1.31-.49a6.07,6.07,0,0,0-4.85.24l-1.26.62a6.12,6.12,0,0,1-8.26-3L87,98.94a6.08,6.08,0,0,0-3.59-3.26l-1.33-.45a6.11,6.11,0,0,1-3.76-7.93l.5-1.31a6.15,6.15,0,0,0-.24-4.85L78,79.88a6.1,6.1,0,0,1,3-8.26L82.23,71a6.17,6.17,0,0,0,3.26-3.59l.45-1.33a6.11,6.11,0,0,1,7.93-3.76l1.31.5a6.15,6.15,0,0,0,4.85-.24l1.25-.62a6.1,6.1,0,0,1,8.26,3l.58,1.28a6.16,6.16,0,0,0,3.6,3.26l1.33.45a6.11,6.11,0,0,1,3.75,7.92l-.49,1.32a6,6,0,0,0,.24,4.84l.62,1.26a6.11,6.11,0,0,1-3,8.26l-1.28.58a6.1,6.1,0,0,0-3.26,3.6l-.45,1.33A6.11,6.11,0,0,1,103.3,102.8Z"/><circle class="cls-2" cx="97.86" cy="82.58" r="11.53"/><polyline class="cls-4" points="107.28 104.2 107.28 131.62 98.58 125.26 89.89 131.62 89.89 104.2"/><rect class="cls-2" x="29.42" y="89.48" width="36.11" height="6.88" rx="3.44"/><line class="cls-2" x1="64.7" y1="65.89" x2="59.98" y2="65.89"/><line class="cls-2" x1="53.53" y1="65.89" x2="30.22" y2="65.89"/><line class="cls-2" x1="30.24" y1="72.62" x2="34.95" y2="72.62"/><line class="cls-2" x1="41.4" y1="72.62" x2="64.71" y2="72.62"/><line class="cls-2" x1="30.24" y1="79.39" x2="64.33" y2="79.39"/><text class="cls-5" transform="translate(23.92 59.22)">SSL</text></svg>