<svg width="112" height="32" viewBox="0 0 112 32" fill="none" xmlns="http://www.w3.org/2000/svg">
<path fill-rule="evenodd" clip-rule="evenodd" d="M61.0507 24.8702H75.3698V23.0942H63.4927V17.5441H72.4838V15.7681H63.4927V10.551H75.3698V8.77502H61.0507V24.8702Z" fill="#404242"/>
<path fill-rule="evenodd" clip-rule="evenodd" d="M68.3766 6.22198L66.4896 8.44201L72.5947 6.22198H68.3766Z" fill="#404242"/>
<path fill-rule="evenodd" clip-rule="evenodd" d="M99.568 23.0942V8.77502H97.348V24.8702H112V23.0942H99.568Z" fill="#404242"/>
<path fill-rule="evenodd" clip-rule="evenodd" d="M82.4738 18.7651L86.3588 11.106L90.2438 18.7651H82.4738ZM84.8048 8.77502L76.5907 24.8702H79.3657L81.4747 20.7631H91.3538L93.4629 24.8702H96.2379L88.0238 8.77502H84.8048Z" fill="#404242"/>
<path fill-rule="evenodd" clip-rule="evenodd" d="M51.1714 16.2121C43.6234 16.2121 43.6234 16.2121 43.6234 16.2121C43.6234 10.662 43.6234 10.662 43.6234 10.662C51.3935 10.662 51.3935 10.662 51.3935 10.662C53.2805 10.662 54.2795 11.5501 54.6125 12.6601C54.8345 13.4371 54.7235 14.3251 54.2795 14.9911C53.6135 15.9901 52.3925 16.2121 51.1714 16.2121ZM53.0585 18.2101C56.8325 17.2111 57.1655 14.4361 57.1655 13.4371C56.9435 10.551 54.9455 8.77502 51.5045 8.77502C41.2924 8.77502 41.2924 8.77502 41.2924 8.77502C41.2924 24.8702 41.2924 24.8702 41.2924 24.8702C43.6234 24.8702 43.6234 24.8702 43.6234 24.8702C43.6234 18.0991 43.6234 18.0991 43.6234 18.0991C50.2834 18.0991 50.2834 18.0991 50.2834 18.0991C55.1675 24.8702 55.1675 24.8702 55.1675 24.8702C58.0535 24.8702 58.0535 24.8702 58.0535 24.8702C58.0535 24.8702 54.6125 20.4301 53.0585 18.2101Z" fill="#404242"/>
<path fill-rule="evenodd" clip-rule="evenodd" d="M27.1954 24.2042C22.6444 24.2042 18.8703 20.5411 18.8703 16.2121C18.8703 11.8831 22.4224 7.99802 27.3064 7.99802C32.0794 7.99802 35.6315 11.7721 35.6315 16.2121C35.7425 20.6521 31.7464 24.2042 27.1954 24.2042ZM27.3064 6C20.6463 6 16.2063 10.662 16.2063 16.2121C16.2063 22.0951 21.2013 26.2022 27.3064 26.2022C33.4115 26.2022 38.2955 22.0951 38.2955 16.2121C38.4065 10.662 33.8555 6 27.3064 6Z" fill="#404242"/>
<path fill-rule="evenodd" clip-rule="evenodd" d="M10.5452 14.5471H12.2102L15.2072 8.77502H12.7652L10.5452 14.5471Z" fill="#404242"/>
<path fill-rule="evenodd" clip-rule="evenodd" d="M2.22002 23.0942V8.77502H0V24.8702H14.6521V23.0942H2.22002Z" fill="#404242"/>
</svg>
